G04 #@! TF.GenerationSoftware,KiCad,Pcbnew,(5.1.4)-1*
G04 #@! TF.CreationDate,2019-10-09T21:16:12+02:00*
G04 #@! TF.ProjectId,Front,46726f6e-742e-46b6-9963-61645f706362,rev?*
G04 #@! TF.SameCoordinates,Original*
G04 #@! TF.FileFunction,Copper,L1,Top*
G04 #@! TF.FilePolarity,Positive*
%FSLAX46Y46*%
G04 Gerber Fmt 4.6, Leading zero omitted, Abs format (unit mm)*
G04 Created by KiCad (PCBNEW (5.1.4)-1) date 2019-10-09 21:16:12*
%MOMM*%
%LPD*%
G04 APERTURE LIST*
%ADD10C,0.100000*%
%ADD11R,1.380000X0.450000*%
%ADD12R,2.100000X1.475000*%
%ADD13R,1.900000X2.375000*%
%ADD14R,1.900000X1.175000*%
%ADD15R,2.000000X0.900000*%
%ADD16R,0.900000X2.000000*%
%ADD17R,5.000000X5.000000*%
%ADD18C,0.600000*%
%ADD19R,0.900000X0.800000*%
%ADD20R,0.650000X1.060000*%
%ADD21C,1.600000*%
%ADD22R,2.500000X5.000000*%
%ADD23R,1.000000X1.550000*%
%ADD24R,1.000000X4.000000*%
%ADD25C,1.150000*%
%ADD26C,0.975000*%
%ADD27C,1.000000*%
%ADD28C,0.800000*%
%ADD29C,0.400000*%
%ADD30C,0.200000*%
%ADD31C,0.254000*%
G04 APERTURE END LIST*
D10*
X225200000Y-121400000D02*
X230300000Y-121400000D01*
X225200000Y-124600000D02*
X225200000Y-121400000D01*
X230300000Y-124600000D02*
X225200000Y-124600000D01*
X230300000Y-121400000D02*
X230300000Y-124600000D01*
X195500000Y-143000000D02*
X195500000Y-103000000D01*
X235500000Y-143000000D02*
X195500000Y-143000000D01*
X235500000Y-103000000D02*
X235500000Y-143000000D01*
X195500000Y-103000000D02*
X235500000Y-103000000D01*
D11*
X199260000Y-111350000D03*
X199260000Y-112000000D03*
X199260000Y-112650000D03*
X199260000Y-113300000D03*
X199260000Y-113950000D03*
D12*
X198900000Y-110187500D03*
X198900000Y-115112500D03*
D13*
X196600000Y-109740000D03*
X196600000Y-115560000D03*
D14*
X196600000Y-111810000D03*
X196600000Y-113490000D03*
D15*
X224000000Y-118445000D03*
X224000000Y-119715000D03*
X224000000Y-120985000D03*
X224000000Y-122255000D03*
X224000000Y-123525000D03*
X224000000Y-124795000D03*
X224000000Y-126065000D03*
X224000000Y-127335000D03*
X224000000Y-128605000D03*
X224000000Y-129875000D03*
X224000000Y-131145000D03*
X224000000Y-132415000D03*
X224000000Y-133685000D03*
X224000000Y-134955000D03*
D16*
X221215000Y-135955000D03*
X219945000Y-135955000D03*
X218675000Y-135955000D03*
X217405000Y-135955000D03*
X216135000Y-135955000D03*
X214865000Y-135955000D03*
X213595000Y-135955000D03*
X212325000Y-135955000D03*
X211055000Y-135955000D03*
X209785000Y-135955000D03*
D15*
X207000000Y-134955000D03*
X207000000Y-133685000D03*
X207000000Y-132415000D03*
X207000000Y-131145000D03*
X207000000Y-129875000D03*
X207000000Y-128605000D03*
X207000000Y-127335000D03*
X207000000Y-126065000D03*
X207000000Y-124795000D03*
X207000000Y-123525000D03*
X207000000Y-122255000D03*
X207000000Y-120985000D03*
X207000000Y-119715000D03*
X207000000Y-118445000D03*
D17*
X214500000Y-125945000D03*
D10*
G36*
X199064703Y-122655722D02*
G01*
X199079264Y-122657882D01*
X199093543Y-122661459D01*
X199107403Y-122666418D01*
X199120710Y-122672712D01*
X199133336Y-122680280D01*
X199145159Y-122689048D01*
X199156066Y-122698934D01*
X199165952Y-122709841D01*
X199174720Y-122721664D01*
X199182288Y-122734290D01*
X199188582Y-122747597D01*
X199193541Y-122761457D01*
X199197118Y-122775736D01*
X199199278Y-122790297D01*
X199200000Y-122805000D01*
X199200000Y-123105000D01*
X199199278Y-123119703D01*
X199197118Y-123134264D01*
X199193541Y-123148543D01*
X199188582Y-123162403D01*
X199182288Y-123175710D01*
X199174720Y-123188336D01*
X199165952Y-123200159D01*
X199156066Y-123211066D01*
X199145159Y-123220952D01*
X199133336Y-123229720D01*
X199120710Y-123237288D01*
X199107403Y-123243582D01*
X199093543Y-123248541D01*
X199079264Y-123252118D01*
X199064703Y-123254278D01*
X199050000Y-123255000D01*
X197400000Y-123255000D01*
X197385297Y-123254278D01*
X197370736Y-123252118D01*
X197356457Y-123248541D01*
X197342597Y-123243582D01*
X197329290Y-123237288D01*
X197316664Y-123229720D01*
X197304841Y-123220952D01*
X197293934Y-123211066D01*
X197284048Y-123200159D01*
X197275280Y-123188336D01*
X197267712Y-123175710D01*
X197261418Y-123162403D01*
X197256459Y-123148543D01*
X197252882Y-123134264D01*
X197250722Y-123119703D01*
X197250000Y-123105000D01*
X197250000Y-122805000D01*
X197250722Y-122790297D01*
X197252882Y-122775736D01*
X197256459Y-122761457D01*
X197261418Y-122747597D01*
X197267712Y-122734290D01*
X197275280Y-122721664D01*
X197284048Y-122709841D01*
X197293934Y-122698934D01*
X197304841Y-122689048D01*
X197316664Y-122680280D01*
X197329290Y-122672712D01*
X197342597Y-122666418D01*
X197356457Y-122661459D01*
X197370736Y-122657882D01*
X197385297Y-122655722D01*
X197400000Y-122655000D01*
X199050000Y-122655000D01*
X199064703Y-122655722D01*
X199064703Y-122655722D01*
G37*
D18*
X198225000Y-122955000D03*
D10*
G36*
X199064703Y-123925722D02*
G01*
X199079264Y-123927882D01*
X199093543Y-123931459D01*
X199107403Y-123936418D01*
X199120710Y-123942712D01*
X199133336Y-123950280D01*
X199145159Y-123959048D01*
X199156066Y-123968934D01*
X199165952Y-123979841D01*
X199174720Y-123991664D01*
X199182288Y-124004290D01*
X199188582Y-124017597D01*
X199193541Y-124031457D01*
X199197118Y-124045736D01*
X199199278Y-124060297D01*
X199200000Y-124075000D01*
X199200000Y-124375000D01*
X199199278Y-124389703D01*
X199197118Y-124404264D01*
X199193541Y-124418543D01*
X199188582Y-124432403D01*
X199182288Y-124445710D01*
X199174720Y-124458336D01*
X199165952Y-124470159D01*
X199156066Y-124481066D01*
X199145159Y-124490952D01*
X199133336Y-124499720D01*
X199120710Y-124507288D01*
X199107403Y-124513582D01*
X199093543Y-124518541D01*
X199079264Y-124522118D01*
X199064703Y-124524278D01*
X199050000Y-124525000D01*
X197400000Y-124525000D01*
X197385297Y-124524278D01*
X197370736Y-124522118D01*
X197356457Y-124518541D01*
X197342597Y-124513582D01*
X197329290Y-124507288D01*
X197316664Y-124499720D01*
X197304841Y-124490952D01*
X197293934Y-124481066D01*
X197284048Y-124470159D01*
X197275280Y-124458336D01*
X197267712Y-124445710D01*
X197261418Y-124432403D01*
X197256459Y-124418543D01*
X197252882Y-124404264D01*
X197250722Y-124389703D01*
X197250000Y-124375000D01*
X197250000Y-124075000D01*
X197250722Y-124060297D01*
X197252882Y-124045736D01*
X197256459Y-124031457D01*
X197261418Y-124017597D01*
X197267712Y-124004290D01*
X197275280Y-123991664D01*
X197284048Y-123979841D01*
X197293934Y-123968934D01*
X197304841Y-123959048D01*
X197316664Y-123950280D01*
X197329290Y-123942712D01*
X197342597Y-123936418D01*
X197356457Y-123931459D01*
X197370736Y-123927882D01*
X197385297Y-123925722D01*
X197400000Y-123925000D01*
X199050000Y-123925000D01*
X199064703Y-123925722D01*
X199064703Y-123925722D01*
G37*
D18*
X198225000Y-124225000D03*
D10*
G36*
X199064703Y-125195722D02*
G01*
X199079264Y-125197882D01*
X199093543Y-125201459D01*
X199107403Y-125206418D01*
X199120710Y-125212712D01*
X199133336Y-125220280D01*
X199145159Y-125229048D01*
X199156066Y-125238934D01*
X199165952Y-125249841D01*
X199174720Y-125261664D01*
X199182288Y-125274290D01*
X199188582Y-125287597D01*
X199193541Y-125301457D01*
X199197118Y-125315736D01*
X199199278Y-125330297D01*
X199200000Y-125345000D01*
X199200000Y-125645000D01*
X199199278Y-125659703D01*
X199197118Y-125674264D01*
X199193541Y-125688543D01*
X199188582Y-125702403D01*
X199182288Y-125715710D01*
X199174720Y-125728336D01*
X199165952Y-125740159D01*
X199156066Y-125751066D01*
X199145159Y-125760952D01*
X199133336Y-125769720D01*
X199120710Y-125777288D01*
X199107403Y-125783582D01*
X199093543Y-125788541D01*
X199079264Y-125792118D01*
X199064703Y-125794278D01*
X199050000Y-125795000D01*
X197400000Y-125795000D01*
X197385297Y-125794278D01*
X197370736Y-125792118D01*
X197356457Y-125788541D01*
X197342597Y-125783582D01*
X197329290Y-125777288D01*
X197316664Y-125769720D01*
X197304841Y-125760952D01*
X197293934Y-125751066D01*
X197284048Y-125740159D01*
X197275280Y-125728336D01*
X197267712Y-125715710D01*
X197261418Y-125702403D01*
X197256459Y-125688543D01*
X197252882Y-125674264D01*
X197250722Y-125659703D01*
X197250000Y-125645000D01*
X197250000Y-125345000D01*
X197250722Y-125330297D01*
X197252882Y-125315736D01*
X197256459Y-125301457D01*
X197261418Y-125287597D01*
X197267712Y-125274290D01*
X197275280Y-125261664D01*
X197284048Y-125249841D01*
X197293934Y-125238934D01*
X197304841Y-125229048D01*
X197316664Y-125220280D01*
X197329290Y-125212712D01*
X197342597Y-125206418D01*
X197356457Y-125201459D01*
X197370736Y-125197882D01*
X197385297Y-125195722D01*
X197400000Y-125195000D01*
X199050000Y-125195000D01*
X199064703Y-125195722D01*
X199064703Y-125195722D01*
G37*
D18*
X198225000Y-125495000D03*
D10*
G36*
X199064703Y-126465722D02*
G01*
X199079264Y-126467882D01*
X199093543Y-126471459D01*
X199107403Y-126476418D01*
X199120710Y-126482712D01*
X199133336Y-126490280D01*
X199145159Y-126499048D01*
X199156066Y-126508934D01*
X199165952Y-126519841D01*
X199174720Y-126531664D01*
X199182288Y-126544290D01*
X199188582Y-126557597D01*
X199193541Y-126571457D01*
X199197118Y-126585736D01*
X199199278Y-126600297D01*
X199200000Y-126615000D01*
X199200000Y-126915000D01*
X199199278Y-126929703D01*
X199197118Y-126944264D01*
X199193541Y-126958543D01*
X199188582Y-126972403D01*
X199182288Y-126985710D01*
X199174720Y-126998336D01*
X199165952Y-127010159D01*
X199156066Y-127021066D01*
X199145159Y-127030952D01*
X199133336Y-127039720D01*
X199120710Y-127047288D01*
X199107403Y-127053582D01*
X199093543Y-127058541D01*
X199079264Y-127062118D01*
X199064703Y-127064278D01*
X199050000Y-127065000D01*
X197400000Y-127065000D01*
X197385297Y-127064278D01*
X197370736Y-127062118D01*
X197356457Y-127058541D01*
X197342597Y-127053582D01*
X197329290Y-127047288D01*
X197316664Y-127039720D01*
X197304841Y-127030952D01*
X197293934Y-127021066D01*
X197284048Y-127010159D01*
X197275280Y-126998336D01*
X197267712Y-126985710D01*
X197261418Y-126972403D01*
X197256459Y-126958543D01*
X197252882Y-126944264D01*
X197250722Y-126929703D01*
X197250000Y-126915000D01*
X197250000Y-126615000D01*
X197250722Y-126600297D01*
X197252882Y-126585736D01*
X197256459Y-126571457D01*
X197261418Y-126557597D01*
X197267712Y-126544290D01*
X197275280Y-126531664D01*
X197284048Y-126519841D01*
X197293934Y-126508934D01*
X197304841Y-126499048D01*
X197316664Y-126490280D01*
X197329290Y-126482712D01*
X197342597Y-126476418D01*
X197356457Y-126471459D01*
X197370736Y-126467882D01*
X197385297Y-126465722D01*
X197400000Y-126465000D01*
X199050000Y-126465000D01*
X199064703Y-126465722D01*
X199064703Y-126465722D01*
G37*
D18*
X198225000Y-126765000D03*
D10*
G36*
X199064703Y-127735722D02*
G01*
X199079264Y-127737882D01*
X199093543Y-127741459D01*
X199107403Y-127746418D01*
X199120710Y-127752712D01*
X199133336Y-127760280D01*
X199145159Y-127769048D01*
X199156066Y-127778934D01*
X199165952Y-127789841D01*
X199174720Y-127801664D01*
X199182288Y-127814290D01*
X199188582Y-127827597D01*
X199193541Y-127841457D01*
X199197118Y-127855736D01*
X199199278Y-127870297D01*
X199200000Y-127885000D01*
X199200000Y-128185000D01*
X199199278Y-128199703D01*
X199197118Y-128214264D01*
X199193541Y-128228543D01*
X199188582Y-128242403D01*
X199182288Y-128255710D01*
X199174720Y-128268336D01*
X199165952Y-128280159D01*
X199156066Y-128291066D01*
X199145159Y-128300952D01*
X199133336Y-128309720D01*
X199120710Y-128317288D01*
X199107403Y-128323582D01*
X199093543Y-128328541D01*
X199079264Y-128332118D01*
X199064703Y-128334278D01*
X199050000Y-128335000D01*
X197400000Y-128335000D01*
X197385297Y-128334278D01*
X197370736Y-128332118D01*
X197356457Y-128328541D01*
X197342597Y-128323582D01*
X197329290Y-128317288D01*
X197316664Y-128309720D01*
X197304841Y-128300952D01*
X197293934Y-128291066D01*
X197284048Y-128280159D01*
X197275280Y-128268336D01*
X197267712Y-128255710D01*
X197261418Y-128242403D01*
X197256459Y-128228543D01*
X197252882Y-128214264D01*
X197250722Y-128199703D01*
X197250000Y-128185000D01*
X197250000Y-127885000D01*
X197250722Y-127870297D01*
X197252882Y-127855736D01*
X197256459Y-127841457D01*
X197261418Y-127827597D01*
X197267712Y-127814290D01*
X197275280Y-127801664D01*
X197284048Y-127789841D01*
X197293934Y-127778934D01*
X197304841Y-127769048D01*
X197316664Y-127760280D01*
X197329290Y-127752712D01*
X197342597Y-127746418D01*
X197356457Y-127741459D01*
X197370736Y-127737882D01*
X197385297Y-127735722D01*
X197400000Y-127735000D01*
X199050000Y-127735000D01*
X199064703Y-127735722D01*
X199064703Y-127735722D01*
G37*
D18*
X198225000Y-128035000D03*
D10*
G36*
X199064703Y-129005722D02*
G01*
X199079264Y-129007882D01*
X199093543Y-129011459D01*
X199107403Y-129016418D01*
X199120710Y-129022712D01*
X199133336Y-129030280D01*
X199145159Y-129039048D01*
X199156066Y-129048934D01*
X199165952Y-129059841D01*
X199174720Y-129071664D01*
X199182288Y-129084290D01*
X199188582Y-129097597D01*
X199193541Y-129111457D01*
X199197118Y-129125736D01*
X199199278Y-129140297D01*
X199200000Y-129155000D01*
X199200000Y-129455000D01*
X199199278Y-129469703D01*
X199197118Y-129484264D01*
X199193541Y-129498543D01*
X199188582Y-129512403D01*
X199182288Y-129525710D01*
X199174720Y-129538336D01*
X199165952Y-129550159D01*
X199156066Y-129561066D01*
X199145159Y-129570952D01*
X199133336Y-129579720D01*
X199120710Y-129587288D01*
X199107403Y-129593582D01*
X199093543Y-129598541D01*
X199079264Y-129602118D01*
X199064703Y-129604278D01*
X199050000Y-129605000D01*
X197400000Y-129605000D01*
X197385297Y-129604278D01*
X197370736Y-129602118D01*
X197356457Y-129598541D01*
X197342597Y-129593582D01*
X197329290Y-129587288D01*
X197316664Y-129579720D01*
X197304841Y-129570952D01*
X197293934Y-129561066D01*
X197284048Y-129550159D01*
X197275280Y-129538336D01*
X197267712Y-129525710D01*
X197261418Y-129512403D01*
X197256459Y-129498543D01*
X197252882Y-129484264D01*
X197250722Y-129469703D01*
X197250000Y-129455000D01*
X197250000Y-129155000D01*
X197250722Y-129140297D01*
X197252882Y-129125736D01*
X197256459Y-129111457D01*
X197261418Y-129097597D01*
X197267712Y-129084290D01*
X197275280Y-129071664D01*
X197284048Y-129059841D01*
X197293934Y-129048934D01*
X197304841Y-129039048D01*
X197316664Y-129030280D01*
X197329290Y-129022712D01*
X197342597Y-129016418D01*
X197356457Y-129011459D01*
X197370736Y-129007882D01*
X197385297Y-129005722D01*
X197400000Y-129005000D01*
X199050000Y-129005000D01*
X199064703Y-129005722D01*
X199064703Y-129005722D01*
G37*
D18*
X198225000Y-129305000D03*
D10*
G36*
X199064703Y-130275722D02*
G01*
X199079264Y-130277882D01*
X199093543Y-130281459D01*
X199107403Y-130286418D01*
X199120710Y-130292712D01*
X199133336Y-130300280D01*
X199145159Y-130309048D01*
X199156066Y-130318934D01*
X199165952Y-130329841D01*
X199174720Y-130341664D01*
X199182288Y-130354290D01*
X199188582Y-130367597D01*
X199193541Y-130381457D01*
X199197118Y-130395736D01*
X199199278Y-130410297D01*
X199200000Y-130425000D01*
X199200000Y-130725000D01*
X199199278Y-130739703D01*
X199197118Y-130754264D01*
X199193541Y-130768543D01*
X199188582Y-130782403D01*
X199182288Y-130795710D01*
X199174720Y-130808336D01*
X199165952Y-130820159D01*
X199156066Y-130831066D01*
X199145159Y-130840952D01*
X199133336Y-130849720D01*
X199120710Y-130857288D01*
X199107403Y-130863582D01*
X199093543Y-130868541D01*
X199079264Y-130872118D01*
X199064703Y-130874278D01*
X199050000Y-130875000D01*
X197400000Y-130875000D01*
X197385297Y-130874278D01*
X197370736Y-130872118D01*
X197356457Y-130868541D01*
X197342597Y-130863582D01*
X197329290Y-130857288D01*
X197316664Y-130849720D01*
X197304841Y-130840952D01*
X197293934Y-130831066D01*
X197284048Y-130820159D01*
X197275280Y-130808336D01*
X197267712Y-130795710D01*
X197261418Y-130782403D01*
X197256459Y-130768543D01*
X197252882Y-130754264D01*
X197250722Y-130739703D01*
X197250000Y-130725000D01*
X197250000Y-130425000D01*
X197250722Y-130410297D01*
X197252882Y-130395736D01*
X197256459Y-130381457D01*
X197261418Y-130367597D01*
X197267712Y-130354290D01*
X197275280Y-130341664D01*
X197284048Y-130329841D01*
X197293934Y-130318934D01*
X197304841Y-130309048D01*
X197316664Y-130300280D01*
X197329290Y-130292712D01*
X197342597Y-130286418D01*
X197356457Y-130281459D01*
X197370736Y-130277882D01*
X197385297Y-130275722D01*
X197400000Y-130275000D01*
X199050000Y-130275000D01*
X199064703Y-130275722D01*
X199064703Y-130275722D01*
G37*
D18*
X198225000Y-130575000D03*
D10*
G36*
X199064703Y-131545722D02*
G01*
X199079264Y-131547882D01*
X199093543Y-131551459D01*
X199107403Y-131556418D01*
X199120710Y-131562712D01*
X199133336Y-131570280D01*
X199145159Y-131579048D01*
X199156066Y-131588934D01*
X199165952Y-131599841D01*
X199174720Y-131611664D01*
X199182288Y-131624290D01*
X199188582Y-131637597D01*
X199193541Y-131651457D01*
X199197118Y-131665736D01*
X199199278Y-131680297D01*
X199200000Y-131695000D01*
X199200000Y-131995000D01*
X199199278Y-132009703D01*
X199197118Y-132024264D01*
X199193541Y-132038543D01*
X199188582Y-132052403D01*
X199182288Y-132065710D01*
X199174720Y-132078336D01*
X199165952Y-132090159D01*
X199156066Y-132101066D01*
X199145159Y-132110952D01*
X199133336Y-132119720D01*
X199120710Y-132127288D01*
X199107403Y-132133582D01*
X199093543Y-132138541D01*
X199079264Y-132142118D01*
X199064703Y-132144278D01*
X199050000Y-132145000D01*
X197400000Y-132145000D01*
X197385297Y-132144278D01*
X197370736Y-132142118D01*
X197356457Y-132138541D01*
X197342597Y-132133582D01*
X197329290Y-132127288D01*
X197316664Y-132119720D01*
X197304841Y-132110952D01*
X197293934Y-132101066D01*
X197284048Y-132090159D01*
X197275280Y-132078336D01*
X197267712Y-132065710D01*
X197261418Y-132052403D01*
X197256459Y-132038543D01*
X197252882Y-132024264D01*
X197250722Y-132009703D01*
X197250000Y-131995000D01*
X197250000Y-131695000D01*
X197250722Y-131680297D01*
X197252882Y-131665736D01*
X197256459Y-131651457D01*
X197261418Y-131637597D01*
X197267712Y-131624290D01*
X197275280Y-131611664D01*
X197284048Y-131599841D01*
X197293934Y-131588934D01*
X197304841Y-131579048D01*
X197316664Y-131570280D01*
X197329290Y-131562712D01*
X197342597Y-131556418D01*
X197356457Y-131551459D01*
X197370736Y-131547882D01*
X197385297Y-131545722D01*
X197400000Y-131545000D01*
X199050000Y-131545000D01*
X199064703Y-131545722D01*
X199064703Y-131545722D01*
G37*
D18*
X198225000Y-131845000D03*
D10*
G36*
X204014703Y-131545722D02*
G01*
X204029264Y-131547882D01*
X204043543Y-131551459D01*
X204057403Y-131556418D01*
X204070710Y-131562712D01*
X204083336Y-131570280D01*
X204095159Y-131579048D01*
X204106066Y-131588934D01*
X204115952Y-131599841D01*
X204124720Y-131611664D01*
X204132288Y-131624290D01*
X204138582Y-131637597D01*
X204143541Y-131651457D01*
X204147118Y-131665736D01*
X204149278Y-131680297D01*
X204150000Y-131695000D01*
X204150000Y-131995000D01*
X204149278Y-132009703D01*
X204147118Y-132024264D01*
X204143541Y-132038543D01*
X204138582Y-132052403D01*
X204132288Y-132065710D01*
X204124720Y-132078336D01*
X204115952Y-132090159D01*
X204106066Y-132101066D01*
X204095159Y-132110952D01*
X204083336Y-132119720D01*
X204070710Y-132127288D01*
X204057403Y-132133582D01*
X204043543Y-132138541D01*
X204029264Y-132142118D01*
X204014703Y-132144278D01*
X204000000Y-132145000D01*
X202350000Y-132145000D01*
X202335297Y-132144278D01*
X202320736Y-132142118D01*
X202306457Y-132138541D01*
X202292597Y-132133582D01*
X202279290Y-132127288D01*
X202266664Y-132119720D01*
X202254841Y-132110952D01*
X202243934Y-132101066D01*
X202234048Y-132090159D01*
X202225280Y-132078336D01*
X202217712Y-132065710D01*
X202211418Y-132052403D01*
X202206459Y-132038543D01*
X202202882Y-132024264D01*
X202200722Y-132009703D01*
X202200000Y-131995000D01*
X202200000Y-131695000D01*
X202200722Y-131680297D01*
X202202882Y-131665736D01*
X202206459Y-131651457D01*
X202211418Y-131637597D01*
X202217712Y-131624290D01*
X202225280Y-131611664D01*
X202234048Y-131599841D01*
X202243934Y-131588934D01*
X202254841Y-131579048D01*
X202266664Y-131570280D01*
X202279290Y-131562712D01*
X202292597Y-131556418D01*
X202306457Y-131551459D01*
X202320736Y-131547882D01*
X202335297Y-131545722D01*
X202350000Y-131545000D01*
X204000000Y-131545000D01*
X204014703Y-131545722D01*
X204014703Y-131545722D01*
G37*
D18*
X203175000Y-131845000D03*
D10*
G36*
X204014703Y-130275722D02*
G01*
X204029264Y-130277882D01*
X204043543Y-130281459D01*
X204057403Y-130286418D01*
X204070710Y-130292712D01*
X204083336Y-130300280D01*
X204095159Y-130309048D01*
X204106066Y-130318934D01*
X204115952Y-130329841D01*
X204124720Y-130341664D01*
X204132288Y-130354290D01*
X204138582Y-130367597D01*
X204143541Y-130381457D01*
X204147118Y-130395736D01*
X204149278Y-130410297D01*
X204150000Y-130425000D01*
X204150000Y-130725000D01*
X204149278Y-130739703D01*
X204147118Y-130754264D01*
X204143541Y-130768543D01*
X204138582Y-130782403D01*
X204132288Y-130795710D01*
X204124720Y-130808336D01*
X204115952Y-130820159D01*
X204106066Y-130831066D01*
X204095159Y-130840952D01*
X204083336Y-130849720D01*
X204070710Y-130857288D01*
X204057403Y-130863582D01*
X204043543Y-130868541D01*
X204029264Y-130872118D01*
X204014703Y-130874278D01*
X204000000Y-130875000D01*
X202350000Y-130875000D01*
X202335297Y-130874278D01*
X202320736Y-130872118D01*
X202306457Y-130868541D01*
X202292597Y-130863582D01*
X202279290Y-130857288D01*
X202266664Y-130849720D01*
X202254841Y-130840952D01*
X202243934Y-130831066D01*
X202234048Y-130820159D01*
X202225280Y-130808336D01*
X202217712Y-130795710D01*
X202211418Y-130782403D01*
X202206459Y-130768543D01*
X202202882Y-130754264D01*
X202200722Y-130739703D01*
X202200000Y-130725000D01*
X202200000Y-130425000D01*
X202200722Y-130410297D01*
X202202882Y-130395736D01*
X202206459Y-130381457D01*
X202211418Y-130367597D01*
X202217712Y-130354290D01*
X202225280Y-130341664D01*
X202234048Y-130329841D01*
X202243934Y-130318934D01*
X202254841Y-130309048D01*
X202266664Y-130300280D01*
X202279290Y-130292712D01*
X202292597Y-130286418D01*
X202306457Y-130281459D01*
X202320736Y-130277882D01*
X202335297Y-130275722D01*
X202350000Y-130275000D01*
X204000000Y-130275000D01*
X204014703Y-130275722D01*
X204014703Y-130275722D01*
G37*
D18*
X203175000Y-130575000D03*
D10*
G36*
X204014703Y-129005722D02*
G01*
X204029264Y-129007882D01*
X204043543Y-129011459D01*
X204057403Y-129016418D01*
X204070710Y-129022712D01*
X204083336Y-129030280D01*
X204095159Y-129039048D01*
X204106066Y-129048934D01*
X204115952Y-129059841D01*
X204124720Y-129071664D01*
X204132288Y-129084290D01*
X204138582Y-129097597D01*
X204143541Y-129111457D01*
X204147118Y-129125736D01*
X204149278Y-129140297D01*
X204150000Y-129155000D01*
X204150000Y-129455000D01*
X204149278Y-129469703D01*
X204147118Y-129484264D01*
X204143541Y-129498543D01*
X204138582Y-129512403D01*
X204132288Y-129525710D01*
X204124720Y-129538336D01*
X204115952Y-129550159D01*
X204106066Y-129561066D01*
X204095159Y-129570952D01*
X204083336Y-129579720D01*
X204070710Y-129587288D01*
X204057403Y-129593582D01*
X204043543Y-129598541D01*
X204029264Y-129602118D01*
X204014703Y-129604278D01*
X204000000Y-129605000D01*
X202350000Y-129605000D01*
X202335297Y-129604278D01*
X202320736Y-129602118D01*
X202306457Y-129598541D01*
X202292597Y-129593582D01*
X202279290Y-129587288D01*
X202266664Y-129579720D01*
X202254841Y-129570952D01*
X202243934Y-129561066D01*
X202234048Y-129550159D01*
X202225280Y-129538336D01*
X202217712Y-129525710D01*
X202211418Y-129512403D01*
X202206459Y-129498543D01*
X202202882Y-129484264D01*
X202200722Y-129469703D01*
X202200000Y-129455000D01*
X202200000Y-129155000D01*
X202200722Y-129140297D01*
X202202882Y-129125736D01*
X202206459Y-129111457D01*
X202211418Y-129097597D01*
X202217712Y-129084290D01*
X202225280Y-129071664D01*
X202234048Y-129059841D01*
X202243934Y-129048934D01*
X202254841Y-129039048D01*
X202266664Y-129030280D01*
X202279290Y-129022712D01*
X202292597Y-129016418D01*
X202306457Y-129011459D01*
X202320736Y-129007882D01*
X202335297Y-129005722D01*
X202350000Y-129005000D01*
X204000000Y-129005000D01*
X204014703Y-129005722D01*
X204014703Y-129005722D01*
G37*
D18*
X203175000Y-129305000D03*
D10*
G36*
X204014703Y-127735722D02*
G01*
X204029264Y-127737882D01*
X204043543Y-127741459D01*
X204057403Y-127746418D01*
X204070710Y-127752712D01*
X204083336Y-127760280D01*
X204095159Y-127769048D01*
X204106066Y-127778934D01*
X204115952Y-127789841D01*
X204124720Y-127801664D01*
X204132288Y-127814290D01*
X204138582Y-127827597D01*
X204143541Y-127841457D01*
X204147118Y-127855736D01*
X204149278Y-127870297D01*
X204150000Y-127885000D01*
X204150000Y-128185000D01*
X204149278Y-128199703D01*
X204147118Y-128214264D01*
X204143541Y-128228543D01*
X204138582Y-128242403D01*
X204132288Y-128255710D01*
X204124720Y-128268336D01*
X204115952Y-128280159D01*
X204106066Y-128291066D01*
X204095159Y-128300952D01*
X204083336Y-128309720D01*
X204070710Y-128317288D01*
X204057403Y-128323582D01*
X204043543Y-128328541D01*
X204029264Y-128332118D01*
X204014703Y-128334278D01*
X204000000Y-128335000D01*
X202350000Y-128335000D01*
X202335297Y-128334278D01*
X202320736Y-128332118D01*
X202306457Y-128328541D01*
X202292597Y-128323582D01*
X202279290Y-128317288D01*
X202266664Y-128309720D01*
X202254841Y-128300952D01*
X202243934Y-128291066D01*
X202234048Y-128280159D01*
X202225280Y-128268336D01*
X202217712Y-128255710D01*
X202211418Y-128242403D01*
X202206459Y-128228543D01*
X202202882Y-128214264D01*
X202200722Y-128199703D01*
X202200000Y-128185000D01*
X202200000Y-127885000D01*
X202200722Y-127870297D01*
X202202882Y-127855736D01*
X202206459Y-127841457D01*
X202211418Y-127827597D01*
X202217712Y-127814290D01*
X202225280Y-127801664D01*
X202234048Y-127789841D01*
X202243934Y-127778934D01*
X202254841Y-127769048D01*
X202266664Y-127760280D01*
X202279290Y-127752712D01*
X202292597Y-127746418D01*
X202306457Y-127741459D01*
X202320736Y-127737882D01*
X202335297Y-127735722D01*
X202350000Y-127735000D01*
X204000000Y-127735000D01*
X204014703Y-127735722D01*
X204014703Y-127735722D01*
G37*
D18*
X203175000Y-128035000D03*
D10*
G36*
X204014703Y-126465722D02*
G01*
X204029264Y-126467882D01*
X204043543Y-126471459D01*
X204057403Y-126476418D01*
X204070710Y-126482712D01*
X204083336Y-126490280D01*
X204095159Y-126499048D01*
X204106066Y-126508934D01*
X204115952Y-126519841D01*
X204124720Y-126531664D01*
X204132288Y-126544290D01*
X204138582Y-126557597D01*
X204143541Y-126571457D01*
X204147118Y-126585736D01*
X204149278Y-126600297D01*
X204150000Y-126615000D01*
X204150000Y-126915000D01*
X204149278Y-126929703D01*
X204147118Y-126944264D01*
X204143541Y-126958543D01*
X204138582Y-126972403D01*
X204132288Y-126985710D01*
X204124720Y-126998336D01*
X204115952Y-127010159D01*
X204106066Y-127021066D01*
X204095159Y-127030952D01*
X204083336Y-127039720D01*
X204070710Y-127047288D01*
X204057403Y-127053582D01*
X204043543Y-127058541D01*
X204029264Y-127062118D01*
X204014703Y-127064278D01*
X204000000Y-127065000D01*
X202350000Y-127065000D01*
X202335297Y-127064278D01*
X202320736Y-127062118D01*
X202306457Y-127058541D01*
X202292597Y-127053582D01*
X202279290Y-127047288D01*
X202266664Y-127039720D01*
X202254841Y-127030952D01*
X202243934Y-127021066D01*
X202234048Y-127010159D01*
X202225280Y-126998336D01*
X202217712Y-126985710D01*
X202211418Y-126972403D01*
X202206459Y-126958543D01*
X202202882Y-126944264D01*
X202200722Y-126929703D01*
X202200000Y-126915000D01*
X202200000Y-126615000D01*
X202200722Y-126600297D01*
X202202882Y-126585736D01*
X202206459Y-126571457D01*
X202211418Y-126557597D01*
X202217712Y-126544290D01*
X202225280Y-126531664D01*
X202234048Y-126519841D01*
X202243934Y-126508934D01*
X202254841Y-126499048D01*
X202266664Y-126490280D01*
X202279290Y-126482712D01*
X202292597Y-126476418D01*
X202306457Y-126471459D01*
X202320736Y-126467882D01*
X202335297Y-126465722D01*
X202350000Y-126465000D01*
X204000000Y-126465000D01*
X204014703Y-126465722D01*
X204014703Y-126465722D01*
G37*
D18*
X203175000Y-126765000D03*
D10*
G36*
X204014703Y-125195722D02*
G01*
X204029264Y-125197882D01*
X204043543Y-125201459D01*
X204057403Y-125206418D01*
X204070710Y-125212712D01*
X204083336Y-125220280D01*
X204095159Y-125229048D01*
X204106066Y-125238934D01*
X204115952Y-125249841D01*
X204124720Y-125261664D01*
X204132288Y-125274290D01*
X204138582Y-125287597D01*
X204143541Y-125301457D01*
X204147118Y-125315736D01*
X204149278Y-125330297D01*
X204150000Y-125345000D01*
X204150000Y-125645000D01*
X204149278Y-125659703D01*
X204147118Y-125674264D01*
X204143541Y-125688543D01*
X204138582Y-125702403D01*
X204132288Y-125715710D01*
X204124720Y-125728336D01*
X204115952Y-125740159D01*
X204106066Y-125751066D01*
X204095159Y-125760952D01*
X204083336Y-125769720D01*
X204070710Y-125777288D01*
X204057403Y-125783582D01*
X204043543Y-125788541D01*
X204029264Y-125792118D01*
X204014703Y-125794278D01*
X204000000Y-125795000D01*
X202350000Y-125795000D01*
X202335297Y-125794278D01*
X202320736Y-125792118D01*
X202306457Y-125788541D01*
X202292597Y-125783582D01*
X202279290Y-125777288D01*
X202266664Y-125769720D01*
X202254841Y-125760952D01*
X202243934Y-125751066D01*
X202234048Y-125740159D01*
X202225280Y-125728336D01*
X202217712Y-125715710D01*
X202211418Y-125702403D01*
X202206459Y-125688543D01*
X202202882Y-125674264D01*
X202200722Y-125659703D01*
X202200000Y-125645000D01*
X202200000Y-125345000D01*
X202200722Y-125330297D01*
X202202882Y-125315736D01*
X202206459Y-125301457D01*
X202211418Y-125287597D01*
X202217712Y-125274290D01*
X202225280Y-125261664D01*
X202234048Y-125249841D01*
X202243934Y-125238934D01*
X202254841Y-125229048D01*
X202266664Y-125220280D01*
X202279290Y-125212712D01*
X202292597Y-125206418D01*
X202306457Y-125201459D01*
X202320736Y-125197882D01*
X202335297Y-125195722D01*
X202350000Y-125195000D01*
X204000000Y-125195000D01*
X204014703Y-125195722D01*
X204014703Y-125195722D01*
G37*
D18*
X203175000Y-125495000D03*
D10*
G36*
X204014703Y-123925722D02*
G01*
X204029264Y-123927882D01*
X204043543Y-123931459D01*
X204057403Y-123936418D01*
X204070710Y-123942712D01*
X204083336Y-123950280D01*
X204095159Y-123959048D01*
X204106066Y-123968934D01*
X204115952Y-123979841D01*
X204124720Y-123991664D01*
X204132288Y-124004290D01*
X204138582Y-124017597D01*
X204143541Y-124031457D01*
X204147118Y-124045736D01*
X204149278Y-124060297D01*
X204150000Y-124075000D01*
X204150000Y-124375000D01*
X204149278Y-124389703D01*
X204147118Y-124404264D01*
X204143541Y-124418543D01*
X204138582Y-124432403D01*
X204132288Y-124445710D01*
X204124720Y-124458336D01*
X204115952Y-124470159D01*
X204106066Y-124481066D01*
X204095159Y-124490952D01*
X204083336Y-124499720D01*
X204070710Y-124507288D01*
X204057403Y-124513582D01*
X204043543Y-124518541D01*
X204029264Y-124522118D01*
X204014703Y-124524278D01*
X204000000Y-124525000D01*
X202350000Y-124525000D01*
X202335297Y-124524278D01*
X202320736Y-124522118D01*
X202306457Y-124518541D01*
X202292597Y-124513582D01*
X202279290Y-124507288D01*
X202266664Y-124499720D01*
X202254841Y-124490952D01*
X202243934Y-124481066D01*
X202234048Y-124470159D01*
X202225280Y-124458336D01*
X202217712Y-124445710D01*
X202211418Y-124432403D01*
X202206459Y-124418543D01*
X202202882Y-124404264D01*
X202200722Y-124389703D01*
X202200000Y-124375000D01*
X202200000Y-124075000D01*
X202200722Y-124060297D01*
X202202882Y-124045736D01*
X202206459Y-124031457D01*
X202211418Y-124017597D01*
X202217712Y-124004290D01*
X202225280Y-123991664D01*
X202234048Y-123979841D01*
X202243934Y-123968934D01*
X202254841Y-123959048D01*
X202266664Y-123950280D01*
X202279290Y-123942712D01*
X202292597Y-123936418D01*
X202306457Y-123931459D01*
X202320736Y-123927882D01*
X202335297Y-123925722D01*
X202350000Y-123925000D01*
X204000000Y-123925000D01*
X204014703Y-123925722D01*
X204014703Y-123925722D01*
G37*
D18*
X203175000Y-124225000D03*
D10*
G36*
X204014703Y-122655722D02*
G01*
X204029264Y-122657882D01*
X204043543Y-122661459D01*
X204057403Y-122666418D01*
X204070710Y-122672712D01*
X204083336Y-122680280D01*
X204095159Y-122689048D01*
X204106066Y-122698934D01*
X204115952Y-122709841D01*
X204124720Y-122721664D01*
X204132288Y-122734290D01*
X204138582Y-122747597D01*
X204143541Y-122761457D01*
X204147118Y-122775736D01*
X204149278Y-122790297D01*
X204150000Y-122805000D01*
X204150000Y-123105000D01*
X204149278Y-123119703D01*
X204147118Y-123134264D01*
X204143541Y-123148543D01*
X204138582Y-123162403D01*
X204132288Y-123175710D01*
X204124720Y-123188336D01*
X204115952Y-123200159D01*
X204106066Y-123211066D01*
X204095159Y-123220952D01*
X204083336Y-123229720D01*
X204070710Y-123237288D01*
X204057403Y-123243582D01*
X204043543Y-123248541D01*
X204029264Y-123252118D01*
X204014703Y-123254278D01*
X204000000Y-123255000D01*
X202350000Y-123255000D01*
X202335297Y-123254278D01*
X202320736Y-123252118D01*
X202306457Y-123248541D01*
X202292597Y-123243582D01*
X202279290Y-123237288D01*
X202266664Y-123229720D01*
X202254841Y-123220952D01*
X202243934Y-123211066D01*
X202234048Y-123200159D01*
X202225280Y-123188336D01*
X202217712Y-123175710D01*
X202211418Y-123162403D01*
X202206459Y-123148543D01*
X202202882Y-123134264D01*
X202200722Y-123119703D01*
X202200000Y-123105000D01*
X202200000Y-122805000D01*
X202200722Y-122790297D01*
X202202882Y-122775736D01*
X202206459Y-122761457D01*
X202211418Y-122747597D01*
X202217712Y-122734290D01*
X202225280Y-122721664D01*
X202234048Y-122709841D01*
X202243934Y-122698934D01*
X202254841Y-122689048D01*
X202266664Y-122680280D01*
X202279290Y-122672712D01*
X202292597Y-122666418D01*
X202306457Y-122661459D01*
X202320736Y-122657882D01*
X202335297Y-122655722D01*
X202350000Y-122655000D01*
X204000000Y-122655000D01*
X204014703Y-122655722D01*
X204014703Y-122655722D01*
G37*
D18*
X203175000Y-122955000D03*
D19*
X205000000Y-134980000D03*
X203000000Y-135930000D03*
X203000000Y-134030000D03*
X196410000Y-134990000D03*
X198410000Y-134040000D03*
X198410000Y-135940000D03*
D20*
X201590000Y-118660000D03*
X200640000Y-118660000D03*
X199690000Y-118660000D03*
X199690000Y-120860000D03*
X201590000Y-120860000D03*
D21*
X234220000Y-130470000D03*
X231680000Y-130470000D03*
X229140000Y-130470000D03*
X226600000Y-130470000D03*
X226600000Y-119570000D03*
X229140000Y-119570000D03*
D22*
X230800000Y-105450000D03*
D23*
X234500000Y-115215000D03*
X234500000Y-109965000D03*
X232800000Y-109965000D03*
X232800000Y-115215000D03*
D22*
X230800000Y-140550000D03*
X234300000Y-140550000D03*
X234300000Y-105450000D03*
X200200000Y-140550000D03*
X196700000Y-105450000D03*
X196700000Y-140550000D03*
X200200000Y-105450000D03*
D24*
X222720000Y-104950000D03*
X225260000Y-104950000D03*
X227800000Y-104950000D03*
X228190000Y-141050000D03*
X202790000Y-141050000D03*
X206700000Y-104950000D03*
X223110000Y-141050000D03*
X220570000Y-141050000D03*
X218030000Y-141050000D03*
X215490000Y-141050000D03*
X212950000Y-141050000D03*
X210410000Y-141050000D03*
X207870000Y-141050000D03*
X205330000Y-141050000D03*
X225650000Y-141050000D03*
D22*
X203700000Y-105450000D03*
D10*
G36*
X212449505Y-103701204D02*
G01*
X212473773Y-103704804D01*
X212497572Y-103710765D01*
X212520671Y-103719030D01*
X212542850Y-103729520D01*
X212563893Y-103742132D01*
X212583599Y-103756747D01*
X212601777Y-103773223D01*
X212618253Y-103791401D01*
X212632868Y-103811107D01*
X212645480Y-103832150D01*
X212655970Y-103854329D01*
X212664235Y-103877428D01*
X212670196Y-103901227D01*
X212673796Y-103925495D01*
X212675000Y-103949999D01*
X212675000Y-104850001D01*
X212673796Y-104874505D01*
X212670196Y-104898773D01*
X212664235Y-104922572D01*
X212655970Y-104945671D01*
X212645480Y-104967850D01*
X212632868Y-104988893D01*
X212618253Y-105008599D01*
X212601777Y-105026777D01*
X212583599Y-105043253D01*
X212563893Y-105057868D01*
X212542850Y-105070480D01*
X212520671Y-105080970D01*
X212497572Y-105089235D01*
X212473773Y-105095196D01*
X212449505Y-105098796D01*
X212425001Y-105100000D01*
X211774999Y-105100000D01*
X211750495Y-105098796D01*
X211726227Y-105095196D01*
X211702428Y-105089235D01*
X211679329Y-105080970D01*
X211657150Y-105070480D01*
X211636107Y-105057868D01*
X211616401Y-105043253D01*
X211598223Y-105026777D01*
X211581747Y-105008599D01*
X211567132Y-104988893D01*
X211554520Y-104967850D01*
X211544030Y-104945671D01*
X211535765Y-104922572D01*
X211529804Y-104898773D01*
X211526204Y-104874505D01*
X211525000Y-104850001D01*
X211525000Y-103949999D01*
X211526204Y-103925495D01*
X211529804Y-103901227D01*
X211535765Y-103877428D01*
X211544030Y-103854329D01*
X211554520Y-103832150D01*
X211567132Y-103811107D01*
X211581747Y-103791401D01*
X211598223Y-103773223D01*
X211616401Y-103756747D01*
X211636107Y-103742132D01*
X211657150Y-103729520D01*
X211679329Y-103719030D01*
X211702428Y-103710765D01*
X211726227Y-103704804D01*
X211750495Y-103701204D01*
X211774999Y-103700000D01*
X212425001Y-103700000D01*
X212449505Y-103701204D01*
X212449505Y-103701204D01*
G37*
D25*
X212100000Y-104400000D03*
D10*
G36*
X210399505Y-103701204D02*
G01*
X210423773Y-103704804D01*
X210447572Y-103710765D01*
X210470671Y-103719030D01*
X210492850Y-103729520D01*
X210513893Y-103742132D01*
X210533599Y-103756747D01*
X210551777Y-103773223D01*
X210568253Y-103791401D01*
X210582868Y-103811107D01*
X210595480Y-103832150D01*
X210605970Y-103854329D01*
X210614235Y-103877428D01*
X210620196Y-103901227D01*
X210623796Y-103925495D01*
X210625000Y-103949999D01*
X210625000Y-104850001D01*
X210623796Y-104874505D01*
X210620196Y-104898773D01*
X210614235Y-104922572D01*
X210605970Y-104945671D01*
X210595480Y-104967850D01*
X210582868Y-104988893D01*
X210568253Y-105008599D01*
X210551777Y-105026777D01*
X210533599Y-105043253D01*
X210513893Y-105057868D01*
X210492850Y-105070480D01*
X210470671Y-105080970D01*
X210447572Y-105089235D01*
X210423773Y-105095196D01*
X210399505Y-105098796D01*
X210375001Y-105100000D01*
X209724999Y-105100000D01*
X209700495Y-105098796D01*
X209676227Y-105095196D01*
X209652428Y-105089235D01*
X209629329Y-105080970D01*
X209607150Y-105070480D01*
X209586107Y-105057868D01*
X209566401Y-105043253D01*
X209548223Y-105026777D01*
X209531747Y-105008599D01*
X209517132Y-104988893D01*
X209504520Y-104967850D01*
X209494030Y-104945671D01*
X209485765Y-104922572D01*
X209479804Y-104898773D01*
X209476204Y-104874505D01*
X209475000Y-104850001D01*
X209475000Y-103949999D01*
X209476204Y-103925495D01*
X209479804Y-103901227D01*
X209485765Y-103877428D01*
X209494030Y-103854329D01*
X209504520Y-103832150D01*
X209517132Y-103811107D01*
X209531747Y-103791401D01*
X209548223Y-103773223D01*
X209566401Y-103756747D01*
X209586107Y-103742132D01*
X209607150Y-103729520D01*
X209629329Y-103719030D01*
X209652428Y-103710765D01*
X209676227Y-103704804D01*
X209700495Y-103701204D01*
X209724999Y-103700000D01*
X210375001Y-103700000D01*
X210399505Y-103701204D01*
X210399505Y-103701204D01*
G37*
D25*
X210050000Y-104400000D03*
D10*
G36*
X219249505Y-103701204D02*
G01*
X219273773Y-103704804D01*
X219297572Y-103710765D01*
X219320671Y-103719030D01*
X219342850Y-103729520D01*
X219363893Y-103742132D01*
X219383599Y-103756747D01*
X219401777Y-103773223D01*
X219418253Y-103791401D01*
X219432868Y-103811107D01*
X219445480Y-103832150D01*
X219455970Y-103854329D01*
X219464235Y-103877428D01*
X219470196Y-103901227D01*
X219473796Y-103925495D01*
X219475000Y-103949999D01*
X219475000Y-104850001D01*
X219473796Y-104874505D01*
X219470196Y-104898773D01*
X219464235Y-104922572D01*
X219455970Y-104945671D01*
X219445480Y-104967850D01*
X219432868Y-104988893D01*
X219418253Y-105008599D01*
X219401777Y-105026777D01*
X219383599Y-105043253D01*
X219363893Y-105057868D01*
X219342850Y-105070480D01*
X219320671Y-105080970D01*
X219297572Y-105089235D01*
X219273773Y-105095196D01*
X219249505Y-105098796D01*
X219225001Y-105100000D01*
X218574999Y-105100000D01*
X218550495Y-105098796D01*
X218526227Y-105095196D01*
X218502428Y-105089235D01*
X218479329Y-105080970D01*
X218457150Y-105070480D01*
X218436107Y-105057868D01*
X218416401Y-105043253D01*
X218398223Y-105026777D01*
X218381747Y-105008599D01*
X218367132Y-104988893D01*
X218354520Y-104967850D01*
X218344030Y-104945671D01*
X218335765Y-104922572D01*
X218329804Y-104898773D01*
X218326204Y-104874505D01*
X218325000Y-104850001D01*
X218325000Y-103949999D01*
X218326204Y-103925495D01*
X218329804Y-103901227D01*
X218335765Y-103877428D01*
X218344030Y-103854329D01*
X218354520Y-103832150D01*
X218367132Y-103811107D01*
X218381747Y-103791401D01*
X218398223Y-103773223D01*
X218416401Y-103756747D01*
X218436107Y-103742132D01*
X218457150Y-103729520D01*
X218479329Y-103719030D01*
X218502428Y-103710765D01*
X218526227Y-103704804D01*
X218550495Y-103701204D01*
X218574999Y-103700000D01*
X219225001Y-103700000D01*
X219249505Y-103701204D01*
X219249505Y-103701204D01*
G37*
D25*
X218900000Y-104400000D03*
D10*
G36*
X221299505Y-103701204D02*
G01*
X221323773Y-103704804D01*
X221347572Y-103710765D01*
X221370671Y-103719030D01*
X221392850Y-103729520D01*
X221413893Y-103742132D01*
X221433599Y-103756747D01*
X221451777Y-103773223D01*
X221468253Y-103791401D01*
X221482868Y-103811107D01*
X221495480Y-103832150D01*
X221505970Y-103854329D01*
X221514235Y-103877428D01*
X221520196Y-103901227D01*
X221523796Y-103925495D01*
X221525000Y-103949999D01*
X221525000Y-104850001D01*
X221523796Y-104874505D01*
X221520196Y-104898773D01*
X221514235Y-104922572D01*
X221505970Y-104945671D01*
X221495480Y-104967850D01*
X221482868Y-104988893D01*
X221468253Y-105008599D01*
X221451777Y-105026777D01*
X221433599Y-105043253D01*
X221413893Y-105057868D01*
X221392850Y-105070480D01*
X221370671Y-105080970D01*
X221347572Y-105089235D01*
X221323773Y-105095196D01*
X221299505Y-105098796D01*
X221275001Y-105100000D01*
X220624999Y-105100000D01*
X220600495Y-105098796D01*
X220576227Y-105095196D01*
X220552428Y-105089235D01*
X220529329Y-105080970D01*
X220507150Y-105070480D01*
X220486107Y-105057868D01*
X220466401Y-105043253D01*
X220448223Y-105026777D01*
X220431747Y-105008599D01*
X220417132Y-104988893D01*
X220404520Y-104967850D01*
X220394030Y-104945671D01*
X220385765Y-104922572D01*
X220379804Y-104898773D01*
X220376204Y-104874505D01*
X220375000Y-104850001D01*
X220375000Y-103949999D01*
X220376204Y-103925495D01*
X220379804Y-103901227D01*
X220385765Y-103877428D01*
X220394030Y-103854329D01*
X220404520Y-103832150D01*
X220417132Y-103811107D01*
X220431747Y-103791401D01*
X220448223Y-103773223D01*
X220466401Y-103756747D01*
X220486107Y-103742132D01*
X220507150Y-103729520D01*
X220529329Y-103719030D01*
X220552428Y-103710765D01*
X220576227Y-103704804D01*
X220600495Y-103701204D01*
X220624999Y-103700000D01*
X221275001Y-103700000D01*
X221299505Y-103701204D01*
X221299505Y-103701204D01*
G37*
D25*
X220950000Y-104400000D03*
D10*
G36*
X198180142Y-120211174D02*
G01*
X198203803Y-120214684D01*
X198227007Y-120220496D01*
X198249529Y-120228554D01*
X198271153Y-120238782D01*
X198291670Y-120251079D01*
X198310883Y-120265329D01*
X198328607Y-120281393D01*
X198344671Y-120299117D01*
X198358921Y-120318330D01*
X198371218Y-120338847D01*
X198381446Y-120360471D01*
X198389504Y-120382993D01*
X198395316Y-120406197D01*
X198398826Y-120429858D01*
X198400000Y-120453750D01*
X198400000Y-120941250D01*
X198398826Y-120965142D01*
X198395316Y-120988803D01*
X198389504Y-121012007D01*
X198381446Y-121034529D01*
X198371218Y-121056153D01*
X198358921Y-121076670D01*
X198344671Y-121095883D01*
X198328607Y-121113607D01*
X198310883Y-121129671D01*
X198291670Y-121143921D01*
X198271153Y-121156218D01*
X198249529Y-121166446D01*
X198227007Y-121174504D01*
X198203803Y-121180316D01*
X198180142Y-121183826D01*
X198156250Y-121185000D01*
X197243750Y-121185000D01*
X197219858Y-121183826D01*
X197196197Y-121180316D01*
X197172993Y-121174504D01*
X197150471Y-121166446D01*
X197128847Y-121156218D01*
X197108330Y-121143921D01*
X197089117Y-121129671D01*
X197071393Y-121113607D01*
X197055329Y-121095883D01*
X197041079Y-121076670D01*
X197028782Y-121056153D01*
X197018554Y-121034529D01*
X197010496Y-121012007D01*
X197004684Y-120988803D01*
X197001174Y-120965142D01*
X197000000Y-120941250D01*
X197000000Y-120453750D01*
X197001174Y-120429858D01*
X197004684Y-120406197D01*
X197010496Y-120382993D01*
X197018554Y-120360471D01*
X197028782Y-120338847D01*
X197041079Y-120318330D01*
X197055329Y-120299117D01*
X197071393Y-120281393D01*
X197089117Y-120265329D01*
X197108330Y-120251079D01*
X197128847Y-120238782D01*
X197150471Y-120228554D01*
X197172993Y-120220496D01*
X197196197Y-120214684D01*
X197219858Y-120211174D01*
X197243750Y-120210000D01*
X198156250Y-120210000D01*
X198180142Y-120211174D01*
X198180142Y-120211174D01*
G37*
D26*
X197700000Y-120697500D03*
D10*
G36*
X198180142Y-118336174D02*
G01*
X198203803Y-118339684D01*
X198227007Y-118345496D01*
X198249529Y-118353554D01*
X198271153Y-118363782D01*
X198291670Y-118376079D01*
X198310883Y-118390329D01*
X198328607Y-118406393D01*
X198344671Y-118424117D01*
X198358921Y-118443330D01*
X198371218Y-118463847D01*
X198381446Y-118485471D01*
X198389504Y-118507993D01*
X198395316Y-118531197D01*
X198398826Y-118554858D01*
X198400000Y-118578750D01*
X198400000Y-119066250D01*
X198398826Y-119090142D01*
X198395316Y-119113803D01*
X198389504Y-119137007D01*
X198381446Y-119159529D01*
X198371218Y-119181153D01*
X198358921Y-119201670D01*
X198344671Y-119220883D01*
X198328607Y-119238607D01*
X198310883Y-119254671D01*
X198291670Y-119268921D01*
X198271153Y-119281218D01*
X198249529Y-119291446D01*
X198227007Y-119299504D01*
X198203803Y-119305316D01*
X198180142Y-119308826D01*
X198156250Y-119310000D01*
X197243750Y-119310000D01*
X197219858Y-119308826D01*
X197196197Y-119305316D01*
X197172993Y-119299504D01*
X197150471Y-119291446D01*
X197128847Y-119281218D01*
X197108330Y-119268921D01*
X197089117Y-119254671D01*
X197071393Y-119238607D01*
X197055329Y-119220883D01*
X197041079Y-119201670D01*
X197028782Y-119181153D01*
X197018554Y-119159529D01*
X197010496Y-119137007D01*
X197004684Y-119113803D01*
X197001174Y-119090142D01*
X197000000Y-119066250D01*
X197000000Y-118578750D01*
X197001174Y-118554858D01*
X197004684Y-118531197D01*
X197010496Y-118507993D01*
X197018554Y-118485471D01*
X197028782Y-118463847D01*
X197041079Y-118443330D01*
X197055329Y-118424117D01*
X197071393Y-118406393D01*
X197089117Y-118390329D01*
X197108330Y-118376079D01*
X197128847Y-118363782D01*
X197150471Y-118353554D01*
X197172993Y-118345496D01*
X197196197Y-118339684D01*
X197219858Y-118336174D01*
X197243750Y-118335000D01*
X198156250Y-118335000D01*
X198180142Y-118336174D01*
X198180142Y-118336174D01*
G37*
D26*
X197700000Y-118822500D03*
D10*
G36*
X204180142Y-118336174D02*
G01*
X204203803Y-118339684D01*
X204227007Y-118345496D01*
X204249529Y-118353554D01*
X204271153Y-118363782D01*
X204291670Y-118376079D01*
X204310883Y-118390329D01*
X204328607Y-118406393D01*
X204344671Y-118424117D01*
X204358921Y-118443330D01*
X204371218Y-118463847D01*
X204381446Y-118485471D01*
X204389504Y-118507993D01*
X204395316Y-118531197D01*
X204398826Y-118554858D01*
X204400000Y-118578750D01*
X204400000Y-119066250D01*
X204398826Y-119090142D01*
X204395316Y-119113803D01*
X204389504Y-119137007D01*
X204381446Y-119159529D01*
X204371218Y-119181153D01*
X204358921Y-119201670D01*
X204344671Y-119220883D01*
X204328607Y-119238607D01*
X204310883Y-119254671D01*
X204291670Y-119268921D01*
X204271153Y-119281218D01*
X204249529Y-119291446D01*
X204227007Y-119299504D01*
X204203803Y-119305316D01*
X204180142Y-119308826D01*
X204156250Y-119310000D01*
X203243750Y-119310000D01*
X203219858Y-119308826D01*
X203196197Y-119305316D01*
X203172993Y-119299504D01*
X203150471Y-119291446D01*
X203128847Y-119281218D01*
X203108330Y-119268921D01*
X203089117Y-119254671D01*
X203071393Y-119238607D01*
X203055329Y-119220883D01*
X203041079Y-119201670D01*
X203028782Y-119181153D01*
X203018554Y-119159529D01*
X203010496Y-119137007D01*
X203004684Y-119113803D01*
X203001174Y-119090142D01*
X203000000Y-119066250D01*
X203000000Y-118578750D01*
X203001174Y-118554858D01*
X203004684Y-118531197D01*
X203010496Y-118507993D01*
X203018554Y-118485471D01*
X203028782Y-118463847D01*
X203041079Y-118443330D01*
X203055329Y-118424117D01*
X203071393Y-118406393D01*
X203089117Y-118390329D01*
X203108330Y-118376079D01*
X203128847Y-118363782D01*
X203150471Y-118353554D01*
X203172993Y-118345496D01*
X203196197Y-118339684D01*
X203219858Y-118336174D01*
X203243750Y-118335000D01*
X204156250Y-118335000D01*
X204180142Y-118336174D01*
X204180142Y-118336174D01*
G37*
D26*
X203700000Y-118822500D03*
D10*
G36*
X204180142Y-120211174D02*
G01*
X204203803Y-120214684D01*
X204227007Y-120220496D01*
X204249529Y-120228554D01*
X204271153Y-120238782D01*
X204291670Y-120251079D01*
X204310883Y-120265329D01*
X204328607Y-120281393D01*
X204344671Y-120299117D01*
X204358921Y-120318330D01*
X204371218Y-120338847D01*
X204381446Y-120360471D01*
X204389504Y-120382993D01*
X204395316Y-120406197D01*
X204398826Y-120429858D01*
X204400000Y-120453750D01*
X204400000Y-120941250D01*
X204398826Y-120965142D01*
X204395316Y-120988803D01*
X204389504Y-121012007D01*
X204381446Y-121034529D01*
X204371218Y-121056153D01*
X204358921Y-121076670D01*
X204344671Y-121095883D01*
X204328607Y-121113607D01*
X204310883Y-121129671D01*
X204291670Y-121143921D01*
X204271153Y-121156218D01*
X204249529Y-121166446D01*
X204227007Y-121174504D01*
X204203803Y-121180316D01*
X204180142Y-121183826D01*
X204156250Y-121185000D01*
X203243750Y-121185000D01*
X203219858Y-121183826D01*
X203196197Y-121180316D01*
X203172993Y-121174504D01*
X203150471Y-121166446D01*
X203128847Y-121156218D01*
X203108330Y-121143921D01*
X203089117Y-121129671D01*
X203071393Y-121113607D01*
X203055329Y-121095883D01*
X203041079Y-121076670D01*
X203028782Y-121056153D01*
X203018554Y-121034529D01*
X203010496Y-121012007D01*
X203004684Y-120988803D01*
X203001174Y-120965142D01*
X203000000Y-120941250D01*
X203000000Y-120453750D01*
X203001174Y-120429858D01*
X203004684Y-120406197D01*
X203010496Y-120382993D01*
X203018554Y-120360471D01*
X203028782Y-120338847D01*
X203041079Y-120318330D01*
X203055329Y-120299117D01*
X203071393Y-120281393D01*
X203089117Y-120265329D01*
X203108330Y-120251079D01*
X203128847Y-120238782D01*
X203150471Y-120228554D01*
X203172993Y-120220496D01*
X203196197Y-120214684D01*
X203219858Y-120211174D01*
X203243750Y-120210000D01*
X204156250Y-120210000D01*
X204180142Y-120211174D01*
X204180142Y-120211174D01*
G37*
D26*
X203700000Y-120697500D03*
D10*
G36*
X200030142Y-133301174D02*
G01*
X200053803Y-133304684D01*
X200077007Y-133310496D01*
X200099529Y-133318554D01*
X200121153Y-133328782D01*
X200141670Y-133341079D01*
X200160883Y-133355329D01*
X200178607Y-133371393D01*
X200194671Y-133389117D01*
X200208921Y-133408330D01*
X200221218Y-133428847D01*
X200231446Y-133450471D01*
X200239504Y-133472993D01*
X200245316Y-133496197D01*
X200248826Y-133519858D01*
X200250000Y-133543750D01*
X200250000Y-134456250D01*
X200248826Y-134480142D01*
X200245316Y-134503803D01*
X200239504Y-134527007D01*
X200231446Y-134549529D01*
X200221218Y-134571153D01*
X200208921Y-134591670D01*
X200194671Y-134610883D01*
X200178607Y-134628607D01*
X200160883Y-134644671D01*
X200141670Y-134658921D01*
X200121153Y-134671218D01*
X200099529Y-134681446D01*
X200077007Y-134689504D01*
X200053803Y-134695316D01*
X200030142Y-134698826D01*
X200006250Y-134700000D01*
X199518750Y-134700000D01*
X199494858Y-134698826D01*
X199471197Y-134695316D01*
X199447993Y-134689504D01*
X199425471Y-134681446D01*
X199403847Y-134671218D01*
X199383330Y-134658921D01*
X199364117Y-134644671D01*
X199346393Y-134628607D01*
X199330329Y-134610883D01*
X199316079Y-134591670D01*
X199303782Y-134571153D01*
X199293554Y-134549529D01*
X199285496Y-134527007D01*
X199279684Y-134503803D01*
X199276174Y-134480142D01*
X199275000Y-134456250D01*
X199275000Y-133543750D01*
X199276174Y-133519858D01*
X199279684Y-133496197D01*
X199285496Y-133472993D01*
X199293554Y-133450471D01*
X199303782Y-133428847D01*
X199316079Y-133408330D01*
X199330329Y-133389117D01*
X199346393Y-133371393D01*
X199364117Y-133355329D01*
X199383330Y-133341079D01*
X199403847Y-133328782D01*
X199425471Y-133318554D01*
X199447993Y-133310496D01*
X199471197Y-133304684D01*
X199494858Y-133301174D01*
X199518750Y-133300000D01*
X200006250Y-133300000D01*
X200030142Y-133301174D01*
X200030142Y-133301174D01*
G37*
D26*
X199762500Y-134000000D03*
D10*
G36*
X201905142Y-133301174D02*
G01*
X201928803Y-133304684D01*
X201952007Y-133310496D01*
X201974529Y-133318554D01*
X201996153Y-133328782D01*
X202016670Y-133341079D01*
X202035883Y-133355329D01*
X202053607Y-133371393D01*
X202069671Y-133389117D01*
X202083921Y-133408330D01*
X202096218Y-133428847D01*
X202106446Y-133450471D01*
X202114504Y-133472993D01*
X202120316Y-133496197D01*
X202123826Y-133519858D01*
X202125000Y-133543750D01*
X202125000Y-134456250D01*
X202123826Y-134480142D01*
X202120316Y-134503803D01*
X202114504Y-134527007D01*
X202106446Y-134549529D01*
X202096218Y-134571153D01*
X202083921Y-134591670D01*
X202069671Y-134610883D01*
X202053607Y-134628607D01*
X202035883Y-134644671D01*
X202016670Y-134658921D01*
X201996153Y-134671218D01*
X201974529Y-134681446D01*
X201952007Y-134689504D01*
X201928803Y-134695316D01*
X201905142Y-134698826D01*
X201881250Y-134700000D01*
X201393750Y-134700000D01*
X201369858Y-134698826D01*
X201346197Y-134695316D01*
X201322993Y-134689504D01*
X201300471Y-134681446D01*
X201278847Y-134671218D01*
X201258330Y-134658921D01*
X201239117Y-134644671D01*
X201221393Y-134628607D01*
X201205329Y-134610883D01*
X201191079Y-134591670D01*
X201178782Y-134571153D01*
X201168554Y-134549529D01*
X201160496Y-134527007D01*
X201154684Y-134503803D01*
X201151174Y-134480142D01*
X201150000Y-134456250D01*
X201150000Y-133543750D01*
X201151174Y-133519858D01*
X201154684Y-133496197D01*
X201160496Y-133472993D01*
X201168554Y-133450471D01*
X201178782Y-133428847D01*
X201191079Y-133408330D01*
X201205329Y-133389117D01*
X201221393Y-133371393D01*
X201239117Y-133355329D01*
X201258330Y-133341079D01*
X201278847Y-133328782D01*
X201300471Y-133318554D01*
X201322993Y-133310496D01*
X201346197Y-133304684D01*
X201369858Y-133301174D01*
X201393750Y-133300000D01*
X201881250Y-133300000D01*
X201905142Y-133301174D01*
X201905142Y-133301174D01*
G37*
D26*
X201637500Y-134000000D03*
D10*
G36*
X201905142Y-135301174D02*
G01*
X201928803Y-135304684D01*
X201952007Y-135310496D01*
X201974529Y-135318554D01*
X201996153Y-135328782D01*
X202016670Y-135341079D01*
X202035883Y-135355329D01*
X202053607Y-135371393D01*
X202069671Y-135389117D01*
X202083921Y-135408330D01*
X202096218Y-135428847D01*
X202106446Y-135450471D01*
X202114504Y-135472993D01*
X202120316Y-135496197D01*
X202123826Y-135519858D01*
X202125000Y-135543750D01*
X202125000Y-136456250D01*
X202123826Y-136480142D01*
X202120316Y-136503803D01*
X202114504Y-136527007D01*
X202106446Y-136549529D01*
X202096218Y-136571153D01*
X202083921Y-136591670D01*
X202069671Y-136610883D01*
X202053607Y-136628607D01*
X202035883Y-136644671D01*
X202016670Y-136658921D01*
X201996153Y-136671218D01*
X201974529Y-136681446D01*
X201952007Y-136689504D01*
X201928803Y-136695316D01*
X201905142Y-136698826D01*
X201881250Y-136700000D01*
X201393750Y-136700000D01*
X201369858Y-136698826D01*
X201346197Y-136695316D01*
X201322993Y-136689504D01*
X201300471Y-136681446D01*
X201278847Y-136671218D01*
X201258330Y-136658921D01*
X201239117Y-136644671D01*
X201221393Y-136628607D01*
X201205329Y-136610883D01*
X201191079Y-136591670D01*
X201178782Y-136571153D01*
X201168554Y-136549529D01*
X201160496Y-136527007D01*
X201154684Y-136503803D01*
X201151174Y-136480142D01*
X201150000Y-136456250D01*
X201150000Y-135543750D01*
X201151174Y-135519858D01*
X201154684Y-135496197D01*
X201160496Y-135472993D01*
X201168554Y-135450471D01*
X201178782Y-135428847D01*
X201191079Y-135408330D01*
X201205329Y-135389117D01*
X201221393Y-135371393D01*
X201239117Y-135355329D01*
X201258330Y-135341079D01*
X201278847Y-135328782D01*
X201300471Y-135318554D01*
X201322993Y-135310496D01*
X201346197Y-135304684D01*
X201369858Y-135301174D01*
X201393750Y-135300000D01*
X201881250Y-135300000D01*
X201905142Y-135301174D01*
X201905142Y-135301174D01*
G37*
D26*
X201637500Y-136000000D03*
D10*
G36*
X200030142Y-135301174D02*
G01*
X200053803Y-135304684D01*
X200077007Y-135310496D01*
X200099529Y-135318554D01*
X200121153Y-135328782D01*
X200141670Y-135341079D01*
X200160883Y-135355329D01*
X200178607Y-135371393D01*
X200194671Y-135389117D01*
X200208921Y-135408330D01*
X200221218Y-135428847D01*
X200231446Y-135450471D01*
X200239504Y-135472993D01*
X200245316Y-135496197D01*
X200248826Y-135519858D01*
X200250000Y-135543750D01*
X200250000Y-136456250D01*
X200248826Y-136480142D01*
X200245316Y-136503803D01*
X200239504Y-136527007D01*
X200231446Y-136549529D01*
X200221218Y-136571153D01*
X200208921Y-136591670D01*
X200194671Y-136610883D01*
X200178607Y-136628607D01*
X200160883Y-136644671D01*
X200141670Y-136658921D01*
X200121153Y-136671218D01*
X200099529Y-136681446D01*
X200077007Y-136689504D01*
X200053803Y-136695316D01*
X200030142Y-136698826D01*
X200006250Y-136700000D01*
X199518750Y-136700000D01*
X199494858Y-136698826D01*
X199471197Y-136695316D01*
X199447993Y-136689504D01*
X199425471Y-136681446D01*
X199403847Y-136671218D01*
X199383330Y-136658921D01*
X199364117Y-136644671D01*
X199346393Y-136628607D01*
X199330329Y-136610883D01*
X199316079Y-136591670D01*
X199303782Y-136571153D01*
X199293554Y-136549529D01*
X199285496Y-136527007D01*
X199279684Y-136503803D01*
X199276174Y-136480142D01*
X199275000Y-136456250D01*
X199275000Y-135543750D01*
X199276174Y-135519858D01*
X199279684Y-135496197D01*
X199285496Y-135472993D01*
X199293554Y-135450471D01*
X199303782Y-135428847D01*
X199316079Y-135408330D01*
X199330329Y-135389117D01*
X199346393Y-135371393D01*
X199364117Y-135355329D01*
X199383330Y-135341079D01*
X199403847Y-135328782D01*
X199425471Y-135318554D01*
X199447993Y-135310496D01*
X199471197Y-135304684D01*
X199494858Y-135301174D01*
X199518750Y-135300000D01*
X200006250Y-135300000D01*
X200030142Y-135301174D01*
X200030142Y-135301174D01*
G37*
D26*
X199762500Y-136000000D03*
D10*
G36*
X217380142Y-103576174D02*
G01*
X217403803Y-103579684D01*
X217427007Y-103585496D01*
X217449529Y-103593554D01*
X217471153Y-103603782D01*
X217491670Y-103616079D01*
X217510883Y-103630329D01*
X217528607Y-103646393D01*
X217544671Y-103664117D01*
X217558921Y-103683330D01*
X217571218Y-103703847D01*
X217581446Y-103725471D01*
X217589504Y-103747993D01*
X217595316Y-103771197D01*
X217598826Y-103794858D01*
X217600000Y-103818750D01*
X217600000Y-104306250D01*
X217598826Y-104330142D01*
X217595316Y-104353803D01*
X217589504Y-104377007D01*
X217581446Y-104399529D01*
X217571218Y-104421153D01*
X217558921Y-104441670D01*
X217544671Y-104460883D01*
X217528607Y-104478607D01*
X217510883Y-104494671D01*
X217491670Y-104508921D01*
X217471153Y-104521218D01*
X217449529Y-104531446D01*
X217427007Y-104539504D01*
X217403803Y-104545316D01*
X217380142Y-104548826D01*
X217356250Y-104550000D01*
X216443750Y-104550000D01*
X216419858Y-104548826D01*
X216396197Y-104545316D01*
X216372993Y-104539504D01*
X216350471Y-104531446D01*
X216328847Y-104521218D01*
X216308330Y-104508921D01*
X216289117Y-104494671D01*
X216271393Y-104478607D01*
X216255329Y-104460883D01*
X216241079Y-104441670D01*
X216228782Y-104421153D01*
X216218554Y-104399529D01*
X216210496Y-104377007D01*
X216204684Y-104353803D01*
X216201174Y-104330142D01*
X216200000Y-104306250D01*
X216200000Y-103818750D01*
X216201174Y-103794858D01*
X216204684Y-103771197D01*
X216210496Y-103747993D01*
X216218554Y-103725471D01*
X216228782Y-103703847D01*
X216241079Y-103683330D01*
X216255329Y-103664117D01*
X216271393Y-103646393D01*
X216289117Y-103630329D01*
X216308330Y-103616079D01*
X216328847Y-103603782D01*
X216350471Y-103593554D01*
X216372993Y-103585496D01*
X216396197Y-103579684D01*
X216419858Y-103576174D01*
X216443750Y-103575000D01*
X217356250Y-103575000D01*
X217380142Y-103576174D01*
X217380142Y-103576174D01*
G37*
D26*
X216900000Y-104062500D03*
D10*
G36*
X217380142Y-105451174D02*
G01*
X217403803Y-105454684D01*
X217427007Y-105460496D01*
X217449529Y-105468554D01*
X217471153Y-105478782D01*
X217491670Y-105491079D01*
X217510883Y-105505329D01*
X217528607Y-105521393D01*
X217544671Y-105539117D01*
X217558921Y-105558330D01*
X217571218Y-105578847D01*
X217581446Y-105600471D01*
X217589504Y-105622993D01*
X217595316Y-105646197D01*
X217598826Y-105669858D01*
X217600000Y-105693750D01*
X217600000Y-106181250D01*
X217598826Y-106205142D01*
X217595316Y-106228803D01*
X217589504Y-106252007D01*
X217581446Y-106274529D01*
X217571218Y-106296153D01*
X217558921Y-106316670D01*
X217544671Y-106335883D01*
X217528607Y-106353607D01*
X217510883Y-106369671D01*
X217491670Y-106383921D01*
X217471153Y-106396218D01*
X217449529Y-106406446D01*
X217427007Y-106414504D01*
X217403803Y-106420316D01*
X217380142Y-106423826D01*
X217356250Y-106425000D01*
X216443750Y-106425000D01*
X216419858Y-106423826D01*
X216396197Y-106420316D01*
X216372993Y-106414504D01*
X216350471Y-106406446D01*
X216328847Y-106396218D01*
X216308330Y-106383921D01*
X216289117Y-106369671D01*
X216271393Y-106353607D01*
X216255329Y-106335883D01*
X216241079Y-106316670D01*
X216228782Y-106296153D01*
X216218554Y-106274529D01*
X216210496Y-106252007D01*
X216204684Y-106228803D01*
X216201174Y-106205142D01*
X216200000Y-106181250D01*
X216200000Y-105693750D01*
X216201174Y-105669858D01*
X216204684Y-105646197D01*
X216210496Y-105622993D01*
X216218554Y-105600471D01*
X216228782Y-105578847D01*
X216241079Y-105558330D01*
X216255329Y-105539117D01*
X216271393Y-105521393D01*
X216289117Y-105505329D01*
X216308330Y-105491079D01*
X216328847Y-105478782D01*
X216350471Y-105468554D01*
X216372993Y-105460496D01*
X216396197Y-105454684D01*
X216419858Y-105451174D01*
X216443750Y-105450000D01*
X217356250Y-105450000D01*
X217380142Y-105451174D01*
X217380142Y-105451174D01*
G37*
D26*
X216900000Y-105937500D03*
D10*
G36*
X214580142Y-105451174D02*
G01*
X214603803Y-105454684D01*
X214627007Y-105460496D01*
X214649529Y-105468554D01*
X214671153Y-105478782D01*
X214691670Y-105491079D01*
X214710883Y-105505329D01*
X214728607Y-105521393D01*
X214744671Y-105539117D01*
X214758921Y-105558330D01*
X214771218Y-105578847D01*
X214781446Y-105600471D01*
X214789504Y-105622993D01*
X214795316Y-105646197D01*
X214798826Y-105669858D01*
X214800000Y-105693750D01*
X214800000Y-106181250D01*
X214798826Y-106205142D01*
X214795316Y-106228803D01*
X214789504Y-106252007D01*
X214781446Y-106274529D01*
X214771218Y-106296153D01*
X214758921Y-106316670D01*
X214744671Y-106335883D01*
X214728607Y-106353607D01*
X214710883Y-106369671D01*
X214691670Y-106383921D01*
X214671153Y-106396218D01*
X214649529Y-106406446D01*
X214627007Y-106414504D01*
X214603803Y-106420316D01*
X214580142Y-106423826D01*
X214556250Y-106425000D01*
X213643750Y-106425000D01*
X213619858Y-106423826D01*
X213596197Y-106420316D01*
X213572993Y-106414504D01*
X213550471Y-106406446D01*
X213528847Y-106396218D01*
X213508330Y-106383921D01*
X213489117Y-106369671D01*
X213471393Y-106353607D01*
X213455329Y-106335883D01*
X213441079Y-106316670D01*
X213428782Y-106296153D01*
X213418554Y-106274529D01*
X213410496Y-106252007D01*
X213404684Y-106228803D01*
X213401174Y-106205142D01*
X213400000Y-106181250D01*
X213400000Y-105693750D01*
X213401174Y-105669858D01*
X213404684Y-105646197D01*
X213410496Y-105622993D01*
X213418554Y-105600471D01*
X213428782Y-105578847D01*
X213441079Y-105558330D01*
X213455329Y-105539117D01*
X213471393Y-105521393D01*
X213489117Y-105505329D01*
X213508330Y-105491079D01*
X213528847Y-105478782D01*
X213550471Y-105468554D01*
X213572993Y-105460496D01*
X213596197Y-105454684D01*
X213619858Y-105451174D01*
X213643750Y-105450000D01*
X214556250Y-105450000D01*
X214580142Y-105451174D01*
X214580142Y-105451174D01*
G37*
D26*
X214100000Y-105937500D03*
D10*
G36*
X214580142Y-103576174D02*
G01*
X214603803Y-103579684D01*
X214627007Y-103585496D01*
X214649529Y-103593554D01*
X214671153Y-103603782D01*
X214691670Y-103616079D01*
X214710883Y-103630329D01*
X214728607Y-103646393D01*
X214744671Y-103664117D01*
X214758921Y-103683330D01*
X214771218Y-103703847D01*
X214781446Y-103725471D01*
X214789504Y-103747993D01*
X214795316Y-103771197D01*
X214798826Y-103794858D01*
X214800000Y-103818750D01*
X214800000Y-104306250D01*
X214798826Y-104330142D01*
X214795316Y-104353803D01*
X214789504Y-104377007D01*
X214781446Y-104399529D01*
X214771218Y-104421153D01*
X214758921Y-104441670D01*
X214744671Y-104460883D01*
X214728607Y-104478607D01*
X214710883Y-104494671D01*
X214691670Y-104508921D01*
X214671153Y-104521218D01*
X214649529Y-104531446D01*
X214627007Y-104539504D01*
X214603803Y-104545316D01*
X214580142Y-104548826D01*
X214556250Y-104550000D01*
X213643750Y-104550000D01*
X213619858Y-104548826D01*
X213596197Y-104545316D01*
X213572993Y-104539504D01*
X213550471Y-104531446D01*
X213528847Y-104521218D01*
X213508330Y-104508921D01*
X213489117Y-104494671D01*
X213471393Y-104478607D01*
X213455329Y-104460883D01*
X213441079Y-104441670D01*
X213428782Y-104421153D01*
X213418554Y-104399529D01*
X213410496Y-104377007D01*
X213404684Y-104353803D01*
X213401174Y-104330142D01*
X213400000Y-104306250D01*
X213400000Y-103818750D01*
X213401174Y-103794858D01*
X213404684Y-103771197D01*
X213410496Y-103747993D01*
X213418554Y-103725471D01*
X213428782Y-103703847D01*
X213441079Y-103683330D01*
X213455329Y-103664117D01*
X213471393Y-103646393D01*
X213489117Y-103630329D01*
X213508330Y-103616079D01*
X213528847Y-103603782D01*
X213550471Y-103593554D01*
X213572993Y-103585496D01*
X213596197Y-103579684D01*
X213619858Y-103576174D01*
X213643750Y-103575000D01*
X214556250Y-103575000D01*
X214580142Y-103576174D01*
X214580142Y-103576174D01*
G37*
D26*
X214100000Y-104062500D03*
D10*
G36*
X230580142Y-111226174D02*
G01*
X230603803Y-111229684D01*
X230627007Y-111235496D01*
X230649529Y-111243554D01*
X230671153Y-111253782D01*
X230691670Y-111266079D01*
X230710883Y-111280329D01*
X230728607Y-111296393D01*
X230744671Y-111314117D01*
X230758921Y-111333330D01*
X230771218Y-111353847D01*
X230781446Y-111375471D01*
X230789504Y-111397993D01*
X230795316Y-111421197D01*
X230798826Y-111444858D01*
X230800000Y-111468750D01*
X230800000Y-111956250D01*
X230798826Y-111980142D01*
X230795316Y-112003803D01*
X230789504Y-112027007D01*
X230781446Y-112049529D01*
X230771218Y-112071153D01*
X230758921Y-112091670D01*
X230744671Y-112110883D01*
X230728607Y-112128607D01*
X230710883Y-112144671D01*
X230691670Y-112158921D01*
X230671153Y-112171218D01*
X230649529Y-112181446D01*
X230627007Y-112189504D01*
X230603803Y-112195316D01*
X230580142Y-112198826D01*
X230556250Y-112200000D01*
X229643750Y-112200000D01*
X229619858Y-112198826D01*
X229596197Y-112195316D01*
X229572993Y-112189504D01*
X229550471Y-112181446D01*
X229528847Y-112171218D01*
X229508330Y-112158921D01*
X229489117Y-112144671D01*
X229471393Y-112128607D01*
X229455329Y-112110883D01*
X229441079Y-112091670D01*
X229428782Y-112071153D01*
X229418554Y-112049529D01*
X229410496Y-112027007D01*
X229404684Y-112003803D01*
X229401174Y-111980142D01*
X229400000Y-111956250D01*
X229400000Y-111468750D01*
X229401174Y-111444858D01*
X229404684Y-111421197D01*
X229410496Y-111397993D01*
X229418554Y-111375471D01*
X229428782Y-111353847D01*
X229441079Y-111333330D01*
X229455329Y-111314117D01*
X229471393Y-111296393D01*
X229489117Y-111280329D01*
X229508330Y-111266079D01*
X229528847Y-111253782D01*
X229550471Y-111243554D01*
X229572993Y-111235496D01*
X229596197Y-111229684D01*
X229619858Y-111226174D01*
X229643750Y-111225000D01*
X230556250Y-111225000D01*
X230580142Y-111226174D01*
X230580142Y-111226174D01*
G37*
D26*
X230100000Y-111712500D03*
D10*
G36*
X230580142Y-113101174D02*
G01*
X230603803Y-113104684D01*
X230627007Y-113110496D01*
X230649529Y-113118554D01*
X230671153Y-113128782D01*
X230691670Y-113141079D01*
X230710883Y-113155329D01*
X230728607Y-113171393D01*
X230744671Y-113189117D01*
X230758921Y-113208330D01*
X230771218Y-113228847D01*
X230781446Y-113250471D01*
X230789504Y-113272993D01*
X230795316Y-113296197D01*
X230798826Y-113319858D01*
X230800000Y-113343750D01*
X230800000Y-113831250D01*
X230798826Y-113855142D01*
X230795316Y-113878803D01*
X230789504Y-113902007D01*
X230781446Y-113924529D01*
X230771218Y-113946153D01*
X230758921Y-113966670D01*
X230744671Y-113985883D01*
X230728607Y-114003607D01*
X230710883Y-114019671D01*
X230691670Y-114033921D01*
X230671153Y-114046218D01*
X230649529Y-114056446D01*
X230627007Y-114064504D01*
X230603803Y-114070316D01*
X230580142Y-114073826D01*
X230556250Y-114075000D01*
X229643750Y-114075000D01*
X229619858Y-114073826D01*
X229596197Y-114070316D01*
X229572993Y-114064504D01*
X229550471Y-114056446D01*
X229528847Y-114046218D01*
X229508330Y-114033921D01*
X229489117Y-114019671D01*
X229471393Y-114003607D01*
X229455329Y-113985883D01*
X229441079Y-113966670D01*
X229428782Y-113946153D01*
X229418554Y-113924529D01*
X229410496Y-113902007D01*
X229404684Y-113878803D01*
X229401174Y-113855142D01*
X229400000Y-113831250D01*
X229400000Y-113343750D01*
X229401174Y-113319858D01*
X229404684Y-113296197D01*
X229410496Y-113272993D01*
X229418554Y-113250471D01*
X229428782Y-113228847D01*
X229441079Y-113208330D01*
X229455329Y-113189117D01*
X229471393Y-113171393D01*
X229489117Y-113155329D01*
X229508330Y-113141079D01*
X229528847Y-113128782D01*
X229550471Y-113118554D01*
X229572993Y-113110496D01*
X229596197Y-113104684D01*
X229619858Y-113101174D01*
X229643750Y-113100000D01*
X230556250Y-113100000D01*
X230580142Y-113101174D01*
X230580142Y-113101174D01*
G37*
D26*
X230100000Y-113587500D03*
D27*
X224000000Y-118445000D03*
X207000000Y-118445000D03*
X196700000Y-140550000D03*
X234300000Y-140550000D03*
X231680000Y-130470000D03*
X234300000Y-105450000D03*
X210050000Y-104400000D03*
X220950000Y-104400000D03*
X209785000Y-135955000D03*
D28*
X215500000Y-118150000D03*
X196940000Y-132990000D03*
X226980000Y-126140000D03*
X204070000Y-140550000D03*
X206610000Y-140550000D03*
X209130000Y-140550000D03*
X211690000Y-140550000D03*
X214220000Y-140550000D03*
X216760000Y-140550000D03*
X219300000Y-140550000D03*
X221850000Y-140550000D03*
X224370000Y-140550000D03*
X226930000Y-140550000D03*
D27*
X215500000Y-104966000D03*
D28*
X229978000Y-134938000D03*
X231756000Y-126810000D03*
X215500000Y-130600000D03*
X204324000Y-114618000D03*
X218802000Y-108776000D03*
X224020000Y-104650000D03*
X226500000Y-109750000D03*
X215500000Y-120850000D03*
D27*
X200640001Y-117630624D03*
X200640001Y-119689377D03*
X196700000Y-105450000D03*
D28*
X229300000Y-109750000D03*
D27*
X234500000Y-115215000D03*
X234500000Y-109965000D03*
X198900000Y-115112500D03*
X196600000Y-115560000D03*
X196600000Y-113490000D03*
X196600000Y-111810000D03*
X196600000Y-109740000D03*
X198900000Y-110187500D03*
D28*
X201950000Y-110200000D03*
X200200000Y-105450000D03*
X203700000Y-105450000D03*
X199614998Y-118660000D03*
X201665002Y-118660000D03*
D27*
X201530000Y-122746000D03*
X234220000Y-130470000D03*
X230800000Y-105450000D03*
X230800000Y-142149990D03*
X200200000Y-142149990D03*
X200200000Y-138950000D03*
X230800000Y-138950000D03*
X230100000Y-111700000D03*
D28*
X228299937Y-117441576D03*
X208750000Y-119500000D03*
X206099990Y-109099990D03*
X209000000Y-118250000D03*
X224000000Y-134955000D03*
X202788127Y-137405746D03*
X222000000Y-123500000D03*
X201530000Y-124210000D03*
X222000000Y-122250000D03*
X199500000Y-125000000D03*
X198225000Y-129305000D03*
X201075002Y-111800000D03*
X198225000Y-128035000D03*
X201075002Y-112850000D03*
D29*
X206837876Y-118445000D02*
X207000000Y-118445000D01*
X207000000Y-118445000D02*
X206450000Y-118445000D01*
X200650000Y-118700000D02*
X200650000Y-117850000D01*
X200650000Y-118700000D02*
X200650000Y-117670624D01*
X200650000Y-117670624D02*
X200649999Y-117670623D01*
X208935000Y-135955000D02*
X208170000Y-136720000D01*
X209785000Y-135955000D02*
X208935000Y-135955000D01*
X208170000Y-136720000D02*
X206170000Y-136720000D01*
X197497500Y-115112500D02*
X197050000Y-115560000D01*
X199350000Y-115112500D02*
X197497500Y-115112500D01*
X197497500Y-110187500D02*
X197050000Y-109740000D01*
X199350000Y-110187500D02*
X197497500Y-110187500D01*
X197050000Y-109740000D02*
X197050000Y-115560000D01*
X196700000Y-107802500D02*
X196700000Y-105450000D01*
X197050000Y-108152500D02*
X196700000Y-107802500D01*
X197050000Y-109740000D02*
X197050000Y-108152500D01*
X200640000Y-118660000D02*
X200640000Y-117630625D01*
X200640000Y-117630625D02*
X200640001Y-117630624D01*
X200640000Y-118660000D02*
X200640000Y-119689376D01*
X200640000Y-119689376D02*
X200640001Y-119689377D01*
X200640001Y-119689377D02*
X200640000Y-120396484D01*
X200640000Y-120396484D02*
X200640000Y-121730000D01*
X198900000Y-114310000D02*
X199184999Y-114025001D01*
X198900000Y-115112500D02*
X198900000Y-114310000D01*
D30*
X197150000Y-126765000D02*
X198225000Y-126765000D01*
X196700000Y-126315000D02*
X197150000Y-126765000D01*
X196700000Y-122500000D02*
X196700000Y-126315000D01*
X197700000Y-121500000D02*
X196700000Y-122500000D01*
X197700000Y-121500000D02*
X197700000Y-120760000D01*
X201600000Y-118700000D02*
X201675002Y-118700000D01*
X199700000Y-118700000D02*
X199624998Y-118700000D01*
D29*
X200200000Y-105450000D02*
X202014000Y-105450000D01*
X202014000Y-105450000D02*
X203700000Y-105450000D01*
X201950000Y-105514000D02*
X201950000Y-110200000D01*
X202014000Y-105450000D02*
X201950000Y-105514000D01*
X199690000Y-118660000D02*
X199614998Y-118660000D01*
D30*
X201590000Y-118660000D02*
X201665002Y-118660000D01*
D29*
X201950000Y-110200000D02*
X201384315Y-110200000D01*
X200234315Y-111350000D02*
X199710000Y-111350000D01*
X201384315Y-110200000D02*
X200234315Y-111350000D01*
X203700000Y-122430000D02*
X203175000Y-122955000D01*
X204785000Y-119715000D02*
X207000000Y-119715000D01*
X203600000Y-120900000D02*
X203700000Y-120800000D01*
X201600000Y-120900000D02*
X201600000Y-121105000D01*
X201530000Y-120970000D02*
X201600000Y-120900000D01*
X201739000Y-122955000D02*
X201530000Y-122746000D01*
X203175000Y-122955000D02*
X201739000Y-122955000D01*
X203825000Y-120760000D02*
X203700000Y-120760000D01*
X204785000Y-119800000D02*
X203825000Y-120760000D01*
X204785000Y-119715000D02*
X204785000Y-119800000D01*
X203700000Y-122430000D02*
X203700000Y-120760000D01*
X203600000Y-120860000D02*
X203700000Y-120760000D01*
X201590000Y-120860000D02*
X203600000Y-120860000D01*
X201530000Y-120920000D02*
X201590000Y-120860000D01*
X201530000Y-122746000D02*
X201530000Y-120920000D01*
D30*
X207000000Y-120985000D02*
X208200000Y-120985000D01*
X205000000Y-134380000D02*
X205000000Y-134980000D01*
X205000000Y-121785000D02*
X205000000Y-134380000D01*
X205800000Y-120985000D02*
X205000000Y-121785000D01*
X207000000Y-120985000D02*
X205800000Y-120985000D01*
X208200000Y-120985000D02*
X208515000Y-120985000D01*
X208515000Y-120985000D02*
X208750000Y-120750000D01*
X208750000Y-120750000D02*
X208750000Y-120000000D01*
X208750000Y-120000000D02*
X208750000Y-119500000D01*
X232800000Y-114240000D02*
X232800000Y-109965000D01*
X232800000Y-115215000D02*
X232800000Y-114240000D01*
X230100000Y-115641513D02*
X230100000Y-113600000D01*
X228299937Y-117441576D02*
X230100000Y-115641513D01*
X230100000Y-114150000D02*
X230100000Y-113600000D01*
X231165000Y-115215000D02*
X230100000Y-114150000D01*
X232800000Y-115215000D02*
X231165000Y-115215000D01*
X217250000Y-104400000D02*
X216900000Y-104050000D01*
X218900000Y-104400000D02*
X217250000Y-104400000D01*
X213750000Y-104400000D02*
X214100000Y-104050000D01*
X212100000Y-104400000D02*
X213750000Y-104400000D01*
X225650000Y-139550000D02*
X225650000Y-141050000D01*
X225650000Y-138850000D02*
X225650000Y-141050000D01*
X223770000Y-136970000D02*
X225650000Y-138850000D01*
X222104000Y-136970000D02*
X223770000Y-136970000D01*
X221215000Y-136081000D02*
X222104000Y-136970000D01*
X221215000Y-135955000D02*
X221215000Y-136081000D01*
X223110000Y-138210000D02*
X223110000Y-141050000D01*
X222300000Y-137400000D02*
X223110000Y-138210000D01*
X220669998Y-137400000D02*
X222300000Y-137400000D01*
X219945000Y-135955000D02*
X219945000Y-136675002D01*
X219945000Y-136675002D02*
X220669998Y-137400000D01*
X218675000Y-137155000D02*
X219000000Y-137480000D01*
X218675000Y-135955000D02*
X218675000Y-137155000D01*
X219000000Y-137480000D02*
X219980000Y-137480000D01*
X220570000Y-138070000D02*
X220570000Y-141050000D01*
X219980000Y-137480000D02*
X220570000Y-138070000D01*
X218030000Y-138130000D02*
X218030000Y-141050000D01*
X217405000Y-135955000D02*
X217405000Y-137505000D01*
X217405000Y-137505000D02*
X218030000Y-138130000D01*
X216135000Y-135955000D02*
X216135000Y-137565000D01*
X215490000Y-138210000D02*
X215490000Y-141050000D01*
X216135000Y-137565000D02*
X215490000Y-138210000D01*
X214865000Y-135955000D02*
X214865000Y-137235000D01*
X214865000Y-137235000D02*
X214600000Y-137500000D01*
X214600000Y-137500000D02*
X213600000Y-137500000D01*
X212950000Y-138150000D02*
X212950000Y-141050000D01*
X213600000Y-137500000D02*
X212950000Y-138150000D01*
X210410000Y-138690000D02*
X210410000Y-141050000D01*
X210800000Y-138300000D02*
X210410000Y-138690000D01*
X211970002Y-138300000D02*
X210800000Y-138300000D01*
X213595000Y-135955000D02*
X213595000Y-136675002D01*
X213595000Y-136675002D02*
X211970002Y-138300000D01*
X207870000Y-138130000D02*
X207870000Y-141050000D01*
X208100000Y-137900000D02*
X207870000Y-138130000D01*
X211580000Y-137900000D02*
X208100000Y-137900000D01*
X212325000Y-135955000D02*
X212325000Y-137155000D01*
X212325000Y-137155000D02*
X211580000Y-137900000D01*
X211055000Y-135955000D02*
X211055000Y-137155000D01*
X211055000Y-137155000D02*
X210854999Y-137355001D01*
X206824999Y-137355001D02*
X210854999Y-137355001D01*
X205330000Y-138850000D02*
X206824999Y-137355001D01*
X205330000Y-141050000D02*
X205330000Y-138850000D01*
X208200000Y-124795000D02*
X209500000Y-123495000D01*
X207000000Y-124795000D02*
X208200000Y-124795000D01*
X209500000Y-123495000D02*
X209500000Y-119250000D01*
X206099990Y-109099990D02*
X206099990Y-108400010D01*
X206700000Y-107800000D02*
X206700000Y-104950000D01*
X206099990Y-108400010D02*
X206700000Y-107800000D01*
X209500000Y-119250000D02*
X209500000Y-118750000D01*
X209500000Y-118750000D02*
X209000000Y-118250000D01*
X202790000Y-139550000D02*
X202790000Y-141050000D01*
X208200000Y-132415000D02*
X207000000Y-132415000D01*
X202790000Y-138720000D02*
X205556000Y-135954000D01*
X202790000Y-141050000D02*
X202790000Y-138720000D01*
X205556000Y-135954000D02*
X207991002Y-135954000D01*
X207991002Y-135954000D02*
X208388000Y-135557002D01*
X208388000Y-135557002D02*
X208388000Y-132603000D01*
X208388000Y-132603000D02*
X208200000Y-132415000D01*
X225200000Y-132415000D02*
X226750000Y-133965000D01*
X224000000Y-132415000D02*
X225200000Y-132415000D01*
X228190000Y-138690000D02*
X226750000Y-137250000D01*
X228190000Y-141050000D02*
X228190000Y-138690000D01*
X226750000Y-133965000D02*
X226750000Y-137250000D01*
X225400001Y-119514999D02*
X225400001Y-117849999D01*
X224000000Y-119715000D02*
X225200000Y-119715000D01*
X225200000Y-119715000D02*
X225400001Y-119514999D01*
X227800000Y-115450000D02*
X227800000Y-104950000D01*
X225400001Y-117849999D02*
X227800000Y-115450000D01*
X222100000Y-118174998D02*
X222100000Y-120285000D01*
X222774987Y-117500011D02*
X222100000Y-118174998D01*
X224789969Y-117500011D02*
X222774987Y-117500011D01*
X225300021Y-116989959D02*
X224789969Y-117500011D01*
X225260000Y-107150000D02*
X225000000Y-107410000D01*
X222800000Y-120985000D02*
X224000000Y-120985000D01*
X225260000Y-104950000D02*
X225260000Y-107150000D01*
X225000000Y-107410000D02*
X225000000Y-110210020D01*
X222100000Y-120285000D02*
X222800000Y-120985000D01*
X225000000Y-110210020D02*
X225300021Y-110510041D01*
X225300021Y-110510041D02*
X225300021Y-116989959D01*
X221700000Y-125000000D02*
X222595000Y-125000000D01*
X221300000Y-124600000D02*
X221700000Y-125000000D01*
X222720000Y-104950000D02*
X222720000Y-108495720D01*
X222720000Y-108495720D02*
X224900010Y-110675730D01*
X224900010Y-110675730D02*
X224900010Y-116824270D01*
X224900010Y-116824270D02*
X224624279Y-117100001D01*
X222595000Y-125000000D02*
X222800000Y-124795000D01*
X221300000Y-118409299D02*
X221300000Y-124600000D01*
X224624279Y-117100001D02*
X222609298Y-117100001D01*
X222609298Y-117100001D02*
X221300000Y-118409299D01*
X222800000Y-124795000D02*
X224000000Y-124795000D01*
X201650000Y-134000000D02*
X201600000Y-134050000D01*
X201700000Y-134050000D02*
X201650000Y-134000000D01*
X203100000Y-134050000D02*
X201700000Y-134050000D01*
X201650000Y-135900000D02*
X201600000Y-135850000D01*
X201700000Y-135950000D02*
X201650000Y-136000000D01*
X203100000Y-135950000D02*
X201700000Y-135950000D01*
X204250000Y-125495000D02*
X203175000Y-125495000D01*
X204450010Y-125695010D02*
X204250000Y-125495000D01*
X204450010Y-133879990D02*
X204450010Y-125695010D01*
X203000000Y-135930000D02*
X203000000Y-135330000D01*
X203000000Y-135330000D02*
X204450010Y-133879990D01*
X202782382Y-137400001D02*
X202788127Y-137405746D01*
X198195746Y-137405746D02*
X202788127Y-137405746D01*
X196390000Y-135000000D02*
X196390000Y-135600000D01*
X196390000Y-135600000D02*
X198195746Y-137405746D01*
X199700000Y-134050000D02*
X199750000Y-134000000D01*
X198300000Y-134050000D02*
X199700000Y-134050000D01*
X202100000Y-126765000D02*
X203175000Y-126765000D01*
X199750000Y-134000000D02*
X199750000Y-129115000D01*
X199750000Y-129115000D02*
X202100000Y-126765000D01*
X199650000Y-135900000D02*
X199700000Y-135850000D01*
X199700000Y-135950000D02*
X199750000Y-136000000D01*
X198300000Y-135950000D02*
X199700000Y-135950000D01*
X216600000Y-105950000D02*
X216900000Y-105950000D01*
X216900000Y-105950000D02*
X216900000Y-106500000D01*
X216900000Y-106500000D02*
X212900000Y-110500000D01*
X208200000Y-127335000D02*
X207000000Y-127335000D01*
X212900000Y-110500000D02*
X206250000Y-110500000D01*
X206250000Y-110500000D02*
X206000000Y-110750000D01*
X206000000Y-110750000D02*
X206000000Y-116750000D01*
X206000000Y-116750000D02*
X206250000Y-117000000D01*
X206250000Y-117000000D02*
X209400000Y-117000000D01*
X209400000Y-117000000D02*
X210300000Y-117900000D01*
X210300000Y-125235000D02*
X208200000Y-127335000D01*
X210300000Y-117900000D02*
X210300000Y-125235000D01*
X209900000Y-124365000D02*
X208200000Y-126065000D01*
X209900000Y-118100000D02*
X209900000Y-124365000D01*
X205750000Y-117500000D02*
X209300000Y-117500000D01*
X214100000Y-106500000D02*
X210600000Y-110000000D01*
X214100000Y-105950000D02*
X214100000Y-106500000D01*
X209300000Y-117500000D02*
X209900000Y-118100000D01*
X210600000Y-110000000D02*
X206000000Y-110000000D01*
X206000000Y-110000000D02*
X205500000Y-110500000D01*
X205500000Y-110500000D02*
X205500000Y-117250000D01*
X208200000Y-126065000D02*
X207000000Y-126065000D01*
X205500000Y-117250000D02*
X205750000Y-117500000D01*
X224000000Y-123525000D02*
X222025000Y-123525000D01*
X222025000Y-123525000D02*
X222000000Y-123500000D01*
X201515000Y-124225000D02*
X201530000Y-124210000D01*
X198225000Y-124225000D02*
X201515000Y-124225000D01*
X198225000Y-125495000D02*
X199495000Y-125495000D01*
X199495000Y-125495000D02*
X199500000Y-125500000D01*
X224000000Y-122255000D02*
X222005000Y-122255000D01*
X222005000Y-122255000D02*
X222000000Y-122250000D01*
X199495000Y-125495000D02*
X199495000Y-125005000D01*
X199495000Y-125005000D02*
X199500000Y-125000000D01*
X229939999Y-120369999D02*
X229140000Y-119570000D01*
X230669999Y-120369999D02*
X229939999Y-120369999D01*
X231100010Y-120800010D02*
X230669999Y-120369999D01*
X231100010Y-124865690D02*
X231100010Y-120800010D01*
X227360700Y-128605000D02*
X231100010Y-124865690D01*
X224000000Y-128605000D02*
X227360700Y-128605000D01*
X226600000Y-119570000D02*
X228030000Y-121000000D01*
X228030000Y-121000000D02*
X230394988Y-121000000D01*
X230394988Y-121000000D02*
X230700000Y-121305012D01*
X230700000Y-124694988D02*
X230394988Y-125000000D01*
X230700000Y-121305012D02*
X230700000Y-124694988D01*
X230394988Y-125000000D02*
X230394988Y-125005012D01*
X228065000Y-127335000D02*
X225235000Y-127335000D01*
X230394988Y-125005012D02*
X228065000Y-127335000D01*
X226965000Y-127335000D02*
X225235000Y-127335000D01*
X225235000Y-127335000D02*
X224000000Y-127335000D01*
X226005000Y-129875000D02*
X226600000Y-130470000D01*
X224000000Y-129875000D02*
X226005000Y-129875000D01*
X225200000Y-131145000D02*
X224000000Y-131145000D01*
X225625001Y-131570001D02*
X225200000Y-131145000D01*
X228039999Y-131570001D02*
X225625001Y-131570001D01*
X229140000Y-130470000D02*
X228039999Y-131570001D01*
X200775002Y-112100000D02*
X201075002Y-111800000D01*
X200395001Y-112100000D02*
X200775002Y-112100000D01*
X200295001Y-112000000D02*
X200395001Y-112100000D01*
X199260000Y-112000000D02*
X200295001Y-112000000D01*
X200775002Y-112550000D02*
X201075002Y-112850000D01*
X200395001Y-112550000D02*
X200775002Y-112550000D01*
X200295001Y-112650000D02*
X200395001Y-112550000D01*
X199260000Y-112650000D02*
X200295001Y-112650000D01*
D31*
G36*
X207131444Y-138130000D02*
G01*
X207135000Y-138166105D01*
X207135000Y-138457713D01*
X207125820Y-138460498D01*
X207015506Y-138519463D01*
X206918815Y-138598815D01*
X206839463Y-138695506D01*
X206780498Y-138805820D01*
X206744188Y-138925518D01*
X206731928Y-139050000D01*
X206731928Y-142315000D01*
X206468072Y-142315000D01*
X206468072Y-139050000D01*
X206455812Y-138925518D01*
X206419502Y-138805820D01*
X206417455Y-138801991D01*
X207129446Y-138090001D01*
X207135384Y-138090001D01*
X207131444Y-138130000D01*
X207131444Y-138130000D01*
G37*
X207131444Y-138130000D02*
X207135000Y-138166105D01*
X207135000Y-138457713D01*
X207125820Y-138460498D01*
X207015506Y-138519463D01*
X206918815Y-138598815D01*
X206839463Y-138695506D01*
X206780498Y-138805820D01*
X206744188Y-138925518D01*
X206731928Y-139050000D01*
X206731928Y-142315000D01*
X206468072Y-142315000D01*
X206468072Y-139050000D01*
X206455812Y-138925518D01*
X206419502Y-138805820D01*
X206417455Y-138801991D01*
X207129446Y-138090001D01*
X207135384Y-138090001D01*
X207131444Y-138130000D01*
G36*
X206414679Y-136740914D02*
G01*
X206302761Y-136832763D01*
X206279745Y-136860808D01*
X204835808Y-138304746D01*
X204807763Y-138327762D01*
X204730660Y-138421712D01*
X204705518Y-138424188D01*
X204585820Y-138460498D01*
X204475506Y-138519463D01*
X204378815Y-138598815D01*
X204299463Y-138695506D01*
X204240498Y-138805820D01*
X204204188Y-138925518D01*
X204191928Y-139050000D01*
X204191928Y-142315000D01*
X203928072Y-142315000D01*
X203928072Y-139050000D01*
X203915812Y-138925518D01*
X203879502Y-138805820D01*
X203832172Y-138717274D01*
X205860447Y-136689000D01*
X206511803Y-136689000D01*
X206414679Y-136740914D01*
X206414679Y-136740914D01*
G37*
X206414679Y-136740914D02*
X206302761Y-136832763D01*
X206279745Y-136860808D01*
X204835808Y-138304746D01*
X204807763Y-138327762D01*
X204730660Y-138421712D01*
X204705518Y-138424188D01*
X204585820Y-138460498D01*
X204475506Y-138519463D01*
X204378815Y-138598815D01*
X204299463Y-138695506D01*
X204240498Y-138805820D01*
X204204188Y-138925518D01*
X204191928Y-139050000D01*
X204191928Y-142315000D01*
X203928072Y-142315000D01*
X203928072Y-139050000D01*
X203915812Y-138925518D01*
X203879502Y-138805820D01*
X203832172Y-138717274D01*
X205860447Y-136689000D01*
X206511803Y-136689000D01*
X206414679Y-136740914D01*
G36*
X214755000Y-138246105D02*
G01*
X214755000Y-138457713D01*
X214745820Y-138460498D01*
X214635506Y-138519463D01*
X214538815Y-138598815D01*
X214459463Y-138695506D01*
X214400498Y-138805820D01*
X214364188Y-138925518D01*
X214351928Y-139050000D01*
X214351928Y-142315000D01*
X214088072Y-142315000D01*
X214088072Y-139050000D01*
X214075812Y-138925518D01*
X214039502Y-138805820D01*
X213980537Y-138695506D01*
X213901185Y-138598815D01*
X213804494Y-138519463D01*
X213694180Y-138460498D01*
X213685000Y-138457713D01*
X213685000Y-138454446D01*
X213904447Y-138235000D01*
X214563895Y-138235000D01*
X214600000Y-138238556D01*
X214636105Y-138235000D01*
X214744085Y-138224365D01*
X214752604Y-138221781D01*
X214755000Y-138246105D01*
X214755000Y-138246105D01*
G37*
X214755000Y-138246105D02*
X214755000Y-138457713D01*
X214745820Y-138460498D01*
X214635506Y-138519463D01*
X214538815Y-138598815D01*
X214459463Y-138695506D01*
X214400498Y-138805820D01*
X214364188Y-138925518D01*
X214351928Y-139050000D01*
X214351928Y-142315000D01*
X214088072Y-142315000D01*
X214088072Y-139050000D01*
X214075812Y-138925518D01*
X214039502Y-138805820D01*
X213980537Y-138695506D01*
X213901185Y-138598815D01*
X213804494Y-138519463D01*
X213694180Y-138460498D01*
X213685000Y-138457713D01*
X213685000Y-138454446D01*
X213904447Y-138235000D01*
X214563895Y-138235000D01*
X214600000Y-138238556D01*
X214636105Y-138235000D01*
X214744085Y-138224365D01*
X214752604Y-138221781D01*
X214755000Y-138246105D01*
G36*
X211811928Y-139050000D02*
G01*
X211811928Y-142315000D01*
X211548072Y-142315000D01*
X211548072Y-139050000D01*
X211546595Y-139035000D01*
X211813405Y-139035000D01*
X211811928Y-139050000D01*
X211811928Y-139050000D01*
G37*
X211811928Y-139050000D02*
X211811928Y-142315000D01*
X211548072Y-142315000D01*
X211548072Y-139050000D01*
X211546595Y-139035000D01*
X211813405Y-139035000D01*
X211811928Y-139050000D01*
G36*
X216790914Y-137915320D02*
G01*
X216882763Y-138027238D01*
X216910808Y-138050254D01*
X217295000Y-138434447D01*
X217295000Y-138457713D01*
X217285820Y-138460498D01*
X217175506Y-138519463D01*
X217078815Y-138598815D01*
X216999463Y-138695506D01*
X216940498Y-138805820D01*
X216904188Y-138925518D01*
X216891928Y-139050000D01*
X216891928Y-142315000D01*
X216628072Y-142315000D01*
X216628072Y-139050000D01*
X216615812Y-138925518D01*
X216579502Y-138805820D01*
X216520537Y-138695506D01*
X216441185Y-138598815D01*
X216344494Y-138519463D01*
X216263354Y-138476092D01*
X216629193Y-138110254D01*
X216657238Y-138087238D01*
X216749087Y-137975320D01*
X216774718Y-137927368D01*
X216786036Y-137906194D01*
X216790914Y-137915320D01*
X216790914Y-137915320D01*
G37*
X216790914Y-137915320D02*
X216882763Y-138027238D01*
X216910808Y-138050254D01*
X217295000Y-138434447D01*
X217295000Y-138457713D01*
X217285820Y-138460498D01*
X217175506Y-138519463D01*
X217078815Y-138598815D01*
X216999463Y-138695506D01*
X216940498Y-138805820D01*
X216904188Y-138925518D01*
X216891928Y-139050000D01*
X216891928Y-142315000D01*
X216628072Y-142315000D01*
X216628072Y-139050000D01*
X216615812Y-138925518D01*
X216579502Y-138805820D01*
X216520537Y-138695506D01*
X216441185Y-138598815D01*
X216344494Y-138519463D01*
X216263354Y-138476092D01*
X216629193Y-138110254D01*
X216657238Y-138087238D01*
X216749087Y-137975320D01*
X216774718Y-137927368D01*
X216786036Y-137906194D01*
X216790914Y-137915320D01*
G36*
X220805808Y-117864045D02*
G01*
X220777762Y-117887062D01*
X220685913Y-117998980D01*
X220617663Y-118126667D01*
X220600686Y-118182633D01*
X220575635Y-118265214D01*
X220561444Y-118409299D01*
X220565000Y-118445404D01*
X220565001Y-124563885D01*
X220561444Y-124600000D01*
X220575635Y-124744085D01*
X220612524Y-124865690D01*
X220617664Y-124882633D01*
X220685914Y-125010320D01*
X220777763Y-125122238D01*
X220805808Y-125145254D01*
X221154741Y-125494187D01*
X221177762Y-125522238D01*
X221289680Y-125614087D01*
X221417367Y-125682337D01*
X221555915Y-125724365D01*
X221663895Y-125735000D01*
X221663904Y-125735000D01*
X221699999Y-125738555D01*
X221736094Y-125735000D01*
X222361928Y-125735000D01*
X222361928Y-126515000D01*
X222374188Y-126639482D01*
X222392546Y-126700000D01*
X222374188Y-126760518D01*
X222361928Y-126885000D01*
X222361928Y-127785000D01*
X222374188Y-127909482D01*
X222392546Y-127970000D01*
X222374188Y-128030518D01*
X222361928Y-128155000D01*
X222361928Y-129055000D01*
X222374188Y-129179482D01*
X222392546Y-129240000D01*
X222374188Y-129300518D01*
X222361928Y-129425000D01*
X222361928Y-130325000D01*
X222374188Y-130449482D01*
X222392546Y-130510000D01*
X222374188Y-130570518D01*
X222361928Y-130695000D01*
X222361928Y-131595000D01*
X222374188Y-131719482D01*
X222392546Y-131780000D01*
X222374188Y-131840518D01*
X222361928Y-131965000D01*
X222361928Y-132865000D01*
X222374188Y-132989482D01*
X222392546Y-133050000D01*
X222374188Y-133110518D01*
X222361928Y-133235000D01*
X222361928Y-134135000D01*
X222374188Y-134259482D01*
X222392546Y-134320000D01*
X222374188Y-134380518D01*
X222361928Y-134505000D01*
X222361928Y-135405000D01*
X222374188Y-135529482D01*
X222410498Y-135649180D01*
X222469463Y-135759494D01*
X222548815Y-135856185D01*
X222645506Y-135935537D01*
X222755820Y-135994502D01*
X222875518Y-136030812D01*
X223000000Y-136043072D01*
X225000000Y-136043072D01*
X225124482Y-136030812D01*
X225244180Y-135994502D01*
X225354494Y-135935537D01*
X225451185Y-135856185D01*
X225530537Y-135759494D01*
X225589502Y-135649180D01*
X225625812Y-135529482D01*
X225638072Y-135405000D01*
X225638072Y-134505000D01*
X225625812Y-134380518D01*
X225607454Y-134320000D01*
X225625812Y-134259482D01*
X225638072Y-134135000D01*
X225638072Y-133892519D01*
X226015000Y-134269447D01*
X226015001Y-137213885D01*
X226011444Y-137250000D01*
X226025635Y-137394085D01*
X226060096Y-137507685D01*
X226067664Y-137532633D01*
X226135914Y-137660320D01*
X226227763Y-137772238D01*
X226255808Y-137795254D01*
X227158277Y-138697724D01*
X227100498Y-138805820D01*
X227064188Y-138925518D01*
X227051928Y-139050000D01*
X227051928Y-142315000D01*
X226788072Y-142315000D01*
X226788072Y-139050000D01*
X226775812Y-138925518D01*
X226739502Y-138805820D01*
X226680537Y-138695506D01*
X226601185Y-138598815D01*
X226504494Y-138519463D01*
X226394180Y-138460498D01*
X226274482Y-138424188D01*
X226249341Y-138421712D01*
X226226756Y-138394193D01*
X226195253Y-138355806D01*
X226195250Y-138355803D01*
X226172237Y-138327762D01*
X226144197Y-138304750D01*
X224315258Y-136475812D01*
X224292238Y-136447762D01*
X224180320Y-136355913D01*
X224052633Y-136287663D01*
X223914085Y-136245635D01*
X223806105Y-136235000D01*
X223770000Y-136231444D01*
X223733895Y-136235000D01*
X222408447Y-136235000D01*
X222303072Y-136129625D01*
X222303072Y-134955000D01*
X222290812Y-134830518D01*
X222254502Y-134710820D01*
X222195537Y-134600506D01*
X222116185Y-134503815D01*
X222019494Y-134424463D01*
X221909180Y-134365498D01*
X221789482Y-134329188D01*
X221665000Y-134316928D01*
X220765000Y-134316928D01*
X220640518Y-134329188D01*
X220580000Y-134347546D01*
X220519482Y-134329188D01*
X220395000Y-134316928D01*
X219495000Y-134316928D01*
X219370518Y-134329188D01*
X219310000Y-134347546D01*
X219249482Y-134329188D01*
X219125000Y-134316928D01*
X218225000Y-134316928D01*
X218100518Y-134329188D01*
X218040000Y-134347546D01*
X217979482Y-134329188D01*
X217855000Y-134316928D01*
X216955000Y-134316928D01*
X216830518Y-134329188D01*
X216770000Y-134347546D01*
X216709482Y-134329188D01*
X216585000Y-134316928D01*
X215685000Y-134316928D01*
X215560518Y-134329188D01*
X215500000Y-134347546D01*
X215439482Y-134329188D01*
X215315000Y-134316928D01*
X214415000Y-134316928D01*
X214290518Y-134329188D01*
X214230000Y-134347546D01*
X214169482Y-134329188D01*
X214045000Y-134316928D01*
X213145000Y-134316928D01*
X213020518Y-134329188D01*
X212960000Y-134347546D01*
X212899482Y-134329188D01*
X212775000Y-134316928D01*
X211875000Y-134316928D01*
X211750518Y-134329188D01*
X211690000Y-134347546D01*
X211629482Y-134329188D01*
X211505000Y-134316928D01*
X210605000Y-134316928D01*
X210480518Y-134329188D01*
X210420000Y-134347546D01*
X210359482Y-134329188D01*
X210235000Y-134316928D01*
X210070750Y-134320000D01*
X209912000Y-134478750D01*
X209912000Y-135828000D01*
X209932000Y-135828000D01*
X209932000Y-136082000D01*
X209912000Y-136082000D01*
X209912000Y-136102000D01*
X209658000Y-136102000D01*
X209658000Y-136082000D01*
X209638000Y-136082000D01*
X209638000Y-135828000D01*
X209658000Y-135828000D01*
X209658000Y-134478750D01*
X209499250Y-134320000D01*
X209335000Y-134316928D01*
X209210518Y-134329188D01*
X209123000Y-134355736D01*
X209123000Y-132639096D01*
X209126555Y-132602999D01*
X209123000Y-132566902D01*
X209123000Y-132566895D01*
X209112365Y-132458915D01*
X209070337Y-132320367D01*
X209002087Y-132192680D01*
X208910238Y-132080762D01*
X208882187Y-132057741D01*
X208745259Y-131920813D01*
X208722238Y-131892762D01*
X208614951Y-131804713D01*
X208607454Y-131780000D01*
X208625812Y-131719482D01*
X208638072Y-131595000D01*
X208638072Y-130695000D01*
X208625812Y-130570518D01*
X208607454Y-130510000D01*
X208625812Y-130449482D01*
X208638072Y-130325000D01*
X208638072Y-129425000D01*
X208625812Y-129300518D01*
X208607454Y-129240000D01*
X208625812Y-129179482D01*
X208638072Y-129055000D01*
X208638072Y-128155000D01*
X208625812Y-128030518D01*
X208607454Y-127970000D01*
X208614951Y-127945287D01*
X208722238Y-127857238D01*
X208745258Y-127829188D01*
X210794193Y-125780254D01*
X210822238Y-125757238D01*
X210914087Y-125645320D01*
X210982337Y-125517633D01*
X211024365Y-125379085D01*
X211035000Y-125271105D01*
X211035000Y-125271096D01*
X211038555Y-125235001D01*
X211035000Y-125198906D01*
X211035000Y-123445000D01*
X211361928Y-123445000D01*
X211361928Y-128445000D01*
X211374188Y-128569482D01*
X211410498Y-128689180D01*
X211469463Y-128799494D01*
X211548815Y-128896185D01*
X211645506Y-128975537D01*
X211755820Y-129034502D01*
X211875518Y-129070812D01*
X212000000Y-129083072D01*
X217000000Y-129083072D01*
X217124482Y-129070812D01*
X217244180Y-129034502D01*
X217354494Y-128975537D01*
X217451185Y-128896185D01*
X217530537Y-128799494D01*
X217589502Y-128689180D01*
X217625812Y-128569482D01*
X217638072Y-128445000D01*
X217638072Y-123445000D01*
X217625812Y-123320518D01*
X217589502Y-123200820D01*
X217530537Y-123090506D01*
X217451185Y-122993815D01*
X217354494Y-122914463D01*
X217244180Y-122855498D01*
X217124482Y-122819188D01*
X217000000Y-122806928D01*
X212000000Y-122806928D01*
X211875518Y-122819188D01*
X211755820Y-122855498D01*
X211645506Y-122914463D01*
X211548815Y-122993815D01*
X211469463Y-123090506D01*
X211410498Y-123200820D01*
X211374188Y-123320518D01*
X211361928Y-123445000D01*
X211035000Y-123445000D01*
X211035000Y-117936094D01*
X211038555Y-117899999D01*
X211035000Y-117863904D01*
X211035000Y-117863895D01*
X211024365Y-117755915D01*
X210982337Y-117617367D01*
X210914087Y-117489680D01*
X210874609Y-117441576D01*
X210845253Y-117405806D01*
X210845250Y-117405803D01*
X210822237Y-117377762D01*
X210794197Y-117354750D01*
X210266446Y-116827000D01*
X221842852Y-116827000D01*
X220805808Y-117864045D01*
X220805808Y-117864045D01*
G37*
X220805808Y-117864045D02*
X220777762Y-117887062D01*
X220685913Y-117998980D01*
X220617663Y-118126667D01*
X220600686Y-118182633D01*
X220575635Y-118265214D01*
X220561444Y-118409299D01*
X220565000Y-118445404D01*
X220565001Y-124563885D01*
X220561444Y-124600000D01*
X220575635Y-124744085D01*
X220612524Y-124865690D01*
X220617664Y-124882633D01*
X220685914Y-125010320D01*
X220777763Y-125122238D01*
X220805808Y-125145254D01*
X221154741Y-125494187D01*
X221177762Y-125522238D01*
X221289680Y-125614087D01*
X221417367Y-125682337D01*
X221555915Y-125724365D01*
X221663895Y-125735000D01*
X221663904Y-125735000D01*
X221699999Y-125738555D01*
X221736094Y-125735000D01*
X222361928Y-125735000D01*
X222361928Y-126515000D01*
X222374188Y-126639482D01*
X222392546Y-126700000D01*
X222374188Y-126760518D01*
X222361928Y-126885000D01*
X222361928Y-127785000D01*
X222374188Y-127909482D01*
X222392546Y-127970000D01*
X222374188Y-128030518D01*
X222361928Y-128155000D01*
X222361928Y-129055000D01*
X222374188Y-129179482D01*
X222392546Y-129240000D01*
X222374188Y-129300518D01*
X222361928Y-129425000D01*
X222361928Y-130325000D01*
X222374188Y-130449482D01*
X222392546Y-130510000D01*
X222374188Y-130570518D01*
X222361928Y-130695000D01*
X222361928Y-131595000D01*
X222374188Y-131719482D01*
X222392546Y-131780000D01*
X222374188Y-131840518D01*
X222361928Y-131965000D01*
X222361928Y-132865000D01*
X222374188Y-132989482D01*
X222392546Y-133050000D01*
X222374188Y-133110518D01*
X222361928Y-133235000D01*
X222361928Y-134135000D01*
X222374188Y-134259482D01*
X222392546Y-134320000D01*
X222374188Y-134380518D01*
X222361928Y-134505000D01*
X222361928Y-135405000D01*
X222374188Y-135529482D01*
X222410498Y-135649180D01*
X222469463Y-135759494D01*
X222548815Y-135856185D01*
X222645506Y-135935537D01*
X222755820Y-135994502D01*
X222875518Y-136030812D01*
X223000000Y-136043072D01*
X225000000Y-136043072D01*
X225124482Y-136030812D01*
X225244180Y-135994502D01*
X225354494Y-135935537D01*
X225451185Y-135856185D01*
X225530537Y-135759494D01*
X225589502Y-135649180D01*
X225625812Y-135529482D01*
X225638072Y-135405000D01*
X225638072Y-134505000D01*
X225625812Y-134380518D01*
X225607454Y-134320000D01*
X225625812Y-134259482D01*
X225638072Y-134135000D01*
X225638072Y-133892519D01*
X226015000Y-134269447D01*
X226015001Y-137213885D01*
X226011444Y-137250000D01*
X226025635Y-137394085D01*
X226060096Y-137507685D01*
X226067664Y-137532633D01*
X226135914Y-137660320D01*
X226227763Y-137772238D01*
X226255808Y-137795254D01*
X227158277Y-138697724D01*
X227100498Y-138805820D01*
X227064188Y-138925518D01*
X227051928Y-139050000D01*
X227051928Y-142315000D01*
X226788072Y-142315000D01*
X226788072Y-139050000D01*
X226775812Y-138925518D01*
X226739502Y-138805820D01*
X226680537Y-138695506D01*
X226601185Y-138598815D01*
X226504494Y-138519463D01*
X226394180Y-138460498D01*
X226274482Y-138424188D01*
X226249341Y-138421712D01*
X226226756Y-138394193D01*
X226195253Y-138355806D01*
X226195250Y-138355803D01*
X226172237Y-138327762D01*
X226144197Y-138304750D01*
X224315258Y-136475812D01*
X224292238Y-136447762D01*
X224180320Y-136355913D01*
X224052633Y-136287663D01*
X223914085Y-136245635D01*
X223806105Y-136235000D01*
X223770000Y-136231444D01*
X223733895Y-136235000D01*
X222408447Y-136235000D01*
X222303072Y-136129625D01*
X222303072Y-134955000D01*
X222290812Y-134830518D01*
X222254502Y-134710820D01*
X222195537Y-134600506D01*
X222116185Y-134503815D01*
X222019494Y-134424463D01*
X221909180Y-134365498D01*
X221789482Y-134329188D01*
X221665000Y-134316928D01*
X220765000Y-134316928D01*
X220640518Y-134329188D01*
X220580000Y-134347546D01*
X220519482Y-134329188D01*
X220395000Y-134316928D01*
X219495000Y-134316928D01*
X219370518Y-134329188D01*
X219310000Y-134347546D01*
X219249482Y-134329188D01*
X219125000Y-134316928D01*
X218225000Y-134316928D01*
X218100518Y-134329188D01*
X218040000Y-134347546D01*
X217979482Y-134329188D01*
X217855000Y-134316928D01*
X216955000Y-134316928D01*
X216830518Y-134329188D01*
X216770000Y-134347546D01*
X216709482Y-134329188D01*
X216585000Y-134316928D01*
X215685000Y-134316928D01*
X215560518Y-134329188D01*
X215500000Y-134347546D01*
X215439482Y-134329188D01*
X215315000Y-134316928D01*
X214415000Y-134316928D01*
X214290518Y-134329188D01*
X214230000Y-134347546D01*
X214169482Y-134329188D01*
X214045000Y-134316928D01*
X213145000Y-134316928D01*
X213020518Y-134329188D01*
X212960000Y-134347546D01*
X212899482Y-134329188D01*
X212775000Y-134316928D01*
X211875000Y-134316928D01*
X211750518Y-134329188D01*
X211690000Y-134347546D01*
X211629482Y-134329188D01*
X211505000Y-134316928D01*
X210605000Y-134316928D01*
X210480518Y-134329188D01*
X210420000Y-134347546D01*
X210359482Y-134329188D01*
X210235000Y-134316928D01*
X210070750Y-134320000D01*
X209912000Y-134478750D01*
X209912000Y-135828000D01*
X209932000Y-135828000D01*
X209932000Y-136082000D01*
X209912000Y-136082000D01*
X209912000Y-136102000D01*
X209658000Y-136102000D01*
X209658000Y-136082000D01*
X209638000Y-136082000D01*
X209638000Y-135828000D01*
X209658000Y-135828000D01*
X209658000Y-134478750D01*
X209499250Y-134320000D01*
X209335000Y-134316928D01*
X209210518Y-134329188D01*
X209123000Y-134355736D01*
X209123000Y-132639096D01*
X209126555Y-132602999D01*
X209123000Y-132566902D01*
X209123000Y-132566895D01*
X209112365Y-132458915D01*
X209070337Y-132320367D01*
X209002087Y-132192680D01*
X208910238Y-132080762D01*
X208882187Y-132057741D01*
X208745259Y-131920813D01*
X208722238Y-131892762D01*
X208614951Y-131804713D01*
X208607454Y-131780000D01*
X208625812Y-131719482D01*
X208638072Y-131595000D01*
X208638072Y-130695000D01*
X208625812Y-130570518D01*
X208607454Y-130510000D01*
X208625812Y-130449482D01*
X208638072Y-130325000D01*
X208638072Y-129425000D01*
X208625812Y-129300518D01*
X208607454Y-129240000D01*
X208625812Y-129179482D01*
X208638072Y-129055000D01*
X208638072Y-128155000D01*
X208625812Y-128030518D01*
X208607454Y-127970000D01*
X208614951Y-127945287D01*
X208722238Y-127857238D01*
X208745258Y-127829188D01*
X210794193Y-125780254D01*
X210822238Y-125757238D01*
X210914087Y-125645320D01*
X210982337Y-125517633D01*
X211024365Y-125379085D01*
X211035000Y-125271105D01*
X211035000Y-125271096D01*
X211038555Y-125235001D01*
X211035000Y-125198906D01*
X211035000Y-123445000D01*
X211361928Y-123445000D01*
X211361928Y-128445000D01*
X211374188Y-128569482D01*
X211410498Y-128689180D01*
X211469463Y-128799494D01*
X211548815Y-128896185D01*
X211645506Y-128975537D01*
X211755820Y-129034502D01*
X211875518Y-129070812D01*
X212000000Y-129083072D01*
X217000000Y-129083072D01*
X217124482Y-129070812D01*
X217244180Y-129034502D01*
X217354494Y-128975537D01*
X217451185Y-128896185D01*
X217530537Y-128799494D01*
X217589502Y-128689180D01*
X217625812Y-128569482D01*
X217638072Y-128445000D01*
X217638072Y-123445000D01*
X217625812Y-123320518D01*
X217589502Y-123200820D01*
X217530537Y-123090506D01*
X217451185Y-122993815D01*
X217354494Y-122914463D01*
X217244180Y-122855498D01*
X217124482Y-122819188D01*
X217000000Y-122806928D01*
X212000000Y-122806928D01*
X211875518Y-122819188D01*
X211755820Y-122855498D01*
X211645506Y-122914463D01*
X211548815Y-122993815D01*
X211469463Y-123090506D01*
X211410498Y-123200820D01*
X211374188Y-123320518D01*
X211361928Y-123445000D01*
X211035000Y-123445000D01*
X211035000Y-117936094D01*
X211038555Y-117899999D01*
X211035000Y-117863904D01*
X211035000Y-117863895D01*
X211024365Y-117755915D01*
X210982337Y-117617367D01*
X210914087Y-117489680D01*
X210874609Y-117441576D01*
X210845253Y-117405806D01*
X210845250Y-117405803D01*
X210822237Y-117377762D01*
X210794197Y-117354750D01*
X210266446Y-116827000D01*
X221842852Y-116827000D01*
X220805808Y-117864045D01*
G36*
X218855915Y-138204365D02*
G01*
X218963895Y-138215000D01*
X218963904Y-138215000D01*
X218999999Y-138218555D01*
X219036094Y-138215000D01*
X219675554Y-138215000D01*
X219835000Y-138374447D01*
X219835000Y-138457713D01*
X219825820Y-138460498D01*
X219715506Y-138519463D01*
X219618815Y-138598815D01*
X219539463Y-138695506D01*
X219480498Y-138805820D01*
X219444188Y-138925518D01*
X219431928Y-139050000D01*
X219431928Y-142315000D01*
X219168072Y-142315000D01*
X219168072Y-139050000D01*
X219155812Y-138925518D01*
X219119502Y-138805820D01*
X219060537Y-138695506D01*
X218981185Y-138598815D01*
X218884494Y-138519463D01*
X218774180Y-138460498D01*
X218765000Y-138457713D01*
X218765000Y-138176786D01*
X218855915Y-138204365D01*
X218855915Y-138204365D01*
G37*
X218855915Y-138204365D02*
X218963895Y-138215000D01*
X218963904Y-138215000D01*
X218999999Y-138218555D01*
X219036094Y-138215000D01*
X219675554Y-138215000D01*
X219835000Y-138374447D01*
X219835000Y-138457713D01*
X219825820Y-138460498D01*
X219715506Y-138519463D01*
X219618815Y-138598815D01*
X219539463Y-138695506D01*
X219480498Y-138805820D01*
X219444188Y-138925518D01*
X219431928Y-139050000D01*
X219431928Y-142315000D01*
X219168072Y-142315000D01*
X219168072Y-139050000D01*
X219155812Y-138925518D01*
X219119502Y-138805820D01*
X219060537Y-138695506D01*
X218981185Y-138598815D01*
X218884494Y-138519463D01*
X218774180Y-138460498D01*
X218765000Y-138457713D01*
X218765000Y-138176786D01*
X218855915Y-138204365D01*
G36*
X222336646Y-138476092D02*
G01*
X222255506Y-138519463D01*
X222158815Y-138598815D01*
X222079463Y-138695506D01*
X222020498Y-138805820D01*
X221984188Y-138925518D01*
X221971928Y-139050000D01*
X221971928Y-142315000D01*
X221708072Y-142315000D01*
X221708072Y-139050000D01*
X221695812Y-138925518D01*
X221659502Y-138805820D01*
X221600537Y-138695506D01*
X221521185Y-138598815D01*
X221424494Y-138519463D01*
X221314180Y-138460498D01*
X221305000Y-138457713D01*
X221305000Y-138135000D01*
X221995554Y-138135000D01*
X222336646Y-138476092D01*
X222336646Y-138476092D01*
G37*
X222336646Y-138476092D02*
X222255506Y-138519463D01*
X222158815Y-138598815D01*
X222079463Y-138695506D01*
X222020498Y-138805820D01*
X221984188Y-138925518D01*
X221971928Y-139050000D01*
X221971928Y-142315000D01*
X221708072Y-142315000D01*
X221708072Y-139050000D01*
X221695812Y-138925518D01*
X221659502Y-138805820D01*
X221600537Y-138695506D01*
X221521185Y-138598815D01*
X221424494Y-138519463D01*
X221314180Y-138460498D01*
X221305000Y-138457713D01*
X221305000Y-138135000D01*
X221995554Y-138135000D01*
X222336646Y-138476092D01*
G36*
X224562545Y-138801991D02*
G01*
X224560498Y-138805820D01*
X224524188Y-138925518D01*
X224511928Y-139050000D01*
X224511928Y-142315000D01*
X224248072Y-142315000D01*
X224248072Y-139050000D01*
X224235812Y-138925518D01*
X224199502Y-138805820D01*
X224140537Y-138695506D01*
X224061185Y-138598815D01*
X223964494Y-138519463D01*
X223854180Y-138460498D01*
X223845000Y-138457713D01*
X223845000Y-138246105D01*
X223848556Y-138210000D01*
X223835228Y-138074674D01*
X224562545Y-138801991D01*
X224562545Y-138801991D01*
G37*
X224562545Y-138801991D02*
X224560498Y-138805820D01*
X224524188Y-138925518D01*
X224511928Y-139050000D01*
X224511928Y-142315000D01*
X224248072Y-142315000D01*
X224248072Y-139050000D01*
X224235812Y-138925518D01*
X224199502Y-138805820D01*
X224140537Y-138695506D01*
X224061185Y-138598815D01*
X223964494Y-138519463D01*
X223854180Y-138460498D01*
X223845000Y-138457713D01*
X223845000Y-138246105D01*
X223848556Y-138210000D01*
X223835228Y-138074674D01*
X224562545Y-138801991D01*
G36*
X209379463Y-138695506D02*
G01*
X209320498Y-138805820D01*
X209284188Y-138925518D01*
X209271928Y-139050000D01*
X209271928Y-142315000D01*
X209008072Y-142315000D01*
X209008072Y-139050000D01*
X208995812Y-138925518D01*
X208959502Y-138805820D01*
X208900537Y-138695506D01*
X208850881Y-138635000D01*
X209429119Y-138635000D01*
X209379463Y-138695506D01*
X209379463Y-138695506D01*
G37*
X209379463Y-138695506D02*
X209320498Y-138805820D01*
X209284188Y-138925518D01*
X209271928Y-139050000D01*
X209271928Y-142315000D01*
X209008072Y-142315000D01*
X209008072Y-139050000D01*
X208995812Y-138925518D01*
X208959502Y-138805820D01*
X208900537Y-138695506D01*
X208850881Y-138635000D01*
X209429119Y-138635000D01*
X209379463Y-138695506D01*
G36*
X197164982Y-137414429D02*
G01*
X196985750Y-137415000D01*
X196827000Y-137573750D01*
X196827000Y-140423000D01*
X196847000Y-140423000D01*
X196847000Y-140677000D01*
X196827000Y-140677000D01*
X196827000Y-140697000D01*
X196573000Y-140697000D01*
X196573000Y-140677000D01*
X196553000Y-140677000D01*
X196553000Y-140423000D01*
X196573000Y-140423000D01*
X196573000Y-137573750D01*
X196414250Y-137415000D01*
X196185000Y-137414270D01*
X196185000Y-136434446D01*
X197164982Y-137414429D01*
X197164982Y-137414429D01*
G37*
X197164982Y-137414429D02*
X196985750Y-137415000D01*
X196827000Y-137573750D01*
X196827000Y-140423000D01*
X196847000Y-140423000D01*
X196847000Y-140677000D01*
X196827000Y-140677000D01*
X196827000Y-140697000D01*
X196573000Y-140697000D01*
X196573000Y-140677000D01*
X196553000Y-140677000D01*
X196553000Y-140423000D01*
X196573000Y-140423000D01*
X196573000Y-137573750D01*
X196414250Y-137415000D01*
X196185000Y-137414270D01*
X196185000Y-136434446D01*
X197164982Y-137414429D01*
G36*
X234427000Y-105323000D02*
G01*
X234447000Y-105323000D01*
X234447000Y-105577000D01*
X234427000Y-105577000D01*
X234427000Y-108426250D01*
X234585750Y-108585000D01*
X234755210Y-108585540D01*
X234627000Y-108713750D01*
X234627000Y-109838000D01*
X234647000Y-109838000D01*
X234647000Y-110092000D01*
X234627000Y-110092000D01*
X234627000Y-111216250D01*
X234785750Y-111375000D01*
X234815000Y-111375419D01*
X234815000Y-113804581D01*
X234785750Y-113805000D01*
X234627000Y-113963750D01*
X234627000Y-115088000D01*
X234647000Y-115088000D01*
X234647000Y-115342000D01*
X234627000Y-115342000D01*
X234627000Y-116466250D01*
X234785750Y-116625000D01*
X234815000Y-116625419D01*
X234815001Y-129163225D01*
X234638574Y-129090147D01*
X234361335Y-129035000D01*
X234078665Y-129035000D01*
X233801426Y-129090147D01*
X233540273Y-129198320D01*
X233305241Y-129355363D01*
X233105363Y-129555241D01*
X232949085Y-129789128D01*
X232916671Y-129728486D01*
X232672702Y-129656903D01*
X231859605Y-130470000D01*
X232672702Y-131283097D01*
X232916671Y-131211514D01*
X232947194Y-131147008D01*
X232948320Y-131149727D01*
X233105363Y-131384759D01*
X233305241Y-131584637D01*
X233540273Y-131741680D01*
X233801426Y-131849853D01*
X234078665Y-131905000D01*
X234361335Y-131905000D01*
X234638574Y-131849853D01*
X234815001Y-131776775D01*
X234815001Y-137414270D01*
X234585750Y-137415000D01*
X234427000Y-137573750D01*
X234427000Y-140423000D01*
X234447000Y-140423000D01*
X234447000Y-140677000D01*
X234427000Y-140677000D01*
X234427000Y-140697000D01*
X234173000Y-140697000D01*
X234173000Y-140677000D01*
X234153000Y-140677000D01*
X234153000Y-140423000D01*
X234173000Y-140423000D01*
X234173000Y-137573750D01*
X234014250Y-137415000D01*
X233050000Y-137411928D01*
X232925518Y-137424188D01*
X232805820Y-137460498D01*
X232695506Y-137519463D01*
X232598815Y-137598815D01*
X232550000Y-137658296D01*
X232501185Y-137598815D01*
X232404494Y-137519463D01*
X232294180Y-137460498D01*
X232174482Y-137424188D01*
X232050000Y-137411928D01*
X229550000Y-137411928D01*
X229425518Y-137424188D01*
X229305820Y-137460498D01*
X229195506Y-137519463D01*
X229098815Y-137598815D01*
X229019463Y-137695506D01*
X228960498Y-137805820D01*
X228924188Y-137925518D01*
X228911928Y-138050000D01*
X228911928Y-138453748D01*
X228883820Y-138445222D01*
X228872337Y-138407366D01*
X228804087Y-138279680D01*
X228742277Y-138204365D01*
X228712238Y-138167762D01*
X228684193Y-138144746D01*
X227485000Y-136945554D01*
X227485000Y-134001104D01*
X227488556Y-133964999D01*
X227474365Y-133820914D01*
X227457680Y-133765913D01*
X227432337Y-133682367D01*
X227364087Y-133554680D01*
X227300962Y-133477763D01*
X227295253Y-133470806D01*
X227295250Y-133470803D01*
X227272237Y-133442762D01*
X227244197Y-133419750D01*
X226129447Y-132305001D01*
X228003894Y-132305001D01*
X228039999Y-132308557D01*
X228076104Y-132305001D01*
X228184084Y-132294366D01*
X228322632Y-132252338D01*
X228450319Y-132184088D01*
X228562237Y-132092239D01*
X228585257Y-132064189D01*
X228786624Y-131862822D01*
X228998665Y-131905000D01*
X229281335Y-131905000D01*
X229558574Y-131849853D01*
X229819727Y-131741680D01*
X230054759Y-131584637D01*
X230176694Y-131462702D01*
X230866903Y-131462702D01*
X230938486Y-131706671D01*
X231193996Y-131827571D01*
X231468184Y-131896300D01*
X231750512Y-131910217D01*
X232030130Y-131868787D01*
X232296292Y-131773603D01*
X232421514Y-131706671D01*
X232493097Y-131462702D01*
X231680000Y-130649605D01*
X230866903Y-131462702D01*
X230176694Y-131462702D01*
X230254637Y-131384759D01*
X230410915Y-131150872D01*
X230443329Y-131211514D01*
X230687298Y-131283097D01*
X231500395Y-130470000D01*
X230687298Y-129656903D01*
X230443329Y-129728486D01*
X230412806Y-129792992D01*
X230411680Y-129790273D01*
X230254637Y-129555241D01*
X230176694Y-129477298D01*
X230866903Y-129477298D01*
X231680000Y-130290395D01*
X232493097Y-129477298D01*
X232421514Y-129233329D01*
X232166004Y-129112429D01*
X231891816Y-129043700D01*
X231609488Y-129029783D01*
X231329870Y-129071213D01*
X231063708Y-129166397D01*
X230938486Y-129233329D01*
X230866903Y-129477298D01*
X230176694Y-129477298D01*
X230054759Y-129355363D01*
X229819727Y-129198320D01*
X229558574Y-129090147D01*
X229281335Y-129035000D01*
X228998665Y-129035000D01*
X228721426Y-129090147D01*
X228460273Y-129198320D01*
X228225241Y-129355363D01*
X228025363Y-129555241D01*
X227870000Y-129787759D01*
X227714637Y-129555241D01*
X227514759Y-129355363D01*
X227479567Y-129331849D01*
X227504785Y-129329365D01*
X227643333Y-129287337D01*
X227771020Y-129219087D01*
X227882938Y-129127238D01*
X227905959Y-129099187D01*
X231594207Y-125410940D01*
X231622247Y-125387928D01*
X231645260Y-125359887D01*
X231645263Y-125359884D01*
X231670127Y-125329587D01*
X231714097Y-125276010D01*
X231782347Y-125148323D01*
X231824375Y-125009775D01*
X231835010Y-124901795D01*
X231835010Y-124901794D01*
X231838566Y-124865690D01*
X231835010Y-124829585D01*
X231835010Y-120836104D01*
X231838565Y-120800009D01*
X231835010Y-120763914D01*
X231835010Y-120763905D01*
X231824375Y-120655925D01*
X231782347Y-120517377D01*
X231714097Y-120389690D01*
X231622248Y-120277772D01*
X231594197Y-120254751D01*
X231215258Y-119875812D01*
X231192237Y-119847761D01*
X231080319Y-119755912D01*
X230952632Y-119687662D01*
X230814084Y-119645634D01*
X230706104Y-119634999D01*
X230669999Y-119631443D01*
X230633894Y-119634999D01*
X230575000Y-119634999D01*
X230575000Y-119428665D01*
X230519853Y-119151426D01*
X230411680Y-118890273D01*
X230254637Y-118655241D01*
X230054759Y-118455363D01*
X229819727Y-118298320D01*
X229558574Y-118190147D01*
X229281335Y-118135000D01*
X229070224Y-118135000D01*
X229103874Y-118101350D01*
X229217142Y-117931832D01*
X229295163Y-117743474D01*
X229334937Y-117543515D01*
X229334937Y-117446022D01*
X230594197Y-116186763D01*
X230622237Y-116163751D01*
X230645250Y-116135710D01*
X230645253Y-116135707D01*
X230714087Y-116051833D01*
X230782337Y-115924147D01*
X230803291Y-115855070D01*
X230882367Y-115897337D01*
X231020915Y-115939365D01*
X231128895Y-115950000D01*
X231128904Y-115950000D01*
X231164999Y-115953555D01*
X231201094Y-115950000D01*
X231661928Y-115950000D01*
X231661928Y-115990000D01*
X231674188Y-116114482D01*
X231710498Y-116234180D01*
X231769463Y-116344494D01*
X231848815Y-116441185D01*
X231945506Y-116520537D01*
X232055820Y-116579502D01*
X232175518Y-116615812D01*
X232300000Y-116628072D01*
X233300000Y-116628072D01*
X233424482Y-116615812D01*
X233544180Y-116579502D01*
X233650000Y-116522939D01*
X233755820Y-116579502D01*
X233875518Y-116615812D01*
X234000000Y-116628072D01*
X234214250Y-116625000D01*
X234373000Y-116466250D01*
X234373000Y-115342000D01*
X234353000Y-115342000D01*
X234353000Y-115088000D01*
X234373000Y-115088000D01*
X234373000Y-113963750D01*
X234214250Y-113805000D01*
X234000000Y-113801928D01*
X233875518Y-113814188D01*
X233755820Y-113850498D01*
X233650000Y-113907061D01*
X233544180Y-113850498D01*
X233535000Y-113847713D01*
X233535000Y-111332287D01*
X233544180Y-111329502D01*
X233650000Y-111272939D01*
X233755820Y-111329502D01*
X233875518Y-111365812D01*
X234000000Y-111378072D01*
X234214250Y-111375000D01*
X234373000Y-111216250D01*
X234373000Y-110092000D01*
X234353000Y-110092000D01*
X234353000Y-109838000D01*
X234373000Y-109838000D01*
X234373000Y-108713750D01*
X234214250Y-108555000D01*
X234046653Y-108552597D01*
X234173000Y-108426250D01*
X234173000Y-105577000D01*
X234153000Y-105577000D01*
X234153000Y-105323000D01*
X234173000Y-105323000D01*
X234173000Y-105303000D01*
X234427000Y-105303000D01*
X234427000Y-105323000D01*
X234427000Y-105323000D01*
G37*
X234427000Y-105323000D02*
X234447000Y-105323000D01*
X234447000Y-105577000D01*
X234427000Y-105577000D01*
X234427000Y-108426250D01*
X234585750Y-108585000D01*
X234755210Y-108585540D01*
X234627000Y-108713750D01*
X234627000Y-109838000D01*
X234647000Y-109838000D01*
X234647000Y-110092000D01*
X234627000Y-110092000D01*
X234627000Y-111216250D01*
X234785750Y-111375000D01*
X234815000Y-111375419D01*
X234815000Y-113804581D01*
X234785750Y-113805000D01*
X234627000Y-113963750D01*
X234627000Y-115088000D01*
X234647000Y-115088000D01*
X234647000Y-115342000D01*
X234627000Y-115342000D01*
X234627000Y-116466250D01*
X234785750Y-116625000D01*
X234815000Y-116625419D01*
X234815001Y-129163225D01*
X234638574Y-129090147D01*
X234361335Y-129035000D01*
X234078665Y-129035000D01*
X233801426Y-129090147D01*
X233540273Y-129198320D01*
X233305241Y-129355363D01*
X233105363Y-129555241D01*
X232949085Y-129789128D01*
X232916671Y-129728486D01*
X232672702Y-129656903D01*
X231859605Y-130470000D01*
X232672702Y-131283097D01*
X232916671Y-131211514D01*
X232947194Y-131147008D01*
X232948320Y-131149727D01*
X233105363Y-131384759D01*
X233305241Y-131584637D01*
X233540273Y-131741680D01*
X233801426Y-131849853D01*
X234078665Y-131905000D01*
X234361335Y-131905000D01*
X234638574Y-131849853D01*
X234815001Y-131776775D01*
X234815001Y-137414270D01*
X234585750Y-137415000D01*
X234427000Y-137573750D01*
X234427000Y-140423000D01*
X234447000Y-140423000D01*
X234447000Y-140677000D01*
X234427000Y-140677000D01*
X234427000Y-140697000D01*
X234173000Y-140697000D01*
X234173000Y-140677000D01*
X234153000Y-140677000D01*
X234153000Y-140423000D01*
X234173000Y-140423000D01*
X234173000Y-137573750D01*
X234014250Y-137415000D01*
X233050000Y-137411928D01*
X232925518Y-137424188D01*
X232805820Y-137460498D01*
X232695506Y-137519463D01*
X232598815Y-137598815D01*
X232550000Y-137658296D01*
X232501185Y-137598815D01*
X232404494Y-137519463D01*
X232294180Y-137460498D01*
X232174482Y-137424188D01*
X232050000Y-137411928D01*
X229550000Y-137411928D01*
X229425518Y-137424188D01*
X229305820Y-137460498D01*
X229195506Y-137519463D01*
X229098815Y-137598815D01*
X229019463Y-137695506D01*
X228960498Y-137805820D01*
X228924188Y-137925518D01*
X228911928Y-138050000D01*
X228911928Y-138453748D01*
X228883820Y-138445222D01*
X228872337Y-138407366D01*
X228804087Y-138279680D01*
X228742277Y-138204365D01*
X228712238Y-138167762D01*
X228684193Y-138144746D01*
X227485000Y-136945554D01*
X227485000Y-134001104D01*
X227488556Y-133964999D01*
X227474365Y-133820914D01*
X227457680Y-133765913D01*
X227432337Y-133682367D01*
X227364087Y-133554680D01*
X227300962Y-133477763D01*
X227295253Y-133470806D01*
X227295250Y-133470803D01*
X227272237Y-133442762D01*
X227244197Y-133419750D01*
X226129447Y-132305001D01*
X228003894Y-132305001D01*
X228039999Y-132308557D01*
X228076104Y-132305001D01*
X228184084Y-132294366D01*
X228322632Y-132252338D01*
X228450319Y-132184088D01*
X228562237Y-132092239D01*
X228585257Y-132064189D01*
X228786624Y-131862822D01*
X228998665Y-131905000D01*
X229281335Y-131905000D01*
X229558574Y-131849853D01*
X229819727Y-131741680D01*
X230054759Y-131584637D01*
X230176694Y-131462702D01*
X230866903Y-131462702D01*
X230938486Y-131706671D01*
X231193996Y-131827571D01*
X231468184Y-131896300D01*
X231750512Y-131910217D01*
X232030130Y-131868787D01*
X232296292Y-131773603D01*
X232421514Y-131706671D01*
X232493097Y-131462702D01*
X231680000Y-130649605D01*
X230866903Y-131462702D01*
X230176694Y-131462702D01*
X230254637Y-131384759D01*
X230410915Y-131150872D01*
X230443329Y-131211514D01*
X230687298Y-131283097D01*
X231500395Y-130470000D01*
X230687298Y-129656903D01*
X230443329Y-129728486D01*
X230412806Y-129792992D01*
X230411680Y-129790273D01*
X230254637Y-129555241D01*
X230176694Y-129477298D01*
X230866903Y-129477298D01*
X231680000Y-130290395D01*
X232493097Y-129477298D01*
X232421514Y-129233329D01*
X232166004Y-129112429D01*
X231891816Y-129043700D01*
X231609488Y-129029783D01*
X231329870Y-129071213D01*
X231063708Y-129166397D01*
X230938486Y-129233329D01*
X230866903Y-129477298D01*
X230176694Y-129477298D01*
X230054759Y-129355363D01*
X229819727Y-129198320D01*
X229558574Y-129090147D01*
X229281335Y-129035000D01*
X228998665Y-129035000D01*
X228721426Y-129090147D01*
X228460273Y-129198320D01*
X228225241Y-129355363D01*
X228025363Y-129555241D01*
X227870000Y-129787759D01*
X227714637Y-129555241D01*
X227514759Y-129355363D01*
X227479567Y-129331849D01*
X227504785Y-129329365D01*
X227643333Y-129287337D01*
X227771020Y-129219087D01*
X227882938Y-129127238D01*
X227905959Y-129099187D01*
X231594207Y-125410940D01*
X231622247Y-125387928D01*
X231645260Y-125359887D01*
X231645263Y-125359884D01*
X231670127Y-125329587D01*
X231714097Y-125276010D01*
X231782347Y-125148323D01*
X231824375Y-125009775D01*
X231835010Y-124901795D01*
X231835010Y-124901794D01*
X231838566Y-124865690D01*
X231835010Y-124829585D01*
X231835010Y-120836104D01*
X231838565Y-120800009D01*
X231835010Y-120763914D01*
X231835010Y-120763905D01*
X231824375Y-120655925D01*
X231782347Y-120517377D01*
X231714097Y-120389690D01*
X231622248Y-120277772D01*
X231594197Y-120254751D01*
X231215258Y-119875812D01*
X231192237Y-119847761D01*
X231080319Y-119755912D01*
X230952632Y-119687662D01*
X230814084Y-119645634D01*
X230706104Y-119634999D01*
X230669999Y-119631443D01*
X230633894Y-119634999D01*
X230575000Y-119634999D01*
X230575000Y-119428665D01*
X230519853Y-119151426D01*
X230411680Y-118890273D01*
X230254637Y-118655241D01*
X230054759Y-118455363D01*
X229819727Y-118298320D01*
X229558574Y-118190147D01*
X229281335Y-118135000D01*
X229070224Y-118135000D01*
X229103874Y-118101350D01*
X229217142Y-117931832D01*
X229295163Y-117743474D01*
X229334937Y-117543515D01*
X229334937Y-117446022D01*
X230594197Y-116186763D01*
X230622237Y-116163751D01*
X230645250Y-116135710D01*
X230645253Y-116135707D01*
X230714087Y-116051833D01*
X230782337Y-115924147D01*
X230803291Y-115855070D01*
X230882367Y-115897337D01*
X231020915Y-115939365D01*
X231128895Y-115950000D01*
X231128904Y-115950000D01*
X231164999Y-115953555D01*
X231201094Y-115950000D01*
X231661928Y-115950000D01*
X231661928Y-115990000D01*
X231674188Y-116114482D01*
X231710498Y-116234180D01*
X231769463Y-116344494D01*
X231848815Y-116441185D01*
X231945506Y-116520537D01*
X232055820Y-116579502D01*
X232175518Y-116615812D01*
X232300000Y-116628072D01*
X233300000Y-116628072D01*
X233424482Y-116615812D01*
X233544180Y-116579502D01*
X233650000Y-116522939D01*
X233755820Y-116579502D01*
X233875518Y-116615812D01*
X234000000Y-116628072D01*
X234214250Y-116625000D01*
X234373000Y-116466250D01*
X234373000Y-115342000D01*
X234353000Y-115342000D01*
X234353000Y-115088000D01*
X234373000Y-115088000D01*
X234373000Y-113963750D01*
X234214250Y-113805000D01*
X234000000Y-113801928D01*
X233875518Y-113814188D01*
X233755820Y-113850498D01*
X233650000Y-113907061D01*
X233544180Y-113850498D01*
X233535000Y-113847713D01*
X233535000Y-111332287D01*
X233544180Y-111329502D01*
X233650000Y-111272939D01*
X233755820Y-111329502D01*
X233875518Y-111365812D01*
X234000000Y-111378072D01*
X234214250Y-111375000D01*
X234373000Y-111216250D01*
X234373000Y-110092000D01*
X234353000Y-110092000D01*
X234353000Y-109838000D01*
X234373000Y-109838000D01*
X234373000Y-108713750D01*
X234214250Y-108555000D01*
X234046653Y-108552597D01*
X234173000Y-108426250D01*
X234173000Y-105577000D01*
X234153000Y-105577000D01*
X234153000Y-105323000D01*
X234173000Y-105323000D01*
X234173000Y-105303000D01*
X234427000Y-105303000D01*
X234427000Y-105323000D01*
G36*
X208698369Y-136620001D02*
G01*
X208304198Y-136620001D01*
X208401322Y-136568087D01*
X208513240Y-136476238D01*
X208536261Y-136448187D01*
X208699811Y-136284637D01*
X208698369Y-136620001D01*
X208698369Y-136620001D01*
G37*
X208698369Y-136620001D02*
X208304198Y-136620001D01*
X208401322Y-136568087D01*
X208513240Y-136476238D01*
X208536261Y-136448187D01*
X208699811Y-136284637D01*
X208698369Y-136620001D01*
G36*
X196205808Y-126860254D02*
G01*
X196604741Y-127259187D01*
X196627762Y-127287238D01*
X196739680Y-127379087D01*
X196782037Y-127401727D01*
X196744742Y-127447171D01*
X196671916Y-127583418D01*
X196627071Y-127731255D01*
X196611928Y-127885000D01*
X196611928Y-128185000D01*
X196627071Y-128338745D01*
X196671916Y-128486582D01*
X196744742Y-128622829D01*
X196783454Y-128670000D01*
X196744742Y-128717171D01*
X196671916Y-128853418D01*
X196627071Y-129001255D01*
X196611928Y-129155000D01*
X196611928Y-129455000D01*
X196627071Y-129608745D01*
X196671916Y-129756582D01*
X196744742Y-129892829D01*
X196783454Y-129940000D01*
X196744742Y-129987171D01*
X196671916Y-130123418D01*
X196627071Y-130271255D01*
X196611928Y-130425000D01*
X196611928Y-130725000D01*
X196627071Y-130878745D01*
X196671916Y-131026582D01*
X196744742Y-131162829D01*
X196783454Y-131210000D01*
X196744742Y-131257171D01*
X196671916Y-131393418D01*
X196627071Y-131541255D01*
X196611928Y-131695000D01*
X196611928Y-131995000D01*
X196627071Y-132148745D01*
X196671916Y-132296582D01*
X196744742Y-132432829D01*
X196842749Y-132552251D01*
X196962171Y-132650258D01*
X197098418Y-132723084D01*
X197246255Y-132767929D01*
X197400000Y-132783072D01*
X199015000Y-132783072D01*
X199015000Y-132821897D01*
X198895208Y-132920208D01*
X198828142Y-133001928D01*
X197960000Y-133001928D01*
X197835518Y-133014188D01*
X197715820Y-133050498D01*
X197605506Y-133109463D01*
X197508815Y-133188815D01*
X197429463Y-133285506D01*
X197370498Y-133395820D01*
X197334188Y-133515518D01*
X197321928Y-133640000D01*
X197321928Y-134151905D01*
X197311185Y-134138815D01*
X197214494Y-134059463D01*
X197104180Y-134000498D01*
X196984482Y-133964188D01*
X196860000Y-133951928D01*
X196185000Y-133951928D01*
X196185000Y-126843177D01*
X196205808Y-126860254D01*
X196205808Y-126860254D01*
G37*
X196205808Y-126860254D02*
X196604741Y-127259187D01*
X196627762Y-127287238D01*
X196739680Y-127379087D01*
X196782037Y-127401727D01*
X196744742Y-127447171D01*
X196671916Y-127583418D01*
X196627071Y-127731255D01*
X196611928Y-127885000D01*
X196611928Y-128185000D01*
X196627071Y-128338745D01*
X196671916Y-128486582D01*
X196744742Y-128622829D01*
X196783454Y-128670000D01*
X196744742Y-128717171D01*
X196671916Y-128853418D01*
X196627071Y-129001255D01*
X196611928Y-129155000D01*
X196611928Y-129455000D01*
X196627071Y-129608745D01*
X196671916Y-129756582D01*
X196744742Y-129892829D01*
X196783454Y-129940000D01*
X196744742Y-129987171D01*
X196671916Y-130123418D01*
X196627071Y-130271255D01*
X196611928Y-130425000D01*
X196611928Y-130725000D01*
X196627071Y-130878745D01*
X196671916Y-131026582D01*
X196744742Y-131162829D01*
X196783454Y-131210000D01*
X196744742Y-131257171D01*
X196671916Y-131393418D01*
X196627071Y-131541255D01*
X196611928Y-131695000D01*
X196611928Y-131995000D01*
X196627071Y-132148745D01*
X196671916Y-132296582D01*
X196744742Y-132432829D01*
X196842749Y-132552251D01*
X196962171Y-132650258D01*
X197098418Y-132723084D01*
X197246255Y-132767929D01*
X197400000Y-132783072D01*
X199015000Y-132783072D01*
X199015000Y-132821897D01*
X198895208Y-132920208D01*
X198828142Y-133001928D01*
X197960000Y-133001928D01*
X197835518Y-133014188D01*
X197715820Y-133050498D01*
X197605506Y-133109463D01*
X197508815Y-133188815D01*
X197429463Y-133285506D01*
X197370498Y-133395820D01*
X197334188Y-133515518D01*
X197321928Y-133640000D01*
X197321928Y-134151905D01*
X197311185Y-134138815D01*
X197214494Y-134059463D01*
X197104180Y-134000498D01*
X196984482Y-133964188D01*
X196860000Y-133951928D01*
X196185000Y-133951928D01*
X196185000Y-126843177D01*
X196205808Y-126860254D01*
G36*
X227760554Y-126600000D02*
G01*
X225629701Y-126600000D01*
X225638072Y-126515000D01*
X225638072Y-125615000D01*
X225625812Y-125490518D01*
X225607454Y-125430000D01*
X225625812Y-125369482D01*
X225634132Y-125285000D01*
X229075553Y-125285000D01*
X227760554Y-126600000D01*
X227760554Y-126600000D01*
G37*
X227760554Y-126600000D02*
X225629701Y-126600000D01*
X225638072Y-126515000D01*
X225638072Y-125615000D01*
X225625812Y-125490518D01*
X225607454Y-125430000D01*
X225625812Y-125369482D01*
X225634132Y-125285000D01*
X229075553Y-125285000D01*
X227760554Y-126600000D01*
G36*
X200675498Y-121634180D02*
G01*
X200695001Y-121670666D01*
X200695000Y-121975868D01*
X200648388Y-122022480D01*
X200524176Y-122208376D01*
X200438617Y-122414933D01*
X200395000Y-122634212D01*
X200395000Y-122857788D01*
X200438617Y-123077067D01*
X200524176Y-123283624D01*
X200648388Y-123469520D01*
X200668868Y-123490000D01*
X199792287Y-123490000D01*
X199825812Y-123379482D01*
X199838072Y-123255000D01*
X199835000Y-123240750D01*
X199676250Y-123082000D01*
X198352000Y-123082000D01*
X198352000Y-123102000D01*
X198098000Y-123102000D01*
X198098000Y-123082000D01*
X198078000Y-123082000D01*
X198078000Y-122828000D01*
X198098000Y-122828000D01*
X198098000Y-122178750D01*
X198352000Y-122178750D01*
X198352000Y-122828000D01*
X199676250Y-122828000D01*
X199835000Y-122669250D01*
X199838072Y-122655000D01*
X199825812Y-122530518D01*
X199789502Y-122410820D01*
X199730537Y-122300506D01*
X199651185Y-122203815D01*
X199554494Y-122124463D01*
X199444180Y-122065498D01*
X199324482Y-122029188D01*
X199200000Y-122016928D01*
X198510750Y-122020000D01*
X198352000Y-122178750D01*
X198098000Y-122178750D01*
X198079348Y-122160098D01*
X198194197Y-122045250D01*
X198222237Y-122022238D01*
X198245250Y-121994197D01*
X198245253Y-121994194D01*
X198314087Y-121910320D01*
X198377809Y-121791105D01*
X198493709Y-121755947D01*
X198646164Y-121674458D01*
X198759501Y-121581445D01*
X198775498Y-121634180D01*
X198834463Y-121744494D01*
X198913815Y-121841185D01*
X199010506Y-121920537D01*
X199120820Y-121979502D01*
X199240518Y-122015812D01*
X199365000Y-122028072D01*
X200015000Y-122028072D01*
X200139482Y-122015812D01*
X200259180Y-121979502D01*
X200369494Y-121920537D01*
X200466185Y-121841185D01*
X200545537Y-121744494D01*
X200604502Y-121634180D01*
X200640000Y-121517159D01*
X200675498Y-121634180D01*
X200675498Y-121634180D01*
G37*
X200675498Y-121634180D02*
X200695001Y-121670666D01*
X200695000Y-121975868D01*
X200648388Y-122022480D01*
X200524176Y-122208376D01*
X200438617Y-122414933D01*
X200395000Y-122634212D01*
X200395000Y-122857788D01*
X200438617Y-123077067D01*
X200524176Y-123283624D01*
X200648388Y-123469520D01*
X200668868Y-123490000D01*
X199792287Y-123490000D01*
X199825812Y-123379482D01*
X199838072Y-123255000D01*
X199835000Y-123240750D01*
X199676250Y-123082000D01*
X198352000Y-123082000D01*
X198352000Y-123102000D01*
X198098000Y-123102000D01*
X198098000Y-123082000D01*
X198078000Y-123082000D01*
X198078000Y-122828000D01*
X198098000Y-122828000D01*
X198098000Y-122178750D01*
X198352000Y-122178750D01*
X198352000Y-122828000D01*
X199676250Y-122828000D01*
X199835000Y-122669250D01*
X199838072Y-122655000D01*
X199825812Y-122530518D01*
X199789502Y-122410820D01*
X199730537Y-122300506D01*
X199651185Y-122203815D01*
X199554494Y-122124463D01*
X199444180Y-122065498D01*
X199324482Y-122029188D01*
X199200000Y-122016928D01*
X198510750Y-122020000D01*
X198352000Y-122178750D01*
X198098000Y-122178750D01*
X198079348Y-122160098D01*
X198194197Y-122045250D01*
X198222237Y-122022238D01*
X198245250Y-121994197D01*
X198245253Y-121994194D01*
X198314087Y-121910320D01*
X198377809Y-121791105D01*
X198493709Y-121755947D01*
X198646164Y-121674458D01*
X198759501Y-121581445D01*
X198775498Y-121634180D01*
X198834463Y-121744494D01*
X198913815Y-121841185D01*
X199010506Y-121920537D01*
X199120820Y-121979502D01*
X199240518Y-122015812D01*
X199365000Y-122028072D01*
X200015000Y-122028072D01*
X200139482Y-122015812D01*
X200259180Y-121979502D01*
X200369494Y-121920537D01*
X200466185Y-121841185D01*
X200545537Y-121744494D01*
X200604502Y-121634180D01*
X200640000Y-121517159D01*
X200675498Y-121634180D01*
G36*
X196827000Y-105323000D02*
G01*
X196847000Y-105323000D01*
X196847000Y-105577000D01*
X196827000Y-105577000D01*
X196827000Y-107976250D01*
X196727000Y-108076250D01*
X196727000Y-109613000D01*
X196747000Y-109613000D01*
X196747000Y-109867000D01*
X196727000Y-109867000D01*
X196727000Y-111683000D01*
X196747000Y-111683000D01*
X196747000Y-111937000D01*
X196727000Y-111937000D01*
X196727000Y-113363000D01*
X196747000Y-113363000D01*
X196747000Y-113617000D01*
X196727000Y-113617000D01*
X196727000Y-115433000D01*
X196747000Y-115433000D01*
X196747000Y-115687000D01*
X196727000Y-115687000D01*
X196727000Y-117223750D01*
X196885750Y-117382500D01*
X197550000Y-117385572D01*
X197674482Y-117373312D01*
X197794180Y-117337002D01*
X197904494Y-117278037D01*
X198001185Y-117198685D01*
X198080537Y-117101994D01*
X198139502Y-116991680D01*
X198175812Y-116871982D01*
X198188072Y-116747500D01*
X198187184Y-116486717D01*
X198614250Y-116485000D01*
X198773000Y-116326250D01*
X198773000Y-115239500D01*
X199027000Y-115239500D01*
X199027000Y-116326250D01*
X199185750Y-116485000D01*
X199950000Y-116488072D01*
X200074482Y-116475812D01*
X200194180Y-116439502D01*
X200304494Y-116380537D01*
X200401185Y-116301185D01*
X200480537Y-116204494D01*
X200539502Y-116094180D01*
X200575812Y-115974482D01*
X200588072Y-115850000D01*
X200585000Y-115398250D01*
X200426250Y-115239500D01*
X199027000Y-115239500D01*
X198773000Y-115239500D01*
X198753000Y-115239500D01*
X198753000Y-114985500D01*
X198773000Y-114985500D01*
X198773000Y-114965500D01*
X199027000Y-114965500D01*
X199027000Y-114985500D01*
X200426250Y-114985500D01*
X200585000Y-114826750D01*
X200588072Y-114375000D01*
X200577895Y-114271666D01*
X200585000Y-114206750D01*
X200552753Y-114174503D01*
X200539502Y-114130820D01*
X200480537Y-114020506D01*
X200422674Y-113950000D01*
X200480537Y-113879494D01*
X200539502Y-113769180D01*
X200547625Y-113742402D01*
X200584746Y-113767205D01*
X200773104Y-113845226D01*
X200973063Y-113885000D01*
X201176941Y-113885000D01*
X201376900Y-113845226D01*
X201565258Y-113767205D01*
X201734776Y-113653937D01*
X201878939Y-113509774D01*
X201992207Y-113340256D01*
X202070228Y-113151898D01*
X202110002Y-112951939D01*
X202110002Y-112748061D01*
X202070228Y-112548102D01*
X201992207Y-112359744D01*
X201968992Y-112325000D01*
X201992207Y-112290256D01*
X202070228Y-112101898D01*
X202110002Y-111901939D01*
X202110002Y-111698061D01*
X202070228Y-111498102D01*
X201992207Y-111309744D01*
X201942265Y-111235000D01*
X202051939Y-111235000D01*
X202251898Y-111195226D01*
X202440256Y-111117205D01*
X202609774Y-111003937D01*
X202753937Y-110859774D01*
X202867205Y-110690256D01*
X202945226Y-110501898D01*
X202985000Y-110301939D01*
X202985000Y-110098061D01*
X202945226Y-109898102D01*
X202867205Y-109709744D01*
X202785000Y-109586715D01*
X202785000Y-108588072D01*
X204950000Y-108588072D01*
X205074482Y-108575812D01*
X205194180Y-108539502D01*
X205249454Y-108509957D01*
X205182785Y-108609734D01*
X205104764Y-108798092D01*
X205064990Y-108998051D01*
X205064990Y-109201929D01*
X205104764Y-109401888D01*
X205182785Y-109590246D01*
X205257896Y-109702658D01*
X205005808Y-109954746D01*
X204977762Y-109977763D01*
X204885913Y-110089681D01*
X204817663Y-110217368D01*
X204797865Y-110282633D01*
X204775635Y-110355915D01*
X204761444Y-110500000D01*
X204765000Y-110536105D01*
X204765001Y-117213885D01*
X204761444Y-117250000D01*
X204775635Y-117394085D01*
X204807765Y-117500000D01*
X204817664Y-117532633D01*
X204885914Y-117660320D01*
X204977763Y-117772238D01*
X205005808Y-117795254D01*
X205204741Y-117994187D01*
X205227762Y-118022238D01*
X205339680Y-118114087D01*
X205364402Y-118127301D01*
X205365000Y-118159250D01*
X205523750Y-118318000D01*
X206873000Y-118318000D01*
X206873000Y-118298000D01*
X207127000Y-118298000D01*
X207127000Y-118318000D01*
X207147000Y-118318000D01*
X207147000Y-118572000D01*
X207127000Y-118572000D01*
X207127000Y-118592000D01*
X206873000Y-118592000D01*
X206873000Y-118572000D01*
X205523750Y-118572000D01*
X205365000Y-118730750D01*
X205362209Y-118880000D01*
X204826018Y-118880000D01*
X204785000Y-118875960D01*
X204743981Y-118880000D01*
X204621311Y-118892082D01*
X204463913Y-118939828D01*
X204445818Y-118949500D01*
X203827000Y-118949500D01*
X203827000Y-118969500D01*
X203573000Y-118969500D01*
X203573000Y-118949500D01*
X203553000Y-118949500D01*
X203553000Y-118695500D01*
X203573000Y-118695500D01*
X203573000Y-117858750D01*
X203827000Y-117858750D01*
X203827000Y-118695500D01*
X204876250Y-118695500D01*
X205035000Y-118536750D01*
X205038072Y-118335000D01*
X205025812Y-118210518D01*
X204989502Y-118090820D01*
X204930537Y-117980506D01*
X204851185Y-117883815D01*
X204754494Y-117804463D01*
X204644180Y-117745498D01*
X204524482Y-117709188D01*
X204400000Y-117696928D01*
X203985750Y-117700000D01*
X203827000Y-117858750D01*
X203573000Y-117858750D01*
X203414250Y-117700000D01*
X203000000Y-117696928D01*
X202875518Y-117709188D01*
X202755820Y-117745498D01*
X202645506Y-117804463D01*
X202548815Y-117883815D01*
X202516017Y-117923780D01*
X202504502Y-117885820D01*
X202445537Y-117775506D01*
X202366185Y-117678815D01*
X202269494Y-117599463D01*
X202159180Y-117540498D01*
X202039482Y-117504188D01*
X201915000Y-117491928D01*
X201265000Y-117491928D01*
X201140518Y-117504188D01*
X201115000Y-117511929D01*
X201089482Y-117504188D01*
X200965000Y-117491928D01*
X200925750Y-117495000D01*
X200767000Y-117653750D01*
X200767000Y-117735859D01*
X200734463Y-117775506D01*
X200675498Y-117885820D01*
X200640000Y-118002841D01*
X200604502Y-117885820D01*
X200545537Y-117775506D01*
X200513000Y-117735859D01*
X200513000Y-117653750D01*
X200354250Y-117495000D01*
X200315000Y-117491928D01*
X200190518Y-117504188D01*
X200165000Y-117511929D01*
X200139482Y-117504188D01*
X200015000Y-117491928D01*
X199365000Y-117491928D01*
X199240518Y-117504188D01*
X199120820Y-117540498D01*
X199010506Y-117599463D01*
X198913815Y-117678815D01*
X198834463Y-117775506D01*
X198799321Y-117841251D01*
X198754494Y-117804463D01*
X198644180Y-117745498D01*
X198524482Y-117709188D01*
X198400000Y-117696928D01*
X197985750Y-117700000D01*
X197827000Y-117858750D01*
X197827000Y-118695500D01*
X197847000Y-118695500D01*
X197847000Y-118949500D01*
X197827000Y-118949500D01*
X197827000Y-118969500D01*
X197573000Y-118969500D01*
X197573000Y-118949500D01*
X196523750Y-118949500D01*
X196365000Y-119108250D01*
X196361928Y-119310000D01*
X196374188Y-119434482D01*
X196410498Y-119554180D01*
X196469463Y-119664494D01*
X196548815Y-119761185D01*
X196626564Y-119824992D01*
X196620208Y-119830208D01*
X196510542Y-119963836D01*
X196429053Y-120116291D01*
X196378872Y-120281715D01*
X196361928Y-120453750D01*
X196361928Y-120941250D01*
X196378872Y-121113285D01*
X196429053Y-121278709D01*
X196510542Y-121431164D01*
X196609189Y-121551365D01*
X196205808Y-121954746D01*
X196185000Y-121971823D01*
X196185000Y-118335000D01*
X196361928Y-118335000D01*
X196365000Y-118536750D01*
X196523750Y-118695500D01*
X197573000Y-118695500D01*
X197573000Y-117858750D01*
X197414250Y-117700000D01*
X197000000Y-117696928D01*
X196875518Y-117709188D01*
X196755820Y-117745498D01*
X196645506Y-117804463D01*
X196548815Y-117883815D01*
X196469463Y-117980506D01*
X196410498Y-118090820D01*
X196374188Y-118210518D01*
X196361928Y-118335000D01*
X196185000Y-118335000D01*
X196185000Y-117383098D01*
X196314250Y-117382500D01*
X196473000Y-117223750D01*
X196473000Y-115687000D01*
X196453000Y-115687000D01*
X196453000Y-115433000D01*
X196473000Y-115433000D01*
X196473000Y-113617000D01*
X196453000Y-113617000D01*
X196453000Y-113363000D01*
X196473000Y-113363000D01*
X196473000Y-111937000D01*
X196453000Y-111937000D01*
X196453000Y-111683000D01*
X196473000Y-111683000D01*
X196473000Y-109867000D01*
X196453000Y-109867000D01*
X196453000Y-109613000D01*
X196473000Y-109613000D01*
X196473000Y-108526250D01*
X196573000Y-108426250D01*
X196573000Y-105577000D01*
X196553000Y-105577000D01*
X196553000Y-105323000D01*
X196573000Y-105323000D01*
X196573000Y-105303000D01*
X196827000Y-105303000D01*
X196827000Y-105323000D01*
X196827000Y-105323000D01*
G37*
X196827000Y-105323000D02*
X196847000Y-105323000D01*
X196847000Y-105577000D01*
X196827000Y-105577000D01*
X196827000Y-107976250D01*
X196727000Y-108076250D01*
X196727000Y-109613000D01*
X196747000Y-109613000D01*
X196747000Y-109867000D01*
X196727000Y-109867000D01*
X196727000Y-111683000D01*
X196747000Y-111683000D01*
X196747000Y-111937000D01*
X196727000Y-111937000D01*
X196727000Y-113363000D01*
X196747000Y-113363000D01*
X196747000Y-113617000D01*
X196727000Y-113617000D01*
X196727000Y-115433000D01*
X196747000Y-115433000D01*
X196747000Y-115687000D01*
X196727000Y-115687000D01*
X196727000Y-117223750D01*
X196885750Y-117382500D01*
X197550000Y-117385572D01*
X197674482Y-117373312D01*
X197794180Y-117337002D01*
X197904494Y-117278037D01*
X198001185Y-117198685D01*
X198080537Y-117101994D01*
X198139502Y-116991680D01*
X198175812Y-116871982D01*
X198188072Y-116747500D01*
X198187184Y-116486717D01*
X198614250Y-116485000D01*
X198773000Y-116326250D01*
X198773000Y-115239500D01*
X199027000Y-115239500D01*
X199027000Y-116326250D01*
X199185750Y-116485000D01*
X199950000Y-116488072D01*
X200074482Y-116475812D01*
X200194180Y-116439502D01*
X200304494Y-116380537D01*
X200401185Y-116301185D01*
X200480537Y-116204494D01*
X200539502Y-116094180D01*
X200575812Y-115974482D01*
X200588072Y-115850000D01*
X200585000Y-115398250D01*
X200426250Y-115239500D01*
X199027000Y-115239500D01*
X198773000Y-115239500D01*
X198753000Y-115239500D01*
X198753000Y-114985500D01*
X198773000Y-114985500D01*
X198773000Y-114965500D01*
X199027000Y-114965500D01*
X199027000Y-114985500D01*
X200426250Y-114985500D01*
X200585000Y-114826750D01*
X200588072Y-114375000D01*
X200577895Y-114271666D01*
X200585000Y-114206750D01*
X200552753Y-114174503D01*
X200539502Y-114130820D01*
X200480537Y-114020506D01*
X200422674Y-113950000D01*
X200480537Y-113879494D01*
X200539502Y-113769180D01*
X200547625Y-113742402D01*
X200584746Y-113767205D01*
X200773104Y-113845226D01*
X200973063Y-113885000D01*
X201176941Y-113885000D01*
X201376900Y-113845226D01*
X201565258Y-113767205D01*
X201734776Y-113653937D01*
X201878939Y-113509774D01*
X201992207Y-113340256D01*
X202070228Y-113151898D01*
X202110002Y-112951939D01*
X202110002Y-112748061D01*
X202070228Y-112548102D01*
X201992207Y-112359744D01*
X201968992Y-112325000D01*
X201992207Y-112290256D01*
X202070228Y-112101898D01*
X202110002Y-111901939D01*
X202110002Y-111698061D01*
X202070228Y-111498102D01*
X201992207Y-111309744D01*
X201942265Y-111235000D01*
X202051939Y-111235000D01*
X202251898Y-111195226D01*
X202440256Y-111117205D01*
X202609774Y-111003937D01*
X202753937Y-110859774D01*
X202867205Y-110690256D01*
X202945226Y-110501898D01*
X202985000Y-110301939D01*
X202985000Y-110098061D01*
X202945226Y-109898102D01*
X202867205Y-109709744D01*
X202785000Y-109586715D01*
X202785000Y-108588072D01*
X204950000Y-108588072D01*
X205074482Y-108575812D01*
X205194180Y-108539502D01*
X205249454Y-108509957D01*
X205182785Y-108609734D01*
X205104764Y-108798092D01*
X205064990Y-108998051D01*
X205064990Y-109201929D01*
X205104764Y-109401888D01*
X205182785Y-109590246D01*
X205257896Y-109702658D01*
X205005808Y-109954746D01*
X204977762Y-109977763D01*
X204885913Y-110089681D01*
X204817663Y-110217368D01*
X204797865Y-110282633D01*
X204775635Y-110355915D01*
X204761444Y-110500000D01*
X204765000Y-110536105D01*
X204765001Y-117213885D01*
X204761444Y-117250000D01*
X204775635Y-117394085D01*
X204807765Y-117500000D01*
X204817664Y-117532633D01*
X204885914Y-117660320D01*
X204977763Y-117772238D01*
X205005808Y-117795254D01*
X205204741Y-117994187D01*
X205227762Y-118022238D01*
X205339680Y-118114087D01*
X205364402Y-118127301D01*
X205365000Y-118159250D01*
X205523750Y-118318000D01*
X206873000Y-118318000D01*
X206873000Y-118298000D01*
X207127000Y-118298000D01*
X207127000Y-118318000D01*
X207147000Y-118318000D01*
X207147000Y-118572000D01*
X207127000Y-118572000D01*
X207127000Y-118592000D01*
X206873000Y-118592000D01*
X206873000Y-118572000D01*
X205523750Y-118572000D01*
X205365000Y-118730750D01*
X205362209Y-118880000D01*
X204826018Y-118880000D01*
X204785000Y-118875960D01*
X204743981Y-118880000D01*
X204621311Y-118892082D01*
X204463913Y-118939828D01*
X204445818Y-118949500D01*
X203827000Y-118949500D01*
X203827000Y-118969500D01*
X203573000Y-118969500D01*
X203573000Y-118949500D01*
X203553000Y-118949500D01*
X203553000Y-118695500D01*
X203573000Y-118695500D01*
X203573000Y-117858750D01*
X203827000Y-117858750D01*
X203827000Y-118695500D01*
X204876250Y-118695500D01*
X205035000Y-118536750D01*
X205038072Y-118335000D01*
X205025812Y-118210518D01*
X204989502Y-118090820D01*
X204930537Y-117980506D01*
X204851185Y-117883815D01*
X204754494Y-117804463D01*
X204644180Y-117745498D01*
X204524482Y-117709188D01*
X204400000Y-117696928D01*
X203985750Y-117700000D01*
X203827000Y-117858750D01*
X203573000Y-117858750D01*
X203414250Y-117700000D01*
X203000000Y-117696928D01*
X202875518Y-117709188D01*
X202755820Y-117745498D01*
X202645506Y-117804463D01*
X202548815Y-117883815D01*
X202516017Y-117923780D01*
X202504502Y-117885820D01*
X202445537Y-117775506D01*
X202366185Y-117678815D01*
X202269494Y-117599463D01*
X202159180Y-117540498D01*
X202039482Y-117504188D01*
X201915000Y-117491928D01*
X201265000Y-117491928D01*
X201140518Y-117504188D01*
X201115000Y-117511929D01*
X201089482Y-117504188D01*
X200965000Y-117491928D01*
X200925750Y-117495000D01*
X200767000Y-117653750D01*
X200767000Y-117735859D01*
X200734463Y-117775506D01*
X200675498Y-117885820D01*
X200640000Y-118002841D01*
X200604502Y-117885820D01*
X200545537Y-117775506D01*
X200513000Y-117735859D01*
X200513000Y-117653750D01*
X200354250Y-117495000D01*
X200315000Y-117491928D01*
X200190518Y-117504188D01*
X200165000Y-117511929D01*
X200139482Y-117504188D01*
X200015000Y-117491928D01*
X199365000Y-117491928D01*
X199240518Y-117504188D01*
X199120820Y-117540498D01*
X199010506Y-117599463D01*
X198913815Y-117678815D01*
X198834463Y-117775506D01*
X198799321Y-117841251D01*
X198754494Y-117804463D01*
X198644180Y-117745498D01*
X198524482Y-117709188D01*
X198400000Y-117696928D01*
X197985750Y-117700000D01*
X197827000Y-117858750D01*
X197827000Y-118695500D01*
X197847000Y-118695500D01*
X197847000Y-118949500D01*
X197827000Y-118949500D01*
X197827000Y-118969500D01*
X197573000Y-118969500D01*
X197573000Y-118949500D01*
X196523750Y-118949500D01*
X196365000Y-119108250D01*
X196361928Y-119310000D01*
X196374188Y-119434482D01*
X196410498Y-119554180D01*
X196469463Y-119664494D01*
X196548815Y-119761185D01*
X196626564Y-119824992D01*
X196620208Y-119830208D01*
X196510542Y-119963836D01*
X196429053Y-120116291D01*
X196378872Y-120281715D01*
X196361928Y-120453750D01*
X196361928Y-120941250D01*
X196378872Y-121113285D01*
X196429053Y-121278709D01*
X196510542Y-121431164D01*
X196609189Y-121551365D01*
X196205808Y-121954746D01*
X196185000Y-121971823D01*
X196185000Y-118335000D01*
X196361928Y-118335000D01*
X196365000Y-118536750D01*
X196523750Y-118695500D01*
X197573000Y-118695500D01*
X197573000Y-117858750D01*
X197414250Y-117700000D01*
X197000000Y-117696928D01*
X196875518Y-117709188D01*
X196755820Y-117745498D01*
X196645506Y-117804463D01*
X196548815Y-117883815D01*
X196469463Y-117980506D01*
X196410498Y-118090820D01*
X196374188Y-118210518D01*
X196361928Y-118335000D01*
X196185000Y-118335000D01*
X196185000Y-117383098D01*
X196314250Y-117382500D01*
X196473000Y-117223750D01*
X196473000Y-115687000D01*
X196453000Y-115687000D01*
X196453000Y-115433000D01*
X196473000Y-115433000D01*
X196473000Y-113617000D01*
X196453000Y-113617000D01*
X196453000Y-113363000D01*
X196473000Y-113363000D01*
X196473000Y-111937000D01*
X196453000Y-111937000D01*
X196453000Y-111683000D01*
X196473000Y-111683000D01*
X196473000Y-109867000D01*
X196453000Y-109867000D01*
X196453000Y-109613000D01*
X196473000Y-109613000D01*
X196473000Y-108526250D01*
X196573000Y-108426250D01*
X196573000Y-105577000D01*
X196553000Y-105577000D01*
X196553000Y-105323000D01*
X196573000Y-105323000D01*
X196573000Y-105303000D01*
X196827000Y-105303000D01*
X196827000Y-105323000D01*
G36*
X200675498Y-119434180D02*
G01*
X200734463Y-119544494D01*
X200767000Y-119584141D01*
X200767000Y-119666250D01*
X200904853Y-119804103D01*
X200813815Y-119878815D01*
X200734463Y-119975506D01*
X200675498Y-120085820D01*
X200640000Y-120202841D01*
X200604502Y-120085820D01*
X200545537Y-119975506D01*
X200466185Y-119878815D01*
X200375147Y-119804103D01*
X200513000Y-119666250D01*
X200513000Y-119584141D01*
X200545537Y-119544494D01*
X200604502Y-119434180D01*
X200640000Y-119317159D01*
X200675498Y-119434180D01*
X200675498Y-119434180D01*
G37*
X200675498Y-119434180D02*
X200734463Y-119544494D01*
X200767000Y-119584141D01*
X200767000Y-119666250D01*
X200904853Y-119804103D01*
X200813815Y-119878815D01*
X200734463Y-119975506D01*
X200675498Y-120085820D01*
X200640000Y-120202841D01*
X200604502Y-120085820D01*
X200545537Y-119975506D01*
X200466185Y-119878815D01*
X200375147Y-119804103D01*
X200513000Y-119666250D01*
X200513000Y-119584141D01*
X200545537Y-119544494D01*
X200604502Y-119434180D01*
X200640000Y-119317159D01*
X200675498Y-119434180D01*
G36*
X224127000Y-118318000D02*
G01*
X224147000Y-118318000D01*
X224147000Y-118572000D01*
X224127000Y-118572000D01*
X224127000Y-118592000D01*
X223873000Y-118592000D01*
X223873000Y-118572000D01*
X223853000Y-118572000D01*
X223853000Y-118318000D01*
X223873000Y-118318000D01*
X223873000Y-118298000D01*
X224127000Y-118298000D01*
X224127000Y-118318000D01*
X224127000Y-118318000D01*
G37*
X224127000Y-118318000D02*
X224147000Y-118318000D01*
X224147000Y-118572000D01*
X224127000Y-118572000D01*
X224127000Y-118592000D01*
X223873000Y-118592000D01*
X223873000Y-118572000D01*
X223853000Y-118572000D01*
X223853000Y-118318000D01*
X223873000Y-118318000D01*
X223873000Y-118298000D01*
X224127000Y-118298000D01*
X224127000Y-118318000D01*
G36*
X228911928Y-107950000D02*
G01*
X228924188Y-108074482D01*
X228960498Y-108194180D01*
X229019463Y-108304494D01*
X229098815Y-108401185D01*
X229195506Y-108480537D01*
X229305820Y-108539502D01*
X229425518Y-108575812D01*
X229550000Y-108588072D01*
X232050000Y-108588072D01*
X232119274Y-108581249D01*
X232055820Y-108600498D01*
X231945506Y-108659463D01*
X231848815Y-108738815D01*
X231769463Y-108835506D01*
X231710498Y-108945820D01*
X231674188Y-109065518D01*
X231661928Y-109190000D01*
X231661928Y-110740000D01*
X231674188Y-110864482D01*
X231710498Y-110984180D01*
X231769463Y-111094494D01*
X231848815Y-111191185D01*
X231945506Y-111270537D01*
X232055820Y-111329502D01*
X232065001Y-111332287D01*
X232065000Y-113847713D01*
X232055820Y-113850498D01*
X231945506Y-113909463D01*
X231848815Y-113988815D01*
X231769463Y-114085506D01*
X231710498Y-114195820D01*
X231674188Y-114315518D01*
X231661928Y-114440000D01*
X231661928Y-114480000D01*
X231469447Y-114480000D01*
X231296826Y-114307379D01*
X231370947Y-114168709D01*
X231421128Y-114003285D01*
X231438072Y-113831250D01*
X231438072Y-113343750D01*
X231421128Y-113171715D01*
X231370947Y-113006291D01*
X231289458Y-112853836D01*
X231179792Y-112720208D01*
X231094244Y-112650000D01*
X231179792Y-112579792D01*
X231289458Y-112446164D01*
X231370947Y-112293709D01*
X231421128Y-112128285D01*
X231438072Y-111956250D01*
X231438072Y-111468750D01*
X231421128Y-111296715D01*
X231370947Y-111131291D01*
X231289458Y-110978836D01*
X231179792Y-110845208D01*
X231046164Y-110735542D01*
X230893709Y-110654053D01*
X230728285Y-110603872D01*
X230556250Y-110586928D01*
X230322028Y-110586928D01*
X230211788Y-110565000D01*
X229988212Y-110565000D01*
X229877972Y-110586928D01*
X229643750Y-110586928D01*
X229471715Y-110603872D01*
X229306291Y-110654053D01*
X229153836Y-110735542D01*
X229020208Y-110845208D01*
X228910542Y-110978836D01*
X228829053Y-111131291D01*
X228778872Y-111296715D01*
X228761928Y-111468750D01*
X228761928Y-111956250D01*
X228778872Y-112128285D01*
X228829053Y-112293709D01*
X228910542Y-112446164D01*
X229020208Y-112579792D01*
X229105756Y-112650000D01*
X229020208Y-112720208D01*
X228910542Y-112853836D01*
X228829053Y-113006291D01*
X228778872Y-113171715D01*
X228761928Y-113343750D01*
X228761928Y-113831250D01*
X228778872Y-114003285D01*
X228829053Y-114168709D01*
X228910542Y-114321164D01*
X229020208Y-114454792D01*
X229153836Y-114564458D01*
X229306291Y-114645947D01*
X229365000Y-114663756D01*
X229365000Y-115337066D01*
X228295491Y-116406576D01*
X228197998Y-116406576D01*
X227998039Y-116446350D01*
X227809681Y-116524371D01*
X227675256Y-116614191D01*
X228294197Y-115995250D01*
X228322237Y-115972238D01*
X228345250Y-115944197D01*
X228345253Y-115944194D01*
X228414086Y-115860321D01*
X228414087Y-115860320D01*
X228482337Y-115732633D01*
X228524365Y-115594085D01*
X228535000Y-115486105D01*
X228535000Y-115486098D01*
X228538555Y-115450001D01*
X228535000Y-115413904D01*
X228535000Y-107542287D01*
X228544180Y-107539502D01*
X228654494Y-107480537D01*
X228751185Y-107401185D01*
X228830537Y-107304494D01*
X228889502Y-107194180D01*
X228911928Y-107120251D01*
X228911928Y-107950000D01*
X228911928Y-107950000D01*
G37*
X228911928Y-107950000D02*
X228924188Y-108074482D01*
X228960498Y-108194180D01*
X229019463Y-108304494D01*
X229098815Y-108401185D01*
X229195506Y-108480537D01*
X229305820Y-108539502D01*
X229425518Y-108575812D01*
X229550000Y-108588072D01*
X232050000Y-108588072D01*
X232119274Y-108581249D01*
X232055820Y-108600498D01*
X231945506Y-108659463D01*
X231848815Y-108738815D01*
X231769463Y-108835506D01*
X231710498Y-108945820D01*
X231674188Y-109065518D01*
X231661928Y-109190000D01*
X231661928Y-110740000D01*
X231674188Y-110864482D01*
X231710498Y-110984180D01*
X231769463Y-111094494D01*
X231848815Y-111191185D01*
X231945506Y-111270537D01*
X232055820Y-111329502D01*
X232065001Y-111332287D01*
X232065000Y-113847713D01*
X232055820Y-113850498D01*
X231945506Y-113909463D01*
X231848815Y-113988815D01*
X231769463Y-114085506D01*
X231710498Y-114195820D01*
X231674188Y-114315518D01*
X231661928Y-114440000D01*
X231661928Y-114480000D01*
X231469447Y-114480000D01*
X231296826Y-114307379D01*
X231370947Y-114168709D01*
X231421128Y-114003285D01*
X231438072Y-113831250D01*
X231438072Y-113343750D01*
X231421128Y-113171715D01*
X231370947Y-113006291D01*
X231289458Y-112853836D01*
X231179792Y-112720208D01*
X231094244Y-112650000D01*
X231179792Y-112579792D01*
X231289458Y-112446164D01*
X231370947Y-112293709D01*
X231421128Y-112128285D01*
X231438072Y-111956250D01*
X231438072Y-111468750D01*
X231421128Y-111296715D01*
X231370947Y-111131291D01*
X231289458Y-110978836D01*
X231179792Y-110845208D01*
X231046164Y-110735542D01*
X230893709Y-110654053D01*
X230728285Y-110603872D01*
X230556250Y-110586928D01*
X230322028Y-110586928D01*
X230211788Y-110565000D01*
X229988212Y-110565000D01*
X229877972Y-110586928D01*
X229643750Y-110586928D01*
X229471715Y-110603872D01*
X229306291Y-110654053D01*
X229153836Y-110735542D01*
X229020208Y-110845208D01*
X228910542Y-110978836D01*
X228829053Y-111131291D01*
X228778872Y-111296715D01*
X228761928Y-111468750D01*
X228761928Y-111956250D01*
X228778872Y-112128285D01*
X228829053Y-112293709D01*
X228910542Y-112446164D01*
X229020208Y-112579792D01*
X229105756Y-112650000D01*
X229020208Y-112720208D01*
X228910542Y-112853836D01*
X228829053Y-113006291D01*
X228778872Y-113171715D01*
X228761928Y-113343750D01*
X228761928Y-113831250D01*
X228778872Y-114003285D01*
X228829053Y-114168709D01*
X228910542Y-114321164D01*
X229020208Y-114454792D01*
X229153836Y-114564458D01*
X229306291Y-114645947D01*
X229365000Y-114663756D01*
X229365000Y-115337066D01*
X228295491Y-116406576D01*
X228197998Y-116406576D01*
X227998039Y-116446350D01*
X227809681Y-116524371D01*
X227675256Y-116614191D01*
X228294197Y-115995250D01*
X228322237Y-115972238D01*
X228345250Y-115944197D01*
X228345253Y-115944194D01*
X228414086Y-115860321D01*
X228414087Y-115860320D01*
X228482337Y-115732633D01*
X228524365Y-115594085D01*
X228535000Y-115486105D01*
X228535000Y-115486098D01*
X228538555Y-115450001D01*
X228535000Y-115413904D01*
X228535000Y-107542287D01*
X228544180Y-107539502D01*
X228654494Y-107480537D01*
X228751185Y-107401185D01*
X228830537Y-107304494D01*
X228889502Y-107194180D01*
X228911928Y-107120251D01*
X228911928Y-107950000D01*
G36*
X226661928Y-106950000D02*
G01*
X226674188Y-107074482D01*
X226710498Y-107194180D01*
X226769463Y-107304494D01*
X226848815Y-107401185D01*
X226945506Y-107480537D01*
X227055820Y-107539502D01*
X227065001Y-107542287D01*
X227065000Y-115145553D01*
X226035021Y-116175533D01*
X226035021Y-110546146D01*
X226038577Y-110510041D01*
X226024386Y-110365956D01*
X226020791Y-110354105D01*
X225982358Y-110227408D01*
X225914108Y-110099721D01*
X225822258Y-109987803D01*
X225794213Y-109964787D01*
X225735000Y-109905574D01*
X225735000Y-107714446D01*
X225754187Y-107695259D01*
X225782238Y-107672238D01*
X225859341Y-107578288D01*
X225884482Y-107575812D01*
X226004180Y-107539502D01*
X226114494Y-107480537D01*
X226211185Y-107401185D01*
X226290537Y-107304494D01*
X226349502Y-107194180D01*
X226385812Y-107074482D01*
X226398072Y-106950000D01*
X226398072Y-103685000D01*
X226661928Y-103685000D01*
X226661928Y-106950000D01*
X226661928Y-106950000D01*
G37*
X226661928Y-106950000D02*
X226674188Y-107074482D01*
X226710498Y-107194180D01*
X226769463Y-107304494D01*
X226848815Y-107401185D01*
X226945506Y-107480537D01*
X227055820Y-107539502D01*
X227065001Y-107542287D01*
X227065000Y-115145553D01*
X226035021Y-116175533D01*
X226035021Y-110546146D01*
X226038577Y-110510041D01*
X226024386Y-110365956D01*
X226020791Y-110354105D01*
X225982358Y-110227408D01*
X225914108Y-110099721D01*
X225822258Y-109987803D01*
X225794213Y-109964787D01*
X225735000Y-109905574D01*
X225735000Y-107714446D01*
X225754187Y-107695259D01*
X225782238Y-107672238D01*
X225859341Y-107578288D01*
X225884482Y-107575812D01*
X226004180Y-107539502D01*
X226114494Y-107480537D01*
X226211185Y-107401185D01*
X226290537Y-107304494D01*
X226349502Y-107194180D01*
X226385812Y-107074482D01*
X226398072Y-106950000D01*
X226398072Y-103685000D01*
X226661928Y-103685000D01*
X226661928Y-106950000D01*
G36*
X217923928Y-106874776D02*
G01*
X217931155Y-106898601D01*
X217942891Y-106920557D01*
X217958685Y-106939803D01*
X217977931Y-106955597D01*
X217999887Y-106967333D01*
X218023712Y-106974560D01*
X218048488Y-106977000D01*
X221584587Y-106977000D01*
X221594188Y-107074482D01*
X221630498Y-107194180D01*
X221689463Y-107304494D01*
X221768815Y-107401185D01*
X221865506Y-107480537D01*
X221975820Y-107539502D01*
X221985001Y-107542287D01*
X221985001Y-108459605D01*
X221981444Y-108495720D01*
X221995635Y-108639805D01*
X222025670Y-108738815D01*
X222037664Y-108778353D01*
X222105914Y-108906040D01*
X222197763Y-109017958D01*
X222225808Y-109040974D01*
X223857833Y-110673000D01*
X213766446Y-110673000D01*
X217378574Y-107060873D01*
X217528285Y-107046128D01*
X217693709Y-106995947D01*
X217846164Y-106914458D01*
X217921729Y-106852444D01*
X217923928Y-106874776D01*
X217923928Y-106874776D01*
G37*
X217923928Y-106874776D02*
X217931155Y-106898601D01*
X217942891Y-106920557D01*
X217958685Y-106939803D01*
X217977931Y-106955597D01*
X217999887Y-106967333D01*
X218023712Y-106974560D01*
X218048488Y-106977000D01*
X221584587Y-106977000D01*
X221594188Y-107074482D01*
X221630498Y-107194180D01*
X221689463Y-107304494D01*
X221768815Y-107401185D01*
X221865506Y-107480537D01*
X221975820Y-107539502D01*
X221985001Y-107542287D01*
X221985001Y-108459605D01*
X221981444Y-108495720D01*
X221995635Y-108639805D01*
X222025670Y-108738815D01*
X222037664Y-108778353D01*
X222105914Y-108906040D01*
X222197763Y-109017958D01*
X222225808Y-109040974D01*
X223857833Y-110673000D01*
X213766446Y-110673000D01*
X217378574Y-107060873D01*
X217528285Y-107046128D01*
X217693709Y-106995947D01*
X217846164Y-106914458D01*
X217921729Y-106852444D01*
X217923928Y-106874776D01*
G36*
X198498815Y-108401185D02*
G01*
X198595506Y-108480537D01*
X198705820Y-108539502D01*
X198825518Y-108575812D01*
X198950000Y-108588072D01*
X201115001Y-108588072D01*
X201115001Y-109409123D01*
X201063228Y-109424828D01*
X200918169Y-109502364D01*
X200854422Y-109554680D01*
X200791024Y-109606709D01*
X200764878Y-109638568D01*
X200585570Y-109817876D01*
X200588072Y-109450000D01*
X200575812Y-109325518D01*
X200539502Y-109205820D01*
X200480537Y-109095506D01*
X200401185Y-108998815D01*
X200304494Y-108919463D01*
X200194180Y-108860498D01*
X200074482Y-108824188D01*
X199950000Y-108811928D01*
X199185750Y-108815000D01*
X199027000Y-108973750D01*
X199027000Y-110060500D01*
X199047000Y-110060500D01*
X199047000Y-110314500D01*
X199027000Y-110314500D01*
X199027000Y-110334500D01*
X198773000Y-110334500D01*
X198773000Y-110314500D01*
X198753000Y-110314500D01*
X198753000Y-110060500D01*
X198773000Y-110060500D01*
X198773000Y-108973750D01*
X198614250Y-108815000D01*
X198187184Y-108813283D01*
X198188072Y-108552500D01*
X198187006Y-108541678D01*
X198194180Y-108539502D01*
X198304494Y-108480537D01*
X198401185Y-108401185D01*
X198450000Y-108341704D01*
X198498815Y-108401185D01*
X198498815Y-108401185D01*
G37*
X198498815Y-108401185D02*
X198595506Y-108480537D01*
X198705820Y-108539502D01*
X198825518Y-108575812D01*
X198950000Y-108588072D01*
X201115001Y-108588072D01*
X201115001Y-109409123D01*
X201063228Y-109424828D01*
X200918169Y-109502364D01*
X200854422Y-109554680D01*
X200791024Y-109606709D01*
X200764878Y-109638568D01*
X200585570Y-109817876D01*
X200588072Y-109450000D01*
X200575812Y-109325518D01*
X200539502Y-109205820D01*
X200480537Y-109095506D01*
X200401185Y-108998815D01*
X200304494Y-108919463D01*
X200194180Y-108860498D01*
X200074482Y-108824188D01*
X199950000Y-108811928D01*
X199185750Y-108815000D01*
X199027000Y-108973750D01*
X199027000Y-110060500D01*
X199047000Y-110060500D01*
X199047000Y-110314500D01*
X199027000Y-110314500D01*
X199027000Y-110334500D01*
X198773000Y-110334500D01*
X198773000Y-110314500D01*
X198753000Y-110314500D01*
X198753000Y-110060500D01*
X198773000Y-110060500D01*
X198773000Y-108973750D01*
X198614250Y-108815000D01*
X198187184Y-108813283D01*
X198188072Y-108552500D01*
X198187006Y-108541678D01*
X198194180Y-108539502D01*
X198304494Y-108480537D01*
X198401185Y-108401185D01*
X198450000Y-108341704D01*
X198498815Y-108401185D01*
G36*
X215561928Y-103818750D02*
G01*
X215561928Y-104306250D01*
X215578872Y-104478285D01*
X215629053Y-104643709D01*
X215710542Y-104796164D01*
X215820208Y-104929792D01*
X215905756Y-105000000D01*
X215820208Y-105070208D01*
X215710542Y-105203836D01*
X215629053Y-105356291D01*
X215578872Y-105521715D01*
X215561928Y-105693750D01*
X215561928Y-106181250D01*
X215578872Y-106353285D01*
X215629053Y-106518709D01*
X215703174Y-106657379D01*
X212595554Y-109765000D01*
X211874446Y-109765000D01*
X214578574Y-107060873D01*
X214728285Y-107046128D01*
X214893709Y-106995947D01*
X215046164Y-106914458D01*
X215179792Y-106804792D01*
X215289458Y-106671164D01*
X215370947Y-106518709D01*
X215421128Y-106353285D01*
X215438072Y-106181250D01*
X215438072Y-105693750D01*
X215421128Y-105521715D01*
X215370947Y-105356291D01*
X215289458Y-105203836D01*
X215179792Y-105070208D01*
X215094244Y-105000000D01*
X215179792Y-104929792D01*
X215289458Y-104796164D01*
X215370947Y-104643709D01*
X215421128Y-104478285D01*
X215438072Y-104306250D01*
X215438072Y-103818750D01*
X215424899Y-103685000D01*
X215575101Y-103685000D01*
X215561928Y-103818750D01*
X215561928Y-103818750D01*
G37*
X215561928Y-103818750D02*
X215561928Y-104306250D01*
X215578872Y-104478285D01*
X215629053Y-104643709D01*
X215710542Y-104796164D01*
X215820208Y-104929792D01*
X215905756Y-105000000D01*
X215820208Y-105070208D01*
X215710542Y-105203836D01*
X215629053Y-105356291D01*
X215578872Y-105521715D01*
X215561928Y-105693750D01*
X215561928Y-106181250D01*
X215578872Y-106353285D01*
X215629053Y-106518709D01*
X215703174Y-106657379D01*
X212595554Y-109765000D01*
X211874446Y-109765000D01*
X214578574Y-107060873D01*
X214728285Y-107046128D01*
X214893709Y-106995947D01*
X215046164Y-106914458D01*
X215179792Y-106804792D01*
X215289458Y-106671164D01*
X215370947Y-106518709D01*
X215421128Y-106353285D01*
X215438072Y-106181250D01*
X215438072Y-105693750D01*
X215421128Y-105521715D01*
X215370947Y-105356291D01*
X215289458Y-105203836D01*
X215179792Y-105070208D01*
X215094244Y-105000000D01*
X215179792Y-104929792D01*
X215289458Y-104796164D01*
X215370947Y-104643709D01*
X215421128Y-104478285D01*
X215438072Y-104306250D01*
X215438072Y-103818750D01*
X215424899Y-103685000D01*
X215575101Y-103685000D01*
X215561928Y-103818750D01*
G36*
X208836928Y-103700000D02*
G01*
X208840000Y-104114250D01*
X208998750Y-104273000D01*
X209923000Y-104273000D01*
X209923000Y-104253000D01*
X210177000Y-104253000D01*
X210177000Y-104273000D01*
X210197000Y-104273000D01*
X210197000Y-104527000D01*
X210177000Y-104527000D01*
X210177000Y-104547000D01*
X209923000Y-104547000D01*
X209923000Y-104527000D01*
X208998750Y-104527000D01*
X208840000Y-104685750D01*
X208836928Y-105100000D01*
X208849188Y-105224482D01*
X208885498Y-105344180D01*
X208944463Y-105454494D01*
X209023815Y-105551185D01*
X209073000Y-105591550D01*
X209073000Y-106850000D01*
X209075440Y-106874776D01*
X209082667Y-106898601D01*
X209094403Y-106920557D01*
X209110197Y-106939803D01*
X209129443Y-106955597D01*
X209151399Y-106967333D01*
X209175224Y-106974560D01*
X209200000Y-106977000D01*
X212583553Y-106977000D01*
X210295554Y-109265000D01*
X207122444Y-109265000D01*
X207134990Y-109201929D01*
X207134990Y-108998051D01*
X207095216Y-108798092D01*
X207017195Y-108609734D01*
X206982155Y-108557292D01*
X207194197Y-108345250D01*
X207222237Y-108322238D01*
X207245250Y-108294197D01*
X207245253Y-108294194D01*
X207314086Y-108210321D01*
X207314087Y-108210320D01*
X207382337Y-108082633D01*
X207424365Y-107944085D01*
X207435000Y-107836105D01*
X207435000Y-107836096D01*
X207438555Y-107800001D01*
X207435000Y-107763906D01*
X207435000Y-107542287D01*
X207444180Y-107539502D01*
X207554494Y-107480537D01*
X207651185Y-107401185D01*
X207730537Y-107304494D01*
X207789502Y-107194180D01*
X207825812Y-107074482D01*
X207838072Y-106950000D01*
X207838072Y-103685000D01*
X208838405Y-103685000D01*
X208836928Y-103700000D01*
X208836928Y-103700000D01*
G37*
X208836928Y-103700000D02*
X208840000Y-104114250D01*
X208998750Y-104273000D01*
X209923000Y-104273000D01*
X209923000Y-104253000D01*
X210177000Y-104253000D01*
X210177000Y-104273000D01*
X210197000Y-104273000D01*
X210197000Y-104527000D01*
X210177000Y-104527000D01*
X210177000Y-104547000D01*
X209923000Y-104547000D01*
X209923000Y-104527000D01*
X208998750Y-104527000D01*
X208840000Y-104685750D01*
X208836928Y-105100000D01*
X208849188Y-105224482D01*
X208885498Y-105344180D01*
X208944463Y-105454494D01*
X209023815Y-105551185D01*
X209073000Y-105591550D01*
X209073000Y-106850000D01*
X209075440Y-106874776D01*
X209082667Y-106898601D01*
X209094403Y-106920557D01*
X209110197Y-106939803D01*
X209129443Y-106955597D01*
X209151399Y-106967333D01*
X209175224Y-106974560D01*
X209200000Y-106977000D01*
X212583553Y-106977000D01*
X210295554Y-109265000D01*
X207122444Y-109265000D01*
X207134990Y-109201929D01*
X207134990Y-108998051D01*
X207095216Y-108798092D01*
X207017195Y-108609734D01*
X206982155Y-108557292D01*
X207194197Y-108345250D01*
X207222237Y-108322238D01*
X207245250Y-108294197D01*
X207245253Y-108294194D01*
X207314086Y-108210321D01*
X207314087Y-108210320D01*
X207382337Y-108082633D01*
X207424365Y-107944085D01*
X207435000Y-107836105D01*
X207435000Y-107836096D01*
X207438555Y-107800001D01*
X207435000Y-107763906D01*
X207435000Y-107542287D01*
X207444180Y-107539502D01*
X207554494Y-107480537D01*
X207651185Y-107401185D01*
X207730537Y-107304494D01*
X207789502Y-107194180D01*
X207825812Y-107074482D01*
X207838072Y-106950000D01*
X207838072Y-103685000D01*
X208838405Y-103685000D01*
X208836928Y-103700000D01*
G36*
X224121928Y-106950000D02*
G01*
X224134188Y-107074482D01*
X224170498Y-107194180D01*
X224229463Y-107304494D01*
X224267295Y-107350593D01*
X224261444Y-107410000D01*
X224265000Y-107446105D01*
X224265001Y-109001274D01*
X223455000Y-108191274D01*
X223455000Y-107542287D01*
X223464180Y-107539502D01*
X223574494Y-107480537D01*
X223671185Y-107401185D01*
X223750537Y-107304494D01*
X223809502Y-107194180D01*
X223845812Y-107074482D01*
X223858072Y-106950000D01*
X223858072Y-103685000D01*
X224121928Y-103685000D01*
X224121928Y-106950000D01*
X224121928Y-106950000D01*
G37*
X224121928Y-106950000D02*
X224134188Y-107074482D01*
X224170498Y-107194180D01*
X224229463Y-107304494D01*
X224267295Y-107350593D01*
X224261444Y-107410000D01*
X224265000Y-107446105D01*
X224265001Y-109001274D01*
X223455000Y-108191274D01*
X223455000Y-107542287D01*
X223464180Y-107539502D01*
X223574494Y-107480537D01*
X223671185Y-107401185D01*
X223750537Y-107304494D01*
X223809502Y-107194180D01*
X223845812Y-107074482D01*
X223858072Y-106950000D01*
X223858072Y-103685000D01*
X224121928Y-103685000D01*
X224121928Y-106950000D01*
G36*
X221077000Y-104273000D02*
G01*
X221097000Y-104273000D01*
X221097000Y-104527000D01*
X221077000Y-104527000D01*
X221077000Y-104547000D01*
X220823000Y-104547000D01*
X220823000Y-104527000D01*
X220803000Y-104527000D01*
X220803000Y-104273000D01*
X220823000Y-104273000D01*
X220823000Y-104253000D01*
X221077000Y-104253000D01*
X221077000Y-104273000D01*
X221077000Y-104273000D01*
G37*
X221077000Y-104273000D02*
X221097000Y-104273000D01*
X221097000Y-104527000D01*
X221077000Y-104527000D01*
X221077000Y-104547000D01*
X220823000Y-104547000D01*
X220823000Y-104527000D01*
X220803000Y-104527000D01*
X220803000Y-104273000D01*
X220823000Y-104273000D01*
X220823000Y-104253000D01*
X221077000Y-104253000D01*
X221077000Y-104273000D01*
M02*
