G04 #@! TF.GenerationSoftware,KiCad,Pcbnew,(5.1.4)-1*
G04 #@! TF.CreationDate,2019-10-10T18:21:12+02:00*
G04 #@! TF.ProjectId,Bottom,426f7474-6f6d-42e6-9b69-6361645f7063,rev?*
G04 #@! TF.SameCoordinates,Original*
G04 #@! TF.FileFunction,Legend,Top*
G04 #@! TF.FilePolarity,Positive*
%FSLAX46Y46*%
G04 Gerber Fmt 4.6, Leading zero omitted, Abs format (unit mm)*
G04 Created by KiCad (PCBNEW (5.1.4)-1) date 2019-10-10 18:21:12*
%MOMM*%
%LPD*%
G04 APERTURE LIST*
%ADD10C,0.150000*%
%ADD11C,0.120000*%
G04 APERTURE END LIST*
D10*
X170023809Y-116607142D02*
X169976190Y-116654761D01*
X169833333Y-116702380D01*
X169738095Y-116702380D01*
X169595238Y-116654761D01*
X169500000Y-116559523D01*
X169452380Y-116464285D01*
X169404761Y-116273809D01*
X169404761Y-116130952D01*
X169452380Y-115940476D01*
X169500000Y-115845238D01*
X169595238Y-115750000D01*
X169738095Y-115702380D01*
X169833333Y-115702380D01*
X169976190Y-115750000D01*
X170023809Y-115797619D01*
X170880952Y-116035714D02*
X170880952Y-116702380D01*
X170452380Y-116035714D02*
X170452380Y-116559523D01*
X170500000Y-116654761D01*
X170595238Y-116702380D01*
X170738095Y-116702380D01*
X170833333Y-116654761D01*
X170880952Y-116607142D01*
X171357142Y-116702380D02*
X171357142Y-115702380D01*
X171357142Y-116083333D02*
X171452380Y-116035714D01*
X171642857Y-116035714D01*
X171738095Y-116083333D01*
X171785714Y-116130952D01*
X171833333Y-116226190D01*
X171833333Y-116511904D01*
X171785714Y-116607142D01*
X171738095Y-116654761D01*
X171642857Y-116702380D01*
X171452380Y-116702380D01*
X171357142Y-116654761D01*
X172166666Y-116035714D02*
X172404761Y-116702380D01*
X172642857Y-116035714D02*
X172404761Y-116702380D01*
X172309523Y-116940476D01*
X172261904Y-116988095D01*
X172166666Y-117035714D01*
X173642857Y-115702380D02*
X173976190Y-116702380D01*
X174309523Y-115702380D01*
X174833333Y-115702380D02*
X174928571Y-115702380D01*
X175023809Y-115750000D01*
X175071428Y-115797619D01*
X175119047Y-115892857D01*
X175166666Y-116083333D01*
X175166666Y-116321428D01*
X175119047Y-116511904D01*
X175071428Y-116607142D01*
X175023809Y-116654761D01*
X174928571Y-116702380D01*
X174833333Y-116702380D01*
X174738095Y-116654761D01*
X174690476Y-116607142D01*
X174642857Y-116511904D01*
X174595238Y-116321428D01*
X174595238Y-116083333D01*
X174642857Y-115892857D01*
X174690476Y-115797619D01*
X174738095Y-115750000D01*
X174833333Y-115702380D01*
X175595238Y-116607142D02*
X175642857Y-116654761D01*
X175595238Y-116702380D01*
X175547619Y-116654761D01*
X175595238Y-116607142D01*
X175595238Y-116702380D01*
X176595238Y-116702380D02*
X176023809Y-116702380D01*
X176309523Y-116702380D02*
X176309523Y-115702380D01*
X176214285Y-115845238D01*
X176119047Y-115940476D01*
X176023809Y-115988095D01*
X163175000Y-102275000D02*
X163175000Y-96650000D01*
X168725000Y-101150000D02*
X168725000Y-96650000D01*
X177275000Y-102275000D02*
X177275000Y-96650000D01*
X182825000Y-101150000D02*
X182825000Y-96650000D01*
D11*
X168610000Y-90041422D02*
X168610000Y-90558578D01*
X167190000Y-90041422D02*
X167190000Y-90558578D01*
X164710000Y-90558578D02*
X164710000Y-90041422D01*
X163290000Y-90558578D02*
X163290000Y-90041422D01*
X166258578Y-92640000D02*
X165741422Y-92640000D01*
X166258578Y-94060000D02*
X165741422Y-94060000D01*
X181290000Y-90041422D02*
X181290000Y-90558578D01*
X182710000Y-90041422D02*
X182710000Y-90558578D01*
X177390000Y-90558578D02*
X177390000Y-90041422D01*
X178810000Y-90558578D02*
X178810000Y-90041422D01*
X180358578Y-94060000D02*
X179841422Y-94060000D01*
X180358578Y-92640000D02*
X179841422Y-92640000D01*
X153640000Y-89608578D02*
X153640000Y-89091422D01*
X155060000Y-89608578D02*
X155060000Y-89091422D01*
X158260000Y-89608578D02*
X158260000Y-89091422D01*
X156840000Y-89608578D02*
X156840000Y-89091422D01*
X187690000Y-89608578D02*
X187690000Y-89091422D01*
X189110000Y-89608578D02*
X189110000Y-89091422D01*
X192310000Y-89608578D02*
X192310000Y-89091422D01*
X190890000Y-89608578D02*
X190890000Y-89091422D01*
X164710000Y-104741422D02*
X164710000Y-105258578D01*
X163290000Y-104741422D02*
X163290000Y-105258578D01*
X167190000Y-104741422D02*
X167190000Y-105258578D01*
X168610000Y-104741422D02*
X168610000Y-105258578D01*
X177390000Y-104741422D02*
X177390000Y-105258578D01*
X178810000Y-104741422D02*
X178810000Y-105258578D01*
X182710000Y-104741422D02*
X182710000Y-105258578D01*
X181290000Y-104741422D02*
X181290000Y-105258578D01*
D10*
X169607142Y-82014285D02*
X168707142Y-82014285D01*
X169350000Y-81680952D01*
X168707142Y-81347619D01*
X169607142Y-81347619D01*
X169607142Y-80347619D02*
X169607142Y-80919047D01*
X169607142Y-80633333D02*
X168707142Y-80633333D01*
X168835714Y-80728571D01*
X168921428Y-80823809D01*
X168964285Y-80919047D01*
X169350000Y-79966666D02*
X169350000Y-79490476D01*
X169607142Y-80061904D02*
X168707142Y-79728571D01*
X169607142Y-79395238D01*
X169607142Y-78538095D02*
X169607142Y-79109523D01*
X169607142Y-78823809D02*
X168707142Y-78823809D01*
X168835714Y-78919047D01*
X168921428Y-79014285D01*
X168964285Y-79109523D01*
X167107142Y-82014285D02*
X166207142Y-82014285D01*
X166850000Y-81680952D01*
X166207142Y-81347619D01*
X167107142Y-81347619D01*
X167107142Y-80347619D02*
X167107142Y-80919047D01*
X167107142Y-80633333D02*
X166207142Y-80633333D01*
X166335714Y-80728571D01*
X166421428Y-80823809D01*
X166464285Y-80919047D01*
X166850000Y-79966666D02*
X166850000Y-79490476D01*
X167107142Y-80061904D02*
X166207142Y-79728571D01*
X167107142Y-79395238D01*
X166292857Y-79109523D02*
X166250000Y-79061904D01*
X166207142Y-78966666D01*
X166207142Y-78728571D01*
X166250000Y-78633333D01*
X166292857Y-78585714D01*
X166378571Y-78538095D01*
X166464285Y-78538095D01*
X166592857Y-78585714D01*
X167107142Y-79157142D01*
X167107142Y-78538095D01*
X164507142Y-81985714D02*
X163607142Y-81985714D01*
X164250000Y-81652380D01*
X163607142Y-81319047D01*
X164507142Y-81319047D01*
X164507142Y-80319047D02*
X164507142Y-80890476D01*
X164507142Y-80604761D02*
X163607142Y-80604761D01*
X163735714Y-80700000D01*
X163821428Y-80795238D01*
X163864285Y-80890476D01*
X164035714Y-79557142D02*
X164078571Y-79414285D01*
X164121428Y-79366666D01*
X164207142Y-79319047D01*
X164335714Y-79319047D01*
X164421428Y-79366666D01*
X164464285Y-79414285D01*
X164507142Y-79509523D01*
X164507142Y-79890476D01*
X163607142Y-79890476D01*
X163607142Y-79557142D01*
X163650000Y-79461904D01*
X163692857Y-79414285D01*
X163778571Y-79366666D01*
X163864285Y-79366666D01*
X163950000Y-79414285D01*
X163992857Y-79461904D01*
X164035714Y-79557142D01*
X164035714Y-79890476D01*
X164507142Y-78366666D02*
X164507142Y-78938095D01*
X164507142Y-78652380D02*
X163607142Y-78652380D01*
X163735714Y-78747619D01*
X163821428Y-78842857D01*
X163864285Y-78938095D01*
X162007142Y-81985714D02*
X161107142Y-81985714D01*
X161750000Y-81652380D01*
X161107142Y-81319047D01*
X162007142Y-81319047D01*
X162007142Y-80319047D02*
X162007142Y-80890476D01*
X162007142Y-80604761D02*
X161107142Y-80604761D01*
X161235714Y-80700000D01*
X161321428Y-80795238D01*
X161364285Y-80890476D01*
X161535714Y-79557142D02*
X161578571Y-79414285D01*
X161621428Y-79366666D01*
X161707142Y-79319047D01*
X161835714Y-79319047D01*
X161921428Y-79366666D01*
X161964285Y-79414285D01*
X162007142Y-79509523D01*
X162007142Y-79890476D01*
X161107142Y-79890476D01*
X161107142Y-79557142D01*
X161150000Y-79461904D01*
X161192857Y-79414285D01*
X161278571Y-79366666D01*
X161364285Y-79366666D01*
X161450000Y-79414285D01*
X161492857Y-79461904D01*
X161535714Y-79557142D01*
X161535714Y-79890476D01*
X161192857Y-78938095D02*
X161150000Y-78890476D01*
X161107142Y-78795238D01*
X161107142Y-78557142D01*
X161150000Y-78461904D01*
X161192857Y-78414285D01*
X161278571Y-78366666D01*
X161364285Y-78366666D01*
X161492857Y-78414285D01*
X162007142Y-78985714D01*
X162007142Y-78366666D01*
X159409523Y-82935714D02*
X159742857Y-82935714D01*
X159885714Y-83407142D02*
X159409523Y-83407142D01*
X159409523Y-82507142D01*
X159885714Y-82507142D01*
X160314285Y-83407142D02*
X160314285Y-82507142D01*
X160552380Y-82507142D01*
X160695238Y-82550000D01*
X160790476Y-82635714D01*
X160838095Y-82721428D01*
X160885714Y-82892857D01*
X160885714Y-83021428D01*
X160838095Y-83192857D01*
X160790476Y-83278571D01*
X160695238Y-83364285D01*
X160552380Y-83407142D01*
X160314285Y-83407142D01*
X161838095Y-83407142D02*
X161266666Y-83407142D01*
X161552380Y-83407142D02*
X161552380Y-82507142D01*
X161457142Y-82635714D01*
X161361904Y-82721428D01*
X161266666Y-82764285D01*
X184059523Y-82935714D02*
X184392857Y-82935714D01*
X184535714Y-83407142D02*
X184059523Y-83407142D01*
X184059523Y-82507142D01*
X184535714Y-82507142D01*
X184964285Y-83407142D02*
X184964285Y-82507142D01*
X185202380Y-82507142D01*
X185345238Y-82550000D01*
X185440476Y-82635714D01*
X185488095Y-82721428D01*
X185535714Y-82892857D01*
X185535714Y-83021428D01*
X185488095Y-83192857D01*
X185440476Y-83278571D01*
X185345238Y-83364285D01*
X185202380Y-83407142D01*
X184964285Y-83407142D01*
X185916666Y-82592857D02*
X185964285Y-82550000D01*
X186059523Y-82507142D01*
X186297619Y-82507142D01*
X186392857Y-82550000D01*
X186440476Y-82592857D01*
X186488095Y-82678571D01*
X186488095Y-82764285D01*
X186440476Y-82892857D01*
X185869047Y-83407142D01*
X186488095Y-83407142D01*
X172207142Y-82014285D02*
X171307142Y-82014285D01*
X171950000Y-81680952D01*
X171307142Y-81347619D01*
X172207142Y-81347619D01*
X171392857Y-80919047D02*
X171350000Y-80871428D01*
X171307142Y-80776190D01*
X171307142Y-80538095D01*
X171350000Y-80442857D01*
X171392857Y-80395238D01*
X171478571Y-80347619D01*
X171564285Y-80347619D01*
X171692857Y-80395238D01*
X172207142Y-80966666D01*
X172207142Y-80347619D01*
X171950000Y-79966666D02*
X171950000Y-79490476D01*
X172207142Y-80061904D02*
X171307142Y-79728571D01*
X172207142Y-79395238D01*
X172207142Y-78538095D02*
X172207142Y-79109523D01*
X172207142Y-78823809D02*
X171307142Y-78823809D01*
X171435714Y-78919047D01*
X171521428Y-79014285D01*
X171564285Y-79109523D01*
X174707142Y-82014285D02*
X173807142Y-82014285D01*
X174450000Y-81680952D01*
X173807142Y-81347619D01*
X174707142Y-81347619D01*
X173892857Y-80919047D02*
X173850000Y-80871428D01*
X173807142Y-80776190D01*
X173807142Y-80538095D01*
X173850000Y-80442857D01*
X173892857Y-80395238D01*
X173978571Y-80347619D01*
X174064285Y-80347619D01*
X174192857Y-80395238D01*
X174707142Y-80966666D01*
X174707142Y-80347619D01*
X174450000Y-79966666D02*
X174450000Y-79490476D01*
X174707142Y-80061904D02*
X173807142Y-79728571D01*
X174707142Y-79395238D01*
X173892857Y-79109523D02*
X173850000Y-79061904D01*
X173807142Y-78966666D01*
X173807142Y-78728571D01*
X173850000Y-78633333D01*
X173892857Y-78585714D01*
X173978571Y-78538095D01*
X174064285Y-78538095D01*
X174192857Y-78585714D01*
X174707142Y-79157142D01*
X174707142Y-78538095D01*
X177207142Y-81985714D02*
X176307142Y-81985714D01*
X176950000Y-81652380D01*
X176307142Y-81319047D01*
X177207142Y-81319047D01*
X176392857Y-80890476D02*
X176350000Y-80842857D01*
X176307142Y-80747619D01*
X176307142Y-80509523D01*
X176350000Y-80414285D01*
X176392857Y-80366666D01*
X176478571Y-80319047D01*
X176564285Y-80319047D01*
X176692857Y-80366666D01*
X177207142Y-80938095D01*
X177207142Y-80319047D01*
X176735714Y-79557142D02*
X176778571Y-79414285D01*
X176821428Y-79366666D01*
X176907142Y-79319047D01*
X177035714Y-79319047D01*
X177121428Y-79366666D01*
X177164285Y-79414285D01*
X177207142Y-79509523D01*
X177207142Y-79890476D01*
X176307142Y-79890476D01*
X176307142Y-79557142D01*
X176350000Y-79461904D01*
X176392857Y-79414285D01*
X176478571Y-79366666D01*
X176564285Y-79366666D01*
X176650000Y-79414285D01*
X176692857Y-79461904D01*
X176735714Y-79557142D01*
X176735714Y-79890476D01*
X177207142Y-78366666D02*
X177207142Y-78938095D01*
X177207142Y-78652380D02*
X176307142Y-78652380D01*
X176435714Y-78747619D01*
X176521428Y-78842857D01*
X176564285Y-78938095D01*
X179807142Y-81985714D02*
X178907142Y-81985714D01*
X179550000Y-81652380D01*
X178907142Y-81319047D01*
X179807142Y-81319047D01*
X178992857Y-80890476D02*
X178950000Y-80842857D01*
X178907142Y-80747619D01*
X178907142Y-80509523D01*
X178950000Y-80414285D01*
X178992857Y-80366666D01*
X179078571Y-80319047D01*
X179164285Y-80319047D01*
X179292857Y-80366666D01*
X179807142Y-80938095D01*
X179807142Y-80319047D01*
X179335714Y-79557142D02*
X179378571Y-79414285D01*
X179421428Y-79366666D01*
X179507142Y-79319047D01*
X179635714Y-79319047D01*
X179721428Y-79366666D01*
X179764285Y-79414285D01*
X179807142Y-79509523D01*
X179807142Y-79890476D01*
X178907142Y-79890476D01*
X178907142Y-79557142D01*
X178950000Y-79461904D01*
X178992857Y-79414285D01*
X179078571Y-79366666D01*
X179164285Y-79366666D01*
X179250000Y-79414285D01*
X179292857Y-79461904D01*
X179335714Y-79557142D01*
X179335714Y-79890476D01*
X178992857Y-78938095D02*
X178950000Y-78890476D01*
X178907142Y-78795238D01*
X178907142Y-78557142D01*
X178950000Y-78461904D01*
X178992857Y-78414285D01*
X179078571Y-78366666D01*
X179164285Y-78366666D01*
X179292857Y-78414285D01*
X179807142Y-78985714D01*
X179807142Y-78366666D01*
X182407142Y-81964285D02*
X181507142Y-81964285D01*
X182150000Y-81630952D01*
X181507142Y-81297619D01*
X182407142Y-81297619D01*
X181157000Y-81059523D02*
X181157000Y-80107142D01*
X182364285Y-80869047D02*
X182407142Y-80726190D01*
X182407142Y-80488095D01*
X182364285Y-80392857D01*
X182321428Y-80345238D01*
X182235714Y-80297619D01*
X182150000Y-80297619D01*
X182064285Y-80345238D01*
X182021428Y-80392857D01*
X181978571Y-80488095D01*
X181935714Y-80678571D01*
X181892857Y-80773809D01*
X181850000Y-80821428D01*
X181764285Y-80869047D01*
X181678571Y-80869047D01*
X181592857Y-80821428D01*
X181550000Y-80773809D01*
X181507142Y-80678571D01*
X181507142Y-80440476D01*
X181550000Y-80297619D01*
X181157000Y-80107142D02*
X181157000Y-79297619D01*
X182407142Y-79392857D02*
X182407142Y-79869047D01*
X181507142Y-79869047D01*
X181157000Y-79297619D02*
X181157000Y-78297619D01*
X182407142Y-79059523D02*
X181507142Y-79059523D01*
X181507142Y-78678571D01*
X181550000Y-78583333D01*
X181592857Y-78535714D01*
X181678571Y-78488095D01*
X181807142Y-78488095D01*
X181892857Y-78535714D01*
X181935714Y-78583333D01*
X181978571Y-78678571D01*
X181978571Y-79059523D01*
X187061904Y-83407142D02*
X187680952Y-83407142D01*
X187347619Y-83750000D01*
X187490476Y-83750000D01*
X187585714Y-83792857D01*
X187633333Y-83835714D01*
X187680952Y-83921428D01*
X187680952Y-84135714D01*
X187633333Y-84221428D01*
X187585714Y-84264285D01*
X187490476Y-84307142D01*
X187204761Y-84307142D01*
X187109523Y-84264285D01*
X187061904Y-84221428D01*
X187966666Y-83407142D02*
X188300000Y-84307142D01*
X188633333Y-83407142D01*
X188871428Y-83407142D02*
X189490476Y-83407142D01*
X189157142Y-83750000D01*
X189300000Y-83750000D01*
X189395238Y-83792857D01*
X189442857Y-83835714D01*
X189490476Y-83921428D01*
X189490476Y-84135714D01*
X189442857Y-84221428D01*
X189395238Y-84264285D01*
X189300000Y-84307142D01*
X189014285Y-84307142D01*
X188919047Y-84264285D01*
X188871428Y-84221428D01*
X153738095Y-83450000D02*
X153642857Y-83407142D01*
X153500000Y-83407142D01*
X153357142Y-83450000D01*
X153261904Y-83535714D01*
X153214285Y-83621428D01*
X153166666Y-83792857D01*
X153166666Y-83921428D01*
X153214285Y-84092857D01*
X153261904Y-84178571D01*
X153357142Y-84264285D01*
X153500000Y-84307142D01*
X153595238Y-84307142D01*
X153738095Y-84264285D01*
X153785714Y-84221428D01*
X153785714Y-83921428D01*
X153595238Y-83921428D01*
X154214285Y-84307142D02*
X154214285Y-83407142D01*
X154785714Y-84307142D01*
X154785714Y-83407142D01*
X155261904Y-84307142D02*
X155261904Y-83407142D01*
X155500000Y-83407142D01*
X155642857Y-83450000D01*
X155738095Y-83535714D01*
X155785714Y-83621428D01*
X155833333Y-83792857D01*
X155833333Y-83921428D01*
X155785714Y-84092857D01*
X155738095Y-84178571D01*
X155642857Y-84264285D01*
X155500000Y-84307142D01*
X155261904Y-84307142D01*
X190738095Y-83450000D02*
X190642857Y-83407142D01*
X190500000Y-83407142D01*
X190357142Y-83450000D01*
X190261904Y-83535714D01*
X190214285Y-83621428D01*
X190166666Y-83792857D01*
X190166666Y-83921428D01*
X190214285Y-84092857D01*
X190261904Y-84178571D01*
X190357142Y-84264285D01*
X190500000Y-84307142D01*
X190595238Y-84307142D01*
X190738095Y-84264285D01*
X190785714Y-84221428D01*
X190785714Y-83921428D01*
X190595238Y-83921428D01*
X191214285Y-84307142D02*
X191214285Y-83407142D01*
X191785714Y-84307142D01*
X191785714Y-83407142D01*
X192261904Y-84307142D02*
X192261904Y-83407142D01*
X192500000Y-83407142D01*
X192642857Y-83450000D01*
X192738095Y-83535714D01*
X192785714Y-83621428D01*
X192833333Y-83792857D01*
X192833333Y-83921428D01*
X192785714Y-84092857D01*
X192738095Y-84178571D01*
X192642857Y-84264285D01*
X192500000Y-84307142D01*
X192261904Y-84307142D01*
X156461904Y-83407142D02*
X157080952Y-83407142D01*
X156747619Y-83750000D01*
X156890476Y-83750000D01*
X156985714Y-83792857D01*
X157033333Y-83835714D01*
X157080952Y-83921428D01*
X157080952Y-84135714D01*
X157033333Y-84221428D01*
X156985714Y-84264285D01*
X156890476Y-84307142D01*
X156604761Y-84307142D01*
X156509523Y-84264285D01*
X156461904Y-84221428D01*
X157366666Y-83407142D02*
X157700000Y-84307142D01*
X158033333Y-83407142D01*
X158271428Y-83407142D02*
X158890476Y-83407142D01*
X158557142Y-83750000D01*
X158700000Y-83750000D01*
X158795238Y-83792857D01*
X158842857Y-83835714D01*
X158890476Y-83921428D01*
X158890476Y-84135714D01*
X158842857Y-84221428D01*
X158795238Y-84264285D01*
X158700000Y-84307142D01*
X158414285Y-84307142D01*
X158319047Y-84264285D01*
X158271428Y-84221428D01*
X153738095Y-111950000D02*
X153642857Y-111902380D01*
X153500000Y-111902380D01*
X153357142Y-111950000D01*
X153261904Y-112045238D01*
X153214285Y-112140476D01*
X153166666Y-112330952D01*
X153166666Y-112473809D01*
X153214285Y-112664285D01*
X153261904Y-112759523D01*
X153357142Y-112854761D01*
X153500000Y-112902380D01*
X153595238Y-112902380D01*
X153738095Y-112854761D01*
X153785714Y-112807142D01*
X153785714Y-112473809D01*
X153595238Y-112473809D01*
X154214285Y-112902380D02*
X154214285Y-111902380D01*
X154785714Y-112902380D01*
X154785714Y-111902380D01*
X155261904Y-112902380D02*
X155261904Y-111902380D01*
X155500000Y-111902380D01*
X155642857Y-111950000D01*
X155738095Y-112045238D01*
X155785714Y-112140476D01*
X155833333Y-112330952D01*
X155833333Y-112473809D01*
X155785714Y-112664285D01*
X155738095Y-112759523D01*
X155642857Y-112854761D01*
X155500000Y-112902380D01*
X155261904Y-112902380D01*
X190738095Y-111700000D02*
X190642857Y-111652380D01*
X190500000Y-111652380D01*
X190357142Y-111700000D01*
X190261904Y-111795238D01*
X190214285Y-111890476D01*
X190166666Y-112080952D01*
X190166666Y-112223809D01*
X190214285Y-112414285D01*
X190261904Y-112509523D01*
X190357142Y-112604761D01*
X190500000Y-112652380D01*
X190595238Y-112652380D01*
X190738095Y-112604761D01*
X190785714Y-112557142D01*
X190785714Y-112223809D01*
X190595238Y-112223809D01*
X191214285Y-112652380D02*
X191214285Y-111652380D01*
X191785714Y-112652380D01*
X191785714Y-111652380D01*
X192261904Y-112652380D02*
X192261904Y-111652380D01*
X192500000Y-111652380D01*
X192642857Y-111700000D01*
X192738095Y-111795238D01*
X192785714Y-111890476D01*
X192833333Y-112080952D01*
X192833333Y-112223809D01*
X192785714Y-112414285D01*
X192738095Y-112509523D01*
X192642857Y-112604761D01*
X192500000Y-112652380D01*
X192261904Y-112652380D01*
M02*
