G04 #@! TF.GenerationSoftware,KiCad,Pcbnew,(5.1.4)-1*
G04 #@! TF.CreationDate,2019-10-10T18:21:12+02:00*
G04 #@! TF.ProjectId,Bottom,426f7474-6f6d-42e6-9b69-6361645f7063,rev?*
G04 #@! TF.SameCoordinates,Original*
G04 #@! TF.FileFunction,Profile,NP*
%FSLAX46Y46*%
G04 Gerber Fmt 4.6, Leading zero omitted, Abs format (unit mm)*
G04 Created by KiCad (PCBNEW (5.1.4)-1) date 2019-10-10 18:21:12*
%MOMM*%
%LPD*%
G04 APERTURE LIST*
%ADD10C,0.100000*%
G04 APERTURE END LIST*
D10*
X153000000Y-93000000D02*
X159500000Y-93000000D01*
X159500000Y-110800000D02*
X159500000Y-93000000D01*
X153000000Y-110800000D02*
X159500000Y-110800000D01*
X186500000Y-93000000D02*
X193000000Y-93000000D01*
X186500000Y-110800000D02*
X186500000Y-93000000D01*
X193000000Y-110800000D02*
X186500000Y-110800000D01*
X153000000Y-118000000D02*
X153000000Y-110800000D01*
X193000000Y-118000000D02*
X193000000Y-110800000D01*
X153000000Y-93000000D02*
X153000000Y-78000000D01*
X193000000Y-78000000D02*
X193000000Y-93000000D01*
X193000000Y-118000000D02*
X153000000Y-118000000D01*
X153000000Y-78000000D02*
X193000000Y-78000000D01*
X188900000Y-87500000D02*
X188900000Y-84500000D01*
X191100000Y-87500000D02*
X188900000Y-87500000D01*
X191100000Y-84500000D02*
X191100000Y-87500000D01*
X188900000Y-84500000D02*
X191100000Y-84500000D01*
X154850000Y-87500000D02*
X154850000Y-84500000D01*
X157050000Y-87500000D02*
X154850000Y-87500000D01*
X157050000Y-84500000D02*
X157050000Y-87500000D01*
X154850000Y-84500000D02*
X157050000Y-84500000D01*
M02*
