M48
; DRILL file {KiCad (5.1.4)-1} date 10/10/2019 18:21:09
; FORMAT={-:-/ absolute / inch / decimal}
; #@! TF.CreationDate,2019-10-10T18:21:09+02:00
; #@! TF.GenerationSoftware,Kicad,Pcbnew,(5.1.4)-1
; #@! TF.FileFunction,Plated,1,2,PTH
FMAT,2
INCH
T1C0.0130
T2C0.0157
T3C0.0197
%
G90
G05
T1
X6.4764Y-3.8642
X6.4764Y-3.9232
X6.5354Y-3.8642
X6.5354Y-3.9232
X6.5945Y-3.8642
X6.5945Y-3.9232
X7.0315Y-3.8642
X7.0315Y-3.9232
X7.0906Y-3.8642
X7.0906Y-3.9232
X7.1496Y-3.8642
X7.1496Y-3.9232
T2
X6.1417Y-3.6122
X6.3583Y-3.3465
X6.3602Y-3.1673
X6.3956Y-4.0029
X6.3976Y-3.3957
X6.4606Y-3.1673
X6.5453Y-3.3957
X6.561Y-3.1673
X6.5748Y-3.3465
X6.6614Y-3.1673
X6.671Y-4.003
X6.752Y-3.3937
X6.752Y-3.5433
X6.7598Y-3.1673
X6.811Y-3.8583
X6.811Y-4.1732
X6.8602Y-3.1673
X6.8701Y-3.3937
X6.8701Y-3.5433
X6.9459Y-4.003
X6.9606Y-3.1673
X7.061Y-3.1673
X7.1594Y-3.1673
X7.2126Y-3.6535
X7.2126Y-3.7362
X7.2272Y-4.003
X7.2598Y-3.1673
X7.4803Y-3.6122
T3
X6.0709Y-3.1673
X6.0709Y-4.5492
X6.2165Y-3.3632
X6.261Y-3.555
X6.2697Y-3.3169
X6.4567Y-3.5156
X6.4567Y-4.1713
X6.4961Y-3.6752
X6.5748Y-3.6752
X6.6102Y-3.5157
X6.6102Y-4.1713
X7.0118Y-3.5157
X7.0118Y-4.1713
X7.0512Y-3.6752
X7.1299Y-3.6752
X7.1654Y-3.5157
X7.1654Y-4.1713
X7.3524Y-3.3169
X7.3599Y-3.555
X7.4035Y-3.3632
X7.5512Y-3.1673
X7.5512Y-4.5492
X6.5122Y-4.365
X6.5122Y-4.4693
X6.5358Y-4.4171
X6.5358Y-4.5215
X7.0862Y-4.3644
X7.0862Y-4.4687
X7.1098Y-4.4165
X7.1098Y-4.5209
T0
M30
