G04 #@! TF.GenerationSoftware,KiCad,Pcbnew,(5.1.4)-1*
G04 #@! TF.CreationDate,2019-10-10T18:27:07+02:00*
G04 #@! TF.ProjectId,Back,4261636b-2e6b-4696-9361-645f70636258,rev?*
G04 #@! TF.SameCoordinates,Original*
G04 #@! TF.FileFunction,Legend,Top*
G04 #@! TF.FilePolarity,Positive*
%FSLAX46Y46*%
G04 Gerber Fmt 4.6, Leading zero omitted, Abs format (unit mm)*
G04 Created by KiCad (PCBNEW (5.1.4)-1) date 2019-10-10 18:27:07*
%MOMM*%
%LPD*%
G04 APERTURE LIST*
%ADD10C,0.010000*%
G04 APERTURE END LIST*
D10*
G36*
X130073201Y-69301401D02*
G01*
X130246978Y-69177240D01*
X130335172Y-69162667D01*
X130429477Y-69220981D01*
X130622363Y-69383823D01*
X130895686Y-69633044D01*
X131231305Y-69950494D01*
X131611077Y-70318026D01*
X132016862Y-70717488D01*
X132430515Y-71130733D01*
X132833896Y-71539611D01*
X133208862Y-71925972D01*
X133537270Y-72271668D01*
X133800980Y-72558549D01*
X133981849Y-72768466D01*
X134061734Y-72883270D01*
X134064000Y-72892955D01*
X134007769Y-73065875D01*
X133962400Y-73125067D01*
X133798384Y-73215944D01*
X133728828Y-73226667D01*
X133634522Y-73168353D01*
X133441637Y-73005511D01*
X133168314Y-72756290D01*
X132832695Y-72438839D01*
X132452922Y-72071308D01*
X132047138Y-71671845D01*
X131633485Y-71258601D01*
X131230104Y-70849723D01*
X130855138Y-70463362D01*
X130526729Y-70117666D01*
X130263019Y-69830785D01*
X130082151Y-69620868D01*
X130002265Y-69506064D01*
X130000000Y-69496378D01*
X130073201Y-69301401D01*
X130073201Y-69301401D01*
G37*
X130073201Y-69301401D02*
X130246978Y-69177240D01*
X130335172Y-69162667D01*
X130429477Y-69220981D01*
X130622363Y-69383823D01*
X130895686Y-69633044D01*
X131231305Y-69950494D01*
X131611077Y-70318026D01*
X132016862Y-70717488D01*
X132430515Y-71130733D01*
X132833896Y-71539611D01*
X133208862Y-71925972D01*
X133537270Y-72271668D01*
X133800980Y-72558549D01*
X133981849Y-72768466D01*
X134061734Y-72883270D01*
X134064000Y-72892955D01*
X134007769Y-73065875D01*
X133962400Y-73125067D01*
X133798384Y-73215944D01*
X133728828Y-73226667D01*
X133634522Y-73168353D01*
X133441637Y-73005511D01*
X133168314Y-72756290D01*
X132832695Y-72438839D01*
X132452922Y-72071308D01*
X132047138Y-71671845D01*
X131633485Y-71258601D01*
X131230104Y-70849723D01*
X130855138Y-70463362D01*
X130526729Y-70117666D01*
X130263019Y-69830785D01*
X130082151Y-69620868D01*
X130002265Y-69506064D01*
X130000000Y-69496378D01*
X130073201Y-69301401D01*
G36*
X110030824Y-96423082D02*
G01*
X110061744Y-96278503D01*
X110082905Y-96256000D01*
X110157756Y-96313580D01*
X110332925Y-96474329D01*
X110590431Y-96720257D01*
X110912292Y-97033376D01*
X111280528Y-97395697D01*
X111677156Y-97789233D01*
X112084196Y-98195993D01*
X112483666Y-98597991D01*
X112857584Y-98977236D01*
X113187969Y-99315741D01*
X113456840Y-99595518D01*
X113646216Y-99798576D01*
X113738114Y-99906929D01*
X113744000Y-99918555D01*
X113668035Y-99955126D01*
X113474742Y-99977756D01*
X113340926Y-99981333D01*
X112937852Y-99981333D01*
X111478259Y-98519951D01*
X110018667Y-97058569D01*
X110018667Y-96657284D01*
X110030824Y-96423082D01*
X110030824Y-96423082D01*
G37*
X110030824Y-96423082D02*
X110061744Y-96278503D01*
X110082905Y-96256000D01*
X110157756Y-96313580D01*
X110332925Y-96474329D01*
X110590431Y-96720257D01*
X110912292Y-97033376D01*
X111280528Y-97395697D01*
X111677156Y-97789233D01*
X112084196Y-98195993D01*
X112483666Y-98597991D01*
X112857584Y-98977236D01*
X113187969Y-99315741D01*
X113456840Y-99595518D01*
X113646216Y-99798576D01*
X113738114Y-99906929D01*
X113744000Y-99918555D01*
X113668035Y-99955126D01*
X113474742Y-99977756D01*
X113340926Y-99981333D01*
X112937852Y-99981333D01*
X111478259Y-98519951D01*
X110018667Y-97058569D01*
X110018667Y-96657284D01*
X110030824Y-96423082D01*
G36*
X110030743Y-93036723D02*
G01*
X110061462Y-92891957D01*
X110082549Y-92869333D01*
X110153281Y-92927420D01*
X110330168Y-93093109D01*
X110600355Y-93353543D01*
X110950986Y-93695866D01*
X111369206Y-94107221D01*
X111842161Y-94574751D01*
X112356993Y-95085600D01*
X112900849Y-95626911D01*
X113460873Y-96185827D01*
X114024209Y-96749492D01*
X114578003Y-97305049D01*
X115109398Y-97839641D01*
X115605541Y-98340411D01*
X116053574Y-98794504D01*
X116440644Y-99189061D01*
X116753895Y-99511227D01*
X116980471Y-99748145D01*
X117107517Y-99886958D01*
X117130667Y-99918212D01*
X117054707Y-99955001D01*
X116861452Y-99977752D01*
X116728076Y-99981333D01*
X116325486Y-99981333D01*
X113172076Y-96827082D01*
X110018667Y-93672831D01*
X110018667Y-93271082D01*
X110030743Y-93036723D01*
X110030743Y-93036723D01*
G37*
X110030743Y-93036723D02*
X110061462Y-92891957D01*
X110082549Y-92869333D01*
X110153281Y-92927420D01*
X110330168Y-93093109D01*
X110600355Y-93353543D01*
X110950986Y-93695866D01*
X111369206Y-94107221D01*
X111842161Y-94574751D01*
X112356993Y-95085600D01*
X112900849Y-95626911D01*
X113460873Y-96185827D01*
X114024209Y-96749492D01*
X114578003Y-97305049D01*
X115109398Y-97839641D01*
X115605541Y-98340411D01*
X116053574Y-98794504D01*
X116440644Y-99189061D01*
X116753895Y-99511227D01*
X116980471Y-99748145D01*
X117107517Y-99886958D01*
X117130667Y-99918212D01*
X117054707Y-99955001D01*
X116861452Y-99977752D01*
X116728076Y-99981333D01*
X116325486Y-99981333D01*
X113172076Y-96827082D01*
X110018667Y-93672831D01*
X110018667Y-93271082D01*
X110030743Y-93036723D01*
G36*
X110030716Y-89650151D02*
G01*
X110061366Y-89505328D01*
X110082425Y-89482667D01*
X110151251Y-89541021D01*
X110328794Y-89709061D01*
X110604517Y-89976250D01*
X110967886Y-90332054D01*
X111408365Y-90765935D01*
X111915420Y-91267360D01*
X112478515Y-91825792D01*
X113087115Y-92430696D01*
X113730686Y-93071536D01*
X114398692Y-93737777D01*
X115080598Y-94418882D01*
X115765870Y-95104318D01*
X116443971Y-95783547D01*
X117104368Y-96446034D01*
X117736524Y-97081244D01*
X118329906Y-97678641D01*
X118873977Y-98227690D01*
X119358203Y-98717855D01*
X119772049Y-99138600D01*
X120104979Y-99479391D01*
X120346460Y-99729690D01*
X120485954Y-99878963D01*
X120517333Y-99918090D01*
X120441375Y-99954956D01*
X120248132Y-99977750D01*
X120114890Y-99981333D01*
X119712448Y-99981333D01*
X114865557Y-95133893D01*
X110018667Y-90286453D01*
X110018667Y-89884560D01*
X110030716Y-89650151D01*
X110030716Y-89650151D01*
G37*
X110030716Y-89650151D02*
X110061366Y-89505328D01*
X110082425Y-89482667D01*
X110151251Y-89541021D01*
X110328794Y-89709061D01*
X110604517Y-89976250D01*
X110967886Y-90332054D01*
X111408365Y-90765935D01*
X111915420Y-91267360D01*
X112478515Y-91825792D01*
X113087115Y-92430696D01*
X113730686Y-93071536D01*
X114398692Y-93737777D01*
X115080598Y-94418882D01*
X115765870Y-95104318D01*
X116443971Y-95783547D01*
X117104368Y-96446034D01*
X117736524Y-97081244D01*
X118329906Y-97678641D01*
X118873977Y-98227690D01*
X119358203Y-98717855D01*
X119772049Y-99138600D01*
X120104979Y-99479391D01*
X120346460Y-99729690D01*
X120485954Y-99878963D01*
X120517333Y-99918090D01*
X120441375Y-99954956D01*
X120248132Y-99977750D01*
X120114890Y-99981333D01*
X119712448Y-99981333D01*
X114865557Y-95133893D01*
X110018667Y-90286453D01*
X110018667Y-89884560D01*
X110030716Y-89650151D01*
G36*
X110030702Y-86263531D02*
G01*
X110061317Y-86118680D01*
X110082361Y-86096000D01*
X110150031Y-86154527D01*
X110327932Y-86324014D01*
X110606923Y-86595320D01*
X110977865Y-86959305D01*
X111431616Y-87406828D01*
X111959036Y-87928747D01*
X112550985Y-88515923D01*
X113198323Y-89159215D01*
X113891908Y-89849482D01*
X114622601Y-90577582D01*
X115381260Y-91334376D01*
X116158746Y-92110723D01*
X116945917Y-92897482D01*
X117733634Y-93685511D01*
X118512756Y-94465672D01*
X119274142Y-95228822D01*
X120008652Y-95965820D01*
X120707146Y-96667528D01*
X121360482Y-97324802D01*
X121959521Y-97928504D01*
X122495122Y-98469491D01*
X122958145Y-98938624D01*
X123339448Y-99326761D01*
X123629892Y-99624762D01*
X123820336Y-99823486D01*
X123901640Y-99913792D01*
X123904000Y-99918027D01*
X123828043Y-99954933D01*
X123634805Y-99977749D01*
X123501628Y-99981333D01*
X123099257Y-99981333D01*
X116558962Y-93440630D01*
X110018667Y-86899926D01*
X110018667Y-86497963D01*
X110030702Y-86263531D01*
X110030702Y-86263531D01*
G37*
X110030702Y-86263531D02*
X110061317Y-86118680D01*
X110082361Y-86096000D01*
X110150031Y-86154527D01*
X110327932Y-86324014D01*
X110606923Y-86595320D01*
X110977865Y-86959305D01*
X111431616Y-87406828D01*
X111959036Y-87928747D01*
X112550985Y-88515923D01*
X113198323Y-89159215D01*
X113891908Y-89849482D01*
X114622601Y-90577582D01*
X115381260Y-91334376D01*
X116158746Y-92110723D01*
X116945917Y-92897482D01*
X117733634Y-93685511D01*
X118512756Y-94465672D01*
X119274142Y-95228822D01*
X120008652Y-95965820D01*
X120707146Y-96667528D01*
X121360482Y-97324802D01*
X121959521Y-97928504D01*
X122495122Y-98469491D01*
X122958145Y-98938624D01*
X123339448Y-99326761D01*
X123629892Y-99624762D01*
X123820336Y-99823486D01*
X123901640Y-99913792D01*
X123904000Y-99918027D01*
X123828043Y-99954933D01*
X123634805Y-99977749D01*
X123501628Y-99981333D01*
X123099257Y-99981333D01*
X116558962Y-93440630D01*
X110018667Y-86899926D01*
X110018667Y-86497963D01*
X110030702Y-86263531D01*
G36*
X121322561Y-60018667D02*
G01*
X124306614Y-63003608D01*
X124892991Y-63592713D01*
X125441201Y-64148411D01*
X125939810Y-64658763D01*
X126377383Y-65111832D01*
X126742487Y-65495678D01*
X127023689Y-65798364D01*
X127209555Y-66007951D01*
X127288650Y-66112502D01*
X127290667Y-66119341D01*
X127234421Y-66292536D01*
X127189067Y-66351733D01*
X127025259Y-66442603D01*
X126955815Y-66453333D01*
X126872576Y-66395020D01*
X126681622Y-66227418D01*
X126394412Y-65961540D01*
X126022404Y-65608397D01*
X125577056Y-65178997D01*
X125069828Y-64684353D01*
X124512176Y-64135475D01*
X123915561Y-63543374D01*
X123607667Y-63236000D01*
X120391169Y-60018667D01*
X121322561Y-60018667D01*
X121322561Y-60018667D01*
G37*
X121322561Y-60018667D02*
X124306614Y-63003608D01*
X124892991Y-63592713D01*
X125441201Y-64148411D01*
X125939810Y-64658763D01*
X126377383Y-65111832D01*
X126742487Y-65495678D01*
X127023689Y-65798364D01*
X127209555Y-66007951D01*
X127288650Y-66112502D01*
X127290667Y-66119341D01*
X127234421Y-66292536D01*
X127189067Y-66351733D01*
X127025259Y-66442603D01*
X126955815Y-66453333D01*
X126872576Y-66395020D01*
X126681622Y-66227418D01*
X126394412Y-65961540D01*
X126022404Y-65608397D01*
X125577056Y-65178997D01*
X125069828Y-64684353D01*
X124512176Y-64135475D01*
X123915561Y-63543374D01*
X123607667Y-63236000D01*
X120391169Y-60018667D01*
X121322561Y-60018667D01*
G36*
X110030693Y-65943561D02*
G01*
X110061287Y-65798691D01*
X110082323Y-65776000D01*
X110153520Y-65834841D01*
X110335592Y-66005891D01*
X110620364Y-66280943D01*
X110999660Y-66651787D01*
X111465304Y-67110216D01*
X112009120Y-67648021D01*
X112622931Y-68256994D01*
X113298562Y-68928926D01*
X114027837Y-69655609D01*
X114802580Y-70428835D01*
X115614614Y-71240396D01*
X116455764Y-72082083D01*
X117317854Y-72945687D01*
X118192707Y-73823001D01*
X119072149Y-74705817D01*
X119948002Y-75585925D01*
X120812090Y-76455117D01*
X121656239Y-77305186D01*
X122472271Y-78127922D01*
X123252011Y-78915118D01*
X123987282Y-79658565D01*
X124669909Y-80350055D01*
X125291716Y-80981379D01*
X125844527Y-81544329D01*
X126320165Y-82030698D01*
X126710455Y-82432275D01*
X127007220Y-82740854D01*
X127202286Y-82948226D01*
X127287475Y-83046182D01*
X127290667Y-83052389D01*
X127234407Y-83225863D01*
X127189067Y-83285067D01*
X127025426Y-83375929D01*
X126956074Y-83386667D01*
X126881696Y-83327824D01*
X126694681Y-83155817D01*
X126401918Y-82877429D01*
X126010296Y-82499443D01*
X125526704Y-82028643D01*
X124958032Y-81471811D01*
X124311167Y-80835732D01*
X123592999Y-80127187D01*
X122810417Y-79352961D01*
X121970311Y-78519836D01*
X121079568Y-77634595D01*
X120145078Y-76704023D01*
X119173730Y-75734901D01*
X118421674Y-74983341D01*
X110018667Y-66580016D01*
X110018667Y-66178008D01*
X110030693Y-65943561D01*
X110030693Y-65943561D01*
G37*
X110030693Y-65943561D02*
X110061287Y-65798691D01*
X110082323Y-65776000D01*
X110153520Y-65834841D01*
X110335592Y-66005891D01*
X110620364Y-66280943D01*
X110999660Y-66651787D01*
X111465304Y-67110216D01*
X112009120Y-67648021D01*
X112622931Y-68256994D01*
X113298562Y-68928926D01*
X114027837Y-69655609D01*
X114802580Y-70428835D01*
X115614614Y-71240396D01*
X116455764Y-72082083D01*
X117317854Y-72945687D01*
X118192707Y-73823001D01*
X119072149Y-74705817D01*
X119948002Y-75585925D01*
X120812090Y-76455117D01*
X121656239Y-77305186D01*
X122472271Y-78127922D01*
X123252011Y-78915118D01*
X123987282Y-79658565D01*
X124669909Y-80350055D01*
X125291716Y-80981379D01*
X125844527Y-81544329D01*
X126320165Y-82030698D01*
X126710455Y-82432275D01*
X127007220Y-82740854D01*
X127202286Y-82948226D01*
X127287475Y-83046182D01*
X127290667Y-83052389D01*
X127234407Y-83225863D01*
X127189067Y-83285067D01*
X127025426Y-83375929D01*
X126956074Y-83386667D01*
X126881696Y-83327824D01*
X126694681Y-83155817D01*
X126401918Y-82877429D01*
X126010296Y-82499443D01*
X125526704Y-82028643D01*
X124958032Y-81471811D01*
X124311167Y-80835732D01*
X123592999Y-80127187D01*
X122810417Y-79352961D01*
X121970311Y-78519836D01*
X121079568Y-77634595D01*
X120145078Y-76704023D01*
X119173730Y-75734901D01*
X118421674Y-74983341D01*
X110018667Y-66580016D01*
X110018667Y-66178008D01*
X110030693Y-65943561D01*
G36*
X110030693Y-82876892D02*
G01*
X110061287Y-82732024D01*
X110082323Y-82709333D01*
X110149194Y-82767984D01*
X110327325Y-82938477D01*
X110608531Y-83212630D01*
X110984628Y-83582257D01*
X111447431Y-84039174D01*
X111988756Y-84575196D01*
X112600417Y-85182138D01*
X113274231Y-85851815D01*
X114002013Y-86576043D01*
X114775578Y-87346637D01*
X115586742Y-88155413D01*
X116427320Y-88994185D01*
X117289127Y-89854769D01*
X118163980Y-90728980D01*
X119043693Y-91608633D01*
X119920082Y-92485545D01*
X120784962Y-93351529D01*
X121630149Y-94198402D01*
X122447458Y-95017979D01*
X123228705Y-95802074D01*
X123965705Y-96542504D01*
X124650274Y-97231083D01*
X125274226Y-97859627D01*
X125829378Y-98419951D01*
X126307545Y-98903871D01*
X126700542Y-99303201D01*
X127000185Y-99609757D01*
X127198289Y-99815355D01*
X127286670Y-99911809D01*
X127290667Y-99917989D01*
X127214710Y-99954919D01*
X127021476Y-99977748D01*
X126888337Y-99981333D01*
X126486008Y-99981333D01*
X118252337Y-91747338D01*
X110018667Y-83513343D01*
X110018667Y-83111338D01*
X110030693Y-82876892D01*
X110030693Y-82876892D01*
G37*
X110030693Y-82876892D02*
X110061287Y-82732024D01*
X110082323Y-82709333D01*
X110149194Y-82767984D01*
X110327325Y-82938477D01*
X110608531Y-83212630D01*
X110984628Y-83582257D01*
X111447431Y-84039174D01*
X111988756Y-84575196D01*
X112600417Y-85182138D01*
X113274231Y-85851815D01*
X114002013Y-86576043D01*
X114775578Y-87346637D01*
X115586742Y-88155413D01*
X116427320Y-88994185D01*
X117289127Y-89854769D01*
X118163980Y-90728980D01*
X119043693Y-91608633D01*
X119920082Y-92485545D01*
X120784962Y-93351529D01*
X121630149Y-94198402D01*
X122447458Y-95017979D01*
X123228705Y-95802074D01*
X123965705Y-96542504D01*
X124650274Y-97231083D01*
X125274226Y-97859627D01*
X125829378Y-98419951D01*
X126307545Y-98903871D01*
X126700542Y-99303201D01*
X127000185Y-99609757D01*
X127198289Y-99815355D01*
X127286670Y-99911809D01*
X127290667Y-99917989D01*
X127214710Y-99954919D01*
X127021476Y-99977748D01*
X126888337Y-99981333D01*
X126486008Y-99981333D01*
X118252337Y-91747338D01*
X110018667Y-83513343D01*
X110018667Y-83111338D01*
X110030693Y-82876892D01*
G36*
X110030688Y-79490243D02*
G01*
X110061268Y-79345364D01*
X110082297Y-79322667D01*
X110148575Y-79381411D01*
X110326868Y-79552658D01*
X110609701Y-79828930D01*
X110989595Y-80202752D01*
X111459075Y-80666646D01*
X112010662Y-81213134D01*
X112636881Y-81834740D01*
X113330254Y-82523986D01*
X114083303Y-83273396D01*
X114888553Y-84075493D01*
X115738526Y-84922799D01*
X116625746Y-85807837D01*
X117542734Y-86723131D01*
X118482015Y-87661202D01*
X119436111Y-88614575D01*
X120397545Y-89575772D01*
X121358840Y-90537316D01*
X122312520Y-91491729D01*
X123251107Y-92431536D01*
X124167125Y-93349258D01*
X125053096Y-94237419D01*
X125901543Y-95088541D01*
X126704990Y-95895149D01*
X127455960Y-96649763D01*
X128146975Y-97344908D01*
X128770558Y-97973106D01*
X129319233Y-98526881D01*
X129785522Y-98998755D01*
X130161949Y-99381251D01*
X130441037Y-99666892D01*
X130615309Y-99848201D01*
X130677287Y-99917701D01*
X130677333Y-99917964D01*
X130601377Y-99954909D01*
X130408145Y-99977747D01*
X130275031Y-99981333D01*
X129872730Y-99981333D01*
X119945698Y-90054032D01*
X110018667Y-80126731D01*
X110018667Y-79724699D01*
X110030688Y-79490243D01*
X110030688Y-79490243D01*
G37*
X110030688Y-79490243D02*
X110061268Y-79345364D01*
X110082297Y-79322667D01*
X110148575Y-79381411D01*
X110326868Y-79552658D01*
X110609701Y-79828930D01*
X110989595Y-80202752D01*
X111459075Y-80666646D01*
X112010662Y-81213134D01*
X112636881Y-81834740D01*
X113330254Y-82523986D01*
X114083303Y-83273396D01*
X114888553Y-84075493D01*
X115738526Y-84922799D01*
X116625746Y-85807837D01*
X117542734Y-86723131D01*
X118482015Y-87661202D01*
X119436111Y-88614575D01*
X120397545Y-89575772D01*
X121358840Y-90537316D01*
X122312520Y-91491729D01*
X123251107Y-92431536D01*
X124167125Y-93349258D01*
X125053096Y-94237419D01*
X125901543Y-95088541D01*
X126704990Y-95895149D01*
X127455960Y-96649763D01*
X128146975Y-97344908D01*
X128770558Y-97973106D01*
X129319233Y-98526881D01*
X129785522Y-98998755D01*
X130161949Y-99381251D01*
X130441037Y-99666892D01*
X130615309Y-99848201D01*
X130677287Y-99917701D01*
X130677333Y-99917964D01*
X130601377Y-99954909D01*
X130408145Y-99977747D01*
X130275031Y-99981333D01*
X129872730Y-99981333D01*
X119945698Y-90054032D01*
X110018667Y-80126731D01*
X110018667Y-79724699D01*
X110030688Y-79490243D01*
G36*
X110030684Y-76103590D02*
G01*
X110061254Y-75958703D01*
X110082279Y-75936000D01*
X110148092Y-75994819D01*
X110326508Y-76166656D01*
X110610599Y-76444588D01*
X110993440Y-76821686D01*
X111468104Y-77291026D01*
X112027666Y-77845681D01*
X112665200Y-78478725D01*
X113373780Y-79183232D01*
X114146479Y-79952276D01*
X114976372Y-80778932D01*
X115856532Y-81656272D01*
X116780035Y-82577371D01*
X117739953Y-83535303D01*
X118729361Y-84523141D01*
X119741332Y-85533960D01*
X120768941Y-86560834D01*
X121805263Y-87596837D01*
X122843369Y-88635042D01*
X123876336Y-89668523D01*
X124897236Y-90690355D01*
X125899145Y-91693611D01*
X126875135Y-92671365D01*
X127818281Y-93616692D01*
X128721656Y-94522665D01*
X129578336Y-95382358D01*
X130381393Y-96188845D01*
X131123902Y-96935200D01*
X131798937Y-97614497D01*
X132399572Y-98219809D01*
X132918881Y-98744212D01*
X133349937Y-99180778D01*
X133685815Y-99522583D01*
X133919590Y-99762698D01*
X134044334Y-99894200D01*
X134064000Y-99917945D01*
X133988044Y-99954902D01*
X133794813Y-99977747D01*
X133661718Y-99981333D01*
X133259436Y-99981333D01*
X121639051Y-88360718D01*
X110018667Y-76740103D01*
X110018667Y-76338052D01*
X110030684Y-76103590D01*
X110030684Y-76103590D01*
G37*
X110030684Y-76103590D02*
X110061254Y-75958703D01*
X110082279Y-75936000D01*
X110148092Y-75994819D01*
X110326508Y-76166656D01*
X110610599Y-76444588D01*
X110993440Y-76821686D01*
X111468104Y-77291026D01*
X112027666Y-77845681D01*
X112665200Y-78478725D01*
X113373780Y-79183232D01*
X114146479Y-79952276D01*
X114976372Y-80778932D01*
X115856532Y-81656272D01*
X116780035Y-82577371D01*
X117739953Y-83535303D01*
X118729361Y-84523141D01*
X119741332Y-85533960D01*
X120768941Y-86560834D01*
X121805263Y-87596837D01*
X122843369Y-88635042D01*
X123876336Y-89668523D01*
X124897236Y-90690355D01*
X125899145Y-91693611D01*
X126875135Y-92671365D01*
X127818281Y-93616692D01*
X128721656Y-94522665D01*
X129578336Y-95382358D01*
X130381393Y-96188845D01*
X131123902Y-96935200D01*
X131798937Y-97614497D01*
X132399572Y-98219809D01*
X132918881Y-98744212D01*
X133349937Y-99180778D01*
X133685815Y-99522583D01*
X133919590Y-99762698D01*
X134044334Y-99894200D01*
X134064000Y-99917945D01*
X133988044Y-99954902D01*
X133794813Y-99977747D01*
X133661718Y-99981333D01*
X133259436Y-99981333D01*
X121639051Y-88360718D01*
X110018667Y-76740103D01*
X110018667Y-76338052D01*
X110030684Y-76103590D01*
G36*
X110030675Y-72717066D02*
G01*
X110061224Y-72572093D01*
X110082265Y-72549333D01*
X110147703Y-72608213D01*
X110326214Y-72780531D01*
X110611316Y-73059805D01*
X110996528Y-73439556D01*
X111475369Y-73913300D01*
X112041357Y-74474558D01*
X112688012Y-75116848D01*
X113408852Y-75833688D01*
X114197395Y-76618597D01*
X115047161Y-77465094D01*
X115951668Y-78366698D01*
X116904436Y-79316927D01*
X117898982Y-80309300D01*
X118928826Y-81337336D01*
X119987486Y-82394553D01*
X121068481Y-83474471D01*
X122165330Y-84570607D01*
X123271551Y-85676481D01*
X124380664Y-86785611D01*
X125486188Y-87891517D01*
X126581640Y-88987716D01*
X127660539Y-90067727D01*
X128716405Y-91125070D01*
X129742756Y-92153263D01*
X130733112Y-93145824D01*
X131680989Y-94096272D01*
X132579909Y-94998127D01*
X133423388Y-95844906D01*
X134204947Y-96630129D01*
X134918103Y-97347314D01*
X135556375Y-97989980D01*
X136113283Y-98551645D01*
X136582345Y-99025828D01*
X136957080Y-99406049D01*
X137231006Y-99685825D01*
X137397642Y-99858676D01*
X137450667Y-99917931D01*
X137374713Y-99954905D01*
X137181499Y-99977753D01*
X137048600Y-99981333D01*
X136646534Y-99981333D01*
X123332600Y-86667601D01*
X110018667Y-73353868D01*
X110018667Y-72951601D01*
X110030675Y-72717066D01*
X110030675Y-72717066D01*
G37*
X110030675Y-72717066D02*
X110061224Y-72572093D01*
X110082265Y-72549333D01*
X110147703Y-72608213D01*
X110326214Y-72780531D01*
X110611316Y-73059805D01*
X110996528Y-73439556D01*
X111475369Y-73913300D01*
X112041357Y-74474558D01*
X112688012Y-75116848D01*
X113408852Y-75833688D01*
X114197395Y-76618597D01*
X115047161Y-77465094D01*
X115951668Y-78366698D01*
X116904436Y-79316927D01*
X117898982Y-80309300D01*
X118928826Y-81337336D01*
X119987486Y-82394553D01*
X121068481Y-83474471D01*
X122165330Y-84570607D01*
X123271551Y-85676481D01*
X124380664Y-86785611D01*
X125486188Y-87891517D01*
X126581640Y-88987716D01*
X127660539Y-90067727D01*
X128716405Y-91125070D01*
X129742756Y-92153263D01*
X130733112Y-93145824D01*
X131680989Y-94096272D01*
X132579909Y-94998127D01*
X133423388Y-95844906D01*
X134204947Y-96630129D01*
X134918103Y-97347314D01*
X135556375Y-97989980D01*
X136113283Y-98551645D01*
X136582345Y-99025828D01*
X136957080Y-99406049D01*
X137231006Y-99685825D01*
X137397642Y-99858676D01*
X137450667Y-99917931D01*
X137374713Y-99954905D01*
X137181499Y-99977753D01*
X137048600Y-99981333D01*
X136646534Y-99981333D01*
X123332600Y-86667601D01*
X110018667Y-73353868D01*
X110018667Y-72951601D01*
X110030675Y-72717066D01*
G36*
X141643715Y-60018667D02*
G01*
X142933858Y-61310826D01*
X143314226Y-61697601D01*
X143650168Y-62050325D01*
X143924146Y-62349660D01*
X144118621Y-62576271D01*
X144216055Y-62710821D01*
X144224000Y-62733226D01*
X144167783Y-62905881D01*
X144122400Y-62965067D01*
X143958291Y-63055948D01*
X143888684Y-63066667D01*
X143794979Y-63008873D01*
X143600290Y-62846244D01*
X143322128Y-62594913D01*
X142978005Y-62271011D01*
X142585431Y-61890669D01*
X142234333Y-61542667D01*
X140712097Y-60018667D01*
X141643715Y-60018667D01*
X141643715Y-60018667D01*
G37*
X141643715Y-60018667D02*
X142933858Y-61310826D01*
X143314226Y-61697601D01*
X143650168Y-62050325D01*
X143924146Y-62349660D01*
X144118621Y-62576271D01*
X144216055Y-62710821D01*
X144224000Y-62733226D01*
X144167783Y-62905881D01*
X144122400Y-62965067D01*
X143958291Y-63055948D01*
X143888684Y-63066667D01*
X143794979Y-63008873D01*
X143600290Y-62846244D01*
X143322128Y-62594913D01*
X142978005Y-62271011D01*
X142585431Y-61890669D01*
X142234333Y-61542667D01*
X140712097Y-60018667D01*
X141643715Y-60018667D01*
G36*
X130073191Y-86234819D02*
G01*
X130246897Y-86110492D01*
X130334628Y-86096000D01*
X130407453Y-86154477D01*
X130590569Y-86323823D01*
X130874803Y-86594909D01*
X131250982Y-86958606D01*
X131709933Y-87405785D01*
X132242482Y-87927318D01*
X132839456Y-88514076D01*
X133491682Y-89156930D01*
X134189986Y-89846750D01*
X134925196Y-90574410D01*
X135688138Y-91330779D01*
X136469639Y-92106729D01*
X137260525Y-92893131D01*
X138051623Y-93680856D01*
X138833761Y-94460776D01*
X139597765Y-95223762D01*
X140334461Y-95960685D01*
X141034676Y-96662416D01*
X141689238Y-97319826D01*
X142288972Y-97923788D01*
X142824705Y-98465171D01*
X143287265Y-98934847D01*
X143667478Y-99323688D01*
X143956171Y-99622564D01*
X144144171Y-99822347D01*
X144222303Y-99913908D01*
X144224000Y-99918027D01*
X144148043Y-99954933D01*
X143954806Y-99977749D01*
X143821633Y-99981333D01*
X143419267Y-99981333D01*
X136709633Y-93271302D01*
X135823221Y-92383690D01*
X134971070Y-91528146D01*
X134160775Y-90712414D01*
X133399931Y-89944238D01*
X132696135Y-89231364D01*
X132056983Y-88581534D01*
X131490068Y-88002493D01*
X131002988Y-87501987D01*
X130603337Y-87087759D01*
X130298712Y-86767553D01*
X130096707Y-86549113D01*
X130004918Y-86440185D01*
X130000000Y-86430235D01*
X130073191Y-86234819D01*
X130073191Y-86234819D01*
G37*
X130073191Y-86234819D02*
X130246897Y-86110492D01*
X130334628Y-86096000D01*
X130407453Y-86154477D01*
X130590569Y-86323823D01*
X130874803Y-86594909D01*
X131250982Y-86958606D01*
X131709933Y-87405785D01*
X132242482Y-87927318D01*
X132839456Y-88514076D01*
X133491682Y-89156930D01*
X134189986Y-89846750D01*
X134925196Y-90574410D01*
X135688138Y-91330779D01*
X136469639Y-92106729D01*
X137260525Y-92893131D01*
X138051623Y-93680856D01*
X138833761Y-94460776D01*
X139597765Y-95223762D01*
X140334461Y-95960685D01*
X141034676Y-96662416D01*
X141689238Y-97319826D01*
X142288972Y-97923788D01*
X142824705Y-98465171D01*
X143287265Y-98934847D01*
X143667478Y-99323688D01*
X143956171Y-99622564D01*
X144144171Y-99822347D01*
X144222303Y-99913908D01*
X144224000Y-99918027D01*
X144148043Y-99954933D01*
X143954806Y-99977749D01*
X143821633Y-99981333D01*
X143419267Y-99981333D01*
X136709633Y-93271302D01*
X135823221Y-92383690D01*
X134971070Y-91528146D01*
X134160775Y-90712414D01*
X133399931Y-89944238D01*
X132696135Y-89231364D01*
X132056983Y-88581534D01*
X131490068Y-88002493D01*
X131002988Y-87501987D01*
X130603337Y-87087759D01*
X130298712Y-86767553D01*
X130096707Y-86549113D01*
X130004918Y-86440185D01*
X130000000Y-86430235D01*
X130073191Y-86234819D01*
G36*
X110030632Y-69330273D02*
G01*
X110061070Y-69185376D01*
X110082008Y-69162667D01*
X110148285Y-69221455D01*
X110327376Y-69393305D01*
X110612455Y-69671441D01*
X110996698Y-70049091D01*
X111473279Y-70519481D01*
X112035372Y-71075836D01*
X112676154Y-71711384D01*
X113388798Y-72419349D01*
X114166480Y-73192959D01*
X115002374Y-74025440D01*
X115889656Y-74910017D01*
X116821500Y-75839917D01*
X117791082Y-76808367D01*
X118548601Y-77565600D01*
X126951853Y-85968534D01*
X128412205Y-84508181D01*
X129872558Y-83047829D01*
X119945612Y-73120613D01*
X110018667Y-63193398D01*
X110018667Y-62791366D01*
X110030677Y-62556910D01*
X110061228Y-62412031D01*
X110082238Y-62389333D01*
X110146872Y-62448346D01*
X110325578Y-62621698D01*
X110612824Y-62903856D01*
X111003080Y-63289290D01*
X111490814Y-63772468D01*
X112070494Y-64347859D01*
X112736590Y-65009930D01*
X113483569Y-65753152D01*
X114305900Y-66571992D01*
X115198053Y-67460919D01*
X116154494Y-68414402D01*
X117169694Y-69426908D01*
X118238121Y-70492908D01*
X119354242Y-71606868D01*
X120512528Y-72763259D01*
X121707446Y-73956547D01*
X122933465Y-75181203D01*
X124185054Y-76431694D01*
X125456681Y-77702490D01*
X126742814Y-78988058D01*
X128037923Y-80282867D01*
X129336477Y-81581386D01*
X130632942Y-82878083D01*
X131921789Y-84167428D01*
X133197486Y-85443888D01*
X134454501Y-86701932D01*
X135687303Y-87936029D01*
X136890360Y-89140647D01*
X138058142Y-90310254D01*
X139185117Y-91439321D01*
X140265752Y-92522314D01*
X141294518Y-93553703D01*
X142265882Y-94527955D01*
X143174314Y-95439541D01*
X144014281Y-96282928D01*
X144780252Y-97052584D01*
X145466696Y-97742979D01*
X146068082Y-98348581D01*
X146578878Y-98863859D01*
X146993552Y-99283281D01*
X147306574Y-99601315D01*
X147512412Y-99812431D01*
X147605534Y-99911096D01*
X147610667Y-99917905D01*
X147534714Y-99954896D01*
X147341504Y-99977753D01*
X147208662Y-99981333D01*
X146806657Y-99981333D01*
X138572734Y-91747735D01*
X130338810Y-83514136D01*
X128878492Y-84974455D01*
X127418173Y-86434774D01*
X134127753Y-93144752D01*
X135013674Y-94031279D01*
X135865376Y-94884644D01*
X136675277Y-95697194D01*
X137435795Y-96461274D01*
X138139346Y-97169228D01*
X138778348Y-97813402D01*
X139345218Y-98386141D01*
X139832372Y-98879791D01*
X140232229Y-99286696D01*
X140537205Y-99599201D01*
X140739718Y-99809653D01*
X140832184Y-99910395D01*
X140837333Y-99918032D01*
X140761378Y-99954939D01*
X140568148Y-99977753D01*
X140435077Y-99981333D01*
X140032821Y-99981333D01*
X125025744Y-84974078D01*
X110018667Y-69966822D01*
X110018667Y-69564744D01*
X110030632Y-69330273D01*
X110030632Y-69330273D01*
G37*
X110030632Y-69330273D02*
X110061070Y-69185376D01*
X110082008Y-69162667D01*
X110148285Y-69221455D01*
X110327376Y-69393305D01*
X110612455Y-69671441D01*
X110996698Y-70049091D01*
X111473279Y-70519481D01*
X112035372Y-71075836D01*
X112676154Y-71711384D01*
X113388798Y-72419349D01*
X114166480Y-73192959D01*
X115002374Y-74025440D01*
X115889656Y-74910017D01*
X116821500Y-75839917D01*
X117791082Y-76808367D01*
X118548601Y-77565600D01*
X126951853Y-85968534D01*
X128412205Y-84508181D01*
X129872558Y-83047829D01*
X119945612Y-73120613D01*
X110018667Y-63193398D01*
X110018667Y-62791366D01*
X110030677Y-62556910D01*
X110061228Y-62412031D01*
X110082238Y-62389333D01*
X110146872Y-62448346D01*
X110325578Y-62621698D01*
X110612824Y-62903856D01*
X111003080Y-63289290D01*
X111490814Y-63772468D01*
X112070494Y-64347859D01*
X112736590Y-65009930D01*
X113483569Y-65753152D01*
X114305900Y-66571992D01*
X115198053Y-67460919D01*
X116154494Y-68414402D01*
X117169694Y-69426908D01*
X118238121Y-70492908D01*
X119354242Y-71606868D01*
X120512528Y-72763259D01*
X121707446Y-73956547D01*
X122933465Y-75181203D01*
X124185054Y-76431694D01*
X125456681Y-77702490D01*
X126742814Y-78988058D01*
X128037923Y-80282867D01*
X129336477Y-81581386D01*
X130632942Y-82878083D01*
X131921789Y-84167428D01*
X133197486Y-85443888D01*
X134454501Y-86701932D01*
X135687303Y-87936029D01*
X136890360Y-89140647D01*
X138058142Y-90310254D01*
X139185117Y-91439321D01*
X140265752Y-92522314D01*
X141294518Y-93553703D01*
X142265882Y-94527955D01*
X143174314Y-95439541D01*
X144014281Y-96282928D01*
X144780252Y-97052584D01*
X145466696Y-97742979D01*
X146068082Y-98348581D01*
X146578878Y-98863859D01*
X146993552Y-99283281D01*
X147306574Y-99601315D01*
X147512412Y-99812431D01*
X147605534Y-99911096D01*
X147610667Y-99917905D01*
X147534714Y-99954896D01*
X147341504Y-99977753D01*
X147208662Y-99981333D01*
X146806657Y-99981333D01*
X138572734Y-91747735D01*
X130338810Y-83514136D01*
X128878492Y-84974455D01*
X127418173Y-86434774D01*
X134127753Y-93144752D01*
X135013674Y-94031279D01*
X135865376Y-94884644D01*
X136675277Y-95697194D01*
X137435795Y-96461274D01*
X138139346Y-97169228D01*
X138778348Y-97813402D01*
X139345218Y-98386141D01*
X139832372Y-98879791D01*
X140232229Y-99286696D01*
X140537205Y-99599201D01*
X140739718Y-99809653D01*
X140832184Y-99910395D01*
X140837333Y-99918032D01*
X140761378Y-99954939D01*
X140568148Y-99977753D01*
X140435077Y-99981333D01*
X140032821Y-99981333D01*
X125025744Y-84974078D01*
X110018667Y-69966822D01*
X110018667Y-69564744D01*
X110030632Y-69330273D01*
G36*
X147962107Y-60034902D02*
G01*
X148401913Y-60008803D01*
X149191623Y-60795230D01*
X149981333Y-61581656D01*
X149981333Y-62514143D01*
X148751817Y-61287572D01*
X147522300Y-60061000D01*
X147962107Y-60034902D01*
X147962107Y-60034902D01*
G37*
X147962107Y-60034902D02*
X148401913Y-60008803D01*
X149191623Y-60795230D01*
X149981333Y-61581656D01*
X149981333Y-62514143D01*
X148751817Y-61287572D01*
X147522300Y-60061000D01*
X147962107Y-60034902D01*
G36*
X147006605Y-65914810D02*
G01*
X147180932Y-65790370D01*
X147268791Y-65776000D01*
X147365369Y-65833672D01*
X147560861Y-65994975D01*
X147835925Y-66242338D01*
X148171221Y-66558192D01*
X148547408Y-66924966D01*
X148691191Y-67068160D01*
X149981333Y-68360319D01*
X149981333Y-69287903D01*
X148457333Y-67765667D01*
X148042315Y-67346119D01*
X147670310Y-66960447D01*
X147357449Y-66626160D01*
X147119864Y-66360770D01*
X146973686Y-66181790D01*
X146933333Y-66111316D01*
X147006605Y-65914810D01*
X147006605Y-65914810D01*
G37*
X147006605Y-65914810D02*
X147180932Y-65790370D01*
X147268791Y-65776000D01*
X147365369Y-65833672D01*
X147560861Y-65994975D01*
X147835925Y-66242338D01*
X148171221Y-66558192D01*
X148547408Y-66924966D01*
X148691191Y-67068160D01*
X149981333Y-68360319D01*
X149981333Y-69287903D01*
X148457333Y-67765667D01*
X148042315Y-67346119D01*
X147670310Y-66960447D01*
X147357449Y-66626160D01*
X147119864Y-66360770D01*
X146973686Y-66181790D01*
X146933333Y-66111316D01*
X147006605Y-65914810D01*
G36*
X137804094Y-60034863D02*
G01*
X138244122Y-60008727D01*
X143885500Y-65648219D01*
X145345267Y-64188453D01*
X146805033Y-62728686D01*
X145452009Y-61373677D01*
X144098985Y-60018667D01*
X145029410Y-60018667D01*
X147505371Y-62495696D01*
X149981333Y-64972725D01*
X149981333Y-65901015D01*
X148626323Y-64547991D01*
X147271314Y-63194967D01*
X145811547Y-64654733D01*
X144351781Y-66114500D01*
X149981333Y-71745934D01*
X149981333Y-72675907D01*
X143672700Y-66368454D01*
X137364067Y-60061000D01*
X137804094Y-60034863D01*
X137804094Y-60034863D01*
G37*
X137804094Y-60034863D02*
X138244122Y-60008727D01*
X143885500Y-65648219D01*
X145345267Y-64188453D01*
X146805033Y-62728686D01*
X145452009Y-61373677D01*
X144098985Y-60018667D01*
X145029410Y-60018667D01*
X147505371Y-62495696D01*
X149981333Y-64972725D01*
X149981333Y-65901015D01*
X148626323Y-64547991D01*
X147271314Y-63194967D01*
X145811547Y-64654733D01*
X144351781Y-66114500D01*
X149981333Y-71745934D01*
X149981333Y-72675907D01*
X143672700Y-66368454D01*
X137364067Y-60061000D01*
X137804094Y-60034863D01*
G36*
X134417755Y-60034854D02*
G01*
X134858020Y-60008707D01*
X142419677Y-67570010D01*
X149981333Y-75131312D01*
X149981333Y-76062664D01*
X141979412Y-68061832D01*
X133977490Y-60061000D01*
X134417755Y-60034854D01*
X134417755Y-60034854D01*
G37*
X134417755Y-60034854D02*
X134858020Y-60008707D01*
X142419677Y-67570010D01*
X149981333Y-75131312D01*
X149981333Y-76062664D01*
X141979412Y-68061832D01*
X133977490Y-60061000D01*
X134417755Y-60034854D01*
G36*
X131031149Y-60034853D02*
G01*
X131471416Y-60008705D01*
X140726374Y-69263374D01*
X149981333Y-78518044D01*
X149981333Y-79449390D01*
X140286107Y-69755195D01*
X130590882Y-60061000D01*
X131031149Y-60034853D01*
X131031149Y-60034853D01*
G37*
X131031149Y-60034853D02*
X131471416Y-60008705D01*
X140726374Y-69263374D01*
X149981333Y-78518044D01*
X149981333Y-79449390D01*
X140286107Y-69755195D01*
X130590882Y-60061000D01*
X131031149Y-60034853D01*
G36*
X127644524Y-60034852D02*
G01*
X128084792Y-60008703D01*
X139033063Y-70956729D01*
X149981333Y-81904755D01*
X149981333Y-82836097D01*
X138592795Y-71448549D01*
X127204256Y-60061000D01*
X127644524Y-60034852D01*
X127644524Y-60034852D01*
G37*
X127644524Y-60034852D02*
X128084792Y-60008703D01*
X139033063Y-70956729D01*
X149981333Y-81904755D01*
X149981333Y-82836097D01*
X138592795Y-71448549D01*
X127204256Y-60061000D01*
X127644524Y-60034852D01*
G36*
X136846540Y-76074843D02*
G01*
X137020362Y-75950439D01*
X137107977Y-75936000D01*
X137184494Y-75994708D01*
X137372513Y-76165635D01*
X137664074Y-76440984D01*
X138051221Y-76812959D01*
X138525998Y-77273762D01*
X139080446Y-77815596D01*
X139706609Y-78430666D01*
X140396531Y-79111174D01*
X141142253Y-79849323D01*
X141935818Y-80637318D01*
X142769271Y-81467360D01*
X143610377Y-82307376D01*
X149981333Y-88678751D01*
X149981333Y-89609260D01*
X143377333Y-83005667D01*
X142498008Y-82125227D01*
X141653007Y-81276874D01*
X140849990Y-80468417D01*
X140096611Y-79707665D01*
X139400530Y-79002428D01*
X138769402Y-78360515D01*
X138210886Y-77789734D01*
X137732639Y-77297895D01*
X137342317Y-76892808D01*
X137047578Y-76582281D01*
X136856080Y-76374123D01*
X136775479Y-76276143D01*
X136773333Y-76270637D01*
X136846540Y-76074843D01*
X136846540Y-76074843D01*
G37*
X136846540Y-76074843D02*
X137020362Y-75950439D01*
X137107977Y-75936000D01*
X137184494Y-75994708D01*
X137372513Y-76165635D01*
X137664074Y-76440984D01*
X138051221Y-76812959D01*
X138525998Y-77273762D01*
X139080446Y-77815596D01*
X139706609Y-78430666D01*
X140396531Y-79111174D01*
X141142253Y-79849323D01*
X141935818Y-80637318D01*
X142769271Y-81467360D01*
X143610377Y-82307376D01*
X149981333Y-88678751D01*
X149981333Y-89609260D01*
X143377333Y-83005667D01*
X142498008Y-82125227D01*
X141653007Y-81276874D01*
X140849990Y-80468417D01*
X140096611Y-79707665D01*
X139400530Y-79002428D01*
X138769402Y-78360515D01*
X138210886Y-77789734D01*
X137732639Y-77297895D01*
X137342317Y-76892808D01*
X137047578Y-76582281D01*
X136856080Y-76374123D01*
X136775479Y-76276143D01*
X136773333Y-76270637D01*
X136846540Y-76074843D01*
G36*
X117484394Y-60034858D02*
G01*
X117924459Y-60008715D01*
X122438224Y-64521889D01*
X126951990Y-69035063D01*
X129872252Y-66114801D01*
X123777882Y-60018667D01*
X124708546Y-60018667D01*
X137344939Y-72655273D01*
X149981333Y-85291879D01*
X149981333Y-86222582D01*
X143546715Y-79788382D01*
X137112098Y-73354182D01*
X134191476Y-76274804D01*
X142086405Y-84170071D01*
X149981333Y-92065338D01*
X149981333Y-92996170D01*
X133724541Y-76740284D01*
X133724541Y-75807924D01*
X135164270Y-74370063D01*
X135565934Y-73967178D01*
X135924440Y-73604248D01*
X136223343Y-73298191D01*
X136446200Y-73065930D01*
X136576568Y-72924386D01*
X136604000Y-72888505D01*
X136545882Y-72822029D01*
X136378933Y-72647279D01*
X136114263Y-72375516D01*
X135762979Y-72017999D01*
X135336189Y-71585989D01*
X134845003Y-71090747D01*
X134300528Y-70543532D01*
X133713874Y-69955605D01*
X133471272Y-69712939D01*
X130338544Y-66581069D01*
X128878330Y-68041284D01*
X127418115Y-69501498D01*
X133724541Y-75807924D01*
X133724541Y-76740284D01*
X117044329Y-60061000D01*
X117484394Y-60034858D01*
X117484394Y-60034858D01*
G37*
X117484394Y-60034858D02*
X117924459Y-60008715D01*
X122438224Y-64521889D01*
X126951990Y-69035063D01*
X129872252Y-66114801D01*
X123777882Y-60018667D01*
X124708546Y-60018667D01*
X137344939Y-72655273D01*
X149981333Y-85291879D01*
X149981333Y-86222582D01*
X143546715Y-79788382D01*
X137112098Y-73354182D01*
X134191476Y-76274804D01*
X142086405Y-84170071D01*
X149981333Y-92065338D01*
X149981333Y-92996170D01*
X133724541Y-76740284D01*
X133724541Y-75807924D01*
X135164270Y-74370063D01*
X135565934Y-73967178D01*
X135924440Y-73604248D01*
X136223343Y-73298191D01*
X136446200Y-73065930D01*
X136576568Y-72924386D01*
X136604000Y-72888505D01*
X136545882Y-72822029D01*
X136378933Y-72647279D01*
X136114263Y-72375516D01*
X135762979Y-72017999D01*
X135336189Y-71585989D01*
X134845003Y-71090747D01*
X134300528Y-70543532D01*
X133713874Y-69955605D01*
X133471272Y-69712939D01*
X130338544Y-66581069D01*
X128878330Y-68041284D01*
X127418115Y-69501498D01*
X133724541Y-75807924D01*
X133724541Y-76740284D01*
X117044329Y-60061000D01*
X117484394Y-60034858D01*
G36*
X116526529Y-62528181D02*
G01*
X116700266Y-62403786D01*
X116787848Y-62389333D01*
X116858079Y-62448450D01*
X117043072Y-62622580D01*
X117337959Y-62906893D01*
X117737871Y-63296559D01*
X118237941Y-63786748D01*
X118833300Y-64372631D01*
X119519080Y-65049378D01*
X120290412Y-65812158D01*
X121142429Y-66656142D01*
X122070262Y-67576500D01*
X123069043Y-68568401D01*
X124133904Y-69627016D01*
X125259976Y-70747516D01*
X126442392Y-71925069D01*
X127676282Y-73154847D01*
X128956779Y-74432018D01*
X130279015Y-75751754D01*
X131638120Y-77109225D01*
X133029228Y-78499600D01*
X133450248Y-78920581D01*
X149981333Y-95451829D01*
X149981333Y-96382840D01*
X133217333Y-79619000D01*
X131808154Y-78209372D01*
X130430403Y-76830269D01*
X129088875Y-75486527D01*
X127788368Y-74182978D01*
X126533677Y-72924456D01*
X125329598Y-71715795D01*
X124180927Y-70561830D01*
X123092462Y-69467392D01*
X122068997Y-68437317D01*
X121115330Y-67476438D01*
X120236256Y-66589588D01*
X119436571Y-65781601D01*
X118721072Y-65057312D01*
X118094555Y-64421553D01*
X117561816Y-63879159D01*
X117127652Y-63434963D01*
X116796857Y-63093798D01*
X116574230Y-62860499D01*
X116464565Y-62739900D01*
X116453333Y-62723847D01*
X116526529Y-62528181D01*
X116526529Y-62528181D01*
G37*
X116526529Y-62528181D02*
X116700266Y-62403786D01*
X116787848Y-62389333D01*
X116858079Y-62448450D01*
X117043072Y-62622580D01*
X117337959Y-62906893D01*
X117737871Y-63296559D01*
X118237941Y-63786748D01*
X118833300Y-64372631D01*
X119519080Y-65049378D01*
X120290412Y-65812158D01*
X121142429Y-66656142D01*
X122070262Y-67576500D01*
X123069043Y-68568401D01*
X124133904Y-69627016D01*
X125259976Y-70747516D01*
X126442392Y-71925069D01*
X127676282Y-73154847D01*
X128956779Y-74432018D01*
X130279015Y-75751754D01*
X131638120Y-77109225D01*
X133029228Y-78499600D01*
X133450248Y-78920581D01*
X149981333Y-95451829D01*
X149981333Y-96382840D01*
X133217333Y-79619000D01*
X131808154Y-78209372D01*
X130430403Y-76830269D01*
X129088875Y-75486527D01*
X127788368Y-74182978D01*
X126533677Y-72924456D01*
X125329598Y-71715795D01*
X124180927Y-70561830D01*
X123092462Y-69467392D01*
X122068997Y-68437317D01*
X121115330Y-67476438D01*
X120236256Y-66589588D01*
X119436571Y-65781601D01*
X118721072Y-65057312D01*
X118094555Y-64421553D01*
X117561816Y-63879159D01*
X117127652Y-63434963D01*
X116796857Y-63093798D01*
X116574230Y-62860499D01*
X116464565Y-62739900D01*
X116453333Y-62723847D01*
X116526529Y-62528181D01*
G36*
X111149481Y-60008772D02*
G01*
X112277407Y-61134376D01*
X113405333Y-62259981D01*
X114528302Y-61139324D01*
X115651270Y-60018667D01*
X116578348Y-60018667D01*
X115225208Y-61373793D01*
X113872067Y-62728919D01*
X131926700Y-80783700D01*
X149981333Y-98838482D01*
X149981333Y-99769531D01*
X130126178Y-79915266D01*
X110271023Y-60061000D01*
X111149481Y-60008772D01*
X111149481Y-60008772D01*
G37*
X111149481Y-60008772D02*
X112277407Y-61134376D01*
X113405333Y-62259981D01*
X114528302Y-61139324D01*
X115651270Y-60018667D01*
X116578348Y-60018667D01*
X115225208Y-61373793D01*
X113872067Y-62728919D01*
X131926700Y-80783700D01*
X149981333Y-98838482D01*
X149981333Y-99769531D01*
X130126178Y-79915266D01*
X110271023Y-60061000D01*
X111149481Y-60008772D01*
M02*
