G04 #@! TF.GenerationSoftware,KiCad,Pcbnew,(5.1.4)-1*
G04 #@! TF.CreationDate,2019-10-09T21:16:12+02:00*
G04 #@! TF.ProjectId,Front,46726f6e-742e-46b6-9963-61645f706362,rev?*
G04 #@! TF.SameCoordinates,Original*
G04 #@! TF.FileFunction,Copper,L2,Bot*
G04 #@! TF.FilePolarity,Positive*
%FSLAX46Y46*%
G04 Gerber Fmt 4.6, Leading zero omitted, Abs format (unit mm)*
G04 Created by KiCad (PCBNEW (5.1.4)-1) date 2019-10-09 21:16:12*
%MOMM*%
%LPD*%
G04 APERTURE LIST*
%ADD10C,0.100000*%
%ADD11C,1.000000*%
%ADD12C,0.800000*%
%ADD13C,0.200000*%
%ADD14C,0.400000*%
%ADD15C,0.254000*%
G04 APERTURE END LIST*
D10*
X225200000Y-121400000D02*
X230300000Y-121400000D01*
X225200000Y-124600000D02*
X225200000Y-121400000D01*
X230300000Y-124600000D02*
X225200000Y-124600000D01*
X230300000Y-121400000D02*
X230300000Y-124600000D01*
X195500000Y-143000000D02*
X195500000Y-103000000D01*
X235500000Y-143000000D02*
X195500000Y-143000000D01*
X235500000Y-103000000D02*
X235500000Y-143000000D01*
X195500000Y-103000000D02*
X235500000Y-103000000D01*
D11*
X224000000Y-118445000D03*
X207000000Y-118445000D03*
X196700000Y-140550000D03*
X234300000Y-140550000D03*
X231680000Y-130470000D03*
X234300000Y-105450000D03*
X210050000Y-104400000D03*
X220950000Y-104400000D03*
X209785000Y-135955000D03*
D12*
X215500000Y-118150000D03*
X196940000Y-132990000D03*
X226980000Y-126140000D03*
X204070000Y-140550000D03*
X206610000Y-140550000D03*
X209130000Y-140550000D03*
X211690000Y-140550000D03*
X214220000Y-140550000D03*
X216760000Y-140550000D03*
X219300000Y-140550000D03*
X221850000Y-140550000D03*
X224370000Y-140550000D03*
X226930000Y-140550000D03*
D11*
X215500000Y-104966000D03*
D12*
X229978000Y-134938000D03*
X231756000Y-126810000D03*
X215500000Y-130600000D03*
X204324000Y-114618000D03*
X218802000Y-108776000D03*
X224020000Y-104650000D03*
X226500000Y-109750000D03*
X215500000Y-120850000D03*
D11*
X200640001Y-117630624D03*
X200640001Y-119689377D03*
X196700000Y-105450000D03*
D12*
X229300000Y-109750000D03*
D11*
X234500000Y-115215000D03*
X234500000Y-109965000D03*
X198900000Y-115112500D03*
X196600000Y-115560000D03*
X196600000Y-113490000D03*
X196600000Y-111810000D03*
X196600000Y-109740000D03*
X198900000Y-110187500D03*
D12*
X201950000Y-110200000D03*
X200200000Y-105450000D03*
X203700000Y-105450000D03*
X199614998Y-118660000D03*
X201665002Y-118660000D03*
D11*
X201530000Y-122746000D03*
X234220000Y-130470000D03*
X230800000Y-105450000D03*
X230800000Y-142149990D03*
X200200000Y-142149990D03*
X200200000Y-138950000D03*
X230800000Y-138950000D03*
X230100000Y-111700000D03*
D12*
X228299937Y-117441576D03*
X208750000Y-119500000D03*
X206099990Y-109099990D03*
X209000000Y-118250000D03*
X224000000Y-134955000D03*
X202788127Y-137405746D03*
X222000000Y-123500000D03*
X201530000Y-124210000D03*
X222000000Y-122250000D03*
X199500000Y-125000000D03*
X198225000Y-129305000D03*
X201075002Y-111800000D03*
X198225000Y-128035000D03*
X201075002Y-112850000D03*
D13*
X201099317Y-118660000D02*
X199614998Y-118660000D01*
X201665002Y-118660000D02*
X201099317Y-118660000D01*
D14*
X201950000Y-118375002D02*
X201665002Y-118660000D01*
X201950000Y-110200000D02*
X201950000Y-118375002D01*
X200907106Y-142149990D02*
X230800000Y-142149990D01*
X200200000Y-142149990D02*
X200907106Y-142149990D01*
X200534990Y-123741010D02*
X201530000Y-122746000D01*
X200534990Y-136949010D02*
X200534990Y-123741010D01*
X200200000Y-138950000D02*
X200200000Y-137284000D01*
X200200000Y-137284000D02*
X200534990Y-136949010D01*
X234220000Y-135530000D02*
X234220000Y-135020000D01*
X230800000Y-138950000D02*
X234220000Y-135530000D01*
X234220000Y-135020000D02*
X234220000Y-130470000D01*
X230100000Y-110950000D02*
X230100000Y-111700000D01*
X230800000Y-110250000D02*
X230100000Y-110950000D01*
X230800000Y-105450000D02*
X230800000Y-110250000D01*
X234220000Y-130470000D02*
X234220000Y-120170000D01*
X230100000Y-116050000D02*
X230100000Y-111700000D01*
X234220000Y-120170000D02*
X230100000Y-116050000D01*
D13*
X222808424Y-117441576D02*
X226558424Y-117441576D01*
X228299937Y-117441576D02*
X226558424Y-117441576D01*
X226558424Y-117441576D02*
X226308424Y-117441576D01*
X220750000Y-119500000D02*
X222125000Y-118125000D01*
X208750000Y-119500000D02*
X220750000Y-119500000D01*
X222125000Y-118125000D02*
X222808424Y-117441576D01*
X206099990Y-109400010D02*
X206099990Y-109099990D01*
X206099990Y-116824270D02*
X206099990Y-109400010D01*
X206275730Y-117000010D02*
X206099990Y-116824270D01*
X209000000Y-118250000D02*
X207750010Y-117000010D01*
X207750010Y-117000010D02*
X206275730Y-117000010D01*
X204594254Y-137405746D02*
X202788127Y-137405746D01*
X224000000Y-134955000D02*
X207045000Y-134955000D01*
X207045000Y-134955000D02*
X204594254Y-137405746D01*
X202240000Y-123500000D02*
X201530000Y-124210000D01*
X222000000Y-123500000D02*
X202240000Y-123500000D01*
X222000000Y-122250000D02*
X203000000Y-122250000D01*
X203000000Y-122250000D02*
X202500000Y-121750000D01*
X201000000Y-121750000D02*
X199500000Y-123250000D01*
X202500000Y-121750000D02*
X201000000Y-121750000D01*
X199500000Y-125000000D02*
X199500000Y-123250000D01*
X197815000Y-128895000D02*
X198225000Y-129305000D01*
X197326800Y-128895000D02*
X197815000Y-128895000D01*
X200775002Y-112100000D02*
X199631800Y-112100000D01*
X197525000Y-114206800D02*
X197525000Y-121336800D01*
X201075002Y-111800000D02*
X200775002Y-112100000D01*
X199631800Y-112100000D02*
X197525000Y-114206800D01*
X197525000Y-121336800D02*
X196525000Y-122336800D01*
X196525000Y-122336800D02*
X196525000Y-128093200D01*
X196525000Y-128093200D02*
X197326800Y-128895000D01*
X197975000Y-114393200D02*
X197975000Y-121523200D01*
X199818200Y-112550000D02*
X197975000Y-114393200D01*
X200775002Y-112550000D02*
X199818200Y-112550000D01*
X201075002Y-112850000D02*
X200775002Y-112550000D01*
X197975000Y-121523200D02*
X196975000Y-122523200D01*
X197513200Y-128445000D02*
X197815000Y-128445000D01*
X196975000Y-122523200D02*
X196975000Y-127906800D01*
X197815000Y-128445000D02*
X198225000Y-128035000D01*
X196975000Y-127906800D02*
X197513200Y-128445000D01*
D15*
G36*
X234815000Y-119578792D02*
G01*
X234813291Y-119576709D01*
X234781432Y-119550563D01*
X230935000Y-115704133D01*
X230935000Y-112470132D01*
X230981612Y-112423520D01*
X231105824Y-112237624D01*
X231191383Y-112031067D01*
X231235000Y-111811788D01*
X231235000Y-111588212D01*
X231191383Y-111368933D01*
X231105824Y-111162376D01*
X231090871Y-111139997D01*
X231361426Y-110869442D01*
X231393291Y-110843291D01*
X231497636Y-110716146D01*
X231575172Y-110571087D01*
X231622918Y-110413689D01*
X231635000Y-110291019D01*
X231635000Y-110291009D01*
X231639039Y-110250001D01*
X231635000Y-110208993D01*
X231635000Y-106220132D01*
X231681612Y-106173520D01*
X231805824Y-105987624D01*
X231891383Y-105781067D01*
X231935000Y-105561788D01*
X231935000Y-105338212D01*
X231891383Y-105118933D01*
X231805824Y-104912376D01*
X231681612Y-104726480D01*
X231523520Y-104568388D01*
X231337624Y-104444176D01*
X231131067Y-104358617D01*
X230911788Y-104315000D01*
X230688212Y-104315000D01*
X230468933Y-104358617D01*
X230262376Y-104444176D01*
X230076480Y-104568388D01*
X229918388Y-104726480D01*
X229794176Y-104912376D01*
X229708617Y-105118933D01*
X229665000Y-105338212D01*
X229665000Y-105561788D01*
X229708617Y-105781067D01*
X229794176Y-105987624D01*
X229918388Y-106173520D01*
X229965000Y-106220132D01*
X229965001Y-109904131D01*
X229538578Y-110330554D01*
X229506709Y-110356709D01*
X229402365Y-110483854D01*
X229402364Y-110483855D01*
X229324828Y-110628914D01*
X229277082Y-110786312D01*
X229262718Y-110932150D01*
X229218388Y-110976480D01*
X229094176Y-111162376D01*
X229008617Y-111368933D01*
X228965000Y-111588212D01*
X228965000Y-111811788D01*
X229008617Y-112031067D01*
X229094176Y-112237624D01*
X229218388Y-112423520D01*
X229265001Y-112470133D01*
X229265000Y-116008981D01*
X229260960Y-116050000D01*
X229265000Y-116091018D01*
X229277082Y-116213688D01*
X229324828Y-116371086D01*
X229402364Y-116516145D01*
X229506709Y-116643291D01*
X229538579Y-116669446D01*
X233385001Y-120515870D01*
X233385000Y-129699868D01*
X233338388Y-129746480D01*
X233214176Y-129932376D01*
X233128617Y-130138933D01*
X233085000Y-130358212D01*
X233085000Y-130581788D01*
X233128617Y-130801067D01*
X233214176Y-131007624D01*
X233338388Y-131193520D01*
X233385001Y-131240133D01*
X233385000Y-134978981D01*
X233385000Y-135184132D01*
X230754133Y-137815000D01*
X230688212Y-137815000D01*
X230468933Y-137858617D01*
X230262376Y-137944176D01*
X230076480Y-138068388D01*
X229918388Y-138226480D01*
X229794176Y-138412376D01*
X229708617Y-138618933D01*
X229665000Y-138838212D01*
X229665000Y-139061788D01*
X229708617Y-139281067D01*
X229794176Y-139487624D01*
X229918388Y-139673520D01*
X230076480Y-139831612D01*
X230262376Y-139955824D01*
X230468933Y-140041383D01*
X230688212Y-140085000D01*
X230911788Y-140085000D01*
X231131067Y-140041383D01*
X231337624Y-139955824D01*
X231523520Y-139831612D01*
X231681612Y-139673520D01*
X231805824Y-139487624D01*
X231891383Y-139281067D01*
X231935000Y-139061788D01*
X231935000Y-138995867D01*
X234781428Y-136149440D01*
X234813291Y-136123291D01*
X234815001Y-136121208D01*
X234815001Y-142315000D01*
X231924414Y-142315000D01*
X231935000Y-142261778D01*
X231935000Y-142038202D01*
X231891383Y-141818923D01*
X231805824Y-141612366D01*
X231681612Y-141426470D01*
X231523520Y-141268378D01*
X231337624Y-141144166D01*
X231131067Y-141058607D01*
X230911788Y-141014990D01*
X230688212Y-141014990D01*
X230468933Y-141058607D01*
X230262376Y-141144166D01*
X230076480Y-141268378D01*
X230029868Y-141314990D01*
X200970132Y-141314990D01*
X200923520Y-141268378D01*
X200737624Y-141144166D01*
X200531067Y-141058607D01*
X200311788Y-141014990D01*
X200088212Y-141014990D01*
X199868933Y-141058607D01*
X199662376Y-141144166D01*
X199476480Y-141268378D01*
X199318388Y-141426470D01*
X199194176Y-141612366D01*
X199108617Y-141818923D01*
X199065000Y-142038202D01*
X199065000Y-142261778D01*
X199075586Y-142315000D01*
X196185000Y-142315000D01*
X196185000Y-128792646D01*
X196781546Y-129389193D01*
X196804562Y-129417238D01*
X196916480Y-129509087D01*
X197044167Y-129577337D01*
X197182715Y-129619365D01*
X197237159Y-129624727D01*
X197307795Y-129795256D01*
X197421063Y-129964774D01*
X197565226Y-130108937D01*
X197734744Y-130222205D01*
X197923102Y-130300226D01*
X198123061Y-130340000D01*
X198326939Y-130340000D01*
X198526898Y-130300226D01*
X198715256Y-130222205D01*
X198884774Y-130108937D01*
X199028937Y-129964774D01*
X199142205Y-129795256D01*
X199220226Y-129606898D01*
X199260000Y-129406939D01*
X199260000Y-129203061D01*
X199220226Y-129003102D01*
X199142205Y-128814744D01*
X199045490Y-128670000D01*
X199142205Y-128525256D01*
X199220226Y-128336898D01*
X199260000Y-128136939D01*
X199260000Y-127933061D01*
X199220226Y-127733102D01*
X199142205Y-127544744D01*
X199028937Y-127375226D01*
X198884774Y-127231063D01*
X198715256Y-127117795D01*
X198526898Y-127039774D01*
X198326939Y-127000000D01*
X198123061Y-127000000D01*
X197923102Y-127039774D01*
X197734744Y-127117795D01*
X197710000Y-127134328D01*
X197710000Y-124898061D01*
X198465000Y-124898061D01*
X198465000Y-125101939D01*
X198504774Y-125301898D01*
X198582795Y-125490256D01*
X198696063Y-125659774D01*
X198840226Y-125803937D01*
X199009744Y-125917205D01*
X199198102Y-125995226D01*
X199398061Y-126035000D01*
X199601939Y-126035000D01*
X199699991Y-126015496D01*
X199699990Y-136603143D01*
X199638574Y-136664559D01*
X199606710Y-136690709D01*
X199580562Y-136722571D01*
X199502364Y-136817855D01*
X199424828Y-136962914D01*
X199377082Y-137120312D01*
X199360960Y-137284000D01*
X199365001Y-137325028D01*
X199365000Y-138179868D01*
X199318388Y-138226480D01*
X199194176Y-138412376D01*
X199108617Y-138618933D01*
X199065000Y-138838212D01*
X199065000Y-139061788D01*
X199108617Y-139281067D01*
X199194176Y-139487624D01*
X199318388Y-139673520D01*
X199476480Y-139831612D01*
X199662376Y-139955824D01*
X199868933Y-140041383D01*
X200088212Y-140085000D01*
X200311788Y-140085000D01*
X200531067Y-140041383D01*
X200737624Y-139955824D01*
X200923520Y-139831612D01*
X201081612Y-139673520D01*
X201205824Y-139487624D01*
X201291383Y-139281067D01*
X201335000Y-139061788D01*
X201335000Y-138838212D01*
X201291383Y-138618933D01*
X201205824Y-138412376D01*
X201081612Y-138226480D01*
X201035000Y-138179868D01*
X201035000Y-137629867D01*
X201096412Y-137568455D01*
X201128281Y-137542301D01*
X201232626Y-137415156D01*
X201292143Y-137303807D01*
X201753127Y-137303807D01*
X201753127Y-137507685D01*
X201792901Y-137707644D01*
X201870922Y-137896002D01*
X201984190Y-138065520D01*
X202128353Y-138209683D01*
X202297871Y-138322951D01*
X202486229Y-138400972D01*
X202686188Y-138440746D01*
X202890066Y-138440746D01*
X203090025Y-138400972D01*
X203278383Y-138322951D01*
X203447901Y-138209683D01*
X203516838Y-138140746D01*
X204558149Y-138140746D01*
X204594254Y-138144302D01*
X204630359Y-138140746D01*
X204738339Y-138130111D01*
X204876887Y-138088083D01*
X205004574Y-138019833D01*
X205116492Y-137927984D01*
X205139513Y-137899934D01*
X207349447Y-135690000D01*
X223271289Y-135690000D01*
X223340226Y-135758937D01*
X223509744Y-135872205D01*
X223698102Y-135950226D01*
X223898061Y-135990000D01*
X224101939Y-135990000D01*
X224301898Y-135950226D01*
X224490256Y-135872205D01*
X224659774Y-135758937D01*
X224803937Y-135614774D01*
X224917205Y-135445256D01*
X224995226Y-135256898D01*
X225035000Y-135056939D01*
X225035000Y-134853061D01*
X224995226Y-134653102D01*
X224917205Y-134464744D01*
X224803937Y-134295226D01*
X224659774Y-134151063D01*
X224490256Y-134037795D01*
X224301898Y-133959774D01*
X224101939Y-133920000D01*
X223898061Y-133920000D01*
X223698102Y-133959774D01*
X223509744Y-134037795D01*
X223340226Y-134151063D01*
X223271289Y-134220000D01*
X207081094Y-134220000D01*
X207044999Y-134216445D01*
X207008904Y-134220000D01*
X207008895Y-134220000D01*
X206900915Y-134230635D01*
X206762367Y-134272663D01*
X206634680Y-134340913D01*
X206522762Y-134432762D01*
X206499746Y-134460807D01*
X204289808Y-136670746D01*
X203516838Y-136670746D01*
X203447901Y-136601809D01*
X203278383Y-136488541D01*
X203090025Y-136410520D01*
X202890066Y-136370746D01*
X202686188Y-136370746D01*
X202486229Y-136410520D01*
X202297871Y-136488541D01*
X202128353Y-136601809D01*
X201984190Y-136745972D01*
X201870922Y-136915490D01*
X201792901Y-137103848D01*
X201753127Y-137303807D01*
X201292143Y-137303807D01*
X201310162Y-137270097D01*
X201357908Y-137112699D01*
X201369990Y-136990029D01*
X201369990Y-136990019D01*
X201374029Y-136949011D01*
X201369990Y-136908003D01*
X201369990Y-125233449D01*
X201428061Y-125245000D01*
X201631939Y-125245000D01*
X201831898Y-125205226D01*
X202020256Y-125127205D01*
X202189774Y-125013937D01*
X202333937Y-124869774D01*
X202447205Y-124700256D01*
X202525226Y-124511898D01*
X202565000Y-124311939D01*
X202565000Y-124235000D01*
X221271289Y-124235000D01*
X221340226Y-124303937D01*
X221509744Y-124417205D01*
X221698102Y-124495226D01*
X221898061Y-124535000D01*
X222101939Y-124535000D01*
X222301898Y-124495226D01*
X222490256Y-124417205D01*
X222659774Y-124303937D01*
X222803937Y-124159774D01*
X222917205Y-123990256D01*
X222995226Y-123801898D01*
X223035000Y-123601939D01*
X223035000Y-123398061D01*
X222995226Y-123198102D01*
X222917205Y-123009744D01*
X222827172Y-122875000D01*
X222917205Y-122740256D01*
X222995226Y-122551898D01*
X223035000Y-122351939D01*
X223035000Y-122148061D01*
X222995226Y-121948102D01*
X222917205Y-121759744D01*
X222803937Y-121590226D01*
X222659774Y-121446063D01*
X222590836Y-121400000D01*
X224511686Y-121400000D01*
X224515001Y-121433657D01*
X224515000Y-124566353D01*
X224511686Y-124600000D01*
X224524912Y-124734283D01*
X224564081Y-124863406D01*
X224627688Y-124982407D01*
X224713289Y-125086711D01*
X224783199Y-125144085D01*
X224817593Y-125172312D01*
X224936594Y-125235919D01*
X225065717Y-125275088D01*
X225200000Y-125288314D01*
X225233647Y-125285000D01*
X230266353Y-125285000D01*
X230300000Y-125288314D01*
X230434283Y-125275088D01*
X230563406Y-125235919D01*
X230682407Y-125172312D01*
X230786711Y-125086711D01*
X230872312Y-124982407D01*
X230935919Y-124863406D01*
X230975088Y-124734283D01*
X230985000Y-124633647D01*
X230985000Y-124633646D01*
X230988314Y-124600000D01*
X230985000Y-124566353D01*
X230985000Y-121433647D01*
X230988314Y-121400000D01*
X230975088Y-121265717D01*
X230935919Y-121136594D01*
X230872312Y-121017593D01*
X230786711Y-120913289D01*
X230682407Y-120827688D01*
X230563406Y-120764081D01*
X230434283Y-120724912D01*
X230333647Y-120715000D01*
X230300000Y-120711686D01*
X230266353Y-120715000D01*
X225233647Y-120715000D01*
X225200000Y-120711686D01*
X225166353Y-120715000D01*
X225065717Y-120724912D01*
X224936594Y-120764081D01*
X224817593Y-120827688D01*
X224713289Y-120913289D01*
X224627688Y-121017593D01*
X224564081Y-121136594D01*
X224524912Y-121265717D01*
X224511686Y-121400000D01*
X222590836Y-121400000D01*
X222490256Y-121332795D01*
X222301898Y-121254774D01*
X222101939Y-121215000D01*
X221898061Y-121215000D01*
X221698102Y-121254774D01*
X221509744Y-121332795D01*
X221340226Y-121446063D01*
X221271289Y-121515000D01*
X203304447Y-121515000D01*
X203045258Y-121255812D01*
X203022238Y-121227762D01*
X202910320Y-121135913D01*
X202782633Y-121067663D01*
X202644085Y-121025635D01*
X202536105Y-121015000D01*
X202500000Y-121011444D01*
X202463895Y-121015000D01*
X201036094Y-121015000D01*
X200999999Y-121011445D01*
X200963904Y-121015000D01*
X200963895Y-121015000D01*
X200855915Y-121025635D01*
X200717367Y-121067663D01*
X200589680Y-121135913D01*
X200477762Y-121227762D01*
X200454746Y-121255807D01*
X199005808Y-122704746D01*
X198977763Y-122727762D01*
X198885914Y-122839680D01*
X198836388Y-122932337D01*
X198817664Y-122967367D01*
X198775635Y-123105915D01*
X198761444Y-123250000D01*
X198765001Y-123286115D01*
X198765000Y-124271289D01*
X198696063Y-124340226D01*
X198582795Y-124509744D01*
X198504774Y-124698102D01*
X198465000Y-124898061D01*
X197710000Y-124898061D01*
X197710000Y-122827646D01*
X198469193Y-122068454D01*
X198497238Y-122045438D01*
X198589087Y-121933520D01*
X198610165Y-121894086D01*
X198657337Y-121805834D01*
X198699365Y-121667285D01*
X198713556Y-121523200D01*
X198710000Y-121487095D01*
X198710000Y-119168525D01*
X198811061Y-119319774D01*
X198955224Y-119463937D01*
X199124742Y-119577205D01*
X199313100Y-119655226D01*
X199513059Y-119695000D01*
X199716937Y-119695000D01*
X199916896Y-119655226D01*
X200105254Y-119577205D01*
X200274772Y-119463937D01*
X200343709Y-119395000D01*
X200936291Y-119395000D01*
X201005228Y-119463937D01*
X201174746Y-119577205D01*
X201363104Y-119655226D01*
X201563063Y-119695000D01*
X201766941Y-119695000D01*
X201966900Y-119655226D01*
X202155258Y-119577205D01*
X202324776Y-119463937D01*
X202468939Y-119319774D01*
X202582207Y-119150256D01*
X202660228Y-118961898D01*
X202700002Y-118761939D01*
X202700002Y-118743179D01*
X202725172Y-118696089D01*
X202772918Y-118538691D01*
X202785000Y-118416021D01*
X202789040Y-118375003D01*
X202785000Y-118333984D01*
X202785000Y-110813285D01*
X202867205Y-110690256D01*
X202945226Y-110501898D01*
X202985000Y-110301939D01*
X202985000Y-110098061D01*
X202945226Y-109898102D01*
X202867205Y-109709744D01*
X202753937Y-109540226D01*
X202609774Y-109396063D01*
X202440256Y-109282795D01*
X202251898Y-109204774D01*
X202051939Y-109165000D01*
X201848061Y-109165000D01*
X201648102Y-109204774D01*
X201459744Y-109282795D01*
X201290226Y-109396063D01*
X201146063Y-109540226D01*
X201032795Y-109709744D01*
X200954774Y-109898102D01*
X200915000Y-110098061D01*
X200915000Y-110301939D01*
X200954774Y-110501898D01*
X201032795Y-110690256D01*
X201082737Y-110765000D01*
X200973063Y-110765000D01*
X200773104Y-110804774D01*
X200584746Y-110882795D01*
X200415228Y-110996063D01*
X200271065Y-111140226D01*
X200157797Y-111309744D01*
X200134909Y-111365000D01*
X199667896Y-111365000D01*
X199631799Y-111361445D01*
X199595702Y-111365000D01*
X199595695Y-111365000D01*
X199501932Y-111374235D01*
X199487714Y-111375635D01*
X199445686Y-111388384D01*
X199349167Y-111417663D01*
X199221480Y-111485913D01*
X199109562Y-111577762D01*
X199086546Y-111605807D01*
X197030808Y-113661546D01*
X197002762Y-113684563D01*
X196910913Y-113796481D01*
X196842663Y-113924168D01*
X196824853Y-113982880D01*
X196800635Y-114062715D01*
X196786444Y-114206800D01*
X196790000Y-114242905D01*
X196790001Y-121032352D01*
X196185000Y-121637354D01*
X196185000Y-108998051D01*
X205064990Y-108998051D01*
X205064990Y-109201929D01*
X205104764Y-109401888D01*
X205182785Y-109590246D01*
X205296053Y-109759764D01*
X205364991Y-109828702D01*
X205364990Y-116788165D01*
X205361434Y-116824270D01*
X205364990Y-116860374D01*
X205375625Y-116968354D01*
X205417653Y-117106902D01*
X205485903Y-117234589D01*
X205577752Y-117346507D01*
X205605798Y-117369524D01*
X205730471Y-117494197D01*
X205753492Y-117522248D01*
X205865410Y-117614097D01*
X205993097Y-117682347D01*
X206131098Y-117724209D01*
X206131645Y-117724375D01*
X206275730Y-117738566D01*
X206311835Y-117735010D01*
X207445564Y-117735010D01*
X207965000Y-118254447D01*
X207965000Y-118351939D01*
X208004774Y-118551898D01*
X208072028Y-118714261D01*
X207946063Y-118840226D01*
X207832795Y-119009744D01*
X207754774Y-119198102D01*
X207715000Y-119398061D01*
X207715000Y-119601939D01*
X207754774Y-119801898D01*
X207832795Y-119990256D01*
X207946063Y-120159774D01*
X208090226Y-120303937D01*
X208259744Y-120417205D01*
X208448102Y-120495226D01*
X208648061Y-120535000D01*
X208851939Y-120535000D01*
X209051898Y-120495226D01*
X209240256Y-120417205D01*
X209409774Y-120303937D01*
X209478711Y-120235000D01*
X220713895Y-120235000D01*
X220750000Y-120238556D01*
X220786105Y-120235000D01*
X220894085Y-120224365D01*
X221032633Y-120182337D01*
X221160320Y-120114087D01*
X221272238Y-120022238D01*
X221295258Y-119994188D01*
X222670253Y-118619194D01*
X222670257Y-118619189D01*
X223112871Y-118176576D01*
X227571226Y-118176576D01*
X227640163Y-118245513D01*
X227809681Y-118358781D01*
X227998039Y-118436802D01*
X228197998Y-118476576D01*
X228401876Y-118476576D01*
X228601835Y-118436802D01*
X228790193Y-118358781D01*
X228959711Y-118245513D01*
X229103874Y-118101350D01*
X229217142Y-117931832D01*
X229295163Y-117743474D01*
X229334937Y-117543515D01*
X229334937Y-117339637D01*
X229295163Y-117139678D01*
X229217142Y-116951320D01*
X229103874Y-116781802D01*
X228959711Y-116637639D01*
X228790193Y-116524371D01*
X228601835Y-116446350D01*
X228401876Y-116406576D01*
X228197998Y-116406576D01*
X227998039Y-116446350D01*
X227809681Y-116524371D01*
X227640163Y-116637639D01*
X227571226Y-116706576D01*
X224726352Y-116706576D01*
X224727000Y-116700000D01*
X224727000Y-110800000D01*
X224724560Y-110775224D01*
X224717333Y-110751399D01*
X224705597Y-110729443D01*
X224689803Y-110710197D01*
X224670557Y-110694403D01*
X224648601Y-110682667D01*
X224624776Y-110675440D01*
X224600000Y-110673000D01*
X206834990Y-110673000D01*
X206834990Y-109828701D01*
X206903927Y-109759764D01*
X207017195Y-109590246D01*
X207095216Y-109401888D01*
X207134990Y-109201929D01*
X207134990Y-108998051D01*
X207095216Y-108798092D01*
X207017195Y-108609734D01*
X206903927Y-108440216D01*
X206759764Y-108296053D01*
X206590246Y-108182785D01*
X206401888Y-108104764D01*
X206201929Y-108064990D01*
X205998051Y-108064990D01*
X205798092Y-108104764D01*
X205609734Y-108182785D01*
X205440216Y-108296053D01*
X205296053Y-108440216D01*
X205182785Y-108609734D01*
X205104764Y-108798092D01*
X205064990Y-108998051D01*
X196185000Y-108998051D01*
X196185000Y-105348061D01*
X199165000Y-105348061D01*
X199165000Y-105551939D01*
X199204774Y-105751898D01*
X199282795Y-105940256D01*
X199396063Y-106109774D01*
X199540226Y-106253937D01*
X199709744Y-106367205D01*
X199898102Y-106445226D01*
X200098061Y-106485000D01*
X200301939Y-106485000D01*
X200501898Y-106445226D01*
X200690256Y-106367205D01*
X200859774Y-106253937D01*
X201003937Y-106109774D01*
X201117205Y-105940256D01*
X201195226Y-105751898D01*
X201235000Y-105551939D01*
X201235000Y-105348061D01*
X202665000Y-105348061D01*
X202665000Y-105551939D01*
X202704774Y-105751898D01*
X202782795Y-105940256D01*
X202896063Y-106109774D01*
X203040226Y-106253937D01*
X203209744Y-106367205D01*
X203398102Y-106445226D01*
X203598061Y-106485000D01*
X203801939Y-106485000D01*
X204001898Y-106445226D01*
X204190256Y-106367205D01*
X204359774Y-106253937D01*
X204503937Y-106109774D01*
X204617205Y-105940256D01*
X204695226Y-105751898D01*
X204735000Y-105551939D01*
X204735000Y-105350000D01*
X209073000Y-105350000D01*
X209073000Y-106850000D01*
X209075440Y-106874776D01*
X209082667Y-106898601D01*
X209094403Y-106920557D01*
X209110197Y-106939803D01*
X209129443Y-106955597D01*
X209151399Y-106967333D01*
X209175224Y-106974560D01*
X209200000Y-106977000D01*
X212950000Y-106977000D01*
X212974776Y-106974560D01*
X212998601Y-106967333D01*
X213020557Y-106955597D01*
X213039803Y-106939803D01*
X213055597Y-106920557D01*
X213067333Y-106898601D01*
X213074560Y-106874776D01*
X213077000Y-106850000D01*
X213077000Y-105350000D01*
X217921488Y-105350000D01*
X217921488Y-106850000D01*
X217923928Y-106874776D01*
X217931155Y-106898601D01*
X217942891Y-106920557D01*
X217958685Y-106939803D01*
X217977931Y-106955597D01*
X217999887Y-106967333D01*
X218023712Y-106974560D01*
X218048488Y-106977000D01*
X221798488Y-106977000D01*
X221823264Y-106974560D01*
X221847089Y-106967333D01*
X221869045Y-106955597D01*
X221888291Y-106939803D01*
X221904085Y-106920557D01*
X221915821Y-106898601D01*
X221923048Y-106874776D01*
X221925488Y-106850000D01*
X221925488Y-105350000D01*
X221923048Y-105325224D01*
X221915821Y-105301399D01*
X221904085Y-105279443D01*
X221888291Y-105260197D01*
X221869045Y-105244403D01*
X221847089Y-105232667D01*
X221823264Y-105225440D01*
X221798488Y-105223000D01*
X218048488Y-105223000D01*
X218023712Y-105225440D01*
X217999887Y-105232667D01*
X217977931Y-105244403D01*
X217958685Y-105260197D01*
X217942891Y-105279443D01*
X217931155Y-105301399D01*
X217923928Y-105325224D01*
X217921488Y-105350000D01*
X213077000Y-105350000D01*
X213074560Y-105325224D01*
X213067333Y-105301399D01*
X213055597Y-105279443D01*
X213039803Y-105260197D01*
X213020557Y-105244403D01*
X212998601Y-105232667D01*
X212974776Y-105225440D01*
X212950000Y-105223000D01*
X209200000Y-105223000D01*
X209175224Y-105225440D01*
X209151399Y-105232667D01*
X209129443Y-105244403D01*
X209110197Y-105260197D01*
X209094403Y-105279443D01*
X209082667Y-105301399D01*
X209075440Y-105325224D01*
X209073000Y-105350000D01*
X204735000Y-105350000D01*
X204735000Y-105348061D01*
X204695226Y-105148102D01*
X204617205Y-104959744D01*
X204503937Y-104790226D01*
X204359774Y-104646063D01*
X204190256Y-104532795D01*
X204001898Y-104454774D01*
X203801939Y-104415000D01*
X203598061Y-104415000D01*
X203398102Y-104454774D01*
X203209744Y-104532795D01*
X203040226Y-104646063D01*
X202896063Y-104790226D01*
X202782795Y-104959744D01*
X202704774Y-105148102D01*
X202665000Y-105348061D01*
X201235000Y-105348061D01*
X201195226Y-105148102D01*
X201117205Y-104959744D01*
X201003937Y-104790226D01*
X200859774Y-104646063D01*
X200690256Y-104532795D01*
X200501898Y-104454774D01*
X200301939Y-104415000D01*
X200098061Y-104415000D01*
X199898102Y-104454774D01*
X199709744Y-104532795D01*
X199540226Y-104646063D01*
X199396063Y-104790226D01*
X199282795Y-104959744D01*
X199204774Y-105148102D01*
X199165000Y-105348061D01*
X196185000Y-105348061D01*
X196185000Y-103685000D01*
X234815000Y-103685000D01*
X234815000Y-119578792D01*
X234815000Y-119578792D01*
G37*
X234815000Y-119578792D02*
X234813291Y-119576709D01*
X234781432Y-119550563D01*
X230935000Y-115704133D01*
X230935000Y-112470132D01*
X230981612Y-112423520D01*
X231105824Y-112237624D01*
X231191383Y-112031067D01*
X231235000Y-111811788D01*
X231235000Y-111588212D01*
X231191383Y-111368933D01*
X231105824Y-111162376D01*
X231090871Y-111139997D01*
X231361426Y-110869442D01*
X231393291Y-110843291D01*
X231497636Y-110716146D01*
X231575172Y-110571087D01*
X231622918Y-110413689D01*
X231635000Y-110291019D01*
X231635000Y-110291009D01*
X231639039Y-110250001D01*
X231635000Y-110208993D01*
X231635000Y-106220132D01*
X231681612Y-106173520D01*
X231805824Y-105987624D01*
X231891383Y-105781067D01*
X231935000Y-105561788D01*
X231935000Y-105338212D01*
X231891383Y-105118933D01*
X231805824Y-104912376D01*
X231681612Y-104726480D01*
X231523520Y-104568388D01*
X231337624Y-104444176D01*
X231131067Y-104358617D01*
X230911788Y-104315000D01*
X230688212Y-104315000D01*
X230468933Y-104358617D01*
X230262376Y-104444176D01*
X230076480Y-104568388D01*
X229918388Y-104726480D01*
X229794176Y-104912376D01*
X229708617Y-105118933D01*
X229665000Y-105338212D01*
X229665000Y-105561788D01*
X229708617Y-105781067D01*
X229794176Y-105987624D01*
X229918388Y-106173520D01*
X229965000Y-106220132D01*
X229965001Y-109904131D01*
X229538578Y-110330554D01*
X229506709Y-110356709D01*
X229402365Y-110483854D01*
X229402364Y-110483855D01*
X229324828Y-110628914D01*
X229277082Y-110786312D01*
X229262718Y-110932150D01*
X229218388Y-110976480D01*
X229094176Y-111162376D01*
X229008617Y-111368933D01*
X228965000Y-111588212D01*
X228965000Y-111811788D01*
X229008617Y-112031067D01*
X229094176Y-112237624D01*
X229218388Y-112423520D01*
X229265001Y-112470133D01*
X229265000Y-116008981D01*
X229260960Y-116050000D01*
X229265000Y-116091018D01*
X229277082Y-116213688D01*
X229324828Y-116371086D01*
X229402364Y-116516145D01*
X229506709Y-116643291D01*
X229538579Y-116669446D01*
X233385001Y-120515870D01*
X233385000Y-129699868D01*
X233338388Y-129746480D01*
X233214176Y-129932376D01*
X233128617Y-130138933D01*
X233085000Y-130358212D01*
X233085000Y-130581788D01*
X233128617Y-130801067D01*
X233214176Y-131007624D01*
X233338388Y-131193520D01*
X233385001Y-131240133D01*
X233385000Y-134978981D01*
X233385000Y-135184132D01*
X230754133Y-137815000D01*
X230688212Y-137815000D01*
X230468933Y-137858617D01*
X230262376Y-137944176D01*
X230076480Y-138068388D01*
X229918388Y-138226480D01*
X229794176Y-138412376D01*
X229708617Y-138618933D01*
X229665000Y-138838212D01*
X229665000Y-139061788D01*
X229708617Y-139281067D01*
X229794176Y-139487624D01*
X229918388Y-139673520D01*
X230076480Y-139831612D01*
X230262376Y-139955824D01*
X230468933Y-140041383D01*
X230688212Y-140085000D01*
X230911788Y-140085000D01*
X231131067Y-140041383D01*
X231337624Y-139955824D01*
X231523520Y-139831612D01*
X231681612Y-139673520D01*
X231805824Y-139487624D01*
X231891383Y-139281067D01*
X231935000Y-139061788D01*
X231935000Y-138995867D01*
X234781428Y-136149440D01*
X234813291Y-136123291D01*
X234815001Y-136121208D01*
X234815001Y-142315000D01*
X231924414Y-142315000D01*
X231935000Y-142261778D01*
X231935000Y-142038202D01*
X231891383Y-141818923D01*
X231805824Y-141612366D01*
X231681612Y-141426470D01*
X231523520Y-141268378D01*
X231337624Y-141144166D01*
X231131067Y-141058607D01*
X230911788Y-141014990D01*
X230688212Y-141014990D01*
X230468933Y-141058607D01*
X230262376Y-141144166D01*
X230076480Y-141268378D01*
X230029868Y-141314990D01*
X200970132Y-141314990D01*
X200923520Y-141268378D01*
X200737624Y-141144166D01*
X200531067Y-141058607D01*
X200311788Y-141014990D01*
X200088212Y-141014990D01*
X199868933Y-141058607D01*
X199662376Y-141144166D01*
X199476480Y-141268378D01*
X199318388Y-141426470D01*
X199194176Y-141612366D01*
X199108617Y-141818923D01*
X199065000Y-142038202D01*
X199065000Y-142261778D01*
X199075586Y-142315000D01*
X196185000Y-142315000D01*
X196185000Y-128792646D01*
X196781546Y-129389193D01*
X196804562Y-129417238D01*
X196916480Y-129509087D01*
X197044167Y-129577337D01*
X197182715Y-129619365D01*
X197237159Y-129624727D01*
X197307795Y-129795256D01*
X197421063Y-129964774D01*
X197565226Y-130108937D01*
X197734744Y-130222205D01*
X197923102Y-130300226D01*
X198123061Y-130340000D01*
X198326939Y-130340000D01*
X198526898Y-130300226D01*
X198715256Y-130222205D01*
X198884774Y-130108937D01*
X199028937Y-129964774D01*
X199142205Y-129795256D01*
X199220226Y-129606898D01*
X199260000Y-129406939D01*
X199260000Y-129203061D01*
X199220226Y-129003102D01*
X199142205Y-128814744D01*
X199045490Y-128670000D01*
X199142205Y-128525256D01*
X199220226Y-128336898D01*
X199260000Y-128136939D01*
X199260000Y-127933061D01*
X199220226Y-127733102D01*
X199142205Y-127544744D01*
X199028937Y-127375226D01*
X198884774Y-127231063D01*
X198715256Y-127117795D01*
X198526898Y-127039774D01*
X198326939Y-127000000D01*
X198123061Y-127000000D01*
X197923102Y-127039774D01*
X197734744Y-127117795D01*
X197710000Y-127134328D01*
X197710000Y-124898061D01*
X198465000Y-124898061D01*
X198465000Y-125101939D01*
X198504774Y-125301898D01*
X198582795Y-125490256D01*
X198696063Y-125659774D01*
X198840226Y-125803937D01*
X199009744Y-125917205D01*
X199198102Y-125995226D01*
X199398061Y-126035000D01*
X199601939Y-126035000D01*
X199699991Y-126015496D01*
X199699990Y-136603143D01*
X199638574Y-136664559D01*
X199606710Y-136690709D01*
X199580562Y-136722571D01*
X199502364Y-136817855D01*
X199424828Y-136962914D01*
X199377082Y-137120312D01*
X199360960Y-137284000D01*
X199365001Y-137325028D01*
X199365000Y-138179868D01*
X199318388Y-138226480D01*
X199194176Y-138412376D01*
X199108617Y-138618933D01*
X199065000Y-138838212D01*
X199065000Y-139061788D01*
X199108617Y-139281067D01*
X199194176Y-139487624D01*
X199318388Y-139673520D01*
X199476480Y-139831612D01*
X199662376Y-139955824D01*
X199868933Y-140041383D01*
X200088212Y-140085000D01*
X200311788Y-140085000D01*
X200531067Y-140041383D01*
X200737624Y-139955824D01*
X200923520Y-139831612D01*
X201081612Y-139673520D01*
X201205824Y-139487624D01*
X201291383Y-139281067D01*
X201335000Y-139061788D01*
X201335000Y-138838212D01*
X201291383Y-138618933D01*
X201205824Y-138412376D01*
X201081612Y-138226480D01*
X201035000Y-138179868D01*
X201035000Y-137629867D01*
X201096412Y-137568455D01*
X201128281Y-137542301D01*
X201232626Y-137415156D01*
X201292143Y-137303807D01*
X201753127Y-137303807D01*
X201753127Y-137507685D01*
X201792901Y-137707644D01*
X201870922Y-137896002D01*
X201984190Y-138065520D01*
X202128353Y-138209683D01*
X202297871Y-138322951D01*
X202486229Y-138400972D01*
X202686188Y-138440746D01*
X202890066Y-138440746D01*
X203090025Y-138400972D01*
X203278383Y-138322951D01*
X203447901Y-138209683D01*
X203516838Y-138140746D01*
X204558149Y-138140746D01*
X204594254Y-138144302D01*
X204630359Y-138140746D01*
X204738339Y-138130111D01*
X204876887Y-138088083D01*
X205004574Y-138019833D01*
X205116492Y-137927984D01*
X205139513Y-137899934D01*
X207349447Y-135690000D01*
X223271289Y-135690000D01*
X223340226Y-135758937D01*
X223509744Y-135872205D01*
X223698102Y-135950226D01*
X223898061Y-135990000D01*
X224101939Y-135990000D01*
X224301898Y-135950226D01*
X224490256Y-135872205D01*
X224659774Y-135758937D01*
X224803937Y-135614774D01*
X224917205Y-135445256D01*
X224995226Y-135256898D01*
X225035000Y-135056939D01*
X225035000Y-134853061D01*
X224995226Y-134653102D01*
X224917205Y-134464744D01*
X224803937Y-134295226D01*
X224659774Y-134151063D01*
X224490256Y-134037795D01*
X224301898Y-133959774D01*
X224101939Y-133920000D01*
X223898061Y-133920000D01*
X223698102Y-133959774D01*
X223509744Y-134037795D01*
X223340226Y-134151063D01*
X223271289Y-134220000D01*
X207081094Y-134220000D01*
X207044999Y-134216445D01*
X207008904Y-134220000D01*
X207008895Y-134220000D01*
X206900915Y-134230635D01*
X206762367Y-134272663D01*
X206634680Y-134340913D01*
X206522762Y-134432762D01*
X206499746Y-134460807D01*
X204289808Y-136670746D01*
X203516838Y-136670746D01*
X203447901Y-136601809D01*
X203278383Y-136488541D01*
X203090025Y-136410520D01*
X202890066Y-136370746D01*
X202686188Y-136370746D01*
X202486229Y-136410520D01*
X202297871Y-136488541D01*
X202128353Y-136601809D01*
X201984190Y-136745972D01*
X201870922Y-136915490D01*
X201792901Y-137103848D01*
X201753127Y-137303807D01*
X201292143Y-137303807D01*
X201310162Y-137270097D01*
X201357908Y-137112699D01*
X201369990Y-136990029D01*
X201369990Y-136990019D01*
X201374029Y-136949011D01*
X201369990Y-136908003D01*
X201369990Y-125233449D01*
X201428061Y-125245000D01*
X201631939Y-125245000D01*
X201831898Y-125205226D01*
X202020256Y-125127205D01*
X202189774Y-125013937D01*
X202333937Y-124869774D01*
X202447205Y-124700256D01*
X202525226Y-124511898D01*
X202565000Y-124311939D01*
X202565000Y-124235000D01*
X221271289Y-124235000D01*
X221340226Y-124303937D01*
X221509744Y-124417205D01*
X221698102Y-124495226D01*
X221898061Y-124535000D01*
X222101939Y-124535000D01*
X222301898Y-124495226D01*
X222490256Y-124417205D01*
X222659774Y-124303937D01*
X222803937Y-124159774D01*
X222917205Y-123990256D01*
X222995226Y-123801898D01*
X223035000Y-123601939D01*
X223035000Y-123398061D01*
X222995226Y-123198102D01*
X222917205Y-123009744D01*
X222827172Y-122875000D01*
X222917205Y-122740256D01*
X222995226Y-122551898D01*
X223035000Y-122351939D01*
X223035000Y-122148061D01*
X222995226Y-121948102D01*
X222917205Y-121759744D01*
X222803937Y-121590226D01*
X222659774Y-121446063D01*
X222590836Y-121400000D01*
X224511686Y-121400000D01*
X224515001Y-121433657D01*
X224515000Y-124566353D01*
X224511686Y-124600000D01*
X224524912Y-124734283D01*
X224564081Y-124863406D01*
X224627688Y-124982407D01*
X224713289Y-125086711D01*
X224783199Y-125144085D01*
X224817593Y-125172312D01*
X224936594Y-125235919D01*
X225065717Y-125275088D01*
X225200000Y-125288314D01*
X225233647Y-125285000D01*
X230266353Y-125285000D01*
X230300000Y-125288314D01*
X230434283Y-125275088D01*
X230563406Y-125235919D01*
X230682407Y-125172312D01*
X230786711Y-125086711D01*
X230872312Y-124982407D01*
X230935919Y-124863406D01*
X230975088Y-124734283D01*
X230985000Y-124633647D01*
X230985000Y-124633646D01*
X230988314Y-124600000D01*
X230985000Y-124566353D01*
X230985000Y-121433647D01*
X230988314Y-121400000D01*
X230975088Y-121265717D01*
X230935919Y-121136594D01*
X230872312Y-121017593D01*
X230786711Y-120913289D01*
X230682407Y-120827688D01*
X230563406Y-120764081D01*
X230434283Y-120724912D01*
X230333647Y-120715000D01*
X230300000Y-120711686D01*
X230266353Y-120715000D01*
X225233647Y-120715000D01*
X225200000Y-120711686D01*
X225166353Y-120715000D01*
X225065717Y-120724912D01*
X224936594Y-120764081D01*
X224817593Y-120827688D01*
X224713289Y-120913289D01*
X224627688Y-121017593D01*
X224564081Y-121136594D01*
X224524912Y-121265717D01*
X224511686Y-121400000D01*
X222590836Y-121400000D01*
X222490256Y-121332795D01*
X222301898Y-121254774D01*
X222101939Y-121215000D01*
X221898061Y-121215000D01*
X221698102Y-121254774D01*
X221509744Y-121332795D01*
X221340226Y-121446063D01*
X221271289Y-121515000D01*
X203304447Y-121515000D01*
X203045258Y-121255812D01*
X203022238Y-121227762D01*
X202910320Y-121135913D01*
X202782633Y-121067663D01*
X202644085Y-121025635D01*
X202536105Y-121015000D01*
X202500000Y-121011444D01*
X202463895Y-121015000D01*
X201036094Y-121015000D01*
X200999999Y-121011445D01*
X200963904Y-121015000D01*
X200963895Y-121015000D01*
X200855915Y-121025635D01*
X200717367Y-121067663D01*
X200589680Y-121135913D01*
X200477762Y-121227762D01*
X200454746Y-121255807D01*
X199005808Y-122704746D01*
X198977763Y-122727762D01*
X198885914Y-122839680D01*
X198836388Y-122932337D01*
X198817664Y-122967367D01*
X198775635Y-123105915D01*
X198761444Y-123250000D01*
X198765001Y-123286115D01*
X198765000Y-124271289D01*
X198696063Y-124340226D01*
X198582795Y-124509744D01*
X198504774Y-124698102D01*
X198465000Y-124898061D01*
X197710000Y-124898061D01*
X197710000Y-122827646D01*
X198469193Y-122068454D01*
X198497238Y-122045438D01*
X198589087Y-121933520D01*
X198610165Y-121894086D01*
X198657337Y-121805834D01*
X198699365Y-121667285D01*
X198713556Y-121523200D01*
X198710000Y-121487095D01*
X198710000Y-119168525D01*
X198811061Y-119319774D01*
X198955224Y-119463937D01*
X199124742Y-119577205D01*
X199313100Y-119655226D01*
X199513059Y-119695000D01*
X199716937Y-119695000D01*
X199916896Y-119655226D01*
X200105254Y-119577205D01*
X200274772Y-119463937D01*
X200343709Y-119395000D01*
X200936291Y-119395000D01*
X201005228Y-119463937D01*
X201174746Y-119577205D01*
X201363104Y-119655226D01*
X201563063Y-119695000D01*
X201766941Y-119695000D01*
X201966900Y-119655226D01*
X202155258Y-119577205D01*
X202324776Y-119463937D01*
X202468939Y-119319774D01*
X202582207Y-119150256D01*
X202660228Y-118961898D01*
X202700002Y-118761939D01*
X202700002Y-118743179D01*
X202725172Y-118696089D01*
X202772918Y-118538691D01*
X202785000Y-118416021D01*
X202789040Y-118375003D01*
X202785000Y-118333984D01*
X202785000Y-110813285D01*
X202867205Y-110690256D01*
X202945226Y-110501898D01*
X202985000Y-110301939D01*
X202985000Y-110098061D01*
X202945226Y-109898102D01*
X202867205Y-109709744D01*
X202753937Y-109540226D01*
X202609774Y-109396063D01*
X202440256Y-109282795D01*
X202251898Y-109204774D01*
X202051939Y-109165000D01*
X201848061Y-109165000D01*
X201648102Y-109204774D01*
X201459744Y-109282795D01*
X201290226Y-109396063D01*
X201146063Y-109540226D01*
X201032795Y-109709744D01*
X200954774Y-109898102D01*
X200915000Y-110098061D01*
X200915000Y-110301939D01*
X200954774Y-110501898D01*
X201032795Y-110690256D01*
X201082737Y-110765000D01*
X200973063Y-110765000D01*
X200773104Y-110804774D01*
X200584746Y-110882795D01*
X200415228Y-110996063D01*
X200271065Y-111140226D01*
X200157797Y-111309744D01*
X200134909Y-111365000D01*
X199667896Y-111365000D01*
X199631799Y-111361445D01*
X199595702Y-111365000D01*
X199595695Y-111365000D01*
X199501932Y-111374235D01*
X199487714Y-111375635D01*
X199445686Y-111388384D01*
X199349167Y-111417663D01*
X199221480Y-111485913D01*
X199109562Y-111577762D01*
X199086546Y-111605807D01*
X197030808Y-113661546D01*
X197002762Y-113684563D01*
X196910913Y-113796481D01*
X196842663Y-113924168D01*
X196824853Y-113982880D01*
X196800635Y-114062715D01*
X196786444Y-114206800D01*
X196790000Y-114242905D01*
X196790001Y-121032352D01*
X196185000Y-121637354D01*
X196185000Y-108998051D01*
X205064990Y-108998051D01*
X205064990Y-109201929D01*
X205104764Y-109401888D01*
X205182785Y-109590246D01*
X205296053Y-109759764D01*
X205364991Y-109828702D01*
X205364990Y-116788165D01*
X205361434Y-116824270D01*
X205364990Y-116860374D01*
X205375625Y-116968354D01*
X205417653Y-117106902D01*
X205485903Y-117234589D01*
X205577752Y-117346507D01*
X205605798Y-117369524D01*
X205730471Y-117494197D01*
X205753492Y-117522248D01*
X205865410Y-117614097D01*
X205993097Y-117682347D01*
X206131098Y-117724209D01*
X206131645Y-117724375D01*
X206275730Y-117738566D01*
X206311835Y-117735010D01*
X207445564Y-117735010D01*
X207965000Y-118254447D01*
X207965000Y-118351939D01*
X208004774Y-118551898D01*
X208072028Y-118714261D01*
X207946063Y-118840226D01*
X207832795Y-119009744D01*
X207754774Y-119198102D01*
X207715000Y-119398061D01*
X207715000Y-119601939D01*
X207754774Y-119801898D01*
X207832795Y-119990256D01*
X207946063Y-120159774D01*
X208090226Y-120303937D01*
X208259744Y-120417205D01*
X208448102Y-120495226D01*
X208648061Y-120535000D01*
X208851939Y-120535000D01*
X209051898Y-120495226D01*
X209240256Y-120417205D01*
X209409774Y-120303937D01*
X209478711Y-120235000D01*
X220713895Y-120235000D01*
X220750000Y-120238556D01*
X220786105Y-120235000D01*
X220894085Y-120224365D01*
X221032633Y-120182337D01*
X221160320Y-120114087D01*
X221272238Y-120022238D01*
X221295258Y-119994188D01*
X222670253Y-118619194D01*
X222670257Y-118619189D01*
X223112871Y-118176576D01*
X227571226Y-118176576D01*
X227640163Y-118245513D01*
X227809681Y-118358781D01*
X227998039Y-118436802D01*
X228197998Y-118476576D01*
X228401876Y-118476576D01*
X228601835Y-118436802D01*
X228790193Y-118358781D01*
X228959711Y-118245513D01*
X229103874Y-118101350D01*
X229217142Y-117931832D01*
X229295163Y-117743474D01*
X229334937Y-117543515D01*
X229334937Y-117339637D01*
X229295163Y-117139678D01*
X229217142Y-116951320D01*
X229103874Y-116781802D01*
X228959711Y-116637639D01*
X228790193Y-116524371D01*
X228601835Y-116446350D01*
X228401876Y-116406576D01*
X228197998Y-116406576D01*
X227998039Y-116446350D01*
X227809681Y-116524371D01*
X227640163Y-116637639D01*
X227571226Y-116706576D01*
X224726352Y-116706576D01*
X224727000Y-116700000D01*
X224727000Y-110800000D01*
X224724560Y-110775224D01*
X224717333Y-110751399D01*
X224705597Y-110729443D01*
X224689803Y-110710197D01*
X224670557Y-110694403D01*
X224648601Y-110682667D01*
X224624776Y-110675440D01*
X224600000Y-110673000D01*
X206834990Y-110673000D01*
X206834990Y-109828701D01*
X206903927Y-109759764D01*
X207017195Y-109590246D01*
X207095216Y-109401888D01*
X207134990Y-109201929D01*
X207134990Y-108998051D01*
X207095216Y-108798092D01*
X207017195Y-108609734D01*
X206903927Y-108440216D01*
X206759764Y-108296053D01*
X206590246Y-108182785D01*
X206401888Y-108104764D01*
X206201929Y-108064990D01*
X205998051Y-108064990D01*
X205798092Y-108104764D01*
X205609734Y-108182785D01*
X205440216Y-108296053D01*
X205296053Y-108440216D01*
X205182785Y-108609734D01*
X205104764Y-108798092D01*
X205064990Y-108998051D01*
X196185000Y-108998051D01*
X196185000Y-105348061D01*
X199165000Y-105348061D01*
X199165000Y-105551939D01*
X199204774Y-105751898D01*
X199282795Y-105940256D01*
X199396063Y-106109774D01*
X199540226Y-106253937D01*
X199709744Y-106367205D01*
X199898102Y-106445226D01*
X200098061Y-106485000D01*
X200301939Y-106485000D01*
X200501898Y-106445226D01*
X200690256Y-106367205D01*
X200859774Y-106253937D01*
X201003937Y-106109774D01*
X201117205Y-105940256D01*
X201195226Y-105751898D01*
X201235000Y-105551939D01*
X201235000Y-105348061D01*
X202665000Y-105348061D01*
X202665000Y-105551939D01*
X202704774Y-105751898D01*
X202782795Y-105940256D01*
X202896063Y-106109774D01*
X203040226Y-106253937D01*
X203209744Y-106367205D01*
X203398102Y-106445226D01*
X203598061Y-106485000D01*
X203801939Y-106485000D01*
X204001898Y-106445226D01*
X204190256Y-106367205D01*
X204359774Y-106253937D01*
X204503937Y-106109774D01*
X204617205Y-105940256D01*
X204695226Y-105751898D01*
X204735000Y-105551939D01*
X204735000Y-105350000D01*
X209073000Y-105350000D01*
X209073000Y-106850000D01*
X209075440Y-106874776D01*
X209082667Y-106898601D01*
X209094403Y-106920557D01*
X209110197Y-106939803D01*
X209129443Y-106955597D01*
X209151399Y-106967333D01*
X209175224Y-106974560D01*
X209200000Y-106977000D01*
X212950000Y-106977000D01*
X212974776Y-106974560D01*
X212998601Y-106967333D01*
X213020557Y-106955597D01*
X213039803Y-106939803D01*
X213055597Y-106920557D01*
X213067333Y-106898601D01*
X213074560Y-106874776D01*
X213077000Y-106850000D01*
X213077000Y-105350000D01*
X217921488Y-105350000D01*
X217921488Y-106850000D01*
X217923928Y-106874776D01*
X217931155Y-106898601D01*
X217942891Y-106920557D01*
X217958685Y-106939803D01*
X217977931Y-106955597D01*
X217999887Y-106967333D01*
X218023712Y-106974560D01*
X218048488Y-106977000D01*
X221798488Y-106977000D01*
X221823264Y-106974560D01*
X221847089Y-106967333D01*
X221869045Y-106955597D01*
X221888291Y-106939803D01*
X221904085Y-106920557D01*
X221915821Y-106898601D01*
X221923048Y-106874776D01*
X221925488Y-106850000D01*
X221925488Y-105350000D01*
X221923048Y-105325224D01*
X221915821Y-105301399D01*
X221904085Y-105279443D01*
X221888291Y-105260197D01*
X221869045Y-105244403D01*
X221847089Y-105232667D01*
X221823264Y-105225440D01*
X221798488Y-105223000D01*
X218048488Y-105223000D01*
X218023712Y-105225440D01*
X217999887Y-105232667D01*
X217977931Y-105244403D01*
X217958685Y-105260197D01*
X217942891Y-105279443D01*
X217931155Y-105301399D01*
X217923928Y-105325224D01*
X217921488Y-105350000D01*
X213077000Y-105350000D01*
X213074560Y-105325224D01*
X213067333Y-105301399D01*
X213055597Y-105279443D01*
X213039803Y-105260197D01*
X213020557Y-105244403D01*
X212998601Y-105232667D01*
X212974776Y-105225440D01*
X212950000Y-105223000D01*
X209200000Y-105223000D01*
X209175224Y-105225440D01*
X209151399Y-105232667D01*
X209129443Y-105244403D01*
X209110197Y-105260197D01*
X209094403Y-105279443D01*
X209082667Y-105301399D01*
X209075440Y-105325224D01*
X209073000Y-105350000D01*
X204735000Y-105350000D01*
X204735000Y-105348061D01*
X204695226Y-105148102D01*
X204617205Y-104959744D01*
X204503937Y-104790226D01*
X204359774Y-104646063D01*
X204190256Y-104532795D01*
X204001898Y-104454774D01*
X203801939Y-104415000D01*
X203598061Y-104415000D01*
X203398102Y-104454774D01*
X203209744Y-104532795D01*
X203040226Y-104646063D01*
X202896063Y-104790226D01*
X202782795Y-104959744D01*
X202704774Y-105148102D01*
X202665000Y-105348061D01*
X201235000Y-105348061D01*
X201195226Y-105148102D01*
X201117205Y-104959744D01*
X201003937Y-104790226D01*
X200859774Y-104646063D01*
X200690256Y-104532795D01*
X200501898Y-104454774D01*
X200301939Y-104415000D01*
X200098061Y-104415000D01*
X199898102Y-104454774D01*
X199709744Y-104532795D01*
X199540226Y-104646063D01*
X199396063Y-104790226D01*
X199282795Y-104959744D01*
X199204774Y-105148102D01*
X199165000Y-105348061D01*
X196185000Y-105348061D01*
X196185000Y-103685000D01*
X234815000Y-103685000D01*
X234815000Y-119578792D01*
G36*
X222398104Y-116827489D02*
G01*
X222286186Y-116919338D01*
X222263170Y-116947383D01*
X221630811Y-117579743D01*
X221630806Y-117579747D01*
X220445554Y-118765000D01*
X209900672Y-118765000D01*
X209917205Y-118740256D01*
X209995226Y-118551898D01*
X210035000Y-118351939D01*
X210035000Y-118148061D01*
X209995226Y-117948102D01*
X209917205Y-117759744D01*
X209803937Y-117590226D01*
X209659774Y-117446063D01*
X209490256Y-117332795D01*
X209301898Y-117254774D01*
X209101939Y-117215000D01*
X209004447Y-117215000D01*
X208616446Y-116827000D01*
X222399019Y-116827000D01*
X222398104Y-116827489D01*
X222398104Y-116827489D01*
G37*
X222398104Y-116827489D02*
X222286186Y-116919338D01*
X222263170Y-116947383D01*
X221630811Y-117579743D01*
X221630806Y-117579747D01*
X220445554Y-118765000D01*
X209900672Y-118765000D01*
X209917205Y-118740256D01*
X209995226Y-118551898D01*
X210035000Y-118351939D01*
X210035000Y-118148061D01*
X209995226Y-117948102D01*
X209917205Y-117759744D01*
X209803937Y-117590226D01*
X209659774Y-117446063D01*
X209490256Y-117332795D01*
X209301898Y-117254774D01*
X209101939Y-117215000D01*
X209004447Y-117215000D01*
X208616446Y-116827000D01*
X222399019Y-116827000D01*
X222398104Y-116827489D01*
G36*
X200157797Y-113340256D02*
G01*
X200271065Y-113509774D01*
X200415228Y-113653937D01*
X200584746Y-113767205D01*
X200773104Y-113845226D01*
X200973063Y-113885000D01*
X201115000Y-113885000D01*
X201115001Y-117782715D01*
X201005228Y-117856063D01*
X200936291Y-117925000D01*
X200343709Y-117925000D01*
X200274772Y-117856063D01*
X200105254Y-117742795D01*
X199916896Y-117664774D01*
X199716937Y-117625000D01*
X199513059Y-117625000D01*
X199313100Y-117664774D01*
X199124742Y-117742795D01*
X198955224Y-117856063D01*
X198811061Y-118000226D01*
X198710000Y-118151475D01*
X198710000Y-114697646D01*
X200122647Y-113285000D01*
X200134909Y-113285000D01*
X200157797Y-113340256D01*
X200157797Y-113340256D01*
G37*
X200157797Y-113340256D02*
X200271065Y-113509774D01*
X200415228Y-113653937D01*
X200584746Y-113767205D01*
X200773104Y-113845226D01*
X200973063Y-113885000D01*
X201115000Y-113885000D01*
X201115001Y-117782715D01*
X201005228Y-117856063D01*
X200936291Y-117925000D01*
X200343709Y-117925000D01*
X200274772Y-117856063D01*
X200105254Y-117742795D01*
X199916896Y-117664774D01*
X199716937Y-117625000D01*
X199513059Y-117625000D01*
X199313100Y-117664774D01*
X199124742Y-117742795D01*
X198955224Y-117856063D01*
X198811061Y-118000226D01*
X198710000Y-118151475D01*
X198710000Y-114697646D01*
X200122647Y-113285000D01*
X200134909Y-113285000D01*
X200157797Y-113340256D01*
M02*
