G04 #@! TF.GenerationSoftware,KiCad,Pcbnew,(5.1.4)-1*
G04 #@! TF.CreationDate,2019-10-09T21:16:12+02:00*
G04 #@! TF.ProjectId,Front,46726f6e-742e-46b6-9963-61645f706362,rev?*
G04 #@! TF.SameCoordinates,Original*
G04 #@! TF.FileFunction,Legend,Top*
G04 #@! TF.FilePolarity,Positive*
%FSLAX46Y46*%
G04 Gerber Fmt 4.6, Leading zero omitted, Abs format (unit mm)*
G04 Created by KiCad (PCBNEW (5.1.4)-1) date 2019-10-09 21:16:12*
%MOMM*%
%LPD*%
G04 APERTURE LIST*
%ADD10C,0.150000*%
%ADD11C,0.100000*%
%ADD12C,0.120000*%
G04 APERTURE END LIST*
D10*
X212523809Y-132857142D02*
X212476190Y-132904761D01*
X212333333Y-132952380D01*
X212238095Y-132952380D01*
X212095238Y-132904761D01*
X212000000Y-132809523D01*
X211952380Y-132714285D01*
X211904761Y-132523809D01*
X211904761Y-132380952D01*
X211952380Y-132190476D01*
X212000000Y-132095238D01*
X212095238Y-132000000D01*
X212238095Y-131952380D01*
X212333333Y-131952380D01*
X212476190Y-132000000D01*
X212523809Y-132047619D01*
X213380952Y-132285714D02*
X213380952Y-132952380D01*
X212952380Y-132285714D02*
X212952380Y-132809523D01*
X213000000Y-132904761D01*
X213095238Y-132952380D01*
X213238095Y-132952380D01*
X213333333Y-132904761D01*
X213380952Y-132857142D01*
X213857142Y-132952380D02*
X213857142Y-131952380D01*
X213857142Y-132333333D02*
X213952380Y-132285714D01*
X214142857Y-132285714D01*
X214238095Y-132333333D01*
X214285714Y-132380952D01*
X214333333Y-132476190D01*
X214333333Y-132761904D01*
X214285714Y-132857142D01*
X214238095Y-132904761D01*
X214142857Y-132952380D01*
X213952380Y-132952380D01*
X213857142Y-132904761D01*
X214666666Y-132285714D02*
X214904761Y-132952380D01*
X215142857Y-132285714D02*
X214904761Y-132952380D01*
X214809523Y-133190476D01*
X214761904Y-133238095D01*
X214666666Y-133285714D01*
X216142857Y-131952380D02*
X216476190Y-132952380D01*
X216809523Y-131952380D01*
X217333333Y-131952380D02*
X217428571Y-131952380D01*
X217523809Y-132000000D01*
X217571428Y-132047619D01*
X217619047Y-132142857D01*
X217666666Y-132333333D01*
X217666666Y-132571428D01*
X217619047Y-132761904D01*
X217571428Y-132857142D01*
X217523809Y-132904761D01*
X217428571Y-132952380D01*
X217333333Y-132952380D01*
X217238095Y-132904761D01*
X217190476Y-132857142D01*
X217142857Y-132761904D01*
X217095238Y-132571428D01*
X217095238Y-132333333D01*
X217142857Y-132142857D01*
X217190476Y-132047619D01*
X217238095Y-132000000D01*
X217333333Y-131952380D01*
X218095238Y-132857142D02*
X218142857Y-132904761D01*
X218095238Y-132952380D01*
X218047619Y-132904761D01*
X218095238Y-132857142D01*
X218095238Y-132952380D01*
X219095238Y-132952380D02*
X218523809Y-132952380D01*
X218809523Y-132952380D02*
X218809523Y-131952380D01*
X218714285Y-132095238D01*
X218619047Y-132190476D01*
X218523809Y-132238095D01*
D11*
X225200000Y-121400000D02*
X230300000Y-121400000D01*
X225200000Y-124600000D02*
X225200000Y-121400000D01*
X230300000Y-124600000D02*
X225200000Y-124600000D01*
X230300000Y-121400000D02*
X230300000Y-124600000D01*
X195500000Y-143000000D02*
X195500000Y-103000000D01*
X235500000Y-143000000D02*
X195500000Y-143000000D01*
X235500000Y-103000000D02*
X235500000Y-143000000D01*
X195500000Y-103000000D02*
X235500000Y-103000000D01*
D12*
X199510000Y-116460000D02*
X199510000Y-116080000D01*
X195460000Y-116460000D02*
X195200000Y-116460000D01*
X199510000Y-116460000D02*
X197740000Y-116460000D01*
X199510000Y-108840000D02*
X199510000Y-109220000D01*
X197740000Y-108840000D02*
X199510000Y-108840000D01*
X195200000Y-108840000D02*
X195460000Y-108840000D01*
X206380000Y-117255000D02*
X206000000Y-117255000D01*
X206380000Y-110835000D02*
X206380000Y-117255000D01*
X224620000Y-110835000D02*
X224620000Y-117255000D01*
X206380000Y-110835000D02*
X224620000Y-110835000D01*
X224620000Y-136580000D02*
X223620000Y-136580000D01*
X224620000Y-135800000D02*
X224620000Y-136580000D01*
X206380000Y-136580000D02*
X207380000Y-136580000D01*
X206380000Y-135800000D02*
X206380000Y-136580000D01*
X200700000Y-132460000D02*
X202650000Y-132460000D01*
X200700000Y-132460000D02*
X198750000Y-132460000D01*
X200700000Y-122340000D02*
X202650000Y-122340000D01*
X200700000Y-122340000D02*
X197250000Y-122340000D01*
X204760000Y-136560000D02*
X203300000Y-136560000D01*
X204760000Y-133400000D02*
X202600000Y-133400000D01*
X204760000Y-133400000D02*
X204760000Y-134330000D01*
X204760000Y-136560000D02*
X204760000Y-135630000D01*
X196650000Y-133410000D02*
X198110000Y-133410000D01*
X196650000Y-136570000D02*
X198810000Y-136570000D01*
X196650000Y-136570000D02*
X196650000Y-135640000D01*
X196650000Y-133410000D02*
X196650000Y-134340000D01*
X199030000Y-118860000D02*
X199030000Y-120660000D01*
X202250000Y-120660000D02*
X202250000Y-118210000D01*
X235500000Y-111165000D02*
X235500000Y-110240000D01*
X233375000Y-115040000D02*
X233925000Y-115040000D01*
X233375000Y-110140000D02*
X233925000Y-110140000D01*
X231800000Y-114940000D02*
X231800000Y-110240000D01*
X235500000Y-114940000D02*
X235500000Y-114015000D01*
X209215000Y-105360000D02*
X212075000Y-105360000D01*
X209215000Y-103440000D02*
X209215000Y-105360000D01*
X212075000Y-103440000D02*
X209215000Y-103440000D01*
X221785000Y-103440000D02*
X218925000Y-103440000D01*
X221785000Y-105360000D02*
X221785000Y-103440000D01*
X218925000Y-105360000D02*
X221785000Y-105360000D01*
X196990000Y-120018578D02*
X196990000Y-119501422D01*
X198410000Y-120018578D02*
X198410000Y-119501422D01*
X204410000Y-120018578D02*
X204410000Y-119501422D01*
X202990000Y-120018578D02*
X202990000Y-119501422D01*
X200441422Y-133290000D02*
X200958578Y-133290000D01*
X200441422Y-134710000D02*
X200958578Y-134710000D01*
X200441422Y-136710000D02*
X200958578Y-136710000D01*
X200441422Y-135290000D02*
X200958578Y-135290000D01*
X217610000Y-104741422D02*
X217610000Y-105258578D01*
X216190000Y-104741422D02*
X216190000Y-105258578D01*
X213390000Y-104741422D02*
X213390000Y-105258578D01*
X214810000Y-104741422D02*
X214810000Y-105258578D01*
X230810000Y-112391422D02*
X230810000Y-112908578D01*
X229390000Y-112391422D02*
X229390000Y-112908578D01*
D10*
X229561904Y-108107142D02*
X230180952Y-108107142D01*
X229847619Y-108450000D01*
X229990476Y-108450000D01*
X230085714Y-108492857D01*
X230133333Y-108535714D01*
X230180952Y-108621428D01*
X230180952Y-108835714D01*
X230133333Y-108921428D01*
X230085714Y-108964285D01*
X229990476Y-109007142D01*
X229704761Y-109007142D01*
X229609523Y-108964285D01*
X229561904Y-108921428D01*
X230466666Y-108107142D02*
X230800000Y-109007142D01*
X231133333Y-108107142D01*
X231371428Y-108107142D02*
X231990476Y-108107142D01*
X231657142Y-108450000D01*
X231800000Y-108450000D01*
X231895238Y-108492857D01*
X231942857Y-108535714D01*
X231990476Y-108621428D01*
X231990476Y-108835714D01*
X231942857Y-108921428D01*
X231895238Y-108964285D01*
X231800000Y-109007142D01*
X231514285Y-109007142D01*
X231419047Y-108964285D01*
X231371428Y-108921428D01*
X229561904Y-137007142D02*
X230180952Y-137007142D01*
X229847619Y-137350000D01*
X229990476Y-137350000D01*
X230085714Y-137392857D01*
X230133333Y-137435714D01*
X230180952Y-137521428D01*
X230180952Y-137735714D01*
X230133333Y-137821428D01*
X230085714Y-137864285D01*
X229990476Y-137907142D01*
X229704761Y-137907142D01*
X229609523Y-137864285D01*
X229561904Y-137821428D01*
X230466666Y-137007142D02*
X230800000Y-137907142D01*
X231133333Y-137007142D01*
X231371428Y-137007142D02*
X231990476Y-137007142D01*
X231657142Y-137350000D01*
X231800000Y-137350000D01*
X231895238Y-137392857D01*
X231942857Y-137435714D01*
X231990476Y-137521428D01*
X231990476Y-137735714D01*
X231942857Y-137821428D01*
X231895238Y-137864285D01*
X231800000Y-137907142D01*
X231514285Y-137907142D01*
X231419047Y-137864285D01*
X231371428Y-137821428D01*
X233238095Y-137050000D02*
X233142857Y-137007142D01*
X233000000Y-137007142D01*
X232857142Y-137050000D01*
X232761904Y-137135714D01*
X232714285Y-137221428D01*
X232666666Y-137392857D01*
X232666666Y-137521428D01*
X232714285Y-137692857D01*
X232761904Y-137778571D01*
X232857142Y-137864285D01*
X233000000Y-137907142D01*
X233095238Y-137907142D01*
X233238095Y-137864285D01*
X233285714Y-137821428D01*
X233285714Y-137521428D01*
X233095238Y-137521428D01*
X233714285Y-137907142D02*
X233714285Y-137007142D01*
X234285714Y-137907142D01*
X234285714Y-137007142D01*
X234761904Y-137907142D02*
X234761904Y-137007142D01*
X235000000Y-137007142D01*
X235142857Y-137050000D01*
X235238095Y-137135714D01*
X235285714Y-137221428D01*
X235333333Y-137392857D01*
X235333333Y-137521428D01*
X235285714Y-137692857D01*
X235238095Y-137778571D01*
X235142857Y-137864285D01*
X235000000Y-137907142D01*
X234761904Y-137907142D01*
X233238095Y-108150000D02*
X233142857Y-108107142D01*
X233000000Y-108107142D01*
X232857142Y-108150000D01*
X232761904Y-108235714D01*
X232714285Y-108321428D01*
X232666666Y-108492857D01*
X232666666Y-108621428D01*
X232714285Y-108792857D01*
X232761904Y-108878571D01*
X232857142Y-108964285D01*
X233000000Y-109007142D01*
X233095238Y-109007142D01*
X233238095Y-108964285D01*
X233285714Y-108921428D01*
X233285714Y-108621428D01*
X233095238Y-108621428D01*
X233714285Y-109007142D02*
X233714285Y-108107142D01*
X234285714Y-109007142D01*
X234285714Y-108107142D01*
X234761904Y-109007142D02*
X234761904Y-108107142D01*
X235000000Y-108107142D01*
X235142857Y-108150000D01*
X235238095Y-108235714D01*
X235285714Y-108321428D01*
X235333333Y-108492857D01*
X235333333Y-108621428D01*
X235285714Y-108792857D01*
X235238095Y-108878571D01*
X235142857Y-108964285D01*
X235000000Y-109007142D01*
X234761904Y-109007142D01*
X198961904Y-137007142D02*
X199580952Y-137007142D01*
X199247619Y-137350000D01*
X199390476Y-137350000D01*
X199485714Y-137392857D01*
X199533333Y-137435714D01*
X199580952Y-137521428D01*
X199580952Y-137735714D01*
X199533333Y-137821428D01*
X199485714Y-137864285D01*
X199390476Y-137907142D01*
X199104761Y-137907142D01*
X199009523Y-137864285D01*
X198961904Y-137821428D01*
X199866666Y-137007142D02*
X200200000Y-137907142D01*
X200533333Y-137007142D01*
X200771428Y-137007142D02*
X201390476Y-137007142D01*
X201057142Y-137350000D01*
X201200000Y-137350000D01*
X201295238Y-137392857D01*
X201342857Y-137435714D01*
X201390476Y-137521428D01*
X201390476Y-137735714D01*
X201342857Y-137821428D01*
X201295238Y-137864285D01*
X201200000Y-137907142D01*
X200914285Y-137907142D01*
X200819047Y-137864285D01*
X200771428Y-137821428D01*
X196238095Y-137050000D02*
X196142857Y-137007142D01*
X196000000Y-137007142D01*
X195857142Y-137050000D01*
X195761904Y-137135714D01*
X195714285Y-137221428D01*
X195666666Y-137392857D01*
X195666666Y-137521428D01*
X195714285Y-137692857D01*
X195761904Y-137778571D01*
X195857142Y-137864285D01*
X196000000Y-137907142D01*
X196095238Y-137907142D01*
X196238095Y-137864285D01*
X196285714Y-137821428D01*
X196285714Y-137521428D01*
X196095238Y-137521428D01*
X196714285Y-137907142D02*
X196714285Y-137007142D01*
X197285714Y-137907142D01*
X197285714Y-137007142D01*
X197761904Y-137907142D02*
X197761904Y-137007142D01*
X198000000Y-137007142D01*
X198142857Y-137050000D01*
X198238095Y-137135714D01*
X198285714Y-137221428D01*
X198333333Y-137392857D01*
X198333333Y-137521428D01*
X198285714Y-137692857D01*
X198238095Y-137778571D01*
X198142857Y-137864285D01*
X198000000Y-137907142D01*
X197761904Y-137907142D01*
X198819047Y-108107142D02*
X199152380Y-109007142D01*
X199485714Y-108107142D01*
X199771428Y-108964285D02*
X199914285Y-109007142D01*
X200152380Y-109007142D01*
X200247619Y-108964285D01*
X200295238Y-108921428D01*
X200342857Y-108835714D01*
X200342857Y-108750000D01*
X200295238Y-108664285D01*
X200247619Y-108621428D01*
X200152380Y-108578571D01*
X199961904Y-108535714D01*
X199866666Y-108492857D01*
X199819047Y-108450000D01*
X199771428Y-108364285D01*
X199771428Y-108278571D01*
X199819047Y-108192857D01*
X199866666Y-108150000D01*
X199961904Y-108107142D01*
X200200000Y-108107142D01*
X200342857Y-108150000D01*
X200676190Y-108107142D02*
X200914285Y-109007142D01*
X201104761Y-108364285D01*
X201295238Y-109007142D01*
X201533333Y-108107142D01*
X223427142Y-106852380D02*
X223427142Y-106661904D01*
X223470000Y-106566666D01*
X223555714Y-106471428D01*
X223727142Y-106423809D01*
X224027142Y-106423809D01*
X224198571Y-106471428D01*
X224284285Y-106566666D01*
X224327142Y-106661904D01*
X224327142Y-106852380D01*
X224284285Y-106947619D01*
X224198571Y-107042857D01*
X224027142Y-107090476D01*
X223727142Y-107090476D01*
X223555714Y-107042857D01*
X223470000Y-106947619D01*
X223427142Y-106852380D01*
X224327142Y-105423809D02*
X223898571Y-105757142D01*
X224327142Y-105995238D02*
X223427142Y-105995238D01*
X223427142Y-105614285D01*
X223470000Y-105519047D01*
X223512857Y-105471428D01*
X223598571Y-105423809D01*
X223727142Y-105423809D01*
X223812857Y-105471428D01*
X223855714Y-105519047D01*
X223898571Y-105614285D01*
X223898571Y-105995238D01*
X224284285Y-105042857D02*
X224327142Y-104900000D01*
X224327142Y-104661904D01*
X224284285Y-104566666D01*
X224241428Y-104519047D01*
X224155714Y-104471428D01*
X224070000Y-104471428D01*
X223984285Y-104519047D01*
X223941428Y-104566666D01*
X223898571Y-104661904D01*
X223855714Y-104852380D01*
X223812857Y-104947619D01*
X223770000Y-104995238D01*
X223684285Y-105042857D01*
X223598571Y-105042857D01*
X223512857Y-104995238D01*
X223470000Y-104947619D01*
X223427142Y-104852380D01*
X223427142Y-104614285D01*
X223470000Y-104471428D01*
X223427142Y-104185714D02*
X223427142Y-103614285D01*
X224327142Y-103900000D02*
X223427142Y-103900000D01*
X225967142Y-106876190D02*
X225967142Y-106685714D01*
X226010000Y-106590476D01*
X226095714Y-106495238D01*
X226267142Y-106447619D01*
X226567142Y-106447619D01*
X226738571Y-106495238D01*
X226824285Y-106590476D01*
X226867142Y-106685714D01*
X226867142Y-106876190D01*
X226824285Y-106971428D01*
X226738571Y-107066666D01*
X226567142Y-107114285D01*
X226267142Y-107114285D01*
X226095714Y-107066666D01*
X226010000Y-106971428D01*
X225967142Y-106876190D01*
X226824285Y-106066666D02*
X226867142Y-105923809D01*
X226867142Y-105685714D01*
X226824285Y-105590476D01*
X226781428Y-105542857D01*
X226695714Y-105495238D01*
X226610000Y-105495238D01*
X226524285Y-105542857D01*
X226481428Y-105590476D01*
X226438571Y-105685714D01*
X226395714Y-105876190D01*
X226352857Y-105971428D01*
X226310000Y-106019047D01*
X226224285Y-106066666D01*
X226138571Y-106066666D01*
X226052857Y-106019047D01*
X226010000Y-105971428D01*
X225967142Y-105876190D01*
X225967142Y-105638095D01*
X226010000Y-105495238D01*
X226781428Y-104495238D02*
X226824285Y-104542857D01*
X226867142Y-104685714D01*
X226867142Y-104780952D01*
X226824285Y-104923809D01*
X226738571Y-105019047D01*
X226652857Y-105066666D01*
X226481428Y-105114285D01*
X226352857Y-105114285D01*
X226181428Y-105066666D01*
X226095714Y-105019047D01*
X226010000Y-104923809D01*
X225967142Y-104780952D01*
X225967142Y-104685714D01*
X226010000Y-104542857D01*
X226052857Y-104495238D01*
X226867142Y-103590476D02*
X226867142Y-104066666D01*
X225967142Y-104066666D01*
X228507142Y-106900000D02*
X228507142Y-106709523D01*
X228550000Y-106614285D01*
X228635714Y-106519047D01*
X228807142Y-106471428D01*
X229107142Y-106471428D01*
X229278571Y-106519047D01*
X229364285Y-106614285D01*
X229407142Y-106709523D01*
X229407142Y-106900000D01*
X229364285Y-106995238D01*
X229278571Y-107090476D01*
X229107142Y-107138095D01*
X228807142Y-107138095D01*
X228635714Y-107090476D01*
X228550000Y-106995238D01*
X228507142Y-106900000D01*
X229364285Y-106090476D02*
X229407142Y-105947619D01*
X229407142Y-105709523D01*
X229364285Y-105614285D01*
X229321428Y-105566666D01*
X229235714Y-105519047D01*
X229150000Y-105519047D01*
X229064285Y-105566666D01*
X229021428Y-105614285D01*
X228978571Y-105709523D01*
X228935714Y-105900000D01*
X228892857Y-105995238D01*
X228850000Y-106042857D01*
X228764285Y-106090476D01*
X228678571Y-106090476D01*
X228592857Y-106042857D01*
X228550000Y-105995238D01*
X228507142Y-105900000D01*
X228507142Y-105661904D01*
X228550000Y-105519047D01*
X229407142Y-105090476D02*
X228507142Y-105090476D01*
X228507142Y-104852380D01*
X228550000Y-104709523D01*
X228635714Y-104614285D01*
X228721428Y-104566666D01*
X228892857Y-104519047D01*
X229021428Y-104519047D01*
X229192857Y-104566666D01*
X229278571Y-104614285D01*
X229364285Y-104709523D01*
X229407142Y-104852380D01*
X229407142Y-105090476D01*
X229150000Y-104138095D02*
X229150000Y-103661904D01*
X229407142Y-104233333D02*
X228507142Y-103900000D01*
X229407142Y-103566666D01*
X226909523Y-138135714D02*
X227242857Y-138135714D01*
X227385714Y-138607142D02*
X226909523Y-138607142D01*
X226909523Y-137707142D01*
X227385714Y-137707142D01*
X227814285Y-138607142D02*
X227814285Y-137707142D01*
X228052380Y-137707142D01*
X228195238Y-137750000D01*
X228290476Y-137835714D01*
X228338095Y-137921428D01*
X228385714Y-138092857D01*
X228385714Y-138221428D01*
X228338095Y-138392857D01*
X228290476Y-138478571D01*
X228195238Y-138564285D01*
X228052380Y-138607142D01*
X227814285Y-138607142D01*
X228766666Y-137792857D02*
X228814285Y-137750000D01*
X228909523Y-137707142D01*
X229147619Y-137707142D01*
X229242857Y-137750000D01*
X229290476Y-137792857D01*
X229338095Y-137878571D01*
X229338095Y-137964285D01*
X229290476Y-138092857D01*
X228719047Y-138607142D01*
X229338095Y-138607142D01*
X201609523Y-138035714D02*
X201942857Y-138035714D01*
X202085714Y-138507142D02*
X201609523Y-138507142D01*
X201609523Y-137607142D01*
X202085714Y-137607142D01*
X202514285Y-138507142D02*
X202514285Y-137607142D01*
X202752380Y-137607142D01*
X202895238Y-137650000D01*
X202990476Y-137735714D01*
X203038095Y-137821428D01*
X203085714Y-137992857D01*
X203085714Y-138121428D01*
X203038095Y-138292857D01*
X202990476Y-138378571D01*
X202895238Y-138464285D01*
X202752380Y-138507142D01*
X202514285Y-138507142D01*
X204038095Y-138507142D02*
X203466666Y-138507142D01*
X203752380Y-138507142D02*
X203752380Y-137607142D01*
X203657142Y-137735714D01*
X203561904Y-137821428D01*
X203466666Y-137864285D01*
X205535714Y-106804761D02*
X205578571Y-106661904D01*
X205621428Y-106614285D01*
X205707142Y-106566666D01*
X205835714Y-106566666D01*
X205921428Y-106614285D01*
X205964285Y-106661904D01*
X206007142Y-106757142D01*
X206007142Y-107138095D01*
X205107142Y-107138095D01*
X205107142Y-106804761D01*
X205150000Y-106709523D01*
X205192857Y-106661904D01*
X205278571Y-106614285D01*
X205364285Y-106614285D01*
X205450000Y-106661904D01*
X205492857Y-106709523D01*
X205535714Y-106804761D01*
X205535714Y-107138095D01*
X205107142Y-106280952D02*
X205107142Y-105709523D01*
X206007142Y-105995238D02*
X205107142Y-105995238D01*
X206007142Y-105376190D02*
X205107142Y-105376190D01*
X205750000Y-105042857D01*
X205107142Y-104709523D01*
X206007142Y-104709523D01*
X206007142Y-104233333D02*
X205107142Y-104233333D01*
X206007142Y-103661904D01*
X205107142Y-103661904D01*
X222307142Y-142385714D02*
X221407142Y-142385714D01*
X222050000Y-142052380D01*
X221407142Y-141719047D01*
X222307142Y-141719047D01*
X221492857Y-141290476D02*
X221450000Y-141242857D01*
X221407142Y-141147619D01*
X221407142Y-140909523D01*
X221450000Y-140814285D01*
X221492857Y-140766666D01*
X221578571Y-140719047D01*
X221664285Y-140719047D01*
X221792857Y-140766666D01*
X222307142Y-141338095D01*
X222307142Y-140719047D01*
X221835714Y-139957142D02*
X221878571Y-139814285D01*
X221921428Y-139766666D01*
X222007142Y-139719047D01*
X222135714Y-139719047D01*
X222221428Y-139766666D01*
X222264285Y-139814285D01*
X222307142Y-139909523D01*
X222307142Y-140290476D01*
X221407142Y-140290476D01*
X221407142Y-139957142D01*
X221450000Y-139861904D01*
X221492857Y-139814285D01*
X221578571Y-139766666D01*
X221664285Y-139766666D01*
X221750000Y-139814285D01*
X221792857Y-139861904D01*
X221835714Y-139957142D01*
X221835714Y-140290476D01*
X221492857Y-139338095D02*
X221450000Y-139290476D01*
X221407142Y-139195238D01*
X221407142Y-138957142D01*
X221450000Y-138861904D01*
X221492857Y-138814285D01*
X221578571Y-138766666D01*
X221664285Y-138766666D01*
X221792857Y-138814285D01*
X222307142Y-139385714D01*
X222307142Y-138766666D01*
X219807142Y-142385714D02*
X218907142Y-142385714D01*
X219550000Y-142052380D01*
X218907142Y-141719047D01*
X219807142Y-141719047D01*
X218992857Y-141290476D02*
X218950000Y-141242857D01*
X218907142Y-141147619D01*
X218907142Y-140909523D01*
X218950000Y-140814285D01*
X218992857Y-140766666D01*
X219078571Y-140719047D01*
X219164285Y-140719047D01*
X219292857Y-140766666D01*
X219807142Y-141338095D01*
X219807142Y-140719047D01*
X219335714Y-139957142D02*
X219378571Y-139814285D01*
X219421428Y-139766666D01*
X219507142Y-139719047D01*
X219635714Y-139719047D01*
X219721428Y-139766666D01*
X219764285Y-139814285D01*
X219807142Y-139909523D01*
X219807142Y-140290476D01*
X218907142Y-140290476D01*
X218907142Y-139957142D01*
X218950000Y-139861904D01*
X218992857Y-139814285D01*
X219078571Y-139766666D01*
X219164285Y-139766666D01*
X219250000Y-139814285D01*
X219292857Y-139861904D01*
X219335714Y-139957142D01*
X219335714Y-140290476D01*
X219807142Y-138766666D02*
X219807142Y-139338095D01*
X219807142Y-139052380D02*
X218907142Y-139052380D01*
X219035714Y-139147619D01*
X219121428Y-139242857D01*
X219164285Y-139338095D01*
X217207142Y-142414285D02*
X216307142Y-142414285D01*
X216950000Y-142080952D01*
X216307142Y-141747619D01*
X217207142Y-141747619D01*
X216392857Y-141319047D02*
X216350000Y-141271428D01*
X216307142Y-141176190D01*
X216307142Y-140938095D01*
X216350000Y-140842857D01*
X216392857Y-140795238D01*
X216478571Y-140747619D01*
X216564285Y-140747619D01*
X216692857Y-140795238D01*
X217207142Y-141366666D01*
X217207142Y-140747619D01*
X216950000Y-140366666D02*
X216950000Y-139890476D01*
X217207142Y-140461904D02*
X216307142Y-140128571D01*
X217207142Y-139795238D01*
X216392857Y-139509523D02*
X216350000Y-139461904D01*
X216307142Y-139366666D01*
X216307142Y-139128571D01*
X216350000Y-139033333D01*
X216392857Y-138985714D01*
X216478571Y-138938095D01*
X216564285Y-138938095D01*
X216692857Y-138985714D01*
X217207142Y-139557142D01*
X217207142Y-138938095D01*
X214707142Y-142414285D02*
X213807142Y-142414285D01*
X214450000Y-142080952D01*
X213807142Y-141747619D01*
X214707142Y-141747619D01*
X213892857Y-141319047D02*
X213850000Y-141271428D01*
X213807142Y-141176190D01*
X213807142Y-140938095D01*
X213850000Y-140842857D01*
X213892857Y-140795238D01*
X213978571Y-140747619D01*
X214064285Y-140747619D01*
X214192857Y-140795238D01*
X214707142Y-141366666D01*
X214707142Y-140747619D01*
X214450000Y-140366666D02*
X214450000Y-139890476D01*
X214707142Y-140461904D02*
X213807142Y-140128571D01*
X214707142Y-139795238D01*
X214707142Y-138938095D02*
X214707142Y-139509523D01*
X214707142Y-139223809D02*
X213807142Y-139223809D01*
X213935714Y-139319047D01*
X214021428Y-139414285D01*
X214064285Y-139509523D01*
X212107142Y-142414285D02*
X211207142Y-142414285D01*
X211850000Y-142080952D01*
X211207142Y-141747619D01*
X212107142Y-141747619D01*
X212107142Y-140747619D02*
X212107142Y-141319047D01*
X212107142Y-141033333D02*
X211207142Y-141033333D01*
X211335714Y-141128571D01*
X211421428Y-141223809D01*
X211464285Y-141319047D01*
X211850000Y-140366666D02*
X211850000Y-139890476D01*
X212107142Y-140461904D02*
X211207142Y-140128571D01*
X212107142Y-139795238D01*
X212107142Y-138938095D02*
X212107142Y-139509523D01*
X212107142Y-139223809D02*
X211207142Y-139223809D01*
X211335714Y-139319047D01*
X211421428Y-139414285D01*
X211464285Y-139509523D01*
X209607142Y-142414285D02*
X208707142Y-142414285D01*
X209350000Y-142080952D01*
X208707142Y-141747619D01*
X209607142Y-141747619D01*
X209607142Y-140747619D02*
X209607142Y-141319047D01*
X209607142Y-141033333D02*
X208707142Y-141033333D01*
X208835714Y-141128571D01*
X208921428Y-141223809D01*
X208964285Y-141319047D01*
X209350000Y-140366666D02*
X209350000Y-139890476D01*
X209607142Y-140461904D02*
X208707142Y-140128571D01*
X209607142Y-139795238D01*
X208792857Y-139509523D02*
X208750000Y-139461904D01*
X208707142Y-139366666D01*
X208707142Y-139128571D01*
X208750000Y-139033333D01*
X208792857Y-138985714D01*
X208878571Y-138938095D01*
X208964285Y-138938095D01*
X209092857Y-138985714D01*
X209607142Y-139557142D01*
X209607142Y-138938095D01*
X207107142Y-142385714D02*
X206207142Y-142385714D01*
X206850000Y-142052380D01*
X206207142Y-141719047D01*
X207107142Y-141719047D01*
X207107142Y-140719047D02*
X207107142Y-141290476D01*
X207107142Y-141004761D02*
X206207142Y-141004761D01*
X206335714Y-141100000D01*
X206421428Y-141195238D01*
X206464285Y-141290476D01*
X206635714Y-139957142D02*
X206678571Y-139814285D01*
X206721428Y-139766666D01*
X206807142Y-139719047D01*
X206935714Y-139719047D01*
X207021428Y-139766666D01*
X207064285Y-139814285D01*
X207107142Y-139909523D01*
X207107142Y-140290476D01*
X206207142Y-140290476D01*
X206207142Y-139957142D01*
X206250000Y-139861904D01*
X206292857Y-139814285D01*
X206378571Y-139766666D01*
X206464285Y-139766666D01*
X206550000Y-139814285D01*
X206592857Y-139861904D01*
X206635714Y-139957142D01*
X206635714Y-140290476D01*
X207107142Y-138766666D02*
X207107142Y-139338095D01*
X207107142Y-139052380D02*
X206207142Y-139052380D01*
X206335714Y-139147619D01*
X206421428Y-139242857D01*
X206464285Y-139338095D01*
X204507142Y-142385714D02*
X203607142Y-142385714D01*
X204250000Y-142052380D01*
X203607142Y-141719047D01*
X204507142Y-141719047D01*
X204507142Y-140719047D02*
X204507142Y-141290476D01*
X204507142Y-141004761D02*
X203607142Y-141004761D01*
X203735714Y-141100000D01*
X203821428Y-141195238D01*
X203864285Y-141290476D01*
X204035714Y-139957142D02*
X204078571Y-139814285D01*
X204121428Y-139766666D01*
X204207142Y-139719047D01*
X204335714Y-139719047D01*
X204421428Y-139766666D01*
X204464285Y-139814285D01*
X204507142Y-139909523D01*
X204507142Y-140290476D01*
X203607142Y-140290476D01*
X203607142Y-139957142D01*
X203650000Y-139861904D01*
X203692857Y-139814285D01*
X203778571Y-139766666D01*
X203864285Y-139766666D01*
X203950000Y-139814285D01*
X203992857Y-139861904D01*
X204035714Y-139957142D01*
X204035714Y-140290476D01*
X203692857Y-139338095D02*
X203650000Y-139290476D01*
X203607142Y-139195238D01*
X203607142Y-138957142D01*
X203650000Y-138861904D01*
X203692857Y-138814285D01*
X203778571Y-138766666D01*
X203864285Y-138766666D01*
X203992857Y-138814285D01*
X204507142Y-139385714D01*
X204507142Y-138766666D01*
X224807142Y-142414285D02*
X223907142Y-142414285D01*
X224550000Y-142080952D01*
X223907142Y-141747619D01*
X224807142Y-141747619D01*
X223557000Y-141509523D02*
X223557000Y-140557142D01*
X224764285Y-141319047D02*
X224807142Y-141176190D01*
X224807142Y-140938095D01*
X224764285Y-140842857D01*
X224721428Y-140795238D01*
X224635714Y-140747619D01*
X224550000Y-140747619D01*
X224464285Y-140795238D01*
X224421428Y-140842857D01*
X224378571Y-140938095D01*
X224335714Y-141128571D01*
X224292857Y-141223809D01*
X224250000Y-141271428D01*
X224164285Y-141319047D01*
X224078571Y-141319047D01*
X223992857Y-141271428D01*
X223950000Y-141223809D01*
X223907142Y-141128571D01*
X223907142Y-140890476D01*
X223950000Y-140747619D01*
X223557000Y-140557142D02*
X223557000Y-139747619D01*
X224807142Y-139842857D02*
X224807142Y-140319047D01*
X223907142Y-140319047D01*
X223557000Y-139747619D02*
X223557000Y-138747619D01*
X224807142Y-139509523D02*
X223907142Y-139509523D01*
X223907142Y-139128571D01*
X223950000Y-139033333D01*
X223992857Y-138985714D01*
X224078571Y-138938095D01*
X224207142Y-138938095D01*
X224292857Y-138985714D01*
X224335714Y-139033333D01*
X224378571Y-139128571D01*
X224378571Y-139509523D01*
X202390476Y-108107142D02*
X202723809Y-109007142D01*
X203057142Y-108107142D01*
X203723809Y-108535714D02*
X203866666Y-108578571D01*
X203914285Y-108621428D01*
X203961904Y-108707142D01*
X203961904Y-108835714D01*
X203914285Y-108921428D01*
X203866666Y-108964285D01*
X203771428Y-109007142D01*
X203390476Y-109007142D01*
X203390476Y-108107142D01*
X203723809Y-108107142D01*
X203819047Y-108150000D01*
X203866666Y-108192857D01*
X203914285Y-108278571D01*
X203914285Y-108364285D01*
X203866666Y-108450000D01*
X203819047Y-108492857D01*
X203723809Y-108535714D01*
X203390476Y-108535714D01*
X204342857Y-108964285D02*
X204485714Y-109007142D01*
X204723809Y-109007142D01*
X204819047Y-108964285D01*
X204866666Y-108921428D01*
X204914285Y-108835714D01*
X204914285Y-108750000D01*
X204866666Y-108664285D01*
X204819047Y-108621428D01*
X204723809Y-108578571D01*
X204533333Y-108535714D01*
X204438095Y-108492857D01*
X204390476Y-108450000D01*
X204342857Y-108364285D01*
X204342857Y-108278571D01*
X204390476Y-108192857D01*
X204438095Y-108150000D01*
X204533333Y-108107142D01*
X204771428Y-108107142D01*
X204914285Y-108150000D01*
M02*
