M48
; DRILL file {KiCad (5.1.4)-1} date 09/10/2019 21:16:56
; FORMAT={-:-/ absolute / inch / decimal}
; #@! TF.CreationDate,2019-10-09T21:16:56+02:00
; #@! TF.GenerationSoftware,Kicad,Pcbnew,(5.1.4)-1
; #@! TF.FileFunction,Plated,1,2,PTH
FMAT,2
INCH
T1C0.0157
T2C0.0197
%
G90
G05
T1
X7.7535Y-5.2358
X7.8041Y-5.0407
X7.8041Y-5.0907
X7.8543Y-4.9213
X7.8589Y-4.6717
X7.8819Y-4.1516
X7.9163Y-4.4016
X7.9163Y-4.4429
X7.9343Y-4.8902
X7.9396Y-4.6717
X7.9508Y-4.3386
X7.9838Y-5.4097
X8.0197Y-4.1516
X8.0343Y-5.5335
X8.0443Y-4.5125
X8.1142Y-4.2953
X8.1343Y-5.5335
X8.2185Y-4.7047
X8.2283Y-4.6555
X8.2335Y-5.5335
X8.3343Y-5.5335
X8.4339Y-5.5335
X8.4843Y-4.6516
X8.4843Y-4.7579
X8.4843Y-5.1417
X8.5339Y-5.5335
X8.6143Y-4.2825
X8.6339Y-5.5335
X8.7343Y-5.5335
X8.7402Y-4.813
X8.7402Y-4.8622
X8.8189Y-5.3132
X8.8197Y-4.1201
X8.8335Y-5.5335
X8.9173Y-4.3209
X8.9343Y-5.5335
X8.9362Y-4.9661
X8.9882Y-4.6237
X9.0276Y-4.3209
X9.0543Y-5.3125
X9.1243Y-4.9925
T2
X7.7402Y-4.3205
X7.7402Y-4.402
X7.7402Y-4.4681
X7.7402Y-4.5496
X7.7441Y-4.1516
X7.7441Y-5.5335
X7.8307Y-4.3381
X7.8307Y-4.532
X7.8819Y-5.4705
X7.8819Y-5.5965
X7.8992Y-4.6311
X7.8992Y-4.7122
X7.9343Y-4.8325
X8.1496Y-4.6632
X8.2593Y-5.3526
X8.2697Y-4.1102
X8.4843Y-4.1325
X8.6988Y-4.1102
X8.8189Y-4.6632
X9.0591Y-4.3976
X9.0866Y-4.1516
X9.0866Y-5.4705
X9.0866Y-5.5965
X9.1213Y-5.1366
X9.2213Y-5.1366
X9.2244Y-4.1516
X9.2244Y-5.5335
X9.2323Y-4.3293
X9.2323Y-4.536
T0
M30
