G04 #@! TF.GenerationSoftware,KiCad,Pcbnew,(5.1.4)-1*
G04 #@! TF.CreationDate,2019-10-10T18:24:03+02:00*
G04 #@! TF.ProjectId,Top,546f702e-6b69-4636-9164-5f7063625858,rev?*
G04 #@! TF.SameCoordinates,Original*
G04 #@! TF.FileFunction,Copper,L1,Top*
G04 #@! TF.FilePolarity,Positive*
%FSLAX46Y46*%
G04 Gerber Fmt 4.6, Leading zero omitted, Abs format (unit mm)*
G04 Created by KiCad (PCBNEW (5.1.4)-1) date 2019-10-10 18:24:03*
%MOMM*%
%LPD*%
G04 APERTURE LIST*
%ADD10C,1.000000*%
%ADD11C,0.800000*%
%ADD12C,0.300000*%
%ADD13C,0.400000*%
%ADD14C,0.254000*%
G04 APERTURE END LIST*
D10*
X169300000Y-97950000D03*
X169500000Y-107400000D03*
X131700000Y-97950000D03*
X131700000Y-102800000D03*
X135300000Y-113300000D03*
X132993829Y-110333369D03*
X145450000Y-97500000D03*
D11*
X159000000Y-97600000D03*
X161550000Y-97600000D03*
X141700000Y-100650000D03*
D10*
X150500000Y-115500000D03*
X169300000Y-133050000D03*
X131700000Y-133050000D03*
X132300000Y-113300000D03*
X165800000Y-97950000D03*
X169500000Y-105400000D03*
X135200000Y-97950000D03*
X137450000Y-113300000D03*
X131800000Y-106900000D03*
X169300000Y-126050000D03*
X131700000Y-126050000D03*
D11*
X131700000Y-104700000D03*
X133700000Y-106900000D03*
D12*
X165800000Y-100750000D02*
X165800000Y-97950000D01*
X165800000Y-102625000D02*
X165800000Y-100750000D01*
X168575000Y-105400000D02*
X165800000Y-102625000D01*
X169500000Y-105400000D02*
X168575000Y-105400000D01*
D13*
X135200000Y-97950000D02*
X135200000Y-99200000D01*
X135200000Y-99200000D02*
X137450000Y-101450000D01*
X137450000Y-101450000D02*
X137450000Y-113300000D01*
X131700000Y-114700000D02*
X131100000Y-114100000D01*
X131100000Y-114100000D02*
X131100000Y-107600000D01*
X131100000Y-107600000D02*
X131800000Y-106900000D01*
X169300000Y-126050000D02*
X131700000Y-126050000D01*
X131700000Y-114700000D02*
X131700000Y-126050000D01*
X131700000Y-104900000D02*
X133700000Y-106900000D01*
X131700000Y-104700000D02*
X131700000Y-104900000D01*
D14*
G36*
X168576480Y-126931612D02*
G01*
X168762376Y-127055824D01*
X168968933Y-127141383D01*
X169188212Y-127185000D01*
X169411788Y-127185000D01*
X169631067Y-127141383D01*
X169815001Y-127065195D01*
X169815001Y-134815000D01*
X131185000Y-134815000D01*
X131185000Y-133193137D01*
X146015000Y-133193137D01*
X146015000Y-133406863D01*
X146056696Y-133616483D01*
X146138485Y-133813940D01*
X146257225Y-133991647D01*
X146408353Y-134142775D01*
X146586060Y-134261515D01*
X146783517Y-134343304D01*
X146993137Y-134385000D01*
X147206863Y-134385000D01*
X147416483Y-134343304D01*
X147613940Y-134261515D01*
X147791647Y-134142775D01*
X147942775Y-133991647D01*
X148061515Y-133813940D01*
X148143304Y-133616483D01*
X148185000Y-133406863D01*
X148185000Y-133193137D01*
X152815000Y-133193137D01*
X152815000Y-133406863D01*
X152856696Y-133616483D01*
X152938485Y-133813940D01*
X153057225Y-133991647D01*
X153208353Y-134142775D01*
X153386060Y-134261515D01*
X153583517Y-134343304D01*
X153793137Y-134385000D01*
X154006863Y-134385000D01*
X154216483Y-134343304D01*
X154413940Y-134261515D01*
X154591647Y-134142775D01*
X154742775Y-133991647D01*
X154861515Y-133813940D01*
X154943304Y-133616483D01*
X154985000Y-133406863D01*
X154985000Y-133193137D01*
X154943304Y-132983517D01*
X154861515Y-132786060D01*
X154742775Y-132608353D01*
X154591647Y-132457225D01*
X154413940Y-132338485D01*
X154216483Y-132256696D01*
X154006863Y-132215000D01*
X153793137Y-132215000D01*
X153583517Y-132256696D01*
X153386060Y-132338485D01*
X153208353Y-132457225D01*
X153057225Y-132608353D01*
X152938485Y-132786060D01*
X152856696Y-132983517D01*
X152815000Y-133193137D01*
X148185000Y-133193137D01*
X148143304Y-132983517D01*
X148061515Y-132786060D01*
X147942775Y-132608353D01*
X147791647Y-132457225D01*
X147613940Y-132338485D01*
X147416483Y-132256696D01*
X147206863Y-132215000D01*
X146993137Y-132215000D01*
X146783517Y-132256696D01*
X146586060Y-132338485D01*
X146408353Y-132457225D01*
X146257225Y-132608353D01*
X146138485Y-132786060D01*
X146056696Y-132983517D01*
X146015000Y-133193137D01*
X131185000Y-133193137D01*
X131185000Y-127065195D01*
X131368933Y-127141383D01*
X131588212Y-127185000D01*
X131811788Y-127185000D01*
X132031067Y-127141383D01*
X132237624Y-127055824D01*
X132423520Y-126931612D01*
X132470132Y-126885000D01*
X168529868Y-126885000D01*
X168576480Y-126931612D01*
X168576480Y-126931612D01*
G37*
X168576480Y-126931612D02*
X168762376Y-127055824D01*
X168968933Y-127141383D01*
X169188212Y-127185000D01*
X169411788Y-127185000D01*
X169631067Y-127141383D01*
X169815001Y-127065195D01*
X169815001Y-134815000D01*
X131185000Y-134815000D01*
X131185000Y-133193137D01*
X146015000Y-133193137D01*
X146015000Y-133406863D01*
X146056696Y-133616483D01*
X146138485Y-133813940D01*
X146257225Y-133991647D01*
X146408353Y-134142775D01*
X146586060Y-134261515D01*
X146783517Y-134343304D01*
X146993137Y-134385000D01*
X147206863Y-134385000D01*
X147416483Y-134343304D01*
X147613940Y-134261515D01*
X147791647Y-134142775D01*
X147942775Y-133991647D01*
X148061515Y-133813940D01*
X148143304Y-133616483D01*
X148185000Y-133406863D01*
X148185000Y-133193137D01*
X152815000Y-133193137D01*
X152815000Y-133406863D01*
X152856696Y-133616483D01*
X152938485Y-133813940D01*
X153057225Y-133991647D01*
X153208353Y-134142775D01*
X153386060Y-134261515D01*
X153583517Y-134343304D01*
X153793137Y-134385000D01*
X154006863Y-134385000D01*
X154216483Y-134343304D01*
X154413940Y-134261515D01*
X154591647Y-134142775D01*
X154742775Y-133991647D01*
X154861515Y-133813940D01*
X154943304Y-133616483D01*
X154985000Y-133406863D01*
X154985000Y-133193137D01*
X154943304Y-132983517D01*
X154861515Y-132786060D01*
X154742775Y-132608353D01*
X154591647Y-132457225D01*
X154413940Y-132338485D01*
X154216483Y-132256696D01*
X154006863Y-132215000D01*
X153793137Y-132215000D01*
X153583517Y-132256696D01*
X153386060Y-132338485D01*
X153208353Y-132457225D01*
X153057225Y-132608353D01*
X152938485Y-132786060D01*
X152856696Y-132983517D01*
X152815000Y-133193137D01*
X148185000Y-133193137D01*
X148143304Y-132983517D01*
X148061515Y-132786060D01*
X147942775Y-132608353D01*
X147791647Y-132457225D01*
X147613940Y-132338485D01*
X147416483Y-132256696D01*
X147206863Y-132215000D01*
X146993137Y-132215000D01*
X146783517Y-132256696D01*
X146586060Y-132338485D01*
X146408353Y-132457225D01*
X146257225Y-132608353D01*
X146138485Y-132786060D01*
X146056696Y-132983517D01*
X146015000Y-133193137D01*
X131185000Y-133193137D01*
X131185000Y-127065195D01*
X131368933Y-127141383D01*
X131588212Y-127185000D01*
X131811788Y-127185000D01*
X132031067Y-127141383D01*
X132237624Y-127055824D01*
X132423520Y-126931612D01*
X132470132Y-126885000D01*
X168529868Y-126885000D01*
X168576480Y-126931612D01*
G36*
X169815000Y-104305421D02*
G01*
X169611788Y-104265000D01*
X169388212Y-104265000D01*
X169168933Y-104308617D01*
X168962376Y-104394176D01*
X168792704Y-104507547D01*
X166585000Y-102299843D01*
X166585000Y-98770132D01*
X166681612Y-98673520D01*
X166805824Y-98487624D01*
X166891383Y-98281067D01*
X166935000Y-98061788D01*
X166935000Y-97838212D01*
X166891383Y-97618933D01*
X166805824Y-97412376D01*
X166681612Y-97226480D01*
X166523520Y-97068388D01*
X166337624Y-96944176D01*
X166131067Y-96858617D01*
X165911788Y-96815000D01*
X165688212Y-96815000D01*
X165468933Y-96858617D01*
X165262376Y-96944176D01*
X165076480Y-97068388D01*
X164918388Y-97226480D01*
X164794176Y-97412376D01*
X164708617Y-97618933D01*
X164665000Y-97838212D01*
X164665000Y-98061788D01*
X164708617Y-98281067D01*
X164794176Y-98487624D01*
X164918388Y-98673520D01*
X165015001Y-98770133D01*
X165015000Y-100788560D01*
X165015001Y-100788570D01*
X165015000Y-102586447D01*
X165011203Y-102625000D01*
X165015000Y-102663553D01*
X165015000Y-102663560D01*
X165026359Y-102778886D01*
X165071246Y-102926859D01*
X165144138Y-103063232D01*
X165242236Y-103182764D01*
X165272190Y-103207347D01*
X167992653Y-105927810D01*
X168017236Y-105957764D01*
X168136767Y-106055862D01*
X168263348Y-106123520D01*
X168273140Y-106128754D01*
X168421113Y-106173642D01*
X168496026Y-106181020D01*
X168536439Y-106185000D01*
X168536444Y-106185000D01*
X168575000Y-106188797D01*
X168613556Y-106185000D01*
X168679868Y-106185000D01*
X168776480Y-106281612D01*
X168962376Y-106405824D01*
X169168933Y-106491383D01*
X169388212Y-106535000D01*
X169611788Y-106535000D01*
X169815000Y-106494579D01*
X169815001Y-125034805D01*
X169631067Y-124958617D01*
X169411788Y-124915000D01*
X169188212Y-124915000D01*
X168968933Y-124958617D01*
X168762376Y-125044176D01*
X168576480Y-125168388D01*
X168529868Y-125215000D01*
X132535000Y-125215000D01*
X132535000Y-114741018D01*
X132539040Y-114699999D01*
X132522918Y-114536311D01*
X132487611Y-114419918D01*
X132631067Y-114391383D01*
X132837624Y-114305824D01*
X133023520Y-114181612D01*
X133181612Y-114023520D01*
X133305824Y-113837624D01*
X133391383Y-113631067D01*
X133435000Y-113411788D01*
X133435000Y-113188212D01*
X133391383Y-112968933D01*
X133305824Y-112762376D01*
X133181612Y-112576480D01*
X133023520Y-112418388D01*
X132837624Y-112294176D01*
X132631067Y-112208617D01*
X132411788Y-112165000D01*
X132188212Y-112165000D01*
X131968933Y-112208617D01*
X131935000Y-112222673D01*
X131935000Y-108030383D01*
X132131067Y-107991383D01*
X132337624Y-107905824D01*
X132523520Y-107781612D01*
X132681612Y-107623520D01*
X132805824Y-107437624D01*
X132809123Y-107429659D01*
X132896063Y-107559774D01*
X133040226Y-107703937D01*
X133209744Y-107817205D01*
X133398102Y-107895226D01*
X133598061Y-107935000D01*
X133801939Y-107935000D01*
X134001898Y-107895226D01*
X134190256Y-107817205D01*
X134359774Y-107703937D01*
X134503937Y-107559774D01*
X134617205Y-107390256D01*
X134695226Y-107201898D01*
X134735000Y-107001939D01*
X134735000Y-106798061D01*
X134695226Y-106598102D01*
X134617205Y-106409744D01*
X134503937Y-106240226D01*
X134359774Y-106096063D01*
X134190256Y-105982795D01*
X134001898Y-105904774D01*
X133856775Y-105875908D01*
X132735000Y-104754133D01*
X132735000Y-104598061D01*
X132695226Y-104398102D01*
X132617205Y-104209744D01*
X132503937Y-104040226D01*
X132359774Y-103896063D01*
X132190256Y-103782795D01*
X132001898Y-103704774D01*
X131801939Y-103665000D01*
X131598061Y-103665000D01*
X131398102Y-103704774D01*
X131209744Y-103782795D01*
X131185000Y-103799328D01*
X131185000Y-102550000D01*
X135173000Y-102550000D01*
X135173000Y-104950000D01*
X135175440Y-104974776D01*
X135182667Y-104998601D01*
X135194403Y-105020557D01*
X135210197Y-105039803D01*
X135229443Y-105055597D01*
X135251399Y-105067333D01*
X135275224Y-105074560D01*
X135300000Y-105077000D01*
X136450000Y-105077000D01*
X136474776Y-105074560D01*
X136498601Y-105067333D01*
X136520557Y-105055597D01*
X136539803Y-105039803D01*
X136555597Y-105020557D01*
X136567333Y-104998601D01*
X136574560Y-104974776D01*
X136577000Y-104950000D01*
X136577000Y-102550000D01*
X136574560Y-102525224D01*
X136567333Y-102501399D01*
X136555597Y-102479443D01*
X136539803Y-102460197D01*
X136520557Y-102444403D01*
X136498601Y-102432667D01*
X136474776Y-102425440D01*
X136450000Y-102423000D01*
X135300000Y-102423000D01*
X135275224Y-102425440D01*
X135251399Y-102432667D01*
X135229443Y-102444403D01*
X135210197Y-102460197D01*
X135194403Y-102479443D01*
X135182667Y-102501399D01*
X135175440Y-102525224D01*
X135173000Y-102550000D01*
X131185000Y-102550000D01*
X131185000Y-97838212D01*
X134065000Y-97838212D01*
X134065000Y-98061788D01*
X134108617Y-98281067D01*
X134194176Y-98487624D01*
X134318388Y-98673520D01*
X134365001Y-98720133D01*
X134365001Y-99158972D01*
X134360960Y-99200000D01*
X134377082Y-99363688D01*
X134424828Y-99521086D01*
X134424829Y-99521087D01*
X134502365Y-99666146D01*
X134606710Y-99793291D01*
X134638574Y-99819441D01*
X136615000Y-101795869D01*
X136615001Y-112529867D01*
X136568388Y-112576480D01*
X136444176Y-112762376D01*
X136358617Y-112968933D01*
X136315000Y-113188212D01*
X136315000Y-113411788D01*
X136358617Y-113631067D01*
X136444176Y-113837624D01*
X136568388Y-114023520D01*
X136726480Y-114181612D01*
X136912376Y-114305824D01*
X137118933Y-114391383D01*
X137338212Y-114435000D01*
X137561788Y-114435000D01*
X137781067Y-114391383D01*
X137987624Y-114305824D01*
X138173520Y-114181612D01*
X138331612Y-114023520D01*
X138455824Y-113837624D01*
X138541383Y-113631067D01*
X138585000Y-113411788D01*
X138585000Y-113188212D01*
X138541383Y-112968933D01*
X138455824Y-112762376D01*
X138331612Y-112576480D01*
X138285000Y-112529868D01*
X138285000Y-104310000D01*
X138441686Y-104310000D01*
X138445001Y-104343657D01*
X138445000Y-109876353D01*
X138441686Y-109910000D01*
X138454912Y-110044283D01*
X138494081Y-110173406D01*
X138557688Y-110292407D01*
X138643289Y-110396711D01*
X138747593Y-110482312D01*
X138866594Y-110545919D01*
X138995717Y-110585088D01*
X139130000Y-110598314D01*
X139163647Y-110595000D01*
X161596353Y-110595000D01*
X161630000Y-110598314D01*
X161764283Y-110585088D01*
X161893406Y-110545919D01*
X162012407Y-110482312D01*
X162116711Y-110396711D01*
X162202312Y-110292407D01*
X162265919Y-110173406D01*
X162305088Y-110044283D01*
X162315000Y-109943647D01*
X162315000Y-109943646D01*
X162318314Y-109910000D01*
X162315000Y-109876353D01*
X162315000Y-104343647D01*
X162318314Y-104310000D01*
X162305088Y-104175717D01*
X162265919Y-104046594D01*
X162202312Y-103927593D01*
X162116711Y-103823289D01*
X162012407Y-103737688D01*
X161893406Y-103674081D01*
X161764283Y-103634912D01*
X161663647Y-103625000D01*
X161630000Y-103621686D01*
X161596353Y-103625000D01*
X139163647Y-103625000D01*
X139130000Y-103621686D01*
X139096353Y-103625000D01*
X138995717Y-103634912D01*
X138866594Y-103674081D01*
X138747593Y-103737688D01*
X138643289Y-103823289D01*
X138557688Y-103927593D01*
X138494081Y-104046594D01*
X138454912Y-104175717D01*
X138441686Y-104310000D01*
X138285000Y-104310000D01*
X138285000Y-101491018D01*
X138289040Y-101450000D01*
X138272918Y-101286312D01*
X138225172Y-101128913D01*
X138183986Y-101051860D01*
X138147636Y-100983854D01*
X138043291Y-100856709D01*
X138011433Y-100830564D01*
X136035000Y-98854133D01*
X136035000Y-98720132D01*
X136081612Y-98673520D01*
X136205824Y-98487624D01*
X136291383Y-98281067D01*
X136335000Y-98061788D01*
X136335000Y-97838212D01*
X136291383Y-97618933D01*
X136205824Y-97412376D01*
X136081612Y-97226480D01*
X135923520Y-97068388D01*
X135737624Y-96944176D01*
X135531067Y-96858617D01*
X135311788Y-96815000D01*
X135088212Y-96815000D01*
X134868933Y-96858617D01*
X134662376Y-96944176D01*
X134476480Y-97068388D01*
X134318388Y-97226480D01*
X134194176Y-97412376D01*
X134108617Y-97618933D01*
X134065000Y-97838212D01*
X131185000Y-97838212D01*
X131185000Y-96185000D01*
X169815000Y-96185000D01*
X169815000Y-104305421D01*
X169815000Y-104305421D01*
G37*
X169815000Y-104305421D02*
X169611788Y-104265000D01*
X169388212Y-104265000D01*
X169168933Y-104308617D01*
X168962376Y-104394176D01*
X168792704Y-104507547D01*
X166585000Y-102299843D01*
X166585000Y-98770132D01*
X166681612Y-98673520D01*
X166805824Y-98487624D01*
X166891383Y-98281067D01*
X166935000Y-98061788D01*
X166935000Y-97838212D01*
X166891383Y-97618933D01*
X166805824Y-97412376D01*
X166681612Y-97226480D01*
X166523520Y-97068388D01*
X166337624Y-96944176D01*
X166131067Y-96858617D01*
X165911788Y-96815000D01*
X165688212Y-96815000D01*
X165468933Y-96858617D01*
X165262376Y-96944176D01*
X165076480Y-97068388D01*
X164918388Y-97226480D01*
X164794176Y-97412376D01*
X164708617Y-97618933D01*
X164665000Y-97838212D01*
X164665000Y-98061788D01*
X164708617Y-98281067D01*
X164794176Y-98487624D01*
X164918388Y-98673520D01*
X165015001Y-98770133D01*
X165015000Y-100788560D01*
X165015001Y-100788570D01*
X165015000Y-102586447D01*
X165011203Y-102625000D01*
X165015000Y-102663553D01*
X165015000Y-102663560D01*
X165026359Y-102778886D01*
X165071246Y-102926859D01*
X165144138Y-103063232D01*
X165242236Y-103182764D01*
X165272190Y-103207347D01*
X167992653Y-105927810D01*
X168017236Y-105957764D01*
X168136767Y-106055862D01*
X168263348Y-106123520D01*
X168273140Y-106128754D01*
X168421113Y-106173642D01*
X168496026Y-106181020D01*
X168536439Y-106185000D01*
X168536444Y-106185000D01*
X168575000Y-106188797D01*
X168613556Y-106185000D01*
X168679868Y-106185000D01*
X168776480Y-106281612D01*
X168962376Y-106405824D01*
X169168933Y-106491383D01*
X169388212Y-106535000D01*
X169611788Y-106535000D01*
X169815000Y-106494579D01*
X169815001Y-125034805D01*
X169631067Y-124958617D01*
X169411788Y-124915000D01*
X169188212Y-124915000D01*
X168968933Y-124958617D01*
X168762376Y-125044176D01*
X168576480Y-125168388D01*
X168529868Y-125215000D01*
X132535000Y-125215000D01*
X132535000Y-114741018D01*
X132539040Y-114699999D01*
X132522918Y-114536311D01*
X132487611Y-114419918D01*
X132631067Y-114391383D01*
X132837624Y-114305824D01*
X133023520Y-114181612D01*
X133181612Y-114023520D01*
X133305824Y-113837624D01*
X133391383Y-113631067D01*
X133435000Y-113411788D01*
X133435000Y-113188212D01*
X133391383Y-112968933D01*
X133305824Y-112762376D01*
X133181612Y-112576480D01*
X133023520Y-112418388D01*
X132837624Y-112294176D01*
X132631067Y-112208617D01*
X132411788Y-112165000D01*
X132188212Y-112165000D01*
X131968933Y-112208617D01*
X131935000Y-112222673D01*
X131935000Y-108030383D01*
X132131067Y-107991383D01*
X132337624Y-107905824D01*
X132523520Y-107781612D01*
X132681612Y-107623520D01*
X132805824Y-107437624D01*
X132809123Y-107429659D01*
X132896063Y-107559774D01*
X133040226Y-107703937D01*
X133209744Y-107817205D01*
X133398102Y-107895226D01*
X133598061Y-107935000D01*
X133801939Y-107935000D01*
X134001898Y-107895226D01*
X134190256Y-107817205D01*
X134359774Y-107703937D01*
X134503937Y-107559774D01*
X134617205Y-107390256D01*
X134695226Y-107201898D01*
X134735000Y-107001939D01*
X134735000Y-106798061D01*
X134695226Y-106598102D01*
X134617205Y-106409744D01*
X134503937Y-106240226D01*
X134359774Y-106096063D01*
X134190256Y-105982795D01*
X134001898Y-105904774D01*
X133856775Y-105875908D01*
X132735000Y-104754133D01*
X132735000Y-104598061D01*
X132695226Y-104398102D01*
X132617205Y-104209744D01*
X132503937Y-104040226D01*
X132359774Y-103896063D01*
X132190256Y-103782795D01*
X132001898Y-103704774D01*
X131801939Y-103665000D01*
X131598061Y-103665000D01*
X131398102Y-103704774D01*
X131209744Y-103782795D01*
X131185000Y-103799328D01*
X131185000Y-102550000D01*
X135173000Y-102550000D01*
X135173000Y-104950000D01*
X135175440Y-104974776D01*
X135182667Y-104998601D01*
X135194403Y-105020557D01*
X135210197Y-105039803D01*
X135229443Y-105055597D01*
X135251399Y-105067333D01*
X135275224Y-105074560D01*
X135300000Y-105077000D01*
X136450000Y-105077000D01*
X136474776Y-105074560D01*
X136498601Y-105067333D01*
X136520557Y-105055597D01*
X136539803Y-105039803D01*
X136555597Y-105020557D01*
X136567333Y-104998601D01*
X136574560Y-104974776D01*
X136577000Y-104950000D01*
X136577000Y-102550000D01*
X136574560Y-102525224D01*
X136567333Y-102501399D01*
X136555597Y-102479443D01*
X136539803Y-102460197D01*
X136520557Y-102444403D01*
X136498601Y-102432667D01*
X136474776Y-102425440D01*
X136450000Y-102423000D01*
X135300000Y-102423000D01*
X135275224Y-102425440D01*
X135251399Y-102432667D01*
X135229443Y-102444403D01*
X135210197Y-102460197D01*
X135194403Y-102479443D01*
X135182667Y-102501399D01*
X135175440Y-102525224D01*
X135173000Y-102550000D01*
X131185000Y-102550000D01*
X131185000Y-97838212D01*
X134065000Y-97838212D01*
X134065000Y-98061788D01*
X134108617Y-98281067D01*
X134194176Y-98487624D01*
X134318388Y-98673520D01*
X134365001Y-98720133D01*
X134365001Y-99158972D01*
X134360960Y-99200000D01*
X134377082Y-99363688D01*
X134424828Y-99521086D01*
X134424829Y-99521087D01*
X134502365Y-99666146D01*
X134606710Y-99793291D01*
X134638574Y-99819441D01*
X136615000Y-101795869D01*
X136615001Y-112529867D01*
X136568388Y-112576480D01*
X136444176Y-112762376D01*
X136358617Y-112968933D01*
X136315000Y-113188212D01*
X136315000Y-113411788D01*
X136358617Y-113631067D01*
X136444176Y-113837624D01*
X136568388Y-114023520D01*
X136726480Y-114181612D01*
X136912376Y-114305824D01*
X137118933Y-114391383D01*
X137338212Y-114435000D01*
X137561788Y-114435000D01*
X137781067Y-114391383D01*
X137987624Y-114305824D01*
X138173520Y-114181612D01*
X138331612Y-114023520D01*
X138455824Y-113837624D01*
X138541383Y-113631067D01*
X138585000Y-113411788D01*
X138585000Y-113188212D01*
X138541383Y-112968933D01*
X138455824Y-112762376D01*
X138331612Y-112576480D01*
X138285000Y-112529868D01*
X138285000Y-104310000D01*
X138441686Y-104310000D01*
X138445001Y-104343657D01*
X138445000Y-109876353D01*
X138441686Y-109910000D01*
X138454912Y-110044283D01*
X138494081Y-110173406D01*
X138557688Y-110292407D01*
X138643289Y-110396711D01*
X138747593Y-110482312D01*
X138866594Y-110545919D01*
X138995717Y-110585088D01*
X139130000Y-110598314D01*
X139163647Y-110595000D01*
X161596353Y-110595000D01*
X161630000Y-110598314D01*
X161764283Y-110585088D01*
X161893406Y-110545919D01*
X162012407Y-110482312D01*
X162116711Y-110396711D01*
X162202312Y-110292407D01*
X162265919Y-110173406D01*
X162305088Y-110044283D01*
X162315000Y-109943647D01*
X162315000Y-109943646D01*
X162318314Y-109910000D01*
X162315000Y-109876353D01*
X162315000Y-104343647D01*
X162318314Y-104310000D01*
X162305088Y-104175717D01*
X162265919Y-104046594D01*
X162202312Y-103927593D01*
X162116711Y-103823289D01*
X162012407Y-103737688D01*
X161893406Y-103674081D01*
X161764283Y-103634912D01*
X161663647Y-103625000D01*
X161630000Y-103621686D01*
X161596353Y-103625000D01*
X139163647Y-103625000D01*
X139130000Y-103621686D01*
X139096353Y-103625000D01*
X138995717Y-103634912D01*
X138866594Y-103674081D01*
X138747593Y-103737688D01*
X138643289Y-103823289D01*
X138557688Y-103927593D01*
X138494081Y-104046594D01*
X138454912Y-104175717D01*
X138441686Y-104310000D01*
X138285000Y-104310000D01*
X138285000Y-101491018D01*
X138289040Y-101450000D01*
X138272918Y-101286312D01*
X138225172Y-101128913D01*
X138183986Y-101051860D01*
X138147636Y-100983854D01*
X138043291Y-100856709D01*
X138011433Y-100830564D01*
X136035000Y-98854133D01*
X136035000Y-98720132D01*
X136081612Y-98673520D01*
X136205824Y-98487624D01*
X136291383Y-98281067D01*
X136335000Y-98061788D01*
X136335000Y-97838212D01*
X136291383Y-97618933D01*
X136205824Y-97412376D01*
X136081612Y-97226480D01*
X135923520Y-97068388D01*
X135737624Y-96944176D01*
X135531067Y-96858617D01*
X135311788Y-96815000D01*
X135088212Y-96815000D01*
X134868933Y-96858617D01*
X134662376Y-96944176D01*
X134476480Y-97068388D01*
X134318388Y-97226480D01*
X134194176Y-97412376D01*
X134108617Y-97618933D01*
X134065000Y-97838212D01*
X131185000Y-97838212D01*
X131185000Y-96185000D01*
X169815000Y-96185000D01*
X169815000Y-104305421D01*
M02*
