G04 #@! TF.GenerationSoftware,KiCad,Pcbnew,(5.1.4)-1*
G04 #@! TF.CreationDate,2019-10-10T18:24:03+02:00*
G04 #@! TF.ProjectId,Top,546f702e-6b69-4636-9164-5f7063625858,rev?*
G04 #@! TF.SameCoordinates,Original*
G04 #@! TF.FileFunction,Legend,Top*
G04 #@! TF.FilePolarity,Positive*
%FSLAX46Y46*%
G04 Gerber Fmt 4.6, Leading zero omitted, Abs format (unit mm)*
G04 Created by KiCad (PCBNEW (5.1.4)-1) date 2019-10-10 18:24:03*
%MOMM*%
%LPD*%
G04 APERTURE LIST*
%ADD10C,0.010000*%
G04 APERTURE END LIST*
D10*
G36*
X154425210Y-122396528D02*
G01*
X154549480Y-122570259D01*
X154564000Y-122658149D01*
X154505537Y-122742858D01*
X154338760Y-122932877D01*
X154076586Y-123215290D01*
X153731929Y-123577182D01*
X153317707Y-124005639D01*
X152846836Y-124487745D01*
X152332232Y-125010587D01*
X151786811Y-125561247D01*
X151223490Y-126126813D01*
X150655185Y-126694369D01*
X150094812Y-127251000D01*
X149555288Y-127783791D01*
X149049528Y-128279827D01*
X148590450Y-128726194D01*
X148190968Y-129109976D01*
X147864001Y-129418259D01*
X147622463Y-129638128D01*
X147479271Y-129756668D01*
X147447388Y-129774000D01*
X147274132Y-129717751D01*
X147214933Y-129672400D01*
X147124065Y-129508615D01*
X147113333Y-129439184D01*
X147171796Y-129354475D01*
X147338573Y-129164456D01*
X147600747Y-128882043D01*
X147945404Y-128520151D01*
X148359626Y-128091694D01*
X148830497Y-127609588D01*
X149345101Y-127086746D01*
X149890522Y-126536086D01*
X150453843Y-125970520D01*
X151022148Y-125402964D01*
X151582521Y-124846333D01*
X152122045Y-124313542D01*
X152627805Y-123817506D01*
X153086883Y-123371139D01*
X153486365Y-122987357D01*
X153813332Y-122679074D01*
X154054870Y-122459205D01*
X154198062Y-122340665D01*
X154229945Y-122323333D01*
X154425210Y-122396528D01*
X154425210Y-122396528D01*
G37*
X154425210Y-122396528D02*
X154549480Y-122570259D01*
X154564000Y-122658149D01*
X154505537Y-122742858D01*
X154338760Y-122932877D01*
X154076586Y-123215290D01*
X153731929Y-123577182D01*
X153317707Y-124005639D01*
X152846836Y-124487745D01*
X152332232Y-125010587D01*
X151786811Y-125561247D01*
X151223490Y-126126813D01*
X150655185Y-126694369D01*
X150094812Y-127251000D01*
X149555288Y-127783791D01*
X149049528Y-128279827D01*
X148590450Y-128726194D01*
X148190968Y-129109976D01*
X147864001Y-129418259D01*
X147622463Y-129638128D01*
X147479271Y-129756668D01*
X147447388Y-129774000D01*
X147274132Y-129717751D01*
X147214933Y-129672400D01*
X147124065Y-129508615D01*
X147113333Y-129439184D01*
X147171796Y-129354475D01*
X147338573Y-129164456D01*
X147600747Y-128882043D01*
X147945404Y-128520151D01*
X148359626Y-128091694D01*
X148830497Y-127609588D01*
X149345101Y-127086746D01*
X149890522Y-126536086D01*
X150453843Y-125970520D01*
X151022148Y-125402964D01*
X151582521Y-124846333D01*
X152122045Y-124313542D01*
X152627805Y-123817506D01*
X153086883Y-123371139D01*
X153486365Y-122987357D01*
X153813332Y-122679074D01*
X154054870Y-122459205D01*
X154198062Y-122340665D01*
X154229945Y-122323333D01*
X154425210Y-122396528D01*
G36*
X134076918Y-95580824D02*
G01*
X134221497Y-95611744D01*
X134244000Y-95632905D01*
X134186420Y-95707756D01*
X134025671Y-95882925D01*
X133779743Y-96140431D01*
X133466624Y-96462292D01*
X133104303Y-96830528D01*
X132710767Y-97227156D01*
X132304007Y-97634196D01*
X131902009Y-98033666D01*
X131522764Y-98407584D01*
X131184259Y-98737969D01*
X130904482Y-99006840D01*
X130701424Y-99196216D01*
X130593071Y-99288114D01*
X130581445Y-99294000D01*
X130544874Y-99218035D01*
X130522244Y-99024742D01*
X130518667Y-98890926D01*
X130518667Y-98487852D01*
X131980049Y-97028259D01*
X133441431Y-95568667D01*
X133842716Y-95568667D01*
X134076918Y-95580824D01*
X134076918Y-95580824D01*
G37*
X134076918Y-95580824D02*
X134221497Y-95611744D01*
X134244000Y-95632905D01*
X134186420Y-95707756D01*
X134025671Y-95882925D01*
X133779743Y-96140431D01*
X133466624Y-96462292D01*
X133104303Y-96830528D01*
X132710767Y-97227156D01*
X132304007Y-97634196D01*
X131902009Y-98033666D01*
X131522764Y-98407584D01*
X131184259Y-98737969D01*
X130904482Y-99006840D01*
X130701424Y-99196216D01*
X130593071Y-99288114D01*
X130581445Y-99294000D01*
X130544874Y-99218035D01*
X130522244Y-99024742D01*
X130518667Y-98890926D01*
X130518667Y-98487852D01*
X131980049Y-97028259D01*
X133441431Y-95568667D01*
X133842716Y-95568667D01*
X134076918Y-95580824D01*
G36*
X137463277Y-95580743D02*
G01*
X137608043Y-95611462D01*
X137630667Y-95632549D01*
X137572580Y-95703281D01*
X137406891Y-95880168D01*
X137146457Y-96150355D01*
X136804134Y-96500986D01*
X136392779Y-96919206D01*
X135925249Y-97392161D01*
X135414400Y-97906993D01*
X134873089Y-98450849D01*
X134314173Y-99010873D01*
X133750508Y-99574209D01*
X133194951Y-100128003D01*
X132660359Y-100659398D01*
X132159589Y-101155541D01*
X131705496Y-101603574D01*
X131310939Y-101990644D01*
X130988773Y-102303895D01*
X130751855Y-102530471D01*
X130613042Y-102657517D01*
X130581788Y-102680667D01*
X130544999Y-102604707D01*
X130522248Y-102411452D01*
X130518667Y-102278076D01*
X130518667Y-101875486D01*
X133672918Y-98722076D01*
X136827169Y-95568667D01*
X137228918Y-95568667D01*
X137463277Y-95580743D01*
X137463277Y-95580743D01*
G37*
X137463277Y-95580743D02*
X137608043Y-95611462D01*
X137630667Y-95632549D01*
X137572580Y-95703281D01*
X137406891Y-95880168D01*
X137146457Y-96150355D01*
X136804134Y-96500986D01*
X136392779Y-96919206D01*
X135925249Y-97392161D01*
X135414400Y-97906993D01*
X134873089Y-98450849D01*
X134314173Y-99010873D01*
X133750508Y-99574209D01*
X133194951Y-100128003D01*
X132660359Y-100659398D01*
X132159589Y-101155541D01*
X131705496Y-101603574D01*
X131310939Y-101990644D01*
X130988773Y-102303895D01*
X130751855Y-102530471D01*
X130613042Y-102657517D01*
X130581788Y-102680667D01*
X130544999Y-102604707D01*
X130522248Y-102411452D01*
X130518667Y-102278076D01*
X130518667Y-101875486D01*
X133672918Y-98722076D01*
X136827169Y-95568667D01*
X137228918Y-95568667D01*
X137463277Y-95580743D01*
G36*
X140849849Y-95580716D02*
G01*
X140994672Y-95611366D01*
X141017333Y-95632425D01*
X140958979Y-95701251D01*
X140790939Y-95878794D01*
X140523750Y-96154517D01*
X140167946Y-96517886D01*
X139734065Y-96958365D01*
X139232640Y-97465420D01*
X138674208Y-98028515D01*
X138069304Y-98637115D01*
X137428464Y-99280686D01*
X136762223Y-99948692D01*
X136081118Y-100630598D01*
X135395682Y-101315870D01*
X134716453Y-101993971D01*
X134053966Y-102654368D01*
X133418756Y-103286524D01*
X132821359Y-103879906D01*
X132272310Y-104423977D01*
X131782145Y-104908203D01*
X131361400Y-105322049D01*
X131020609Y-105654979D01*
X130770310Y-105896460D01*
X130621037Y-106035954D01*
X130581910Y-106067333D01*
X130545044Y-105991375D01*
X130522250Y-105798132D01*
X130518667Y-105664890D01*
X130518667Y-105262448D01*
X135366107Y-100415557D01*
X140213547Y-95568667D01*
X140615440Y-95568667D01*
X140849849Y-95580716D01*
X140849849Y-95580716D01*
G37*
X140849849Y-95580716D02*
X140994672Y-95611366D01*
X141017333Y-95632425D01*
X140958979Y-95701251D01*
X140790939Y-95878794D01*
X140523750Y-96154517D01*
X140167946Y-96517886D01*
X139734065Y-96958365D01*
X139232640Y-97465420D01*
X138674208Y-98028515D01*
X138069304Y-98637115D01*
X137428464Y-99280686D01*
X136762223Y-99948692D01*
X136081118Y-100630598D01*
X135395682Y-101315870D01*
X134716453Y-101993971D01*
X134053966Y-102654368D01*
X133418756Y-103286524D01*
X132821359Y-103879906D01*
X132272310Y-104423977D01*
X131782145Y-104908203D01*
X131361400Y-105322049D01*
X131020609Y-105654979D01*
X130770310Y-105896460D01*
X130621037Y-106035954D01*
X130581910Y-106067333D01*
X130545044Y-105991375D01*
X130522250Y-105798132D01*
X130518667Y-105664890D01*
X130518667Y-105262448D01*
X135366107Y-100415557D01*
X140213547Y-95568667D01*
X140615440Y-95568667D01*
X140849849Y-95580716D01*
G36*
X144236469Y-95580702D02*
G01*
X144381320Y-95611317D01*
X144404000Y-95632361D01*
X144345473Y-95700031D01*
X144175986Y-95877932D01*
X143904680Y-96156923D01*
X143540695Y-96527865D01*
X143093172Y-96981616D01*
X142571253Y-97509036D01*
X141984077Y-98100985D01*
X141340785Y-98748323D01*
X140650518Y-99441908D01*
X139922418Y-100172601D01*
X139165624Y-100931260D01*
X138389277Y-101708746D01*
X137602518Y-102495917D01*
X136814489Y-103283634D01*
X136034328Y-104062756D01*
X135271178Y-104824142D01*
X134534180Y-105558652D01*
X133832472Y-106257146D01*
X133175198Y-106910482D01*
X132571496Y-107509521D01*
X132030509Y-108045122D01*
X131561376Y-108508145D01*
X131173239Y-108889448D01*
X130875238Y-109179892D01*
X130676514Y-109370336D01*
X130586208Y-109451640D01*
X130581973Y-109454000D01*
X130545067Y-109378043D01*
X130522251Y-109184805D01*
X130518667Y-109051628D01*
X130518667Y-108649257D01*
X137059370Y-102108962D01*
X143600074Y-95568667D01*
X144002037Y-95568667D01*
X144236469Y-95580702D01*
X144236469Y-95580702D01*
G37*
X144236469Y-95580702D02*
X144381320Y-95611317D01*
X144404000Y-95632361D01*
X144345473Y-95700031D01*
X144175986Y-95877932D01*
X143904680Y-96156923D01*
X143540695Y-96527865D01*
X143093172Y-96981616D01*
X142571253Y-97509036D01*
X141984077Y-98100985D01*
X141340785Y-98748323D01*
X140650518Y-99441908D01*
X139922418Y-100172601D01*
X139165624Y-100931260D01*
X138389277Y-101708746D01*
X137602518Y-102495917D01*
X136814489Y-103283634D01*
X136034328Y-104062756D01*
X135271178Y-104824142D01*
X134534180Y-105558652D01*
X133832472Y-106257146D01*
X133175198Y-106910482D01*
X132571496Y-107509521D01*
X132030509Y-108045122D01*
X131561376Y-108508145D01*
X131173239Y-108889448D01*
X130875238Y-109179892D01*
X130676514Y-109370336D01*
X130586208Y-109451640D01*
X130581973Y-109454000D01*
X130545067Y-109378043D01*
X130522251Y-109184805D01*
X130518667Y-109051628D01*
X130518667Y-108649257D01*
X137059370Y-102108962D01*
X143600074Y-95568667D01*
X144002037Y-95568667D01*
X144236469Y-95580702D01*
G36*
X147623108Y-95580693D02*
G01*
X147767976Y-95611287D01*
X147790667Y-95632323D01*
X147732016Y-95699194D01*
X147561523Y-95877325D01*
X147287370Y-96158531D01*
X146917743Y-96534628D01*
X146460826Y-96997431D01*
X145924804Y-97538756D01*
X145317862Y-98150417D01*
X144648185Y-98824231D01*
X143923957Y-99552013D01*
X143153363Y-100325578D01*
X142344587Y-101136742D01*
X141505815Y-101977320D01*
X140645231Y-102839127D01*
X139771020Y-103713980D01*
X138891367Y-104593693D01*
X138014455Y-105470082D01*
X137148471Y-106334962D01*
X136301598Y-107180149D01*
X135482021Y-107997458D01*
X134697926Y-108778705D01*
X133957496Y-109515705D01*
X133268917Y-110200274D01*
X132640373Y-110824226D01*
X132080049Y-111379378D01*
X131596129Y-111857545D01*
X131196799Y-112250542D01*
X130890243Y-112550185D01*
X130684645Y-112748289D01*
X130588191Y-112836670D01*
X130582011Y-112840667D01*
X130545081Y-112764710D01*
X130522252Y-112571476D01*
X130518667Y-112438337D01*
X130518667Y-112036008D01*
X138752662Y-103802337D01*
X146986657Y-95568667D01*
X147388662Y-95568667D01*
X147623108Y-95580693D01*
X147623108Y-95580693D01*
G37*
X147623108Y-95580693D02*
X147767976Y-95611287D01*
X147790667Y-95632323D01*
X147732016Y-95699194D01*
X147561523Y-95877325D01*
X147287370Y-96158531D01*
X146917743Y-96534628D01*
X146460826Y-96997431D01*
X145924804Y-97538756D01*
X145317862Y-98150417D01*
X144648185Y-98824231D01*
X143923957Y-99552013D01*
X143153363Y-100325578D01*
X142344587Y-101136742D01*
X141505815Y-101977320D01*
X140645231Y-102839127D01*
X139771020Y-103713980D01*
X138891367Y-104593693D01*
X138014455Y-105470082D01*
X137148471Y-106334962D01*
X136301598Y-107180149D01*
X135482021Y-107997458D01*
X134697926Y-108778705D01*
X133957496Y-109515705D01*
X133268917Y-110200274D01*
X132640373Y-110824226D01*
X132080049Y-111379378D01*
X131596129Y-111857545D01*
X131196799Y-112250542D01*
X130890243Y-112550185D01*
X130684645Y-112748289D01*
X130588191Y-112836670D01*
X130582011Y-112840667D01*
X130545081Y-112764710D01*
X130522252Y-112571476D01*
X130518667Y-112438337D01*
X130518667Y-112036008D01*
X138752662Y-103802337D01*
X146986657Y-95568667D01*
X147388662Y-95568667D01*
X147623108Y-95580693D01*
G36*
X154396422Y-95580688D02*
G01*
X154541302Y-95611268D01*
X154564000Y-95632297D01*
X154505096Y-95702545D01*
X154333382Y-95884487D01*
X154056353Y-96170654D01*
X153681504Y-96553574D01*
X153216330Y-97025778D01*
X152668326Y-97579795D01*
X152044987Y-98208155D01*
X151353809Y-98903386D01*
X150602286Y-99658019D01*
X149797914Y-100464583D01*
X148948188Y-101315608D01*
X148060603Y-102203623D01*
X147142654Y-103121158D01*
X146201836Y-104060741D01*
X145245644Y-105014904D01*
X144281574Y-105976175D01*
X143317121Y-106937083D01*
X142359779Y-107890159D01*
X141417044Y-108827932D01*
X140496411Y-109742932D01*
X139605376Y-110627687D01*
X138751432Y-111474728D01*
X137942076Y-112276583D01*
X137184803Y-113025783D01*
X136487107Y-113714858D01*
X135856484Y-114336336D01*
X135300429Y-114882747D01*
X134826437Y-115346621D01*
X134442003Y-115720486D01*
X134154623Y-115996874D01*
X133971790Y-116168313D01*
X133901002Y-116227333D01*
X133900970Y-116227333D01*
X133727471Y-116171072D01*
X133668267Y-116125733D01*
X133577405Y-115962110D01*
X133566667Y-115892767D01*
X133625591Y-115819655D01*
X133798242Y-115633247D01*
X134078434Y-115339809D01*
X134459980Y-114945606D01*
X134936696Y-114456906D01*
X135502395Y-113879973D01*
X136150893Y-113221073D01*
X136876004Y-112486473D01*
X137671542Y-111682438D01*
X138531322Y-110815233D01*
X139449158Y-109891126D01*
X140418865Y-108916381D01*
X141434257Y-107897264D01*
X142489149Y-106840042D01*
X143577355Y-105750980D01*
X143663299Y-105665034D01*
X153759931Y-95568667D01*
X154161965Y-95568667D01*
X154396422Y-95580688D01*
X154396422Y-95580688D01*
G37*
X154396422Y-95580688D02*
X154541302Y-95611268D01*
X154564000Y-95632297D01*
X154505096Y-95702545D01*
X154333382Y-95884487D01*
X154056353Y-96170654D01*
X153681504Y-96553574D01*
X153216330Y-97025778D01*
X152668326Y-97579795D01*
X152044987Y-98208155D01*
X151353809Y-98903386D01*
X150602286Y-99658019D01*
X149797914Y-100464583D01*
X148948188Y-101315608D01*
X148060603Y-102203623D01*
X147142654Y-103121158D01*
X146201836Y-104060741D01*
X145245644Y-105014904D01*
X144281574Y-105976175D01*
X143317121Y-106937083D01*
X142359779Y-107890159D01*
X141417044Y-108827932D01*
X140496411Y-109742932D01*
X139605376Y-110627687D01*
X138751432Y-111474728D01*
X137942076Y-112276583D01*
X137184803Y-113025783D01*
X136487107Y-113714858D01*
X135856484Y-114336336D01*
X135300429Y-114882747D01*
X134826437Y-115346621D01*
X134442003Y-115720486D01*
X134154623Y-115996874D01*
X133971790Y-116168313D01*
X133901002Y-116227333D01*
X133900970Y-116227333D01*
X133727471Y-116171072D01*
X133668267Y-116125733D01*
X133577405Y-115962110D01*
X133566667Y-115892767D01*
X133625591Y-115819655D01*
X133798242Y-115633247D01*
X134078434Y-115339809D01*
X134459980Y-114945606D01*
X134936696Y-114456906D01*
X135502395Y-113879973D01*
X136150893Y-113221073D01*
X136876004Y-112486473D01*
X137671542Y-111682438D01*
X138531322Y-110815233D01*
X139449158Y-109891126D01*
X140418865Y-108916381D01*
X141434257Y-107897264D01*
X142489149Y-106840042D01*
X143577355Y-105750980D01*
X143663299Y-105665034D01*
X153759931Y-95568667D01*
X154161965Y-95568667D01*
X154396422Y-95580688D01*
G36*
X170481333Y-113645894D02*
G01*
X167496392Y-116629947D01*
X166907287Y-117216325D01*
X166351589Y-117764535D01*
X165841237Y-118263143D01*
X165388168Y-118700716D01*
X165004322Y-119065821D01*
X164701636Y-119347023D01*
X164492049Y-119532888D01*
X164387498Y-119611983D01*
X164380659Y-119614000D01*
X164207464Y-119557755D01*
X164148267Y-119512400D01*
X164057397Y-119348592D01*
X164046667Y-119279149D01*
X164104980Y-119195909D01*
X164272582Y-119004955D01*
X164538460Y-118717745D01*
X164891603Y-118345737D01*
X165321003Y-117900390D01*
X165815647Y-117393161D01*
X166364525Y-116835510D01*
X166956626Y-116238894D01*
X167264000Y-115931000D01*
X170481333Y-112714502D01*
X170481333Y-113645894D01*
X170481333Y-113645894D01*
G37*
X170481333Y-113645894D02*
X167496392Y-116629947D01*
X166907287Y-117216325D01*
X166351589Y-117764535D01*
X165841237Y-118263143D01*
X165388168Y-118700716D01*
X165004322Y-119065821D01*
X164701636Y-119347023D01*
X164492049Y-119532888D01*
X164387498Y-119611983D01*
X164380659Y-119614000D01*
X164207464Y-119557755D01*
X164148267Y-119512400D01*
X164057397Y-119348592D01*
X164046667Y-119279149D01*
X164104980Y-119195909D01*
X164272582Y-119004955D01*
X164538460Y-118717745D01*
X164891603Y-118345737D01*
X165321003Y-117900390D01*
X165815647Y-117393161D01*
X166364525Y-116835510D01*
X166956626Y-116238894D01*
X167264000Y-115931000D01*
X170481333Y-112714502D01*
X170481333Y-113645894D01*
G36*
X170481333Y-106872087D02*
G01*
X164109958Y-113243043D01*
X163245301Y-114106436D01*
X162412804Y-114935363D01*
X161620422Y-115722031D01*
X160876114Y-116458642D01*
X160187835Y-117137400D01*
X159563543Y-117750509D01*
X159011195Y-118290173D01*
X158538747Y-118748596D01*
X158154157Y-119117982D01*
X157865382Y-119390534D01*
X157680379Y-119558457D01*
X157607558Y-119614000D01*
X157434136Y-119557743D01*
X157374933Y-119512400D01*
X157284070Y-119348730D01*
X157273333Y-119279363D01*
X157332060Y-119203139D01*
X157503135Y-119015257D01*
X157778900Y-118723526D01*
X158151700Y-118335755D01*
X158613876Y-117859753D01*
X159157772Y-117303330D01*
X159775730Y-116674295D01*
X160460093Y-115980456D01*
X161203203Y-115229623D01*
X161997404Y-114429605D01*
X162835037Y-113588212D01*
X163708447Y-112713251D01*
X163877333Y-112544333D01*
X170481333Y-105940740D01*
X170481333Y-106872087D01*
X170481333Y-106872087D01*
G37*
X170481333Y-106872087D02*
X164109958Y-113243043D01*
X163245301Y-114106436D01*
X162412804Y-114935363D01*
X161620422Y-115722031D01*
X160876114Y-116458642D01*
X160187835Y-117137400D01*
X159563543Y-117750509D01*
X159011195Y-118290173D01*
X158538747Y-118748596D01*
X158154157Y-119117982D01*
X157865382Y-119390534D01*
X157680379Y-119558457D01*
X157607558Y-119614000D01*
X157434136Y-119557743D01*
X157374933Y-119512400D01*
X157284070Y-119348730D01*
X157273333Y-119279363D01*
X157332060Y-119203139D01*
X157503135Y-119015257D01*
X157778900Y-118723526D01*
X158151700Y-118335755D01*
X158613876Y-117859753D01*
X159157772Y-117303330D01*
X159775730Y-116674295D01*
X160460093Y-115980456D01*
X161203203Y-115229623D01*
X161997404Y-114429605D01*
X162835037Y-113588212D01*
X163708447Y-112713251D01*
X163877333Y-112544333D01*
X170481333Y-105940740D01*
X170481333Y-106872087D01*
G36*
X151009757Y-95580638D02*
G01*
X151154636Y-95611092D01*
X151177333Y-95632034D01*
X151118454Y-95697757D01*
X150945934Y-95876918D01*
X150665952Y-96163298D01*
X150284687Y-96550681D01*
X149808317Y-97032849D01*
X149243021Y-97603585D01*
X148594977Y-98256671D01*
X147870363Y-98985890D01*
X147075358Y-99785024D01*
X146216140Y-100647857D01*
X145298889Y-101568171D01*
X144329781Y-102539748D01*
X143314997Y-103556371D01*
X142260713Y-104611823D01*
X141173110Y-105699885D01*
X141081053Y-105791947D01*
X130984773Y-115888493D01*
X132445149Y-117348868D01*
X133905524Y-118809244D01*
X145526044Y-107188955D01*
X157146563Y-95568667D01*
X157548615Y-95568667D01*
X157783077Y-95580681D01*
X157927964Y-95611244D01*
X157950667Y-95632265D01*
X157891787Y-95697703D01*
X157719469Y-95876214D01*
X157440195Y-96161316D01*
X157060444Y-96546528D01*
X156586700Y-97025369D01*
X156025442Y-97591357D01*
X155383152Y-98238012D01*
X154666312Y-98958852D01*
X153881403Y-99747395D01*
X153034906Y-100597161D01*
X152133302Y-101501668D01*
X151183073Y-102454436D01*
X150190700Y-103448982D01*
X149162664Y-104478826D01*
X148105447Y-105537486D01*
X147025529Y-106618481D01*
X145929393Y-107715330D01*
X144823519Y-108821551D01*
X143714389Y-109930664D01*
X142608483Y-111036188D01*
X141512284Y-112131640D01*
X140432273Y-113210539D01*
X139374930Y-114266405D01*
X138346737Y-115292756D01*
X137354176Y-116283112D01*
X136403728Y-117230989D01*
X135501873Y-118129909D01*
X134655094Y-118973388D01*
X133869871Y-119754947D01*
X133152686Y-120468103D01*
X132510020Y-121106375D01*
X131948355Y-121663283D01*
X131474172Y-122132345D01*
X131093951Y-122507080D01*
X130814175Y-122781006D01*
X130641324Y-122947642D01*
X130582069Y-123000667D01*
X130545065Y-122924722D01*
X130522222Y-122731567D01*
X130518667Y-122599382D01*
X130518667Y-122198098D01*
X131978259Y-120736716D01*
X133437852Y-119275333D01*
X131978259Y-117813951D01*
X130518667Y-116352568D01*
X130518667Y-115422730D01*
X140445968Y-105495698D01*
X150373269Y-95568667D01*
X150775301Y-95568667D01*
X151009757Y-95580638D01*
X151009757Y-95580638D01*
G37*
X151009757Y-95580638D02*
X151154636Y-95611092D01*
X151177333Y-95632034D01*
X151118454Y-95697757D01*
X150945934Y-95876918D01*
X150665952Y-96163298D01*
X150284687Y-96550681D01*
X149808317Y-97032849D01*
X149243021Y-97603585D01*
X148594977Y-98256671D01*
X147870363Y-98985890D01*
X147075358Y-99785024D01*
X146216140Y-100647857D01*
X145298889Y-101568171D01*
X144329781Y-102539748D01*
X143314997Y-103556371D01*
X142260713Y-104611823D01*
X141173110Y-105699885D01*
X141081053Y-105791947D01*
X130984773Y-115888493D01*
X132445149Y-117348868D01*
X133905524Y-118809244D01*
X145526044Y-107188955D01*
X157146563Y-95568667D01*
X157548615Y-95568667D01*
X157783077Y-95580681D01*
X157927964Y-95611244D01*
X157950667Y-95632265D01*
X157891787Y-95697703D01*
X157719469Y-95876214D01*
X157440195Y-96161316D01*
X157060444Y-96546528D01*
X156586700Y-97025369D01*
X156025442Y-97591357D01*
X155383152Y-98238012D01*
X154666312Y-98958852D01*
X153881403Y-99747395D01*
X153034906Y-100597161D01*
X152133302Y-101501668D01*
X151183073Y-102454436D01*
X150190700Y-103448982D01*
X149162664Y-104478826D01*
X148105447Y-105537486D01*
X147025529Y-106618481D01*
X145929393Y-107715330D01*
X144823519Y-108821551D01*
X143714389Y-109930664D01*
X142608483Y-111036188D01*
X141512284Y-112131640D01*
X140432273Y-113210539D01*
X139374930Y-114266405D01*
X138346737Y-115292756D01*
X137354176Y-116283112D01*
X136403728Y-117230989D01*
X135501873Y-118129909D01*
X134655094Y-118973388D01*
X133869871Y-119754947D01*
X133152686Y-120468103D01*
X132510020Y-121106375D01*
X131948355Y-121663283D01*
X131474172Y-122132345D01*
X131093951Y-122507080D01*
X130814175Y-122781006D01*
X130641324Y-122947642D01*
X130582069Y-123000667D01*
X130545065Y-122924722D01*
X130522222Y-122731567D01*
X130518667Y-122599382D01*
X130518667Y-122198098D01*
X131978259Y-120736716D01*
X133437852Y-119275333D01*
X131978259Y-117813951D01*
X130518667Y-116352568D01*
X130518667Y-115422730D01*
X140445968Y-105495698D01*
X150373269Y-95568667D01*
X150775301Y-95568667D01*
X151009757Y-95580638D01*
G36*
X161169727Y-95580678D02*
G01*
X161314624Y-95611235D01*
X161337333Y-95632254D01*
X161278402Y-95697380D01*
X161105685Y-95875968D01*
X160825293Y-96161905D01*
X160443339Y-96549079D01*
X159965936Y-97031377D01*
X159399196Y-97602687D01*
X158749232Y-98256896D01*
X158022156Y-98987891D01*
X157224081Y-99789561D01*
X156361118Y-100655793D01*
X155439382Y-101580475D01*
X154464984Y-102557493D01*
X153444036Y-103580736D01*
X152382651Y-104644091D01*
X151286942Y-105741445D01*
X150163021Y-106866687D01*
X149017001Y-108013703D01*
X147854994Y-109176382D01*
X146683113Y-110348610D01*
X145507469Y-111524276D01*
X144334176Y-112697266D01*
X143169346Y-113861469D01*
X142019092Y-115010772D01*
X140889526Y-116139062D01*
X139786760Y-117240228D01*
X138716908Y-118308155D01*
X137686081Y-119336734D01*
X136700391Y-120319849D01*
X135765953Y-121251390D01*
X134888877Y-122125244D01*
X134075277Y-122935298D01*
X133331265Y-123675439D01*
X132662954Y-124339556D01*
X132076455Y-124921536D01*
X131577882Y-125415267D01*
X131173347Y-125814635D01*
X130868962Y-126113529D01*
X130670840Y-126305836D01*
X130585094Y-126385444D01*
X130582079Y-126387333D01*
X130545107Y-126311378D01*
X130522254Y-126118149D01*
X130518667Y-125985077D01*
X130518667Y-125582821D01*
X145525922Y-110575744D01*
X160533178Y-95568667D01*
X160935256Y-95568667D01*
X161169727Y-95580678D01*
X161169727Y-95580678D01*
G37*
X161169727Y-95580678D02*
X161314624Y-95611235D01*
X161337333Y-95632254D01*
X161278402Y-95697380D01*
X161105685Y-95875968D01*
X160825293Y-96161905D01*
X160443339Y-96549079D01*
X159965936Y-97031377D01*
X159399196Y-97602687D01*
X158749232Y-98256896D01*
X158022156Y-98987891D01*
X157224081Y-99789561D01*
X156361118Y-100655793D01*
X155439382Y-101580475D01*
X154464984Y-102557493D01*
X153444036Y-103580736D01*
X152382651Y-104644091D01*
X151286942Y-105741445D01*
X150163021Y-106866687D01*
X149017001Y-108013703D01*
X147854994Y-109176382D01*
X146683113Y-110348610D01*
X145507469Y-111524276D01*
X144334176Y-112697266D01*
X143169346Y-113861469D01*
X142019092Y-115010772D01*
X140889526Y-116139062D01*
X139786760Y-117240228D01*
X138716908Y-118308155D01*
X137686081Y-119336734D01*
X136700391Y-120319849D01*
X135765953Y-121251390D01*
X134888877Y-122125244D01*
X134075277Y-122935298D01*
X133331265Y-123675439D01*
X132662954Y-124339556D01*
X132076455Y-124921536D01*
X131577882Y-125415267D01*
X131173347Y-125814635D01*
X130868962Y-126113529D01*
X130670840Y-126305836D01*
X130585094Y-126385444D01*
X130582079Y-126387333D01*
X130545107Y-126311378D01*
X130522254Y-126118149D01*
X130518667Y-125985077D01*
X130518667Y-125582821D01*
X145525922Y-110575744D01*
X160533178Y-95568667D01*
X160935256Y-95568667D01*
X161169727Y-95580678D01*
G36*
X164556387Y-95580676D02*
G01*
X164701288Y-95611228D01*
X164724000Y-95632245D01*
X164665025Y-95697107D01*
X164491967Y-95875759D01*
X164210627Y-96162401D01*
X163826805Y-96551232D01*
X163346300Y-97036453D01*
X162774913Y-97612263D01*
X162118445Y-98272861D01*
X161382696Y-99012449D01*
X160573465Y-99825225D01*
X159696554Y-100705389D01*
X158757762Y-101647142D01*
X157762889Y-102644682D01*
X156717736Y-103692210D01*
X155628104Y-104783925D01*
X154499792Y-105914027D01*
X153338600Y-107076717D01*
X152150329Y-108266193D01*
X150940780Y-109476656D01*
X149715751Y-110702305D01*
X148481045Y-111937341D01*
X147242460Y-113175962D01*
X146005797Y-114412369D01*
X144776856Y-115640761D01*
X143561438Y-116855338D01*
X142365343Y-118050301D01*
X141194371Y-119219849D01*
X140054322Y-120358181D01*
X138950996Y-121459497D01*
X137890194Y-122517998D01*
X136877717Y-123527882D01*
X135919363Y-124483350D01*
X135020934Y-125378602D01*
X134188230Y-126207837D01*
X133427051Y-126965255D01*
X132743197Y-127645056D01*
X132142468Y-128241440D01*
X131630666Y-128748606D01*
X131213589Y-129160754D01*
X130897038Y-129472085D01*
X130686814Y-129676797D01*
X130588716Y-129769090D01*
X130582088Y-129774000D01*
X130545110Y-129698045D01*
X130522254Y-129504816D01*
X130518667Y-129371753D01*
X130518667Y-128969506D01*
X147219247Y-112269086D01*
X163919827Y-95568667D01*
X164321913Y-95568667D01*
X164556387Y-95580676D01*
X164556387Y-95580676D01*
G37*
X164556387Y-95580676D02*
X164701288Y-95611228D01*
X164724000Y-95632245D01*
X164665025Y-95697107D01*
X164491967Y-95875759D01*
X164210627Y-96162401D01*
X163826805Y-96551232D01*
X163346300Y-97036453D01*
X162774913Y-97612263D01*
X162118445Y-98272861D01*
X161382696Y-99012449D01*
X160573465Y-99825225D01*
X159696554Y-100705389D01*
X158757762Y-101647142D01*
X157762889Y-102644682D01*
X156717736Y-103692210D01*
X155628104Y-104783925D01*
X154499792Y-105914027D01*
X153338600Y-107076717D01*
X152150329Y-108266193D01*
X150940780Y-109476656D01*
X149715751Y-110702305D01*
X148481045Y-111937341D01*
X147242460Y-113175962D01*
X146005797Y-114412369D01*
X144776856Y-115640761D01*
X143561438Y-116855338D01*
X142365343Y-118050301D01*
X141194371Y-119219849D01*
X140054322Y-120358181D01*
X138950996Y-121459497D01*
X137890194Y-122517998D01*
X136877717Y-123527882D01*
X135919363Y-124483350D01*
X135020934Y-125378602D01*
X134188230Y-126207837D01*
X133427051Y-126965255D01*
X132743197Y-127645056D01*
X132142468Y-128241440D01*
X131630666Y-128748606D01*
X131213589Y-129160754D01*
X130897038Y-129472085D01*
X130686814Y-129676797D01*
X130588716Y-129769090D01*
X130582088Y-129774000D01*
X130545110Y-129698045D01*
X130522254Y-129504816D01*
X130518667Y-129371753D01*
X130518667Y-128969506D01*
X147219247Y-112269086D01*
X163919827Y-95568667D01*
X164321913Y-95568667D01*
X164556387Y-95580676D01*
G36*
X167942952Y-95580671D02*
G01*
X168087915Y-95611209D01*
X168110667Y-95632238D01*
X168051654Y-95696872D01*
X167878302Y-95875578D01*
X167596144Y-96162824D01*
X167210710Y-96553080D01*
X166727532Y-97040814D01*
X166152141Y-97620494D01*
X165490070Y-98286590D01*
X164746848Y-99033569D01*
X163928008Y-99855900D01*
X163039081Y-100748053D01*
X162085598Y-101704494D01*
X161073092Y-102719694D01*
X160007092Y-103788121D01*
X158893132Y-104904242D01*
X157736741Y-106062528D01*
X156543453Y-107257446D01*
X155318797Y-108483465D01*
X154068306Y-109735054D01*
X152797510Y-111006681D01*
X151511942Y-112292814D01*
X150217133Y-113587923D01*
X148918614Y-114886477D01*
X147621917Y-116182942D01*
X146332572Y-117471789D01*
X145056112Y-118747486D01*
X143798068Y-120004501D01*
X142563971Y-121237303D01*
X141359353Y-122440360D01*
X140189746Y-123608142D01*
X139060679Y-124735117D01*
X137977686Y-125815752D01*
X136946297Y-126844518D01*
X135972045Y-127815882D01*
X135060459Y-128724314D01*
X134217072Y-129564281D01*
X133447416Y-130330252D01*
X132757021Y-131016696D01*
X132151419Y-131618082D01*
X131636141Y-132128878D01*
X131216719Y-132543552D01*
X130898685Y-132856574D01*
X130687569Y-133062412D01*
X130588904Y-133155534D01*
X130582095Y-133160667D01*
X130545107Y-133084713D01*
X130522249Y-132891496D01*
X130518667Y-132758573D01*
X130518667Y-132356479D01*
X167306187Y-95568667D01*
X167708427Y-95568667D01*
X167942952Y-95580671D01*
X167942952Y-95580671D01*
G37*
X167942952Y-95580671D02*
X168087915Y-95611209D01*
X168110667Y-95632238D01*
X168051654Y-95696872D01*
X167878302Y-95875578D01*
X167596144Y-96162824D01*
X167210710Y-96553080D01*
X166727532Y-97040814D01*
X166152141Y-97620494D01*
X165490070Y-98286590D01*
X164746848Y-99033569D01*
X163928008Y-99855900D01*
X163039081Y-100748053D01*
X162085598Y-101704494D01*
X161073092Y-102719694D01*
X160007092Y-103788121D01*
X158893132Y-104904242D01*
X157736741Y-106062528D01*
X156543453Y-107257446D01*
X155318797Y-108483465D01*
X154068306Y-109735054D01*
X152797510Y-111006681D01*
X151511942Y-112292814D01*
X150217133Y-113587923D01*
X148918614Y-114886477D01*
X147621917Y-116182942D01*
X146332572Y-117471789D01*
X145056112Y-118747486D01*
X143798068Y-120004501D01*
X142563971Y-121237303D01*
X141359353Y-122440360D01*
X140189746Y-123608142D01*
X139060679Y-124735117D01*
X137977686Y-125815752D01*
X136946297Y-126844518D01*
X135972045Y-127815882D01*
X135060459Y-128724314D01*
X134217072Y-129564281D01*
X133447416Y-130330252D01*
X132757021Y-131016696D01*
X132151419Y-131618082D01*
X131636141Y-132128878D01*
X131216719Y-132543552D01*
X130898685Y-132856574D01*
X130687569Y-133062412D01*
X130588904Y-133155534D01*
X130582095Y-133160667D01*
X130545107Y-133084713D01*
X130522249Y-132891496D01*
X130518667Y-132758573D01*
X130518667Y-132356479D01*
X167306187Y-95568667D01*
X167708427Y-95568667D01*
X167942952Y-95580671D01*
G36*
X170465098Y-133512107D02*
G01*
X170491197Y-133951913D01*
X169704770Y-134741623D01*
X168918344Y-135531333D01*
X167985857Y-135531333D01*
X169212428Y-134301817D01*
X170439000Y-133072300D01*
X170465098Y-133512107D01*
X170465098Y-133512107D01*
G37*
X170465098Y-133512107D02*
X170491197Y-133951913D01*
X169704770Y-134741623D01*
X168918344Y-135531333D01*
X167985857Y-135531333D01*
X169212428Y-134301817D01*
X170439000Y-133072300D01*
X170465098Y-133512107D01*
G36*
X170465134Y-130127120D02*
G01*
X170491269Y-130567334D01*
X168010339Y-133049334D01*
X165529410Y-135531333D01*
X164597920Y-135531333D01*
X167518460Y-132609120D01*
X170439000Y-129686906D01*
X170465134Y-130127120D01*
X170465134Y-130127120D01*
G37*
X170465134Y-130127120D02*
X170491269Y-130567334D01*
X168010339Y-133049334D01*
X165529410Y-135531333D01*
X164597920Y-135531333D01*
X167518460Y-132609120D01*
X170439000Y-129686906D01*
X170465134Y-130127120D01*
G36*
X170465142Y-126740828D02*
G01*
X170491283Y-127181080D01*
X166316796Y-131356206D01*
X162142308Y-135531333D01*
X161210916Y-135531333D01*
X170439000Y-126300577D01*
X170465142Y-126740828D01*
X170465142Y-126740828D01*
G37*
X170465142Y-126740828D02*
X170491283Y-127181080D01*
X166316796Y-131356206D01*
X162142308Y-135531333D01*
X161210916Y-135531333D01*
X170439000Y-126300577D01*
X170465142Y-126740828D01*
G36*
X170491290Y-123794589D02*
G01*
X164623373Y-129662961D01*
X158755457Y-135531333D01*
X157824093Y-135531333D01*
X164131546Y-129222700D01*
X170439000Y-122914067D01*
X170491290Y-123794589D01*
X170491290Y-123794589D01*
G37*
X170491290Y-123794589D02*
X164623373Y-129662961D01*
X158755457Y-135531333D01*
X157824093Y-135531333D01*
X164131546Y-129222700D01*
X170439000Y-122914067D01*
X170491290Y-123794589D01*
G36*
X170465146Y-119967755D02*
G01*
X170491293Y-120408020D01*
X162929990Y-127969677D01*
X155368688Y-135531333D01*
X154437336Y-135531333D01*
X162438168Y-127529412D01*
X170439000Y-119527490D01*
X170465146Y-119967755D01*
X170465146Y-119967755D01*
G37*
X170465146Y-119967755D02*
X170491293Y-120408020D01*
X162929990Y-127969677D01*
X155368688Y-135531333D01*
X154437336Y-135531333D01*
X162438168Y-127529412D01*
X170439000Y-119527490D01*
X170465146Y-119967755D01*
G36*
X161198490Y-122396540D02*
G01*
X161322894Y-122570362D01*
X161337333Y-122657977D01*
X161278625Y-122734494D01*
X161107698Y-122922513D01*
X160832349Y-123214074D01*
X160460375Y-123601221D01*
X159999572Y-124075998D01*
X159457737Y-124630446D01*
X158842667Y-125256609D01*
X158162160Y-125946531D01*
X157424010Y-126692253D01*
X156636016Y-127485818D01*
X155805973Y-128319271D01*
X154965958Y-129160377D01*
X148594582Y-135531333D01*
X147664074Y-135531333D01*
X154267667Y-128927333D01*
X155148107Y-128048008D01*
X155996460Y-127203007D01*
X156804916Y-126399990D01*
X157565668Y-125646611D01*
X158270905Y-124950530D01*
X158912819Y-124319402D01*
X159483599Y-123760886D01*
X159975438Y-123282639D01*
X160380525Y-122892317D01*
X160691053Y-122597578D01*
X160899211Y-122406080D01*
X160997190Y-122325479D01*
X161002696Y-122323333D01*
X161198490Y-122396540D01*
X161198490Y-122396540D01*
G37*
X161198490Y-122396540D02*
X161322894Y-122570362D01*
X161337333Y-122657977D01*
X161278625Y-122734494D01*
X161107698Y-122922513D01*
X160832349Y-123214074D01*
X160460375Y-123601221D01*
X159999572Y-124075998D01*
X159457737Y-124630446D01*
X158842667Y-125256609D01*
X158162160Y-125946531D01*
X157424010Y-126692253D01*
X156636016Y-127485818D01*
X155805973Y-128319271D01*
X154965958Y-129160377D01*
X148594582Y-135531333D01*
X147664074Y-135531333D01*
X154267667Y-128927333D01*
X155148107Y-128048008D01*
X155996460Y-127203007D01*
X156804916Y-126399990D01*
X157565668Y-125646611D01*
X158270905Y-124950530D01*
X158912819Y-124319402D01*
X159483599Y-123760886D01*
X159975438Y-123282639D01*
X160380525Y-122892317D01*
X160691053Y-122597578D01*
X160899211Y-122406080D01*
X160997190Y-122325479D01*
X161002696Y-122323333D01*
X161198490Y-122396540D01*
G36*
X144265190Y-132556605D02*
G01*
X144389630Y-132730932D01*
X144404000Y-132818791D01*
X144346328Y-132915369D01*
X144185025Y-133110861D01*
X143937662Y-133385925D01*
X143621808Y-133721221D01*
X143255034Y-134097408D01*
X143111840Y-134241191D01*
X141819681Y-135531333D01*
X140892097Y-135531333D01*
X142414333Y-134007333D01*
X142833881Y-133592315D01*
X143219553Y-133220310D01*
X143553840Y-132907449D01*
X143819230Y-132669864D01*
X143998210Y-132523686D01*
X144068684Y-132483333D01*
X144265190Y-132556605D01*
X144265190Y-132556605D01*
G37*
X144265190Y-132556605D02*
X144389630Y-132730932D01*
X144404000Y-132818791D01*
X144346328Y-132915369D01*
X144185025Y-133110861D01*
X143937662Y-133385925D01*
X143621808Y-133721221D01*
X143255034Y-134097408D01*
X143111840Y-134241191D01*
X141819681Y-135531333D01*
X140892097Y-135531333D01*
X142414333Y-134007333D01*
X142833881Y-133592315D01*
X143219553Y-133220310D01*
X143553840Y-132907449D01*
X143819230Y-132669864D01*
X143998210Y-132523686D01*
X144068684Y-132483333D01*
X144265190Y-132556605D01*
G36*
X170465147Y-103034515D02*
G01*
X170491293Y-103474701D01*
X162591385Y-111374949D01*
X154691476Y-119275196D01*
X157612098Y-122195818D01*
X164046715Y-115761618D01*
X170481333Y-109327418D01*
X170481333Y-110257745D01*
X161464937Y-119275323D01*
X164385199Y-122195585D01*
X170481333Y-116101215D01*
X170481333Y-117031956D01*
X161231356Y-126281645D01*
X151981378Y-135531333D01*
X151050751Y-135531333D01*
X157484951Y-129096715D01*
X163919151Y-122662098D01*
X162458840Y-121201787D01*
X160998530Y-119741476D01*
X153103262Y-127636405D01*
X145207995Y-135531333D01*
X144278985Y-135531333D01*
X145632009Y-134176323D01*
X146985033Y-132821314D01*
X145525267Y-131361547D01*
X144065500Y-129901781D01*
X138434066Y-135531333D01*
X137503830Y-135531333D01*
X143600332Y-129434491D01*
X144532027Y-129434491D01*
X145969913Y-130874245D01*
X146372792Y-131275911D01*
X146735708Y-131634419D01*
X147041742Y-131933325D01*
X147273974Y-132156187D01*
X147415485Y-132286562D01*
X147451344Y-132314000D01*
X147516537Y-132255558D01*
X147692318Y-132086194D01*
X147969666Y-131814850D01*
X148339560Y-131450466D01*
X148792979Y-131001985D01*
X149320902Y-130478348D01*
X149914307Y-129888496D01*
X150564173Y-129241371D01*
X151261479Y-128545915D01*
X151997204Y-127811069D01*
X152320319Y-127488014D01*
X157145748Y-122662028D01*
X155685433Y-121201714D01*
X154225119Y-119741399D01*
X144532027Y-129434491D01*
X143600332Y-129434491D01*
X170439000Y-102594329D01*
X170465147Y-103034515D01*
X170465147Y-103034515D01*
G37*
X170465147Y-103034515D02*
X170491293Y-103474701D01*
X162591385Y-111374949D01*
X154691476Y-119275196D01*
X157612098Y-122195818D01*
X164046715Y-115761618D01*
X170481333Y-109327418D01*
X170481333Y-110257745D01*
X161464937Y-119275323D01*
X164385199Y-122195585D01*
X170481333Y-116101215D01*
X170481333Y-117031956D01*
X161231356Y-126281645D01*
X151981378Y-135531333D01*
X151050751Y-135531333D01*
X157484951Y-129096715D01*
X163919151Y-122662098D01*
X162458840Y-121201787D01*
X160998530Y-119741476D01*
X153103262Y-127636405D01*
X145207995Y-135531333D01*
X144278985Y-135531333D01*
X145632009Y-134176323D01*
X146985033Y-132821314D01*
X145525267Y-131361547D01*
X144065500Y-129901781D01*
X138434066Y-135531333D01*
X137503830Y-135531333D01*
X143600332Y-129434491D01*
X144532027Y-129434491D01*
X145969913Y-130874245D01*
X146372792Y-131275911D01*
X146735708Y-131634419D01*
X147041742Y-131933325D01*
X147273974Y-132156187D01*
X147415485Y-132286562D01*
X147451344Y-132314000D01*
X147516537Y-132255558D01*
X147692318Y-132086194D01*
X147969666Y-131814850D01*
X148339560Y-131450466D01*
X148792979Y-131001985D01*
X149320902Y-130478348D01*
X149914307Y-129888496D01*
X150564173Y-129241371D01*
X151261479Y-128545915D01*
X151997204Y-127811069D01*
X152320319Y-127488014D01*
X157145748Y-122662028D01*
X155685433Y-121201714D01*
X154225119Y-119741399D01*
X144532027Y-129434491D01*
X143600332Y-129434491D01*
X170439000Y-102594329D01*
X170465147Y-103034515D01*
G36*
X170491300Y-100088215D02*
G01*
X152769892Y-117809774D01*
X135048485Y-135531333D01*
X134117148Y-135531333D01*
X170439000Y-99207677D01*
X170491300Y-100088215D01*
X170491300Y-100088215D01*
G37*
X170491300Y-100088215D02*
X152769892Y-117809774D01*
X135048485Y-135531333D01*
X134117148Y-135531333D01*
X170439000Y-99207677D01*
X170491300Y-100088215D01*
G36*
X170491300Y-96701561D02*
G01*
X151076552Y-116116447D01*
X131661805Y-135531333D01*
X130730469Y-135531333D01*
X150584734Y-115676178D01*
X170439000Y-95821023D01*
X170491300Y-96701561D01*
X170491300Y-96701561D01*
G37*
X170491300Y-96701561D02*
X151076552Y-116116447D01*
X131661805Y-135531333D01*
X130730469Y-135531333D01*
X150584734Y-115676178D01*
X170439000Y-95821023D01*
X170491300Y-96701561D01*
M02*
