G04 #@! TF.GenerationSoftware,KiCad,Pcbnew,(5.1.4)-1*
G04 #@! TF.CreationDate,2019-12-03T21:31:11+01:00*
G04 #@! TF.ProjectId,Top,546f702e-6b69-4636-9164-5f7063625858,rev?*
G04 #@! TF.SameCoordinates,Original*
G04 #@! TF.FileFunction,Legend,Bot*
G04 #@! TF.FilePolarity,Positive*
%FSLAX46Y46*%
G04 Gerber Fmt 4.6, Leading zero omitted, Abs format (unit mm)*
G04 Created by KiCad (PCBNEW (5.1.4)-1) date 2019-12-03 21:31:11*
%MOMM*%
%LPD*%
G04 APERTURE LIST*
%ADD10C,0.150000*%
%ADD11C,0.120000*%
G04 APERTURE END LIST*
D10*
X136355952Y-118171428D02*
X135594047Y-118171428D01*
X131955952Y-118171428D02*
X131194047Y-118171428D01*
X131575000Y-118552380D02*
X131575000Y-117790476D01*
X153501190Y-111332142D02*
X153548809Y-111379761D01*
X153691666Y-111427380D01*
X153786904Y-111427380D01*
X153929761Y-111379761D01*
X154025000Y-111284523D01*
X154072619Y-111189285D01*
X154120238Y-110998809D01*
X154120238Y-110855952D01*
X154072619Y-110665476D01*
X154025000Y-110570238D01*
X153929761Y-110475000D01*
X153786904Y-110427380D01*
X153691666Y-110427380D01*
X153548809Y-110475000D01*
X153501190Y-110522619D01*
X152644047Y-110760714D02*
X152644047Y-111427380D01*
X153072619Y-110760714D02*
X153072619Y-111284523D01*
X153025000Y-111379761D01*
X152929761Y-111427380D01*
X152786904Y-111427380D01*
X152691666Y-111379761D01*
X152644047Y-111332142D01*
X152167857Y-111427380D02*
X152167857Y-110427380D01*
X152167857Y-110808333D02*
X152072619Y-110760714D01*
X151882142Y-110760714D01*
X151786904Y-110808333D01*
X151739285Y-110855952D01*
X151691666Y-110951190D01*
X151691666Y-111236904D01*
X151739285Y-111332142D01*
X151786904Y-111379761D01*
X151882142Y-111427380D01*
X152072619Y-111427380D01*
X152167857Y-111379761D01*
X151358333Y-110760714D02*
X151120238Y-111427380D01*
X150882142Y-110760714D02*
X151120238Y-111427380D01*
X151215476Y-111665476D01*
X151263095Y-111713095D01*
X151358333Y-111760714D01*
X149882142Y-110427380D02*
X149548809Y-111427380D01*
X149215476Y-110427380D01*
X148691666Y-110427380D02*
X148596428Y-110427380D01*
X148501190Y-110475000D01*
X148453571Y-110522619D01*
X148405952Y-110617857D01*
X148358333Y-110808333D01*
X148358333Y-111046428D01*
X148405952Y-111236904D01*
X148453571Y-111332142D01*
X148501190Y-111379761D01*
X148596428Y-111427380D01*
X148691666Y-111427380D01*
X148786904Y-111379761D01*
X148834523Y-111332142D01*
X148882142Y-111236904D01*
X148929761Y-111046428D01*
X148929761Y-110808333D01*
X148882142Y-110617857D01*
X148834523Y-110522619D01*
X148786904Y-110475000D01*
X148691666Y-110427380D01*
X147929761Y-111332142D02*
X147882142Y-111379761D01*
X147929761Y-111427380D01*
X147977380Y-111379761D01*
X147929761Y-111332142D01*
X147929761Y-111427380D01*
X147501190Y-110522619D02*
X147453571Y-110475000D01*
X147358333Y-110427380D01*
X147120238Y-110427380D01*
X147025000Y-110475000D01*
X146977380Y-110522619D01*
X146929761Y-110617857D01*
X146929761Y-110713095D01*
X146977380Y-110855952D01*
X147548809Y-111427380D01*
X146929761Y-111427380D01*
D11*
X130715000Y-105435000D02*
X130715000Y-102750000D01*
X132635000Y-105435000D02*
X130715000Y-105435000D01*
X132635000Y-102750000D02*
X132635000Y-105435000D01*
X133315000Y-108900000D02*
X133315000Y-107100000D01*
X136535000Y-107100000D02*
X136535000Y-109550000D01*
X133503922Y-118540000D02*
X134021078Y-118540000D01*
X133503922Y-119960000D02*
X134021078Y-119960000D01*
X170210000Y-114508578D02*
X170210000Y-113991422D01*
X168790000Y-114508578D02*
X168790000Y-113991422D01*
X168790000Y-110558578D02*
X168790000Y-110041422D01*
X170210000Y-110558578D02*
X170210000Y-110041422D01*
X168790000Y-106141422D02*
X168790000Y-106658578D01*
X170210000Y-106141422D02*
X170210000Y-106658578D01*
X159246078Y-101535000D02*
X158728922Y-101535000D01*
X159246078Y-100115000D02*
X158728922Y-100115000D01*
X163071078Y-100115000D02*
X162553922Y-100115000D01*
X163071078Y-101535000D02*
X162553922Y-101535000D01*
X134435000Y-104008578D02*
X134435000Y-103491422D01*
X133015000Y-104008578D02*
X133015000Y-103491422D01*
X138266422Y-100165000D02*
X138783578Y-100165000D01*
X138266422Y-101585000D02*
X138783578Y-101585000D01*
X132385000Y-107741422D02*
X132385000Y-108258578D01*
X130965000Y-107741422D02*
X130965000Y-108258578D01*
X136485000Y-104008578D02*
X136485000Y-103491422D01*
X135065000Y-104008578D02*
X135065000Y-103491422D01*
X168790000Y-102491422D02*
X168790000Y-103008578D01*
X170210000Y-102491422D02*
X170210000Y-103008578D01*
X135900000Y-110625000D02*
X135900000Y-112625000D01*
X135900000Y-112625000D02*
X132000000Y-112625000D01*
X135900000Y-110625000D02*
X132000000Y-110625000D01*
X142600000Y-123865000D02*
X145285000Y-123865000D01*
X145285000Y-123865000D02*
X145285000Y-125785000D01*
X145285000Y-125785000D02*
X142600000Y-125785000D01*
X158325000Y-125785000D02*
X155640000Y-125785000D01*
X155640000Y-125785000D02*
X155640000Y-123865000D01*
X155640000Y-123865000D02*
X158325000Y-123865000D01*
X139341422Y-125535000D02*
X139858578Y-125535000D01*
X139341422Y-124115000D02*
X139858578Y-124115000D01*
X161583578Y-125535000D02*
X161066422Y-125535000D01*
X161583578Y-124115000D02*
X161066422Y-124115000D01*
D10*
X163507142Y-96761904D02*
X163507142Y-97380952D01*
X163850000Y-97047619D01*
X163850000Y-97190476D01*
X163892857Y-97285714D01*
X163935714Y-97333333D01*
X164021428Y-97380952D01*
X164235714Y-97380952D01*
X164321428Y-97333333D01*
X164364285Y-97285714D01*
X164407142Y-97190476D01*
X164407142Y-96904761D01*
X164364285Y-96809523D01*
X164321428Y-96761904D01*
X163507142Y-97666666D02*
X164407142Y-98000000D01*
X163507142Y-98333333D01*
X163507142Y-98571428D02*
X163507142Y-99190476D01*
X163850000Y-98857142D01*
X163850000Y-99000000D01*
X163892857Y-99095238D01*
X163935714Y-99142857D01*
X164021428Y-99190476D01*
X164235714Y-99190476D01*
X164321428Y-99142857D01*
X164364285Y-99095238D01*
X164407142Y-99000000D01*
X164407142Y-98714285D01*
X164364285Y-98619047D01*
X164321428Y-98571428D01*
X156182142Y-96297619D02*
X156182142Y-96488095D01*
X156225000Y-96583333D01*
X156310714Y-96678571D01*
X156482142Y-96726190D01*
X156782142Y-96726190D01*
X156953571Y-96678571D01*
X157039285Y-96583333D01*
X157082142Y-96488095D01*
X157082142Y-96297619D01*
X157039285Y-96202380D01*
X156953571Y-96107142D01*
X156782142Y-96059523D01*
X156482142Y-96059523D01*
X156310714Y-96107142D01*
X156225000Y-96202380D01*
X156182142Y-96297619D01*
X155832000Y-96916666D02*
X155832000Y-97916666D01*
X157082142Y-97726190D02*
X156653571Y-97392857D01*
X157082142Y-97154761D02*
X156182142Y-97154761D01*
X156182142Y-97535714D01*
X156225000Y-97630952D01*
X156267857Y-97678571D01*
X156353571Y-97726190D01*
X156482142Y-97726190D01*
X156567857Y-97678571D01*
X156610714Y-97630952D01*
X156653571Y-97535714D01*
X156653571Y-97154761D01*
X155832000Y-97916666D02*
X155832000Y-98869047D01*
X157039285Y-98107142D02*
X157082142Y-98250000D01*
X157082142Y-98488095D01*
X157039285Y-98583333D01*
X156996428Y-98630952D01*
X156910714Y-98678571D01*
X156825000Y-98678571D01*
X156739285Y-98630952D01*
X156696428Y-98583333D01*
X156653571Y-98488095D01*
X156610714Y-98297619D01*
X156567857Y-98202380D01*
X156525000Y-98154761D01*
X156439285Y-98107142D01*
X156353571Y-98107142D01*
X156267857Y-98154761D01*
X156225000Y-98202380D01*
X156182142Y-98297619D01*
X156182142Y-98535714D01*
X156225000Y-98678571D01*
X155832000Y-98869047D02*
X155832000Y-99630952D01*
X156182142Y-98964285D02*
X156182142Y-99535714D01*
X157082142Y-99250000D02*
X156182142Y-99250000D01*
X158507142Y-96273809D02*
X158507142Y-96464285D01*
X158550000Y-96559523D01*
X158635714Y-96654761D01*
X158807142Y-96702380D01*
X159107142Y-96702380D01*
X159278571Y-96654761D01*
X159364285Y-96559523D01*
X159407142Y-96464285D01*
X159407142Y-96273809D01*
X159364285Y-96178571D01*
X159278571Y-96083333D01*
X159107142Y-96035714D01*
X158807142Y-96035714D01*
X158635714Y-96083333D01*
X158550000Y-96178571D01*
X158507142Y-96273809D01*
X159364285Y-97083333D02*
X159407142Y-97226190D01*
X159407142Y-97464285D01*
X159364285Y-97559523D01*
X159321428Y-97607142D01*
X159235714Y-97654761D01*
X159150000Y-97654761D01*
X159064285Y-97607142D01*
X159021428Y-97559523D01*
X158978571Y-97464285D01*
X158935714Y-97273809D01*
X158892857Y-97178571D01*
X158850000Y-97130952D01*
X158764285Y-97083333D01*
X158678571Y-97083333D01*
X158592857Y-97130952D01*
X158550000Y-97178571D01*
X158507142Y-97273809D01*
X158507142Y-97511904D01*
X158550000Y-97654761D01*
X159321428Y-98654761D02*
X159364285Y-98607142D01*
X159407142Y-98464285D01*
X159407142Y-98369047D01*
X159364285Y-98226190D01*
X159278571Y-98130952D01*
X159192857Y-98083333D01*
X159021428Y-98035714D01*
X158892857Y-98035714D01*
X158721428Y-98083333D01*
X158635714Y-98130952D01*
X158550000Y-98226190D01*
X158507142Y-98369047D01*
X158507142Y-98464285D01*
X158550000Y-98607142D01*
X158592857Y-98654761D01*
X159407142Y-99559523D02*
X159407142Y-99083333D01*
X158507142Y-99083333D01*
X161007142Y-96250000D02*
X161007142Y-96440476D01*
X161050000Y-96535714D01*
X161135714Y-96630952D01*
X161307142Y-96678571D01*
X161607142Y-96678571D01*
X161778571Y-96630952D01*
X161864285Y-96535714D01*
X161907142Y-96440476D01*
X161907142Y-96250000D01*
X161864285Y-96154761D01*
X161778571Y-96059523D01*
X161607142Y-96011904D01*
X161307142Y-96011904D01*
X161135714Y-96059523D01*
X161050000Y-96154761D01*
X161007142Y-96250000D01*
X161864285Y-97059523D02*
X161907142Y-97202380D01*
X161907142Y-97440476D01*
X161864285Y-97535714D01*
X161821428Y-97583333D01*
X161735714Y-97630952D01*
X161650000Y-97630952D01*
X161564285Y-97583333D01*
X161521428Y-97535714D01*
X161478571Y-97440476D01*
X161435714Y-97250000D01*
X161392857Y-97154761D01*
X161350000Y-97107142D01*
X161264285Y-97059523D01*
X161178571Y-97059523D01*
X161092857Y-97107142D01*
X161050000Y-97154761D01*
X161007142Y-97250000D01*
X161007142Y-97488095D01*
X161050000Y-97630952D01*
X161907142Y-98059523D02*
X161007142Y-98059523D01*
X161007142Y-98297619D01*
X161050000Y-98440476D01*
X161135714Y-98535714D01*
X161221428Y-98583333D01*
X161392857Y-98630952D01*
X161521428Y-98630952D01*
X161692857Y-98583333D01*
X161778571Y-98535714D01*
X161864285Y-98440476D01*
X161907142Y-98297619D01*
X161907142Y-98059523D01*
X161650000Y-99011904D02*
X161650000Y-99488095D01*
X161907142Y-98916666D02*
X161007142Y-99250000D01*
X161907142Y-99583333D01*
X132761904Y-100800000D02*
X132857142Y-100757142D01*
X133000000Y-100757142D01*
X133142857Y-100800000D01*
X133238095Y-100885714D01*
X133285714Y-100971428D01*
X133333333Y-101142857D01*
X133333333Y-101271428D01*
X133285714Y-101442857D01*
X133238095Y-101528571D01*
X133142857Y-101614285D01*
X133000000Y-101657142D01*
X132904761Y-101657142D01*
X132761904Y-101614285D01*
X132714285Y-101571428D01*
X132714285Y-101271428D01*
X132904761Y-101271428D01*
X132285714Y-101657142D02*
X132285714Y-100757142D01*
X131714285Y-101657142D01*
X131714285Y-100757142D01*
X131238095Y-101657142D02*
X131238095Y-100757142D01*
X131000000Y-100757142D01*
X130857142Y-100800000D01*
X130761904Y-100885714D01*
X130714285Y-100971428D01*
X130666666Y-101142857D01*
X130666666Y-101271428D01*
X130714285Y-101442857D01*
X130761904Y-101528571D01*
X130857142Y-101614285D01*
X131000000Y-101657142D01*
X131238095Y-101657142D01*
X136533333Y-101657142D02*
X136533333Y-100757142D01*
X136152380Y-100757142D01*
X136057142Y-100800000D01*
X136009523Y-100842857D01*
X135961904Y-100928571D01*
X135961904Y-101057142D01*
X136009523Y-101142857D01*
X136057142Y-101185714D01*
X136152380Y-101228571D01*
X136533333Y-101228571D01*
X135628571Y-100757142D02*
X135390476Y-101657142D01*
X135200000Y-101014285D01*
X135009523Y-101657142D01*
X134771428Y-100757142D01*
X133819047Y-101657142D02*
X134152380Y-101228571D01*
X134390476Y-101657142D02*
X134390476Y-100757142D01*
X134009523Y-100757142D01*
X133914285Y-100800000D01*
X133866666Y-100842857D01*
X133819047Y-100928571D01*
X133819047Y-101057142D01*
X133866666Y-101142857D01*
X133914285Y-101185714D01*
X134009523Y-101228571D01*
X134390476Y-101228571D01*
X132711904Y-129200000D02*
X132807142Y-129152380D01*
X132950000Y-129152380D01*
X133092857Y-129200000D01*
X133188095Y-129295238D01*
X133235714Y-129390476D01*
X133283333Y-129580952D01*
X133283333Y-129723809D01*
X133235714Y-129914285D01*
X133188095Y-130009523D01*
X133092857Y-130104761D01*
X132950000Y-130152380D01*
X132854761Y-130152380D01*
X132711904Y-130104761D01*
X132664285Y-130057142D01*
X132664285Y-129723809D01*
X132854761Y-129723809D01*
X132235714Y-130152380D02*
X132235714Y-129152380D01*
X131664285Y-130152380D01*
X131664285Y-129152380D01*
X131188095Y-130152380D02*
X131188095Y-129152380D01*
X130950000Y-129152380D01*
X130807142Y-129200000D01*
X130711904Y-129295238D01*
X130664285Y-129390476D01*
X130616666Y-129580952D01*
X130616666Y-129723809D01*
X130664285Y-129914285D01*
X130711904Y-130009523D01*
X130807142Y-130104761D01*
X130950000Y-130152380D01*
X131188095Y-130152380D01*
X169811904Y-129200000D02*
X169907142Y-129152380D01*
X170050000Y-129152380D01*
X170192857Y-129200000D01*
X170288095Y-129295238D01*
X170335714Y-129390476D01*
X170383333Y-129580952D01*
X170383333Y-129723809D01*
X170335714Y-129914285D01*
X170288095Y-130009523D01*
X170192857Y-130104761D01*
X170050000Y-130152380D01*
X169954761Y-130152380D01*
X169811904Y-130104761D01*
X169764285Y-130057142D01*
X169764285Y-129723809D01*
X169954761Y-129723809D01*
X169335714Y-130152380D02*
X169335714Y-129152380D01*
X168764285Y-130152380D01*
X168764285Y-129152380D01*
X168288095Y-130152380D02*
X168288095Y-129152380D01*
X168050000Y-129152380D01*
X167907142Y-129200000D01*
X167811904Y-129295238D01*
X167764285Y-129390476D01*
X167716666Y-129580952D01*
X167716666Y-129723809D01*
X167764285Y-129914285D01*
X167811904Y-130009523D01*
X167907142Y-130104761D01*
X168050000Y-130152380D01*
X168288095Y-130152380D01*
X133183333Y-123152380D02*
X133183333Y-122152380D01*
X132802380Y-122152380D01*
X132707142Y-122200000D01*
X132659523Y-122247619D01*
X132611904Y-122342857D01*
X132611904Y-122485714D01*
X132659523Y-122580952D01*
X132707142Y-122628571D01*
X132802380Y-122676190D01*
X133183333Y-122676190D01*
X132278571Y-122152380D02*
X132040476Y-123152380D01*
X131850000Y-122438095D01*
X131659523Y-123152380D01*
X131421428Y-122152380D01*
X130469047Y-123152380D02*
X130802380Y-122676190D01*
X131040476Y-123152380D02*
X131040476Y-122152380D01*
X130659523Y-122152380D01*
X130564285Y-122200000D01*
X130516666Y-122247619D01*
X130469047Y-122342857D01*
X130469047Y-122485714D01*
X130516666Y-122580952D01*
X130564285Y-122628571D01*
X130659523Y-122676190D01*
X131040476Y-122676190D01*
X170383333Y-123152380D02*
X170383333Y-122152380D01*
X170002380Y-122152380D01*
X169907142Y-122200000D01*
X169859523Y-122247619D01*
X169811904Y-122342857D01*
X169811904Y-122485714D01*
X169859523Y-122580952D01*
X169907142Y-122628571D01*
X170002380Y-122676190D01*
X170383333Y-122676190D01*
X169478571Y-122152380D02*
X169240476Y-123152380D01*
X169050000Y-122438095D01*
X168859523Y-123152380D01*
X168621428Y-122152380D01*
X167669047Y-123152380D02*
X168002380Y-122676190D01*
X168240476Y-123152380D02*
X168240476Y-122152380D01*
X167859523Y-122152380D01*
X167764285Y-122200000D01*
X167716666Y-122247619D01*
X167669047Y-122342857D01*
X167669047Y-122485714D01*
X167716666Y-122580952D01*
X167764285Y-122628571D01*
X167859523Y-122676190D01*
X168240476Y-122676190D01*
X137053571Y-96445238D02*
X137101190Y-96588095D01*
X137148809Y-96635714D01*
X137244047Y-96683333D01*
X137386904Y-96683333D01*
X137482142Y-96635714D01*
X137529761Y-96588095D01*
X137577380Y-96492857D01*
X137577380Y-96111904D01*
X136577380Y-96111904D01*
X136577380Y-96445238D01*
X136625000Y-96540476D01*
X136672619Y-96588095D01*
X136767857Y-96635714D01*
X136863095Y-96635714D01*
X136958333Y-96588095D01*
X137005952Y-96540476D01*
X137053571Y-96445238D01*
X137053571Y-96111904D01*
X136577380Y-96969047D02*
X136577380Y-97540476D01*
X137577380Y-97254761D02*
X136577380Y-97254761D01*
X137577380Y-97873809D02*
X136577380Y-97873809D01*
X137291666Y-98207142D01*
X136577380Y-98540476D01*
X137577380Y-98540476D01*
X137577380Y-99016666D02*
X136577380Y-99016666D01*
X137577380Y-99588095D01*
X136577380Y-99588095D01*
X139977380Y-96855952D02*
X139977380Y-96379761D01*
X138977380Y-96379761D01*
X139453571Y-97189285D02*
X139453571Y-97522619D01*
X139977380Y-97665476D02*
X139977380Y-97189285D01*
X138977380Y-97189285D01*
X138977380Y-97665476D01*
X139977380Y-98094047D02*
X138977380Y-98094047D01*
X138977380Y-98332142D01*
X139025000Y-98475000D01*
X139120238Y-98570238D01*
X139215476Y-98617857D01*
X139405952Y-98665476D01*
X139548809Y-98665476D01*
X139739285Y-98617857D01*
X139834523Y-98570238D01*
X139929761Y-98475000D01*
X139977380Y-98332142D01*
X139977380Y-98094047D01*
X139977380Y-99617857D02*
X139977380Y-99046428D01*
X139977380Y-99332142D02*
X138977380Y-99332142D01*
X139120238Y-99236904D01*
X139215476Y-99141666D01*
X139263095Y-99046428D01*
X142502380Y-96855952D02*
X142502380Y-96379761D01*
X141502380Y-96379761D01*
X141978571Y-97189285D02*
X141978571Y-97522619D01*
X142502380Y-97665476D02*
X142502380Y-97189285D01*
X141502380Y-97189285D01*
X141502380Y-97665476D01*
X142502380Y-98094047D02*
X141502380Y-98094047D01*
X141502380Y-98332142D01*
X141550000Y-98475000D01*
X141645238Y-98570238D01*
X141740476Y-98617857D01*
X141930952Y-98665476D01*
X142073809Y-98665476D01*
X142264285Y-98617857D01*
X142359523Y-98570238D01*
X142454761Y-98475000D01*
X142502380Y-98332142D01*
X142502380Y-98094047D01*
X141597619Y-99046428D02*
X141550000Y-99094047D01*
X141502380Y-99189285D01*
X141502380Y-99427380D01*
X141550000Y-99522619D01*
X141597619Y-99570238D01*
X141692857Y-99617857D01*
X141788095Y-99617857D01*
X141930952Y-99570238D01*
X142502380Y-98998809D01*
X142502380Y-99617857D01*
X153557380Y-96139285D02*
X153557380Y-96710714D01*
X154557380Y-96425000D02*
X153557380Y-96425000D01*
X154462142Y-97615476D02*
X154509761Y-97567857D01*
X154557380Y-97425000D01*
X154557380Y-97329761D01*
X154509761Y-97186904D01*
X154414523Y-97091666D01*
X154319285Y-97044047D01*
X154128809Y-96996428D01*
X153985952Y-96996428D01*
X153795476Y-97044047D01*
X153700238Y-97091666D01*
X153605000Y-97186904D01*
X153557380Y-97329761D01*
X153557380Y-97425000D01*
X153605000Y-97567857D01*
X153652619Y-97615476D01*
X154557380Y-98044047D02*
X153557380Y-98044047D01*
X154033571Y-98044047D02*
X154033571Y-98615476D01*
X154557380Y-98615476D02*
X153557380Y-98615476D01*
X154557380Y-99615476D02*
X154557380Y-99044047D01*
X154557380Y-99329761D02*
X153557380Y-99329761D01*
X153700238Y-99234523D01*
X153795476Y-99139285D01*
X153843095Y-99044047D01*
X144252380Y-96139285D02*
X144252380Y-96710714D01*
X145252380Y-96425000D02*
X144252380Y-96425000D01*
X145157142Y-97615476D02*
X145204761Y-97567857D01*
X145252380Y-97425000D01*
X145252380Y-97329761D01*
X145204761Y-97186904D01*
X145109523Y-97091666D01*
X145014285Y-97044047D01*
X144823809Y-96996428D01*
X144680952Y-96996428D01*
X144490476Y-97044047D01*
X144395238Y-97091666D01*
X144300000Y-97186904D01*
X144252380Y-97329761D01*
X144252380Y-97425000D01*
X144300000Y-97567857D01*
X144347619Y-97615476D01*
X145252380Y-98044047D02*
X144252380Y-98044047D01*
X144728571Y-98044047D02*
X144728571Y-98615476D01*
X145252380Y-98615476D02*
X144252380Y-98615476D01*
X144347619Y-99044047D02*
X144300000Y-99091666D01*
X144252380Y-99186904D01*
X144252380Y-99425000D01*
X144300000Y-99520238D01*
X144347619Y-99567857D01*
X144442857Y-99615476D01*
X144538095Y-99615476D01*
X144680952Y-99567857D01*
X145252380Y-98996428D01*
X145252380Y-99615476D01*
M02*
