G04 #@! TF.GenerationSoftware,KiCad,Pcbnew,(5.1.4)-1*
G04 #@! TF.CreationDate,2019-10-10T18:24:03+02:00*
G04 #@! TF.ProjectId,Top,546f702e-6b69-4636-9164-5f7063625858,rev?*
G04 #@! TF.SameCoordinates,Original*
G04 #@! TF.FileFunction,Soldermask,Bot*
G04 #@! TF.FilePolarity,Negative*
%FSLAX46Y46*%
G04 Gerber Fmt 4.6, Leading zero omitted, Abs format (unit mm)*
G04 Created by KiCad (PCBNEW (5.1.4)-1) date 2019-10-10 18:24:03*
%MOMM*%
%LPD*%
G04 APERTURE LIST*
%ADD10R,2.500000X5.000000*%
%ADD11C,0.900000*%
%ADD12R,1.200000X2.500000*%
%ADD13R,2.000000X4.000000*%
%ADD14R,3.000000X0.320000*%
%ADD15R,1.000000X4.000000*%
%ADD16R,0.650000X1.060000*%
%ADD17C,0.100000*%
%ADD18C,0.975000*%
%ADD19R,0.900000X1.200000*%
%ADD20C,0.875000*%
G04 APERTURE END LIST*
D10*
X165800000Y-97950000D03*
D11*
X153900000Y-133300000D03*
X147100000Y-133300000D03*
D12*
X148000000Y-130550000D03*
X150500000Y-130550000D03*
X153000000Y-130550000D03*
D13*
X135300000Y-113300000D03*
X132300000Y-113300000D03*
D14*
X165150000Y-105180000D03*
X165150000Y-105800000D03*
X165150000Y-106420000D03*
X165150000Y-107040000D03*
X165150000Y-107660000D03*
X165150000Y-108280000D03*
X165150000Y-108900000D03*
X165150000Y-109520000D03*
X165150000Y-110140000D03*
X165150000Y-110760000D03*
X165150000Y-111380000D03*
X165150000Y-112000000D03*
X165150000Y-112620000D03*
X165150000Y-113240000D03*
D15*
X141700000Y-97450000D03*
X157720000Y-97450000D03*
X160260000Y-97450000D03*
X162800000Y-97450000D03*
D10*
X138700000Y-97950000D03*
X169300000Y-97950000D03*
D16*
X133700000Y-109100000D03*
X132750000Y-109100000D03*
X131800000Y-109100000D03*
X131800000Y-106900000D03*
X133700000Y-106900000D03*
D10*
X131700000Y-97950000D03*
X135200000Y-97950000D03*
D17*
G36*
X135005142Y-116801174D02*
G01*
X135028803Y-116804684D01*
X135052007Y-116810496D01*
X135074529Y-116818554D01*
X135096153Y-116828782D01*
X135116670Y-116841079D01*
X135135883Y-116855329D01*
X135153607Y-116871393D01*
X135169671Y-116889117D01*
X135183921Y-116908330D01*
X135196218Y-116928847D01*
X135206446Y-116950471D01*
X135214504Y-116972993D01*
X135220316Y-116996197D01*
X135223826Y-117019858D01*
X135225000Y-117043750D01*
X135225000Y-117956250D01*
X135223826Y-117980142D01*
X135220316Y-118003803D01*
X135214504Y-118027007D01*
X135206446Y-118049529D01*
X135196218Y-118071153D01*
X135183921Y-118091670D01*
X135169671Y-118110883D01*
X135153607Y-118128607D01*
X135135883Y-118144671D01*
X135116670Y-118158921D01*
X135096153Y-118171218D01*
X135074529Y-118181446D01*
X135052007Y-118189504D01*
X135028803Y-118195316D01*
X135005142Y-118198826D01*
X134981250Y-118200000D01*
X134493750Y-118200000D01*
X134469858Y-118198826D01*
X134446197Y-118195316D01*
X134422993Y-118189504D01*
X134400471Y-118181446D01*
X134378847Y-118171218D01*
X134358330Y-118158921D01*
X134339117Y-118144671D01*
X134321393Y-118128607D01*
X134305329Y-118110883D01*
X134291079Y-118091670D01*
X134278782Y-118071153D01*
X134268554Y-118049529D01*
X134260496Y-118027007D01*
X134254684Y-118003803D01*
X134251174Y-117980142D01*
X134250000Y-117956250D01*
X134250000Y-117043750D01*
X134251174Y-117019858D01*
X134254684Y-116996197D01*
X134260496Y-116972993D01*
X134268554Y-116950471D01*
X134278782Y-116928847D01*
X134291079Y-116908330D01*
X134305329Y-116889117D01*
X134321393Y-116871393D01*
X134339117Y-116855329D01*
X134358330Y-116841079D01*
X134378847Y-116828782D01*
X134400471Y-116818554D01*
X134422993Y-116810496D01*
X134446197Y-116804684D01*
X134469858Y-116801174D01*
X134493750Y-116800000D01*
X134981250Y-116800000D01*
X135005142Y-116801174D01*
X135005142Y-116801174D01*
G37*
D18*
X134737500Y-117500000D03*
D17*
G36*
X133130142Y-116801174D02*
G01*
X133153803Y-116804684D01*
X133177007Y-116810496D01*
X133199529Y-116818554D01*
X133221153Y-116828782D01*
X133241670Y-116841079D01*
X133260883Y-116855329D01*
X133278607Y-116871393D01*
X133294671Y-116889117D01*
X133308921Y-116908330D01*
X133321218Y-116928847D01*
X133331446Y-116950471D01*
X133339504Y-116972993D01*
X133345316Y-116996197D01*
X133348826Y-117019858D01*
X133350000Y-117043750D01*
X133350000Y-117956250D01*
X133348826Y-117980142D01*
X133345316Y-118003803D01*
X133339504Y-118027007D01*
X133331446Y-118049529D01*
X133321218Y-118071153D01*
X133308921Y-118091670D01*
X133294671Y-118110883D01*
X133278607Y-118128607D01*
X133260883Y-118144671D01*
X133241670Y-118158921D01*
X133221153Y-118171218D01*
X133199529Y-118181446D01*
X133177007Y-118189504D01*
X133153803Y-118195316D01*
X133130142Y-118198826D01*
X133106250Y-118200000D01*
X132618750Y-118200000D01*
X132594858Y-118198826D01*
X132571197Y-118195316D01*
X132547993Y-118189504D01*
X132525471Y-118181446D01*
X132503847Y-118171218D01*
X132483330Y-118158921D01*
X132464117Y-118144671D01*
X132446393Y-118128607D01*
X132430329Y-118110883D01*
X132416079Y-118091670D01*
X132403782Y-118071153D01*
X132393554Y-118049529D01*
X132385496Y-118027007D01*
X132379684Y-118003803D01*
X132376174Y-117980142D01*
X132375000Y-117956250D01*
X132375000Y-117043750D01*
X132376174Y-117019858D01*
X132379684Y-116996197D01*
X132385496Y-116972993D01*
X132393554Y-116950471D01*
X132403782Y-116928847D01*
X132416079Y-116908330D01*
X132430329Y-116889117D01*
X132446393Y-116871393D01*
X132464117Y-116855329D01*
X132483330Y-116841079D01*
X132503847Y-116828782D01*
X132525471Y-116818554D01*
X132547993Y-116810496D01*
X132571197Y-116804684D01*
X132594858Y-116801174D01*
X132618750Y-116800000D01*
X133106250Y-116800000D01*
X133130142Y-116801174D01*
X133130142Y-116801174D01*
G37*
D18*
X132862500Y-117500000D03*
D17*
G36*
X169980142Y-114701174D02*
G01*
X170003803Y-114704684D01*
X170027007Y-114710496D01*
X170049529Y-114718554D01*
X170071153Y-114728782D01*
X170091670Y-114741079D01*
X170110883Y-114755329D01*
X170128607Y-114771393D01*
X170144671Y-114789117D01*
X170158921Y-114808330D01*
X170171218Y-114828847D01*
X170181446Y-114850471D01*
X170189504Y-114872993D01*
X170195316Y-114896197D01*
X170198826Y-114919858D01*
X170200000Y-114943750D01*
X170200000Y-115431250D01*
X170198826Y-115455142D01*
X170195316Y-115478803D01*
X170189504Y-115502007D01*
X170181446Y-115524529D01*
X170171218Y-115546153D01*
X170158921Y-115566670D01*
X170144671Y-115585883D01*
X170128607Y-115603607D01*
X170110883Y-115619671D01*
X170091670Y-115633921D01*
X170071153Y-115646218D01*
X170049529Y-115656446D01*
X170027007Y-115664504D01*
X170003803Y-115670316D01*
X169980142Y-115673826D01*
X169956250Y-115675000D01*
X169043750Y-115675000D01*
X169019858Y-115673826D01*
X168996197Y-115670316D01*
X168972993Y-115664504D01*
X168950471Y-115656446D01*
X168928847Y-115646218D01*
X168908330Y-115633921D01*
X168889117Y-115619671D01*
X168871393Y-115603607D01*
X168855329Y-115585883D01*
X168841079Y-115566670D01*
X168828782Y-115546153D01*
X168818554Y-115524529D01*
X168810496Y-115502007D01*
X168804684Y-115478803D01*
X168801174Y-115455142D01*
X168800000Y-115431250D01*
X168800000Y-114943750D01*
X168801174Y-114919858D01*
X168804684Y-114896197D01*
X168810496Y-114872993D01*
X168818554Y-114850471D01*
X168828782Y-114828847D01*
X168841079Y-114808330D01*
X168855329Y-114789117D01*
X168871393Y-114771393D01*
X168889117Y-114755329D01*
X168908330Y-114741079D01*
X168928847Y-114728782D01*
X168950471Y-114718554D01*
X168972993Y-114710496D01*
X168996197Y-114704684D01*
X169019858Y-114701174D01*
X169043750Y-114700000D01*
X169956250Y-114700000D01*
X169980142Y-114701174D01*
X169980142Y-114701174D01*
G37*
D18*
X169500000Y-115187500D03*
D17*
G36*
X169980142Y-112826174D02*
G01*
X170003803Y-112829684D01*
X170027007Y-112835496D01*
X170049529Y-112843554D01*
X170071153Y-112853782D01*
X170091670Y-112866079D01*
X170110883Y-112880329D01*
X170128607Y-112896393D01*
X170144671Y-112914117D01*
X170158921Y-112933330D01*
X170171218Y-112953847D01*
X170181446Y-112975471D01*
X170189504Y-112997993D01*
X170195316Y-113021197D01*
X170198826Y-113044858D01*
X170200000Y-113068750D01*
X170200000Y-113556250D01*
X170198826Y-113580142D01*
X170195316Y-113603803D01*
X170189504Y-113627007D01*
X170181446Y-113649529D01*
X170171218Y-113671153D01*
X170158921Y-113691670D01*
X170144671Y-113710883D01*
X170128607Y-113728607D01*
X170110883Y-113744671D01*
X170091670Y-113758921D01*
X170071153Y-113771218D01*
X170049529Y-113781446D01*
X170027007Y-113789504D01*
X170003803Y-113795316D01*
X169980142Y-113798826D01*
X169956250Y-113800000D01*
X169043750Y-113800000D01*
X169019858Y-113798826D01*
X168996197Y-113795316D01*
X168972993Y-113789504D01*
X168950471Y-113781446D01*
X168928847Y-113771218D01*
X168908330Y-113758921D01*
X168889117Y-113744671D01*
X168871393Y-113728607D01*
X168855329Y-113710883D01*
X168841079Y-113691670D01*
X168828782Y-113671153D01*
X168818554Y-113649529D01*
X168810496Y-113627007D01*
X168804684Y-113603803D01*
X168801174Y-113580142D01*
X168800000Y-113556250D01*
X168800000Y-113068750D01*
X168801174Y-113044858D01*
X168804684Y-113021197D01*
X168810496Y-112997993D01*
X168818554Y-112975471D01*
X168828782Y-112953847D01*
X168841079Y-112933330D01*
X168855329Y-112914117D01*
X168871393Y-112896393D01*
X168889117Y-112880329D01*
X168908330Y-112866079D01*
X168928847Y-112853782D01*
X168950471Y-112843554D01*
X168972993Y-112835496D01*
X168996197Y-112829684D01*
X169019858Y-112826174D01*
X169043750Y-112825000D01*
X169956250Y-112825000D01*
X169980142Y-112826174D01*
X169980142Y-112826174D01*
G37*
D18*
X169500000Y-113312500D03*
D17*
G36*
X169980142Y-108876174D02*
G01*
X170003803Y-108879684D01*
X170027007Y-108885496D01*
X170049529Y-108893554D01*
X170071153Y-108903782D01*
X170091670Y-108916079D01*
X170110883Y-108930329D01*
X170128607Y-108946393D01*
X170144671Y-108964117D01*
X170158921Y-108983330D01*
X170171218Y-109003847D01*
X170181446Y-109025471D01*
X170189504Y-109047993D01*
X170195316Y-109071197D01*
X170198826Y-109094858D01*
X170200000Y-109118750D01*
X170200000Y-109606250D01*
X170198826Y-109630142D01*
X170195316Y-109653803D01*
X170189504Y-109677007D01*
X170181446Y-109699529D01*
X170171218Y-109721153D01*
X170158921Y-109741670D01*
X170144671Y-109760883D01*
X170128607Y-109778607D01*
X170110883Y-109794671D01*
X170091670Y-109808921D01*
X170071153Y-109821218D01*
X170049529Y-109831446D01*
X170027007Y-109839504D01*
X170003803Y-109845316D01*
X169980142Y-109848826D01*
X169956250Y-109850000D01*
X169043750Y-109850000D01*
X169019858Y-109848826D01*
X168996197Y-109845316D01*
X168972993Y-109839504D01*
X168950471Y-109831446D01*
X168928847Y-109821218D01*
X168908330Y-109808921D01*
X168889117Y-109794671D01*
X168871393Y-109778607D01*
X168855329Y-109760883D01*
X168841079Y-109741670D01*
X168828782Y-109721153D01*
X168818554Y-109699529D01*
X168810496Y-109677007D01*
X168804684Y-109653803D01*
X168801174Y-109630142D01*
X168800000Y-109606250D01*
X168800000Y-109118750D01*
X168801174Y-109094858D01*
X168804684Y-109071197D01*
X168810496Y-109047993D01*
X168818554Y-109025471D01*
X168828782Y-109003847D01*
X168841079Y-108983330D01*
X168855329Y-108964117D01*
X168871393Y-108946393D01*
X168889117Y-108930329D01*
X168908330Y-108916079D01*
X168928847Y-108903782D01*
X168950471Y-108893554D01*
X168972993Y-108885496D01*
X168996197Y-108879684D01*
X169019858Y-108876174D01*
X169043750Y-108875000D01*
X169956250Y-108875000D01*
X169980142Y-108876174D01*
X169980142Y-108876174D01*
G37*
D18*
X169500000Y-109362500D03*
D17*
G36*
X169980142Y-110751174D02*
G01*
X170003803Y-110754684D01*
X170027007Y-110760496D01*
X170049529Y-110768554D01*
X170071153Y-110778782D01*
X170091670Y-110791079D01*
X170110883Y-110805329D01*
X170128607Y-110821393D01*
X170144671Y-110839117D01*
X170158921Y-110858330D01*
X170171218Y-110878847D01*
X170181446Y-110900471D01*
X170189504Y-110922993D01*
X170195316Y-110946197D01*
X170198826Y-110969858D01*
X170200000Y-110993750D01*
X170200000Y-111481250D01*
X170198826Y-111505142D01*
X170195316Y-111528803D01*
X170189504Y-111552007D01*
X170181446Y-111574529D01*
X170171218Y-111596153D01*
X170158921Y-111616670D01*
X170144671Y-111635883D01*
X170128607Y-111653607D01*
X170110883Y-111669671D01*
X170091670Y-111683921D01*
X170071153Y-111696218D01*
X170049529Y-111706446D01*
X170027007Y-111714504D01*
X170003803Y-111720316D01*
X169980142Y-111723826D01*
X169956250Y-111725000D01*
X169043750Y-111725000D01*
X169019858Y-111723826D01*
X168996197Y-111720316D01*
X168972993Y-111714504D01*
X168950471Y-111706446D01*
X168928847Y-111696218D01*
X168908330Y-111683921D01*
X168889117Y-111669671D01*
X168871393Y-111653607D01*
X168855329Y-111635883D01*
X168841079Y-111616670D01*
X168828782Y-111596153D01*
X168818554Y-111574529D01*
X168810496Y-111552007D01*
X168804684Y-111528803D01*
X168801174Y-111505142D01*
X168800000Y-111481250D01*
X168800000Y-110993750D01*
X168801174Y-110969858D01*
X168804684Y-110946197D01*
X168810496Y-110922993D01*
X168818554Y-110900471D01*
X168828782Y-110878847D01*
X168841079Y-110858330D01*
X168855329Y-110839117D01*
X168871393Y-110821393D01*
X168889117Y-110805329D01*
X168908330Y-110791079D01*
X168928847Y-110778782D01*
X168950471Y-110768554D01*
X168972993Y-110760496D01*
X168996197Y-110754684D01*
X169019858Y-110751174D01*
X169043750Y-110750000D01*
X169956250Y-110750000D01*
X169980142Y-110751174D01*
X169980142Y-110751174D01*
G37*
D18*
X169500000Y-111237500D03*
D17*
G36*
X169980142Y-104976174D02*
G01*
X170003803Y-104979684D01*
X170027007Y-104985496D01*
X170049529Y-104993554D01*
X170071153Y-105003782D01*
X170091670Y-105016079D01*
X170110883Y-105030329D01*
X170128607Y-105046393D01*
X170144671Y-105064117D01*
X170158921Y-105083330D01*
X170171218Y-105103847D01*
X170181446Y-105125471D01*
X170189504Y-105147993D01*
X170195316Y-105171197D01*
X170198826Y-105194858D01*
X170200000Y-105218750D01*
X170200000Y-105706250D01*
X170198826Y-105730142D01*
X170195316Y-105753803D01*
X170189504Y-105777007D01*
X170181446Y-105799529D01*
X170171218Y-105821153D01*
X170158921Y-105841670D01*
X170144671Y-105860883D01*
X170128607Y-105878607D01*
X170110883Y-105894671D01*
X170091670Y-105908921D01*
X170071153Y-105921218D01*
X170049529Y-105931446D01*
X170027007Y-105939504D01*
X170003803Y-105945316D01*
X169980142Y-105948826D01*
X169956250Y-105950000D01*
X169043750Y-105950000D01*
X169019858Y-105948826D01*
X168996197Y-105945316D01*
X168972993Y-105939504D01*
X168950471Y-105931446D01*
X168928847Y-105921218D01*
X168908330Y-105908921D01*
X168889117Y-105894671D01*
X168871393Y-105878607D01*
X168855329Y-105860883D01*
X168841079Y-105841670D01*
X168828782Y-105821153D01*
X168818554Y-105799529D01*
X168810496Y-105777007D01*
X168804684Y-105753803D01*
X168801174Y-105730142D01*
X168800000Y-105706250D01*
X168800000Y-105218750D01*
X168801174Y-105194858D01*
X168804684Y-105171197D01*
X168810496Y-105147993D01*
X168818554Y-105125471D01*
X168828782Y-105103847D01*
X168841079Y-105083330D01*
X168855329Y-105064117D01*
X168871393Y-105046393D01*
X168889117Y-105030329D01*
X168908330Y-105016079D01*
X168928847Y-105003782D01*
X168950471Y-104993554D01*
X168972993Y-104985496D01*
X168996197Y-104979684D01*
X169019858Y-104976174D01*
X169043750Y-104975000D01*
X169956250Y-104975000D01*
X169980142Y-104976174D01*
X169980142Y-104976174D01*
G37*
D18*
X169500000Y-105462500D03*
D17*
G36*
X169980142Y-106851174D02*
G01*
X170003803Y-106854684D01*
X170027007Y-106860496D01*
X170049529Y-106868554D01*
X170071153Y-106878782D01*
X170091670Y-106891079D01*
X170110883Y-106905329D01*
X170128607Y-106921393D01*
X170144671Y-106939117D01*
X170158921Y-106958330D01*
X170171218Y-106978847D01*
X170181446Y-107000471D01*
X170189504Y-107022993D01*
X170195316Y-107046197D01*
X170198826Y-107069858D01*
X170200000Y-107093750D01*
X170200000Y-107581250D01*
X170198826Y-107605142D01*
X170195316Y-107628803D01*
X170189504Y-107652007D01*
X170181446Y-107674529D01*
X170171218Y-107696153D01*
X170158921Y-107716670D01*
X170144671Y-107735883D01*
X170128607Y-107753607D01*
X170110883Y-107769671D01*
X170091670Y-107783921D01*
X170071153Y-107796218D01*
X170049529Y-107806446D01*
X170027007Y-107814504D01*
X170003803Y-107820316D01*
X169980142Y-107823826D01*
X169956250Y-107825000D01*
X169043750Y-107825000D01*
X169019858Y-107823826D01*
X168996197Y-107820316D01*
X168972993Y-107814504D01*
X168950471Y-107806446D01*
X168928847Y-107796218D01*
X168908330Y-107783921D01*
X168889117Y-107769671D01*
X168871393Y-107753607D01*
X168855329Y-107735883D01*
X168841079Y-107716670D01*
X168828782Y-107696153D01*
X168818554Y-107674529D01*
X168810496Y-107652007D01*
X168804684Y-107628803D01*
X168801174Y-107605142D01*
X168800000Y-107581250D01*
X168800000Y-107093750D01*
X168801174Y-107069858D01*
X168804684Y-107046197D01*
X168810496Y-107022993D01*
X168818554Y-107000471D01*
X168828782Y-106978847D01*
X168841079Y-106958330D01*
X168855329Y-106939117D01*
X168871393Y-106921393D01*
X168889117Y-106905329D01*
X168908330Y-106891079D01*
X168928847Y-106878782D01*
X168950471Y-106868554D01*
X168972993Y-106860496D01*
X168996197Y-106854684D01*
X169019858Y-106851174D01*
X169043750Y-106850000D01*
X169956250Y-106850000D01*
X169980142Y-106851174D01*
X169980142Y-106851174D01*
G37*
D18*
X169500000Y-107337500D03*
D17*
G36*
X165480142Y-101326174D02*
G01*
X165503803Y-101329684D01*
X165527007Y-101335496D01*
X165549529Y-101343554D01*
X165571153Y-101353782D01*
X165591670Y-101366079D01*
X165610883Y-101380329D01*
X165628607Y-101396393D01*
X165644671Y-101414117D01*
X165658921Y-101433330D01*
X165671218Y-101453847D01*
X165681446Y-101475471D01*
X165689504Y-101497993D01*
X165695316Y-101521197D01*
X165698826Y-101544858D01*
X165700000Y-101568750D01*
X165700000Y-102056250D01*
X165698826Y-102080142D01*
X165695316Y-102103803D01*
X165689504Y-102127007D01*
X165681446Y-102149529D01*
X165671218Y-102171153D01*
X165658921Y-102191670D01*
X165644671Y-102210883D01*
X165628607Y-102228607D01*
X165610883Y-102244671D01*
X165591670Y-102258921D01*
X165571153Y-102271218D01*
X165549529Y-102281446D01*
X165527007Y-102289504D01*
X165503803Y-102295316D01*
X165480142Y-102298826D01*
X165456250Y-102300000D01*
X164543750Y-102300000D01*
X164519858Y-102298826D01*
X164496197Y-102295316D01*
X164472993Y-102289504D01*
X164450471Y-102281446D01*
X164428847Y-102271218D01*
X164408330Y-102258921D01*
X164389117Y-102244671D01*
X164371393Y-102228607D01*
X164355329Y-102210883D01*
X164341079Y-102191670D01*
X164328782Y-102171153D01*
X164318554Y-102149529D01*
X164310496Y-102127007D01*
X164304684Y-102103803D01*
X164301174Y-102080142D01*
X164300000Y-102056250D01*
X164300000Y-101568750D01*
X164301174Y-101544858D01*
X164304684Y-101521197D01*
X164310496Y-101497993D01*
X164318554Y-101475471D01*
X164328782Y-101453847D01*
X164341079Y-101433330D01*
X164355329Y-101414117D01*
X164371393Y-101396393D01*
X164389117Y-101380329D01*
X164408330Y-101366079D01*
X164428847Y-101353782D01*
X164450471Y-101343554D01*
X164472993Y-101335496D01*
X164496197Y-101329684D01*
X164519858Y-101326174D01*
X164543750Y-101325000D01*
X165456250Y-101325000D01*
X165480142Y-101326174D01*
X165480142Y-101326174D01*
G37*
D18*
X165000000Y-101812500D03*
D17*
G36*
X165480142Y-103201174D02*
G01*
X165503803Y-103204684D01*
X165527007Y-103210496D01*
X165549529Y-103218554D01*
X165571153Y-103228782D01*
X165591670Y-103241079D01*
X165610883Y-103255329D01*
X165628607Y-103271393D01*
X165644671Y-103289117D01*
X165658921Y-103308330D01*
X165671218Y-103328847D01*
X165681446Y-103350471D01*
X165689504Y-103372993D01*
X165695316Y-103396197D01*
X165698826Y-103419858D01*
X165700000Y-103443750D01*
X165700000Y-103931250D01*
X165698826Y-103955142D01*
X165695316Y-103978803D01*
X165689504Y-104002007D01*
X165681446Y-104024529D01*
X165671218Y-104046153D01*
X165658921Y-104066670D01*
X165644671Y-104085883D01*
X165628607Y-104103607D01*
X165610883Y-104119671D01*
X165591670Y-104133921D01*
X165571153Y-104146218D01*
X165549529Y-104156446D01*
X165527007Y-104164504D01*
X165503803Y-104170316D01*
X165480142Y-104173826D01*
X165456250Y-104175000D01*
X164543750Y-104175000D01*
X164519858Y-104173826D01*
X164496197Y-104170316D01*
X164472993Y-104164504D01*
X164450471Y-104156446D01*
X164428847Y-104146218D01*
X164408330Y-104133921D01*
X164389117Y-104119671D01*
X164371393Y-104103607D01*
X164355329Y-104085883D01*
X164341079Y-104066670D01*
X164328782Y-104046153D01*
X164318554Y-104024529D01*
X164310496Y-104002007D01*
X164304684Y-103978803D01*
X164301174Y-103955142D01*
X164300000Y-103931250D01*
X164300000Y-103443750D01*
X164301174Y-103419858D01*
X164304684Y-103396197D01*
X164310496Y-103372993D01*
X164318554Y-103350471D01*
X164328782Y-103328847D01*
X164341079Y-103308330D01*
X164355329Y-103289117D01*
X164371393Y-103271393D01*
X164389117Y-103255329D01*
X164408330Y-103241079D01*
X164428847Y-103228782D01*
X164450471Y-103218554D01*
X164472993Y-103210496D01*
X164496197Y-103204684D01*
X164519858Y-103201174D01*
X164543750Y-103200000D01*
X165456250Y-103200000D01*
X165480142Y-103201174D01*
X165480142Y-103201174D01*
G37*
D18*
X165000000Y-103687500D03*
D17*
G36*
X167730142Y-101326174D02*
G01*
X167753803Y-101329684D01*
X167777007Y-101335496D01*
X167799529Y-101343554D01*
X167821153Y-101353782D01*
X167841670Y-101366079D01*
X167860883Y-101380329D01*
X167878607Y-101396393D01*
X167894671Y-101414117D01*
X167908921Y-101433330D01*
X167921218Y-101453847D01*
X167931446Y-101475471D01*
X167939504Y-101497993D01*
X167945316Y-101521197D01*
X167948826Y-101544858D01*
X167950000Y-101568750D01*
X167950000Y-102056250D01*
X167948826Y-102080142D01*
X167945316Y-102103803D01*
X167939504Y-102127007D01*
X167931446Y-102149529D01*
X167921218Y-102171153D01*
X167908921Y-102191670D01*
X167894671Y-102210883D01*
X167878607Y-102228607D01*
X167860883Y-102244671D01*
X167841670Y-102258921D01*
X167821153Y-102271218D01*
X167799529Y-102281446D01*
X167777007Y-102289504D01*
X167753803Y-102295316D01*
X167730142Y-102298826D01*
X167706250Y-102300000D01*
X166793750Y-102300000D01*
X166769858Y-102298826D01*
X166746197Y-102295316D01*
X166722993Y-102289504D01*
X166700471Y-102281446D01*
X166678847Y-102271218D01*
X166658330Y-102258921D01*
X166639117Y-102244671D01*
X166621393Y-102228607D01*
X166605329Y-102210883D01*
X166591079Y-102191670D01*
X166578782Y-102171153D01*
X166568554Y-102149529D01*
X166560496Y-102127007D01*
X166554684Y-102103803D01*
X166551174Y-102080142D01*
X166550000Y-102056250D01*
X166550000Y-101568750D01*
X166551174Y-101544858D01*
X166554684Y-101521197D01*
X166560496Y-101497993D01*
X166568554Y-101475471D01*
X166578782Y-101453847D01*
X166591079Y-101433330D01*
X166605329Y-101414117D01*
X166621393Y-101396393D01*
X166639117Y-101380329D01*
X166658330Y-101366079D01*
X166678847Y-101353782D01*
X166700471Y-101343554D01*
X166722993Y-101335496D01*
X166746197Y-101329684D01*
X166769858Y-101326174D01*
X166793750Y-101325000D01*
X167706250Y-101325000D01*
X167730142Y-101326174D01*
X167730142Y-101326174D01*
G37*
D18*
X167250000Y-101812500D03*
D17*
G36*
X167730142Y-103201174D02*
G01*
X167753803Y-103204684D01*
X167777007Y-103210496D01*
X167799529Y-103218554D01*
X167821153Y-103228782D01*
X167841670Y-103241079D01*
X167860883Y-103255329D01*
X167878607Y-103271393D01*
X167894671Y-103289117D01*
X167908921Y-103308330D01*
X167921218Y-103328847D01*
X167931446Y-103350471D01*
X167939504Y-103372993D01*
X167945316Y-103396197D01*
X167948826Y-103419858D01*
X167950000Y-103443750D01*
X167950000Y-103931250D01*
X167948826Y-103955142D01*
X167945316Y-103978803D01*
X167939504Y-104002007D01*
X167931446Y-104024529D01*
X167921218Y-104046153D01*
X167908921Y-104066670D01*
X167894671Y-104085883D01*
X167878607Y-104103607D01*
X167860883Y-104119671D01*
X167841670Y-104133921D01*
X167821153Y-104146218D01*
X167799529Y-104156446D01*
X167777007Y-104164504D01*
X167753803Y-104170316D01*
X167730142Y-104173826D01*
X167706250Y-104175000D01*
X166793750Y-104175000D01*
X166769858Y-104173826D01*
X166746197Y-104170316D01*
X166722993Y-104164504D01*
X166700471Y-104156446D01*
X166678847Y-104146218D01*
X166658330Y-104133921D01*
X166639117Y-104119671D01*
X166621393Y-104103607D01*
X166605329Y-104085883D01*
X166591079Y-104066670D01*
X166578782Y-104046153D01*
X166568554Y-104024529D01*
X166560496Y-104002007D01*
X166554684Y-103978803D01*
X166551174Y-103955142D01*
X166550000Y-103931250D01*
X166550000Y-103443750D01*
X166551174Y-103419858D01*
X166554684Y-103396197D01*
X166560496Y-103372993D01*
X166568554Y-103350471D01*
X166578782Y-103328847D01*
X166591079Y-103308330D01*
X166605329Y-103289117D01*
X166621393Y-103271393D01*
X166639117Y-103255329D01*
X166658330Y-103241079D01*
X166678847Y-103228782D01*
X166700471Y-103218554D01*
X166722993Y-103210496D01*
X166746197Y-103204684D01*
X166769858Y-103201174D01*
X166793750Y-103200000D01*
X167706250Y-103200000D01*
X167730142Y-103201174D01*
X167730142Y-103201174D01*
G37*
D18*
X167250000Y-103687500D03*
D17*
G36*
X145705142Y-99051174D02*
G01*
X145728803Y-99054684D01*
X145752007Y-99060496D01*
X145774529Y-99068554D01*
X145796153Y-99078782D01*
X145816670Y-99091079D01*
X145835883Y-99105329D01*
X145853607Y-99121393D01*
X145869671Y-99139117D01*
X145883921Y-99158330D01*
X145896218Y-99178847D01*
X145906446Y-99200471D01*
X145914504Y-99222993D01*
X145920316Y-99246197D01*
X145923826Y-99269858D01*
X145925000Y-99293750D01*
X145925000Y-100206250D01*
X145923826Y-100230142D01*
X145920316Y-100253803D01*
X145914504Y-100277007D01*
X145906446Y-100299529D01*
X145896218Y-100321153D01*
X145883921Y-100341670D01*
X145869671Y-100360883D01*
X145853607Y-100378607D01*
X145835883Y-100394671D01*
X145816670Y-100408921D01*
X145796153Y-100421218D01*
X145774529Y-100431446D01*
X145752007Y-100439504D01*
X145728803Y-100445316D01*
X145705142Y-100448826D01*
X145681250Y-100450000D01*
X145193750Y-100450000D01*
X145169858Y-100448826D01*
X145146197Y-100445316D01*
X145122993Y-100439504D01*
X145100471Y-100431446D01*
X145078847Y-100421218D01*
X145058330Y-100408921D01*
X145039117Y-100394671D01*
X145021393Y-100378607D01*
X145005329Y-100360883D01*
X144991079Y-100341670D01*
X144978782Y-100321153D01*
X144968554Y-100299529D01*
X144960496Y-100277007D01*
X144954684Y-100253803D01*
X144951174Y-100230142D01*
X144950000Y-100206250D01*
X144950000Y-99293750D01*
X144951174Y-99269858D01*
X144954684Y-99246197D01*
X144960496Y-99222993D01*
X144968554Y-99200471D01*
X144978782Y-99178847D01*
X144991079Y-99158330D01*
X145005329Y-99139117D01*
X145021393Y-99121393D01*
X145039117Y-99105329D01*
X145058330Y-99091079D01*
X145078847Y-99078782D01*
X145100471Y-99068554D01*
X145122993Y-99060496D01*
X145146197Y-99054684D01*
X145169858Y-99051174D01*
X145193750Y-99050000D01*
X145681250Y-99050000D01*
X145705142Y-99051174D01*
X145705142Y-99051174D01*
G37*
D18*
X145437500Y-99750000D03*
D17*
G36*
X143830142Y-99051174D02*
G01*
X143853803Y-99054684D01*
X143877007Y-99060496D01*
X143899529Y-99068554D01*
X143921153Y-99078782D01*
X143941670Y-99091079D01*
X143960883Y-99105329D01*
X143978607Y-99121393D01*
X143994671Y-99139117D01*
X144008921Y-99158330D01*
X144021218Y-99178847D01*
X144031446Y-99200471D01*
X144039504Y-99222993D01*
X144045316Y-99246197D01*
X144048826Y-99269858D01*
X144050000Y-99293750D01*
X144050000Y-100206250D01*
X144048826Y-100230142D01*
X144045316Y-100253803D01*
X144039504Y-100277007D01*
X144031446Y-100299529D01*
X144021218Y-100321153D01*
X144008921Y-100341670D01*
X143994671Y-100360883D01*
X143978607Y-100378607D01*
X143960883Y-100394671D01*
X143941670Y-100408921D01*
X143921153Y-100421218D01*
X143899529Y-100431446D01*
X143877007Y-100439504D01*
X143853803Y-100445316D01*
X143830142Y-100448826D01*
X143806250Y-100450000D01*
X143318750Y-100450000D01*
X143294858Y-100448826D01*
X143271197Y-100445316D01*
X143247993Y-100439504D01*
X143225471Y-100431446D01*
X143203847Y-100421218D01*
X143183330Y-100408921D01*
X143164117Y-100394671D01*
X143146393Y-100378607D01*
X143130329Y-100360883D01*
X143116079Y-100341670D01*
X143103782Y-100321153D01*
X143093554Y-100299529D01*
X143085496Y-100277007D01*
X143079684Y-100253803D01*
X143076174Y-100230142D01*
X143075000Y-100206250D01*
X143075000Y-99293750D01*
X143076174Y-99269858D01*
X143079684Y-99246197D01*
X143085496Y-99222993D01*
X143093554Y-99200471D01*
X143103782Y-99178847D01*
X143116079Y-99158330D01*
X143130329Y-99139117D01*
X143146393Y-99121393D01*
X143164117Y-99105329D01*
X143183330Y-99091079D01*
X143203847Y-99078782D01*
X143225471Y-99068554D01*
X143247993Y-99060496D01*
X143271197Y-99054684D01*
X143294858Y-99051174D01*
X143318750Y-99050000D01*
X143806250Y-99050000D01*
X143830142Y-99051174D01*
X143830142Y-99051174D01*
G37*
D18*
X143562500Y-99750000D03*
D17*
G36*
X145705142Y-96801174D02*
G01*
X145728803Y-96804684D01*
X145752007Y-96810496D01*
X145774529Y-96818554D01*
X145796153Y-96828782D01*
X145816670Y-96841079D01*
X145835883Y-96855329D01*
X145853607Y-96871393D01*
X145869671Y-96889117D01*
X145883921Y-96908330D01*
X145896218Y-96928847D01*
X145906446Y-96950471D01*
X145914504Y-96972993D01*
X145920316Y-96996197D01*
X145923826Y-97019858D01*
X145925000Y-97043750D01*
X145925000Y-97956250D01*
X145923826Y-97980142D01*
X145920316Y-98003803D01*
X145914504Y-98027007D01*
X145906446Y-98049529D01*
X145896218Y-98071153D01*
X145883921Y-98091670D01*
X145869671Y-98110883D01*
X145853607Y-98128607D01*
X145835883Y-98144671D01*
X145816670Y-98158921D01*
X145796153Y-98171218D01*
X145774529Y-98181446D01*
X145752007Y-98189504D01*
X145728803Y-98195316D01*
X145705142Y-98198826D01*
X145681250Y-98200000D01*
X145193750Y-98200000D01*
X145169858Y-98198826D01*
X145146197Y-98195316D01*
X145122993Y-98189504D01*
X145100471Y-98181446D01*
X145078847Y-98171218D01*
X145058330Y-98158921D01*
X145039117Y-98144671D01*
X145021393Y-98128607D01*
X145005329Y-98110883D01*
X144991079Y-98091670D01*
X144978782Y-98071153D01*
X144968554Y-98049529D01*
X144960496Y-98027007D01*
X144954684Y-98003803D01*
X144951174Y-97980142D01*
X144950000Y-97956250D01*
X144950000Y-97043750D01*
X144951174Y-97019858D01*
X144954684Y-96996197D01*
X144960496Y-96972993D01*
X144968554Y-96950471D01*
X144978782Y-96928847D01*
X144991079Y-96908330D01*
X145005329Y-96889117D01*
X145021393Y-96871393D01*
X145039117Y-96855329D01*
X145058330Y-96841079D01*
X145078847Y-96828782D01*
X145100471Y-96818554D01*
X145122993Y-96810496D01*
X145146197Y-96804684D01*
X145169858Y-96801174D01*
X145193750Y-96800000D01*
X145681250Y-96800000D01*
X145705142Y-96801174D01*
X145705142Y-96801174D01*
G37*
D18*
X145437500Y-97500000D03*
D17*
G36*
X143830142Y-96801174D02*
G01*
X143853803Y-96804684D01*
X143877007Y-96810496D01*
X143899529Y-96818554D01*
X143921153Y-96828782D01*
X143941670Y-96841079D01*
X143960883Y-96855329D01*
X143978607Y-96871393D01*
X143994671Y-96889117D01*
X144008921Y-96908330D01*
X144021218Y-96928847D01*
X144031446Y-96950471D01*
X144039504Y-96972993D01*
X144045316Y-96996197D01*
X144048826Y-97019858D01*
X144050000Y-97043750D01*
X144050000Y-97956250D01*
X144048826Y-97980142D01*
X144045316Y-98003803D01*
X144039504Y-98027007D01*
X144031446Y-98049529D01*
X144021218Y-98071153D01*
X144008921Y-98091670D01*
X143994671Y-98110883D01*
X143978607Y-98128607D01*
X143960883Y-98144671D01*
X143941670Y-98158921D01*
X143921153Y-98171218D01*
X143899529Y-98181446D01*
X143877007Y-98189504D01*
X143853803Y-98195316D01*
X143830142Y-98198826D01*
X143806250Y-98200000D01*
X143318750Y-98200000D01*
X143294858Y-98198826D01*
X143271197Y-98195316D01*
X143247993Y-98189504D01*
X143225471Y-98181446D01*
X143203847Y-98171218D01*
X143183330Y-98158921D01*
X143164117Y-98144671D01*
X143146393Y-98128607D01*
X143130329Y-98110883D01*
X143116079Y-98091670D01*
X143103782Y-98071153D01*
X143093554Y-98049529D01*
X143085496Y-98027007D01*
X143079684Y-98003803D01*
X143076174Y-97980142D01*
X143075000Y-97956250D01*
X143075000Y-97043750D01*
X143076174Y-97019858D01*
X143079684Y-96996197D01*
X143085496Y-96972993D01*
X143093554Y-96950471D01*
X143103782Y-96928847D01*
X143116079Y-96908330D01*
X143130329Y-96889117D01*
X143146393Y-96871393D01*
X143164117Y-96855329D01*
X143183330Y-96841079D01*
X143203847Y-96828782D01*
X143225471Y-96818554D01*
X143247993Y-96810496D01*
X143271197Y-96804684D01*
X143294858Y-96801174D01*
X143318750Y-96800000D01*
X143806250Y-96800000D01*
X143830142Y-96801174D01*
X143830142Y-96801174D01*
G37*
D18*
X143562500Y-97500000D03*
D17*
G36*
X136230142Y-108451174D02*
G01*
X136253803Y-108454684D01*
X136277007Y-108460496D01*
X136299529Y-108468554D01*
X136321153Y-108478782D01*
X136341670Y-108491079D01*
X136360883Y-108505329D01*
X136378607Y-108521393D01*
X136394671Y-108539117D01*
X136408921Y-108558330D01*
X136421218Y-108578847D01*
X136431446Y-108600471D01*
X136439504Y-108622993D01*
X136445316Y-108646197D01*
X136448826Y-108669858D01*
X136450000Y-108693750D01*
X136450000Y-109181250D01*
X136448826Y-109205142D01*
X136445316Y-109228803D01*
X136439504Y-109252007D01*
X136431446Y-109274529D01*
X136421218Y-109296153D01*
X136408921Y-109316670D01*
X136394671Y-109335883D01*
X136378607Y-109353607D01*
X136360883Y-109369671D01*
X136341670Y-109383921D01*
X136321153Y-109396218D01*
X136299529Y-109406446D01*
X136277007Y-109414504D01*
X136253803Y-109420316D01*
X136230142Y-109423826D01*
X136206250Y-109425000D01*
X135293750Y-109425000D01*
X135269858Y-109423826D01*
X135246197Y-109420316D01*
X135222993Y-109414504D01*
X135200471Y-109406446D01*
X135178847Y-109396218D01*
X135158330Y-109383921D01*
X135139117Y-109369671D01*
X135121393Y-109353607D01*
X135105329Y-109335883D01*
X135091079Y-109316670D01*
X135078782Y-109296153D01*
X135068554Y-109274529D01*
X135060496Y-109252007D01*
X135054684Y-109228803D01*
X135051174Y-109205142D01*
X135050000Y-109181250D01*
X135050000Y-108693750D01*
X135051174Y-108669858D01*
X135054684Y-108646197D01*
X135060496Y-108622993D01*
X135068554Y-108600471D01*
X135078782Y-108578847D01*
X135091079Y-108558330D01*
X135105329Y-108539117D01*
X135121393Y-108521393D01*
X135139117Y-108505329D01*
X135158330Y-108491079D01*
X135178847Y-108478782D01*
X135200471Y-108468554D01*
X135222993Y-108460496D01*
X135246197Y-108454684D01*
X135269858Y-108451174D01*
X135293750Y-108450000D01*
X136206250Y-108450000D01*
X136230142Y-108451174D01*
X136230142Y-108451174D01*
G37*
D18*
X135750000Y-108937500D03*
D17*
G36*
X136230142Y-106576174D02*
G01*
X136253803Y-106579684D01*
X136277007Y-106585496D01*
X136299529Y-106593554D01*
X136321153Y-106603782D01*
X136341670Y-106616079D01*
X136360883Y-106630329D01*
X136378607Y-106646393D01*
X136394671Y-106664117D01*
X136408921Y-106683330D01*
X136421218Y-106703847D01*
X136431446Y-106725471D01*
X136439504Y-106747993D01*
X136445316Y-106771197D01*
X136448826Y-106794858D01*
X136450000Y-106818750D01*
X136450000Y-107306250D01*
X136448826Y-107330142D01*
X136445316Y-107353803D01*
X136439504Y-107377007D01*
X136431446Y-107399529D01*
X136421218Y-107421153D01*
X136408921Y-107441670D01*
X136394671Y-107460883D01*
X136378607Y-107478607D01*
X136360883Y-107494671D01*
X136341670Y-107508921D01*
X136321153Y-107521218D01*
X136299529Y-107531446D01*
X136277007Y-107539504D01*
X136253803Y-107545316D01*
X136230142Y-107548826D01*
X136206250Y-107550000D01*
X135293750Y-107550000D01*
X135269858Y-107548826D01*
X135246197Y-107545316D01*
X135222993Y-107539504D01*
X135200471Y-107531446D01*
X135178847Y-107521218D01*
X135158330Y-107508921D01*
X135139117Y-107494671D01*
X135121393Y-107478607D01*
X135105329Y-107460883D01*
X135091079Y-107441670D01*
X135078782Y-107421153D01*
X135068554Y-107399529D01*
X135060496Y-107377007D01*
X135054684Y-107353803D01*
X135051174Y-107330142D01*
X135050000Y-107306250D01*
X135050000Y-106818750D01*
X135051174Y-106794858D01*
X135054684Y-106771197D01*
X135060496Y-106747993D01*
X135068554Y-106725471D01*
X135078782Y-106703847D01*
X135091079Y-106683330D01*
X135105329Y-106664117D01*
X135121393Y-106646393D01*
X135139117Y-106630329D01*
X135158330Y-106616079D01*
X135178847Y-106603782D01*
X135200471Y-106593554D01*
X135222993Y-106585496D01*
X135246197Y-106579684D01*
X135269858Y-106576174D01*
X135293750Y-106575000D01*
X136206250Y-106575000D01*
X136230142Y-106576174D01*
X136230142Y-106576174D01*
G37*
D18*
X135750000Y-107062500D03*
D17*
G36*
X132180142Y-104201174D02*
G01*
X132203803Y-104204684D01*
X132227007Y-104210496D01*
X132249529Y-104218554D01*
X132271153Y-104228782D01*
X132291670Y-104241079D01*
X132310883Y-104255329D01*
X132328607Y-104271393D01*
X132344671Y-104289117D01*
X132358921Y-104308330D01*
X132371218Y-104328847D01*
X132381446Y-104350471D01*
X132389504Y-104372993D01*
X132395316Y-104396197D01*
X132398826Y-104419858D01*
X132400000Y-104443750D01*
X132400000Y-104931250D01*
X132398826Y-104955142D01*
X132395316Y-104978803D01*
X132389504Y-105002007D01*
X132381446Y-105024529D01*
X132371218Y-105046153D01*
X132358921Y-105066670D01*
X132344671Y-105085883D01*
X132328607Y-105103607D01*
X132310883Y-105119671D01*
X132291670Y-105133921D01*
X132271153Y-105146218D01*
X132249529Y-105156446D01*
X132227007Y-105164504D01*
X132203803Y-105170316D01*
X132180142Y-105173826D01*
X132156250Y-105175000D01*
X131243750Y-105175000D01*
X131219858Y-105173826D01*
X131196197Y-105170316D01*
X131172993Y-105164504D01*
X131150471Y-105156446D01*
X131128847Y-105146218D01*
X131108330Y-105133921D01*
X131089117Y-105119671D01*
X131071393Y-105103607D01*
X131055329Y-105085883D01*
X131041079Y-105066670D01*
X131028782Y-105046153D01*
X131018554Y-105024529D01*
X131010496Y-105002007D01*
X131004684Y-104978803D01*
X131001174Y-104955142D01*
X131000000Y-104931250D01*
X131000000Y-104443750D01*
X131001174Y-104419858D01*
X131004684Y-104396197D01*
X131010496Y-104372993D01*
X131018554Y-104350471D01*
X131028782Y-104328847D01*
X131041079Y-104308330D01*
X131055329Y-104289117D01*
X131071393Y-104271393D01*
X131089117Y-104255329D01*
X131108330Y-104241079D01*
X131128847Y-104228782D01*
X131150471Y-104218554D01*
X131172993Y-104210496D01*
X131196197Y-104204684D01*
X131219858Y-104201174D01*
X131243750Y-104200000D01*
X132156250Y-104200000D01*
X132180142Y-104201174D01*
X132180142Y-104201174D01*
G37*
D18*
X131700000Y-104687500D03*
D17*
G36*
X132180142Y-102326174D02*
G01*
X132203803Y-102329684D01*
X132227007Y-102335496D01*
X132249529Y-102343554D01*
X132271153Y-102353782D01*
X132291670Y-102366079D01*
X132310883Y-102380329D01*
X132328607Y-102396393D01*
X132344671Y-102414117D01*
X132358921Y-102433330D01*
X132371218Y-102453847D01*
X132381446Y-102475471D01*
X132389504Y-102497993D01*
X132395316Y-102521197D01*
X132398826Y-102544858D01*
X132400000Y-102568750D01*
X132400000Y-103056250D01*
X132398826Y-103080142D01*
X132395316Y-103103803D01*
X132389504Y-103127007D01*
X132381446Y-103149529D01*
X132371218Y-103171153D01*
X132358921Y-103191670D01*
X132344671Y-103210883D01*
X132328607Y-103228607D01*
X132310883Y-103244671D01*
X132291670Y-103258921D01*
X132271153Y-103271218D01*
X132249529Y-103281446D01*
X132227007Y-103289504D01*
X132203803Y-103295316D01*
X132180142Y-103298826D01*
X132156250Y-103300000D01*
X131243750Y-103300000D01*
X131219858Y-103298826D01*
X131196197Y-103295316D01*
X131172993Y-103289504D01*
X131150471Y-103281446D01*
X131128847Y-103271218D01*
X131108330Y-103258921D01*
X131089117Y-103244671D01*
X131071393Y-103228607D01*
X131055329Y-103210883D01*
X131041079Y-103191670D01*
X131028782Y-103171153D01*
X131018554Y-103149529D01*
X131010496Y-103127007D01*
X131004684Y-103103803D01*
X131001174Y-103080142D01*
X131000000Y-103056250D01*
X131000000Y-102568750D01*
X131001174Y-102544858D01*
X131004684Y-102521197D01*
X131010496Y-102497993D01*
X131018554Y-102475471D01*
X131028782Y-102453847D01*
X131041079Y-102433330D01*
X131055329Y-102414117D01*
X131071393Y-102396393D01*
X131089117Y-102380329D01*
X131108330Y-102366079D01*
X131128847Y-102353782D01*
X131150471Y-102343554D01*
X131172993Y-102335496D01*
X131196197Y-102329684D01*
X131219858Y-102326174D01*
X131243750Y-102325000D01*
X132156250Y-102325000D01*
X132180142Y-102326174D01*
X132180142Y-102326174D01*
G37*
D18*
X131700000Y-102812500D03*
D17*
G36*
X169980142Y-101326174D02*
G01*
X170003803Y-101329684D01*
X170027007Y-101335496D01*
X170049529Y-101343554D01*
X170071153Y-101353782D01*
X170091670Y-101366079D01*
X170110883Y-101380329D01*
X170128607Y-101396393D01*
X170144671Y-101414117D01*
X170158921Y-101433330D01*
X170171218Y-101453847D01*
X170181446Y-101475471D01*
X170189504Y-101497993D01*
X170195316Y-101521197D01*
X170198826Y-101544858D01*
X170200000Y-101568750D01*
X170200000Y-102056250D01*
X170198826Y-102080142D01*
X170195316Y-102103803D01*
X170189504Y-102127007D01*
X170181446Y-102149529D01*
X170171218Y-102171153D01*
X170158921Y-102191670D01*
X170144671Y-102210883D01*
X170128607Y-102228607D01*
X170110883Y-102244671D01*
X170091670Y-102258921D01*
X170071153Y-102271218D01*
X170049529Y-102281446D01*
X170027007Y-102289504D01*
X170003803Y-102295316D01*
X169980142Y-102298826D01*
X169956250Y-102300000D01*
X169043750Y-102300000D01*
X169019858Y-102298826D01*
X168996197Y-102295316D01*
X168972993Y-102289504D01*
X168950471Y-102281446D01*
X168928847Y-102271218D01*
X168908330Y-102258921D01*
X168889117Y-102244671D01*
X168871393Y-102228607D01*
X168855329Y-102210883D01*
X168841079Y-102191670D01*
X168828782Y-102171153D01*
X168818554Y-102149529D01*
X168810496Y-102127007D01*
X168804684Y-102103803D01*
X168801174Y-102080142D01*
X168800000Y-102056250D01*
X168800000Y-101568750D01*
X168801174Y-101544858D01*
X168804684Y-101521197D01*
X168810496Y-101497993D01*
X168818554Y-101475471D01*
X168828782Y-101453847D01*
X168841079Y-101433330D01*
X168855329Y-101414117D01*
X168871393Y-101396393D01*
X168889117Y-101380329D01*
X168908330Y-101366079D01*
X168928847Y-101353782D01*
X168950471Y-101343554D01*
X168972993Y-101335496D01*
X168996197Y-101329684D01*
X169019858Y-101326174D01*
X169043750Y-101325000D01*
X169956250Y-101325000D01*
X169980142Y-101326174D01*
X169980142Y-101326174D01*
G37*
D18*
X169500000Y-101812500D03*
D17*
G36*
X169980142Y-103201174D02*
G01*
X170003803Y-103204684D01*
X170027007Y-103210496D01*
X170049529Y-103218554D01*
X170071153Y-103228782D01*
X170091670Y-103241079D01*
X170110883Y-103255329D01*
X170128607Y-103271393D01*
X170144671Y-103289117D01*
X170158921Y-103308330D01*
X170171218Y-103328847D01*
X170181446Y-103350471D01*
X170189504Y-103372993D01*
X170195316Y-103396197D01*
X170198826Y-103419858D01*
X170200000Y-103443750D01*
X170200000Y-103931250D01*
X170198826Y-103955142D01*
X170195316Y-103978803D01*
X170189504Y-104002007D01*
X170181446Y-104024529D01*
X170171218Y-104046153D01*
X170158921Y-104066670D01*
X170144671Y-104085883D01*
X170128607Y-104103607D01*
X170110883Y-104119671D01*
X170091670Y-104133921D01*
X170071153Y-104146218D01*
X170049529Y-104156446D01*
X170027007Y-104164504D01*
X170003803Y-104170316D01*
X169980142Y-104173826D01*
X169956250Y-104175000D01*
X169043750Y-104175000D01*
X169019858Y-104173826D01*
X168996197Y-104170316D01*
X168972993Y-104164504D01*
X168950471Y-104156446D01*
X168928847Y-104146218D01*
X168908330Y-104133921D01*
X168889117Y-104119671D01*
X168871393Y-104103607D01*
X168855329Y-104085883D01*
X168841079Y-104066670D01*
X168828782Y-104046153D01*
X168818554Y-104024529D01*
X168810496Y-104002007D01*
X168804684Y-103978803D01*
X168801174Y-103955142D01*
X168800000Y-103931250D01*
X168800000Y-103443750D01*
X168801174Y-103419858D01*
X168804684Y-103396197D01*
X168810496Y-103372993D01*
X168818554Y-103350471D01*
X168828782Y-103328847D01*
X168841079Y-103308330D01*
X168855329Y-103289117D01*
X168871393Y-103271393D01*
X168889117Y-103255329D01*
X168908330Y-103241079D01*
X168928847Y-103228782D01*
X168950471Y-103218554D01*
X168972993Y-103210496D01*
X168996197Y-103204684D01*
X169019858Y-103201174D01*
X169043750Y-103200000D01*
X169956250Y-103200000D01*
X169980142Y-103201174D01*
X169980142Y-103201174D01*
G37*
D18*
X169500000Y-103687500D03*
D10*
X131700000Y-133050000D03*
X169300000Y-133050000D03*
D19*
X148850000Y-127200000D03*
X152150000Y-127200000D03*
D17*
G36*
X134877691Y-104101053D02*
G01*
X134898926Y-104104203D01*
X134919750Y-104109419D01*
X134939962Y-104116651D01*
X134959368Y-104125830D01*
X134977781Y-104136866D01*
X134995024Y-104149654D01*
X135010930Y-104164070D01*
X135025346Y-104179976D01*
X135038134Y-104197219D01*
X135049170Y-104215632D01*
X135058349Y-104235038D01*
X135065581Y-104255250D01*
X135070797Y-104276074D01*
X135073947Y-104297309D01*
X135075000Y-104318750D01*
X135075000Y-104756250D01*
X135073947Y-104777691D01*
X135070797Y-104798926D01*
X135065581Y-104819750D01*
X135058349Y-104839962D01*
X135049170Y-104859368D01*
X135038134Y-104877781D01*
X135025346Y-104895024D01*
X135010930Y-104910930D01*
X134995024Y-104925346D01*
X134977781Y-104938134D01*
X134959368Y-104949170D01*
X134939962Y-104958349D01*
X134919750Y-104965581D01*
X134898926Y-104970797D01*
X134877691Y-104973947D01*
X134856250Y-104975000D01*
X134343750Y-104975000D01*
X134322309Y-104973947D01*
X134301074Y-104970797D01*
X134280250Y-104965581D01*
X134260038Y-104958349D01*
X134240632Y-104949170D01*
X134222219Y-104938134D01*
X134204976Y-104925346D01*
X134189070Y-104910930D01*
X134174654Y-104895024D01*
X134161866Y-104877781D01*
X134150830Y-104859368D01*
X134141651Y-104839962D01*
X134134419Y-104819750D01*
X134129203Y-104798926D01*
X134126053Y-104777691D01*
X134125000Y-104756250D01*
X134125000Y-104318750D01*
X134126053Y-104297309D01*
X134129203Y-104276074D01*
X134134419Y-104255250D01*
X134141651Y-104235038D01*
X134150830Y-104215632D01*
X134161866Y-104197219D01*
X134174654Y-104179976D01*
X134189070Y-104164070D01*
X134204976Y-104149654D01*
X134222219Y-104136866D01*
X134240632Y-104125830D01*
X134260038Y-104116651D01*
X134280250Y-104109419D01*
X134301074Y-104104203D01*
X134322309Y-104101053D01*
X134343750Y-104100000D01*
X134856250Y-104100000D01*
X134877691Y-104101053D01*
X134877691Y-104101053D01*
G37*
D20*
X134600000Y-104537500D03*
D17*
G36*
X134877691Y-102526053D02*
G01*
X134898926Y-102529203D01*
X134919750Y-102534419D01*
X134939962Y-102541651D01*
X134959368Y-102550830D01*
X134977781Y-102561866D01*
X134995024Y-102574654D01*
X135010930Y-102589070D01*
X135025346Y-102604976D01*
X135038134Y-102622219D01*
X135049170Y-102640632D01*
X135058349Y-102660038D01*
X135065581Y-102680250D01*
X135070797Y-102701074D01*
X135073947Y-102722309D01*
X135075000Y-102743750D01*
X135075000Y-103181250D01*
X135073947Y-103202691D01*
X135070797Y-103223926D01*
X135065581Y-103244750D01*
X135058349Y-103264962D01*
X135049170Y-103284368D01*
X135038134Y-103302781D01*
X135025346Y-103320024D01*
X135010930Y-103335930D01*
X134995024Y-103350346D01*
X134977781Y-103363134D01*
X134959368Y-103374170D01*
X134939962Y-103383349D01*
X134919750Y-103390581D01*
X134898926Y-103395797D01*
X134877691Y-103398947D01*
X134856250Y-103400000D01*
X134343750Y-103400000D01*
X134322309Y-103398947D01*
X134301074Y-103395797D01*
X134280250Y-103390581D01*
X134260038Y-103383349D01*
X134240632Y-103374170D01*
X134222219Y-103363134D01*
X134204976Y-103350346D01*
X134189070Y-103335930D01*
X134174654Y-103320024D01*
X134161866Y-103302781D01*
X134150830Y-103284368D01*
X134141651Y-103264962D01*
X134134419Y-103244750D01*
X134129203Y-103223926D01*
X134126053Y-103202691D01*
X134125000Y-103181250D01*
X134125000Y-102743750D01*
X134126053Y-102722309D01*
X134129203Y-102701074D01*
X134134419Y-102680250D01*
X134141651Y-102660038D01*
X134150830Y-102640632D01*
X134161866Y-102622219D01*
X134174654Y-102604976D01*
X134189070Y-102589070D01*
X134204976Y-102574654D01*
X134222219Y-102561866D01*
X134240632Y-102550830D01*
X134260038Y-102541651D01*
X134280250Y-102534419D01*
X134301074Y-102529203D01*
X134322309Y-102526053D01*
X134343750Y-102525000D01*
X134856250Y-102525000D01*
X134877691Y-102526053D01*
X134877691Y-102526053D01*
G37*
D20*
X134600000Y-102962500D03*
D10*
X131700000Y-126050000D03*
X169300000Y-126050000D03*
M02*
