M48
; DRILL file {KiCad (5.1.4)-1} date 10/10/2019 18:24:01
; FORMAT={-:-/ absolute / inch / decimal}
; #@! TF.CreationDate,2019-10-10T18:24:01+02:00
; #@! TF.GenerationSoftware,Kicad,Pcbnew,(5.1.4)-1
; #@! TF.FileFunction,Plated,1,2,PTH
FMAT,2
INCH
T1C0.0157
T2C0.0197
%
G90
G05
T1
X5.185Y-4.122
X5.2638Y-4.2087
X5.5787Y-3.9626
X6.2598Y-3.8425
X6.3602Y-3.8425
T2
X5.185Y-3.8563
X5.185Y-4.0472
X5.185Y-4.9626
X5.185Y-5.2382
X5.189Y-4.2087
X5.2087Y-4.4606
X5.236Y-4.3438
X5.3228Y-3.8563
X5.3268Y-4.4606
X5.4114Y-4.4606
X5.7264Y-3.8386
X5.9252Y-4.5472
X6.5276Y-3.8563
X6.6654Y-3.8563
X6.6654Y-4.9626
X6.6654Y-5.2382
X6.6732Y-4.1496
X6.6732Y-4.2283
T0
M30
