G04 #@! TF.GenerationSoftware,KiCad,Pcbnew,(5.1.4)-1*
G04 #@! TF.CreationDate,2019-12-03T21:31:11+01:00*
G04 #@! TF.ProjectId,Top,546f702e-6b69-4636-9164-5f7063625858,rev?*
G04 #@! TF.SameCoordinates,Original*
G04 #@! TF.FileFunction,Paste,Bot*
G04 #@! TF.FilePolarity,Positive*
%FSLAX46Y46*%
G04 Gerber Fmt 4.6, Leading zero omitted, Abs format (unit mm)*
G04 Created by KiCad (PCBNEW (5.1.4)-1) date 2019-12-03 21:31:11*
%MOMM*%
%LPD*%
G04 APERTURE LIST*
%ADD10C,0.100000*%
%ADD11C,0.975000*%
%ADD12R,2.500000X5.000000*%
%ADD13R,2.000000X4.000000*%
%ADD14R,3.000000X0.320000*%
%ADD15R,1.000000X4.000000*%
%ADD16R,0.650000X1.060000*%
%ADD17R,0.900000X1.200000*%
%ADD18R,0.500000X2.500000*%
G04 APERTURE END LIST*
D10*
G36*
X132155142Y-102326174D02*
G01*
X132178803Y-102329684D01*
X132202007Y-102335496D01*
X132224529Y-102343554D01*
X132246153Y-102353782D01*
X132266670Y-102366079D01*
X132285883Y-102380329D01*
X132303607Y-102396393D01*
X132319671Y-102414117D01*
X132333921Y-102433330D01*
X132346218Y-102453847D01*
X132356446Y-102475471D01*
X132364504Y-102497993D01*
X132370316Y-102521197D01*
X132373826Y-102544858D01*
X132375000Y-102568750D01*
X132375000Y-103056250D01*
X132373826Y-103080142D01*
X132370316Y-103103803D01*
X132364504Y-103127007D01*
X132356446Y-103149529D01*
X132346218Y-103171153D01*
X132333921Y-103191670D01*
X132319671Y-103210883D01*
X132303607Y-103228607D01*
X132285883Y-103244671D01*
X132266670Y-103258921D01*
X132246153Y-103271218D01*
X132224529Y-103281446D01*
X132202007Y-103289504D01*
X132178803Y-103295316D01*
X132155142Y-103298826D01*
X132131250Y-103300000D01*
X131218750Y-103300000D01*
X131194858Y-103298826D01*
X131171197Y-103295316D01*
X131147993Y-103289504D01*
X131125471Y-103281446D01*
X131103847Y-103271218D01*
X131083330Y-103258921D01*
X131064117Y-103244671D01*
X131046393Y-103228607D01*
X131030329Y-103210883D01*
X131016079Y-103191670D01*
X131003782Y-103171153D01*
X130993554Y-103149529D01*
X130985496Y-103127007D01*
X130979684Y-103103803D01*
X130976174Y-103080142D01*
X130975000Y-103056250D01*
X130975000Y-102568750D01*
X130976174Y-102544858D01*
X130979684Y-102521197D01*
X130985496Y-102497993D01*
X130993554Y-102475471D01*
X131003782Y-102453847D01*
X131016079Y-102433330D01*
X131030329Y-102414117D01*
X131046393Y-102396393D01*
X131064117Y-102380329D01*
X131083330Y-102366079D01*
X131103847Y-102353782D01*
X131125471Y-102343554D01*
X131147993Y-102335496D01*
X131171197Y-102329684D01*
X131194858Y-102326174D01*
X131218750Y-102325000D01*
X132131250Y-102325000D01*
X132155142Y-102326174D01*
X132155142Y-102326174D01*
G37*
D11*
X131675000Y-102812500D03*
D10*
G36*
X132155142Y-104201174D02*
G01*
X132178803Y-104204684D01*
X132202007Y-104210496D01*
X132224529Y-104218554D01*
X132246153Y-104228782D01*
X132266670Y-104241079D01*
X132285883Y-104255329D01*
X132303607Y-104271393D01*
X132319671Y-104289117D01*
X132333921Y-104308330D01*
X132346218Y-104328847D01*
X132356446Y-104350471D01*
X132364504Y-104372993D01*
X132370316Y-104396197D01*
X132373826Y-104419858D01*
X132375000Y-104443750D01*
X132375000Y-104931250D01*
X132373826Y-104955142D01*
X132370316Y-104978803D01*
X132364504Y-105002007D01*
X132356446Y-105024529D01*
X132346218Y-105046153D01*
X132333921Y-105066670D01*
X132319671Y-105085883D01*
X132303607Y-105103607D01*
X132285883Y-105119671D01*
X132266670Y-105133921D01*
X132246153Y-105146218D01*
X132224529Y-105156446D01*
X132202007Y-105164504D01*
X132178803Y-105170316D01*
X132155142Y-105173826D01*
X132131250Y-105175000D01*
X131218750Y-105175000D01*
X131194858Y-105173826D01*
X131171197Y-105170316D01*
X131147993Y-105164504D01*
X131125471Y-105156446D01*
X131103847Y-105146218D01*
X131083330Y-105133921D01*
X131064117Y-105119671D01*
X131046393Y-105103607D01*
X131030329Y-105085883D01*
X131016079Y-105066670D01*
X131003782Y-105046153D01*
X130993554Y-105024529D01*
X130985496Y-105002007D01*
X130979684Y-104978803D01*
X130976174Y-104955142D01*
X130975000Y-104931250D01*
X130975000Y-104443750D01*
X130976174Y-104419858D01*
X130979684Y-104396197D01*
X130985496Y-104372993D01*
X130993554Y-104350471D01*
X131003782Y-104328847D01*
X131016079Y-104308330D01*
X131030329Y-104289117D01*
X131046393Y-104271393D01*
X131064117Y-104255329D01*
X131083330Y-104241079D01*
X131103847Y-104228782D01*
X131125471Y-104218554D01*
X131147993Y-104210496D01*
X131171197Y-104204684D01*
X131194858Y-104201174D01*
X131218750Y-104200000D01*
X132131250Y-104200000D01*
X132155142Y-104201174D01*
X132155142Y-104201174D01*
G37*
D11*
X131675000Y-104687500D03*
D12*
X165800000Y-97950000D03*
D13*
X135275000Y-115350000D03*
X132275000Y-115350000D03*
D14*
X165150000Y-105180000D03*
X165150000Y-105800000D03*
X165150000Y-106420000D03*
X165150000Y-107040000D03*
X165150000Y-107660000D03*
X165150000Y-108280000D03*
X165150000Y-108900000D03*
X165150000Y-109520000D03*
X165150000Y-110140000D03*
X165150000Y-110760000D03*
X165150000Y-111380000D03*
X165150000Y-112000000D03*
X165150000Y-112620000D03*
X165150000Y-113240000D03*
D15*
X157720000Y-97450000D03*
X160260000Y-97450000D03*
X162800000Y-97450000D03*
D12*
X169300000Y-97950000D03*
D16*
X135875000Y-109100000D03*
X134925000Y-109100000D03*
X133975000Y-109100000D03*
X133975000Y-106900000D03*
X135875000Y-106900000D03*
D12*
X131700000Y-97950000D03*
X135200000Y-97950000D03*
D10*
G36*
X134967642Y-118551174D02*
G01*
X134991303Y-118554684D01*
X135014507Y-118560496D01*
X135037029Y-118568554D01*
X135058653Y-118578782D01*
X135079170Y-118591079D01*
X135098383Y-118605329D01*
X135116107Y-118621393D01*
X135132171Y-118639117D01*
X135146421Y-118658330D01*
X135158718Y-118678847D01*
X135168946Y-118700471D01*
X135177004Y-118722993D01*
X135182816Y-118746197D01*
X135186326Y-118769858D01*
X135187500Y-118793750D01*
X135187500Y-119706250D01*
X135186326Y-119730142D01*
X135182816Y-119753803D01*
X135177004Y-119777007D01*
X135168946Y-119799529D01*
X135158718Y-119821153D01*
X135146421Y-119841670D01*
X135132171Y-119860883D01*
X135116107Y-119878607D01*
X135098383Y-119894671D01*
X135079170Y-119908921D01*
X135058653Y-119921218D01*
X135037029Y-119931446D01*
X135014507Y-119939504D01*
X134991303Y-119945316D01*
X134967642Y-119948826D01*
X134943750Y-119950000D01*
X134456250Y-119950000D01*
X134432358Y-119948826D01*
X134408697Y-119945316D01*
X134385493Y-119939504D01*
X134362971Y-119931446D01*
X134341347Y-119921218D01*
X134320830Y-119908921D01*
X134301617Y-119894671D01*
X134283893Y-119878607D01*
X134267829Y-119860883D01*
X134253579Y-119841670D01*
X134241282Y-119821153D01*
X134231054Y-119799529D01*
X134222996Y-119777007D01*
X134217184Y-119753803D01*
X134213674Y-119730142D01*
X134212500Y-119706250D01*
X134212500Y-118793750D01*
X134213674Y-118769858D01*
X134217184Y-118746197D01*
X134222996Y-118722993D01*
X134231054Y-118700471D01*
X134241282Y-118678847D01*
X134253579Y-118658330D01*
X134267829Y-118639117D01*
X134283893Y-118621393D01*
X134301617Y-118605329D01*
X134320830Y-118591079D01*
X134341347Y-118578782D01*
X134362971Y-118568554D01*
X134385493Y-118560496D01*
X134408697Y-118554684D01*
X134432358Y-118551174D01*
X134456250Y-118550000D01*
X134943750Y-118550000D01*
X134967642Y-118551174D01*
X134967642Y-118551174D01*
G37*
D11*
X134700000Y-119250000D03*
D10*
G36*
X133092642Y-118551174D02*
G01*
X133116303Y-118554684D01*
X133139507Y-118560496D01*
X133162029Y-118568554D01*
X133183653Y-118578782D01*
X133204170Y-118591079D01*
X133223383Y-118605329D01*
X133241107Y-118621393D01*
X133257171Y-118639117D01*
X133271421Y-118658330D01*
X133283718Y-118678847D01*
X133293946Y-118700471D01*
X133302004Y-118722993D01*
X133307816Y-118746197D01*
X133311326Y-118769858D01*
X133312500Y-118793750D01*
X133312500Y-119706250D01*
X133311326Y-119730142D01*
X133307816Y-119753803D01*
X133302004Y-119777007D01*
X133293946Y-119799529D01*
X133283718Y-119821153D01*
X133271421Y-119841670D01*
X133257171Y-119860883D01*
X133241107Y-119878607D01*
X133223383Y-119894671D01*
X133204170Y-119908921D01*
X133183653Y-119921218D01*
X133162029Y-119931446D01*
X133139507Y-119939504D01*
X133116303Y-119945316D01*
X133092642Y-119948826D01*
X133068750Y-119950000D01*
X132581250Y-119950000D01*
X132557358Y-119948826D01*
X132533697Y-119945316D01*
X132510493Y-119939504D01*
X132487971Y-119931446D01*
X132466347Y-119921218D01*
X132445830Y-119908921D01*
X132426617Y-119894671D01*
X132408893Y-119878607D01*
X132392829Y-119860883D01*
X132378579Y-119841670D01*
X132366282Y-119821153D01*
X132356054Y-119799529D01*
X132347996Y-119777007D01*
X132342184Y-119753803D01*
X132338674Y-119730142D01*
X132337500Y-119706250D01*
X132337500Y-118793750D01*
X132338674Y-118769858D01*
X132342184Y-118746197D01*
X132347996Y-118722993D01*
X132356054Y-118700471D01*
X132366282Y-118678847D01*
X132378579Y-118658330D01*
X132392829Y-118639117D01*
X132408893Y-118621393D01*
X132426617Y-118605329D01*
X132445830Y-118591079D01*
X132466347Y-118578782D01*
X132487971Y-118568554D01*
X132510493Y-118560496D01*
X132533697Y-118554684D01*
X132557358Y-118551174D01*
X132581250Y-118550000D01*
X133068750Y-118550000D01*
X133092642Y-118551174D01*
X133092642Y-118551174D01*
G37*
D11*
X132825000Y-119250000D03*
D10*
G36*
X169980142Y-114701174D02*
G01*
X170003803Y-114704684D01*
X170027007Y-114710496D01*
X170049529Y-114718554D01*
X170071153Y-114728782D01*
X170091670Y-114741079D01*
X170110883Y-114755329D01*
X170128607Y-114771393D01*
X170144671Y-114789117D01*
X170158921Y-114808330D01*
X170171218Y-114828847D01*
X170181446Y-114850471D01*
X170189504Y-114872993D01*
X170195316Y-114896197D01*
X170198826Y-114919858D01*
X170200000Y-114943750D01*
X170200000Y-115431250D01*
X170198826Y-115455142D01*
X170195316Y-115478803D01*
X170189504Y-115502007D01*
X170181446Y-115524529D01*
X170171218Y-115546153D01*
X170158921Y-115566670D01*
X170144671Y-115585883D01*
X170128607Y-115603607D01*
X170110883Y-115619671D01*
X170091670Y-115633921D01*
X170071153Y-115646218D01*
X170049529Y-115656446D01*
X170027007Y-115664504D01*
X170003803Y-115670316D01*
X169980142Y-115673826D01*
X169956250Y-115675000D01*
X169043750Y-115675000D01*
X169019858Y-115673826D01*
X168996197Y-115670316D01*
X168972993Y-115664504D01*
X168950471Y-115656446D01*
X168928847Y-115646218D01*
X168908330Y-115633921D01*
X168889117Y-115619671D01*
X168871393Y-115603607D01*
X168855329Y-115585883D01*
X168841079Y-115566670D01*
X168828782Y-115546153D01*
X168818554Y-115524529D01*
X168810496Y-115502007D01*
X168804684Y-115478803D01*
X168801174Y-115455142D01*
X168800000Y-115431250D01*
X168800000Y-114943750D01*
X168801174Y-114919858D01*
X168804684Y-114896197D01*
X168810496Y-114872993D01*
X168818554Y-114850471D01*
X168828782Y-114828847D01*
X168841079Y-114808330D01*
X168855329Y-114789117D01*
X168871393Y-114771393D01*
X168889117Y-114755329D01*
X168908330Y-114741079D01*
X168928847Y-114728782D01*
X168950471Y-114718554D01*
X168972993Y-114710496D01*
X168996197Y-114704684D01*
X169019858Y-114701174D01*
X169043750Y-114700000D01*
X169956250Y-114700000D01*
X169980142Y-114701174D01*
X169980142Y-114701174D01*
G37*
D11*
X169500000Y-115187500D03*
D10*
G36*
X169980142Y-112826174D02*
G01*
X170003803Y-112829684D01*
X170027007Y-112835496D01*
X170049529Y-112843554D01*
X170071153Y-112853782D01*
X170091670Y-112866079D01*
X170110883Y-112880329D01*
X170128607Y-112896393D01*
X170144671Y-112914117D01*
X170158921Y-112933330D01*
X170171218Y-112953847D01*
X170181446Y-112975471D01*
X170189504Y-112997993D01*
X170195316Y-113021197D01*
X170198826Y-113044858D01*
X170200000Y-113068750D01*
X170200000Y-113556250D01*
X170198826Y-113580142D01*
X170195316Y-113603803D01*
X170189504Y-113627007D01*
X170181446Y-113649529D01*
X170171218Y-113671153D01*
X170158921Y-113691670D01*
X170144671Y-113710883D01*
X170128607Y-113728607D01*
X170110883Y-113744671D01*
X170091670Y-113758921D01*
X170071153Y-113771218D01*
X170049529Y-113781446D01*
X170027007Y-113789504D01*
X170003803Y-113795316D01*
X169980142Y-113798826D01*
X169956250Y-113800000D01*
X169043750Y-113800000D01*
X169019858Y-113798826D01*
X168996197Y-113795316D01*
X168972993Y-113789504D01*
X168950471Y-113781446D01*
X168928847Y-113771218D01*
X168908330Y-113758921D01*
X168889117Y-113744671D01*
X168871393Y-113728607D01*
X168855329Y-113710883D01*
X168841079Y-113691670D01*
X168828782Y-113671153D01*
X168818554Y-113649529D01*
X168810496Y-113627007D01*
X168804684Y-113603803D01*
X168801174Y-113580142D01*
X168800000Y-113556250D01*
X168800000Y-113068750D01*
X168801174Y-113044858D01*
X168804684Y-113021197D01*
X168810496Y-112997993D01*
X168818554Y-112975471D01*
X168828782Y-112953847D01*
X168841079Y-112933330D01*
X168855329Y-112914117D01*
X168871393Y-112896393D01*
X168889117Y-112880329D01*
X168908330Y-112866079D01*
X168928847Y-112853782D01*
X168950471Y-112843554D01*
X168972993Y-112835496D01*
X168996197Y-112829684D01*
X169019858Y-112826174D01*
X169043750Y-112825000D01*
X169956250Y-112825000D01*
X169980142Y-112826174D01*
X169980142Y-112826174D01*
G37*
D11*
X169500000Y-113312500D03*
D10*
G36*
X169980142Y-108876174D02*
G01*
X170003803Y-108879684D01*
X170027007Y-108885496D01*
X170049529Y-108893554D01*
X170071153Y-108903782D01*
X170091670Y-108916079D01*
X170110883Y-108930329D01*
X170128607Y-108946393D01*
X170144671Y-108964117D01*
X170158921Y-108983330D01*
X170171218Y-109003847D01*
X170181446Y-109025471D01*
X170189504Y-109047993D01*
X170195316Y-109071197D01*
X170198826Y-109094858D01*
X170200000Y-109118750D01*
X170200000Y-109606250D01*
X170198826Y-109630142D01*
X170195316Y-109653803D01*
X170189504Y-109677007D01*
X170181446Y-109699529D01*
X170171218Y-109721153D01*
X170158921Y-109741670D01*
X170144671Y-109760883D01*
X170128607Y-109778607D01*
X170110883Y-109794671D01*
X170091670Y-109808921D01*
X170071153Y-109821218D01*
X170049529Y-109831446D01*
X170027007Y-109839504D01*
X170003803Y-109845316D01*
X169980142Y-109848826D01*
X169956250Y-109850000D01*
X169043750Y-109850000D01*
X169019858Y-109848826D01*
X168996197Y-109845316D01*
X168972993Y-109839504D01*
X168950471Y-109831446D01*
X168928847Y-109821218D01*
X168908330Y-109808921D01*
X168889117Y-109794671D01*
X168871393Y-109778607D01*
X168855329Y-109760883D01*
X168841079Y-109741670D01*
X168828782Y-109721153D01*
X168818554Y-109699529D01*
X168810496Y-109677007D01*
X168804684Y-109653803D01*
X168801174Y-109630142D01*
X168800000Y-109606250D01*
X168800000Y-109118750D01*
X168801174Y-109094858D01*
X168804684Y-109071197D01*
X168810496Y-109047993D01*
X168818554Y-109025471D01*
X168828782Y-109003847D01*
X168841079Y-108983330D01*
X168855329Y-108964117D01*
X168871393Y-108946393D01*
X168889117Y-108930329D01*
X168908330Y-108916079D01*
X168928847Y-108903782D01*
X168950471Y-108893554D01*
X168972993Y-108885496D01*
X168996197Y-108879684D01*
X169019858Y-108876174D01*
X169043750Y-108875000D01*
X169956250Y-108875000D01*
X169980142Y-108876174D01*
X169980142Y-108876174D01*
G37*
D11*
X169500000Y-109362500D03*
D10*
G36*
X169980142Y-110751174D02*
G01*
X170003803Y-110754684D01*
X170027007Y-110760496D01*
X170049529Y-110768554D01*
X170071153Y-110778782D01*
X170091670Y-110791079D01*
X170110883Y-110805329D01*
X170128607Y-110821393D01*
X170144671Y-110839117D01*
X170158921Y-110858330D01*
X170171218Y-110878847D01*
X170181446Y-110900471D01*
X170189504Y-110922993D01*
X170195316Y-110946197D01*
X170198826Y-110969858D01*
X170200000Y-110993750D01*
X170200000Y-111481250D01*
X170198826Y-111505142D01*
X170195316Y-111528803D01*
X170189504Y-111552007D01*
X170181446Y-111574529D01*
X170171218Y-111596153D01*
X170158921Y-111616670D01*
X170144671Y-111635883D01*
X170128607Y-111653607D01*
X170110883Y-111669671D01*
X170091670Y-111683921D01*
X170071153Y-111696218D01*
X170049529Y-111706446D01*
X170027007Y-111714504D01*
X170003803Y-111720316D01*
X169980142Y-111723826D01*
X169956250Y-111725000D01*
X169043750Y-111725000D01*
X169019858Y-111723826D01*
X168996197Y-111720316D01*
X168972993Y-111714504D01*
X168950471Y-111706446D01*
X168928847Y-111696218D01*
X168908330Y-111683921D01*
X168889117Y-111669671D01*
X168871393Y-111653607D01*
X168855329Y-111635883D01*
X168841079Y-111616670D01*
X168828782Y-111596153D01*
X168818554Y-111574529D01*
X168810496Y-111552007D01*
X168804684Y-111528803D01*
X168801174Y-111505142D01*
X168800000Y-111481250D01*
X168800000Y-110993750D01*
X168801174Y-110969858D01*
X168804684Y-110946197D01*
X168810496Y-110922993D01*
X168818554Y-110900471D01*
X168828782Y-110878847D01*
X168841079Y-110858330D01*
X168855329Y-110839117D01*
X168871393Y-110821393D01*
X168889117Y-110805329D01*
X168908330Y-110791079D01*
X168928847Y-110778782D01*
X168950471Y-110768554D01*
X168972993Y-110760496D01*
X168996197Y-110754684D01*
X169019858Y-110751174D01*
X169043750Y-110750000D01*
X169956250Y-110750000D01*
X169980142Y-110751174D01*
X169980142Y-110751174D01*
G37*
D11*
X169500000Y-111237500D03*
D10*
G36*
X169980142Y-104976174D02*
G01*
X170003803Y-104979684D01*
X170027007Y-104985496D01*
X170049529Y-104993554D01*
X170071153Y-105003782D01*
X170091670Y-105016079D01*
X170110883Y-105030329D01*
X170128607Y-105046393D01*
X170144671Y-105064117D01*
X170158921Y-105083330D01*
X170171218Y-105103847D01*
X170181446Y-105125471D01*
X170189504Y-105147993D01*
X170195316Y-105171197D01*
X170198826Y-105194858D01*
X170200000Y-105218750D01*
X170200000Y-105706250D01*
X170198826Y-105730142D01*
X170195316Y-105753803D01*
X170189504Y-105777007D01*
X170181446Y-105799529D01*
X170171218Y-105821153D01*
X170158921Y-105841670D01*
X170144671Y-105860883D01*
X170128607Y-105878607D01*
X170110883Y-105894671D01*
X170091670Y-105908921D01*
X170071153Y-105921218D01*
X170049529Y-105931446D01*
X170027007Y-105939504D01*
X170003803Y-105945316D01*
X169980142Y-105948826D01*
X169956250Y-105950000D01*
X169043750Y-105950000D01*
X169019858Y-105948826D01*
X168996197Y-105945316D01*
X168972993Y-105939504D01*
X168950471Y-105931446D01*
X168928847Y-105921218D01*
X168908330Y-105908921D01*
X168889117Y-105894671D01*
X168871393Y-105878607D01*
X168855329Y-105860883D01*
X168841079Y-105841670D01*
X168828782Y-105821153D01*
X168818554Y-105799529D01*
X168810496Y-105777007D01*
X168804684Y-105753803D01*
X168801174Y-105730142D01*
X168800000Y-105706250D01*
X168800000Y-105218750D01*
X168801174Y-105194858D01*
X168804684Y-105171197D01*
X168810496Y-105147993D01*
X168818554Y-105125471D01*
X168828782Y-105103847D01*
X168841079Y-105083330D01*
X168855329Y-105064117D01*
X168871393Y-105046393D01*
X168889117Y-105030329D01*
X168908330Y-105016079D01*
X168928847Y-105003782D01*
X168950471Y-104993554D01*
X168972993Y-104985496D01*
X168996197Y-104979684D01*
X169019858Y-104976174D01*
X169043750Y-104975000D01*
X169956250Y-104975000D01*
X169980142Y-104976174D01*
X169980142Y-104976174D01*
G37*
D11*
X169500000Y-105462500D03*
D10*
G36*
X169980142Y-106851174D02*
G01*
X170003803Y-106854684D01*
X170027007Y-106860496D01*
X170049529Y-106868554D01*
X170071153Y-106878782D01*
X170091670Y-106891079D01*
X170110883Y-106905329D01*
X170128607Y-106921393D01*
X170144671Y-106939117D01*
X170158921Y-106958330D01*
X170171218Y-106978847D01*
X170181446Y-107000471D01*
X170189504Y-107022993D01*
X170195316Y-107046197D01*
X170198826Y-107069858D01*
X170200000Y-107093750D01*
X170200000Y-107581250D01*
X170198826Y-107605142D01*
X170195316Y-107628803D01*
X170189504Y-107652007D01*
X170181446Y-107674529D01*
X170171218Y-107696153D01*
X170158921Y-107716670D01*
X170144671Y-107735883D01*
X170128607Y-107753607D01*
X170110883Y-107769671D01*
X170091670Y-107783921D01*
X170071153Y-107796218D01*
X170049529Y-107806446D01*
X170027007Y-107814504D01*
X170003803Y-107820316D01*
X169980142Y-107823826D01*
X169956250Y-107825000D01*
X169043750Y-107825000D01*
X169019858Y-107823826D01*
X168996197Y-107820316D01*
X168972993Y-107814504D01*
X168950471Y-107806446D01*
X168928847Y-107796218D01*
X168908330Y-107783921D01*
X168889117Y-107769671D01*
X168871393Y-107753607D01*
X168855329Y-107735883D01*
X168841079Y-107716670D01*
X168828782Y-107696153D01*
X168818554Y-107674529D01*
X168810496Y-107652007D01*
X168804684Y-107628803D01*
X168801174Y-107605142D01*
X168800000Y-107581250D01*
X168800000Y-107093750D01*
X168801174Y-107069858D01*
X168804684Y-107046197D01*
X168810496Y-107022993D01*
X168818554Y-107000471D01*
X168828782Y-106978847D01*
X168841079Y-106958330D01*
X168855329Y-106939117D01*
X168871393Y-106921393D01*
X168889117Y-106905329D01*
X168908330Y-106891079D01*
X168928847Y-106878782D01*
X168950471Y-106868554D01*
X168972993Y-106860496D01*
X168996197Y-106854684D01*
X169019858Y-106851174D01*
X169043750Y-106850000D01*
X169956250Y-106850000D01*
X169980142Y-106851174D01*
X169980142Y-106851174D01*
G37*
D11*
X169500000Y-107337500D03*
D10*
G36*
X158317642Y-100126174D02*
G01*
X158341303Y-100129684D01*
X158364507Y-100135496D01*
X158387029Y-100143554D01*
X158408653Y-100153782D01*
X158429170Y-100166079D01*
X158448383Y-100180329D01*
X158466107Y-100196393D01*
X158482171Y-100214117D01*
X158496421Y-100233330D01*
X158508718Y-100253847D01*
X158518946Y-100275471D01*
X158527004Y-100297993D01*
X158532816Y-100321197D01*
X158536326Y-100344858D01*
X158537500Y-100368750D01*
X158537500Y-101281250D01*
X158536326Y-101305142D01*
X158532816Y-101328803D01*
X158527004Y-101352007D01*
X158518946Y-101374529D01*
X158508718Y-101396153D01*
X158496421Y-101416670D01*
X158482171Y-101435883D01*
X158466107Y-101453607D01*
X158448383Y-101469671D01*
X158429170Y-101483921D01*
X158408653Y-101496218D01*
X158387029Y-101506446D01*
X158364507Y-101514504D01*
X158341303Y-101520316D01*
X158317642Y-101523826D01*
X158293750Y-101525000D01*
X157806250Y-101525000D01*
X157782358Y-101523826D01*
X157758697Y-101520316D01*
X157735493Y-101514504D01*
X157712971Y-101506446D01*
X157691347Y-101496218D01*
X157670830Y-101483921D01*
X157651617Y-101469671D01*
X157633893Y-101453607D01*
X157617829Y-101435883D01*
X157603579Y-101416670D01*
X157591282Y-101396153D01*
X157581054Y-101374529D01*
X157572996Y-101352007D01*
X157567184Y-101328803D01*
X157563674Y-101305142D01*
X157562500Y-101281250D01*
X157562500Y-100368750D01*
X157563674Y-100344858D01*
X157567184Y-100321197D01*
X157572996Y-100297993D01*
X157581054Y-100275471D01*
X157591282Y-100253847D01*
X157603579Y-100233330D01*
X157617829Y-100214117D01*
X157633893Y-100196393D01*
X157651617Y-100180329D01*
X157670830Y-100166079D01*
X157691347Y-100153782D01*
X157712971Y-100143554D01*
X157735493Y-100135496D01*
X157758697Y-100129684D01*
X157782358Y-100126174D01*
X157806250Y-100125000D01*
X158293750Y-100125000D01*
X158317642Y-100126174D01*
X158317642Y-100126174D01*
G37*
D11*
X158050000Y-100825000D03*
D10*
G36*
X160192642Y-100126174D02*
G01*
X160216303Y-100129684D01*
X160239507Y-100135496D01*
X160262029Y-100143554D01*
X160283653Y-100153782D01*
X160304170Y-100166079D01*
X160323383Y-100180329D01*
X160341107Y-100196393D01*
X160357171Y-100214117D01*
X160371421Y-100233330D01*
X160383718Y-100253847D01*
X160393946Y-100275471D01*
X160402004Y-100297993D01*
X160407816Y-100321197D01*
X160411326Y-100344858D01*
X160412500Y-100368750D01*
X160412500Y-101281250D01*
X160411326Y-101305142D01*
X160407816Y-101328803D01*
X160402004Y-101352007D01*
X160393946Y-101374529D01*
X160383718Y-101396153D01*
X160371421Y-101416670D01*
X160357171Y-101435883D01*
X160341107Y-101453607D01*
X160323383Y-101469671D01*
X160304170Y-101483921D01*
X160283653Y-101496218D01*
X160262029Y-101506446D01*
X160239507Y-101514504D01*
X160216303Y-101520316D01*
X160192642Y-101523826D01*
X160168750Y-101525000D01*
X159681250Y-101525000D01*
X159657358Y-101523826D01*
X159633697Y-101520316D01*
X159610493Y-101514504D01*
X159587971Y-101506446D01*
X159566347Y-101496218D01*
X159545830Y-101483921D01*
X159526617Y-101469671D01*
X159508893Y-101453607D01*
X159492829Y-101435883D01*
X159478579Y-101416670D01*
X159466282Y-101396153D01*
X159456054Y-101374529D01*
X159447996Y-101352007D01*
X159442184Y-101328803D01*
X159438674Y-101305142D01*
X159437500Y-101281250D01*
X159437500Y-100368750D01*
X159438674Y-100344858D01*
X159442184Y-100321197D01*
X159447996Y-100297993D01*
X159456054Y-100275471D01*
X159466282Y-100253847D01*
X159478579Y-100233330D01*
X159492829Y-100214117D01*
X159508893Y-100196393D01*
X159526617Y-100180329D01*
X159545830Y-100166079D01*
X159566347Y-100153782D01*
X159587971Y-100143554D01*
X159610493Y-100135496D01*
X159633697Y-100129684D01*
X159657358Y-100126174D01*
X159681250Y-100125000D01*
X160168750Y-100125000D01*
X160192642Y-100126174D01*
X160192642Y-100126174D01*
G37*
D11*
X159925000Y-100825000D03*
D10*
G36*
X164017642Y-100126174D02*
G01*
X164041303Y-100129684D01*
X164064507Y-100135496D01*
X164087029Y-100143554D01*
X164108653Y-100153782D01*
X164129170Y-100166079D01*
X164148383Y-100180329D01*
X164166107Y-100196393D01*
X164182171Y-100214117D01*
X164196421Y-100233330D01*
X164208718Y-100253847D01*
X164218946Y-100275471D01*
X164227004Y-100297993D01*
X164232816Y-100321197D01*
X164236326Y-100344858D01*
X164237500Y-100368750D01*
X164237500Y-101281250D01*
X164236326Y-101305142D01*
X164232816Y-101328803D01*
X164227004Y-101352007D01*
X164218946Y-101374529D01*
X164208718Y-101396153D01*
X164196421Y-101416670D01*
X164182171Y-101435883D01*
X164166107Y-101453607D01*
X164148383Y-101469671D01*
X164129170Y-101483921D01*
X164108653Y-101496218D01*
X164087029Y-101506446D01*
X164064507Y-101514504D01*
X164041303Y-101520316D01*
X164017642Y-101523826D01*
X163993750Y-101525000D01*
X163506250Y-101525000D01*
X163482358Y-101523826D01*
X163458697Y-101520316D01*
X163435493Y-101514504D01*
X163412971Y-101506446D01*
X163391347Y-101496218D01*
X163370830Y-101483921D01*
X163351617Y-101469671D01*
X163333893Y-101453607D01*
X163317829Y-101435883D01*
X163303579Y-101416670D01*
X163291282Y-101396153D01*
X163281054Y-101374529D01*
X163272996Y-101352007D01*
X163267184Y-101328803D01*
X163263674Y-101305142D01*
X163262500Y-101281250D01*
X163262500Y-100368750D01*
X163263674Y-100344858D01*
X163267184Y-100321197D01*
X163272996Y-100297993D01*
X163281054Y-100275471D01*
X163291282Y-100253847D01*
X163303579Y-100233330D01*
X163317829Y-100214117D01*
X163333893Y-100196393D01*
X163351617Y-100180329D01*
X163370830Y-100166079D01*
X163391347Y-100153782D01*
X163412971Y-100143554D01*
X163435493Y-100135496D01*
X163458697Y-100129684D01*
X163482358Y-100126174D01*
X163506250Y-100125000D01*
X163993750Y-100125000D01*
X164017642Y-100126174D01*
X164017642Y-100126174D01*
G37*
D11*
X163750000Y-100825000D03*
D10*
G36*
X162142642Y-100126174D02*
G01*
X162166303Y-100129684D01*
X162189507Y-100135496D01*
X162212029Y-100143554D01*
X162233653Y-100153782D01*
X162254170Y-100166079D01*
X162273383Y-100180329D01*
X162291107Y-100196393D01*
X162307171Y-100214117D01*
X162321421Y-100233330D01*
X162333718Y-100253847D01*
X162343946Y-100275471D01*
X162352004Y-100297993D01*
X162357816Y-100321197D01*
X162361326Y-100344858D01*
X162362500Y-100368750D01*
X162362500Y-101281250D01*
X162361326Y-101305142D01*
X162357816Y-101328803D01*
X162352004Y-101352007D01*
X162343946Y-101374529D01*
X162333718Y-101396153D01*
X162321421Y-101416670D01*
X162307171Y-101435883D01*
X162291107Y-101453607D01*
X162273383Y-101469671D01*
X162254170Y-101483921D01*
X162233653Y-101496218D01*
X162212029Y-101506446D01*
X162189507Y-101514504D01*
X162166303Y-101520316D01*
X162142642Y-101523826D01*
X162118750Y-101525000D01*
X161631250Y-101525000D01*
X161607358Y-101523826D01*
X161583697Y-101520316D01*
X161560493Y-101514504D01*
X161537971Y-101506446D01*
X161516347Y-101496218D01*
X161495830Y-101483921D01*
X161476617Y-101469671D01*
X161458893Y-101453607D01*
X161442829Y-101435883D01*
X161428579Y-101416670D01*
X161416282Y-101396153D01*
X161406054Y-101374529D01*
X161397996Y-101352007D01*
X161392184Y-101328803D01*
X161388674Y-101305142D01*
X161387500Y-101281250D01*
X161387500Y-100368750D01*
X161388674Y-100344858D01*
X161392184Y-100321197D01*
X161397996Y-100297993D01*
X161406054Y-100275471D01*
X161416282Y-100253847D01*
X161428579Y-100233330D01*
X161442829Y-100214117D01*
X161458893Y-100196393D01*
X161476617Y-100180329D01*
X161495830Y-100166079D01*
X161516347Y-100153782D01*
X161537971Y-100143554D01*
X161560493Y-100135496D01*
X161583697Y-100129684D01*
X161607358Y-100126174D01*
X161631250Y-100125000D01*
X162118750Y-100125000D01*
X162142642Y-100126174D01*
X162142642Y-100126174D01*
G37*
D11*
X161875000Y-100825000D03*
D10*
G36*
X134205142Y-104201174D02*
G01*
X134228803Y-104204684D01*
X134252007Y-104210496D01*
X134274529Y-104218554D01*
X134296153Y-104228782D01*
X134316670Y-104241079D01*
X134335883Y-104255329D01*
X134353607Y-104271393D01*
X134369671Y-104289117D01*
X134383921Y-104308330D01*
X134396218Y-104328847D01*
X134406446Y-104350471D01*
X134414504Y-104372993D01*
X134420316Y-104396197D01*
X134423826Y-104419858D01*
X134425000Y-104443750D01*
X134425000Y-104931250D01*
X134423826Y-104955142D01*
X134420316Y-104978803D01*
X134414504Y-105002007D01*
X134406446Y-105024529D01*
X134396218Y-105046153D01*
X134383921Y-105066670D01*
X134369671Y-105085883D01*
X134353607Y-105103607D01*
X134335883Y-105119671D01*
X134316670Y-105133921D01*
X134296153Y-105146218D01*
X134274529Y-105156446D01*
X134252007Y-105164504D01*
X134228803Y-105170316D01*
X134205142Y-105173826D01*
X134181250Y-105175000D01*
X133268750Y-105175000D01*
X133244858Y-105173826D01*
X133221197Y-105170316D01*
X133197993Y-105164504D01*
X133175471Y-105156446D01*
X133153847Y-105146218D01*
X133133330Y-105133921D01*
X133114117Y-105119671D01*
X133096393Y-105103607D01*
X133080329Y-105085883D01*
X133066079Y-105066670D01*
X133053782Y-105046153D01*
X133043554Y-105024529D01*
X133035496Y-105002007D01*
X133029684Y-104978803D01*
X133026174Y-104955142D01*
X133025000Y-104931250D01*
X133025000Y-104443750D01*
X133026174Y-104419858D01*
X133029684Y-104396197D01*
X133035496Y-104372993D01*
X133043554Y-104350471D01*
X133053782Y-104328847D01*
X133066079Y-104308330D01*
X133080329Y-104289117D01*
X133096393Y-104271393D01*
X133114117Y-104255329D01*
X133133330Y-104241079D01*
X133153847Y-104228782D01*
X133175471Y-104218554D01*
X133197993Y-104210496D01*
X133221197Y-104204684D01*
X133244858Y-104201174D01*
X133268750Y-104200000D01*
X134181250Y-104200000D01*
X134205142Y-104201174D01*
X134205142Y-104201174D01*
G37*
D11*
X133725000Y-104687500D03*
D10*
G36*
X134205142Y-102326174D02*
G01*
X134228803Y-102329684D01*
X134252007Y-102335496D01*
X134274529Y-102343554D01*
X134296153Y-102353782D01*
X134316670Y-102366079D01*
X134335883Y-102380329D01*
X134353607Y-102396393D01*
X134369671Y-102414117D01*
X134383921Y-102433330D01*
X134396218Y-102453847D01*
X134406446Y-102475471D01*
X134414504Y-102497993D01*
X134420316Y-102521197D01*
X134423826Y-102544858D01*
X134425000Y-102568750D01*
X134425000Y-103056250D01*
X134423826Y-103080142D01*
X134420316Y-103103803D01*
X134414504Y-103127007D01*
X134406446Y-103149529D01*
X134396218Y-103171153D01*
X134383921Y-103191670D01*
X134369671Y-103210883D01*
X134353607Y-103228607D01*
X134335883Y-103244671D01*
X134316670Y-103258921D01*
X134296153Y-103271218D01*
X134274529Y-103281446D01*
X134252007Y-103289504D01*
X134228803Y-103295316D01*
X134205142Y-103298826D01*
X134181250Y-103300000D01*
X133268750Y-103300000D01*
X133244858Y-103298826D01*
X133221197Y-103295316D01*
X133197993Y-103289504D01*
X133175471Y-103281446D01*
X133153847Y-103271218D01*
X133133330Y-103258921D01*
X133114117Y-103244671D01*
X133096393Y-103228607D01*
X133080329Y-103210883D01*
X133066079Y-103191670D01*
X133053782Y-103171153D01*
X133043554Y-103149529D01*
X133035496Y-103127007D01*
X133029684Y-103103803D01*
X133026174Y-103080142D01*
X133025000Y-103056250D01*
X133025000Y-102568750D01*
X133026174Y-102544858D01*
X133029684Y-102521197D01*
X133035496Y-102497993D01*
X133043554Y-102475471D01*
X133053782Y-102453847D01*
X133066079Y-102433330D01*
X133080329Y-102414117D01*
X133096393Y-102396393D01*
X133114117Y-102380329D01*
X133133330Y-102366079D01*
X133153847Y-102353782D01*
X133175471Y-102343554D01*
X133197993Y-102335496D01*
X133221197Y-102329684D01*
X133244858Y-102326174D01*
X133268750Y-102325000D01*
X134181250Y-102325000D01*
X134205142Y-102326174D01*
X134205142Y-102326174D01*
G37*
D11*
X133725000Y-102812500D03*
D10*
G36*
X139730142Y-100176174D02*
G01*
X139753803Y-100179684D01*
X139777007Y-100185496D01*
X139799529Y-100193554D01*
X139821153Y-100203782D01*
X139841670Y-100216079D01*
X139860883Y-100230329D01*
X139878607Y-100246393D01*
X139894671Y-100264117D01*
X139908921Y-100283330D01*
X139921218Y-100303847D01*
X139931446Y-100325471D01*
X139939504Y-100347993D01*
X139945316Y-100371197D01*
X139948826Y-100394858D01*
X139950000Y-100418750D01*
X139950000Y-101331250D01*
X139948826Y-101355142D01*
X139945316Y-101378803D01*
X139939504Y-101402007D01*
X139931446Y-101424529D01*
X139921218Y-101446153D01*
X139908921Y-101466670D01*
X139894671Y-101485883D01*
X139878607Y-101503607D01*
X139860883Y-101519671D01*
X139841670Y-101533921D01*
X139821153Y-101546218D01*
X139799529Y-101556446D01*
X139777007Y-101564504D01*
X139753803Y-101570316D01*
X139730142Y-101573826D01*
X139706250Y-101575000D01*
X139218750Y-101575000D01*
X139194858Y-101573826D01*
X139171197Y-101570316D01*
X139147993Y-101564504D01*
X139125471Y-101556446D01*
X139103847Y-101546218D01*
X139083330Y-101533921D01*
X139064117Y-101519671D01*
X139046393Y-101503607D01*
X139030329Y-101485883D01*
X139016079Y-101466670D01*
X139003782Y-101446153D01*
X138993554Y-101424529D01*
X138985496Y-101402007D01*
X138979684Y-101378803D01*
X138976174Y-101355142D01*
X138975000Y-101331250D01*
X138975000Y-100418750D01*
X138976174Y-100394858D01*
X138979684Y-100371197D01*
X138985496Y-100347993D01*
X138993554Y-100325471D01*
X139003782Y-100303847D01*
X139016079Y-100283330D01*
X139030329Y-100264117D01*
X139046393Y-100246393D01*
X139064117Y-100230329D01*
X139083330Y-100216079D01*
X139103847Y-100203782D01*
X139125471Y-100193554D01*
X139147993Y-100185496D01*
X139171197Y-100179684D01*
X139194858Y-100176174D01*
X139218750Y-100175000D01*
X139706250Y-100175000D01*
X139730142Y-100176174D01*
X139730142Y-100176174D01*
G37*
D11*
X139462500Y-100875000D03*
D10*
G36*
X137855142Y-100176174D02*
G01*
X137878803Y-100179684D01*
X137902007Y-100185496D01*
X137924529Y-100193554D01*
X137946153Y-100203782D01*
X137966670Y-100216079D01*
X137985883Y-100230329D01*
X138003607Y-100246393D01*
X138019671Y-100264117D01*
X138033921Y-100283330D01*
X138046218Y-100303847D01*
X138056446Y-100325471D01*
X138064504Y-100347993D01*
X138070316Y-100371197D01*
X138073826Y-100394858D01*
X138075000Y-100418750D01*
X138075000Y-101331250D01*
X138073826Y-101355142D01*
X138070316Y-101378803D01*
X138064504Y-101402007D01*
X138056446Y-101424529D01*
X138046218Y-101446153D01*
X138033921Y-101466670D01*
X138019671Y-101485883D01*
X138003607Y-101503607D01*
X137985883Y-101519671D01*
X137966670Y-101533921D01*
X137946153Y-101546218D01*
X137924529Y-101556446D01*
X137902007Y-101564504D01*
X137878803Y-101570316D01*
X137855142Y-101573826D01*
X137831250Y-101575000D01*
X137343750Y-101575000D01*
X137319858Y-101573826D01*
X137296197Y-101570316D01*
X137272993Y-101564504D01*
X137250471Y-101556446D01*
X137228847Y-101546218D01*
X137208330Y-101533921D01*
X137189117Y-101519671D01*
X137171393Y-101503607D01*
X137155329Y-101485883D01*
X137141079Y-101466670D01*
X137128782Y-101446153D01*
X137118554Y-101424529D01*
X137110496Y-101402007D01*
X137104684Y-101378803D01*
X137101174Y-101355142D01*
X137100000Y-101331250D01*
X137100000Y-100418750D01*
X137101174Y-100394858D01*
X137104684Y-100371197D01*
X137110496Y-100347993D01*
X137118554Y-100325471D01*
X137128782Y-100303847D01*
X137141079Y-100283330D01*
X137155329Y-100264117D01*
X137171393Y-100246393D01*
X137189117Y-100230329D01*
X137208330Y-100216079D01*
X137228847Y-100203782D01*
X137250471Y-100193554D01*
X137272993Y-100185496D01*
X137296197Y-100179684D01*
X137319858Y-100176174D01*
X137343750Y-100175000D01*
X137831250Y-100175000D01*
X137855142Y-100176174D01*
X137855142Y-100176174D01*
G37*
D11*
X137587500Y-100875000D03*
D10*
G36*
X132155142Y-108451174D02*
G01*
X132178803Y-108454684D01*
X132202007Y-108460496D01*
X132224529Y-108468554D01*
X132246153Y-108478782D01*
X132266670Y-108491079D01*
X132285883Y-108505329D01*
X132303607Y-108521393D01*
X132319671Y-108539117D01*
X132333921Y-108558330D01*
X132346218Y-108578847D01*
X132356446Y-108600471D01*
X132364504Y-108622993D01*
X132370316Y-108646197D01*
X132373826Y-108669858D01*
X132375000Y-108693750D01*
X132375000Y-109181250D01*
X132373826Y-109205142D01*
X132370316Y-109228803D01*
X132364504Y-109252007D01*
X132356446Y-109274529D01*
X132346218Y-109296153D01*
X132333921Y-109316670D01*
X132319671Y-109335883D01*
X132303607Y-109353607D01*
X132285883Y-109369671D01*
X132266670Y-109383921D01*
X132246153Y-109396218D01*
X132224529Y-109406446D01*
X132202007Y-109414504D01*
X132178803Y-109420316D01*
X132155142Y-109423826D01*
X132131250Y-109425000D01*
X131218750Y-109425000D01*
X131194858Y-109423826D01*
X131171197Y-109420316D01*
X131147993Y-109414504D01*
X131125471Y-109406446D01*
X131103847Y-109396218D01*
X131083330Y-109383921D01*
X131064117Y-109369671D01*
X131046393Y-109353607D01*
X131030329Y-109335883D01*
X131016079Y-109316670D01*
X131003782Y-109296153D01*
X130993554Y-109274529D01*
X130985496Y-109252007D01*
X130979684Y-109228803D01*
X130976174Y-109205142D01*
X130975000Y-109181250D01*
X130975000Y-108693750D01*
X130976174Y-108669858D01*
X130979684Y-108646197D01*
X130985496Y-108622993D01*
X130993554Y-108600471D01*
X131003782Y-108578847D01*
X131016079Y-108558330D01*
X131030329Y-108539117D01*
X131046393Y-108521393D01*
X131064117Y-108505329D01*
X131083330Y-108491079D01*
X131103847Y-108478782D01*
X131125471Y-108468554D01*
X131147993Y-108460496D01*
X131171197Y-108454684D01*
X131194858Y-108451174D01*
X131218750Y-108450000D01*
X132131250Y-108450000D01*
X132155142Y-108451174D01*
X132155142Y-108451174D01*
G37*
D11*
X131675000Y-108937500D03*
D10*
G36*
X132155142Y-106576174D02*
G01*
X132178803Y-106579684D01*
X132202007Y-106585496D01*
X132224529Y-106593554D01*
X132246153Y-106603782D01*
X132266670Y-106616079D01*
X132285883Y-106630329D01*
X132303607Y-106646393D01*
X132319671Y-106664117D01*
X132333921Y-106683330D01*
X132346218Y-106703847D01*
X132356446Y-106725471D01*
X132364504Y-106747993D01*
X132370316Y-106771197D01*
X132373826Y-106794858D01*
X132375000Y-106818750D01*
X132375000Y-107306250D01*
X132373826Y-107330142D01*
X132370316Y-107353803D01*
X132364504Y-107377007D01*
X132356446Y-107399529D01*
X132346218Y-107421153D01*
X132333921Y-107441670D01*
X132319671Y-107460883D01*
X132303607Y-107478607D01*
X132285883Y-107494671D01*
X132266670Y-107508921D01*
X132246153Y-107521218D01*
X132224529Y-107531446D01*
X132202007Y-107539504D01*
X132178803Y-107545316D01*
X132155142Y-107548826D01*
X132131250Y-107550000D01*
X131218750Y-107550000D01*
X131194858Y-107548826D01*
X131171197Y-107545316D01*
X131147993Y-107539504D01*
X131125471Y-107531446D01*
X131103847Y-107521218D01*
X131083330Y-107508921D01*
X131064117Y-107494671D01*
X131046393Y-107478607D01*
X131030329Y-107460883D01*
X131016079Y-107441670D01*
X131003782Y-107421153D01*
X130993554Y-107399529D01*
X130985496Y-107377007D01*
X130979684Y-107353803D01*
X130976174Y-107330142D01*
X130975000Y-107306250D01*
X130975000Y-106818750D01*
X130976174Y-106794858D01*
X130979684Y-106771197D01*
X130985496Y-106747993D01*
X130993554Y-106725471D01*
X131003782Y-106703847D01*
X131016079Y-106683330D01*
X131030329Y-106664117D01*
X131046393Y-106646393D01*
X131064117Y-106630329D01*
X131083330Y-106616079D01*
X131103847Y-106603782D01*
X131125471Y-106593554D01*
X131147993Y-106585496D01*
X131171197Y-106579684D01*
X131194858Y-106576174D01*
X131218750Y-106575000D01*
X132131250Y-106575000D01*
X132155142Y-106576174D01*
X132155142Y-106576174D01*
G37*
D11*
X131675000Y-107062500D03*
D10*
G36*
X136255142Y-104201174D02*
G01*
X136278803Y-104204684D01*
X136302007Y-104210496D01*
X136324529Y-104218554D01*
X136346153Y-104228782D01*
X136366670Y-104241079D01*
X136385883Y-104255329D01*
X136403607Y-104271393D01*
X136419671Y-104289117D01*
X136433921Y-104308330D01*
X136446218Y-104328847D01*
X136456446Y-104350471D01*
X136464504Y-104372993D01*
X136470316Y-104396197D01*
X136473826Y-104419858D01*
X136475000Y-104443750D01*
X136475000Y-104931250D01*
X136473826Y-104955142D01*
X136470316Y-104978803D01*
X136464504Y-105002007D01*
X136456446Y-105024529D01*
X136446218Y-105046153D01*
X136433921Y-105066670D01*
X136419671Y-105085883D01*
X136403607Y-105103607D01*
X136385883Y-105119671D01*
X136366670Y-105133921D01*
X136346153Y-105146218D01*
X136324529Y-105156446D01*
X136302007Y-105164504D01*
X136278803Y-105170316D01*
X136255142Y-105173826D01*
X136231250Y-105175000D01*
X135318750Y-105175000D01*
X135294858Y-105173826D01*
X135271197Y-105170316D01*
X135247993Y-105164504D01*
X135225471Y-105156446D01*
X135203847Y-105146218D01*
X135183330Y-105133921D01*
X135164117Y-105119671D01*
X135146393Y-105103607D01*
X135130329Y-105085883D01*
X135116079Y-105066670D01*
X135103782Y-105046153D01*
X135093554Y-105024529D01*
X135085496Y-105002007D01*
X135079684Y-104978803D01*
X135076174Y-104955142D01*
X135075000Y-104931250D01*
X135075000Y-104443750D01*
X135076174Y-104419858D01*
X135079684Y-104396197D01*
X135085496Y-104372993D01*
X135093554Y-104350471D01*
X135103782Y-104328847D01*
X135116079Y-104308330D01*
X135130329Y-104289117D01*
X135146393Y-104271393D01*
X135164117Y-104255329D01*
X135183330Y-104241079D01*
X135203847Y-104228782D01*
X135225471Y-104218554D01*
X135247993Y-104210496D01*
X135271197Y-104204684D01*
X135294858Y-104201174D01*
X135318750Y-104200000D01*
X136231250Y-104200000D01*
X136255142Y-104201174D01*
X136255142Y-104201174D01*
G37*
D11*
X135775000Y-104687500D03*
D10*
G36*
X136255142Y-102326174D02*
G01*
X136278803Y-102329684D01*
X136302007Y-102335496D01*
X136324529Y-102343554D01*
X136346153Y-102353782D01*
X136366670Y-102366079D01*
X136385883Y-102380329D01*
X136403607Y-102396393D01*
X136419671Y-102414117D01*
X136433921Y-102433330D01*
X136446218Y-102453847D01*
X136456446Y-102475471D01*
X136464504Y-102497993D01*
X136470316Y-102521197D01*
X136473826Y-102544858D01*
X136475000Y-102568750D01*
X136475000Y-103056250D01*
X136473826Y-103080142D01*
X136470316Y-103103803D01*
X136464504Y-103127007D01*
X136456446Y-103149529D01*
X136446218Y-103171153D01*
X136433921Y-103191670D01*
X136419671Y-103210883D01*
X136403607Y-103228607D01*
X136385883Y-103244671D01*
X136366670Y-103258921D01*
X136346153Y-103271218D01*
X136324529Y-103281446D01*
X136302007Y-103289504D01*
X136278803Y-103295316D01*
X136255142Y-103298826D01*
X136231250Y-103300000D01*
X135318750Y-103300000D01*
X135294858Y-103298826D01*
X135271197Y-103295316D01*
X135247993Y-103289504D01*
X135225471Y-103281446D01*
X135203847Y-103271218D01*
X135183330Y-103258921D01*
X135164117Y-103244671D01*
X135146393Y-103228607D01*
X135130329Y-103210883D01*
X135116079Y-103191670D01*
X135103782Y-103171153D01*
X135093554Y-103149529D01*
X135085496Y-103127007D01*
X135079684Y-103103803D01*
X135076174Y-103080142D01*
X135075000Y-103056250D01*
X135075000Y-102568750D01*
X135076174Y-102544858D01*
X135079684Y-102521197D01*
X135085496Y-102497993D01*
X135093554Y-102475471D01*
X135103782Y-102453847D01*
X135116079Y-102433330D01*
X135130329Y-102414117D01*
X135146393Y-102396393D01*
X135164117Y-102380329D01*
X135183330Y-102366079D01*
X135203847Y-102353782D01*
X135225471Y-102343554D01*
X135247993Y-102335496D01*
X135271197Y-102329684D01*
X135294858Y-102326174D01*
X135318750Y-102325000D01*
X136231250Y-102325000D01*
X136255142Y-102326174D01*
X136255142Y-102326174D01*
G37*
D11*
X135775000Y-102812500D03*
D10*
G36*
X169980142Y-101326174D02*
G01*
X170003803Y-101329684D01*
X170027007Y-101335496D01*
X170049529Y-101343554D01*
X170071153Y-101353782D01*
X170091670Y-101366079D01*
X170110883Y-101380329D01*
X170128607Y-101396393D01*
X170144671Y-101414117D01*
X170158921Y-101433330D01*
X170171218Y-101453847D01*
X170181446Y-101475471D01*
X170189504Y-101497993D01*
X170195316Y-101521197D01*
X170198826Y-101544858D01*
X170200000Y-101568750D01*
X170200000Y-102056250D01*
X170198826Y-102080142D01*
X170195316Y-102103803D01*
X170189504Y-102127007D01*
X170181446Y-102149529D01*
X170171218Y-102171153D01*
X170158921Y-102191670D01*
X170144671Y-102210883D01*
X170128607Y-102228607D01*
X170110883Y-102244671D01*
X170091670Y-102258921D01*
X170071153Y-102271218D01*
X170049529Y-102281446D01*
X170027007Y-102289504D01*
X170003803Y-102295316D01*
X169980142Y-102298826D01*
X169956250Y-102300000D01*
X169043750Y-102300000D01*
X169019858Y-102298826D01*
X168996197Y-102295316D01*
X168972993Y-102289504D01*
X168950471Y-102281446D01*
X168928847Y-102271218D01*
X168908330Y-102258921D01*
X168889117Y-102244671D01*
X168871393Y-102228607D01*
X168855329Y-102210883D01*
X168841079Y-102191670D01*
X168828782Y-102171153D01*
X168818554Y-102149529D01*
X168810496Y-102127007D01*
X168804684Y-102103803D01*
X168801174Y-102080142D01*
X168800000Y-102056250D01*
X168800000Y-101568750D01*
X168801174Y-101544858D01*
X168804684Y-101521197D01*
X168810496Y-101497993D01*
X168818554Y-101475471D01*
X168828782Y-101453847D01*
X168841079Y-101433330D01*
X168855329Y-101414117D01*
X168871393Y-101396393D01*
X168889117Y-101380329D01*
X168908330Y-101366079D01*
X168928847Y-101353782D01*
X168950471Y-101343554D01*
X168972993Y-101335496D01*
X168996197Y-101329684D01*
X169019858Y-101326174D01*
X169043750Y-101325000D01*
X169956250Y-101325000D01*
X169980142Y-101326174D01*
X169980142Y-101326174D01*
G37*
D11*
X169500000Y-101812500D03*
D10*
G36*
X169980142Y-103201174D02*
G01*
X170003803Y-103204684D01*
X170027007Y-103210496D01*
X170049529Y-103218554D01*
X170071153Y-103228782D01*
X170091670Y-103241079D01*
X170110883Y-103255329D01*
X170128607Y-103271393D01*
X170144671Y-103289117D01*
X170158921Y-103308330D01*
X170171218Y-103328847D01*
X170181446Y-103350471D01*
X170189504Y-103372993D01*
X170195316Y-103396197D01*
X170198826Y-103419858D01*
X170200000Y-103443750D01*
X170200000Y-103931250D01*
X170198826Y-103955142D01*
X170195316Y-103978803D01*
X170189504Y-104002007D01*
X170181446Y-104024529D01*
X170171218Y-104046153D01*
X170158921Y-104066670D01*
X170144671Y-104085883D01*
X170128607Y-104103607D01*
X170110883Y-104119671D01*
X170091670Y-104133921D01*
X170071153Y-104146218D01*
X170049529Y-104156446D01*
X170027007Y-104164504D01*
X170003803Y-104170316D01*
X169980142Y-104173826D01*
X169956250Y-104175000D01*
X169043750Y-104175000D01*
X169019858Y-104173826D01*
X168996197Y-104170316D01*
X168972993Y-104164504D01*
X168950471Y-104156446D01*
X168928847Y-104146218D01*
X168908330Y-104133921D01*
X168889117Y-104119671D01*
X168871393Y-104103607D01*
X168855329Y-104085883D01*
X168841079Y-104066670D01*
X168828782Y-104046153D01*
X168818554Y-104024529D01*
X168810496Y-104002007D01*
X168804684Y-103978803D01*
X168801174Y-103955142D01*
X168800000Y-103931250D01*
X168800000Y-103443750D01*
X168801174Y-103419858D01*
X168804684Y-103396197D01*
X168810496Y-103372993D01*
X168818554Y-103350471D01*
X168828782Y-103328847D01*
X168841079Y-103308330D01*
X168855329Y-103289117D01*
X168871393Y-103271393D01*
X168889117Y-103255329D01*
X168908330Y-103241079D01*
X168928847Y-103228782D01*
X168950471Y-103218554D01*
X168972993Y-103210496D01*
X168996197Y-103204684D01*
X169019858Y-103201174D01*
X169043750Y-103200000D01*
X169956250Y-103200000D01*
X169980142Y-103201174D01*
X169980142Y-103201174D01*
G37*
D11*
X169500000Y-103687500D03*
D12*
X131700000Y-133050000D03*
X169300000Y-133050000D03*
D17*
X135300000Y-111625000D03*
X132000000Y-111625000D03*
D12*
X131700000Y-126050000D03*
X169300000Y-126050000D03*
D15*
X138200000Y-97450000D03*
D10*
G36*
X144805142Y-124126174D02*
G01*
X144828803Y-124129684D01*
X144852007Y-124135496D01*
X144874529Y-124143554D01*
X144896153Y-124153782D01*
X144916670Y-124166079D01*
X144935883Y-124180329D01*
X144953607Y-124196393D01*
X144969671Y-124214117D01*
X144983921Y-124233330D01*
X144996218Y-124253847D01*
X145006446Y-124275471D01*
X145014504Y-124297993D01*
X145020316Y-124321197D01*
X145023826Y-124344858D01*
X145025000Y-124368750D01*
X145025000Y-125281250D01*
X145023826Y-125305142D01*
X145020316Y-125328803D01*
X145014504Y-125352007D01*
X145006446Y-125374529D01*
X144996218Y-125396153D01*
X144983921Y-125416670D01*
X144969671Y-125435883D01*
X144953607Y-125453607D01*
X144935883Y-125469671D01*
X144916670Y-125483921D01*
X144896153Y-125496218D01*
X144874529Y-125506446D01*
X144852007Y-125514504D01*
X144828803Y-125520316D01*
X144805142Y-125523826D01*
X144781250Y-125525000D01*
X144293750Y-125525000D01*
X144269858Y-125523826D01*
X144246197Y-125520316D01*
X144222993Y-125514504D01*
X144200471Y-125506446D01*
X144178847Y-125496218D01*
X144158330Y-125483921D01*
X144139117Y-125469671D01*
X144121393Y-125453607D01*
X144105329Y-125435883D01*
X144091079Y-125416670D01*
X144078782Y-125396153D01*
X144068554Y-125374529D01*
X144060496Y-125352007D01*
X144054684Y-125328803D01*
X144051174Y-125305142D01*
X144050000Y-125281250D01*
X144050000Y-124368750D01*
X144051174Y-124344858D01*
X144054684Y-124321197D01*
X144060496Y-124297993D01*
X144068554Y-124275471D01*
X144078782Y-124253847D01*
X144091079Y-124233330D01*
X144105329Y-124214117D01*
X144121393Y-124196393D01*
X144139117Y-124180329D01*
X144158330Y-124166079D01*
X144178847Y-124153782D01*
X144200471Y-124143554D01*
X144222993Y-124135496D01*
X144246197Y-124129684D01*
X144269858Y-124126174D01*
X144293750Y-124125000D01*
X144781250Y-124125000D01*
X144805142Y-124126174D01*
X144805142Y-124126174D01*
G37*
D11*
X144537500Y-124825000D03*
D10*
G36*
X142930142Y-124126174D02*
G01*
X142953803Y-124129684D01*
X142977007Y-124135496D01*
X142999529Y-124143554D01*
X143021153Y-124153782D01*
X143041670Y-124166079D01*
X143060883Y-124180329D01*
X143078607Y-124196393D01*
X143094671Y-124214117D01*
X143108921Y-124233330D01*
X143121218Y-124253847D01*
X143131446Y-124275471D01*
X143139504Y-124297993D01*
X143145316Y-124321197D01*
X143148826Y-124344858D01*
X143150000Y-124368750D01*
X143150000Y-125281250D01*
X143148826Y-125305142D01*
X143145316Y-125328803D01*
X143139504Y-125352007D01*
X143131446Y-125374529D01*
X143121218Y-125396153D01*
X143108921Y-125416670D01*
X143094671Y-125435883D01*
X143078607Y-125453607D01*
X143060883Y-125469671D01*
X143041670Y-125483921D01*
X143021153Y-125496218D01*
X142999529Y-125506446D01*
X142977007Y-125514504D01*
X142953803Y-125520316D01*
X142930142Y-125523826D01*
X142906250Y-125525000D01*
X142418750Y-125525000D01*
X142394858Y-125523826D01*
X142371197Y-125520316D01*
X142347993Y-125514504D01*
X142325471Y-125506446D01*
X142303847Y-125496218D01*
X142283330Y-125483921D01*
X142264117Y-125469671D01*
X142246393Y-125453607D01*
X142230329Y-125435883D01*
X142216079Y-125416670D01*
X142203782Y-125396153D01*
X142193554Y-125374529D01*
X142185496Y-125352007D01*
X142179684Y-125328803D01*
X142176174Y-125305142D01*
X142175000Y-125281250D01*
X142175000Y-124368750D01*
X142176174Y-124344858D01*
X142179684Y-124321197D01*
X142185496Y-124297993D01*
X142193554Y-124275471D01*
X142203782Y-124253847D01*
X142216079Y-124233330D01*
X142230329Y-124214117D01*
X142246393Y-124196393D01*
X142264117Y-124180329D01*
X142283330Y-124166079D01*
X142303847Y-124153782D01*
X142325471Y-124143554D01*
X142347993Y-124135496D01*
X142371197Y-124129684D01*
X142394858Y-124126174D01*
X142418750Y-124125000D01*
X142906250Y-124125000D01*
X142930142Y-124126174D01*
X142930142Y-124126174D01*
G37*
D11*
X142662500Y-124825000D03*
D10*
G36*
X156655142Y-124126174D02*
G01*
X156678803Y-124129684D01*
X156702007Y-124135496D01*
X156724529Y-124143554D01*
X156746153Y-124153782D01*
X156766670Y-124166079D01*
X156785883Y-124180329D01*
X156803607Y-124196393D01*
X156819671Y-124214117D01*
X156833921Y-124233330D01*
X156846218Y-124253847D01*
X156856446Y-124275471D01*
X156864504Y-124297993D01*
X156870316Y-124321197D01*
X156873826Y-124344858D01*
X156875000Y-124368750D01*
X156875000Y-125281250D01*
X156873826Y-125305142D01*
X156870316Y-125328803D01*
X156864504Y-125352007D01*
X156856446Y-125374529D01*
X156846218Y-125396153D01*
X156833921Y-125416670D01*
X156819671Y-125435883D01*
X156803607Y-125453607D01*
X156785883Y-125469671D01*
X156766670Y-125483921D01*
X156746153Y-125496218D01*
X156724529Y-125506446D01*
X156702007Y-125514504D01*
X156678803Y-125520316D01*
X156655142Y-125523826D01*
X156631250Y-125525000D01*
X156143750Y-125525000D01*
X156119858Y-125523826D01*
X156096197Y-125520316D01*
X156072993Y-125514504D01*
X156050471Y-125506446D01*
X156028847Y-125496218D01*
X156008330Y-125483921D01*
X155989117Y-125469671D01*
X155971393Y-125453607D01*
X155955329Y-125435883D01*
X155941079Y-125416670D01*
X155928782Y-125396153D01*
X155918554Y-125374529D01*
X155910496Y-125352007D01*
X155904684Y-125328803D01*
X155901174Y-125305142D01*
X155900000Y-125281250D01*
X155900000Y-124368750D01*
X155901174Y-124344858D01*
X155904684Y-124321197D01*
X155910496Y-124297993D01*
X155918554Y-124275471D01*
X155928782Y-124253847D01*
X155941079Y-124233330D01*
X155955329Y-124214117D01*
X155971393Y-124196393D01*
X155989117Y-124180329D01*
X156008330Y-124166079D01*
X156028847Y-124153782D01*
X156050471Y-124143554D01*
X156072993Y-124135496D01*
X156096197Y-124129684D01*
X156119858Y-124126174D01*
X156143750Y-124125000D01*
X156631250Y-124125000D01*
X156655142Y-124126174D01*
X156655142Y-124126174D01*
G37*
D11*
X156387500Y-124825000D03*
D10*
G36*
X158530142Y-124126174D02*
G01*
X158553803Y-124129684D01*
X158577007Y-124135496D01*
X158599529Y-124143554D01*
X158621153Y-124153782D01*
X158641670Y-124166079D01*
X158660883Y-124180329D01*
X158678607Y-124196393D01*
X158694671Y-124214117D01*
X158708921Y-124233330D01*
X158721218Y-124253847D01*
X158731446Y-124275471D01*
X158739504Y-124297993D01*
X158745316Y-124321197D01*
X158748826Y-124344858D01*
X158750000Y-124368750D01*
X158750000Y-125281250D01*
X158748826Y-125305142D01*
X158745316Y-125328803D01*
X158739504Y-125352007D01*
X158731446Y-125374529D01*
X158721218Y-125396153D01*
X158708921Y-125416670D01*
X158694671Y-125435883D01*
X158678607Y-125453607D01*
X158660883Y-125469671D01*
X158641670Y-125483921D01*
X158621153Y-125496218D01*
X158599529Y-125506446D01*
X158577007Y-125514504D01*
X158553803Y-125520316D01*
X158530142Y-125523826D01*
X158506250Y-125525000D01*
X158018750Y-125525000D01*
X157994858Y-125523826D01*
X157971197Y-125520316D01*
X157947993Y-125514504D01*
X157925471Y-125506446D01*
X157903847Y-125496218D01*
X157883330Y-125483921D01*
X157864117Y-125469671D01*
X157846393Y-125453607D01*
X157830329Y-125435883D01*
X157816079Y-125416670D01*
X157803782Y-125396153D01*
X157793554Y-125374529D01*
X157785496Y-125352007D01*
X157779684Y-125328803D01*
X157776174Y-125305142D01*
X157775000Y-125281250D01*
X157775000Y-124368750D01*
X157776174Y-124344858D01*
X157779684Y-124321197D01*
X157785496Y-124297993D01*
X157793554Y-124275471D01*
X157803782Y-124253847D01*
X157816079Y-124233330D01*
X157830329Y-124214117D01*
X157846393Y-124196393D01*
X157864117Y-124180329D01*
X157883330Y-124166079D01*
X157903847Y-124153782D01*
X157925471Y-124143554D01*
X157947993Y-124135496D01*
X157971197Y-124129684D01*
X157994858Y-124126174D01*
X158018750Y-124125000D01*
X158506250Y-124125000D01*
X158530142Y-124126174D01*
X158530142Y-124126174D01*
G37*
D11*
X158262500Y-124825000D03*
D15*
X140740000Y-97450000D03*
X143280000Y-97450000D03*
D18*
X155175000Y-96700000D03*
X145825000Y-96700000D03*
D10*
G36*
X138930142Y-124126174D02*
G01*
X138953803Y-124129684D01*
X138977007Y-124135496D01*
X138999529Y-124143554D01*
X139021153Y-124153782D01*
X139041670Y-124166079D01*
X139060883Y-124180329D01*
X139078607Y-124196393D01*
X139094671Y-124214117D01*
X139108921Y-124233330D01*
X139121218Y-124253847D01*
X139131446Y-124275471D01*
X139139504Y-124297993D01*
X139145316Y-124321197D01*
X139148826Y-124344858D01*
X139150000Y-124368750D01*
X139150000Y-125281250D01*
X139148826Y-125305142D01*
X139145316Y-125328803D01*
X139139504Y-125352007D01*
X139131446Y-125374529D01*
X139121218Y-125396153D01*
X139108921Y-125416670D01*
X139094671Y-125435883D01*
X139078607Y-125453607D01*
X139060883Y-125469671D01*
X139041670Y-125483921D01*
X139021153Y-125496218D01*
X138999529Y-125506446D01*
X138977007Y-125514504D01*
X138953803Y-125520316D01*
X138930142Y-125523826D01*
X138906250Y-125525000D01*
X138418750Y-125525000D01*
X138394858Y-125523826D01*
X138371197Y-125520316D01*
X138347993Y-125514504D01*
X138325471Y-125506446D01*
X138303847Y-125496218D01*
X138283330Y-125483921D01*
X138264117Y-125469671D01*
X138246393Y-125453607D01*
X138230329Y-125435883D01*
X138216079Y-125416670D01*
X138203782Y-125396153D01*
X138193554Y-125374529D01*
X138185496Y-125352007D01*
X138179684Y-125328803D01*
X138176174Y-125305142D01*
X138175000Y-125281250D01*
X138175000Y-124368750D01*
X138176174Y-124344858D01*
X138179684Y-124321197D01*
X138185496Y-124297993D01*
X138193554Y-124275471D01*
X138203782Y-124253847D01*
X138216079Y-124233330D01*
X138230329Y-124214117D01*
X138246393Y-124196393D01*
X138264117Y-124180329D01*
X138283330Y-124166079D01*
X138303847Y-124153782D01*
X138325471Y-124143554D01*
X138347993Y-124135496D01*
X138371197Y-124129684D01*
X138394858Y-124126174D01*
X138418750Y-124125000D01*
X138906250Y-124125000D01*
X138930142Y-124126174D01*
X138930142Y-124126174D01*
G37*
D11*
X138662500Y-124825000D03*
D10*
G36*
X140805142Y-124126174D02*
G01*
X140828803Y-124129684D01*
X140852007Y-124135496D01*
X140874529Y-124143554D01*
X140896153Y-124153782D01*
X140916670Y-124166079D01*
X140935883Y-124180329D01*
X140953607Y-124196393D01*
X140969671Y-124214117D01*
X140983921Y-124233330D01*
X140996218Y-124253847D01*
X141006446Y-124275471D01*
X141014504Y-124297993D01*
X141020316Y-124321197D01*
X141023826Y-124344858D01*
X141025000Y-124368750D01*
X141025000Y-125281250D01*
X141023826Y-125305142D01*
X141020316Y-125328803D01*
X141014504Y-125352007D01*
X141006446Y-125374529D01*
X140996218Y-125396153D01*
X140983921Y-125416670D01*
X140969671Y-125435883D01*
X140953607Y-125453607D01*
X140935883Y-125469671D01*
X140916670Y-125483921D01*
X140896153Y-125496218D01*
X140874529Y-125506446D01*
X140852007Y-125514504D01*
X140828803Y-125520316D01*
X140805142Y-125523826D01*
X140781250Y-125525000D01*
X140293750Y-125525000D01*
X140269858Y-125523826D01*
X140246197Y-125520316D01*
X140222993Y-125514504D01*
X140200471Y-125506446D01*
X140178847Y-125496218D01*
X140158330Y-125483921D01*
X140139117Y-125469671D01*
X140121393Y-125453607D01*
X140105329Y-125435883D01*
X140091079Y-125416670D01*
X140078782Y-125396153D01*
X140068554Y-125374529D01*
X140060496Y-125352007D01*
X140054684Y-125328803D01*
X140051174Y-125305142D01*
X140050000Y-125281250D01*
X140050000Y-124368750D01*
X140051174Y-124344858D01*
X140054684Y-124321197D01*
X140060496Y-124297993D01*
X140068554Y-124275471D01*
X140078782Y-124253847D01*
X140091079Y-124233330D01*
X140105329Y-124214117D01*
X140121393Y-124196393D01*
X140139117Y-124180329D01*
X140158330Y-124166079D01*
X140178847Y-124153782D01*
X140200471Y-124143554D01*
X140222993Y-124135496D01*
X140246197Y-124129684D01*
X140269858Y-124126174D01*
X140293750Y-124125000D01*
X140781250Y-124125000D01*
X140805142Y-124126174D01*
X140805142Y-124126174D01*
G37*
D11*
X140537500Y-124825000D03*
D10*
G36*
X160655142Y-124126174D02*
G01*
X160678803Y-124129684D01*
X160702007Y-124135496D01*
X160724529Y-124143554D01*
X160746153Y-124153782D01*
X160766670Y-124166079D01*
X160785883Y-124180329D01*
X160803607Y-124196393D01*
X160819671Y-124214117D01*
X160833921Y-124233330D01*
X160846218Y-124253847D01*
X160856446Y-124275471D01*
X160864504Y-124297993D01*
X160870316Y-124321197D01*
X160873826Y-124344858D01*
X160875000Y-124368750D01*
X160875000Y-125281250D01*
X160873826Y-125305142D01*
X160870316Y-125328803D01*
X160864504Y-125352007D01*
X160856446Y-125374529D01*
X160846218Y-125396153D01*
X160833921Y-125416670D01*
X160819671Y-125435883D01*
X160803607Y-125453607D01*
X160785883Y-125469671D01*
X160766670Y-125483921D01*
X160746153Y-125496218D01*
X160724529Y-125506446D01*
X160702007Y-125514504D01*
X160678803Y-125520316D01*
X160655142Y-125523826D01*
X160631250Y-125525000D01*
X160143750Y-125525000D01*
X160119858Y-125523826D01*
X160096197Y-125520316D01*
X160072993Y-125514504D01*
X160050471Y-125506446D01*
X160028847Y-125496218D01*
X160008330Y-125483921D01*
X159989117Y-125469671D01*
X159971393Y-125453607D01*
X159955329Y-125435883D01*
X159941079Y-125416670D01*
X159928782Y-125396153D01*
X159918554Y-125374529D01*
X159910496Y-125352007D01*
X159904684Y-125328803D01*
X159901174Y-125305142D01*
X159900000Y-125281250D01*
X159900000Y-124368750D01*
X159901174Y-124344858D01*
X159904684Y-124321197D01*
X159910496Y-124297993D01*
X159918554Y-124275471D01*
X159928782Y-124253847D01*
X159941079Y-124233330D01*
X159955329Y-124214117D01*
X159971393Y-124196393D01*
X159989117Y-124180329D01*
X160008330Y-124166079D01*
X160028847Y-124153782D01*
X160050471Y-124143554D01*
X160072993Y-124135496D01*
X160096197Y-124129684D01*
X160119858Y-124126174D01*
X160143750Y-124125000D01*
X160631250Y-124125000D01*
X160655142Y-124126174D01*
X160655142Y-124126174D01*
G37*
D11*
X160387500Y-124825000D03*
D10*
G36*
X162530142Y-124126174D02*
G01*
X162553803Y-124129684D01*
X162577007Y-124135496D01*
X162599529Y-124143554D01*
X162621153Y-124153782D01*
X162641670Y-124166079D01*
X162660883Y-124180329D01*
X162678607Y-124196393D01*
X162694671Y-124214117D01*
X162708921Y-124233330D01*
X162721218Y-124253847D01*
X162731446Y-124275471D01*
X162739504Y-124297993D01*
X162745316Y-124321197D01*
X162748826Y-124344858D01*
X162750000Y-124368750D01*
X162750000Y-125281250D01*
X162748826Y-125305142D01*
X162745316Y-125328803D01*
X162739504Y-125352007D01*
X162731446Y-125374529D01*
X162721218Y-125396153D01*
X162708921Y-125416670D01*
X162694671Y-125435883D01*
X162678607Y-125453607D01*
X162660883Y-125469671D01*
X162641670Y-125483921D01*
X162621153Y-125496218D01*
X162599529Y-125506446D01*
X162577007Y-125514504D01*
X162553803Y-125520316D01*
X162530142Y-125523826D01*
X162506250Y-125525000D01*
X162018750Y-125525000D01*
X161994858Y-125523826D01*
X161971197Y-125520316D01*
X161947993Y-125514504D01*
X161925471Y-125506446D01*
X161903847Y-125496218D01*
X161883330Y-125483921D01*
X161864117Y-125469671D01*
X161846393Y-125453607D01*
X161830329Y-125435883D01*
X161816079Y-125416670D01*
X161803782Y-125396153D01*
X161793554Y-125374529D01*
X161785496Y-125352007D01*
X161779684Y-125328803D01*
X161776174Y-125305142D01*
X161775000Y-125281250D01*
X161775000Y-124368750D01*
X161776174Y-124344858D01*
X161779684Y-124321197D01*
X161785496Y-124297993D01*
X161793554Y-124275471D01*
X161803782Y-124253847D01*
X161816079Y-124233330D01*
X161830329Y-124214117D01*
X161846393Y-124196393D01*
X161864117Y-124180329D01*
X161883330Y-124166079D01*
X161903847Y-124153782D01*
X161925471Y-124143554D01*
X161947993Y-124135496D01*
X161971197Y-124129684D01*
X161994858Y-124126174D01*
X162018750Y-124125000D01*
X162506250Y-124125000D01*
X162530142Y-124126174D01*
X162530142Y-124126174D01*
G37*
D11*
X162262500Y-124825000D03*
M02*
