G04 #@! TF.GenerationSoftware,KiCad,Pcbnew,(5.1.4)-1*
G04 #@! TF.CreationDate,2019-10-10T18:21:12+02:00*
G04 #@! TF.ProjectId,Bottom,426f7474-6f6d-42e6-9b69-6361645f7063,rev?*
G04 #@! TF.SameCoordinates,Original*
G04 #@! TF.FileFunction,Soldermask,Top*
G04 #@! TF.FilePolarity,Negative*
%FSLAX46Y46*%
G04 Gerber Fmt 4.6, Leading zero omitted, Abs format (unit mm)*
G04 Created by KiCad (PCBNEW (5.1.4)-1) date 2019-10-10 18:21:12*
%MOMM*%
%LPD*%
G04 APERTURE LIST*
%ADD10R,1.000000X0.650000*%
%ADD11C,1.000000*%
%ADD12R,1.000000X4.000000*%
%ADD13R,2.500000X5.000000*%
%ADD14R,2.310000X2.460000*%
%ADD15R,0.450000X1.050000*%
%ADD16C,0.100000*%
%ADD17C,0.975000*%
G04 APERTURE END LIST*
D10*
X157550000Y-86550000D03*
X157550000Y-85450000D03*
X154350000Y-85450000D03*
X154350000Y-86550000D03*
X191600000Y-86550000D03*
X191600000Y-85450000D03*
X188400000Y-85450000D03*
X188400000Y-86550000D03*
D11*
X179990000Y-113505000D03*
X179990000Y-110855000D03*
X180590000Y-114830000D03*
X180590000Y-112180000D03*
X166010000Y-112195000D03*
X166010000Y-114845000D03*
X165410000Y-110870000D03*
X165410000Y-113520000D03*
D12*
X170450000Y-79950000D03*
X167910000Y-79950000D03*
X165370000Y-79950000D03*
X162830000Y-79950000D03*
X160290000Y-79950000D03*
X185690000Y-79950000D03*
X172990000Y-79950000D03*
X175530000Y-79950000D03*
X178070000Y-79950000D03*
X180610000Y-79950000D03*
X183150000Y-79950000D03*
D13*
X188300000Y-80450000D03*
X154200000Y-80450000D03*
X191800000Y-80450000D03*
X157700000Y-80450000D03*
D14*
X166000000Y-98900000D03*
D15*
X163725000Y-96125000D03*
X164375000Y-96125000D03*
X165025000Y-96125000D03*
X165675000Y-96125000D03*
X166325000Y-96125000D03*
X166975000Y-96125000D03*
X167625000Y-96125000D03*
X168275000Y-96125000D03*
X168275000Y-101675000D03*
X167625000Y-101675000D03*
X166975000Y-101675000D03*
X166325000Y-101675000D03*
X165675000Y-101675000D03*
X165025000Y-101675000D03*
X164375000Y-101675000D03*
X163725000Y-101675000D03*
D14*
X180100000Y-98900000D03*
D15*
X177825000Y-96125000D03*
X178475000Y-96125000D03*
X179125000Y-96125000D03*
X179775000Y-96125000D03*
X180425000Y-96125000D03*
X181075000Y-96125000D03*
X181725000Y-96125000D03*
X182375000Y-96125000D03*
X182375000Y-101675000D03*
X181725000Y-101675000D03*
X181075000Y-101675000D03*
X180425000Y-101675000D03*
X179775000Y-101675000D03*
X179125000Y-101675000D03*
X178475000Y-101675000D03*
X177825000Y-101675000D03*
D16*
G36*
X168380142Y-88876174D02*
G01*
X168403803Y-88879684D01*
X168427007Y-88885496D01*
X168449529Y-88893554D01*
X168471153Y-88903782D01*
X168491670Y-88916079D01*
X168510883Y-88930329D01*
X168528607Y-88946393D01*
X168544671Y-88964117D01*
X168558921Y-88983330D01*
X168571218Y-89003847D01*
X168581446Y-89025471D01*
X168589504Y-89047993D01*
X168595316Y-89071197D01*
X168598826Y-89094858D01*
X168600000Y-89118750D01*
X168600000Y-89606250D01*
X168598826Y-89630142D01*
X168595316Y-89653803D01*
X168589504Y-89677007D01*
X168581446Y-89699529D01*
X168571218Y-89721153D01*
X168558921Y-89741670D01*
X168544671Y-89760883D01*
X168528607Y-89778607D01*
X168510883Y-89794671D01*
X168491670Y-89808921D01*
X168471153Y-89821218D01*
X168449529Y-89831446D01*
X168427007Y-89839504D01*
X168403803Y-89845316D01*
X168380142Y-89848826D01*
X168356250Y-89850000D01*
X167443750Y-89850000D01*
X167419858Y-89848826D01*
X167396197Y-89845316D01*
X167372993Y-89839504D01*
X167350471Y-89831446D01*
X167328847Y-89821218D01*
X167308330Y-89808921D01*
X167289117Y-89794671D01*
X167271393Y-89778607D01*
X167255329Y-89760883D01*
X167241079Y-89741670D01*
X167228782Y-89721153D01*
X167218554Y-89699529D01*
X167210496Y-89677007D01*
X167204684Y-89653803D01*
X167201174Y-89630142D01*
X167200000Y-89606250D01*
X167200000Y-89118750D01*
X167201174Y-89094858D01*
X167204684Y-89071197D01*
X167210496Y-89047993D01*
X167218554Y-89025471D01*
X167228782Y-89003847D01*
X167241079Y-88983330D01*
X167255329Y-88964117D01*
X167271393Y-88946393D01*
X167289117Y-88930329D01*
X167308330Y-88916079D01*
X167328847Y-88903782D01*
X167350471Y-88893554D01*
X167372993Y-88885496D01*
X167396197Y-88879684D01*
X167419858Y-88876174D01*
X167443750Y-88875000D01*
X168356250Y-88875000D01*
X168380142Y-88876174D01*
X168380142Y-88876174D01*
G37*
D17*
X167900000Y-89362500D03*
D16*
G36*
X168380142Y-90751174D02*
G01*
X168403803Y-90754684D01*
X168427007Y-90760496D01*
X168449529Y-90768554D01*
X168471153Y-90778782D01*
X168491670Y-90791079D01*
X168510883Y-90805329D01*
X168528607Y-90821393D01*
X168544671Y-90839117D01*
X168558921Y-90858330D01*
X168571218Y-90878847D01*
X168581446Y-90900471D01*
X168589504Y-90922993D01*
X168595316Y-90946197D01*
X168598826Y-90969858D01*
X168600000Y-90993750D01*
X168600000Y-91481250D01*
X168598826Y-91505142D01*
X168595316Y-91528803D01*
X168589504Y-91552007D01*
X168581446Y-91574529D01*
X168571218Y-91596153D01*
X168558921Y-91616670D01*
X168544671Y-91635883D01*
X168528607Y-91653607D01*
X168510883Y-91669671D01*
X168491670Y-91683921D01*
X168471153Y-91696218D01*
X168449529Y-91706446D01*
X168427007Y-91714504D01*
X168403803Y-91720316D01*
X168380142Y-91723826D01*
X168356250Y-91725000D01*
X167443750Y-91725000D01*
X167419858Y-91723826D01*
X167396197Y-91720316D01*
X167372993Y-91714504D01*
X167350471Y-91706446D01*
X167328847Y-91696218D01*
X167308330Y-91683921D01*
X167289117Y-91669671D01*
X167271393Y-91653607D01*
X167255329Y-91635883D01*
X167241079Y-91616670D01*
X167228782Y-91596153D01*
X167218554Y-91574529D01*
X167210496Y-91552007D01*
X167204684Y-91528803D01*
X167201174Y-91505142D01*
X167200000Y-91481250D01*
X167200000Y-90993750D01*
X167201174Y-90969858D01*
X167204684Y-90946197D01*
X167210496Y-90922993D01*
X167218554Y-90900471D01*
X167228782Y-90878847D01*
X167241079Y-90858330D01*
X167255329Y-90839117D01*
X167271393Y-90821393D01*
X167289117Y-90805329D01*
X167308330Y-90791079D01*
X167328847Y-90778782D01*
X167350471Y-90768554D01*
X167372993Y-90760496D01*
X167396197Y-90754684D01*
X167419858Y-90751174D01*
X167443750Y-90750000D01*
X168356250Y-90750000D01*
X168380142Y-90751174D01*
X168380142Y-90751174D01*
G37*
D17*
X167900000Y-91237500D03*
D16*
G36*
X164480142Y-88876174D02*
G01*
X164503803Y-88879684D01*
X164527007Y-88885496D01*
X164549529Y-88893554D01*
X164571153Y-88903782D01*
X164591670Y-88916079D01*
X164610883Y-88930329D01*
X164628607Y-88946393D01*
X164644671Y-88964117D01*
X164658921Y-88983330D01*
X164671218Y-89003847D01*
X164681446Y-89025471D01*
X164689504Y-89047993D01*
X164695316Y-89071197D01*
X164698826Y-89094858D01*
X164700000Y-89118750D01*
X164700000Y-89606250D01*
X164698826Y-89630142D01*
X164695316Y-89653803D01*
X164689504Y-89677007D01*
X164681446Y-89699529D01*
X164671218Y-89721153D01*
X164658921Y-89741670D01*
X164644671Y-89760883D01*
X164628607Y-89778607D01*
X164610883Y-89794671D01*
X164591670Y-89808921D01*
X164571153Y-89821218D01*
X164549529Y-89831446D01*
X164527007Y-89839504D01*
X164503803Y-89845316D01*
X164480142Y-89848826D01*
X164456250Y-89850000D01*
X163543750Y-89850000D01*
X163519858Y-89848826D01*
X163496197Y-89845316D01*
X163472993Y-89839504D01*
X163450471Y-89831446D01*
X163428847Y-89821218D01*
X163408330Y-89808921D01*
X163389117Y-89794671D01*
X163371393Y-89778607D01*
X163355329Y-89760883D01*
X163341079Y-89741670D01*
X163328782Y-89721153D01*
X163318554Y-89699529D01*
X163310496Y-89677007D01*
X163304684Y-89653803D01*
X163301174Y-89630142D01*
X163300000Y-89606250D01*
X163300000Y-89118750D01*
X163301174Y-89094858D01*
X163304684Y-89071197D01*
X163310496Y-89047993D01*
X163318554Y-89025471D01*
X163328782Y-89003847D01*
X163341079Y-88983330D01*
X163355329Y-88964117D01*
X163371393Y-88946393D01*
X163389117Y-88930329D01*
X163408330Y-88916079D01*
X163428847Y-88903782D01*
X163450471Y-88893554D01*
X163472993Y-88885496D01*
X163496197Y-88879684D01*
X163519858Y-88876174D01*
X163543750Y-88875000D01*
X164456250Y-88875000D01*
X164480142Y-88876174D01*
X164480142Y-88876174D01*
G37*
D17*
X164000000Y-89362500D03*
D16*
G36*
X164480142Y-90751174D02*
G01*
X164503803Y-90754684D01*
X164527007Y-90760496D01*
X164549529Y-90768554D01*
X164571153Y-90778782D01*
X164591670Y-90791079D01*
X164610883Y-90805329D01*
X164628607Y-90821393D01*
X164644671Y-90839117D01*
X164658921Y-90858330D01*
X164671218Y-90878847D01*
X164681446Y-90900471D01*
X164689504Y-90922993D01*
X164695316Y-90946197D01*
X164698826Y-90969858D01*
X164700000Y-90993750D01*
X164700000Y-91481250D01*
X164698826Y-91505142D01*
X164695316Y-91528803D01*
X164689504Y-91552007D01*
X164681446Y-91574529D01*
X164671218Y-91596153D01*
X164658921Y-91616670D01*
X164644671Y-91635883D01*
X164628607Y-91653607D01*
X164610883Y-91669671D01*
X164591670Y-91683921D01*
X164571153Y-91696218D01*
X164549529Y-91706446D01*
X164527007Y-91714504D01*
X164503803Y-91720316D01*
X164480142Y-91723826D01*
X164456250Y-91725000D01*
X163543750Y-91725000D01*
X163519858Y-91723826D01*
X163496197Y-91720316D01*
X163472993Y-91714504D01*
X163450471Y-91706446D01*
X163428847Y-91696218D01*
X163408330Y-91683921D01*
X163389117Y-91669671D01*
X163371393Y-91653607D01*
X163355329Y-91635883D01*
X163341079Y-91616670D01*
X163328782Y-91596153D01*
X163318554Y-91574529D01*
X163310496Y-91552007D01*
X163304684Y-91528803D01*
X163301174Y-91505142D01*
X163300000Y-91481250D01*
X163300000Y-90993750D01*
X163301174Y-90969858D01*
X163304684Y-90946197D01*
X163310496Y-90922993D01*
X163318554Y-90900471D01*
X163328782Y-90878847D01*
X163341079Y-90858330D01*
X163355329Y-90839117D01*
X163371393Y-90821393D01*
X163389117Y-90805329D01*
X163408330Y-90791079D01*
X163428847Y-90778782D01*
X163450471Y-90768554D01*
X163472993Y-90760496D01*
X163496197Y-90754684D01*
X163519858Y-90751174D01*
X163543750Y-90750000D01*
X164456250Y-90750000D01*
X164480142Y-90751174D01*
X164480142Y-90751174D01*
G37*
D17*
X164000000Y-91237500D03*
D16*
G36*
X165330142Y-92651174D02*
G01*
X165353803Y-92654684D01*
X165377007Y-92660496D01*
X165399529Y-92668554D01*
X165421153Y-92678782D01*
X165441670Y-92691079D01*
X165460883Y-92705329D01*
X165478607Y-92721393D01*
X165494671Y-92739117D01*
X165508921Y-92758330D01*
X165521218Y-92778847D01*
X165531446Y-92800471D01*
X165539504Y-92822993D01*
X165545316Y-92846197D01*
X165548826Y-92869858D01*
X165550000Y-92893750D01*
X165550000Y-93806250D01*
X165548826Y-93830142D01*
X165545316Y-93853803D01*
X165539504Y-93877007D01*
X165531446Y-93899529D01*
X165521218Y-93921153D01*
X165508921Y-93941670D01*
X165494671Y-93960883D01*
X165478607Y-93978607D01*
X165460883Y-93994671D01*
X165441670Y-94008921D01*
X165421153Y-94021218D01*
X165399529Y-94031446D01*
X165377007Y-94039504D01*
X165353803Y-94045316D01*
X165330142Y-94048826D01*
X165306250Y-94050000D01*
X164818750Y-94050000D01*
X164794858Y-94048826D01*
X164771197Y-94045316D01*
X164747993Y-94039504D01*
X164725471Y-94031446D01*
X164703847Y-94021218D01*
X164683330Y-94008921D01*
X164664117Y-93994671D01*
X164646393Y-93978607D01*
X164630329Y-93960883D01*
X164616079Y-93941670D01*
X164603782Y-93921153D01*
X164593554Y-93899529D01*
X164585496Y-93877007D01*
X164579684Y-93853803D01*
X164576174Y-93830142D01*
X164575000Y-93806250D01*
X164575000Y-92893750D01*
X164576174Y-92869858D01*
X164579684Y-92846197D01*
X164585496Y-92822993D01*
X164593554Y-92800471D01*
X164603782Y-92778847D01*
X164616079Y-92758330D01*
X164630329Y-92739117D01*
X164646393Y-92721393D01*
X164664117Y-92705329D01*
X164683330Y-92691079D01*
X164703847Y-92678782D01*
X164725471Y-92668554D01*
X164747993Y-92660496D01*
X164771197Y-92654684D01*
X164794858Y-92651174D01*
X164818750Y-92650000D01*
X165306250Y-92650000D01*
X165330142Y-92651174D01*
X165330142Y-92651174D01*
G37*
D17*
X165062500Y-93350000D03*
D16*
G36*
X167205142Y-92651174D02*
G01*
X167228803Y-92654684D01*
X167252007Y-92660496D01*
X167274529Y-92668554D01*
X167296153Y-92678782D01*
X167316670Y-92691079D01*
X167335883Y-92705329D01*
X167353607Y-92721393D01*
X167369671Y-92739117D01*
X167383921Y-92758330D01*
X167396218Y-92778847D01*
X167406446Y-92800471D01*
X167414504Y-92822993D01*
X167420316Y-92846197D01*
X167423826Y-92869858D01*
X167425000Y-92893750D01*
X167425000Y-93806250D01*
X167423826Y-93830142D01*
X167420316Y-93853803D01*
X167414504Y-93877007D01*
X167406446Y-93899529D01*
X167396218Y-93921153D01*
X167383921Y-93941670D01*
X167369671Y-93960883D01*
X167353607Y-93978607D01*
X167335883Y-93994671D01*
X167316670Y-94008921D01*
X167296153Y-94021218D01*
X167274529Y-94031446D01*
X167252007Y-94039504D01*
X167228803Y-94045316D01*
X167205142Y-94048826D01*
X167181250Y-94050000D01*
X166693750Y-94050000D01*
X166669858Y-94048826D01*
X166646197Y-94045316D01*
X166622993Y-94039504D01*
X166600471Y-94031446D01*
X166578847Y-94021218D01*
X166558330Y-94008921D01*
X166539117Y-93994671D01*
X166521393Y-93978607D01*
X166505329Y-93960883D01*
X166491079Y-93941670D01*
X166478782Y-93921153D01*
X166468554Y-93899529D01*
X166460496Y-93877007D01*
X166454684Y-93853803D01*
X166451174Y-93830142D01*
X166450000Y-93806250D01*
X166450000Y-92893750D01*
X166451174Y-92869858D01*
X166454684Y-92846197D01*
X166460496Y-92822993D01*
X166468554Y-92800471D01*
X166478782Y-92778847D01*
X166491079Y-92758330D01*
X166505329Y-92739117D01*
X166521393Y-92721393D01*
X166539117Y-92705329D01*
X166558330Y-92691079D01*
X166578847Y-92678782D01*
X166600471Y-92668554D01*
X166622993Y-92660496D01*
X166646197Y-92654684D01*
X166669858Y-92651174D01*
X166693750Y-92650000D01*
X167181250Y-92650000D01*
X167205142Y-92651174D01*
X167205142Y-92651174D01*
G37*
D17*
X166937500Y-93350000D03*
D16*
G36*
X182480142Y-90751174D02*
G01*
X182503803Y-90754684D01*
X182527007Y-90760496D01*
X182549529Y-90768554D01*
X182571153Y-90778782D01*
X182591670Y-90791079D01*
X182610883Y-90805329D01*
X182628607Y-90821393D01*
X182644671Y-90839117D01*
X182658921Y-90858330D01*
X182671218Y-90878847D01*
X182681446Y-90900471D01*
X182689504Y-90922993D01*
X182695316Y-90946197D01*
X182698826Y-90969858D01*
X182700000Y-90993750D01*
X182700000Y-91481250D01*
X182698826Y-91505142D01*
X182695316Y-91528803D01*
X182689504Y-91552007D01*
X182681446Y-91574529D01*
X182671218Y-91596153D01*
X182658921Y-91616670D01*
X182644671Y-91635883D01*
X182628607Y-91653607D01*
X182610883Y-91669671D01*
X182591670Y-91683921D01*
X182571153Y-91696218D01*
X182549529Y-91706446D01*
X182527007Y-91714504D01*
X182503803Y-91720316D01*
X182480142Y-91723826D01*
X182456250Y-91725000D01*
X181543750Y-91725000D01*
X181519858Y-91723826D01*
X181496197Y-91720316D01*
X181472993Y-91714504D01*
X181450471Y-91706446D01*
X181428847Y-91696218D01*
X181408330Y-91683921D01*
X181389117Y-91669671D01*
X181371393Y-91653607D01*
X181355329Y-91635883D01*
X181341079Y-91616670D01*
X181328782Y-91596153D01*
X181318554Y-91574529D01*
X181310496Y-91552007D01*
X181304684Y-91528803D01*
X181301174Y-91505142D01*
X181300000Y-91481250D01*
X181300000Y-90993750D01*
X181301174Y-90969858D01*
X181304684Y-90946197D01*
X181310496Y-90922993D01*
X181318554Y-90900471D01*
X181328782Y-90878847D01*
X181341079Y-90858330D01*
X181355329Y-90839117D01*
X181371393Y-90821393D01*
X181389117Y-90805329D01*
X181408330Y-90791079D01*
X181428847Y-90778782D01*
X181450471Y-90768554D01*
X181472993Y-90760496D01*
X181496197Y-90754684D01*
X181519858Y-90751174D01*
X181543750Y-90750000D01*
X182456250Y-90750000D01*
X182480142Y-90751174D01*
X182480142Y-90751174D01*
G37*
D17*
X182000000Y-91237500D03*
D16*
G36*
X182480142Y-88876174D02*
G01*
X182503803Y-88879684D01*
X182527007Y-88885496D01*
X182549529Y-88893554D01*
X182571153Y-88903782D01*
X182591670Y-88916079D01*
X182610883Y-88930329D01*
X182628607Y-88946393D01*
X182644671Y-88964117D01*
X182658921Y-88983330D01*
X182671218Y-89003847D01*
X182681446Y-89025471D01*
X182689504Y-89047993D01*
X182695316Y-89071197D01*
X182698826Y-89094858D01*
X182700000Y-89118750D01*
X182700000Y-89606250D01*
X182698826Y-89630142D01*
X182695316Y-89653803D01*
X182689504Y-89677007D01*
X182681446Y-89699529D01*
X182671218Y-89721153D01*
X182658921Y-89741670D01*
X182644671Y-89760883D01*
X182628607Y-89778607D01*
X182610883Y-89794671D01*
X182591670Y-89808921D01*
X182571153Y-89821218D01*
X182549529Y-89831446D01*
X182527007Y-89839504D01*
X182503803Y-89845316D01*
X182480142Y-89848826D01*
X182456250Y-89850000D01*
X181543750Y-89850000D01*
X181519858Y-89848826D01*
X181496197Y-89845316D01*
X181472993Y-89839504D01*
X181450471Y-89831446D01*
X181428847Y-89821218D01*
X181408330Y-89808921D01*
X181389117Y-89794671D01*
X181371393Y-89778607D01*
X181355329Y-89760883D01*
X181341079Y-89741670D01*
X181328782Y-89721153D01*
X181318554Y-89699529D01*
X181310496Y-89677007D01*
X181304684Y-89653803D01*
X181301174Y-89630142D01*
X181300000Y-89606250D01*
X181300000Y-89118750D01*
X181301174Y-89094858D01*
X181304684Y-89071197D01*
X181310496Y-89047993D01*
X181318554Y-89025471D01*
X181328782Y-89003847D01*
X181341079Y-88983330D01*
X181355329Y-88964117D01*
X181371393Y-88946393D01*
X181389117Y-88930329D01*
X181408330Y-88916079D01*
X181428847Y-88903782D01*
X181450471Y-88893554D01*
X181472993Y-88885496D01*
X181496197Y-88879684D01*
X181519858Y-88876174D01*
X181543750Y-88875000D01*
X182456250Y-88875000D01*
X182480142Y-88876174D01*
X182480142Y-88876174D01*
G37*
D17*
X182000000Y-89362500D03*
D16*
G36*
X178580142Y-90751174D02*
G01*
X178603803Y-90754684D01*
X178627007Y-90760496D01*
X178649529Y-90768554D01*
X178671153Y-90778782D01*
X178691670Y-90791079D01*
X178710883Y-90805329D01*
X178728607Y-90821393D01*
X178744671Y-90839117D01*
X178758921Y-90858330D01*
X178771218Y-90878847D01*
X178781446Y-90900471D01*
X178789504Y-90922993D01*
X178795316Y-90946197D01*
X178798826Y-90969858D01*
X178800000Y-90993750D01*
X178800000Y-91481250D01*
X178798826Y-91505142D01*
X178795316Y-91528803D01*
X178789504Y-91552007D01*
X178781446Y-91574529D01*
X178771218Y-91596153D01*
X178758921Y-91616670D01*
X178744671Y-91635883D01*
X178728607Y-91653607D01*
X178710883Y-91669671D01*
X178691670Y-91683921D01*
X178671153Y-91696218D01*
X178649529Y-91706446D01*
X178627007Y-91714504D01*
X178603803Y-91720316D01*
X178580142Y-91723826D01*
X178556250Y-91725000D01*
X177643750Y-91725000D01*
X177619858Y-91723826D01*
X177596197Y-91720316D01*
X177572993Y-91714504D01*
X177550471Y-91706446D01*
X177528847Y-91696218D01*
X177508330Y-91683921D01*
X177489117Y-91669671D01*
X177471393Y-91653607D01*
X177455329Y-91635883D01*
X177441079Y-91616670D01*
X177428782Y-91596153D01*
X177418554Y-91574529D01*
X177410496Y-91552007D01*
X177404684Y-91528803D01*
X177401174Y-91505142D01*
X177400000Y-91481250D01*
X177400000Y-90993750D01*
X177401174Y-90969858D01*
X177404684Y-90946197D01*
X177410496Y-90922993D01*
X177418554Y-90900471D01*
X177428782Y-90878847D01*
X177441079Y-90858330D01*
X177455329Y-90839117D01*
X177471393Y-90821393D01*
X177489117Y-90805329D01*
X177508330Y-90791079D01*
X177528847Y-90778782D01*
X177550471Y-90768554D01*
X177572993Y-90760496D01*
X177596197Y-90754684D01*
X177619858Y-90751174D01*
X177643750Y-90750000D01*
X178556250Y-90750000D01*
X178580142Y-90751174D01*
X178580142Y-90751174D01*
G37*
D17*
X178100000Y-91237500D03*
D16*
G36*
X178580142Y-88876174D02*
G01*
X178603803Y-88879684D01*
X178627007Y-88885496D01*
X178649529Y-88893554D01*
X178671153Y-88903782D01*
X178691670Y-88916079D01*
X178710883Y-88930329D01*
X178728607Y-88946393D01*
X178744671Y-88964117D01*
X178758921Y-88983330D01*
X178771218Y-89003847D01*
X178781446Y-89025471D01*
X178789504Y-89047993D01*
X178795316Y-89071197D01*
X178798826Y-89094858D01*
X178800000Y-89118750D01*
X178800000Y-89606250D01*
X178798826Y-89630142D01*
X178795316Y-89653803D01*
X178789504Y-89677007D01*
X178781446Y-89699529D01*
X178771218Y-89721153D01*
X178758921Y-89741670D01*
X178744671Y-89760883D01*
X178728607Y-89778607D01*
X178710883Y-89794671D01*
X178691670Y-89808921D01*
X178671153Y-89821218D01*
X178649529Y-89831446D01*
X178627007Y-89839504D01*
X178603803Y-89845316D01*
X178580142Y-89848826D01*
X178556250Y-89850000D01*
X177643750Y-89850000D01*
X177619858Y-89848826D01*
X177596197Y-89845316D01*
X177572993Y-89839504D01*
X177550471Y-89831446D01*
X177528847Y-89821218D01*
X177508330Y-89808921D01*
X177489117Y-89794671D01*
X177471393Y-89778607D01*
X177455329Y-89760883D01*
X177441079Y-89741670D01*
X177428782Y-89721153D01*
X177418554Y-89699529D01*
X177410496Y-89677007D01*
X177404684Y-89653803D01*
X177401174Y-89630142D01*
X177400000Y-89606250D01*
X177400000Y-89118750D01*
X177401174Y-89094858D01*
X177404684Y-89071197D01*
X177410496Y-89047993D01*
X177418554Y-89025471D01*
X177428782Y-89003847D01*
X177441079Y-88983330D01*
X177455329Y-88964117D01*
X177471393Y-88946393D01*
X177489117Y-88930329D01*
X177508330Y-88916079D01*
X177528847Y-88903782D01*
X177550471Y-88893554D01*
X177572993Y-88885496D01*
X177596197Y-88879684D01*
X177619858Y-88876174D01*
X177643750Y-88875000D01*
X178556250Y-88875000D01*
X178580142Y-88876174D01*
X178580142Y-88876174D01*
G37*
D17*
X178100000Y-89362500D03*
D16*
G36*
X181305142Y-92651174D02*
G01*
X181328803Y-92654684D01*
X181352007Y-92660496D01*
X181374529Y-92668554D01*
X181396153Y-92678782D01*
X181416670Y-92691079D01*
X181435883Y-92705329D01*
X181453607Y-92721393D01*
X181469671Y-92739117D01*
X181483921Y-92758330D01*
X181496218Y-92778847D01*
X181506446Y-92800471D01*
X181514504Y-92822993D01*
X181520316Y-92846197D01*
X181523826Y-92869858D01*
X181525000Y-92893750D01*
X181525000Y-93806250D01*
X181523826Y-93830142D01*
X181520316Y-93853803D01*
X181514504Y-93877007D01*
X181506446Y-93899529D01*
X181496218Y-93921153D01*
X181483921Y-93941670D01*
X181469671Y-93960883D01*
X181453607Y-93978607D01*
X181435883Y-93994671D01*
X181416670Y-94008921D01*
X181396153Y-94021218D01*
X181374529Y-94031446D01*
X181352007Y-94039504D01*
X181328803Y-94045316D01*
X181305142Y-94048826D01*
X181281250Y-94050000D01*
X180793750Y-94050000D01*
X180769858Y-94048826D01*
X180746197Y-94045316D01*
X180722993Y-94039504D01*
X180700471Y-94031446D01*
X180678847Y-94021218D01*
X180658330Y-94008921D01*
X180639117Y-93994671D01*
X180621393Y-93978607D01*
X180605329Y-93960883D01*
X180591079Y-93941670D01*
X180578782Y-93921153D01*
X180568554Y-93899529D01*
X180560496Y-93877007D01*
X180554684Y-93853803D01*
X180551174Y-93830142D01*
X180550000Y-93806250D01*
X180550000Y-92893750D01*
X180551174Y-92869858D01*
X180554684Y-92846197D01*
X180560496Y-92822993D01*
X180568554Y-92800471D01*
X180578782Y-92778847D01*
X180591079Y-92758330D01*
X180605329Y-92739117D01*
X180621393Y-92721393D01*
X180639117Y-92705329D01*
X180658330Y-92691079D01*
X180678847Y-92678782D01*
X180700471Y-92668554D01*
X180722993Y-92660496D01*
X180746197Y-92654684D01*
X180769858Y-92651174D01*
X180793750Y-92650000D01*
X181281250Y-92650000D01*
X181305142Y-92651174D01*
X181305142Y-92651174D01*
G37*
D17*
X181037500Y-93350000D03*
D16*
G36*
X179430142Y-92651174D02*
G01*
X179453803Y-92654684D01*
X179477007Y-92660496D01*
X179499529Y-92668554D01*
X179521153Y-92678782D01*
X179541670Y-92691079D01*
X179560883Y-92705329D01*
X179578607Y-92721393D01*
X179594671Y-92739117D01*
X179608921Y-92758330D01*
X179621218Y-92778847D01*
X179631446Y-92800471D01*
X179639504Y-92822993D01*
X179645316Y-92846197D01*
X179648826Y-92869858D01*
X179650000Y-92893750D01*
X179650000Y-93806250D01*
X179648826Y-93830142D01*
X179645316Y-93853803D01*
X179639504Y-93877007D01*
X179631446Y-93899529D01*
X179621218Y-93921153D01*
X179608921Y-93941670D01*
X179594671Y-93960883D01*
X179578607Y-93978607D01*
X179560883Y-93994671D01*
X179541670Y-94008921D01*
X179521153Y-94021218D01*
X179499529Y-94031446D01*
X179477007Y-94039504D01*
X179453803Y-94045316D01*
X179430142Y-94048826D01*
X179406250Y-94050000D01*
X178918750Y-94050000D01*
X178894858Y-94048826D01*
X178871197Y-94045316D01*
X178847993Y-94039504D01*
X178825471Y-94031446D01*
X178803847Y-94021218D01*
X178783330Y-94008921D01*
X178764117Y-93994671D01*
X178746393Y-93978607D01*
X178730329Y-93960883D01*
X178716079Y-93941670D01*
X178703782Y-93921153D01*
X178693554Y-93899529D01*
X178685496Y-93877007D01*
X178679684Y-93853803D01*
X178676174Y-93830142D01*
X178675000Y-93806250D01*
X178675000Y-92893750D01*
X178676174Y-92869858D01*
X178679684Y-92846197D01*
X178685496Y-92822993D01*
X178693554Y-92800471D01*
X178703782Y-92778847D01*
X178716079Y-92758330D01*
X178730329Y-92739117D01*
X178746393Y-92721393D01*
X178764117Y-92705329D01*
X178783330Y-92691079D01*
X178803847Y-92678782D01*
X178825471Y-92668554D01*
X178847993Y-92660496D01*
X178871197Y-92654684D01*
X178894858Y-92651174D01*
X178918750Y-92650000D01*
X179406250Y-92650000D01*
X179430142Y-92651174D01*
X179430142Y-92651174D01*
G37*
D17*
X179162500Y-93350000D03*
D16*
G36*
X154830142Y-89801174D02*
G01*
X154853803Y-89804684D01*
X154877007Y-89810496D01*
X154899529Y-89818554D01*
X154921153Y-89828782D01*
X154941670Y-89841079D01*
X154960883Y-89855329D01*
X154978607Y-89871393D01*
X154994671Y-89889117D01*
X155008921Y-89908330D01*
X155021218Y-89928847D01*
X155031446Y-89950471D01*
X155039504Y-89972993D01*
X155045316Y-89996197D01*
X155048826Y-90019858D01*
X155050000Y-90043750D01*
X155050000Y-90531250D01*
X155048826Y-90555142D01*
X155045316Y-90578803D01*
X155039504Y-90602007D01*
X155031446Y-90624529D01*
X155021218Y-90646153D01*
X155008921Y-90666670D01*
X154994671Y-90685883D01*
X154978607Y-90703607D01*
X154960883Y-90719671D01*
X154941670Y-90733921D01*
X154921153Y-90746218D01*
X154899529Y-90756446D01*
X154877007Y-90764504D01*
X154853803Y-90770316D01*
X154830142Y-90773826D01*
X154806250Y-90775000D01*
X153893750Y-90775000D01*
X153869858Y-90773826D01*
X153846197Y-90770316D01*
X153822993Y-90764504D01*
X153800471Y-90756446D01*
X153778847Y-90746218D01*
X153758330Y-90733921D01*
X153739117Y-90719671D01*
X153721393Y-90703607D01*
X153705329Y-90685883D01*
X153691079Y-90666670D01*
X153678782Y-90646153D01*
X153668554Y-90624529D01*
X153660496Y-90602007D01*
X153654684Y-90578803D01*
X153651174Y-90555142D01*
X153650000Y-90531250D01*
X153650000Y-90043750D01*
X153651174Y-90019858D01*
X153654684Y-89996197D01*
X153660496Y-89972993D01*
X153668554Y-89950471D01*
X153678782Y-89928847D01*
X153691079Y-89908330D01*
X153705329Y-89889117D01*
X153721393Y-89871393D01*
X153739117Y-89855329D01*
X153758330Y-89841079D01*
X153778847Y-89828782D01*
X153800471Y-89818554D01*
X153822993Y-89810496D01*
X153846197Y-89804684D01*
X153869858Y-89801174D01*
X153893750Y-89800000D01*
X154806250Y-89800000D01*
X154830142Y-89801174D01*
X154830142Y-89801174D01*
G37*
D17*
X154350000Y-90287500D03*
D16*
G36*
X154830142Y-87926174D02*
G01*
X154853803Y-87929684D01*
X154877007Y-87935496D01*
X154899529Y-87943554D01*
X154921153Y-87953782D01*
X154941670Y-87966079D01*
X154960883Y-87980329D01*
X154978607Y-87996393D01*
X154994671Y-88014117D01*
X155008921Y-88033330D01*
X155021218Y-88053847D01*
X155031446Y-88075471D01*
X155039504Y-88097993D01*
X155045316Y-88121197D01*
X155048826Y-88144858D01*
X155050000Y-88168750D01*
X155050000Y-88656250D01*
X155048826Y-88680142D01*
X155045316Y-88703803D01*
X155039504Y-88727007D01*
X155031446Y-88749529D01*
X155021218Y-88771153D01*
X155008921Y-88791670D01*
X154994671Y-88810883D01*
X154978607Y-88828607D01*
X154960883Y-88844671D01*
X154941670Y-88858921D01*
X154921153Y-88871218D01*
X154899529Y-88881446D01*
X154877007Y-88889504D01*
X154853803Y-88895316D01*
X154830142Y-88898826D01*
X154806250Y-88900000D01*
X153893750Y-88900000D01*
X153869858Y-88898826D01*
X153846197Y-88895316D01*
X153822993Y-88889504D01*
X153800471Y-88881446D01*
X153778847Y-88871218D01*
X153758330Y-88858921D01*
X153739117Y-88844671D01*
X153721393Y-88828607D01*
X153705329Y-88810883D01*
X153691079Y-88791670D01*
X153678782Y-88771153D01*
X153668554Y-88749529D01*
X153660496Y-88727007D01*
X153654684Y-88703803D01*
X153651174Y-88680142D01*
X153650000Y-88656250D01*
X153650000Y-88168750D01*
X153651174Y-88144858D01*
X153654684Y-88121197D01*
X153660496Y-88097993D01*
X153668554Y-88075471D01*
X153678782Y-88053847D01*
X153691079Y-88033330D01*
X153705329Y-88014117D01*
X153721393Y-87996393D01*
X153739117Y-87980329D01*
X153758330Y-87966079D01*
X153778847Y-87953782D01*
X153800471Y-87943554D01*
X153822993Y-87935496D01*
X153846197Y-87929684D01*
X153869858Y-87926174D01*
X153893750Y-87925000D01*
X154806250Y-87925000D01*
X154830142Y-87926174D01*
X154830142Y-87926174D01*
G37*
D17*
X154350000Y-88412500D03*
D16*
G36*
X158030142Y-87926174D02*
G01*
X158053803Y-87929684D01*
X158077007Y-87935496D01*
X158099529Y-87943554D01*
X158121153Y-87953782D01*
X158141670Y-87966079D01*
X158160883Y-87980329D01*
X158178607Y-87996393D01*
X158194671Y-88014117D01*
X158208921Y-88033330D01*
X158221218Y-88053847D01*
X158231446Y-88075471D01*
X158239504Y-88097993D01*
X158245316Y-88121197D01*
X158248826Y-88144858D01*
X158250000Y-88168750D01*
X158250000Y-88656250D01*
X158248826Y-88680142D01*
X158245316Y-88703803D01*
X158239504Y-88727007D01*
X158231446Y-88749529D01*
X158221218Y-88771153D01*
X158208921Y-88791670D01*
X158194671Y-88810883D01*
X158178607Y-88828607D01*
X158160883Y-88844671D01*
X158141670Y-88858921D01*
X158121153Y-88871218D01*
X158099529Y-88881446D01*
X158077007Y-88889504D01*
X158053803Y-88895316D01*
X158030142Y-88898826D01*
X158006250Y-88900000D01*
X157093750Y-88900000D01*
X157069858Y-88898826D01*
X157046197Y-88895316D01*
X157022993Y-88889504D01*
X157000471Y-88881446D01*
X156978847Y-88871218D01*
X156958330Y-88858921D01*
X156939117Y-88844671D01*
X156921393Y-88828607D01*
X156905329Y-88810883D01*
X156891079Y-88791670D01*
X156878782Y-88771153D01*
X156868554Y-88749529D01*
X156860496Y-88727007D01*
X156854684Y-88703803D01*
X156851174Y-88680142D01*
X156850000Y-88656250D01*
X156850000Y-88168750D01*
X156851174Y-88144858D01*
X156854684Y-88121197D01*
X156860496Y-88097993D01*
X156868554Y-88075471D01*
X156878782Y-88053847D01*
X156891079Y-88033330D01*
X156905329Y-88014117D01*
X156921393Y-87996393D01*
X156939117Y-87980329D01*
X156958330Y-87966079D01*
X156978847Y-87953782D01*
X157000471Y-87943554D01*
X157022993Y-87935496D01*
X157046197Y-87929684D01*
X157069858Y-87926174D01*
X157093750Y-87925000D01*
X158006250Y-87925000D01*
X158030142Y-87926174D01*
X158030142Y-87926174D01*
G37*
D17*
X157550000Y-88412500D03*
D16*
G36*
X158030142Y-89801174D02*
G01*
X158053803Y-89804684D01*
X158077007Y-89810496D01*
X158099529Y-89818554D01*
X158121153Y-89828782D01*
X158141670Y-89841079D01*
X158160883Y-89855329D01*
X158178607Y-89871393D01*
X158194671Y-89889117D01*
X158208921Y-89908330D01*
X158221218Y-89928847D01*
X158231446Y-89950471D01*
X158239504Y-89972993D01*
X158245316Y-89996197D01*
X158248826Y-90019858D01*
X158250000Y-90043750D01*
X158250000Y-90531250D01*
X158248826Y-90555142D01*
X158245316Y-90578803D01*
X158239504Y-90602007D01*
X158231446Y-90624529D01*
X158221218Y-90646153D01*
X158208921Y-90666670D01*
X158194671Y-90685883D01*
X158178607Y-90703607D01*
X158160883Y-90719671D01*
X158141670Y-90733921D01*
X158121153Y-90746218D01*
X158099529Y-90756446D01*
X158077007Y-90764504D01*
X158053803Y-90770316D01*
X158030142Y-90773826D01*
X158006250Y-90775000D01*
X157093750Y-90775000D01*
X157069858Y-90773826D01*
X157046197Y-90770316D01*
X157022993Y-90764504D01*
X157000471Y-90756446D01*
X156978847Y-90746218D01*
X156958330Y-90733921D01*
X156939117Y-90719671D01*
X156921393Y-90703607D01*
X156905329Y-90685883D01*
X156891079Y-90666670D01*
X156878782Y-90646153D01*
X156868554Y-90624529D01*
X156860496Y-90602007D01*
X156854684Y-90578803D01*
X156851174Y-90555142D01*
X156850000Y-90531250D01*
X156850000Y-90043750D01*
X156851174Y-90019858D01*
X156854684Y-89996197D01*
X156860496Y-89972993D01*
X156868554Y-89950471D01*
X156878782Y-89928847D01*
X156891079Y-89908330D01*
X156905329Y-89889117D01*
X156921393Y-89871393D01*
X156939117Y-89855329D01*
X156958330Y-89841079D01*
X156978847Y-89828782D01*
X157000471Y-89818554D01*
X157022993Y-89810496D01*
X157046197Y-89804684D01*
X157069858Y-89801174D01*
X157093750Y-89800000D01*
X158006250Y-89800000D01*
X158030142Y-89801174D01*
X158030142Y-89801174D01*
G37*
D17*
X157550000Y-90287500D03*
D16*
G36*
X188880142Y-89801174D02*
G01*
X188903803Y-89804684D01*
X188927007Y-89810496D01*
X188949529Y-89818554D01*
X188971153Y-89828782D01*
X188991670Y-89841079D01*
X189010883Y-89855329D01*
X189028607Y-89871393D01*
X189044671Y-89889117D01*
X189058921Y-89908330D01*
X189071218Y-89928847D01*
X189081446Y-89950471D01*
X189089504Y-89972993D01*
X189095316Y-89996197D01*
X189098826Y-90019858D01*
X189100000Y-90043750D01*
X189100000Y-90531250D01*
X189098826Y-90555142D01*
X189095316Y-90578803D01*
X189089504Y-90602007D01*
X189081446Y-90624529D01*
X189071218Y-90646153D01*
X189058921Y-90666670D01*
X189044671Y-90685883D01*
X189028607Y-90703607D01*
X189010883Y-90719671D01*
X188991670Y-90733921D01*
X188971153Y-90746218D01*
X188949529Y-90756446D01*
X188927007Y-90764504D01*
X188903803Y-90770316D01*
X188880142Y-90773826D01*
X188856250Y-90775000D01*
X187943750Y-90775000D01*
X187919858Y-90773826D01*
X187896197Y-90770316D01*
X187872993Y-90764504D01*
X187850471Y-90756446D01*
X187828847Y-90746218D01*
X187808330Y-90733921D01*
X187789117Y-90719671D01*
X187771393Y-90703607D01*
X187755329Y-90685883D01*
X187741079Y-90666670D01*
X187728782Y-90646153D01*
X187718554Y-90624529D01*
X187710496Y-90602007D01*
X187704684Y-90578803D01*
X187701174Y-90555142D01*
X187700000Y-90531250D01*
X187700000Y-90043750D01*
X187701174Y-90019858D01*
X187704684Y-89996197D01*
X187710496Y-89972993D01*
X187718554Y-89950471D01*
X187728782Y-89928847D01*
X187741079Y-89908330D01*
X187755329Y-89889117D01*
X187771393Y-89871393D01*
X187789117Y-89855329D01*
X187808330Y-89841079D01*
X187828847Y-89828782D01*
X187850471Y-89818554D01*
X187872993Y-89810496D01*
X187896197Y-89804684D01*
X187919858Y-89801174D01*
X187943750Y-89800000D01*
X188856250Y-89800000D01*
X188880142Y-89801174D01*
X188880142Y-89801174D01*
G37*
D17*
X188400000Y-90287500D03*
D16*
G36*
X188880142Y-87926174D02*
G01*
X188903803Y-87929684D01*
X188927007Y-87935496D01*
X188949529Y-87943554D01*
X188971153Y-87953782D01*
X188991670Y-87966079D01*
X189010883Y-87980329D01*
X189028607Y-87996393D01*
X189044671Y-88014117D01*
X189058921Y-88033330D01*
X189071218Y-88053847D01*
X189081446Y-88075471D01*
X189089504Y-88097993D01*
X189095316Y-88121197D01*
X189098826Y-88144858D01*
X189100000Y-88168750D01*
X189100000Y-88656250D01*
X189098826Y-88680142D01*
X189095316Y-88703803D01*
X189089504Y-88727007D01*
X189081446Y-88749529D01*
X189071218Y-88771153D01*
X189058921Y-88791670D01*
X189044671Y-88810883D01*
X189028607Y-88828607D01*
X189010883Y-88844671D01*
X188991670Y-88858921D01*
X188971153Y-88871218D01*
X188949529Y-88881446D01*
X188927007Y-88889504D01*
X188903803Y-88895316D01*
X188880142Y-88898826D01*
X188856250Y-88900000D01*
X187943750Y-88900000D01*
X187919858Y-88898826D01*
X187896197Y-88895316D01*
X187872993Y-88889504D01*
X187850471Y-88881446D01*
X187828847Y-88871218D01*
X187808330Y-88858921D01*
X187789117Y-88844671D01*
X187771393Y-88828607D01*
X187755329Y-88810883D01*
X187741079Y-88791670D01*
X187728782Y-88771153D01*
X187718554Y-88749529D01*
X187710496Y-88727007D01*
X187704684Y-88703803D01*
X187701174Y-88680142D01*
X187700000Y-88656250D01*
X187700000Y-88168750D01*
X187701174Y-88144858D01*
X187704684Y-88121197D01*
X187710496Y-88097993D01*
X187718554Y-88075471D01*
X187728782Y-88053847D01*
X187741079Y-88033330D01*
X187755329Y-88014117D01*
X187771393Y-87996393D01*
X187789117Y-87980329D01*
X187808330Y-87966079D01*
X187828847Y-87953782D01*
X187850471Y-87943554D01*
X187872993Y-87935496D01*
X187896197Y-87929684D01*
X187919858Y-87926174D01*
X187943750Y-87925000D01*
X188856250Y-87925000D01*
X188880142Y-87926174D01*
X188880142Y-87926174D01*
G37*
D17*
X188400000Y-88412500D03*
D16*
G36*
X192080142Y-87926174D02*
G01*
X192103803Y-87929684D01*
X192127007Y-87935496D01*
X192149529Y-87943554D01*
X192171153Y-87953782D01*
X192191670Y-87966079D01*
X192210883Y-87980329D01*
X192228607Y-87996393D01*
X192244671Y-88014117D01*
X192258921Y-88033330D01*
X192271218Y-88053847D01*
X192281446Y-88075471D01*
X192289504Y-88097993D01*
X192295316Y-88121197D01*
X192298826Y-88144858D01*
X192300000Y-88168750D01*
X192300000Y-88656250D01*
X192298826Y-88680142D01*
X192295316Y-88703803D01*
X192289504Y-88727007D01*
X192281446Y-88749529D01*
X192271218Y-88771153D01*
X192258921Y-88791670D01*
X192244671Y-88810883D01*
X192228607Y-88828607D01*
X192210883Y-88844671D01*
X192191670Y-88858921D01*
X192171153Y-88871218D01*
X192149529Y-88881446D01*
X192127007Y-88889504D01*
X192103803Y-88895316D01*
X192080142Y-88898826D01*
X192056250Y-88900000D01*
X191143750Y-88900000D01*
X191119858Y-88898826D01*
X191096197Y-88895316D01*
X191072993Y-88889504D01*
X191050471Y-88881446D01*
X191028847Y-88871218D01*
X191008330Y-88858921D01*
X190989117Y-88844671D01*
X190971393Y-88828607D01*
X190955329Y-88810883D01*
X190941079Y-88791670D01*
X190928782Y-88771153D01*
X190918554Y-88749529D01*
X190910496Y-88727007D01*
X190904684Y-88703803D01*
X190901174Y-88680142D01*
X190900000Y-88656250D01*
X190900000Y-88168750D01*
X190901174Y-88144858D01*
X190904684Y-88121197D01*
X190910496Y-88097993D01*
X190918554Y-88075471D01*
X190928782Y-88053847D01*
X190941079Y-88033330D01*
X190955329Y-88014117D01*
X190971393Y-87996393D01*
X190989117Y-87980329D01*
X191008330Y-87966079D01*
X191028847Y-87953782D01*
X191050471Y-87943554D01*
X191072993Y-87935496D01*
X191096197Y-87929684D01*
X191119858Y-87926174D01*
X191143750Y-87925000D01*
X192056250Y-87925000D01*
X192080142Y-87926174D01*
X192080142Y-87926174D01*
G37*
D17*
X191600000Y-88412500D03*
D16*
G36*
X192080142Y-89801174D02*
G01*
X192103803Y-89804684D01*
X192127007Y-89810496D01*
X192149529Y-89818554D01*
X192171153Y-89828782D01*
X192191670Y-89841079D01*
X192210883Y-89855329D01*
X192228607Y-89871393D01*
X192244671Y-89889117D01*
X192258921Y-89908330D01*
X192271218Y-89928847D01*
X192281446Y-89950471D01*
X192289504Y-89972993D01*
X192295316Y-89996197D01*
X192298826Y-90019858D01*
X192300000Y-90043750D01*
X192300000Y-90531250D01*
X192298826Y-90555142D01*
X192295316Y-90578803D01*
X192289504Y-90602007D01*
X192281446Y-90624529D01*
X192271218Y-90646153D01*
X192258921Y-90666670D01*
X192244671Y-90685883D01*
X192228607Y-90703607D01*
X192210883Y-90719671D01*
X192191670Y-90733921D01*
X192171153Y-90746218D01*
X192149529Y-90756446D01*
X192127007Y-90764504D01*
X192103803Y-90770316D01*
X192080142Y-90773826D01*
X192056250Y-90775000D01*
X191143750Y-90775000D01*
X191119858Y-90773826D01*
X191096197Y-90770316D01*
X191072993Y-90764504D01*
X191050471Y-90756446D01*
X191028847Y-90746218D01*
X191008330Y-90733921D01*
X190989117Y-90719671D01*
X190971393Y-90703607D01*
X190955329Y-90685883D01*
X190941079Y-90666670D01*
X190928782Y-90646153D01*
X190918554Y-90624529D01*
X190910496Y-90602007D01*
X190904684Y-90578803D01*
X190901174Y-90555142D01*
X190900000Y-90531250D01*
X190900000Y-90043750D01*
X190901174Y-90019858D01*
X190904684Y-89996197D01*
X190910496Y-89972993D01*
X190918554Y-89950471D01*
X190928782Y-89928847D01*
X190941079Y-89908330D01*
X190955329Y-89889117D01*
X190971393Y-89871393D01*
X190989117Y-89855329D01*
X191008330Y-89841079D01*
X191028847Y-89828782D01*
X191050471Y-89818554D01*
X191072993Y-89810496D01*
X191096197Y-89804684D01*
X191119858Y-89801174D01*
X191143750Y-89800000D01*
X192056250Y-89800000D01*
X192080142Y-89801174D01*
X192080142Y-89801174D01*
G37*
D17*
X191600000Y-90287500D03*
D16*
G36*
X164480142Y-103576174D02*
G01*
X164503803Y-103579684D01*
X164527007Y-103585496D01*
X164549529Y-103593554D01*
X164571153Y-103603782D01*
X164591670Y-103616079D01*
X164610883Y-103630329D01*
X164628607Y-103646393D01*
X164644671Y-103664117D01*
X164658921Y-103683330D01*
X164671218Y-103703847D01*
X164681446Y-103725471D01*
X164689504Y-103747993D01*
X164695316Y-103771197D01*
X164698826Y-103794858D01*
X164700000Y-103818750D01*
X164700000Y-104306250D01*
X164698826Y-104330142D01*
X164695316Y-104353803D01*
X164689504Y-104377007D01*
X164681446Y-104399529D01*
X164671218Y-104421153D01*
X164658921Y-104441670D01*
X164644671Y-104460883D01*
X164628607Y-104478607D01*
X164610883Y-104494671D01*
X164591670Y-104508921D01*
X164571153Y-104521218D01*
X164549529Y-104531446D01*
X164527007Y-104539504D01*
X164503803Y-104545316D01*
X164480142Y-104548826D01*
X164456250Y-104550000D01*
X163543750Y-104550000D01*
X163519858Y-104548826D01*
X163496197Y-104545316D01*
X163472993Y-104539504D01*
X163450471Y-104531446D01*
X163428847Y-104521218D01*
X163408330Y-104508921D01*
X163389117Y-104494671D01*
X163371393Y-104478607D01*
X163355329Y-104460883D01*
X163341079Y-104441670D01*
X163328782Y-104421153D01*
X163318554Y-104399529D01*
X163310496Y-104377007D01*
X163304684Y-104353803D01*
X163301174Y-104330142D01*
X163300000Y-104306250D01*
X163300000Y-103818750D01*
X163301174Y-103794858D01*
X163304684Y-103771197D01*
X163310496Y-103747993D01*
X163318554Y-103725471D01*
X163328782Y-103703847D01*
X163341079Y-103683330D01*
X163355329Y-103664117D01*
X163371393Y-103646393D01*
X163389117Y-103630329D01*
X163408330Y-103616079D01*
X163428847Y-103603782D01*
X163450471Y-103593554D01*
X163472993Y-103585496D01*
X163496197Y-103579684D01*
X163519858Y-103576174D01*
X163543750Y-103575000D01*
X164456250Y-103575000D01*
X164480142Y-103576174D01*
X164480142Y-103576174D01*
G37*
D17*
X164000000Y-104062500D03*
D16*
G36*
X164480142Y-105451174D02*
G01*
X164503803Y-105454684D01*
X164527007Y-105460496D01*
X164549529Y-105468554D01*
X164571153Y-105478782D01*
X164591670Y-105491079D01*
X164610883Y-105505329D01*
X164628607Y-105521393D01*
X164644671Y-105539117D01*
X164658921Y-105558330D01*
X164671218Y-105578847D01*
X164681446Y-105600471D01*
X164689504Y-105622993D01*
X164695316Y-105646197D01*
X164698826Y-105669858D01*
X164700000Y-105693750D01*
X164700000Y-106181250D01*
X164698826Y-106205142D01*
X164695316Y-106228803D01*
X164689504Y-106252007D01*
X164681446Y-106274529D01*
X164671218Y-106296153D01*
X164658921Y-106316670D01*
X164644671Y-106335883D01*
X164628607Y-106353607D01*
X164610883Y-106369671D01*
X164591670Y-106383921D01*
X164571153Y-106396218D01*
X164549529Y-106406446D01*
X164527007Y-106414504D01*
X164503803Y-106420316D01*
X164480142Y-106423826D01*
X164456250Y-106425000D01*
X163543750Y-106425000D01*
X163519858Y-106423826D01*
X163496197Y-106420316D01*
X163472993Y-106414504D01*
X163450471Y-106406446D01*
X163428847Y-106396218D01*
X163408330Y-106383921D01*
X163389117Y-106369671D01*
X163371393Y-106353607D01*
X163355329Y-106335883D01*
X163341079Y-106316670D01*
X163328782Y-106296153D01*
X163318554Y-106274529D01*
X163310496Y-106252007D01*
X163304684Y-106228803D01*
X163301174Y-106205142D01*
X163300000Y-106181250D01*
X163300000Y-105693750D01*
X163301174Y-105669858D01*
X163304684Y-105646197D01*
X163310496Y-105622993D01*
X163318554Y-105600471D01*
X163328782Y-105578847D01*
X163341079Y-105558330D01*
X163355329Y-105539117D01*
X163371393Y-105521393D01*
X163389117Y-105505329D01*
X163408330Y-105491079D01*
X163428847Y-105478782D01*
X163450471Y-105468554D01*
X163472993Y-105460496D01*
X163496197Y-105454684D01*
X163519858Y-105451174D01*
X163543750Y-105450000D01*
X164456250Y-105450000D01*
X164480142Y-105451174D01*
X164480142Y-105451174D01*
G37*
D17*
X164000000Y-105937500D03*
D16*
G36*
X168380142Y-105451174D02*
G01*
X168403803Y-105454684D01*
X168427007Y-105460496D01*
X168449529Y-105468554D01*
X168471153Y-105478782D01*
X168491670Y-105491079D01*
X168510883Y-105505329D01*
X168528607Y-105521393D01*
X168544671Y-105539117D01*
X168558921Y-105558330D01*
X168571218Y-105578847D01*
X168581446Y-105600471D01*
X168589504Y-105622993D01*
X168595316Y-105646197D01*
X168598826Y-105669858D01*
X168600000Y-105693750D01*
X168600000Y-106181250D01*
X168598826Y-106205142D01*
X168595316Y-106228803D01*
X168589504Y-106252007D01*
X168581446Y-106274529D01*
X168571218Y-106296153D01*
X168558921Y-106316670D01*
X168544671Y-106335883D01*
X168528607Y-106353607D01*
X168510883Y-106369671D01*
X168491670Y-106383921D01*
X168471153Y-106396218D01*
X168449529Y-106406446D01*
X168427007Y-106414504D01*
X168403803Y-106420316D01*
X168380142Y-106423826D01*
X168356250Y-106425000D01*
X167443750Y-106425000D01*
X167419858Y-106423826D01*
X167396197Y-106420316D01*
X167372993Y-106414504D01*
X167350471Y-106406446D01*
X167328847Y-106396218D01*
X167308330Y-106383921D01*
X167289117Y-106369671D01*
X167271393Y-106353607D01*
X167255329Y-106335883D01*
X167241079Y-106316670D01*
X167228782Y-106296153D01*
X167218554Y-106274529D01*
X167210496Y-106252007D01*
X167204684Y-106228803D01*
X167201174Y-106205142D01*
X167200000Y-106181250D01*
X167200000Y-105693750D01*
X167201174Y-105669858D01*
X167204684Y-105646197D01*
X167210496Y-105622993D01*
X167218554Y-105600471D01*
X167228782Y-105578847D01*
X167241079Y-105558330D01*
X167255329Y-105539117D01*
X167271393Y-105521393D01*
X167289117Y-105505329D01*
X167308330Y-105491079D01*
X167328847Y-105478782D01*
X167350471Y-105468554D01*
X167372993Y-105460496D01*
X167396197Y-105454684D01*
X167419858Y-105451174D01*
X167443750Y-105450000D01*
X168356250Y-105450000D01*
X168380142Y-105451174D01*
X168380142Y-105451174D01*
G37*
D17*
X167900000Y-105937500D03*
D16*
G36*
X168380142Y-103576174D02*
G01*
X168403803Y-103579684D01*
X168427007Y-103585496D01*
X168449529Y-103593554D01*
X168471153Y-103603782D01*
X168491670Y-103616079D01*
X168510883Y-103630329D01*
X168528607Y-103646393D01*
X168544671Y-103664117D01*
X168558921Y-103683330D01*
X168571218Y-103703847D01*
X168581446Y-103725471D01*
X168589504Y-103747993D01*
X168595316Y-103771197D01*
X168598826Y-103794858D01*
X168600000Y-103818750D01*
X168600000Y-104306250D01*
X168598826Y-104330142D01*
X168595316Y-104353803D01*
X168589504Y-104377007D01*
X168581446Y-104399529D01*
X168571218Y-104421153D01*
X168558921Y-104441670D01*
X168544671Y-104460883D01*
X168528607Y-104478607D01*
X168510883Y-104494671D01*
X168491670Y-104508921D01*
X168471153Y-104521218D01*
X168449529Y-104531446D01*
X168427007Y-104539504D01*
X168403803Y-104545316D01*
X168380142Y-104548826D01*
X168356250Y-104550000D01*
X167443750Y-104550000D01*
X167419858Y-104548826D01*
X167396197Y-104545316D01*
X167372993Y-104539504D01*
X167350471Y-104531446D01*
X167328847Y-104521218D01*
X167308330Y-104508921D01*
X167289117Y-104494671D01*
X167271393Y-104478607D01*
X167255329Y-104460883D01*
X167241079Y-104441670D01*
X167228782Y-104421153D01*
X167218554Y-104399529D01*
X167210496Y-104377007D01*
X167204684Y-104353803D01*
X167201174Y-104330142D01*
X167200000Y-104306250D01*
X167200000Y-103818750D01*
X167201174Y-103794858D01*
X167204684Y-103771197D01*
X167210496Y-103747993D01*
X167218554Y-103725471D01*
X167228782Y-103703847D01*
X167241079Y-103683330D01*
X167255329Y-103664117D01*
X167271393Y-103646393D01*
X167289117Y-103630329D01*
X167308330Y-103616079D01*
X167328847Y-103603782D01*
X167350471Y-103593554D01*
X167372993Y-103585496D01*
X167396197Y-103579684D01*
X167419858Y-103576174D01*
X167443750Y-103575000D01*
X168356250Y-103575000D01*
X168380142Y-103576174D01*
X168380142Y-103576174D01*
G37*
D17*
X167900000Y-104062500D03*
D16*
G36*
X178580142Y-105451174D02*
G01*
X178603803Y-105454684D01*
X178627007Y-105460496D01*
X178649529Y-105468554D01*
X178671153Y-105478782D01*
X178691670Y-105491079D01*
X178710883Y-105505329D01*
X178728607Y-105521393D01*
X178744671Y-105539117D01*
X178758921Y-105558330D01*
X178771218Y-105578847D01*
X178781446Y-105600471D01*
X178789504Y-105622993D01*
X178795316Y-105646197D01*
X178798826Y-105669858D01*
X178800000Y-105693750D01*
X178800000Y-106181250D01*
X178798826Y-106205142D01*
X178795316Y-106228803D01*
X178789504Y-106252007D01*
X178781446Y-106274529D01*
X178771218Y-106296153D01*
X178758921Y-106316670D01*
X178744671Y-106335883D01*
X178728607Y-106353607D01*
X178710883Y-106369671D01*
X178691670Y-106383921D01*
X178671153Y-106396218D01*
X178649529Y-106406446D01*
X178627007Y-106414504D01*
X178603803Y-106420316D01*
X178580142Y-106423826D01*
X178556250Y-106425000D01*
X177643750Y-106425000D01*
X177619858Y-106423826D01*
X177596197Y-106420316D01*
X177572993Y-106414504D01*
X177550471Y-106406446D01*
X177528847Y-106396218D01*
X177508330Y-106383921D01*
X177489117Y-106369671D01*
X177471393Y-106353607D01*
X177455329Y-106335883D01*
X177441079Y-106316670D01*
X177428782Y-106296153D01*
X177418554Y-106274529D01*
X177410496Y-106252007D01*
X177404684Y-106228803D01*
X177401174Y-106205142D01*
X177400000Y-106181250D01*
X177400000Y-105693750D01*
X177401174Y-105669858D01*
X177404684Y-105646197D01*
X177410496Y-105622993D01*
X177418554Y-105600471D01*
X177428782Y-105578847D01*
X177441079Y-105558330D01*
X177455329Y-105539117D01*
X177471393Y-105521393D01*
X177489117Y-105505329D01*
X177508330Y-105491079D01*
X177528847Y-105478782D01*
X177550471Y-105468554D01*
X177572993Y-105460496D01*
X177596197Y-105454684D01*
X177619858Y-105451174D01*
X177643750Y-105450000D01*
X178556250Y-105450000D01*
X178580142Y-105451174D01*
X178580142Y-105451174D01*
G37*
D17*
X178100000Y-105937500D03*
D16*
G36*
X178580142Y-103576174D02*
G01*
X178603803Y-103579684D01*
X178627007Y-103585496D01*
X178649529Y-103593554D01*
X178671153Y-103603782D01*
X178691670Y-103616079D01*
X178710883Y-103630329D01*
X178728607Y-103646393D01*
X178744671Y-103664117D01*
X178758921Y-103683330D01*
X178771218Y-103703847D01*
X178781446Y-103725471D01*
X178789504Y-103747993D01*
X178795316Y-103771197D01*
X178798826Y-103794858D01*
X178800000Y-103818750D01*
X178800000Y-104306250D01*
X178798826Y-104330142D01*
X178795316Y-104353803D01*
X178789504Y-104377007D01*
X178781446Y-104399529D01*
X178771218Y-104421153D01*
X178758921Y-104441670D01*
X178744671Y-104460883D01*
X178728607Y-104478607D01*
X178710883Y-104494671D01*
X178691670Y-104508921D01*
X178671153Y-104521218D01*
X178649529Y-104531446D01*
X178627007Y-104539504D01*
X178603803Y-104545316D01*
X178580142Y-104548826D01*
X178556250Y-104550000D01*
X177643750Y-104550000D01*
X177619858Y-104548826D01*
X177596197Y-104545316D01*
X177572993Y-104539504D01*
X177550471Y-104531446D01*
X177528847Y-104521218D01*
X177508330Y-104508921D01*
X177489117Y-104494671D01*
X177471393Y-104478607D01*
X177455329Y-104460883D01*
X177441079Y-104441670D01*
X177428782Y-104421153D01*
X177418554Y-104399529D01*
X177410496Y-104377007D01*
X177404684Y-104353803D01*
X177401174Y-104330142D01*
X177400000Y-104306250D01*
X177400000Y-103818750D01*
X177401174Y-103794858D01*
X177404684Y-103771197D01*
X177410496Y-103747993D01*
X177418554Y-103725471D01*
X177428782Y-103703847D01*
X177441079Y-103683330D01*
X177455329Y-103664117D01*
X177471393Y-103646393D01*
X177489117Y-103630329D01*
X177508330Y-103616079D01*
X177528847Y-103603782D01*
X177550471Y-103593554D01*
X177572993Y-103585496D01*
X177596197Y-103579684D01*
X177619858Y-103576174D01*
X177643750Y-103575000D01*
X178556250Y-103575000D01*
X178580142Y-103576174D01*
X178580142Y-103576174D01*
G37*
D17*
X178100000Y-104062500D03*
D16*
G36*
X182480142Y-103576174D02*
G01*
X182503803Y-103579684D01*
X182527007Y-103585496D01*
X182549529Y-103593554D01*
X182571153Y-103603782D01*
X182591670Y-103616079D01*
X182610883Y-103630329D01*
X182628607Y-103646393D01*
X182644671Y-103664117D01*
X182658921Y-103683330D01*
X182671218Y-103703847D01*
X182681446Y-103725471D01*
X182689504Y-103747993D01*
X182695316Y-103771197D01*
X182698826Y-103794858D01*
X182700000Y-103818750D01*
X182700000Y-104306250D01*
X182698826Y-104330142D01*
X182695316Y-104353803D01*
X182689504Y-104377007D01*
X182681446Y-104399529D01*
X182671218Y-104421153D01*
X182658921Y-104441670D01*
X182644671Y-104460883D01*
X182628607Y-104478607D01*
X182610883Y-104494671D01*
X182591670Y-104508921D01*
X182571153Y-104521218D01*
X182549529Y-104531446D01*
X182527007Y-104539504D01*
X182503803Y-104545316D01*
X182480142Y-104548826D01*
X182456250Y-104550000D01*
X181543750Y-104550000D01*
X181519858Y-104548826D01*
X181496197Y-104545316D01*
X181472993Y-104539504D01*
X181450471Y-104531446D01*
X181428847Y-104521218D01*
X181408330Y-104508921D01*
X181389117Y-104494671D01*
X181371393Y-104478607D01*
X181355329Y-104460883D01*
X181341079Y-104441670D01*
X181328782Y-104421153D01*
X181318554Y-104399529D01*
X181310496Y-104377007D01*
X181304684Y-104353803D01*
X181301174Y-104330142D01*
X181300000Y-104306250D01*
X181300000Y-103818750D01*
X181301174Y-103794858D01*
X181304684Y-103771197D01*
X181310496Y-103747993D01*
X181318554Y-103725471D01*
X181328782Y-103703847D01*
X181341079Y-103683330D01*
X181355329Y-103664117D01*
X181371393Y-103646393D01*
X181389117Y-103630329D01*
X181408330Y-103616079D01*
X181428847Y-103603782D01*
X181450471Y-103593554D01*
X181472993Y-103585496D01*
X181496197Y-103579684D01*
X181519858Y-103576174D01*
X181543750Y-103575000D01*
X182456250Y-103575000D01*
X182480142Y-103576174D01*
X182480142Y-103576174D01*
G37*
D17*
X182000000Y-104062500D03*
D16*
G36*
X182480142Y-105451174D02*
G01*
X182503803Y-105454684D01*
X182527007Y-105460496D01*
X182549529Y-105468554D01*
X182571153Y-105478782D01*
X182591670Y-105491079D01*
X182610883Y-105505329D01*
X182628607Y-105521393D01*
X182644671Y-105539117D01*
X182658921Y-105558330D01*
X182671218Y-105578847D01*
X182681446Y-105600471D01*
X182689504Y-105622993D01*
X182695316Y-105646197D01*
X182698826Y-105669858D01*
X182700000Y-105693750D01*
X182700000Y-106181250D01*
X182698826Y-106205142D01*
X182695316Y-106228803D01*
X182689504Y-106252007D01*
X182681446Y-106274529D01*
X182671218Y-106296153D01*
X182658921Y-106316670D01*
X182644671Y-106335883D01*
X182628607Y-106353607D01*
X182610883Y-106369671D01*
X182591670Y-106383921D01*
X182571153Y-106396218D01*
X182549529Y-106406446D01*
X182527007Y-106414504D01*
X182503803Y-106420316D01*
X182480142Y-106423826D01*
X182456250Y-106425000D01*
X181543750Y-106425000D01*
X181519858Y-106423826D01*
X181496197Y-106420316D01*
X181472993Y-106414504D01*
X181450471Y-106406446D01*
X181428847Y-106396218D01*
X181408330Y-106383921D01*
X181389117Y-106369671D01*
X181371393Y-106353607D01*
X181355329Y-106335883D01*
X181341079Y-106316670D01*
X181328782Y-106296153D01*
X181318554Y-106274529D01*
X181310496Y-106252007D01*
X181304684Y-106228803D01*
X181301174Y-106205142D01*
X181300000Y-106181250D01*
X181300000Y-105693750D01*
X181301174Y-105669858D01*
X181304684Y-105646197D01*
X181310496Y-105622993D01*
X181318554Y-105600471D01*
X181328782Y-105578847D01*
X181341079Y-105558330D01*
X181355329Y-105539117D01*
X181371393Y-105521393D01*
X181389117Y-105505329D01*
X181408330Y-105491079D01*
X181428847Y-105478782D01*
X181450471Y-105468554D01*
X181472993Y-105460496D01*
X181496197Y-105454684D01*
X181519858Y-105451174D01*
X181543750Y-105450000D01*
X182456250Y-105450000D01*
X182480142Y-105451174D01*
X182480142Y-105451174D01*
G37*
D17*
X182000000Y-105937500D03*
D13*
X154200000Y-115550000D03*
X191800000Y-115550000D03*
M02*
