G04 #@! TF.GenerationSoftware,KiCad,Pcbnew,(5.1.4)-1*
G04 #@! TF.CreationDate,2019-10-10T18:21:12+02:00*
G04 #@! TF.ProjectId,Bottom,426f7474-6f6d-42e6-9b69-6361645f7063,rev?*
G04 #@! TF.SameCoordinates,Original*
G04 #@! TF.FileFunction,Copper,L1,Top*
G04 #@! TF.FilePolarity,Positive*
%FSLAX46Y46*%
G04 Gerber Fmt 4.6, Leading zero omitted, Abs format (unit mm)*
G04 Created by KiCad (PCBNEW (5.1.4)-1) date 2019-10-10 18:21:12*
%MOMM*%
%LPD*%
G04 APERTURE LIST*
%ADD10R,1.000000X0.650000*%
%ADD11C,1.000000*%
%ADD12R,1.000000X4.000000*%
%ADD13R,2.500000X5.000000*%
%ADD14C,0.750000*%
%ADD15R,5.000000X3.400000*%
%ADD16R,0.450000X1.050000*%
%ADD17C,0.100000*%
%ADD18C,0.975000*%
%ADD19C,0.800000*%
%ADD20C,0.400000*%
%ADD21C,0.250000*%
%ADD22C,0.200000*%
%ADD23C,0.300000*%
%ADD24C,0.254000*%
G04 APERTURE END LIST*
D10*
X157550000Y-86550000D03*
X157550000Y-85450000D03*
X154350000Y-85450000D03*
X154350000Y-86550000D03*
X191600000Y-86550000D03*
X191600000Y-85450000D03*
X188400000Y-85450000D03*
X188400000Y-86550000D03*
D11*
X179990000Y-113505000D03*
X179990000Y-110855000D03*
X180590000Y-114830000D03*
X180590000Y-112180000D03*
X166010000Y-112195000D03*
X166010000Y-114845000D03*
X165410000Y-110870000D03*
X165410000Y-113520000D03*
D12*
X170450000Y-79950000D03*
X167910000Y-79950000D03*
X165370000Y-79950000D03*
X162830000Y-79950000D03*
X160290000Y-79950000D03*
X185690000Y-79950000D03*
X172990000Y-79950000D03*
X175530000Y-79950000D03*
X178070000Y-79950000D03*
X180610000Y-79950000D03*
X183150000Y-79950000D03*
D13*
X188300000Y-80450000D03*
X154200000Y-80450000D03*
X191800000Y-80450000D03*
X157700000Y-80450000D03*
D14*
X167500000Y-98150000D03*
X167500000Y-99650000D03*
X166000000Y-98150000D03*
X166000000Y-99650000D03*
X164500000Y-98150000D03*
X164500000Y-99650000D03*
D15*
X166000000Y-98900000D03*
D16*
X163725000Y-96125000D03*
X164375000Y-96125000D03*
X165025000Y-96125000D03*
X165675000Y-96125000D03*
X166325000Y-96125000D03*
X166975000Y-96125000D03*
X167625000Y-96125000D03*
X168275000Y-96125000D03*
X168275000Y-101675000D03*
X167625000Y-101675000D03*
X166975000Y-101675000D03*
X166325000Y-101675000D03*
X165675000Y-101675000D03*
X165025000Y-101675000D03*
X164375000Y-101675000D03*
X163725000Y-101675000D03*
D14*
X181600000Y-98150000D03*
X181600000Y-99650000D03*
X180100000Y-98150000D03*
X180100000Y-99650000D03*
X178600000Y-98150000D03*
X178600000Y-99650000D03*
D15*
X180100000Y-98900000D03*
D16*
X177825000Y-96125000D03*
X178475000Y-96125000D03*
X179125000Y-96125000D03*
X179775000Y-96125000D03*
X180425000Y-96125000D03*
X181075000Y-96125000D03*
X181725000Y-96125000D03*
X182375000Y-96125000D03*
X182375000Y-101675000D03*
X181725000Y-101675000D03*
X181075000Y-101675000D03*
X180425000Y-101675000D03*
X179775000Y-101675000D03*
X179125000Y-101675000D03*
X178475000Y-101675000D03*
X177825000Y-101675000D03*
D17*
G36*
X168380142Y-88876174D02*
G01*
X168403803Y-88879684D01*
X168427007Y-88885496D01*
X168449529Y-88893554D01*
X168471153Y-88903782D01*
X168491670Y-88916079D01*
X168510883Y-88930329D01*
X168528607Y-88946393D01*
X168544671Y-88964117D01*
X168558921Y-88983330D01*
X168571218Y-89003847D01*
X168581446Y-89025471D01*
X168589504Y-89047993D01*
X168595316Y-89071197D01*
X168598826Y-89094858D01*
X168600000Y-89118750D01*
X168600000Y-89606250D01*
X168598826Y-89630142D01*
X168595316Y-89653803D01*
X168589504Y-89677007D01*
X168581446Y-89699529D01*
X168571218Y-89721153D01*
X168558921Y-89741670D01*
X168544671Y-89760883D01*
X168528607Y-89778607D01*
X168510883Y-89794671D01*
X168491670Y-89808921D01*
X168471153Y-89821218D01*
X168449529Y-89831446D01*
X168427007Y-89839504D01*
X168403803Y-89845316D01*
X168380142Y-89848826D01*
X168356250Y-89850000D01*
X167443750Y-89850000D01*
X167419858Y-89848826D01*
X167396197Y-89845316D01*
X167372993Y-89839504D01*
X167350471Y-89831446D01*
X167328847Y-89821218D01*
X167308330Y-89808921D01*
X167289117Y-89794671D01*
X167271393Y-89778607D01*
X167255329Y-89760883D01*
X167241079Y-89741670D01*
X167228782Y-89721153D01*
X167218554Y-89699529D01*
X167210496Y-89677007D01*
X167204684Y-89653803D01*
X167201174Y-89630142D01*
X167200000Y-89606250D01*
X167200000Y-89118750D01*
X167201174Y-89094858D01*
X167204684Y-89071197D01*
X167210496Y-89047993D01*
X167218554Y-89025471D01*
X167228782Y-89003847D01*
X167241079Y-88983330D01*
X167255329Y-88964117D01*
X167271393Y-88946393D01*
X167289117Y-88930329D01*
X167308330Y-88916079D01*
X167328847Y-88903782D01*
X167350471Y-88893554D01*
X167372993Y-88885496D01*
X167396197Y-88879684D01*
X167419858Y-88876174D01*
X167443750Y-88875000D01*
X168356250Y-88875000D01*
X168380142Y-88876174D01*
X168380142Y-88876174D01*
G37*
D18*
X167900000Y-89362500D03*
D17*
G36*
X168380142Y-90751174D02*
G01*
X168403803Y-90754684D01*
X168427007Y-90760496D01*
X168449529Y-90768554D01*
X168471153Y-90778782D01*
X168491670Y-90791079D01*
X168510883Y-90805329D01*
X168528607Y-90821393D01*
X168544671Y-90839117D01*
X168558921Y-90858330D01*
X168571218Y-90878847D01*
X168581446Y-90900471D01*
X168589504Y-90922993D01*
X168595316Y-90946197D01*
X168598826Y-90969858D01*
X168600000Y-90993750D01*
X168600000Y-91481250D01*
X168598826Y-91505142D01*
X168595316Y-91528803D01*
X168589504Y-91552007D01*
X168581446Y-91574529D01*
X168571218Y-91596153D01*
X168558921Y-91616670D01*
X168544671Y-91635883D01*
X168528607Y-91653607D01*
X168510883Y-91669671D01*
X168491670Y-91683921D01*
X168471153Y-91696218D01*
X168449529Y-91706446D01*
X168427007Y-91714504D01*
X168403803Y-91720316D01*
X168380142Y-91723826D01*
X168356250Y-91725000D01*
X167443750Y-91725000D01*
X167419858Y-91723826D01*
X167396197Y-91720316D01*
X167372993Y-91714504D01*
X167350471Y-91706446D01*
X167328847Y-91696218D01*
X167308330Y-91683921D01*
X167289117Y-91669671D01*
X167271393Y-91653607D01*
X167255329Y-91635883D01*
X167241079Y-91616670D01*
X167228782Y-91596153D01*
X167218554Y-91574529D01*
X167210496Y-91552007D01*
X167204684Y-91528803D01*
X167201174Y-91505142D01*
X167200000Y-91481250D01*
X167200000Y-90993750D01*
X167201174Y-90969858D01*
X167204684Y-90946197D01*
X167210496Y-90922993D01*
X167218554Y-90900471D01*
X167228782Y-90878847D01*
X167241079Y-90858330D01*
X167255329Y-90839117D01*
X167271393Y-90821393D01*
X167289117Y-90805329D01*
X167308330Y-90791079D01*
X167328847Y-90778782D01*
X167350471Y-90768554D01*
X167372993Y-90760496D01*
X167396197Y-90754684D01*
X167419858Y-90751174D01*
X167443750Y-90750000D01*
X168356250Y-90750000D01*
X168380142Y-90751174D01*
X168380142Y-90751174D01*
G37*
D18*
X167900000Y-91237500D03*
D17*
G36*
X164480142Y-88876174D02*
G01*
X164503803Y-88879684D01*
X164527007Y-88885496D01*
X164549529Y-88893554D01*
X164571153Y-88903782D01*
X164591670Y-88916079D01*
X164610883Y-88930329D01*
X164628607Y-88946393D01*
X164644671Y-88964117D01*
X164658921Y-88983330D01*
X164671218Y-89003847D01*
X164681446Y-89025471D01*
X164689504Y-89047993D01*
X164695316Y-89071197D01*
X164698826Y-89094858D01*
X164700000Y-89118750D01*
X164700000Y-89606250D01*
X164698826Y-89630142D01*
X164695316Y-89653803D01*
X164689504Y-89677007D01*
X164681446Y-89699529D01*
X164671218Y-89721153D01*
X164658921Y-89741670D01*
X164644671Y-89760883D01*
X164628607Y-89778607D01*
X164610883Y-89794671D01*
X164591670Y-89808921D01*
X164571153Y-89821218D01*
X164549529Y-89831446D01*
X164527007Y-89839504D01*
X164503803Y-89845316D01*
X164480142Y-89848826D01*
X164456250Y-89850000D01*
X163543750Y-89850000D01*
X163519858Y-89848826D01*
X163496197Y-89845316D01*
X163472993Y-89839504D01*
X163450471Y-89831446D01*
X163428847Y-89821218D01*
X163408330Y-89808921D01*
X163389117Y-89794671D01*
X163371393Y-89778607D01*
X163355329Y-89760883D01*
X163341079Y-89741670D01*
X163328782Y-89721153D01*
X163318554Y-89699529D01*
X163310496Y-89677007D01*
X163304684Y-89653803D01*
X163301174Y-89630142D01*
X163300000Y-89606250D01*
X163300000Y-89118750D01*
X163301174Y-89094858D01*
X163304684Y-89071197D01*
X163310496Y-89047993D01*
X163318554Y-89025471D01*
X163328782Y-89003847D01*
X163341079Y-88983330D01*
X163355329Y-88964117D01*
X163371393Y-88946393D01*
X163389117Y-88930329D01*
X163408330Y-88916079D01*
X163428847Y-88903782D01*
X163450471Y-88893554D01*
X163472993Y-88885496D01*
X163496197Y-88879684D01*
X163519858Y-88876174D01*
X163543750Y-88875000D01*
X164456250Y-88875000D01*
X164480142Y-88876174D01*
X164480142Y-88876174D01*
G37*
D18*
X164000000Y-89362500D03*
D17*
G36*
X164480142Y-90751174D02*
G01*
X164503803Y-90754684D01*
X164527007Y-90760496D01*
X164549529Y-90768554D01*
X164571153Y-90778782D01*
X164591670Y-90791079D01*
X164610883Y-90805329D01*
X164628607Y-90821393D01*
X164644671Y-90839117D01*
X164658921Y-90858330D01*
X164671218Y-90878847D01*
X164681446Y-90900471D01*
X164689504Y-90922993D01*
X164695316Y-90946197D01*
X164698826Y-90969858D01*
X164700000Y-90993750D01*
X164700000Y-91481250D01*
X164698826Y-91505142D01*
X164695316Y-91528803D01*
X164689504Y-91552007D01*
X164681446Y-91574529D01*
X164671218Y-91596153D01*
X164658921Y-91616670D01*
X164644671Y-91635883D01*
X164628607Y-91653607D01*
X164610883Y-91669671D01*
X164591670Y-91683921D01*
X164571153Y-91696218D01*
X164549529Y-91706446D01*
X164527007Y-91714504D01*
X164503803Y-91720316D01*
X164480142Y-91723826D01*
X164456250Y-91725000D01*
X163543750Y-91725000D01*
X163519858Y-91723826D01*
X163496197Y-91720316D01*
X163472993Y-91714504D01*
X163450471Y-91706446D01*
X163428847Y-91696218D01*
X163408330Y-91683921D01*
X163389117Y-91669671D01*
X163371393Y-91653607D01*
X163355329Y-91635883D01*
X163341079Y-91616670D01*
X163328782Y-91596153D01*
X163318554Y-91574529D01*
X163310496Y-91552007D01*
X163304684Y-91528803D01*
X163301174Y-91505142D01*
X163300000Y-91481250D01*
X163300000Y-90993750D01*
X163301174Y-90969858D01*
X163304684Y-90946197D01*
X163310496Y-90922993D01*
X163318554Y-90900471D01*
X163328782Y-90878847D01*
X163341079Y-90858330D01*
X163355329Y-90839117D01*
X163371393Y-90821393D01*
X163389117Y-90805329D01*
X163408330Y-90791079D01*
X163428847Y-90778782D01*
X163450471Y-90768554D01*
X163472993Y-90760496D01*
X163496197Y-90754684D01*
X163519858Y-90751174D01*
X163543750Y-90750000D01*
X164456250Y-90750000D01*
X164480142Y-90751174D01*
X164480142Y-90751174D01*
G37*
D18*
X164000000Y-91237500D03*
D17*
G36*
X165330142Y-92651174D02*
G01*
X165353803Y-92654684D01*
X165377007Y-92660496D01*
X165399529Y-92668554D01*
X165421153Y-92678782D01*
X165441670Y-92691079D01*
X165460883Y-92705329D01*
X165478607Y-92721393D01*
X165494671Y-92739117D01*
X165508921Y-92758330D01*
X165521218Y-92778847D01*
X165531446Y-92800471D01*
X165539504Y-92822993D01*
X165545316Y-92846197D01*
X165548826Y-92869858D01*
X165550000Y-92893750D01*
X165550000Y-93806250D01*
X165548826Y-93830142D01*
X165545316Y-93853803D01*
X165539504Y-93877007D01*
X165531446Y-93899529D01*
X165521218Y-93921153D01*
X165508921Y-93941670D01*
X165494671Y-93960883D01*
X165478607Y-93978607D01*
X165460883Y-93994671D01*
X165441670Y-94008921D01*
X165421153Y-94021218D01*
X165399529Y-94031446D01*
X165377007Y-94039504D01*
X165353803Y-94045316D01*
X165330142Y-94048826D01*
X165306250Y-94050000D01*
X164818750Y-94050000D01*
X164794858Y-94048826D01*
X164771197Y-94045316D01*
X164747993Y-94039504D01*
X164725471Y-94031446D01*
X164703847Y-94021218D01*
X164683330Y-94008921D01*
X164664117Y-93994671D01*
X164646393Y-93978607D01*
X164630329Y-93960883D01*
X164616079Y-93941670D01*
X164603782Y-93921153D01*
X164593554Y-93899529D01*
X164585496Y-93877007D01*
X164579684Y-93853803D01*
X164576174Y-93830142D01*
X164575000Y-93806250D01*
X164575000Y-92893750D01*
X164576174Y-92869858D01*
X164579684Y-92846197D01*
X164585496Y-92822993D01*
X164593554Y-92800471D01*
X164603782Y-92778847D01*
X164616079Y-92758330D01*
X164630329Y-92739117D01*
X164646393Y-92721393D01*
X164664117Y-92705329D01*
X164683330Y-92691079D01*
X164703847Y-92678782D01*
X164725471Y-92668554D01*
X164747993Y-92660496D01*
X164771197Y-92654684D01*
X164794858Y-92651174D01*
X164818750Y-92650000D01*
X165306250Y-92650000D01*
X165330142Y-92651174D01*
X165330142Y-92651174D01*
G37*
D18*
X165062500Y-93350000D03*
D17*
G36*
X167205142Y-92651174D02*
G01*
X167228803Y-92654684D01*
X167252007Y-92660496D01*
X167274529Y-92668554D01*
X167296153Y-92678782D01*
X167316670Y-92691079D01*
X167335883Y-92705329D01*
X167353607Y-92721393D01*
X167369671Y-92739117D01*
X167383921Y-92758330D01*
X167396218Y-92778847D01*
X167406446Y-92800471D01*
X167414504Y-92822993D01*
X167420316Y-92846197D01*
X167423826Y-92869858D01*
X167425000Y-92893750D01*
X167425000Y-93806250D01*
X167423826Y-93830142D01*
X167420316Y-93853803D01*
X167414504Y-93877007D01*
X167406446Y-93899529D01*
X167396218Y-93921153D01*
X167383921Y-93941670D01*
X167369671Y-93960883D01*
X167353607Y-93978607D01*
X167335883Y-93994671D01*
X167316670Y-94008921D01*
X167296153Y-94021218D01*
X167274529Y-94031446D01*
X167252007Y-94039504D01*
X167228803Y-94045316D01*
X167205142Y-94048826D01*
X167181250Y-94050000D01*
X166693750Y-94050000D01*
X166669858Y-94048826D01*
X166646197Y-94045316D01*
X166622993Y-94039504D01*
X166600471Y-94031446D01*
X166578847Y-94021218D01*
X166558330Y-94008921D01*
X166539117Y-93994671D01*
X166521393Y-93978607D01*
X166505329Y-93960883D01*
X166491079Y-93941670D01*
X166478782Y-93921153D01*
X166468554Y-93899529D01*
X166460496Y-93877007D01*
X166454684Y-93853803D01*
X166451174Y-93830142D01*
X166450000Y-93806250D01*
X166450000Y-92893750D01*
X166451174Y-92869858D01*
X166454684Y-92846197D01*
X166460496Y-92822993D01*
X166468554Y-92800471D01*
X166478782Y-92778847D01*
X166491079Y-92758330D01*
X166505329Y-92739117D01*
X166521393Y-92721393D01*
X166539117Y-92705329D01*
X166558330Y-92691079D01*
X166578847Y-92678782D01*
X166600471Y-92668554D01*
X166622993Y-92660496D01*
X166646197Y-92654684D01*
X166669858Y-92651174D01*
X166693750Y-92650000D01*
X167181250Y-92650000D01*
X167205142Y-92651174D01*
X167205142Y-92651174D01*
G37*
D18*
X166937500Y-93350000D03*
D17*
G36*
X182480142Y-90751174D02*
G01*
X182503803Y-90754684D01*
X182527007Y-90760496D01*
X182549529Y-90768554D01*
X182571153Y-90778782D01*
X182591670Y-90791079D01*
X182610883Y-90805329D01*
X182628607Y-90821393D01*
X182644671Y-90839117D01*
X182658921Y-90858330D01*
X182671218Y-90878847D01*
X182681446Y-90900471D01*
X182689504Y-90922993D01*
X182695316Y-90946197D01*
X182698826Y-90969858D01*
X182700000Y-90993750D01*
X182700000Y-91481250D01*
X182698826Y-91505142D01*
X182695316Y-91528803D01*
X182689504Y-91552007D01*
X182681446Y-91574529D01*
X182671218Y-91596153D01*
X182658921Y-91616670D01*
X182644671Y-91635883D01*
X182628607Y-91653607D01*
X182610883Y-91669671D01*
X182591670Y-91683921D01*
X182571153Y-91696218D01*
X182549529Y-91706446D01*
X182527007Y-91714504D01*
X182503803Y-91720316D01*
X182480142Y-91723826D01*
X182456250Y-91725000D01*
X181543750Y-91725000D01*
X181519858Y-91723826D01*
X181496197Y-91720316D01*
X181472993Y-91714504D01*
X181450471Y-91706446D01*
X181428847Y-91696218D01*
X181408330Y-91683921D01*
X181389117Y-91669671D01*
X181371393Y-91653607D01*
X181355329Y-91635883D01*
X181341079Y-91616670D01*
X181328782Y-91596153D01*
X181318554Y-91574529D01*
X181310496Y-91552007D01*
X181304684Y-91528803D01*
X181301174Y-91505142D01*
X181300000Y-91481250D01*
X181300000Y-90993750D01*
X181301174Y-90969858D01*
X181304684Y-90946197D01*
X181310496Y-90922993D01*
X181318554Y-90900471D01*
X181328782Y-90878847D01*
X181341079Y-90858330D01*
X181355329Y-90839117D01*
X181371393Y-90821393D01*
X181389117Y-90805329D01*
X181408330Y-90791079D01*
X181428847Y-90778782D01*
X181450471Y-90768554D01*
X181472993Y-90760496D01*
X181496197Y-90754684D01*
X181519858Y-90751174D01*
X181543750Y-90750000D01*
X182456250Y-90750000D01*
X182480142Y-90751174D01*
X182480142Y-90751174D01*
G37*
D18*
X182000000Y-91237500D03*
D17*
G36*
X182480142Y-88876174D02*
G01*
X182503803Y-88879684D01*
X182527007Y-88885496D01*
X182549529Y-88893554D01*
X182571153Y-88903782D01*
X182591670Y-88916079D01*
X182610883Y-88930329D01*
X182628607Y-88946393D01*
X182644671Y-88964117D01*
X182658921Y-88983330D01*
X182671218Y-89003847D01*
X182681446Y-89025471D01*
X182689504Y-89047993D01*
X182695316Y-89071197D01*
X182698826Y-89094858D01*
X182700000Y-89118750D01*
X182700000Y-89606250D01*
X182698826Y-89630142D01*
X182695316Y-89653803D01*
X182689504Y-89677007D01*
X182681446Y-89699529D01*
X182671218Y-89721153D01*
X182658921Y-89741670D01*
X182644671Y-89760883D01*
X182628607Y-89778607D01*
X182610883Y-89794671D01*
X182591670Y-89808921D01*
X182571153Y-89821218D01*
X182549529Y-89831446D01*
X182527007Y-89839504D01*
X182503803Y-89845316D01*
X182480142Y-89848826D01*
X182456250Y-89850000D01*
X181543750Y-89850000D01*
X181519858Y-89848826D01*
X181496197Y-89845316D01*
X181472993Y-89839504D01*
X181450471Y-89831446D01*
X181428847Y-89821218D01*
X181408330Y-89808921D01*
X181389117Y-89794671D01*
X181371393Y-89778607D01*
X181355329Y-89760883D01*
X181341079Y-89741670D01*
X181328782Y-89721153D01*
X181318554Y-89699529D01*
X181310496Y-89677007D01*
X181304684Y-89653803D01*
X181301174Y-89630142D01*
X181300000Y-89606250D01*
X181300000Y-89118750D01*
X181301174Y-89094858D01*
X181304684Y-89071197D01*
X181310496Y-89047993D01*
X181318554Y-89025471D01*
X181328782Y-89003847D01*
X181341079Y-88983330D01*
X181355329Y-88964117D01*
X181371393Y-88946393D01*
X181389117Y-88930329D01*
X181408330Y-88916079D01*
X181428847Y-88903782D01*
X181450471Y-88893554D01*
X181472993Y-88885496D01*
X181496197Y-88879684D01*
X181519858Y-88876174D01*
X181543750Y-88875000D01*
X182456250Y-88875000D01*
X182480142Y-88876174D01*
X182480142Y-88876174D01*
G37*
D18*
X182000000Y-89362500D03*
D17*
G36*
X178580142Y-90751174D02*
G01*
X178603803Y-90754684D01*
X178627007Y-90760496D01*
X178649529Y-90768554D01*
X178671153Y-90778782D01*
X178691670Y-90791079D01*
X178710883Y-90805329D01*
X178728607Y-90821393D01*
X178744671Y-90839117D01*
X178758921Y-90858330D01*
X178771218Y-90878847D01*
X178781446Y-90900471D01*
X178789504Y-90922993D01*
X178795316Y-90946197D01*
X178798826Y-90969858D01*
X178800000Y-90993750D01*
X178800000Y-91481250D01*
X178798826Y-91505142D01*
X178795316Y-91528803D01*
X178789504Y-91552007D01*
X178781446Y-91574529D01*
X178771218Y-91596153D01*
X178758921Y-91616670D01*
X178744671Y-91635883D01*
X178728607Y-91653607D01*
X178710883Y-91669671D01*
X178691670Y-91683921D01*
X178671153Y-91696218D01*
X178649529Y-91706446D01*
X178627007Y-91714504D01*
X178603803Y-91720316D01*
X178580142Y-91723826D01*
X178556250Y-91725000D01*
X177643750Y-91725000D01*
X177619858Y-91723826D01*
X177596197Y-91720316D01*
X177572993Y-91714504D01*
X177550471Y-91706446D01*
X177528847Y-91696218D01*
X177508330Y-91683921D01*
X177489117Y-91669671D01*
X177471393Y-91653607D01*
X177455329Y-91635883D01*
X177441079Y-91616670D01*
X177428782Y-91596153D01*
X177418554Y-91574529D01*
X177410496Y-91552007D01*
X177404684Y-91528803D01*
X177401174Y-91505142D01*
X177400000Y-91481250D01*
X177400000Y-90993750D01*
X177401174Y-90969858D01*
X177404684Y-90946197D01*
X177410496Y-90922993D01*
X177418554Y-90900471D01*
X177428782Y-90878847D01*
X177441079Y-90858330D01*
X177455329Y-90839117D01*
X177471393Y-90821393D01*
X177489117Y-90805329D01*
X177508330Y-90791079D01*
X177528847Y-90778782D01*
X177550471Y-90768554D01*
X177572993Y-90760496D01*
X177596197Y-90754684D01*
X177619858Y-90751174D01*
X177643750Y-90750000D01*
X178556250Y-90750000D01*
X178580142Y-90751174D01*
X178580142Y-90751174D01*
G37*
D18*
X178100000Y-91237500D03*
D17*
G36*
X178580142Y-88876174D02*
G01*
X178603803Y-88879684D01*
X178627007Y-88885496D01*
X178649529Y-88893554D01*
X178671153Y-88903782D01*
X178691670Y-88916079D01*
X178710883Y-88930329D01*
X178728607Y-88946393D01*
X178744671Y-88964117D01*
X178758921Y-88983330D01*
X178771218Y-89003847D01*
X178781446Y-89025471D01*
X178789504Y-89047993D01*
X178795316Y-89071197D01*
X178798826Y-89094858D01*
X178800000Y-89118750D01*
X178800000Y-89606250D01*
X178798826Y-89630142D01*
X178795316Y-89653803D01*
X178789504Y-89677007D01*
X178781446Y-89699529D01*
X178771218Y-89721153D01*
X178758921Y-89741670D01*
X178744671Y-89760883D01*
X178728607Y-89778607D01*
X178710883Y-89794671D01*
X178691670Y-89808921D01*
X178671153Y-89821218D01*
X178649529Y-89831446D01*
X178627007Y-89839504D01*
X178603803Y-89845316D01*
X178580142Y-89848826D01*
X178556250Y-89850000D01*
X177643750Y-89850000D01*
X177619858Y-89848826D01*
X177596197Y-89845316D01*
X177572993Y-89839504D01*
X177550471Y-89831446D01*
X177528847Y-89821218D01*
X177508330Y-89808921D01*
X177489117Y-89794671D01*
X177471393Y-89778607D01*
X177455329Y-89760883D01*
X177441079Y-89741670D01*
X177428782Y-89721153D01*
X177418554Y-89699529D01*
X177410496Y-89677007D01*
X177404684Y-89653803D01*
X177401174Y-89630142D01*
X177400000Y-89606250D01*
X177400000Y-89118750D01*
X177401174Y-89094858D01*
X177404684Y-89071197D01*
X177410496Y-89047993D01*
X177418554Y-89025471D01*
X177428782Y-89003847D01*
X177441079Y-88983330D01*
X177455329Y-88964117D01*
X177471393Y-88946393D01*
X177489117Y-88930329D01*
X177508330Y-88916079D01*
X177528847Y-88903782D01*
X177550471Y-88893554D01*
X177572993Y-88885496D01*
X177596197Y-88879684D01*
X177619858Y-88876174D01*
X177643750Y-88875000D01*
X178556250Y-88875000D01*
X178580142Y-88876174D01*
X178580142Y-88876174D01*
G37*
D18*
X178100000Y-89362500D03*
D17*
G36*
X181305142Y-92651174D02*
G01*
X181328803Y-92654684D01*
X181352007Y-92660496D01*
X181374529Y-92668554D01*
X181396153Y-92678782D01*
X181416670Y-92691079D01*
X181435883Y-92705329D01*
X181453607Y-92721393D01*
X181469671Y-92739117D01*
X181483921Y-92758330D01*
X181496218Y-92778847D01*
X181506446Y-92800471D01*
X181514504Y-92822993D01*
X181520316Y-92846197D01*
X181523826Y-92869858D01*
X181525000Y-92893750D01*
X181525000Y-93806250D01*
X181523826Y-93830142D01*
X181520316Y-93853803D01*
X181514504Y-93877007D01*
X181506446Y-93899529D01*
X181496218Y-93921153D01*
X181483921Y-93941670D01*
X181469671Y-93960883D01*
X181453607Y-93978607D01*
X181435883Y-93994671D01*
X181416670Y-94008921D01*
X181396153Y-94021218D01*
X181374529Y-94031446D01*
X181352007Y-94039504D01*
X181328803Y-94045316D01*
X181305142Y-94048826D01*
X181281250Y-94050000D01*
X180793750Y-94050000D01*
X180769858Y-94048826D01*
X180746197Y-94045316D01*
X180722993Y-94039504D01*
X180700471Y-94031446D01*
X180678847Y-94021218D01*
X180658330Y-94008921D01*
X180639117Y-93994671D01*
X180621393Y-93978607D01*
X180605329Y-93960883D01*
X180591079Y-93941670D01*
X180578782Y-93921153D01*
X180568554Y-93899529D01*
X180560496Y-93877007D01*
X180554684Y-93853803D01*
X180551174Y-93830142D01*
X180550000Y-93806250D01*
X180550000Y-92893750D01*
X180551174Y-92869858D01*
X180554684Y-92846197D01*
X180560496Y-92822993D01*
X180568554Y-92800471D01*
X180578782Y-92778847D01*
X180591079Y-92758330D01*
X180605329Y-92739117D01*
X180621393Y-92721393D01*
X180639117Y-92705329D01*
X180658330Y-92691079D01*
X180678847Y-92678782D01*
X180700471Y-92668554D01*
X180722993Y-92660496D01*
X180746197Y-92654684D01*
X180769858Y-92651174D01*
X180793750Y-92650000D01*
X181281250Y-92650000D01*
X181305142Y-92651174D01*
X181305142Y-92651174D01*
G37*
D18*
X181037500Y-93350000D03*
D17*
G36*
X179430142Y-92651174D02*
G01*
X179453803Y-92654684D01*
X179477007Y-92660496D01*
X179499529Y-92668554D01*
X179521153Y-92678782D01*
X179541670Y-92691079D01*
X179560883Y-92705329D01*
X179578607Y-92721393D01*
X179594671Y-92739117D01*
X179608921Y-92758330D01*
X179621218Y-92778847D01*
X179631446Y-92800471D01*
X179639504Y-92822993D01*
X179645316Y-92846197D01*
X179648826Y-92869858D01*
X179650000Y-92893750D01*
X179650000Y-93806250D01*
X179648826Y-93830142D01*
X179645316Y-93853803D01*
X179639504Y-93877007D01*
X179631446Y-93899529D01*
X179621218Y-93921153D01*
X179608921Y-93941670D01*
X179594671Y-93960883D01*
X179578607Y-93978607D01*
X179560883Y-93994671D01*
X179541670Y-94008921D01*
X179521153Y-94021218D01*
X179499529Y-94031446D01*
X179477007Y-94039504D01*
X179453803Y-94045316D01*
X179430142Y-94048826D01*
X179406250Y-94050000D01*
X178918750Y-94050000D01*
X178894858Y-94048826D01*
X178871197Y-94045316D01*
X178847993Y-94039504D01*
X178825471Y-94031446D01*
X178803847Y-94021218D01*
X178783330Y-94008921D01*
X178764117Y-93994671D01*
X178746393Y-93978607D01*
X178730329Y-93960883D01*
X178716079Y-93941670D01*
X178703782Y-93921153D01*
X178693554Y-93899529D01*
X178685496Y-93877007D01*
X178679684Y-93853803D01*
X178676174Y-93830142D01*
X178675000Y-93806250D01*
X178675000Y-92893750D01*
X178676174Y-92869858D01*
X178679684Y-92846197D01*
X178685496Y-92822993D01*
X178693554Y-92800471D01*
X178703782Y-92778847D01*
X178716079Y-92758330D01*
X178730329Y-92739117D01*
X178746393Y-92721393D01*
X178764117Y-92705329D01*
X178783330Y-92691079D01*
X178803847Y-92678782D01*
X178825471Y-92668554D01*
X178847993Y-92660496D01*
X178871197Y-92654684D01*
X178894858Y-92651174D01*
X178918750Y-92650000D01*
X179406250Y-92650000D01*
X179430142Y-92651174D01*
X179430142Y-92651174D01*
G37*
D18*
X179162500Y-93350000D03*
D17*
G36*
X154830142Y-89801174D02*
G01*
X154853803Y-89804684D01*
X154877007Y-89810496D01*
X154899529Y-89818554D01*
X154921153Y-89828782D01*
X154941670Y-89841079D01*
X154960883Y-89855329D01*
X154978607Y-89871393D01*
X154994671Y-89889117D01*
X155008921Y-89908330D01*
X155021218Y-89928847D01*
X155031446Y-89950471D01*
X155039504Y-89972993D01*
X155045316Y-89996197D01*
X155048826Y-90019858D01*
X155050000Y-90043750D01*
X155050000Y-90531250D01*
X155048826Y-90555142D01*
X155045316Y-90578803D01*
X155039504Y-90602007D01*
X155031446Y-90624529D01*
X155021218Y-90646153D01*
X155008921Y-90666670D01*
X154994671Y-90685883D01*
X154978607Y-90703607D01*
X154960883Y-90719671D01*
X154941670Y-90733921D01*
X154921153Y-90746218D01*
X154899529Y-90756446D01*
X154877007Y-90764504D01*
X154853803Y-90770316D01*
X154830142Y-90773826D01*
X154806250Y-90775000D01*
X153893750Y-90775000D01*
X153869858Y-90773826D01*
X153846197Y-90770316D01*
X153822993Y-90764504D01*
X153800471Y-90756446D01*
X153778847Y-90746218D01*
X153758330Y-90733921D01*
X153739117Y-90719671D01*
X153721393Y-90703607D01*
X153705329Y-90685883D01*
X153691079Y-90666670D01*
X153678782Y-90646153D01*
X153668554Y-90624529D01*
X153660496Y-90602007D01*
X153654684Y-90578803D01*
X153651174Y-90555142D01*
X153650000Y-90531250D01*
X153650000Y-90043750D01*
X153651174Y-90019858D01*
X153654684Y-89996197D01*
X153660496Y-89972993D01*
X153668554Y-89950471D01*
X153678782Y-89928847D01*
X153691079Y-89908330D01*
X153705329Y-89889117D01*
X153721393Y-89871393D01*
X153739117Y-89855329D01*
X153758330Y-89841079D01*
X153778847Y-89828782D01*
X153800471Y-89818554D01*
X153822993Y-89810496D01*
X153846197Y-89804684D01*
X153869858Y-89801174D01*
X153893750Y-89800000D01*
X154806250Y-89800000D01*
X154830142Y-89801174D01*
X154830142Y-89801174D01*
G37*
D18*
X154350000Y-90287500D03*
D17*
G36*
X154830142Y-87926174D02*
G01*
X154853803Y-87929684D01*
X154877007Y-87935496D01*
X154899529Y-87943554D01*
X154921153Y-87953782D01*
X154941670Y-87966079D01*
X154960883Y-87980329D01*
X154978607Y-87996393D01*
X154994671Y-88014117D01*
X155008921Y-88033330D01*
X155021218Y-88053847D01*
X155031446Y-88075471D01*
X155039504Y-88097993D01*
X155045316Y-88121197D01*
X155048826Y-88144858D01*
X155050000Y-88168750D01*
X155050000Y-88656250D01*
X155048826Y-88680142D01*
X155045316Y-88703803D01*
X155039504Y-88727007D01*
X155031446Y-88749529D01*
X155021218Y-88771153D01*
X155008921Y-88791670D01*
X154994671Y-88810883D01*
X154978607Y-88828607D01*
X154960883Y-88844671D01*
X154941670Y-88858921D01*
X154921153Y-88871218D01*
X154899529Y-88881446D01*
X154877007Y-88889504D01*
X154853803Y-88895316D01*
X154830142Y-88898826D01*
X154806250Y-88900000D01*
X153893750Y-88900000D01*
X153869858Y-88898826D01*
X153846197Y-88895316D01*
X153822993Y-88889504D01*
X153800471Y-88881446D01*
X153778847Y-88871218D01*
X153758330Y-88858921D01*
X153739117Y-88844671D01*
X153721393Y-88828607D01*
X153705329Y-88810883D01*
X153691079Y-88791670D01*
X153678782Y-88771153D01*
X153668554Y-88749529D01*
X153660496Y-88727007D01*
X153654684Y-88703803D01*
X153651174Y-88680142D01*
X153650000Y-88656250D01*
X153650000Y-88168750D01*
X153651174Y-88144858D01*
X153654684Y-88121197D01*
X153660496Y-88097993D01*
X153668554Y-88075471D01*
X153678782Y-88053847D01*
X153691079Y-88033330D01*
X153705329Y-88014117D01*
X153721393Y-87996393D01*
X153739117Y-87980329D01*
X153758330Y-87966079D01*
X153778847Y-87953782D01*
X153800471Y-87943554D01*
X153822993Y-87935496D01*
X153846197Y-87929684D01*
X153869858Y-87926174D01*
X153893750Y-87925000D01*
X154806250Y-87925000D01*
X154830142Y-87926174D01*
X154830142Y-87926174D01*
G37*
D18*
X154350000Y-88412500D03*
D17*
G36*
X158030142Y-87926174D02*
G01*
X158053803Y-87929684D01*
X158077007Y-87935496D01*
X158099529Y-87943554D01*
X158121153Y-87953782D01*
X158141670Y-87966079D01*
X158160883Y-87980329D01*
X158178607Y-87996393D01*
X158194671Y-88014117D01*
X158208921Y-88033330D01*
X158221218Y-88053847D01*
X158231446Y-88075471D01*
X158239504Y-88097993D01*
X158245316Y-88121197D01*
X158248826Y-88144858D01*
X158250000Y-88168750D01*
X158250000Y-88656250D01*
X158248826Y-88680142D01*
X158245316Y-88703803D01*
X158239504Y-88727007D01*
X158231446Y-88749529D01*
X158221218Y-88771153D01*
X158208921Y-88791670D01*
X158194671Y-88810883D01*
X158178607Y-88828607D01*
X158160883Y-88844671D01*
X158141670Y-88858921D01*
X158121153Y-88871218D01*
X158099529Y-88881446D01*
X158077007Y-88889504D01*
X158053803Y-88895316D01*
X158030142Y-88898826D01*
X158006250Y-88900000D01*
X157093750Y-88900000D01*
X157069858Y-88898826D01*
X157046197Y-88895316D01*
X157022993Y-88889504D01*
X157000471Y-88881446D01*
X156978847Y-88871218D01*
X156958330Y-88858921D01*
X156939117Y-88844671D01*
X156921393Y-88828607D01*
X156905329Y-88810883D01*
X156891079Y-88791670D01*
X156878782Y-88771153D01*
X156868554Y-88749529D01*
X156860496Y-88727007D01*
X156854684Y-88703803D01*
X156851174Y-88680142D01*
X156850000Y-88656250D01*
X156850000Y-88168750D01*
X156851174Y-88144858D01*
X156854684Y-88121197D01*
X156860496Y-88097993D01*
X156868554Y-88075471D01*
X156878782Y-88053847D01*
X156891079Y-88033330D01*
X156905329Y-88014117D01*
X156921393Y-87996393D01*
X156939117Y-87980329D01*
X156958330Y-87966079D01*
X156978847Y-87953782D01*
X157000471Y-87943554D01*
X157022993Y-87935496D01*
X157046197Y-87929684D01*
X157069858Y-87926174D01*
X157093750Y-87925000D01*
X158006250Y-87925000D01*
X158030142Y-87926174D01*
X158030142Y-87926174D01*
G37*
D18*
X157550000Y-88412500D03*
D17*
G36*
X158030142Y-89801174D02*
G01*
X158053803Y-89804684D01*
X158077007Y-89810496D01*
X158099529Y-89818554D01*
X158121153Y-89828782D01*
X158141670Y-89841079D01*
X158160883Y-89855329D01*
X158178607Y-89871393D01*
X158194671Y-89889117D01*
X158208921Y-89908330D01*
X158221218Y-89928847D01*
X158231446Y-89950471D01*
X158239504Y-89972993D01*
X158245316Y-89996197D01*
X158248826Y-90019858D01*
X158250000Y-90043750D01*
X158250000Y-90531250D01*
X158248826Y-90555142D01*
X158245316Y-90578803D01*
X158239504Y-90602007D01*
X158231446Y-90624529D01*
X158221218Y-90646153D01*
X158208921Y-90666670D01*
X158194671Y-90685883D01*
X158178607Y-90703607D01*
X158160883Y-90719671D01*
X158141670Y-90733921D01*
X158121153Y-90746218D01*
X158099529Y-90756446D01*
X158077007Y-90764504D01*
X158053803Y-90770316D01*
X158030142Y-90773826D01*
X158006250Y-90775000D01*
X157093750Y-90775000D01*
X157069858Y-90773826D01*
X157046197Y-90770316D01*
X157022993Y-90764504D01*
X157000471Y-90756446D01*
X156978847Y-90746218D01*
X156958330Y-90733921D01*
X156939117Y-90719671D01*
X156921393Y-90703607D01*
X156905329Y-90685883D01*
X156891079Y-90666670D01*
X156878782Y-90646153D01*
X156868554Y-90624529D01*
X156860496Y-90602007D01*
X156854684Y-90578803D01*
X156851174Y-90555142D01*
X156850000Y-90531250D01*
X156850000Y-90043750D01*
X156851174Y-90019858D01*
X156854684Y-89996197D01*
X156860496Y-89972993D01*
X156868554Y-89950471D01*
X156878782Y-89928847D01*
X156891079Y-89908330D01*
X156905329Y-89889117D01*
X156921393Y-89871393D01*
X156939117Y-89855329D01*
X156958330Y-89841079D01*
X156978847Y-89828782D01*
X157000471Y-89818554D01*
X157022993Y-89810496D01*
X157046197Y-89804684D01*
X157069858Y-89801174D01*
X157093750Y-89800000D01*
X158006250Y-89800000D01*
X158030142Y-89801174D01*
X158030142Y-89801174D01*
G37*
D18*
X157550000Y-90287500D03*
D17*
G36*
X188880142Y-89801174D02*
G01*
X188903803Y-89804684D01*
X188927007Y-89810496D01*
X188949529Y-89818554D01*
X188971153Y-89828782D01*
X188991670Y-89841079D01*
X189010883Y-89855329D01*
X189028607Y-89871393D01*
X189044671Y-89889117D01*
X189058921Y-89908330D01*
X189071218Y-89928847D01*
X189081446Y-89950471D01*
X189089504Y-89972993D01*
X189095316Y-89996197D01*
X189098826Y-90019858D01*
X189100000Y-90043750D01*
X189100000Y-90531250D01*
X189098826Y-90555142D01*
X189095316Y-90578803D01*
X189089504Y-90602007D01*
X189081446Y-90624529D01*
X189071218Y-90646153D01*
X189058921Y-90666670D01*
X189044671Y-90685883D01*
X189028607Y-90703607D01*
X189010883Y-90719671D01*
X188991670Y-90733921D01*
X188971153Y-90746218D01*
X188949529Y-90756446D01*
X188927007Y-90764504D01*
X188903803Y-90770316D01*
X188880142Y-90773826D01*
X188856250Y-90775000D01*
X187943750Y-90775000D01*
X187919858Y-90773826D01*
X187896197Y-90770316D01*
X187872993Y-90764504D01*
X187850471Y-90756446D01*
X187828847Y-90746218D01*
X187808330Y-90733921D01*
X187789117Y-90719671D01*
X187771393Y-90703607D01*
X187755329Y-90685883D01*
X187741079Y-90666670D01*
X187728782Y-90646153D01*
X187718554Y-90624529D01*
X187710496Y-90602007D01*
X187704684Y-90578803D01*
X187701174Y-90555142D01*
X187700000Y-90531250D01*
X187700000Y-90043750D01*
X187701174Y-90019858D01*
X187704684Y-89996197D01*
X187710496Y-89972993D01*
X187718554Y-89950471D01*
X187728782Y-89928847D01*
X187741079Y-89908330D01*
X187755329Y-89889117D01*
X187771393Y-89871393D01*
X187789117Y-89855329D01*
X187808330Y-89841079D01*
X187828847Y-89828782D01*
X187850471Y-89818554D01*
X187872993Y-89810496D01*
X187896197Y-89804684D01*
X187919858Y-89801174D01*
X187943750Y-89800000D01*
X188856250Y-89800000D01*
X188880142Y-89801174D01*
X188880142Y-89801174D01*
G37*
D18*
X188400000Y-90287500D03*
D17*
G36*
X188880142Y-87926174D02*
G01*
X188903803Y-87929684D01*
X188927007Y-87935496D01*
X188949529Y-87943554D01*
X188971153Y-87953782D01*
X188991670Y-87966079D01*
X189010883Y-87980329D01*
X189028607Y-87996393D01*
X189044671Y-88014117D01*
X189058921Y-88033330D01*
X189071218Y-88053847D01*
X189081446Y-88075471D01*
X189089504Y-88097993D01*
X189095316Y-88121197D01*
X189098826Y-88144858D01*
X189100000Y-88168750D01*
X189100000Y-88656250D01*
X189098826Y-88680142D01*
X189095316Y-88703803D01*
X189089504Y-88727007D01*
X189081446Y-88749529D01*
X189071218Y-88771153D01*
X189058921Y-88791670D01*
X189044671Y-88810883D01*
X189028607Y-88828607D01*
X189010883Y-88844671D01*
X188991670Y-88858921D01*
X188971153Y-88871218D01*
X188949529Y-88881446D01*
X188927007Y-88889504D01*
X188903803Y-88895316D01*
X188880142Y-88898826D01*
X188856250Y-88900000D01*
X187943750Y-88900000D01*
X187919858Y-88898826D01*
X187896197Y-88895316D01*
X187872993Y-88889504D01*
X187850471Y-88881446D01*
X187828847Y-88871218D01*
X187808330Y-88858921D01*
X187789117Y-88844671D01*
X187771393Y-88828607D01*
X187755329Y-88810883D01*
X187741079Y-88791670D01*
X187728782Y-88771153D01*
X187718554Y-88749529D01*
X187710496Y-88727007D01*
X187704684Y-88703803D01*
X187701174Y-88680142D01*
X187700000Y-88656250D01*
X187700000Y-88168750D01*
X187701174Y-88144858D01*
X187704684Y-88121197D01*
X187710496Y-88097993D01*
X187718554Y-88075471D01*
X187728782Y-88053847D01*
X187741079Y-88033330D01*
X187755329Y-88014117D01*
X187771393Y-87996393D01*
X187789117Y-87980329D01*
X187808330Y-87966079D01*
X187828847Y-87953782D01*
X187850471Y-87943554D01*
X187872993Y-87935496D01*
X187896197Y-87929684D01*
X187919858Y-87926174D01*
X187943750Y-87925000D01*
X188856250Y-87925000D01*
X188880142Y-87926174D01*
X188880142Y-87926174D01*
G37*
D18*
X188400000Y-88412500D03*
D17*
G36*
X192080142Y-87926174D02*
G01*
X192103803Y-87929684D01*
X192127007Y-87935496D01*
X192149529Y-87943554D01*
X192171153Y-87953782D01*
X192191670Y-87966079D01*
X192210883Y-87980329D01*
X192228607Y-87996393D01*
X192244671Y-88014117D01*
X192258921Y-88033330D01*
X192271218Y-88053847D01*
X192281446Y-88075471D01*
X192289504Y-88097993D01*
X192295316Y-88121197D01*
X192298826Y-88144858D01*
X192300000Y-88168750D01*
X192300000Y-88656250D01*
X192298826Y-88680142D01*
X192295316Y-88703803D01*
X192289504Y-88727007D01*
X192281446Y-88749529D01*
X192271218Y-88771153D01*
X192258921Y-88791670D01*
X192244671Y-88810883D01*
X192228607Y-88828607D01*
X192210883Y-88844671D01*
X192191670Y-88858921D01*
X192171153Y-88871218D01*
X192149529Y-88881446D01*
X192127007Y-88889504D01*
X192103803Y-88895316D01*
X192080142Y-88898826D01*
X192056250Y-88900000D01*
X191143750Y-88900000D01*
X191119858Y-88898826D01*
X191096197Y-88895316D01*
X191072993Y-88889504D01*
X191050471Y-88881446D01*
X191028847Y-88871218D01*
X191008330Y-88858921D01*
X190989117Y-88844671D01*
X190971393Y-88828607D01*
X190955329Y-88810883D01*
X190941079Y-88791670D01*
X190928782Y-88771153D01*
X190918554Y-88749529D01*
X190910496Y-88727007D01*
X190904684Y-88703803D01*
X190901174Y-88680142D01*
X190900000Y-88656250D01*
X190900000Y-88168750D01*
X190901174Y-88144858D01*
X190904684Y-88121197D01*
X190910496Y-88097993D01*
X190918554Y-88075471D01*
X190928782Y-88053847D01*
X190941079Y-88033330D01*
X190955329Y-88014117D01*
X190971393Y-87996393D01*
X190989117Y-87980329D01*
X191008330Y-87966079D01*
X191028847Y-87953782D01*
X191050471Y-87943554D01*
X191072993Y-87935496D01*
X191096197Y-87929684D01*
X191119858Y-87926174D01*
X191143750Y-87925000D01*
X192056250Y-87925000D01*
X192080142Y-87926174D01*
X192080142Y-87926174D01*
G37*
D18*
X191600000Y-88412500D03*
D17*
G36*
X192080142Y-89801174D02*
G01*
X192103803Y-89804684D01*
X192127007Y-89810496D01*
X192149529Y-89818554D01*
X192171153Y-89828782D01*
X192191670Y-89841079D01*
X192210883Y-89855329D01*
X192228607Y-89871393D01*
X192244671Y-89889117D01*
X192258921Y-89908330D01*
X192271218Y-89928847D01*
X192281446Y-89950471D01*
X192289504Y-89972993D01*
X192295316Y-89996197D01*
X192298826Y-90019858D01*
X192300000Y-90043750D01*
X192300000Y-90531250D01*
X192298826Y-90555142D01*
X192295316Y-90578803D01*
X192289504Y-90602007D01*
X192281446Y-90624529D01*
X192271218Y-90646153D01*
X192258921Y-90666670D01*
X192244671Y-90685883D01*
X192228607Y-90703607D01*
X192210883Y-90719671D01*
X192191670Y-90733921D01*
X192171153Y-90746218D01*
X192149529Y-90756446D01*
X192127007Y-90764504D01*
X192103803Y-90770316D01*
X192080142Y-90773826D01*
X192056250Y-90775000D01*
X191143750Y-90775000D01*
X191119858Y-90773826D01*
X191096197Y-90770316D01*
X191072993Y-90764504D01*
X191050471Y-90756446D01*
X191028847Y-90746218D01*
X191008330Y-90733921D01*
X190989117Y-90719671D01*
X190971393Y-90703607D01*
X190955329Y-90685883D01*
X190941079Y-90666670D01*
X190928782Y-90646153D01*
X190918554Y-90624529D01*
X190910496Y-90602007D01*
X190904684Y-90578803D01*
X190901174Y-90555142D01*
X190900000Y-90531250D01*
X190900000Y-90043750D01*
X190901174Y-90019858D01*
X190904684Y-89996197D01*
X190910496Y-89972993D01*
X190918554Y-89950471D01*
X190928782Y-89928847D01*
X190941079Y-89908330D01*
X190955329Y-89889117D01*
X190971393Y-89871393D01*
X190989117Y-89855329D01*
X191008330Y-89841079D01*
X191028847Y-89828782D01*
X191050471Y-89818554D01*
X191072993Y-89810496D01*
X191096197Y-89804684D01*
X191119858Y-89801174D01*
X191143750Y-89800000D01*
X192056250Y-89800000D01*
X192080142Y-89801174D01*
X192080142Y-89801174D01*
G37*
D18*
X191600000Y-90287500D03*
D17*
G36*
X164480142Y-103576174D02*
G01*
X164503803Y-103579684D01*
X164527007Y-103585496D01*
X164549529Y-103593554D01*
X164571153Y-103603782D01*
X164591670Y-103616079D01*
X164610883Y-103630329D01*
X164628607Y-103646393D01*
X164644671Y-103664117D01*
X164658921Y-103683330D01*
X164671218Y-103703847D01*
X164681446Y-103725471D01*
X164689504Y-103747993D01*
X164695316Y-103771197D01*
X164698826Y-103794858D01*
X164700000Y-103818750D01*
X164700000Y-104306250D01*
X164698826Y-104330142D01*
X164695316Y-104353803D01*
X164689504Y-104377007D01*
X164681446Y-104399529D01*
X164671218Y-104421153D01*
X164658921Y-104441670D01*
X164644671Y-104460883D01*
X164628607Y-104478607D01*
X164610883Y-104494671D01*
X164591670Y-104508921D01*
X164571153Y-104521218D01*
X164549529Y-104531446D01*
X164527007Y-104539504D01*
X164503803Y-104545316D01*
X164480142Y-104548826D01*
X164456250Y-104550000D01*
X163543750Y-104550000D01*
X163519858Y-104548826D01*
X163496197Y-104545316D01*
X163472993Y-104539504D01*
X163450471Y-104531446D01*
X163428847Y-104521218D01*
X163408330Y-104508921D01*
X163389117Y-104494671D01*
X163371393Y-104478607D01*
X163355329Y-104460883D01*
X163341079Y-104441670D01*
X163328782Y-104421153D01*
X163318554Y-104399529D01*
X163310496Y-104377007D01*
X163304684Y-104353803D01*
X163301174Y-104330142D01*
X163300000Y-104306250D01*
X163300000Y-103818750D01*
X163301174Y-103794858D01*
X163304684Y-103771197D01*
X163310496Y-103747993D01*
X163318554Y-103725471D01*
X163328782Y-103703847D01*
X163341079Y-103683330D01*
X163355329Y-103664117D01*
X163371393Y-103646393D01*
X163389117Y-103630329D01*
X163408330Y-103616079D01*
X163428847Y-103603782D01*
X163450471Y-103593554D01*
X163472993Y-103585496D01*
X163496197Y-103579684D01*
X163519858Y-103576174D01*
X163543750Y-103575000D01*
X164456250Y-103575000D01*
X164480142Y-103576174D01*
X164480142Y-103576174D01*
G37*
D18*
X164000000Y-104062500D03*
D17*
G36*
X164480142Y-105451174D02*
G01*
X164503803Y-105454684D01*
X164527007Y-105460496D01*
X164549529Y-105468554D01*
X164571153Y-105478782D01*
X164591670Y-105491079D01*
X164610883Y-105505329D01*
X164628607Y-105521393D01*
X164644671Y-105539117D01*
X164658921Y-105558330D01*
X164671218Y-105578847D01*
X164681446Y-105600471D01*
X164689504Y-105622993D01*
X164695316Y-105646197D01*
X164698826Y-105669858D01*
X164700000Y-105693750D01*
X164700000Y-106181250D01*
X164698826Y-106205142D01*
X164695316Y-106228803D01*
X164689504Y-106252007D01*
X164681446Y-106274529D01*
X164671218Y-106296153D01*
X164658921Y-106316670D01*
X164644671Y-106335883D01*
X164628607Y-106353607D01*
X164610883Y-106369671D01*
X164591670Y-106383921D01*
X164571153Y-106396218D01*
X164549529Y-106406446D01*
X164527007Y-106414504D01*
X164503803Y-106420316D01*
X164480142Y-106423826D01*
X164456250Y-106425000D01*
X163543750Y-106425000D01*
X163519858Y-106423826D01*
X163496197Y-106420316D01*
X163472993Y-106414504D01*
X163450471Y-106406446D01*
X163428847Y-106396218D01*
X163408330Y-106383921D01*
X163389117Y-106369671D01*
X163371393Y-106353607D01*
X163355329Y-106335883D01*
X163341079Y-106316670D01*
X163328782Y-106296153D01*
X163318554Y-106274529D01*
X163310496Y-106252007D01*
X163304684Y-106228803D01*
X163301174Y-106205142D01*
X163300000Y-106181250D01*
X163300000Y-105693750D01*
X163301174Y-105669858D01*
X163304684Y-105646197D01*
X163310496Y-105622993D01*
X163318554Y-105600471D01*
X163328782Y-105578847D01*
X163341079Y-105558330D01*
X163355329Y-105539117D01*
X163371393Y-105521393D01*
X163389117Y-105505329D01*
X163408330Y-105491079D01*
X163428847Y-105478782D01*
X163450471Y-105468554D01*
X163472993Y-105460496D01*
X163496197Y-105454684D01*
X163519858Y-105451174D01*
X163543750Y-105450000D01*
X164456250Y-105450000D01*
X164480142Y-105451174D01*
X164480142Y-105451174D01*
G37*
D18*
X164000000Y-105937500D03*
D17*
G36*
X168380142Y-105451174D02*
G01*
X168403803Y-105454684D01*
X168427007Y-105460496D01*
X168449529Y-105468554D01*
X168471153Y-105478782D01*
X168491670Y-105491079D01*
X168510883Y-105505329D01*
X168528607Y-105521393D01*
X168544671Y-105539117D01*
X168558921Y-105558330D01*
X168571218Y-105578847D01*
X168581446Y-105600471D01*
X168589504Y-105622993D01*
X168595316Y-105646197D01*
X168598826Y-105669858D01*
X168600000Y-105693750D01*
X168600000Y-106181250D01*
X168598826Y-106205142D01*
X168595316Y-106228803D01*
X168589504Y-106252007D01*
X168581446Y-106274529D01*
X168571218Y-106296153D01*
X168558921Y-106316670D01*
X168544671Y-106335883D01*
X168528607Y-106353607D01*
X168510883Y-106369671D01*
X168491670Y-106383921D01*
X168471153Y-106396218D01*
X168449529Y-106406446D01*
X168427007Y-106414504D01*
X168403803Y-106420316D01*
X168380142Y-106423826D01*
X168356250Y-106425000D01*
X167443750Y-106425000D01*
X167419858Y-106423826D01*
X167396197Y-106420316D01*
X167372993Y-106414504D01*
X167350471Y-106406446D01*
X167328847Y-106396218D01*
X167308330Y-106383921D01*
X167289117Y-106369671D01*
X167271393Y-106353607D01*
X167255329Y-106335883D01*
X167241079Y-106316670D01*
X167228782Y-106296153D01*
X167218554Y-106274529D01*
X167210496Y-106252007D01*
X167204684Y-106228803D01*
X167201174Y-106205142D01*
X167200000Y-106181250D01*
X167200000Y-105693750D01*
X167201174Y-105669858D01*
X167204684Y-105646197D01*
X167210496Y-105622993D01*
X167218554Y-105600471D01*
X167228782Y-105578847D01*
X167241079Y-105558330D01*
X167255329Y-105539117D01*
X167271393Y-105521393D01*
X167289117Y-105505329D01*
X167308330Y-105491079D01*
X167328847Y-105478782D01*
X167350471Y-105468554D01*
X167372993Y-105460496D01*
X167396197Y-105454684D01*
X167419858Y-105451174D01*
X167443750Y-105450000D01*
X168356250Y-105450000D01*
X168380142Y-105451174D01*
X168380142Y-105451174D01*
G37*
D18*
X167900000Y-105937500D03*
D17*
G36*
X168380142Y-103576174D02*
G01*
X168403803Y-103579684D01*
X168427007Y-103585496D01*
X168449529Y-103593554D01*
X168471153Y-103603782D01*
X168491670Y-103616079D01*
X168510883Y-103630329D01*
X168528607Y-103646393D01*
X168544671Y-103664117D01*
X168558921Y-103683330D01*
X168571218Y-103703847D01*
X168581446Y-103725471D01*
X168589504Y-103747993D01*
X168595316Y-103771197D01*
X168598826Y-103794858D01*
X168600000Y-103818750D01*
X168600000Y-104306250D01*
X168598826Y-104330142D01*
X168595316Y-104353803D01*
X168589504Y-104377007D01*
X168581446Y-104399529D01*
X168571218Y-104421153D01*
X168558921Y-104441670D01*
X168544671Y-104460883D01*
X168528607Y-104478607D01*
X168510883Y-104494671D01*
X168491670Y-104508921D01*
X168471153Y-104521218D01*
X168449529Y-104531446D01*
X168427007Y-104539504D01*
X168403803Y-104545316D01*
X168380142Y-104548826D01*
X168356250Y-104550000D01*
X167443750Y-104550000D01*
X167419858Y-104548826D01*
X167396197Y-104545316D01*
X167372993Y-104539504D01*
X167350471Y-104531446D01*
X167328847Y-104521218D01*
X167308330Y-104508921D01*
X167289117Y-104494671D01*
X167271393Y-104478607D01*
X167255329Y-104460883D01*
X167241079Y-104441670D01*
X167228782Y-104421153D01*
X167218554Y-104399529D01*
X167210496Y-104377007D01*
X167204684Y-104353803D01*
X167201174Y-104330142D01*
X167200000Y-104306250D01*
X167200000Y-103818750D01*
X167201174Y-103794858D01*
X167204684Y-103771197D01*
X167210496Y-103747993D01*
X167218554Y-103725471D01*
X167228782Y-103703847D01*
X167241079Y-103683330D01*
X167255329Y-103664117D01*
X167271393Y-103646393D01*
X167289117Y-103630329D01*
X167308330Y-103616079D01*
X167328847Y-103603782D01*
X167350471Y-103593554D01*
X167372993Y-103585496D01*
X167396197Y-103579684D01*
X167419858Y-103576174D01*
X167443750Y-103575000D01*
X168356250Y-103575000D01*
X168380142Y-103576174D01*
X168380142Y-103576174D01*
G37*
D18*
X167900000Y-104062500D03*
D17*
G36*
X178580142Y-105451174D02*
G01*
X178603803Y-105454684D01*
X178627007Y-105460496D01*
X178649529Y-105468554D01*
X178671153Y-105478782D01*
X178691670Y-105491079D01*
X178710883Y-105505329D01*
X178728607Y-105521393D01*
X178744671Y-105539117D01*
X178758921Y-105558330D01*
X178771218Y-105578847D01*
X178781446Y-105600471D01*
X178789504Y-105622993D01*
X178795316Y-105646197D01*
X178798826Y-105669858D01*
X178800000Y-105693750D01*
X178800000Y-106181250D01*
X178798826Y-106205142D01*
X178795316Y-106228803D01*
X178789504Y-106252007D01*
X178781446Y-106274529D01*
X178771218Y-106296153D01*
X178758921Y-106316670D01*
X178744671Y-106335883D01*
X178728607Y-106353607D01*
X178710883Y-106369671D01*
X178691670Y-106383921D01*
X178671153Y-106396218D01*
X178649529Y-106406446D01*
X178627007Y-106414504D01*
X178603803Y-106420316D01*
X178580142Y-106423826D01*
X178556250Y-106425000D01*
X177643750Y-106425000D01*
X177619858Y-106423826D01*
X177596197Y-106420316D01*
X177572993Y-106414504D01*
X177550471Y-106406446D01*
X177528847Y-106396218D01*
X177508330Y-106383921D01*
X177489117Y-106369671D01*
X177471393Y-106353607D01*
X177455329Y-106335883D01*
X177441079Y-106316670D01*
X177428782Y-106296153D01*
X177418554Y-106274529D01*
X177410496Y-106252007D01*
X177404684Y-106228803D01*
X177401174Y-106205142D01*
X177400000Y-106181250D01*
X177400000Y-105693750D01*
X177401174Y-105669858D01*
X177404684Y-105646197D01*
X177410496Y-105622993D01*
X177418554Y-105600471D01*
X177428782Y-105578847D01*
X177441079Y-105558330D01*
X177455329Y-105539117D01*
X177471393Y-105521393D01*
X177489117Y-105505329D01*
X177508330Y-105491079D01*
X177528847Y-105478782D01*
X177550471Y-105468554D01*
X177572993Y-105460496D01*
X177596197Y-105454684D01*
X177619858Y-105451174D01*
X177643750Y-105450000D01*
X178556250Y-105450000D01*
X178580142Y-105451174D01*
X178580142Y-105451174D01*
G37*
D18*
X178100000Y-105937500D03*
D17*
G36*
X178580142Y-103576174D02*
G01*
X178603803Y-103579684D01*
X178627007Y-103585496D01*
X178649529Y-103593554D01*
X178671153Y-103603782D01*
X178691670Y-103616079D01*
X178710883Y-103630329D01*
X178728607Y-103646393D01*
X178744671Y-103664117D01*
X178758921Y-103683330D01*
X178771218Y-103703847D01*
X178781446Y-103725471D01*
X178789504Y-103747993D01*
X178795316Y-103771197D01*
X178798826Y-103794858D01*
X178800000Y-103818750D01*
X178800000Y-104306250D01*
X178798826Y-104330142D01*
X178795316Y-104353803D01*
X178789504Y-104377007D01*
X178781446Y-104399529D01*
X178771218Y-104421153D01*
X178758921Y-104441670D01*
X178744671Y-104460883D01*
X178728607Y-104478607D01*
X178710883Y-104494671D01*
X178691670Y-104508921D01*
X178671153Y-104521218D01*
X178649529Y-104531446D01*
X178627007Y-104539504D01*
X178603803Y-104545316D01*
X178580142Y-104548826D01*
X178556250Y-104550000D01*
X177643750Y-104550000D01*
X177619858Y-104548826D01*
X177596197Y-104545316D01*
X177572993Y-104539504D01*
X177550471Y-104531446D01*
X177528847Y-104521218D01*
X177508330Y-104508921D01*
X177489117Y-104494671D01*
X177471393Y-104478607D01*
X177455329Y-104460883D01*
X177441079Y-104441670D01*
X177428782Y-104421153D01*
X177418554Y-104399529D01*
X177410496Y-104377007D01*
X177404684Y-104353803D01*
X177401174Y-104330142D01*
X177400000Y-104306250D01*
X177400000Y-103818750D01*
X177401174Y-103794858D01*
X177404684Y-103771197D01*
X177410496Y-103747993D01*
X177418554Y-103725471D01*
X177428782Y-103703847D01*
X177441079Y-103683330D01*
X177455329Y-103664117D01*
X177471393Y-103646393D01*
X177489117Y-103630329D01*
X177508330Y-103616079D01*
X177528847Y-103603782D01*
X177550471Y-103593554D01*
X177572993Y-103585496D01*
X177596197Y-103579684D01*
X177619858Y-103576174D01*
X177643750Y-103575000D01*
X178556250Y-103575000D01*
X178580142Y-103576174D01*
X178580142Y-103576174D01*
G37*
D18*
X178100000Y-104062500D03*
D17*
G36*
X182480142Y-103576174D02*
G01*
X182503803Y-103579684D01*
X182527007Y-103585496D01*
X182549529Y-103593554D01*
X182571153Y-103603782D01*
X182591670Y-103616079D01*
X182610883Y-103630329D01*
X182628607Y-103646393D01*
X182644671Y-103664117D01*
X182658921Y-103683330D01*
X182671218Y-103703847D01*
X182681446Y-103725471D01*
X182689504Y-103747993D01*
X182695316Y-103771197D01*
X182698826Y-103794858D01*
X182700000Y-103818750D01*
X182700000Y-104306250D01*
X182698826Y-104330142D01*
X182695316Y-104353803D01*
X182689504Y-104377007D01*
X182681446Y-104399529D01*
X182671218Y-104421153D01*
X182658921Y-104441670D01*
X182644671Y-104460883D01*
X182628607Y-104478607D01*
X182610883Y-104494671D01*
X182591670Y-104508921D01*
X182571153Y-104521218D01*
X182549529Y-104531446D01*
X182527007Y-104539504D01*
X182503803Y-104545316D01*
X182480142Y-104548826D01*
X182456250Y-104550000D01*
X181543750Y-104550000D01*
X181519858Y-104548826D01*
X181496197Y-104545316D01*
X181472993Y-104539504D01*
X181450471Y-104531446D01*
X181428847Y-104521218D01*
X181408330Y-104508921D01*
X181389117Y-104494671D01*
X181371393Y-104478607D01*
X181355329Y-104460883D01*
X181341079Y-104441670D01*
X181328782Y-104421153D01*
X181318554Y-104399529D01*
X181310496Y-104377007D01*
X181304684Y-104353803D01*
X181301174Y-104330142D01*
X181300000Y-104306250D01*
X181300000Y-103818750D01*
X181301174Y-103794858D01*
X181304684Y-103771197D01*
X181310496Y-103747993D01*
X181318554Y-103725471D01*
X181328782Y-103703847D01*
X181341079Y-103683330D01*
X181355329Y-103664117D01*
X181371393Y-103646393D01*
X181389117Y-103630329D01*
X181408330Y-103616079D01*
X181428847Y-103603782D01*
X181450471Y-103593554D01*
X181472993Y-103585496D01*
X181496197Y-103579684D01*
X181519858Y-103576174D01*
X181543750Y-103575000D01*
X182456250Y-103575000D01*
X182480142Y-103576174D01*
X182480142Y-103576174D01*
G37*
D18*
X182000000Y-104062500D03*
D17*
G36*
X182480142Y-105451174D02*
G01*
X182503803Y-105454684D01*
X182527007Y-105460496D01*
X182549529Y-105468554D01*
X182571153Y-105478782D01*
X182591670Y-105491079D01*
X182610883Y-105505329D01*
X182628607Y-105521393D01*
X182644671Y-105539117D01*
X182658921Y-105558330D01*
X182671218Y-105578847D01*
X182681446Y-105600471D01*
X182689504Y-105622993D01*
X182695316Y-105646197D01*
X182698826Y-105669858D01*
X182700000Y-105693750D01*
X182700000Y-106181250D01*
X182698826Y-106205142D01*
X182695316Y-106228803D01*
X182689504Y-106252007D01*
X182681446Y-106274529D01*
X182671218Y-106296153D01*
X182658921Y-106316670D01*
X182644671Y-106335883D01*
X182628607Y-106353607D01*
X182610883Y-106369671D01*
X182591670Y-106383921D01*
X182571153Y-106396218D01*
X182549529Y-106406446D01*
X182527007Y-106414504D01*
X182503803Y-106420316D01*
X182480142Y-106423826D01*
X182456250Y-106425000D01*
X181543750Y-106425000D01*
X181519858Y-106423826D01*
X181496197Y-106420316D01*
X181472993Y-106414504D01*
X181450471Y-106406446D01*
X181428847Y-106396218D01*
X181408330Y-106383921D01*
X181389117Y-106369671D01*
X181371393Y-106353607D01*
X181355329Y-106335883D01*
X181341079Y-106316670D01*
X181328782Y-106296153D01*
X181318554Y-106274529D01*
X181310496Y-106252007D01*
X181304684Y-106228803D01*
X181301174Y-106205142D01*
X181300000Y-106181250D01*
X181300000Y-105693750D01*
X181301174Y-105669858D01*
X181304684Y-105646197D01*
X181310496Y-105622993D01*
X181318554Y-105600471D01*
X181328782Y-105578847D01*
X181341079Y-105558330D01*
X181355329Y-105539117D01*
X181371393Y-105521393D01*
X181389117Y-105505329D01*
X181408330Y-105491079D01*
X181428847Y-105478782D01*
X181450471Y-105468554D01*
X181472993Y-105460496D01*
X181496197Y-105454684D01*
X181519858Y-105451174D01*
X181543750Y-105450000D01*
X182456250Y-105450000D01*
X182480142Y-105451174D01*
X182480142Y-105451174D01*
G37*
D18*
X182000000Y-105937500D03*
D13*
X154200000Y-115550000D03*
X191800000Y-115550000D03*
D11*
X159028844Y-90296996D03*
X186940471Y-90296996D03*
X182000000Y-89300000D03*
X167900000Y-89300000D03*
X167000000Y-93350000D03*
X181100000Y-93350000D03*
X186750000Y-84250000D03*
X159250000Y-84250000D03*
D19*
X171500000Y-90000000D03*
X174500000Y-90000000D03*
X171500000Y-86200000D03*
X174500000Y-86200000D03*
X181850000Y-80450000D03*
X179350000Y-80450000D03*
X166650000Y-80450000D03*
D11*
X178100000Y-89300000D03*
X165000000Y-93350000D03*
X179100000Y-93350000D03*
D19*
X161550000Y-80450000D03*
X171700000Y-80450000D03*
X174250000Y-80450000D03*
X176800000Y-80450000D03*
X184400000Y-80450000D03*
D11*
X188050000Y-85424998D03*
X157900000Y-85424998D03*
D19*
X169200000Y-80450000D03*
X164100000Y-80450000D03*
D11*
X164000000Y-105950000D03*
X167900000Y-105950000D03*
X178100000Y-105950000D03*
X182000000Y-105950000D03*
D19*
X173000000Y-98000000D03*
X156000000Y-91750000D03*
X190000000Y-91750000D03*
X173000000Y-106000000D03*
D11*
X164000000Y-89296986D03*
X154200000Y-80450000D03*
X191800000Y-80450000D03*
X154200000Y-115550000D03*
X191800000Y-115550000D03*
D19*
X167000000Y-85000000D03*
X161500000Y-85000000D03*
X166250000Y-86250000D03*
X162500000Y-86250000D03*
X183200000Y-92800000D03*
X183200000Y-94900000D03*
X162448884Y-101674625D03*
X169444652Y-101675751D03*
X183572047Y-101675236D03*
X176425000Y-101675000D03*
D20*
X154350000Y-90300000D02*
X157550000Y-90300000D01*
X191600000Y-90300000D02*
X188400000Y-90300000D01*
X157700000Y-80450000D02*
X157700000Y-81700000D01*
X157553004Y-90296996D02*
X157550000Y-90300000D01*
X159028844Y-90296996D02*
X157553004Y-90296996D01*
X188396996Y-90296996D02*
X188400000Y-90300000D01*
X186940471Y-90296996D02*
X188396996Y-90296996D01*
X188300000Y-80450000D02*
X188300000Y-81950000D01*
D21*
X166325000Y-94025000D02*
X167000000Y-93350000D01*
X166325000Y-96125000D02*
X166325000Y-94025000D01*
X180425000Y-94025000D02*
X181100000Y-93350000D01*
X180425000Y-96125000D02*
X180425000Y-94025000D01*
D20*
X188300000Y-82700000D02*
X186750000Y-84250000D01*
X188300000Y-80450000D02*
X188300000Y-82700000D01*
X157700000Y-82700000D02*
X159250000Y-84250000D01*
X157700000Y-80450000D02*
X157700000Y-82700000D01*
D22*
X166975000Y-95400000D02*
X166975000Y-96125000D01*
X166975000Y-95220002D02*
X166975000Y-95400000D01*
X167900000Y-94295002D02*
X166975000Y-95220002D01*
X167900000Y-91300000D02*
X167900000Y-94295002D01*
D20*
X171500000Y-90000000D02*
X171500000Y-86200000D01*
X174500000Y-90000000D02*
X174500000Y-86200000D01*
D21*
X165675000Y-94025000D02*
X165000000Y-93350000D01*
X165675000Y-96125000D02*
X165675000Y-94025000D01*
X179775000Y-94025000D02*
X179100000Y-93350000D01*
X179775000Y-96125000D02*
X179775000Y-94025000D01*
X165675000Y-97825000D02*
X166000000Y-98150000D01*
X165675000Y-96125000D02*
X165675000Y-97825000D01*
X179775000Y-97825000D02*
X180100000Y-98150000D01*
X179775000Y-96125000D02*
X179775000Y-97825000D01*
D23*
X154200000Y-85300000D02*
X154350000Y-85450000D01*
X157550000Y-85450000D02*
X158050000Y-85450000D01*
X158050000Y-85450000D02*
X158250000Y-85250000D01*
X188400000Y-85450000D02*
X188075002Y-85450000D01*
X188075002Y-85450000D02*
X188050000Y-85424998D01*
X157550000Y-85450000D02*
X157874998Y-85450000D01*
X157874998Y-85450000D02*
X157900000Y-85424998D01*
D21*
X191600000Y-80650000D02*
X191800000Y-80450000D01*
X191600000Y-85450000D02*
X191600000Y-80650000D01*
D23*
X154350000Y-80600000D02*
X154200000Y-80450000D01*
X154350000Y-85450000D02*
X154350000Y-80600000D01*
X188400000Y-84825000D02*
X188075000Y-84500000D01*
X188400000Y-85450000D02*
X188400000Y-84825000D01*
X157550000Y-84825000D02*
X157875000Y-84500000D01*
X157550000Y-85450000D02*
X157550000Y-84825000D01*
D22*
X165025000Y-95400000D02*
X165025000Y-96125000D01*
X165025000Y-95220002D02*
X165025000Y-95400000D01*
X164000000Y-94195002D02*
X165025000Y-95220002D01*
X164000000Y-91300000D02*
X164000000Y-94195002D01*
X181075000Y-95400000D02*
X181075000Y-96125000D01*
X181075000Y-95220002D02*
X181075000Y-95400000D01*
X182000000Y-94295002D02*
X181075000Y-95220002D01*
X182000000Y-91300000D02*
X182000000Y-94295002D01*
X179125000Y-95400000D02*
X179125000Y-96125000D01*
X179125000Y-95220002D02*
X179125000Y-95400000D01*
X178100000Y-94195002D02*
X179125000Y-95220002D01*
X178100000Y-91300000D02*
X178100000Y-94195002D01*
X170450000Y-82150000D02*
X167600000Y-85000000D01*
X170450000Y-79950000D02*
X170450000Y-82150000D01*
X167600000Y-85000000D02*
X167000000Y-85000000D01*
X161500000Y-86000000D02*
X161500000Y-85000000D01*
X161500000Y-93175000D02*
X161500000Y-86000000D01*
X163725000Y-96125000D02*
X163725000Y-95400000D01*
X163725000Y-95400000D02*
X161500000Y-93175000D01*
X167910000Y-82150000D02*
X166250000Y-83810000D01*
X167910000Y-79950000D02*
X167910000Y-82150000D01*
X166250000Y-83810000D02*
X166250000Y-86250000D01*
X162500000Y-87500000D02*
X162500000Y-86250000D01*
X162500000Y-93525000D02*
X162500000Y-87500000D01*
X164375000Y-96125000D02*
X164375000Y-95400000D01*
X164375000Y-95400000D02*
X162500000Y-93525000D01*
X165370000Y-79950000D02*
X165370000Y-81450000D01*
X165370000Y-79950000D02*
X165370000Y-86504300D01*
X169750000Y-93925000D02*
X168275000Y-95400000D01*
X168275000Y-95400000D02*
X168275000Y-96125000D01*
X168750000Y-87250000D02*
X169750000Y-88250000D01*
X169750000Y-88250000D02*
X169750000Y-93925000D01*
X166115700Y-87250000D02*
X168750000Y-87250000D01*
X165370000Y-86504300D02*
X166115700Y-87250000D01*
X167625000Y-95400000D02*
X167625000Y-96125000D01*
X168430000Y-87750000D02*
X169250000Y-88570000D01*
X169250000Y-88570000D02*
X169250000Y-93775000D01*
X169250000Y-93775000D02*
X167625000Y-95400000D01*
X162830000Y-81450000D02*
X164800000Y-83420000D01*
X162830000Y-79950000D02*
X162830000Y-81450000D01*
X164800000Y-83420000D02*
X164800000Y-86500000D01*
X166050000Y-87750000D02*
X168430000Y-87750000D01*
X164800000Y-86500000D02*
X166050000Y-87750000D01*
X154350000Y-86550000D02*
X154200000Y-86550000D01*
X154350000Y-86550000D02*
X154350000Y-88400000D01*
X160290000Y-82150000D02*
X160290000Y-79950000D01*
X160290000Y-87200002D02*
X160290000Y-82150000D01*
X158240002Y-89250000D02*
X160290000Y-87200002D01*
X155500000Y-89250000D02*
X158240002Y-89250000D01*
X154350000Y-88400000D02*
X154650000Y-88400000D01*
X154650000Y-88400000D02*
X155500000Y-89250000D01*
X188400000Y-86550000D02*
X188400000Y-88400000D01*
X187700000Y-86550000D02*
X188400000Y-86550000D01*
X185690000Y-79950000D02*
X185690000Y-84540000D01*
X185690000Y-84540000D02*
X187700000Y-86550000D01*
X177825000Y-95825000D02*
X177825000Y-96125000D01*
X177825000Y-95400000D02*
X177825000Y-96125000D01*
X176250000Y-93825000D02*
X177825000Y-95400000D01*
X176250000Y-85500000D02*
X176250000Y-93825000D01*
X172990000Y-82240000D02*
X176250000Y-85500000D01*
X172990000Y-79950000D02*
X172990000Y-82240000D01*
X178475000Y-95484998D02*
X178475000Y-96125000D01*
X178475000Y-95400000D02*
X178475000Y-96125000D01*
X176750000Y-93675000D02*
X178475000Y-95400000D01*
X175530000Y-84030000D02*
X176750000Y-85250000D01*
X175530000Y-79950000D02*
X175530000Y-84030000D01*
X176750000Y-85250000D02*
X176750000Y-93675000D01*
X182375000Y-96125000D02*
X182375000Y-95825000D01*
X178070000Y-79950000D02*
X178070000Y-82820000D01*
X183200000Y-87950000D02*
X182775000Y-87525000D01*
X183200000Y-92800000D02*
X183200000Y-87950000D01*
X182775000Y-87525000D02*
X178070000Y-82820000D01*
X182375000Y-95400000D02*
X182375000Y-96125000D01*
X182475001Y-95299999D02*
X182375000Y-95400000D01*
X182800001Y-95299999D02*
X182475001Y-95299999D01*
X183200000Y-94900000D02*
X182800001Y-95299999D01*
X181725000Y-95400000D02*
X181725000Y-96125000D01*
X180610000Y-79950000D02*
X180610000Y-82150000D01*
X184000000Y-93063998D02*
X181725000Y-95338998D01*
X181725000Y-95338998D02*
X181725000Y-95400000D01*
X184000000Y-86750000D02*
X184000000Y-93063998D01*
X180606462Y-83356462D02*
X184000000Y-86750000D01*
X180606462Y-82153538D02*
X180606462Y-83356462D01*
X180610000Y-82150000D02*
X180606462Y-82153538D01*
X163725000Y-101675000D02*
X162449259Y-101675000D01*
X162449259Y-101675000D02*
X162448884Y-101674625D01*
X169444652Y-101675751D02*
X176369734Y-101675751D01*
X176369734Y-101675751D02*
X176371248Y-101674237D01*
X176372011Y-101675000D02*
X176371248Y-101674237D01*
X176825000Y-101675000D02*
X176425000Y-101675000D01*
X176425000Y-101675000D02*
X176372011Y-101675000D01*
X177825000Y-101675000D02*
X176825000Y-101675000D01*
X183150000Y-84650000D02*
X184550000Y-86050000D01*
X183150000Y-79950000D02*
X183150000Y-84650000D01*
X184550000Y-86050000D02*
X184550000Y-95100000D01*
X183572047Y-96077953D02*
X183572047Y-101675236D01*
X184550000Y-95100000D02*
X183572047Y-96077953D01*
D23*
X166325000Y-111880000D02*
X166010000Y-112195000D01*
X166325000Y-101675000D02*
X166325000Y-111880000D01*
X167625000Y-102500000D02*
X168125000Y-103000000D01*
X167005000Y-114845000D02*
X166010000Y-114845000D01*
X167625000Y-101675000D02*
X167625000Y-102500000D01*
X168125000Y-103000000D02*
X169000000Y-103000000D01*
X169000000Y-103000000D02*
X169500000Y-103500000D01*
X169500000Y-103500000D02*
X169500000Y-112350000D01*
X169500000Y-112350000D02*
X167005000Y-114845000D01*
X165675000Y-110605000D02*
X165410000Y-110870000D01*
X165675000Y-101675000D02*
X165675000Y-110605000D01*
X164375000Y-102500000D02*
X164375000Y-101675000D01*
X163560000Y-113520000D02*
X162250000Y-112210000D01*
X162250000Y-112210000D02*
X162250000Y-103450000D01*
X162250000Y-103450000D02*
X162700000Y-103000000D01*
X162700000Y-103000000D02*
X163875000Y-103000000D01*
X163875000Y-103000000D02*
X164375000Y-102500000D01*
X163560000Y-113520000D02*
X165410000Y-113520000D01*
X178475000Y-102500000D02*
X177975000Y-103000000D01*
X178475000Y-101675000D02*
X178475000Y-102500000D01*
X177975000Y-103000000D02*
X177000000Y-103000000D01*
X177000000Y-103000000D02*
X176625000Y-103375000D01*
X176625000Y-103375000D02*
X176625000Y-115375000D01*
X176625000Y-115375000D02*
X177500000Y-116250000D01*
X177500000Y-116250000D02*
X180650000Y-116250000D01*
X181089999Y-112679999D02*
X180590000Y-112180000D01*
X181440001Y-113030001D02*
X181089999Y-112679999D01*
X181440001Y-115459999D02*
X181440001Y-113030001D01*
X180650000Y-116250000D02*
X181440001Y-115459999D01*
X179775000Y-109104876D02*
X178600000Y-110279876D01*
X179775000Y-101675000D02*
X179775000Y-109104876D01*
X179882894Y-114830000D02*
X180590000Y-114830000D01*
X178600000Y-113547106D02*
X179882894Y-114830000D01*
X178600000Y-110279876D02*
X178600000Y-113547106D01*
X183750000Y-103750000D02*
X183000000Y-103000000D01*
X183000000Y-103000000D02*
X182225000Y-103000000D01*
X181725000Y-102500000D02*
X181725000Y-101675000D01*
X182225000Y-103000000D02*
X181725000Y-102500000D01*
X180990000Y-110855000D02*
X179990000Y-110855000D01*
X183750000Y-108095000D02*
X180990000Y-110855000D01*
X183750000Y-103750000D02*
X183750000Y-108095000D01*
X179100000Y-112615000D02*
X179990000Y-113505000D01*
X179100000Y-110486998D02*
X179100000Y-112615000D01*
X180425000Y-101675000D02*
X180425000Y-109161998D01*
X180425000Y-109161998D02*
X179100000Y-110486998D01*
D22*
X157550000Y-86550000D02*
X157550000Y-88400000D01*
X191600000Y-86550000D02*
X191600000Y-88400000D01*
D23*
X165025000Y-103025000D02*
X165025000Y-101675000D01*
X164000000Y-104050000D02*
X165025000Y-103025000D01*
X166975000Y-103125000D02*
X167900000Y-104050000D01*
X166975000Y-101675000D02*
X166975000Y-103125000D01*
X179125000Y-103025000D02*
X178100000Y-104050000D01*
X179125000Y-101675000D02*
X179125000Y-103025000D01*
X181075000Y-103125000D02*
X182000000Y-104050000D01*
X181075000Y-101675000D02*
X181075000Y-103125000D01*
D24*
G36*
X184551928Y-81950000D02*
G01*
X184564188Y-82074482D01*
X184600498Y-82194180D01*
X184659463Y-82304494D01*
X184738815Y-82401185D01*
X184835506Y-82480537D01*
X184945820Y-82539502D01*
X184955001Y-82542287D01*
X184955001Y-84503885D01*
X184951444Y-84540000D01*
X184965635Y-84684085D01*
X184991260Y-84768556D01*
X185007664Y-84822633D01*
X185075914Y-84950320D01*
X185167763Y-85062238D01*
X185195808Y-85085254D01*
X187154746Y-87044193D01*
X187177762Y-87072238D01*
X187289680Y-87164087D01*
X187352430Y-87197627D01*
X187369463Y-87229494D01*
X187448815Y-87326185D01*
X187531490Y-87394035D01*
X187453836Y-87435542D01*
X187320208Y-87545208D01*
X187210542Y-87678836D01*
X187129053Y-87831291D01*
X187078872Y-87996715D01*
X187061928Y-88168750D01*
X187061928Y-88656250D01*
X187078872Y-88828285D01*
X187129053Y-88993709D01*
X187210542Y-89146164D01*
X187256949Y-89202711D01*
X187052259Y-89161996D01*
X186828683Y-89161996D01*
X186609404Y-89205613D01*
X186402847Y-89291172D01*
X186216951Y-89415384D01*
X186058859Y-89573476D01*
X185934647Y-89759372D01*
X185849088Y-89965929D01*
X185805471Y-90185208D01*
X185805471Y-90408784D01*
X185849088Y-90628063D01*
X185934647Y-90834620D01*
X186058859Y-91020516D01*
X186216951Y-91178608D01*
X186402847Y-91302820D01*
X186609404Y-91388379D01*
X186828683Y-91431996D01*
X187052259Y-91431996D01*
X187271538Y-91388379D01*
X187478095Y-91302820D01*
X187499210Y-91288711D01*
X187606291Y-91345947D01*
X187771715Y-91396128D01*
X187943750Y-91413072D01*
X188856250Y-91413072D01*
X189028285Y-91396128D01*
X189193709Y-91345947D01*
X189346164Y-91264458D01*
X189479792Y-91154792D01*
X189496035Y-91135000D01*
X190503965Y-91135000D01*
X190520208Y-91154792D01*
X190653836Y-91264458D01*
X190806291Y-91345947D01*
X190971715Y-91396128D01*
X191143750Y-91413072D01*
X192056250Y-91413072D01*
X192228285Y-91396128D01*
X192315001Y-91369823D01*
X192315001Y-92315000D01*
X186533647Y-92315000D01*
X186500000Y-92311686D01*
X186466353Y-92315000D01*
X186365717Y-92324912D01*
X186236594Y-92364081D01*
X186117593Y-92427688D01*
X186013289Y-92513289D01*
X185927688Y-92617593D01*
X185864081Y-92736594D01*
X185824912Y-92865717D01*
X185811686Y-93000000D01*
X185815001Y-93033657D01*
X185815000Y-110766353D01*
X185811686Y-110800000D01*
X185824912Y-110934283D01*
X185864081Y-111063406D01*
X185927688Y-111182407D01*
X186013289Y-111286711D01*
X186117593Y-111372312D01*
X186236594Y-111435919D01*
X186365717Y-111475088D01*
X186500000Y-111488314D01*
X186533647Y-111485000D01*
X192315001Y-111485000D01*
X192315001Y-112414270D01*
X192085750Y-112415000D01*
X191927000Y-112573750D01*
X191927000Y-115423000D01*
X191947000Y-115423000D01*
X191947000Y-115677000D01*
X191927000Y-115677000D01*
X191927000Y-115697000D01*
X191673000Y-115697000D01*
X191673000Y-115677000D01*
X190073750Y-115677000D01*
X189915000Y-115835750D01*
X189912948Y-117315000D01*
X156087052Y-117315000D01*
X156085000Y-115835750D01*
X155926250Y-115677000D01*
X154327000Y-115677000D01*
X154327000Y-115697000D01*
X154073000Y-115697000D01*
X154073000Y-115677000D01*
X154053000Y-115677000D01*
X154053000Y-115423000D01*
X154073000Y-115423000D01*
X154073000Y-112573750D01*
X154327000Y-112573750D01*
X154327000Y-115423000D01*
X155926250Y-115423000D01*
X156085000Y-115264250D01*
X156088072Y-113050000D01*
X156075812Y-112925518D01*
X156039502Y-112805820D01*
X155980537Y-112695506D01*
X155901185Y-112598815D01*
X155804494Y-112519463D01*
X155694180Y-112460498D01*
X155574482Y-112424188D01*
X155450000Y-112411928D01*
X154485750Y-112415000D01*
X154327000Y-112573750D01*
X154073000Y-112573750D01*
X153914250Y-112415000D01*
X153685000Y-112414270D01*
X153685000Y-111485000D01*
X159466353Y-111485000D01*
X159500000Y-111488314D01*
X159533647Y-111485000D01*
X159634283Y-111475088D01*
X159763406Y-111435919D01*
X159882407Y-111372312D01*
X159986711Y-111286711D01*
X160072312Y-111182407D01*
X160135919Y-111063406D01*
X160175088Y-110934283D01*
X160188314Y-110800000D01*
X160185000Y-110766353D01*
X160185000Y-93033646D01*
X160188314Y-93000000D01*
X160175088Y-92865717D01*
X160135919Y-92736594D01*
X160072312Y-92617593D01*
X159986711Y-92513289D01*
X159882407Y-92427688D01*
X159763406Y-92364081D01*
X159634283Y-92324912D01*
X159533647Y-92315000D01*
X159500000Y-92311686D01*
X159466353Y-92315000D01*
X153685000Y-92315000D01*
X153685000Y-91384991D01*
X153721715Y-91396128D01*
X153893750Y-91413072D01*
X154806250Y-91413072D01*
X154978285Y-91396128D01*
X155143709Y-91345947D01*
X155296164Y-91264458D01*
X155429792Y-91154792D01*
X155446035Y-91135000D01*
X156453965Y-91135000D01*
X156470208Y-91154792D01*
X156603836Y-91264458D01*
X156756291Y-91345947D01*
X156921715Y-91396128D01*
X157093750Y-91413072D01*
X158006250Y-91413072D01*
X158178285Y-91396128D01*
X158343709Y-91345947D01*
X158461520Y-91282975D01*
X158491220Y-91302820D01*
X158697777Y-91388379D01*
X158917056Y-91431996D01*
X159140632Y-91431996D01*
X159359911Y-91388379D01*
X159566468Y-91302820D01*
X159752364Y-91178608D01*
X159910456Y-91020516D01*
X160034668Y-90834620D01*
X160120227Y-90628063D01*
X160163844Y-90408784D01*
X160163844Y-90185208D01*
X160120227Y-89965929D01*
X160034668Y-89759372D01*
X159910456Y-89573476D01*
X159752364Y-89415384D01*
X159566468Y-89291172D01*
X159359911Y-89205613D01*
X159329821Y-89199628D01*
X160765001Y-87764448D01*
X160765000Y-93138895D01*
X160761444Y-93175000D01*
X160775635Y-93319085D01*
X160788384Y-93361113D01*
X160817663Y-93457632D01*
X160885913Y-93585319D01*
X160977762Y-93697237D01*
X161005808Y-93720254D01*
X162864046Y-95578493D01*
X162861928Y-95600000D01*
X162861928Y-96650000D01*
X162874188Y-96774482D01*
X162910498Y-96894180D01*
X162926972Y-96925000D01*
X162910498Y-96955820D01*
X162874188Y-97075518D01*
X162861928Y-97200000D01*
X162865000Y-98614250D01*
X163023750Y-98773000D01*
X164009692Y-98773000D01*
X164004565Y-98825040D01*
X163991120Y-98838485D01*
X163997180Y-98900000D01*
X163991120Y-98961515D01*
X164004565Y-98974960D01*
X164009692Y-99027000D01*
X163023750Y-99027000D01*
X162865000Y-99185750D01*
X162861928Y-100600000D01*
X162874188Y-100724482D01*
X162876281Y-100731383D01*
X162750782Y-100679399D01*
X162550823Y-100639625D01*
X162346945Y-100639625D01*
X162146986Y-100679399D01*
X161958628Y-100757420D01*
X161789110Y-100870688D01*
X161644947Y-101014851D01*
X161531679Y-101184369D01*
X161453658Y-101372727D01*
X161413884Y-101572686D01*
X161413884Y-101776564D01*
X161453658Y-101976523D01*
X161531679Y-102164881D01*
X161644947Y-102334399D01*
X161789110Y-102478562D01*
X161958628Y-102591830D01*
X161986477Y-102603366D01*
X161722185Y-102867658D01*
X161692237Y-102892236D01*
X161667659Y-102922184D01*
X161667655Y-102922188D01*
X161651202Y-102942236D01*
X161594139Y-103011767D01*
X161566455Y-103063561D01*
X161521246Y-103148141D01*
X161476359Y-103296114D01*
X161461203Y-103450000D01*
X161465001Y-103488563D01*
X161465000Y-112171447D01*
X161461203Y-112210000D01*
X161465000Y-112248553D01*
X161465000Y-112248560D01*
X161476359Y-112363886D01*
X161521246Y-112511859D01*
X161594138Y-112648232D01*
X161692236Y-112767764D01*
X161722190Y-112792347D01*
X162977653Y-114047810D01*
X163002236Y-114077764D01*
X163121767Y-114175862D01*
X163230077Y-114233754D01*
X163258140Y-114248754D01*
X163406113Y-114293642D01*
X163481026Y-114301020D01*
X163521439Y-114305000D01*
X163521444Y-114305000D01*
X163560000Y-114308797D01*
X163598556Y-114305000D01*
X164589868Y-114305000D01*
X164686480Y-114401612D01*
X164872376Y-114525824D01*
X164912912Y-114542615D01*
X164875000Y-114733212D01*
X164875000Y-114956788D01*
X164918617Y-115176067D01*
X165004176Y-115382624D01*
X165128388Y-115568520D01*
X165286480Y-115726612D01*
X165472376Y-115850824D01*
X165678933Y-115936383D01*
X165898212Y-115980000D01*
X166121788Y-115980000D01*
X166341067Y-115936383D01*
X166547624Y-115850824D01*
X166733520Y-115726612D01*
X166830132Y-115630000D01*
X166966447Y-115630000D01*
X167005000Y-115633797D01*
X167043553Y-115630000D01*
X167043561Y-115630000D01*
X167158887Y-115618641D01*
X167306860Y-115573754D01*
X167443233Y-115500862D01*
X167562764Y-115402764D01*
X167587347Y-115372810D01*
X170027810Y-112932347D01*
X170057764Y-112907764D01*
X170155862Y-112788233D01*
X170228754Y-112651860D01*
X170238955Y-112618232D01*
X170273642Y-112503887D01*
X170283104Y-112407812D01*
X170285000Y-112388561D01*
X170285000Y-112388556D01*
X170288797Y-112350000D01*
X170285000Y-112311444D01*
X170285000Y-103538556D01*
X170288797Y-103500000D01*
X170285000Y-103461440D01*
X170285000Y-103461439D01*
X170280075Y-103411439D01*
X170273642Y-103346113D01*
X170228754Y-103198140D01*
X170205101Y-103153888D01*
X170155862Y-103061767D01*
X170057764Y-102942236D01*
X170027806Y-102917650D01*
X169771004Y-102660848D01*
X169934908Y-102592956D01*
X170104426Y-102479688D01*
X170173363Y-102410751D01*
X175697040Y-102410751D01*
X175765226Y-102478937D01*
X175934744Y-102592205D01*
X176123102Y-102670226D01*
X176203604Y-102686239D01*
X176097190Y-102792653D01*
X176067236Y-102817236D01*
X175969138Y-102936768D01*
X175896246Y-103073141D01*
X175851359Y-103221114D01*
X175840000Y-103336440D01*
X175840000Y-103336447D01*
X175836203Y-103375000D01*
X175840000Y-103413553D01*
X175840001Y-115336437D01*
X175836203Y-115375000D01*
X175851359Y-115528886D01*
X175896246Y-115676859D01*
X175914822Y-115711612D01*
X175969139Y-115813233D01*
X175999990Y-115850824D01*
X176042655Y-115902812D01*
X176042659Y-115902816D01*
X176067237Y-115932764D01*
X176097185Y-115957342D01*
X176917653Y-116777810D01*
X176942236Y-116807764D01*
X177061767Y-116905862D01*
X177198140Y-116978754D01*
X177346113Y-117023642D01*
X177421026Y-117031020D01*
X177461439Y-117035000D01*
X177461444Y-117035000D01*
X177500000Y-117038797D01*
X177538556Y-117035000D01*
X180611447Y-117035000D01*
X180650000Y-117038797D01*
X180688553Y-117035000D01*
X180688561Y-117035000D01*
X180803887Y-117023641D01*
X180951860Y-116978754D01*
X181088233Y-116905862D01*
X181207764Y-116807764D01*
X181232347Y-116777811D01*
X181967818Y-116042340D01*
X181997765Y-116017763D01*
X182095863Y-115898232D01*
X182168755Y-115761859D01*
X182194539Y-115676860D01*
X182213642Y-115613887D01*
X182219072Y-115558754D01*
X182225001Y-115498560D01*
X182225001Y-115498553D01*
X182228798Y-115460000D01*
X182225001Y-115421447D01*
X182225001Y-113068557D01*
X182226828Y-113050000D01*
X189911928Y-113050000D01*
X189915000Y-115264250D01*
X190073750Y-115423000D01*
X191673000Y-115423000D01*
X191673000Y-112573750D01*
X191514250Y-112415000D01*
X190550000Y-112411928D01*
X190425518Y-112424188D01*
X190305820Y-112460498D01*
X190195506Y-112519463D01*
X190098815Y-112598815D01*
X190019463Y-112695506D01*
X189960498Y-112805820D01*
X189924188Y-112925518D01*
X189911928Y-113050000D01*
X182226828Y-113050000D01*
X182228798Y-113030001D01*
X182225001Y-112991445D01*
X182225001Y-112991440D01*
X182218508Y-112925518D01*
X182213643Y-112876114D01*
X182168755Y-112728141D01*
X182095863Y-112591768D01*
X181997765Y-112472237D01*
X181967806Y-112447650D01*
X181725000Y-112204843D01*
X181725000Y-112068212D01*
X181681383Y-111848933D01*
X181595824Y-111642376D01*
X181479717Y-111468610D01*
X181547764Y-111412764D01*
X181572347Y-111382810D01*
X184277816Y-108677342D01*
X184307764Y-108652764D01*
X184405862Y-108533233D01*
X184478754Y-108396860D01*
X184523641Y-108248887D01*
X184535000Y-108133561D01*
X184535000Y-108133554D01*
X184538797Y-108095001D01*
X184535000Y-108056448D01*
X184535000Y-103788552D01*
X184538797Y-103749999D01*
X184535000Y-103711446D01*
X184535000Y-103711439D01*
X184523641Y-103596113D01*
X184478754Y-103448140D01*
X184405862Y-103311767D01*
X184307764Y-103192236D01*
X184277816Y-103167659D01*
X183796103Y-102685946D01*
X183873945Y-102670462D01*
X184062303Y-102592441D01*
X184231821Y-102479173D01*
X184375984Y-102335010D01*
X184489252Y-102165492D01*
X184567273Y-101977134D01*
X184607047Y-101777175D01*
X184607047Y-101573297D01*
X184567273Y-101373338D01*
X184489252Y-101184980D01*
X184375984Y-101015462D01*
X184307047Y-100946525D01*
X184307047Y-96382399D01*
X185044193Y-95645254D01*
X185072238Y-95622238D01*
X185164087Y-95510320D01*
X185232337Y-95382633D01*
X185274365Y-95244085D01*
X185285000Y-95136105D01*
X185285000Y-95136096D01*
X185288555Y-95100001D01*
X185285000Y-95063906D01*
X185285000Y-86086105D01*
X185288556Y-86050000D01*
X185274365Y-85905914D01*
X185250012Y-85825635D01*
X185232337Y-85767367D01*
X185164087Y-85639680D01*
X185112646Y-85577000D01*
X185095253Y-85555806D01*
X185095250Y-85555803D01*
X185072237Y-85527762D01*
X185044197Y-85504750D01*
X183885000Y-84345554D01*
X183885000Y-82542287D01*
X183894180Y-82539502D01*
X184004494Y-82480537D01*
X184101185Y-82401185D01*
X184180537Y-82304494D01*
X184239502Y-82194180D01*
X184275812Y-82074482D01*
X184288072Y-81950000D01*
X184288072Y-78685000D01*
X184551928Y-78685000D01*
X184551928Y-81950000D01*
X184551928Y-81950000D01*
G37*
X184551928Y-81950000D02*
X184564188Y-82074482D01*
X184600498Y-82194180D01*
X184659463Y-82304494D01*
X184738815Y-82401185D01*
X184835506Y-82480537D01*
X184945820Y-82539502D01*
X184955001Y-82542287D01*
X184955001Y-84503885D01*
X184951444Y-84540000D01*
X184965635Y-84684085D01*
X184991260Y-84768556D01*
X185007664Y-84822633D01*
X185075914Y-84950320D01*
X185167763Y-85062238D01*
X185195808Y-85085254D01*
X187154746Y-87044193D01*
X187177762Y-87072238D01*
X187289680Y-87164087D01*
X187352430Y-87197627D01*
X187369463Y-87229494D01*
X187448815Y-87326185D01*
X187531490Y-87394035D01*
X187453836Y-87435542D01*
X187320208Y-87545208D01*
X187210542Y-87678836D01*
X187129053Y-87831291D01*
X187078872Y-87996715D01*
X187061928Y-88168750D01*
X187061928Y-88656250D01*
X187078872Y-88828285D01*
X187129053Y-88993709D01*
X187210542Y-89146164D01*
X187256949Y-89202711D01*
X187052259Y-89161996D01*
X186828683Y-89161996D01*
X186609404Y-89205613D01*
X186402847Y-89291172D01*
X186216951Y-89415384D01*
X186058859Y-89573476D01*
X185934647Y-89759372D01*
X185849088Y-89965929D01*
X185805471Y-90185208D01*
X185805471Y-90408784D01*
X185849088Y-90628063D01*
X185934647Y-90834620D01*
X186058859Y-91020516D01*
X186216951Y-91178608D01*
X186402847Y-91302820D01*
X186609404Y-91388379D01*
X186828683Y-91431996D01*
X187052259Y-91431996D01*
X187271538Y-91388379D01*
X187478095Y-91302820D01*
X187499210Y-91288711D01*
X187606291Y-91345947D01*
X187771715Y-91396128D01*
X187943750Y-91413072D01*
X188856250Y-91413072D01*
X189028285Y-91396128D01*
X189193709Y-91345947D01*
X189346164Y-91264458D01*
X189479792Y-91154792D01*
X189496035Y-91135000D01*
X190503965Y-91135000D01*
X190520208Y-91154792D01*
X190653836Y-91264458D01*
X190806291Y-91345947D01*
X190971715Y-91396128D01*
X191143750Y-91413072D01*
X192056250Y-91413072D01*
X192228285Y-91396128D01*
X192315001Y-91369823D01*
X192315001Y-92315000D01*
X186533647Y-92315000D01*
X186500000Y-92311686D01*
X186466353Y-92315000D01*
X186365717Y-92324912D01*
X186236594Y-92364081D01*
X186117593Y-92427688D01*
X186013289Y-92513289D01*
X185927688Y-92617593D01*
X185864081Y-92736594D01*
X185824912Y-92865717D01*
X185811686Y-93000000D01*
X185815001Y-93033657D01*
X185815000Y-110766353D01*
X185811686Y-110800000D01*
X185824912Y-110934283D01*
X185864081Y-111063406D01*
X185927688Y-111182407D01*
X186013289Y-111286711D01*
X186117593Y-111372312D01*
X186236594Y-111435919D01*
X186365717Y-111475088D01*
X186500000Y-111488314D01*
X186533647Y-111485000D01*
X192315001Y-111485000D01*
X192315001Y-112414270D01*
X192085750Y-112415000D01*
X191927000Y-112573750D01*
X191927000Y-115423000D01*
X191947000Y-115423000D01*
X191947000Y-115677000D01*
X191927000Y-115677000D01*
X191927000Y-115697000D01*
X191673000Y-115697000D01*
X191673000Y-115677000D01*
X190073750Y-115677000D01*
X189915000Y-115835750D01*
X189912948Y-117315000D01*
X156087052Y-117315000D01*
X156085000Y-115835750D01*
X155926250Y-115677000D01*
X154327000Y-115677000D01*
X154327000Y-115697000D01*
X154073000Y-115697000D01*
X154073000Y-115677000D01*
X154053000Y-115677000D01*
X154053000Y-115423000D01*
X154073000Y-115423000D01*
X154073000Y-112573750D01*
X154327000Y-112573750D01*
X154327000Y-115423000D01*
X155926250Y-115423000D01*
X156085000Y-115264250D01*
X156088072Y-113050000D01*
X156075812Y-112925518D01*
X156039502Y-112805820D01*
X155980537Y-112695506D01*
X155901185Y-112598815D01*
X155804494Y-112519463D01*
X155694180Y-112460498D01*
X155574482Y-112424188D01*
X155450000Y-112411928D01*
X154485750Y-112415000D01*
X154327000Y-112573750D01*
X154073000Y-112573750D01*
X153914250Y-112415000D01*
X153685000Y-112414270D01*
X153685000Y-111485000D01*
X159466353Y-111485000D01*
X159500000Y-111488314D01*
X159533647Y-111485000D01*
X159634283Y-111475088D01*
X159763406Y-111435919D01*
X159882407Y-111372312D01*
X159986711Y-111286711D01*
X160072312Y-111182407D01*
X160135919Y-111063406D01*
X160175088Y-110934283D01*
X160188314Y-110800000D01*
X160185000Y-110766353D01*
X160185000Y-93033646D01*
X160188314Y-93000000D01*
X160175088Y-92865717D01*
X160135919Y-92736594D01*
X160072312Y-92617593D01*
X159986711Y-92513289D01*
X159882407Y-92427688D01*
X159763406Y-92364081D01*
X159634283Y-92324912D01*
X159533647Y-92315000D01*
X159500000Y-92311686D01*
X159466353Y-92315000D01*
X153685000Y-92315000D01*
X153685000Y-91384991D01*
X153721715Y-91396128D01*
X153893750Y-91413072D01*
X154806250Y-91413072D01*
X154978285Y-91396128D01*
X155143709Y-91345947D01*
X155296164Y-91264458D01*
X155429792Y-91154792D01*
X155446035Y-91135000D01*
X156453965Y-91135000D01*
X156470208Y-91154792D01*
X156603836Y-91264458D01*
X156756291Y-91345947D01*
X156921715Y-91396128D01*
X157093750Y-91413072D01*
X158006250Y-91413072D01*
X158178285Y-91396128D01*
X158343709Y-91345947D01*
X158461520Y-91282975D01*
X158491220Y-91302820D01*
X158697777Y-91388379D01*
X158917056Y-91431996D01*
X159140632Y-91431996D01*
X159359911Y-91388379D01*
X159566468Y-91302820D01*
X159752364Y-91178608D01*
X159910456Y-91020516D01*
X160034668Y-90834620D01*
X160120227Y-90628063D01*
X160163844Y-90408784D01*
X160163844Y-90185208D01*
X160120227Y-89965929D01*
X160034668Y-89759372D01*
X159910456Y-89573476D01*
X159752364Y-89415384D01*
X159566468Y-89291172D01*
X159359911Y-89205613D01*
X159329821Y-89199628D01*
X160765001Y-87764448D01*
X160765000Y-93138895D01*
X160761444Y-93175000D01*
X160775635Y-93319085D01*
X160788384Y-93361113D01*
X160817663Y-93457632D01*
X160885913Y-93585319D01*
X160977762Y-93697237D01*
X161005808Y-93720254D01*
X162864046Y-95578493D01*
X162861928Y-95600000D01*
X162861928Y-96650000D01*
X162874188Y-96774482D01*
X162910498Y-96894180D01*
X162926972Y-96925000D01*
X162910498Y-96955820D01*
X162874188Y-97075518D01*
X162861928Y-97200000D01*
X162865000Y-98614250D01*
X163023750Y-98773000D01*
X164009692Y-98773000D01*
X164004565Y-98825040D01*
X163991120Y-98838485D01*
X163997180Y-98900000D01*
X163991120Y-98961515D01*
X164004565Y-98974960D01*
X164009692Y-99027000D01*
X163023750Y-99027000D01*
X162865000Y-99185750D01*
X162861928Y-100600000D01*
X162874188Y-100724482D01*
X162876281Y-100731383D01*
X162750782Y-100679399D01*
X162550823Y-100639625D01*
X162346945Y-100639625D01*
X162146986Y-100679399D01*
X161958628Y-100757420D01*
X161789110Y-100870688D01*
X161644947Y-101014851D01*
X161531679Y-101184369D01*
X161453658Y-101372727D01*
X161413884Y-101572686D01*
X161413884Y-101776564D01*
X161453658Y-101976523D01*
X161531679Y-102164881D01*
X161644947Y-102334399D01*
X161789110Y-102478562D01*
X161958628Y-102591830D01*
X161986477Y-102603366D01*
X161722185Y-102867658D01*
X161692237Y-102892236D01*
X161667659Y-102922184D01*
X161667655Y-102922188D01*
X161651202Y-102942236D01*
X161594139Y-103011767D01*
X161566455Y-103063561D01*
X161521246Y-103148141D01*
X161476359Y-103296114D01*
X161461203Y-103450000D01*
X161465001Y-103488563D01*
X161465000Y-112171447D01*
X161461203Y-112210000D01*
X161465000Y-112248553D01*
X161465000Y-112248560D01*
X161476359Y-112363886D01*
X161521246Y-112511859D01*
X161594138Y-112648232D01*
X161692236Y-112767764D01*
X161722190Y-112792347D01*
X162977653Y-114047810D01*
X163002236Y-114077764D01*
X163121767Y-114175862D01*
X163230077Y-114233754D01*
X163258140Y-114248754D01*
X163406113Y-114293642D01*
X163481026Y-114301020D01*
X163521439Y-114305000D01*
X163521444Y-114305000D01*
X163560000Y-114308797D01*
X163598556Y-114305000D01*
X164589868Y-114305000D01*
X164686480Y-114401612D01*
X164872376Y-114525824D01*
X164912912Y-114542615D01*
X164875000Y-114733212D01*
X164875000Y-114956788D01*
X164918617Y-115176067D01*
X165004176Y-115382624D01*
X165128388Y-115568520D01*
X165286480Y-115726612D01*
X165472376Y-115850824D01*
X165678933Y-115936383D01*
X165898212Y-115980000D01*
X166121788Y-115980000D01*
X166341067Y-115936383D01*
X166547624Y-115850824D01*
X166733520Y-115726612D01*
X166830132Y-115630000D01*
X166966447Y-115630000D01*
X167005000Y-115633797D01*
X167043553Y-115630000D01*
X167043561Y-115630000D01*
X167158887Y-115618641D01*
X167306860Y-115573754D01*
X167443233Y-115500862D01*
X167562764Y-115402764D01*
X167587347Y-115372810D01*
X170027810Y-112932347D01*
X170057764Y-112907764D01*
X170155862Y-112788233D01*
X170228754Y-112651860D01*
X170238955Y-112618232D01*
X170273642Y-112503887D01*
X170283104Y-112407812D01*
X170285000Y-112388561D01*
X170285000Y-112388556D01*
X170288797Y-112350000D01*
X170285000Y-112311444D01*
X170285000Y-103538556D01*
X170288797Y-103500000D01*
X170285000Y-103461440D01*
X170285000Y-103461439D01*
X170280075Y-103411439D01*
X170273642Y-103346113D01*
X170228754Y-103198140D01*
X170205101Y-103153888D01*
X170155862Y-103061767D01*
X170057764Y-102942236D01*
X170027806Y-102917650D01*
X169771004Y-102660848D01*
X169934908Y-102592956D01*
X170104426Y-102479688D01*
X170173363Y-102410751D01*
X175697040Y-102410751D01*
X175765226Y-102478937D01*
X175934744Y-102592205D01*
X176123102Y-102670226D01*
X176203604Y-102686239D01*
X176097190Y-102792653D01*
X176067236Y-102817236D01*
X175969138Y-102936768D01*
X175896246Y-103073141D01*
X175851359Y-103221114D01*
X175840000Y-103336440D01*
X175840000Y-103336447D01*
X175836203Y-103375000D01*
X175840000Y-103413553D01*
X175840001Y-115336437D01*
X175836203Y-115375000D01*
X175851359Y-115528886D01*
X175896246Y-115676859D01*
X175914822Y-115711612D01*
X175969139Y-115813233D01*
X175999990Y-115850824D01*
X176042655Y-115902812D01*
X176042659Y-115902816D01*
X176067237Y-115932764D01*
X176097185Y-115957342D01*
X176917653Y-116777810D01*
X176942236Y-116807764D01*
X177061767Y-116905862D01*
X177198140Y-116978754D01*
X177346113Y-117023642D01*
X177421026Y-117031020D01*
X177461439Y-117035000D01*
X177461444Y-117035000D01*
X177500000Y-117038797D01*
X177538556Y-117035000D01*
X180611447Y-117035000D01*
X180650000Y-117038797D01*
X180688553Y-117035000D01*
X180688561Y-117035000D01*
X180803887Y-117023641D01*
X180951860Y-116978754D01*
X181088233Y-116905862D01*
X181207764Y-116807764D01*
X181232347Y-116777811D01*
X181967818Y-116042340D01*
X181997765Y-116017763D01*
X182095863Y-115898232D01*
X182168755Y-115761859D01*
X182194539Y-115676860D01*
X182213642Y-115613887D01*
X182219072Y-115558754D01*
X182225001Y-115498560D01*
X182225001Y-115498553D01*
X182228798Y-115460000D01*
X182225001Y-115421447D01*
X182225001Y-113068557D01*
X182226828Y-113050000D01*
X189911928Y-113050000D01*
X189915000Y-115264250D01*
X190073750Y-115423000D01*
X191673000Y-115423000D01*
X191673000Y-112573750D01*
X191514250Y-112415000D01*
X190550000Y-112411928D01*
X190425518Y-112424188D01*
X190305820Y-112460498D01*
X190195506Y-112519463D01*
X190098815Y-112598815D01*
X190019463Y-112695506D01*
X189960498Y-112805820D01*
X189924188Y-112925518D01*
X189911928Y-113050000D01*
X182226828Y-113050000D01*
X182228798Y-113030001D01*
X182225001Y-112991445D01*
X182225001Y-112991440D01*
X182218508Y-112925518D01*
X182213643Y-112876114D01*
X182168755Y-112728141D01*
X182095863Y-112591768D01*
X181997765Y-112472237D01*
X181967806Y-112447650D01*
X181725000Y-112204843D01*
X181725000Y-112068212D01*
X181681383Y-111848933D01*
X181595824Y-111642376D01*
X181479717Y-111468610D01*
X181547764Y-111412764D01*
X181572347Y-111382810D01*
X184277816Y-108677342D01*
X184307764Y-108652764D01*
X184405862Y-108533233D01*
X184478754Y-108396860D01*
X184523641Y-108248887D01*
X184535000Y-108133561D01*
X184535000Y-108133554D01*
X184538797Y-108095001D01*
X184535000Y-108056448D01*
X184535000Y-103788552D01*
X184538797Y-103749999D01*
X184535000Y-103711446D01*
X184535000Y-103711439D01*
X184523641Y-103596113D01*
X184478754Y-103448140D01*
X184405862Y-103311767D01*
X184307764Y-103192236D01*
X184277816Y-103167659D01*
X183796103Y-102685946D01*
X183873945Y-102670462D01*
X184062303Y-102592441D01*
X184231821Y-102479173D01*
X184375984Y-102335010D01*
X184489252Y-102165492D01*
X184567273Y-101977134D01*
X184607047Y-101777175D01*
X184607047Y-101573297D01*
X184567273Y-101373338D01*
X184489252Y-101184980D01*
X184375984Y-101015462D01*
X184307047Y-100946525D01*
X184307047Y-96382399D01*
X185044193Y-95645254D01*
X185072238Y-95622238D01*
X185164087Y-95510320D01*
X185232337Y-95382633D01*
X185274365Y-95244085D01*
X185285000Y-95136105D01*
X185285000Y-95136096D01*
X185288555Y-95100001D01*
X185285000Y-95063906D01*
X185285000Y-86086105D01*
X185288556Y-86050000D01*
X185274365Y-85905914D01*
X185250012Y-85825635D01*
X185232337Y-85767367D01*
X185164087Y-85639680D01*
X185112646Y-85577000D01*
X185095253Y-85555806D01*
X185095250Y-85555803D01*
X185072237Y-85527762D01*
X185044197Y-85504750D01*
X183885000Y-84345554D01*
X183885000Y-82542287D01*
X183894180Y-82539502D01*
X184004494Y-82480537D01*
X184101185Y-82401185D01*
X184180537Y-82304494D01*
X184239502Y-82194180D01*
X184275812Y-82074482D01*
X184288072Y-81950000D01*
X184288072Y-78685000D01*
X184551928Y-78685000D01*
X184551928Y-81950000D01*
G36*
X178227000Y-105810500D02*
G01*
X178247000Y-105810500D01*
X178247000Y-106064500D01*
X178227000Y-106064500D01*
X178227000Y-106901250D01*
X178385750Y-107060000D01*
X178800000Y-107063072D01*
X178924482Y-107050812D01*
X178990001Y-107030937D01*
X178990001Y-108779717D01*
X178072190Y-109697529D01*
X178042236Y-109722112D01*
X177944138Y-109841644D01*
X177871246Y-109978017D01*
X177826359Y-110125990D01*
X177815000Y-110241316D01*
X177815000Y-110241323D01*
X177811203Y-110279876D01*
X177815000Y-110318429D01*
X177815001Y-113508543D01*
X177811203Y-113547106D01*
X177826359Y-113700992D01*
X177871246Y-113848965D01*
X177871247Y-113848966D01*
X177944139Y-113985339D01*
X177984690Y-114034750D01*
X178017655Y-114074918D01*
X178017659Y-114074922D01*
X178042237Y-114104870D01*
X178072185Y-114129448D01*
X179300552Y-115357815D01*
X179325130Y-115387764D01*
X179355078Y-115412342D01*
X179355081Y-115412345D01*
X179373359Y-115427345D01*
X179419241Y-115465000D01*
X177825157Y-115465000D01*
X177410000Y-115049843D01*
X177410000Y-107062998D01*
X177814250Y-107060000D01*
X177973000Y-106901250D01*
X177973000Y-106064500D01*
X177953000Y-106064500D01*
X177953000Y-105810500D01*
X177973000Y-105810500D01*
X177973000Y-105790500D01*
X178227000Y-105790500D01*
X178227000Y-105810500D01*
X178227000Y-105810500D01*
G37*
X178227000Y-105810500D02*
X178247000Y-105810500D01*
X178247000Y-106064500D01*
X178227000Y-106064500D01*
X178227000Y-106901250D01*
X178385750Y-107060000D01*
X178800000Y-107063072D01*
X178924482Y-107050812D01*
X178990001Y-107030937D01*
X178990001Y-108779717D01*
X178072190Y-109697529D01*
X178042236Y-109722112D01*
X177944138Y-109841644D01*
X177871246Y-109978017D01*
X177826359Y-110125990D01*
X177815000Y-110241316D01*
X177815000Y-110241323D01*
X177811203Y-110279876D01*
X177815000Y-110318429D01*
X177815001Y-113508543D01*
X177811203Y-113547106D01*
X177826359Y-113700992D01*
X177871246Y-113848965D01*
X177871247Y-113848966D01*
X177944139Y-113985339D01*
X177984690Y-114034750D01*
X178017655Y-114074918D01*
X178017659Y-114074922D01*
X178042237Y-114104870D01*
X178072185Y-114129448D01*
X179300552Y-115357815D01*
X179325130Y-115387764D01*
X179355078Y-115412342D01*
X179355081Y-115412345D01*
X179373359Y-115427345D01*
X179419241Y-115465000D01*
X177825157Y-115465000D01*
X177410000Y-115049843D01*
X177410000Y-107062998D01*
X177814250Y-107060000D01*
X177973000Y-106901250D01*
X177973000Y-106064500D01*
X177953000Y-106064500D01*
X177953000Y-105810500D01*
X177973000Y-105810500D01*
X177973000Y-105790500D01*
X178227000Y-105790500D01*
X178227000Y-105810500D01*
G36*
X168027000Y-105810500D02*
G01*
X168047000Y-105810500D01*
X168047000Y-106064500D01*
X168027000Y-106064500D01*
X168027000Y-106901250D01*
X168185750Y-107060000D01*
X168600000Y-107063072D01*
X168715000Y-107051746D01*
X168715001Y-112024842D01*
X166754988Y-113984856D01*
X166733520Y-113963388D01*
X166547624Y-113839176D01*
X166507088Y-113822385D01*
X166545000Y-113631788D01*
X166545000Y-113408212D01*
X166507088Y-113217615D01*
X166547624Y-113200824D01*
X166733520Y-113076612D01*
X166891612Y-112918520D01*
X167015824Y-112732624D01*
X167101383Y-112526067D01*
X167145000Y-112306788D01*
X167145000Y-112083212D01*
X167110744Y-111910996D01*
X167113797Y-111880001D01*
X167110000Y-111841448D01*
X167110000Y-107054208D01*
X167200000Y-107063072D01*
X167614250Y-107060000D01*
X167773000Y-106901250D01*
X167773000Y-106064500D01*
X167753000Y-106064500D01*
X167753000Y-105810500D01*
X167773000Y-105810500D01*
X167773000Y-105790500D01*
X168027000Y-105790500D01*
X168027000Y-105810500D01*
X168027000Y-105810500D01*
G37*
X168027000Y-105810500D02*
X168047000Y-105810500D01*
X168047000Y-106064500D01*
X168027000Y-106064500D01*
X168027000Y-106901250D01*
X168185750Y-107060000D01*
X168600000Y-107063072D01*
X168715000Y-107051746D01*
X168715001Y-112024842D01*
X166754988Y-113984856D01*
X166733520Y-113963388D01*
X166547624Y-113839176D01*
X166507088Y-113822385D01*
X166545000Y-113631788D01*
X166545000Y-113408212D01*
X166507088Y-113217615D01*
X166547624Y-113200824D01*
X166733520Y-113076612D01*
X166891612Y-112918520D01*
X167015824Y-112732624D01*
X167101383Y-112526067D01*
X167145000Y-112306788D01*
X167145000Y-112083212D01*
X167110744Y-111910996D01*
X167113797Y-111880001D01*
X167110000Y-111841448D01*
X167110000Y-107054208D01*
X167200000Y-107063072D01*
X167614250Y-107060000D01*
X167773000Y-106901250D01*
X167773000Y-106064500D01*
X167753000Y-106064500D01*
X167753000Y-105810500D01*
X167773000Y-105810500D01*
X167773000Y-105790500D01*
X168027000Y-105790500D01*
X168027000Y-105810500D01*
G36*
X164127000Y-105810500D02*
G01*
X164147000Y-105810500D01*
X164147000Y-106064500D01*
X164127000Y-106064500D01*
X164127000Y-106901250D01*
X164285750Y-107060000D01*
X164700000Y-107063072D01*
X164824482Y-107050812D01*
X164890001Y-107030937D01*
X164890001Y-109856875D01*
X164872376Y-109864176D01*
X164686480Y-109988388D01*
X164528388Y-110146480D01*
X164404176Y-110332376D01*
X164318617Y-110538933D01*
X164275000Y-110758212D01*
X164275000Y-110981788D01*
X164318617Y-111201067D01*
X164404176Y-111407624D01*
X164528388Y-111593520D01*
X164686480Y-111751612D01*
X164872376Y-111875824D01*
X164912912Y-111892615D01*
X164875000Y-112083212D01*
X164875000Y-112306788D01*
X164912912Y-112497385D01*
X164872376Y-112514176D01*
X164686480Y-112638388D01*
X164589868Y-112735000D01*
X163885157Y-112735000D01*
X163035000Y-111884843D01*
X163035000Y-107003373D01*
X163055820Y-107014502D01*
X163175518Y-107050812D01*
X163300000Y-107063072D01*
X163714250Y-107060000D01*
X163873000Y-106901250D01*
X163873000Y-106064500D01*
X163853000Y-106064500D01*
X163853000Y-105810500D01*
X163873000Y-105810500D01*
X163873000Y-105790500D01*
X164127000Y-105790500D01*
X164127000Y-105810500D01*
X164127000Y-105810500D01*
G37*
X164127000Y-105810500D02*
X164147000Y-105810500D01*
X164147000Y-106064500D01*
X164127000Y-106064500D01*
X164127000Y-106901250D01*
X164285750Y-107060000D01*
X164700000Y-107063072D01*
X164824482Y-107050812D01*
X164890001Y-107030937D01*
X164890001Y-109856875D01*
X164872376Y-109864176D01*
X164686480Y-109988388D01*
X164528388Y-110146480D01*
X164404176Y-110332376D01*
X164318617Y-110538933D01*
X164275000Y-110758212D01*
X164275000Y-110981788D01*
X164318617Y-111201067D01*
X164404176Y-111407624D01*
X164528388Y-111593520D01*
X164686480Y-111751612D01*
X164872376Y-111875824D01*
X164912912Y-111892615D01*
X164875000Y-112083212D01*
X164875000Y-112306788D01*
X164912912Y-112497385D01*
X164872376Y-112514176D01*
X164686480Y-112638388D01*
X164589868Y-112735000D01*
X163885157Y-112735000D01*
X163035000Y-111884843D01*
X163035000Y-107003373D01*
X163055820Y-107014502D01*
X163175518Y-107050812D01*
X163300000Y-107063072D01*
X163714250Y-107060000D01*
X163873000Y-106901250D01*
X163873000Y-106064500D01*
X163853000Y-106064500D01*
X163853000Y-105810500D01*
X163873000Y-105810500D01*
X163873000Y-105790500D01*
X164127000Y-105790500D01*
X164127000Y-105810500D01*
G36*
X182127000Y-105810500D02*
G01*
X182147000Y-105810500D01*
X182147000Y-106064500D01*
X182127000Y-106064500D01*
X182127000Y-106901250D01*
X182285750Y-107060000D01*
X182700000Y-107063072D01*
X182824482Y-107050812D01*
X182944180Y-107014502D01*
X182965001Y-107003373D01*
X182965001Y-107769841D01*
X180737487Y-109997355D01*
X180718644Y-109978512D01*
X180952816Y-109744340D01*
X180982764Y-109719762D01*
X181080862Y-109600231D01*
X181153754Y-109463858D01*
X181171082Y-109406736D01*
X181198642Y-109315885D01*
X181206020Y-109240972D01*
X181210000Y-109200559D01*
X181210000Y-109200554D01*
X181213797Y-109161998D01*
X181210000Y-109123443D01*
X181210000Y-107054208D01*
X181300000Y-107063072D01*
X181714250Y-107060000D01*
X181873000Y-106901250D01*
X181873000Y-106064500D01*
X181853000Y-106064500D01*
X181853000Y-105810500D01*
X181873000Y-105810500D01*
X181873000Y-105790500D01*
X182127000Y-105790500D01*
X182127000Y-105810500D01*
X182127000Y-105810500D01*
G37*
X182127000Y-105810500D02*
X182147000Y-105810500D01*
X182147000Y-106064500D01*
X182127000Y-106064500D01*
X182127000Y-106901250D01*
X182285750Y-107060000D01*
X182700000Y-107063072D01*
X182824482Y-107050812D01*
X182944180Y-107014502D01*
X182965001Y-107003373D01*
X182965001Y-107769841D01*
X180737487Y-109997355D01*
X180718644Y-109978512D01*
X180952816Y-109744340D01*
X180982764Y-109719762D01*
X181080862Y-109600231D01*
X181153754Y-109463858D01*
X181171082Y-109406736D01*
X181198642Y-109315885D01*
X181206020Y-109240972D01*
X181210000Y-109200559D01*
X181210000Y-109200554D01*
X181213797Y-109161998D01*
X181210000Y-109123443D01*
X181210000Y-107054208D01*
X181300000Y-107063072D01*
X181714250Y-107060000D01*
X181873000Y-106901250D01*
X181873000Y-106064500D01*
X181853000Y-106064500D01*
X181853000Y-105810500D01*
X181873000Y-105810500D01*
X181873000Y-105790500D01*
X182127000Y-105790500D01*
X182127000Y-105810500D01*
G36*
X171851928Y-81950000D02*
G01*
X171864188Y-82074482D01*
X171900498Y-82194180D01*
X171959463Y-82304494D01*
X172038815Y-82401185D01*
X172135506Y-82480537D01*
X172245820Y-82539502D01*
X172330394Y-82565157D01*
X172375914Y-82650320D01*
X172467763Y-82762238D01*
X172495808Y-82785254D01*
X175515000Y-85804447D01*
X175515001Y-93788885D01*
X175511444Y-93825000D01*
X175525635Y-93969085D01*
X175555971Y-94069086D01*
X175567664Y-94107633D01*
X175635914Y-94235320D01*
X175727763Y-94347238D01*
X175755808Y-94370254D01*
X176964046Y-95578493D01*
X176961928Y-95600000D01*
X176961928Y-96650000D01*
X176974188Y-96774482D01*
X177010498Y-96894180D01*
X177026972Y-96925000D01*
X177010498Y-96955820D01*
X176974188Y-97075518D01*
X176961928Y-97200000D01*
X176965000Y-98614250D01*
X177123750Y-98773000D01*
X178109692Y-98773000D01*
X178104565Y-98825040D01*
X178091120Y-98838485D01*
X178097180Y-98900000D01*
X178091120Y-98961515D01*
X178104565Y-98974960D01*
X178109692Y-99027000D01*
X177123750Y-99027000D01*
X176965000Y-99185750D01*
X176961928Y-100600000D01*
X176974188Y-100724482D01*
X177001844Y-100815651D01*
X176915256Y-100757795D01*
X176726898Y-100679774D01*
X176526939Y-100640000D01*
X176323061Y-100640000D01*
X176123102Y-100679774D01*
X175934744Y-100757795D01*
X175765226Y-100871063D01*
X175695538Y-100940751D01*
X170173363Y-100940751D01*
X170104426Y-100871814D01*
X169934908Y-100758546D01*
X169746550Y-100680525D01*
X169546591Y-100640751D01*
X169342713Y-100640751D01*
X169142754Y-100680525D01*
X169129605Y-100685972D01*
X169138072Y-100600000D01*
X169135000Y-99185750D01*
X168976250Y-99027000D01*
X167990308Y-99027000D01*
X167995435Y-98974960D01*
X168008880Y-98961515D01*
X168002820Y-98900000D01*
X168008880Y-98838485D01*
X167995435Y-98825040D01*
X167990308Y-98773000D01*
X168976250Y-98773000D01*
X169135000Y-98614250D01*
X169138072Y-97200000D01*
X169125812Y-97075518D01*
X169089502Y-96955820D01*
X169073028Y-96925000D01*
X169089502Y-96894180D01*
X169125812Y-96774482D01*
X169138072Y-96650000D01*
X169138072Y-95600000D01*
X169135954Y-95578492D01*
X170244193Y-94470254D01*
X170272238Y-94447238D01*
X170364087Y-94335320D01*
X170432337Y-94207633D01*
X170469440Y-94085320D01*
X170474365Y-94069086D01*
X170488556Y-93925001D01*
X170485000Y-93888896D01*
X170485000Y-88286105D01*
X170488556Y-88250000D01*
X170474365Y-88105915D01*
X170432337Y-87967366D01*
X170364087Y-87839680D01*
X170295253Y-87755806D01*
X170295250Y-87755803D01*
X170272237Y-87727762D01*
X170244197Y-87704750D01*
X169295258Y-86755812D01*
X169272238Y-86727762D01*
X169160320Y-86635913D01*
X169032633Y-86567663D01*
X168894085Y-86525635D01*
X168786105Y-86515000D01*
X168750000Y-86511444D01*
X168713895Y-86515000D01*
X167252565Y-86515000D01*
X167285000Y-86351939D01*
X167285000Y-86148061D01*
X167256400Y-86004276D01*
X167301898Y-85995226D01*
X167490256Y-85917205D01*
X167659774Y-85803937D01*
X167738828Y-85724883D01*
X167744085Y-85724365D01*
X167882633Y-85682337D01*
X168010320Y-85614087D01*
X168122238Y-85522238D01*
X168145259Y-85494187D01*
X170944193Y-82695254D01*
X170972238Y-82672238D01*
X171049341Y-82578288D01*
X171074482Y-82575812D01*
X171194180Y-82539502D01*
X171304494Y-82480537D01*
X171401185Y-82401185D01*
X171480537Y-82304494D01*
X171539502Y-82194180D01*
X171575812Y-82074482D01*
X171588072Y-81950000D01*
X171588072Y-78685000D01*
X171851928Y-78685000D01*
X171851928Y-81950000D01*
X171851928Y-81950000D01*
G37*
X171851928Y-81950000D02*
X171864188Y-82074482D01*
X171900498Y-82194180D01*
X171959463Y-82304494D01*
X172038815Y-82401185D01*
X172135506Y-82480537D01*
X172245820Y-82539502D01*
X172330394Y-82565157D01*
X172375914Y-82650320D01*
X172467763Y-82762238D01*
X172495808Y-82785254D01*
X175515000Y-85804447D01*
X175515001Y-93788885D01*
X175511444Y-93825000D01*
X175525635Y-93969085D01*
X175555971Y-94069086D01*
X175567664Y-94107633D01*
X175635914Y-94235320D01*
X175727763Y-94347238D01*
X175755808Y-94370254D01*
X176964046Y-95578493D01*
X176961928Y-95600000D01*
X176961928Y-96650000D01*
X176974188Y-96774482D01*
X177010498Y-96894180D01*
X177026972Y-96925000D01*
X177010498Y-96955820D01*
X176974188Y-97075518D01*
X176961928Y-97200000D01*
X176965000Y-98614250D01*
X177123750Y-98773000D01*
X178109692Y-98773000D01*
X178104565Y-98825040D01*
X178091120Y-98838485D01*
X178097180Y-98900000D01*
X178091120Y-98961515D01*
X178104565Y-98974960D01*
X178109692Y-99027000D01*
X177123750Y-99027000D01*
X176965000Y-99185750D01*
X176961928Y-100600000D01*
X176974188Y-100724482D01*
X177001844Y-100815651D01*
X176915256Y-100757795D01*
X176726898Y-100679774D01*
X176526939Y-100640000D01*
X176323061Y-100640000D01*
X176123102Y-100679774D01*
X175934744Y-100757795D01*
X175765226Y-100871063D01*
X175695538Y-100940751D01*
X170173363Y-100940751D01*
X170104426Y-100871814D01*
X169934908Y-100758546D01*
X169746550Y-100680525D01*
X169546591Y-100640751D01*
X169342713Y-100640751D01*
X169142754Y-100680525D01*
X169129605Y-100685972D01*
X169138072Y-100600000D01*
X169135000Y-99185750D01*
X168976250Y-99027000D01*
X167990308Y-99027000D01*
X167995435Y-98974960D01*
X168008880Y-98961515D01*
X168002820Y-98900000D01*
X168008880Y-98838485D01*
X167995435Y-98825040D01*
X167990308Y-98773000D01*
X168976250Y-98773000D01*
X169135000Y-98614250D01*
X169138072Y-97200000D01*
X169125812Y-97075518D01*
X169089502Y-96955820D01*
X169073028Y-96925000D01*
X169089502Y-96894180D01*
X169125812Y-96774482D01*
X169138072Y-96650000D01*
X169138072Y-95600000D01*
X169135954Y-95578492D01*
X170244193Y-94470254D01*
X170272238Y-94447238D01*
X170364087Y-94335320D01*
X170432337Y-94207633D01*
X170469440Y-94085320D01*
X170474365Y-94069086D01*
X170488556Y-93925001D01*
X170485000Y-93888896D01*
X170485000Y-88286105D01*
X170488556Y-88250000D01*
X170474365Y-88105915D01*
X170432337Y-87967366D01*
X170364087Y-87839680D01*
X170295253Y-87755806D01*
X170295250Y-87755803D01*
X170272237Y-87727762D01*
X170244197Y-87704750D01*
X169295258Y-86755812D01*
X169272238Y-86727762D01*
X169160320Y-86635913D01*
X169032633Y-86567663D01*
X168894085Y-86525635D01*
X168786105Y-86515000D01*
X168750000Y-86511444D01*
X168713895Y-86515000D01*
X167252565Y-86515000D01*
X167285000Y-86351939D01*
X167285000Y-86148061D01*
X167256400Y-86004276D01*
X167301898Y-85995226D01*
X167490256Y-85917205D01*
X167659774Y-85803937D01*
X167738828Y-85724883D01*
X167744085Y-85724365D01*
X167882633Y-85682337D01*
X168010320Y-85614087D01*
X168122238Y-85522238D01*
X168145259Y-85494187D01*
X170944193Y-82695254D01*
X170972238Y-82672238D01*
X171049341Y-82578288D01*
X171074482Y-82575812D01*
X171194180Y-82539502D01*
X171304494Y-82480537D01*
X171401185Y-82401185D01*
X171480537Y-82304494D01*
X171539502Y-82194180D01*
X171575812Y-82074482D01*
X171588072Y-81950000D01*
X171588072Y-78685000D01*
X171851928Y-78685000D01*
X171851928Y-81950000D01*
G36*
X165189500Y-93223000D02*
G01*
X165209500Y-93223000D01*
X165209500Y-93477000D01*
X165189500Y-93477000D01*
X165189500Y-93497000D01*
X164935500Y-93497000D01*
X164935500Y-93477000D01*
X164915500Y-93477000D01*
X164915500Y-93223000D01*
X164935500Y-93223000D01*
X164935500Y-93203000D01*
X165189500Y-93203000D01*
X165189500Y-93223000D01*
X165189500Y-93223000D01*
G37*
X165189500Y-93223000D02*
X165209500Y-93223000D01*
X165209500Y-93477000D01*
X165189500Y-93477000D01*
X165189500Y-93497000D01*
X164935500Y-93497000D01*
X164935500Y-93477000D01*
X164915500Y-93477000D01*
X164915500Y-93223000D01*
X164935500Y-93223000D01*
X164935500Y-93203000D01*
X165189500Y-93203000D01*
X165189500Y-93223000D01*
G36*
X179289500Y-93223000D02*
G01*
X179309500Y-93223000D01*
X179309500Y-93477000D01*
X179289500Y-93477000D01*
X179289500Y-93497000D01*
X179035500Y-93497000D01*
X179035500Y-93477000D01*
X179015500Y-93477000D01*
X179015500Y-93223000D01*
X179035500Y-93223000D01*
X179035500Y-93203000D01*
X179289500Y-93203000D01*
X179289500Y-93223000D01*
X179289500Y-93223000D01*
G37*
X179289500Y-93223000D02*
X179309500Y-93223000D01*
X179309500Y-93477000D01*
X179289500Y-93477000D01*
X179289500Y-93497000D01*
X179035500Y-93497000D01*
X179035500Y-93477000D01*
X179015500Y-93477000D01*
X179015500Y-93223000D01*
X179035500Y-93223000D01*
X179035500Y-93203000D01*
X179289500Y-93203000D01*
X179289500Y-93223000D01*
G36*
X161691928Y-81950000D02*
G01*
X161704188Y-82074482D01*
X161740498Y-82194180D01*
X161799463Y-82304494D01*
X161878815Y-82401185D01*
X161975506Y-82480537D01*
X162085820Y-82539502D01*
X162205518Y-82575812D01*
X162330000Y-82588072D01*
X162928626Y-82588072D01*
X164065000Y-83724447D01*
X164065001Y-86463885D01*
X164061444Y-86500000D01*
X164075635Y-86644085D01*
X164109526Y-86755806D01*
X164117664Y-86782633D01*
X164185914Y-86910320D01*
X164277763Y-87022238D01*
X164305808Y-87045254D01*
X165504746Y-88244193D01*
X165527762Y-88272238D01*
X165639680Y-88364087D01*
X165767367Y-88432337D01*
X165898903Y-88472238D01*
X165905915Y-88474365D01*
X166050000Y-88488556D01*
X166086105Y-88485000D01*
X166832646Y-88485000D01*
X166820208Y-88495208D01*
X166710542Y-88628836D01*
X166629053Y-88781291D01*
X166578872Y-88946715D01*
X166561928Y-89118750D01*
X166561928Y-89606250D01*
X166578872Y-89778285D01*
X166629053Y-89943709D01*
X166710542Y-90096164D01*
X166820208Y-90229792D01*
X166905756Y-90300000D01*
X166820208Y-90370208D01*
X166710542Y-90503836D01*
X166629053Y-90656291D01*
X166578872Y-90821715D01*
X166561928Y-90993750D01*
X166561928Y-91481250D01*
X166578872Y-91653285D01*
X166629053Y-91818709D01*
X166710542Y-91971164D01*
X166743996Y-92011928D01*
X166693750Y-92011928D01*
X166521715Y-92028872D01*
X166356291Y-92079053D01*
X166203836Y-92160542D01*
X166070208Y-92270208D01*
X166064992Y-92276564D01*
X166001185Y-92198815D01*
X165904494Y-92119463D01*
X165794180Y-92060498D01*
X165674482Y-92024188D01*
X165550000Y-92011928D01*
X165348250Y-92015000D01*
X165189502Y-92173748D01*
X165189502Y-92015000D01*
X165153483Y-92015000D01*
X165189458Y-91971164D01*
X165270947Y-91818709D01*
X165321128Y-91653285D01*
X165338072Y-91481250D01*
X165338072Y-90993750D01*
X165321128Y-90821715D01*
X165270947Y-90656291D01*
X165189458Y-90503836D01*
X165079792Y-90370208D01*
X165073436Y-90364992D01*
X165151185Y-90301185D01*
X165230537Y-90204494D01*
X165289502Y-90094180D01*
X165325812Y-89974482D01*
X165338072Y-89850000D01*
X165335000Y-89648250D01*
X165176250Y-89489500D01*
X164127000Y-89489500D01*
X164127000Y-89509500D01*
X163873000Y-89509500D01*
X163873000Y-89489500D01*
X163853000Y-89489500D01*
X163853000Y-89235500D01*
X163873000Y-89235500D01*
X163873000Y-88398750D01*
X164127000Y-88398750D01*
X164127000Y-89235500D01*
X165176250Y-89235500D01*
X165335000Y-89076750D01*
X165338072Y-88875000D01*
X165325812Y-88750518D01*
X165289502Y-88630820D01*
X165230537Y-88520506D01*
X165151185Y-88423815D01*
X165054494Y-88344463D01*
X164944180Y-88285498D01*
X164824482Y-88249188D01*
X164700000Y-88236928D01*
X164285750Y-88240000D01*
X164127000Y-88398750D01*
X163873000Y-88398750D01*
X163714250Y-88240000D01*
X163300000Y-88236928D01*
X163235000Y-88243330D01*
X163235000Y-86978711D01*
X163303937Y-86909774D01*
X163417205Y-86740256D01*
X163495226Y-86551898D01*
X163535000Y-86351939D01*
X163535000Y-86148061D01*
X163495226Y-85948102D01*
X163417205Y-85759744D01*
X163303937Y-85590226D01*
X163159774Y-85446063D01*
X162990256Y-85332795D01*
X162801898Y-85254774D01*
X162601939Y-85215000D01*
X162512511Y-85215000D01*
X162535000Y-85101939D01*
X162535000Y-84898061D01*
X162495226Y-84698102D01*
X162417205Y-84509744D01*
X162303937Y-84340226D01*
X162159774Y-84196063D01*
X161990256Y-84082795D01*
X161801898Y-84004774D01*
X161601939Y-83965000D01*
X161398061Y-83965000D01*
X161198102Y-84004774D01*
X161025000Y-84076476D01*
X161025000Y-82542287D01*
X161034180Y-82539502D01*
X161144494Y-82480537D01*
X161241185Y-82401185D01*
X161320537Y-82304494D01*
X161379502Y-82194180D01*
X161415812Y-82074482D01*
X161428072Y-81950000D01*
X161428072Y-78685000D01*
X161691928Y-78685000D01*
X161691928Y-81950000D01*
X161691928Y-81950000D01*
G37*
X161691928Y-81950000D02*
X161704188Y-82074482D01*
X161740498Y-82194180D01*
X161799463Y-82304494D01*
X161878815Y-82401185D01*
X161975506Y-82480537D01*
X162085820Y-82539502D01*
X162205518Y-82575812D01*
X162330000Y-82588072D01*
X162928626Y-82588072D01*
X164065000Y-83724447D01*
X164065001Y-86463885D01*
X164061444Y-86500000D01*
X164075635Y-86644085D01*
X164109526Y-86755806D01*
X164117664Y-86782633D01*
X164185914Y-86910320D01*
X164277763Y-87022238D01*
X164305808Y-87045254D01*
X165504746Y-88244193D01*
X165527762Y-88272238D01*
X165639680Y-88364087D01*
X165767367Y-88432337D01*
X165898903Y-88472238D01*
X165905915Y-88474365D01*
X166050000Y-88488556D01*
X166086105Y-88485000D01*
X166832646Y-88485000D01*
X166820208Y-88495208D01*
X166710542Y-88628836D01*
X166629053Y-88781291D01*
X166578872Y-88946715D01*
X166561928Y-89118750D01*
X166561928Y-89606250D01*
X166578872Y-89778285D01*
X166629053Y-89943709D01*
X166710542Y-90096164D01*
X166820208Y-90229792D01*
X166905756Y-90300000D01*
X166820208Y-90370208D01*
X166710542Y-90503836D01*
X166629053Y-90656291D01*
X166578872Y-90821715D01*
X166561928Y-90993750D01*
X166561928Y-91481250D01*
X166578872Y-91653285D01*
X166629053Y-91818709D01*
X166710542Y-91971164D01*
X166743996Y-92011928D01*
X166693750Y-92011928D01*
X166521715Y-92028872D01*
X166356291Y-92079053D01*
X166203836Y-92160542D01*
X166070208Y-92270208D01*
X166064992Y-92276564D01*
X166001185Y-92198815D01*
X165904494Y-92119463D01*
X165794180Y-92060498D01*
X165674482Y-92024188D01*
X165550000Y-92011928D01*
X165348250Y-92015000D01*
X165189502Y-92173748D01*
X165189502Y-92015000D01*
X165153483Y-92015000D01*
X165189458Y-91971164D01*
X165270947Y-91818709D01*
X165321128Y-91653285D01*
X165338072Y-91481250D01*
X165338072Y-90993750D01*
X165321128Y-90821715D01*
X165270947Y-90656291D01*
X165189458Y-90503836D01*
X165079792Y-90370208D01*
X165073436Y-90364992D01*
X165151185Y-90301185D01*
X165230537Y-90204494D01*
X165289502Y-90094180D01*
X165325812Y-89974482D01*
X165338072Y-89850000D01*
X165335000Y-89648250D01*
X165176250Y-89489500D01*
X164127000Y-89489500D01*
X164127000Y-89509500D01*
X163873000Y-89509500D01*
X163873000Y-89489500D01*
X163853000Y-89489500D01*
X163853000Y-89235500D01*
X163873000Y-89235500D01*
X163873000Y-88398750D01*
X164127000Y-88398750D01*
X164127000Y-89235500D01*
X165176250Y-89235500D01*
X165335000Y-89076750D01*
X165338072Y-88875000D01*
X165325812Y-88750518D01*
X165289502Y-88630820D01*
X165230537Y-88520506D01*
X165151185Y-88423815D01*
X165054494Y-88344463D01*
X164944180Y-88285498D01*
X164824482Y-88249188D01*
X164700000Y-88236928D01*
X164285750Y-88240000D01*
X164127000Y-88398750D01*
X163873000Y-88398750D01*
X163714250Y-88240000D01*
X163300000Y-88236928D01*
X163235000Y-88243330D01*
X163235000Y-86978711D01*
X163303937Y-86909774D01*
X163417205Y-86740256D01*
X163495226Y-86551898D01*
X163535000Y-86351939D01*
X163535000Y-86148061D01*
X163495226Y-85948102D01*
X163417205Y-85759744D01*
X163303937Y-85590226D01*
X163159774Y-85446063D01*
X162990256Y-85332795D01*
X162801898Y-85254774D01*
X162601939Y-85215000D01*
X162512511Y-85215000D01*
X162535000Y-85101939D01*
X162535000Y-84898061D01*
X162495226Y-84698102D01*
X162417205Y-84509744D01*
X162303937Y-84340226D01*
X162159774Y-84196063D01*
X161990256Y-84082795D01*
X161801898Y-84004774D01*
X161601939Y-83965000D01*
X161398061Y-83965000D01*
X161198102Y-84004774D01*
X161025000Y-84076476D01*
X161025000Y-82542287D01*
X161034180Y-82539502D01*
X161144494Y-82480537D01*
X161241185Y-82401185D01*
X161320537Y-82304494D01*
X161379502Y-82194180D01*
X161415812Y-82074482D01*
X161428072Y-81950000D01*
X161428072Y-78685000D01*
X161691928Y-78685000D01*
X161691928Y-81950000D01*
G36*
X176931928Y-81950000D02*
G01*
X176944188Y-82074482D01*
X176980498Y-82194180D01*
X177039463Y-82304494D01*
X177118815Y-82401185D01*
X177215506Y-82480537D01*
X177325820Y-82539502D01*
X177335001Y-82542287D01*
X177335001Y-82783885D01*
X177331444Y-82820000D01*
X177345635Y-82964085D01*
X177382508Y-83085635D01*
X177387664Y-83102633D01*
X177455914Y-83230320D01*
X177547763Y-83342238D01*
X177575808Y-83365254D01*
X182280806Y-88070253D01*
X182280812Y-88070258D01*
X182447482Y-88236928D01*
X182399416Y-88236928D01*
X182331067Y-88208617D01*
X182111788Y-88165000D01*
X181888212Y-88165000D01*
X181668933Y-88208617D01*
X181600584Y-88236928D01*
X181543750Y-88236928D01*
X181371715Y-88253872D01*
X181206291Y-88304053D01*
X181053836Y-88385542D01*
X180920208Y-88495208D01*
X180810542Y-88628836D01*
X180729053Y-88781291D01*
X180678872Y-88946715D01*
X180661928Y-89118750D01*
X180661928Y-89606250D01*
X180678872Y-89778285D01*
X180729053Y-89943709D01*
X180810542Y-90096164D01*
X180920208Y-90229792D01*
X181005756Y-90300000D01*
X180920208Y-90370208D01*
X180810542Y-90503836D01*
X180729053Y-90656291D01*
X180678872Y-90821715D01*
X180661928Y-90993750D01*
X180661928Y-91481250D01*
X180678872Y-91653285D01*
X180729053Y-91818709D01*
X180810542Y-91971164D01*
X180843996Y-92011928D01*
X180793750Y-92011928D01*
X180621715Y-92028872D01*
X180456291Y-92079053D01*
X180303836Y-92160542D01*
X180170208Y-92270208D01*
X180164992Y-92276564D01*
X180101185Y-92198815D01*
X180004494Y-92119463D01*
X179894180Y-92060498D01*
X179774482Y-92024188D01*
X179650000Y-92011928D01*
X179448250Y-92015000D01*
X179289502Y-92173748D01*
X179289502Y-92015000D01*
X179253483Y-92015000D01*
X179289458Y-91971164D01*
X179370947Y-91818709D01*
X179421128Y-91653285D01*
X179438072Y-91481250D01*
X179438072Y-90993750D01*
X179421128Y-90821715D01*
X179370947Y-90656291D01*
X179289458Y-90503836D01*
X179179792Y-90370208D01*
X179173436Y-90364992D01*
X179251185Y-90301185D01*
X179330537Y-90204494D01*
X179389502Y-90094180D01*
X179425812Y-89974482D01*
X179438072Y-89850000D01*
X179435000Y-89648250D01*
X179276250Y-89489500D01*
X178227000Y-89489500D01*
X178227000Y-89509500D01*
X177973000Y-89509500D01*
X177973000Y-89489500D01*
X177953000Y-89489500D01*
X177953000Y-89235500D01*
X177973000Y-89235500D01*
X177973000Y-88398750D01*
X178227000Y-88398750D01*
X178227000Y-89235500D01*
X179276250Y-89235500D01*
X179435000Y-89076750D01*
X179438072Y-88875000D01*
X179425812Y-88750518D01*
X179389502Y-88630820D01*
X179330537Y-88520506D01*
X179251185Y-88423815D01*
X179154494Y-88344463D01*
X179044180Y-88285498D01*
X178924482Y-88249188D01*
X178800000Y-88236928D01*
X178385750Y-88240000D01*
X178227000Y-88398750D01*
X177973000Y-88398750D01*
X177814250Y-88240000D01*
X177485000Y-88237558D01*
X177485000Y-85286105D01*
X177488556Y-85250000D01*
X177474365Y-85105915D01*
X177432337Y-84967366D01*
X177364087Y-84839680D01*
X177295253Y-84755806D01*
X177295250Y-84755803D01*
X177272237Y-84727762D01*
X177244197Y-84704750D01*
X176265000Y-83725554D01*
X176265000Y-82542287D01*
X176274180Y-82539502D01*
X176384494Y-82480537D01*
X176481185Y-82401185D01*
X176560537Y-82304494D01*
X176619502Y-82194180D01*
X176655812Y-82074482D01*
X176668072Y-81950000D01*
X176668072Y-78685000D01*
X176931928Y-78685000D01*
X176931928Y-81950000D01*
X176931928Y-81950000D01*
G37*
X176931928Y-81950000D02*
X176944188Y-82074482D01*
X176980498Y-82194180D01*
X177039463Y-82304494D01*
X177118815Y-82401185D01*
X177215506Y-82480537D01*
X177325820Y-82539502D01*
X177335001Y-82542287D01*
X177335001Y-82783885D01*
X177331444Y-82820000D01*
X177345635Y-82964085D01*
X177382508Y-83085635D01*
X177387664Y-83102633D01*
X177455914Y-83230320D01*
X177547763Y-83342238D01*
X177575808Y-83365254D01*
X182280806Y-88070253D01*
X182280812Y-88070258D01*
X182447482Y-88236928D01*
X182399416Y-88236928D01*
X182331067Y-88208617D01*
X182111788Y-88165000D01*
X181888212Y-88165000D01*
X181668933Y-88208617D01*
X181600584Y-88236928D01*
X181543750Y-88236928D01*
X181371715Y-88253872D01*
X181206291Y-88304053D01*
X181053836Y-88385542D01*
X180920208Y-88495208D01*
X180810542Y-88628836D01*
X180729053Y-88781291D01*
X180678872Y-88946715D01*
X180661928Y-89118750D01*
X180661928Y-89606250D01*
X180678872Y-89778285D01*
X180729053Y-89943709D01*
X180810542Y-90096164D01*
X180920208Y-90229792D01*
X181005756Y-90300000D01*
X180920208Y-90370208D01*
X180810542Y-90503836D01*
X180729053Y-90656291D01*
X180678872Y-90821715D01*
X180661928Y-90993750D01*
X180661928Y-91481250D01*
X180678872Y-91653285D01*
X180729053Y-91818709D01*
X180810542Y-91971164D01*
X180843996Y-92011928D01*
X180793750Y-92011928D01*
X180621715Y-92028872D01*
X180456291Y-92079053D01*
X180303836Y-92160542D01*
X180170208Y-92270208D01*
X180164992Y-92276564D01*
X180101185Y-92198815D01*
X180004494Y-92119463D01*
X179894180Y-92060498D01*
X179774482Y-92024188D01*
X179650000Y-92011928D01*
X179448250Y-92015000D01*
X179289502Y-92173748D01*
X179289502Y-92015000D01*
X179253483Y-92015000D01*
X179289458Y-91971164D01*
X179370947Y-91818709D01*
X179421128Y-91653285D01*
X179438072Y-91481250D01*
X179438072Y-90993750D01*
X179421128Y-90821715D01*
X179370947Y-90656291D01*
X179289458Y-90503836D01*
X179179792Y-90370208D01*
X179173436Y-90364992D01*
X179251185Y-90301185D01*
X179330537Y-90204494D01*
X179389502Y-90094180D01*
X179425812Y-89974482D01*
X179438072Y-89850000D01*
X179435000Y-89648250D01*
X179276250Y-89489500D01*
X178227000Y-89489500D01*
X178227000Y-89509500D01*
X177973000Y-89509500D01*
X177973000Y-89489500D01*
X177953000Y-89489500D01*
X177953000Y-89235500D01*
X177973000Y-89235500D01*
X177973000Y-88398750D01*
X178227000Y-88398750D01*
X178227000Y-89235500D01*
X179276250Y-89235500D01*
X179435000Y-89076750D01*
X179438072Y-88875000D01*
X179425812Y-88750518D01*
X179389502Y-88630820D01*
X179330537Y-88520506D01*
X179251185Y-88423815D01*
X179154494Y-88344463D01*
X179044180Y-88285498D01*
X178924482Y-88249188D01*
X178800000Y-88236928D01*
X178385750Y-88240000D01*
X178227000Y-88398750D01*
X177973000Y-88398750D01*
X177814250Y-88240000D01*
X177485000Y-88237558D01*
X177485000Y-85286105D01*
X177488556Y-85250000D01*
X177474365Y-85105915D01*
X177432337Y-84967366D01*
X177364087Y-84839680D01*
X177295253Y-84755806D01*
X177295250Y-84755803D01*
X177272237Y-84727762D01*
X177244197Y-84704750D01*
X176265000Y-83725554D01*
X176265000Y-82542287D01*
X176274180Y-82539502D01*
X176384494Y-82480537D01*
X176481185Y-82401185D01*
X176560537Y-82304494D01*
X176619502Y-82194180D01*
X176655812Y-82074482D01*
X176668072Y-81950000D01*
X176668072Y-78685000D01*
X176931928Y-78685000D01*
X176931928Y-81950000D01*
G36*
X158712376Y-85255824D02*
G01*
X158918933Y-85341383D01*
X159138212Y-85385000D01*
X159361788Y-85385000D01*
X159555000Y-85346568D01*
X159555000Y-86895555D01*
X158750696Y-87699860D01*
X158739458Y-87678836D01*
X158629792Y-87545208D01*
X158496164Y-87435542D01*
X158418510Y-87394035D01*
X158501185Y-87326185D01*
X158580537Y-87229494D01*
X158639502Y-87119180D01*
X158675812Y-86999482D01*
X158688072Y-86875000D01*
X158688072Y-86225000D01*
X158675812Y-86100518D01*
X158645320Y-86000000D01*
X158675812Y-85899482D01*
X158688072Y-85775000D01*
X158685000Y-85735750D01*
X158526250Y-85577000D01*
X157735000Y-85577000D01*
X157735000Y-85323000D01*
X158526250Y-85323000D01*
X158641071Y-85208179D01*
X158712376Y-85255824D01*
X158712376Y-85255824D01*
G37*
X158712376Y-85255824D02*
X158918933Y-85341383D01*
X159138212Y-85385000D01*
X159361788Y-85385000D01*
X159555000Y-85346568D01*
X159555000Y-86895555D01*
X158750696Y-87699860D01*
X158739458Y-87678836D01*
X158629792Y-87545208D01*
X158496164Y-87435542D01*
X158418510Y-87394035D01*
X158501185Y-87326185D01*
X158580537Y-87229494D01*
X158639502Y-87119180D01*
X158675812Y-86999482D01*
X158688072Y-86875000D01*
X158688072Y-86225000D01*
X158675812Y-86100518D01*
X158645320Y-86000000D01*
X158675812Y-85899482D01*
X158688072Y-85775000D01*
X158685000Y-85735750D01*
X158526250Y-85577000D01*
X157735000Y-85577000D01*
X157735000Y-85323000D01*
X158526250Y-85323000D01*
X158641071Y-85208179D01*
X158712376Y-85255824D01*
G36*
X191927000Y-80323000D02*
G01*
X191947000Y-80323000D01*
X191947000Y-80577000D01*
X191927000Y-80577000D01*
X191927000Y-83426250D01*
X192085750Y-83585000D01*
X192315000Y-83585730D01*
X192315000Y-84526646D01*
X192224482Y-84499188D01*
X192100000Y-84486928D01*
X191885750Y-84490000D01*
X191785000Y-84590750D01*
X191785000Y-84533647D01*
X191788314Y-84500000D01*
X191775088Y-84365717D01*
X191735919Y-84236594D01*
X191672312Y-84117593D01*
X191586711Y-84013289D01*
X191482407Y-83927688D01*
X191363406Y-83864081D01*
X191234283Y-83824912D01*
X191133647Y-83815000D01*
X191100000Y-83811686D01*
X191066353Y-83815000D01*
X188933647Y-83815000D01*
X188900000Y-83811686D01*
X188866353Y-83815000D01*
X188765717Y-83824912D01*
X188636594Y-83864081D01*
X188517593Y-83927688D01*
X188413289Y-84013289D01*
X188327688Y-84117593D01*
X188264081Y-84236594D01*
X188224912Y-84365717D01*
X188211686Y-84500000D01*
X188215001Y-84533657D01*
X188215001Y-84590751D01*
X188114250Y-84490000D01*
X187900000Y-84486928D01*
X187859311Y-84490935D01*
X187885000Y-84361788D01*
X187885000Y-84295867D01*
X188592796Y-83588072D01*
X189550000Y-83588072D01*
X189674482Y-83575812D01*
X189794180Y-83539502D01*
X189904494Y-83480537D01*
X190001185Y-83401185D01*
X190050000Y-83341704D01*
X190098815Y-83401185D01*
X190195506Y-83480537D01*
X190305820Y-83539502D01*
X190425518Y-83575812D01*
X190550000Y-83588072D01*
X191514250Y-83585000D01*
X191673000Y-83426250D01*
X191673000Y-80577000D01*
X191653000Y-80577000D01*
X191653000Y-80323000D01*
X191673000Y-80323000D01*
X191673000Y-80303000D01*
X191927000Y-80303000D01*
X191927000Y-80323000D01*
X191927000Y-80323000D01*
G37*
X191927000Y-80323000D02*
X191947000Y-80323000D01*
X191947000Y-80577000D01*
X191927000Y-80577000D01*
X191927000Y-83426250D01*
X192085750Y-83585000D01*
X192315000Y-83585730D01*
X192315000Y-84526646D01*
X192224482Y-84499188D01*
X192100000Y-84486928D01*
X191885750Y-84490000D01*
X191785000Y-84590750D01*
X191785000Y-84533647D01*
X191788314Y-84500000D01*
X191775088Y-84365717D01*
X191735919Y-84236594D01*
X191672312Y-84117593D01*
X191586711Y-84013289D01*
X191482407Y-83927688D01*
X191363406Y-83864081D01*
X191234283Y-83824912D01*
X191133647Y-83815000D01*
X191100000Y-83811686D01*
X191066353Y-83815000D01*
X188933647Y-83815000D01*
X188900000Y-83811686D01*
X188866353Y-83815000D01*
X188765717Y-83824912D01*
X188636594Y-83864081D01*
X188517593Y-83927688D01*
X188413289Y-84013289D01*
X188327688Y-84117593D01*
X188264081Y-84236594D01*
X188224912Y-84365717D01*
X188211686Y-84500000D01*
X188215001Y-84533657D01*
X188215001Y-84590751D01*
X188114250Y-84490000D01*
X187900000Y-84486928D01*
X187859311Y-84490935D01*
X187885000Y-84361788D01*
X187885000Y-84295867D01*
X188592796Y-83588072D01*
X189550000Y-83588072D01*
X189674482Y-83575812D01*
X189794180Y-83539502D01*
X189904494Y-83480537D01*
X190001185Y-83401185D01*
X190050000Y-83341704D01*
X190098815Y-83401185D01*
X190195506Y-83480537D01*
X190305820Y-83539502D01*
X190425518Y-83575812D01*
X190550000Y-83588072D01*
X191514250Y-83585000D01*
X191673000Y-83426250D01*
X191673000Y-80577000D01*
X191653000Y-80577000D01*
X191653000Y-80323000D01*
X191673000Y-80323000D01*
X191673000Y-80303000D01*
X191927000Y-80303000D01*
X191927000Y-80323000D01*
G36*
X154327000Y-80323000D02*
G01*
X154347000Y-80323000D01*
X154347000Y-80577000D01*
X154327000Y-80577000D01*
X154327000Y-83426250D01*
X154485750Y-83585000D01*
X155450000Y-83588072D01*
X155574482Y-83575812D01*
X155694180Y-83539502D01*
X155804494Y-83480537D01*
X155901185Y-83401185D01*
X155950000Y-83341704D01*
X155998815Y-83401185D01*
X156095506Y-83480537D01*
X156205820Y-83539502D01*
X156325518Y-83575812D01*
X156450000Y-83588072D01*
X157407205Y-83588072D01*
X158115000Y-84295868D01*
X158115000Y-84361788D01*
X158141688Y-84495958D01*
X158050000Y-84486928D01*
X157835750Y-84490000D01*
X157735000Y-84590750D01*
X157735000Y-84533647D01*
X157738314Y-84500000D01*
X157725088Y-84365717D01*
X157685919Y-84236594D01*
X157622312Y-84117593D01*
X157536711Y-84013289D01*
X157432407Y-83927688D01*
X157313406Y-83864081D01*
X157184283Y-83824912D01*
X157083647Y-83815000D01*
X157050000Y-83811686D01*
X157016353Y-83815000D01*
X154883647Y-83815000D01*
X154850000Y-83811686D01*
X154816353Y-83815000D01*
X154715717Y-83824912D01*
X154586594Y-83864081D01*
X154467593Y-83927688D01*
X154363289Y-84013289D01*
X154277688Y-84117593D01*
X154214081Y-84236594D01*
X154174912Y-84365717D01*
X154161686Y-84500000D01*
X154165001Y-84533657D01*
X154165001Y-84590751D01*
X154064250Y-84490000D01*
X153850000Y-84486928D01*
X153725518Y-84499188D01*
X153685000Y-84511479D01*
X153685000Y-83585730D01*
X153914250Y-83585000D01*
X154073000Y-83426250D01*
X154073000Y-80577000D01*
X154053000Y-80577000D01*
X154053000Y-80323000D01*
X154073000Y-80323000D01*
X154073000Y-80303000D01*
X154327000Y-80303000D01*
X154327000Y-80323000D01*
X154327000Y-80323000D01*
G37*
X154327000Y-80323000D02*
X154347000Y-80323000D01*
X154347000Y-80577000D01*
X154327000Y-80577000D01*
X154327000Y-83426250D01*
X154485750Y-83585000D01*
X155450000Y-83588072D01*
X155574482Y-83575812D01*
X155694180Y-83539502D01*
X155804494Y-83480537D01*
X155901185Y-83401185D01*
X155950000Y-83341704D01*
X155998815Y-83401185D01*
X156095506Y-83480537D01*
X156205820Y-83539502D01*
X156325518Y-83575812D01*
X156450000Y-83588072D01*
X157407205Y-83588072D01*
X158115000Y-84295868D01*
X158115000Y-84361788D01*
X158141688Y-84495958D01*
X158050000Y-84486928D01*
X157835750Y-84490000D01*
X157735000Y-84590750D01*
X157735000Y-84533647D01*
X157738314Y-84500000D01*
X157725088Y-84365717D01*
X157685919Y-84236594D01*
X157622312Y-84117593D01*
X157536711Y-84013289D01*
X157432407Y-83927688D01*
X157313406Y-83864081D01*
X157184283Y-83824912D01*
X157083647Y-83815000D01*
X157050000Y-83811686D01*
X157016353Y-83815000D01*
X154883647Y-83815000D01*
X154850000Y-83811686D01*
X154816353Y-83815000D01*
X154715717Y-83824912D01*
X154586594Y-83864081D01*
X154467593Y-83927688D01*
X154363289Y-84013289D01*
X154277688Y-84117593D01*
X154214081Y-84236594D01*
X154174912Y-84365717D01*
X154161686Y-84500000D01*
X154165001Y-84533657D01*
X154165001Y-84590751D01*
X154064250Y-84490000D01*
X153850000Y-84486928D01*
X153725518Y-84499188D01*
X153685000Y-84511479D01*
X153685000Y-83585730D01*
X153914250Y-83585000D01*
X154073000Y-83426250D01*
X154073000Y-80577000D01*
X154053000Y-80577000D01*
X154053000Y-80323000D01*
X154073000Y-80323000D01*
X154073000Y-80303000D01*
X154327000Y-80303000D01*
X154327000Y-80323000D01*
G36*
X182011928Y-81950000D02*
G01*
X182024188Y-82074482D01*
X182060498Y-82194180D01*
X182119463Y-82304494D01*
X182198815Y-82401185D01*
X182295506Y-82480537D01*
X182405820Y-82539502D01*
X182415001Y-82542287D01*
X182415001Y-84125555D01*
X181341462Y-83052016D01*
X181341462Y-82543360D01*
X181354180Y-82539502D01*
X181464494Y-82480537D01*
X181561185Y-82401185D01*
X181640537Y-82304494D01*
X181699502Y-82194180D01*
X181735812Y-82074482D01*
X181748072Y-81950000D01*
X181748072Y-78685000D01*
X182011928Y-78685000D01*
X182011928Y-81950000D01*
X182011928Y-81950000D01*
G37*
X182011928Y-81950000D02*
X182024188Y-82074482D01*
X182060498Y-82194180D01*
X182119463Y-82304494D01*
X182198815Y-82401185D01*
X182295506Y-82480537D01*
X182405820Y-82539502D01*
X182415001Y-82542287D01*
X182415001Y-84125555D01*
X181341462Y-83052016D01*
X181341462Y-82543360D01*
X181354180Y-82539502D01*
X181464494Y-82480537D01*
X181561185Y-82401185D01*
X181640537Y-82304494D01*
X181699502Y-82194180D01*
X181735812Y-82074482D01*
X181748072Y-81950000D01*
X181748072Y-78685000D01*
X182011928Y-78685000D01*
X182011928Y-81950000D01*
G36*
X169311928Y-81950000D02*
G01*
X169324188Y-82074482D01*
X169360498Y-82194180D01*
X169362545Y-82198009D01*
X167481419Y-84079135D01*
X167301898Y-84004774D01*
X167129053Y-83970393D01*
X168404193Y-82695254D01*
X168432238Y-82672238D01*
X168509341Y-82578288D01*
X168534482Y-82575812D01*
X168654180Y-82539502D01*
X168764494Y-82480537D01*
X168861185Y-82401185D01*
X168940537Y-82304494D01*
X168999502Y-82194180D01*
X169035812Y-82074482D01*
X169048072Y-81950000D01*
X169048072Y-78685000D01*
X169311928Y-78685000D01*
X169311928Y-81950000D01*
X169311928Y-81950000D01*
G37*
X169311928Y-81950000D02*
X169324188Y-82074482D01*
X169360498Y-82194180D01*
X169362545Y-82198009D01*
X167481419Y-84079135D01*
X167301898Y-84004774D01*
X167129053Y-83970393D01*
X168404193Y-82695254D01*
X168432238Y-82672238D01*
X168509341Y-82578288D01*
X168534482Y-82575812D01*
X168654180Y-82539502D01*
X168764494Y-82480537D01*
X168861185Y-82401185D01*
X168940537Y-82304494D01*
X168999502Y-82194180D01*
X169035812Y-82074482D01*
X169048072Y-81950000D01*
X169048072Y-78685000D01*
X169311928Y-78685000D01*
X169311928Y-81950000D01*
G36*
X179471928Y-81950000D02*
G01*
X179484188Y-82074482D01*
X179520498Y-82194180D01*
X179579463Y-82304494D01*
X179658815Y-82401185D01*
X179755506Y-82480537D01*
X179865820Y-82539502D01*
X179871462Y-82541214D01*
X179871463Y-83320347D01*
X179867906Y-83356462D01*
X179882097Y-83500547D01*
X179904929Y-83575812D01*
X179922203Y-83632757D01*
X178823804Y-82534358D01*
X178924494Y-82480537D01*
X179021185Y-82401185D01*
X179100537Y-82304494D01*
X179159502Y-82194180D01*
X179195812Y-82074482D01*
X179208072Y-81950000D01*
X179208072Y-78685000D01*
X179471928Y-78685000D01*
X179471928Y-81950000D01*
X179471928Y-81950000D01*
G37*
X179471928Y-81950000D02*
X179484188Y-82074482D01*
X179520498Y-82194180D01*
X179579463Y-82304494D01*
X179658815Y-82401185D01*
X179755506Y-82480537D01*
X179865820Y-82539502D01*
X179871462Y-82541214D01*
X179871463Y-83320347D01*
X179867906Y-83356462D01*
X179882097Y-83500547D01*
X179904929Y-83575812D01*
X179922203Y-83632757D01*
X178823804Y-82534358D01*
X178924494Y-82480537D01*
X179021185Y-82401185D01*
X179100537Y-82304494D01*
X179159502Y-82194180D01*
X179195812Y-82074482D01*
X179208072Y-81950000D01*
X179208072Y-78685000D01*
X179471928Y-78685000D01*
X179471928Y-81950000D01*
G36*
X174391928Y-81950000D02*
G01*
X174404188Y-82074482D01*
X174440498Y-82194180D01*
X174499463Y-82304494D01*
X174578815Y-82401185D01*
X174675506Y-82480537D01*
X174785820Y-82539502D01*
X174795001Y-82542287D01*
X174795001Y-83005554D01*
X174046106Y-82256659D01*
X174079502Y-82194180D01*
X174115812Y-82074482D01*
X174128072Y-81950000D01*
X174128072Y-78685000D01*
X174391928Y-78685000D01*
X174391928Y-81950000D01*
X174391928Y-81950000D01*
G37*
X174391928Y-81950000D02*
X174404188Y-82074482D01*
X174440498Y-82194180D01*
X174499463Y-82304494D01*
X174578815Y-82401185D01*
X174675506Y-82480537D01*
X174785820Y-82539502D01*
X174795001Y-82542287D01*
X174795001Y-83005554D01*
X174046106Y-82256659D01*
X174079502Y-82194180D01*
X174115812Y-82074482D01*
X174128072Y-81950000D01*
X174128072Y-78685000D01*
X174391928Y-78685000D01*
X174391928Y-81950000D01*
G36*
X166771928Y-81950000D02*
G01*
X166784188Y-82074482D01*
X166820498Y-82194180D01*
X166822545Y-82198009D01*
X166105000Y-82915554D01*
X166105000Y-82542287D01*
X166114180Y-82539502D01*
X166224494Y-82480537D01*
X166321185Y-82401185D01*
X166400537Y-82304494D01*
X166459502Y-82194180D01*
X166495812Y-82074482D01*
X166508072Y-81950000D01*
X166508072Y-78685000D01*
X166771928Y-78685000D01*
X166771928Y-81950000D01*
X166771928Y-81950000D01*
G37*
X166771928Y-81950000D02*
X166784188Y-82074482D01*
X166820498Y-82194180D01*
X166822545Y-82198009D01*
X166105000Y-82915554D01*
X166105000Y-82542287D01*
X166114180Y-82539502D01*
X166224494Y-82480537D01*
X166321185Y-82401185D01*
X166400537Y-82304494D01*
X166459502Y-82194180D01*
X166495812Y-82074482D01*
X166508072Y-81950000D01*
X166508072Y-78685000D01*
X166771928Y-78685000D01*
X166771928Y-81950000D01*
G36*
X164231928Y-81812482D02*
G01*
X163968072Y-81548626D01*
X163968072Y-78685000D01*
X164231928Y-78685000D01*
X164231928Y-81812482D01*
X164231928Y-81812482D01*
G37*
X164231928Y-81812482D02*
X163968072Y-81548626D01*
X163968072Y-78685000D01*
X164231928Y-78685000D01*
X164231928Y-81812482D01*
M02*
