G04 #@! TF.GenerationSoftware,KiCad,Pcbnew,(5.1.4)-1*
G04 #@! TF.CreationDate,2019-10-10T18:52:02+02:00*
G04 #@! TF.ProjectId,SideRight,53696465-5269-4676-9874-2e6b69636164,rev?*
G04 #@! TF.SameCoordinates,Original*
G04 #@! TF.FileFunction,Soldermask,Bot*
G04 #@! TF.FilePolarity,Negative*
%FSLAX46Y46*%
G04 Gerber Fmt 4.6, Leading zero omitted, Abs format (unit mm)*
G04 Created by KiCad (PCBNEW (5.1.4)-1) date 2019-10-10 18:52:02*
%MOMM*%
%LPD*%
G04 APERTURE LIST*
%ADD10C,0.100000*%
G04 APERTURE END LIST*
D10*
G36*
X215059999Y-109999737D02*
G01*
X215069608Y-110002652D01*
X215078472Y-110007390D01*
X215086237Y-110013763D01*
X215092610Y-110021528D01*
X215097348Y-110030392D01*
X215100263Y-110040001D01*
X215101852Y-110056140D01*
X215101852Y-115043860D01*
X215100263Y-115059999D01*
X215097348Y-115069608D01*
X215092610Y-115078472D01*
X215086237Y-115086237D01*
X215078472Y-115092610D01*
X215069608Y-115097348D01*
X215059999Y-115100263D01*
X215043860Y-115101852D01*
X210056140Y-115101852D01*
X210040001Y-115100263D01*
X210030392Y-115097348D01*
X210021528Y-115092610D01*
X210013763Y-115086237D01*
X210007390Y-115078472D01*
X210002652Y-115069608D01*
X209999737Y-115059999D01*
X209998148Y-115043860D01*
X209998148Y-112556140D01*
X209999737Y-112540001D01*
X210002652Y-112530392D01*
X210007390Y-112521528D01*
X210013763Y-112513763D01*
X210021528Y-112507390D01*
X210030392Y-112502652D01*
X210040001Y-112499737D01*
X210056140Y-112498148D01*
X212373149Y-112498148D01*
X212397535Y-112495746D01*
X212420984Y-112488633D01*
X212442595Y-112477082D01*
X212461537Y-112461537D01*
X212477082Y-112442595D01*
X212488633Y-112420984D01*
X212495746Y-112397535D01*
X212498148Y-112373149D01*
X212498148Y-110056140D01*
X212499737Y-110040001D01*
X212502652Y-110030392D01*
X212507390Y-110021528D01*
X212513763Y-110013763D01*
X212521528Y-110007390D01*
X212530392Y-110002652D01*
X212540001Y-109999737D01*
X212556140Y-109998148D01*
X215043860Y-109998148D01*
X215059999Y-109999737D01*
X215059999Y-109999737D01*
G37*
G36*
X180001000Y-115101000D02*
G01*
X174899000Y-115101000D01*
X174899000Y-112499000D01*
X180001000Y-112499000D01*
X180001000Y-115101000D01*
X180001000Y-115101000D01*
G37*
G36*
X191422585Y-106248802D02*
G01*
X191572410Y-106278604D01*
X191854674Y-106395521D01*
X192108705Y-106565259D01*
X192324741Y-106781295D01*
X192494479Y-107035326D01*
X192611396Y-107317590D01*
X192671000Y-107617240D01*
X192671000Y-107922760D01*
X192611396Y-108222410D01*
X192494479Y-108504674D01*
X192324741Y-108758705D01*
X192108705Y-108974741D01*
X191854674Y-109144479D01*
X191572410Y-109261396D01*
X191422585Y-109291198D01*
X191272761Y-109321000D01*
X190967239Y-109321000D01*
X190817415Y-109291198D01*
X190667590Y-109261396D01*
X190385326Y-109144479D01*
X190131295Y-108974741D01*
X189915259Y-108758705D01*
X189745521Y-108504674D01*
X189628604Y-108222410D01*
X189569000Y-107922760D01*
X189569000Y-107617240D01*
X189628604Y-107317590D01*
X189745521Y-107035326D01*
X189915259Y-106781295D01*
X190131295Y-106565259D01*
X190385326Y-106395521D01*
X190667590Y-106278604D01*
X190817415Y-106248802D01*
X190967239Y-106219000D01*
X191272761Y-106219000D01*
X191422585Y-106248802D01*
X191422585Y-106248802D01*
G37*
G36*
X189941000Y-96811000D02*
G01*
X187839000Y-96811000D01*
X187839000Y-95709000D01*
X189941000Y-95709000D01*
X189941000Y-96811000D01*
X189941000Y-96811000D01*
G37*
G36*
X189941000Y-94291000D02*
G01*
X187839000Y-94291000D01*
X187839000Y-93189000D01*
X189941000Y-93189000D01*
X189941000Y-94291000D01*
X189941000Y-94291000D01*
G37*
G36*
X215059999Y-74899737D02*
G01*
X215069608Y-74902652D01*
X215078472Y-74907390D01*
X215086237Y-74913763D01*
X215092610Y-74921528D01*
X215097348Y-74930392D01*
X215100263Y-74940001D01*
X215101852Y-74956140D01*
X215101852Y-79943860D01*
X215100263Y-79959999D01*
X215097348Y-79969608D01*
X215092610Y-79978472D01*
X215086237Y-79986237D01*
X215078472Y-79992610D01*
X215069608Y-79997348D01*
X215059999Y-80000263D01*
X215043860Y-80001852D01*
X212556140Y-80001852D01*
X212540001Y-80000263D01*
X212530392Y-79997348D01*
X212521528Y-79992610D01*
X212513763Y-79986237D01*
X212507390Y-79978472D01*
X212502652Y-79969608D01*
X212499737Y-79959999D01*
X212498148Y-79943860D01*
X212498148Y-77626851D01*
X212495746Y-77602465D01*
X212488633Y-77579016D01*
X212477082Y-77557405D01*
X212461537Y-77538463D01*
X212442595Y-77522918D01*
X212420984Y-77511367D01*
X212397535Y-77504254D01*
X212373149Y-77501852D01*
X210056140Y-77501852D01*
X210040001Y-77500263D01*
X210030392Y-77497348D01*
X210021528Y-77492610D01*
X210013763Y-77486237D01*
X210007390Y-77478472D01*
X210002652Y-77469608D01*
X209999737Y-77459999D01*
X209998148Y-77443860D01*
X209998148Y-74956140D01*
X209999737Y-74940001D01*
X210002652Y-74930392D01*
X210007390Y-74921528D01*
X210013763Y-74913763D01*
X210021528Y-74907390D01*
X210030392Y-74902652D01*
X210040001Y-74899737D01*
X210056140Y-74898148D01*
X215043860Y-74898148D01*
X215059999Y-74899737D01*
X215059999Y-74899737D01*
G37*
G36*
X187001000Y-77501000D02*
G01*
X181899000Y-77501000D01*
X181899000Y-74899000D01*
X187001000Y-74899000D01*
X187001000Y-77501000D01*
X187001000Y-77501000D01*
G37*
G36*
X180001000Y-77501000D02*
G01*
X174899000Y-77501000D01*
X174899000Y-74899000D01*
X180001000Y-74899000D01*
X180001000Y-77501000D01*
X180001000Y-77501000D01*
G37*
M02*
