G04 #@! TF.GenerationSoftware,KiCad,Pcbnew,(5.1.4)-1*
G04 #@! TF.CreationDate,2019-10-10T18:56:39+02:00*
G04 #@! TF.ProjectId,SideLeft,53696465-4c65-4667-942e-6b696361645f,rev?*
G04 #@! TF.SameCoordinates,Original*
G04 #@! TF.FileFunction,Legend,Top*
G04 #@! TF.FilePolarity,Positive*
%FSLAX46Y46*%
G04 Gerber Fmt 4.6, Leading zero omitted, Abs format (unit mm)*
G04 Created by KiCad (PCBNEW (5.1.4)-1) date 2019-10-10 18:56:39*
%MOMM*%
%LPD*%
G04 APERTURE LIST*
%ADD10C,0.150000*%
G04 APERTURE END LIST*
D10*
X192023809Y-113857142D02*
X191976190Y-113904761D01*
X191833333Y-113952380D01*
X191738095Y-113952380D01*
X191595238Y-113904761D01*
X191500000Y-113809523D01*
X191452380Y-113714285D01*
X191404761Y-113523809D01*
X191404761Y-113380952D01*
X191452380Y-113190476D01*
X191500000Y-113095238D01*
X191595238Y-113000000D01*
X191738095Y-112952380D01*
X191833333Y-112952380D01*
X191976190Y-113000000D01*
X192023809Y-113047619D01*
X192880952Y-113285714D02*
X192880952Y-113952380D01*
X192452380Y-113285714D02*
X192452380Y-113809523D01*
X192500000Y-113904761D01*
X192595238Y-113952380D01*
X192738095Y-113952380D01*
X192833333Y-113904761D01*
X192880952Y-113857142D01*
X193357142Y-113952380D02*
X193357142Y-112952380D01*
X193357142Y-113333333D02*
X193452380Y-113285714D01*
X193642857Y-113285714D01*
X193738095Y-113333333D01*
X193785714Y-113380952D01*
X193833333Y-113476190D01*
X193833333Y-113761904D01*
X193785714Y-113857142D01*
X193738095Y-113904761D01*
X193642857Y-113952380D01*
X193452380Y-113952380D01*
X193357142Y-113904761D01*
X194166666Y-113285714D02*
X194404761Y-113952380D01*
X194642857Y-113285714D02*
X194404761Y-113952380D01*
X194309523Y-114190476D01*
X194261904Y-114238095D01*
X194166666Y-114285714D01*
X195642857Y-112952380D02*
X195976190Y-113952380D01*
X196309523Y-112952380D01*
X196833333Y-112952380D02*
X196928571Y-112952380D01*
X197023809Y-113000000D01*
X197071428Y-113047619D01*
X197119047Y-113142857D01*
X197166666Y-113333333D01*
X197166666Y-113571428D01*
X197119047Y-113761904D01*
X197071428Y-113857142D01*
X197023809Y-113904761D01*
X196928571Y-113952380D01*
X196833333Y-113952380D01*
X196738095Y-113904761D01*
X196690476Y-113857142D01*
X196642857Y-113761904D01*
X196595238Y-113571428D01*
X196595238Y-113333333D01*
X196642857Y-113142857D01*
X196690476Y-113047619D01*
X196738095Y-113000000D01*
X196833333Y-112952380D01*
X197595238Y-113857142D02*
X197642857Y-113904761D01*
X197595238Y-113952380D01*
X197547619Y-113904761D01*
X197595238Y-113857142D01*
X197595238Y-113952380D01*
X198595238Y-113952380D02*
X198023809Y-113952380D01*
X198309523Y-113952380D02*
X198309523Y-112952380D01*
X198214285Y-113095238D01*
X198119047Y-113190476D01*
X198023809Y-113238095D01*
M02*
