G04 #@! TF.GenerationSoftware,KiCad,Pcbnew,(5.1.4)-1*
G04 #@! TF.CreationDate,2019-10-10T18:56:39+02:00*
G04 #@! TF.ProjectId,SideLeft,53696465-4c65-4667-942e-6b696361645f,rev?*
G04 #@! TF.SameCoordinates,Original*
G04 #@! TF.FileFunction,Legend,Bot*
G04 #@! TF.FilePolarity,Positive*
%FSLAX46Y46*%
G04 Gerber Fmt 4.6, Leading zero omitted, Abs format (unit mm)*
G04 Created by KiCad (PCBNEW (5.1.4)-1) date 2019-10-10 18:56:39*
%MOMM*%
%LPD*%
G04 APERTURE LIST*
%ADD10C,0.010000*%
G04 APERTURE END LIST*
D10*
G36*
X214204770Y-114191624D02*
G01*
X214991197Y-113401914D01*
X214965098Y-112962107D01*
X214939000Y-112522301D01*
X213712428Y-113751817D01*
X212485857Y-114981333D01*
X213418344Y-114981333D01*
X214204770Y-114191624D01*
X214204770Y-114191624D01*
G37*
X214204770Y-114191624D02*
X214991197Y-113401914D01*
X214965098Y-112962107D01*
X214939000Y-112522301D01*
X213712428Y-113751817D01*
X212485857Y-114981333D01*
X213418344Y-114981333D01*
X214204770Y-114191624D01*
G36*
X212510339Y-112499334D02*
G01*
X214991269Y-110017335D01*
X214965134Y-109577121D01*
X214939000Y-109136907D01*
X209097920Y-114981333D01*
X210029410Y-114981333D01*
X212510339Y-112499334D01*
X212510339Y-112499334D01*
G37*
X212510339Y-112499334D02*
X214991269Y-110017335D01*
X214965134Y-109577121D01*
X214939000Y-109136907D01*
X209097920Y-114981333D01*
X210029410Y-114981333D01*
X212510339Y-112499334D01*
G36*
X210816796Y-110806207D02*
G01*
X214991283Y-106631080D01*
X214965142Y-106190829D01*
X214939000Y-105750577D01*
X205710916Y-114981333D01*
X206642308Y-114981333D01*
X210816796Y-110806207D01*
X210816796Y-110806207D01*
G37*
X210816796Y-110806207D02*
X214991283Y-106631080D01*
X214965142Y-106190829D01*
X214939000Y-105750577D01*
X205710916Y-114981333D01*
X206642308Y-114981333D01*
X210816796Y-110806207D01*
G36*
X209123373Y-109112961D02*
G01*
X214991290Y-103244589D01*
X214939000Y-102364067D01*
X208631546Y-108672700D01*
X202324093Y-114981333D01*
X203255457Y-114981333D01*
X209123373Y-109112961D01*
X209123373Y-109112961D01*
G37*
X209123373Y-109112961D02*
X214991290Y-103244589D01*
X214939000Y-102364067D01*
X208631546Y-108672700D01*
X202324093Y-114981333D01*
X203255457Y-114981333D01*
X209123373Y-109112961D01*
G36*
X207429990Y-107419677D02*
G01*
X214991293Y-99858020D01*
X214965146Y-99417755D01*
X214939000Y-98977490D01*
X206938168Y-106979412D01*
X198937336Y-114981333D01*
X199868688Y-114981333D01*
X207429990Y-107419677D01*
X207429990Y-107419677D01*
G37*
X207429990Y-107419677D02*
X214991293Y-99858020D01*
X214965146Y-99417755D01*
X214939000Y-98977490D01*
X206938168Y-106979412D01*
X198937336Y-114981333D01*
X199868688Y-114981333D01*
X207429990Y-107419677D01*
G36*
X205736626Y-105726375D02*
G01*
X214991295Y-96471416D01*
X214965147Y-96031149D01*
X214939000Y-95590882D01*
X205244805Y-105286108D01*
X195550610Y-114981333D01*
X196481956Y-114981333D01*
X205736626Y-105726375D01*
X205736626Y-105726375D01*
G37*
X205736626Y-105726375D02*
X214991295Y-96471416D01*
X214965147Y-96031149D01*
X214939000Y-95590882D01*
X205244805Y-105286108D01*
X195550610Y-114981333D01*
X196481956Y-114981333D01*
X205736626Y-105726375D01*
G36*
X185919637Y-105223363D02*
G01*
X186991467Y-104150712D01*
X188030356Y-103109476D01*
X189030014Y-102106030D01*
X189984147Y-101146752D01*
X190886464Y-100238020D01*
X191730672Y-99386209D01*
X192510480Y-98597697D01*
X193219594Y-97878861D01*
X193851723Y-97236078D01*
X194400574Y-96675725D01*
X194859855Y-96204178D01*
X195223274Y-95827815D01*
X195484539Y-95553012D01*
X195637358Y-95386147D01*
X195677333Y-95334297D01*
X195604143Y-95138829D01*
X195430443Y-95014483D01*
X195342765Y-95000000D01*
X195269583Y-95058920D01*
X195083142Y-95231536D01*
X194789740Y-95511628D01*
X194395679Y-95892978D01*
X193907258Y-96369368D01*
X193330776Y-96934580D01*
X192672535Y-97582394D01*
X191938835Y-98306594D01*
X191135974Y-99100959D01*
X190270253Y-99959273D01*
X189347973Y-100875316D01*
X188375433Y-101842870D01*
X187358932Y-102855717D01*
X186304772Y-103907638D01*
X185221000Y-104990667D01*
X175230602Y-114981333D01*
X176161941Y-114981333D01*
X185919637Y-105223363D01*
X185919637Y-105223363D01*
G37*
X185919637Y-105223363D02*
X186991467Y-104150712D01*
X188030356Y-103109476D01*
X189030014Y-102106030D01*
X189984147Y-101146752D01*
X190886464Y-100238020D01*
X191730672Y-99386209D01*
X192510480Y-98597697D01*
X193219594Y-97878861D01*
X193851723Y-97236078D01*
X194400574Y-96675725D01*
X194859855Y-96204178D01*
X195223274Y-95827815D01*
X195484539Y-95553012D01*
X195637358Y-95386147D01*
X195677333Y-95334297D01*
X195604143Y-95138829D01*
X195430443Y-95014483D01*
X195342765Y-95000000D01*
X195269583Y-95058920D01*
X195083142Y-95231536D01*
X194789740Y-95511628D01*
X194395679Y-95892978D01*
X193907258Y-96369368D01*
X193330776Y-96934580D01*
X192672535Y-97582394D01*
X191938835Y-98306594D01*
X191135974Y-99100959D01*
X190270253Y-99959273D01*
X189347973Y-100875316D01*
X188375433Y-101842870D01*
X187358932Y-102855717D01*
X186304772Y-103907638D01*
X185221000Y-104990667D01*
X175230602Y-114981333D01*
X176161941Y-114981333D01*
X185919637Y-105223363D01*
G36*
X204043271Y-104033063D02*
G01*
X214991297Y-93084792D01*
X214965148Y-92644524D01*
X214939000Y-92204257D01*
X203551451Y-103592795D01*
X192163903Y-114981333D01*
X193095245Y-114981333D01*
X204043271Y-104033063D01*
X204043271Y-104033063D01*
G37*
X204043271Y-104033063D02*
X214991297Y-93084792D01*
X214965148Y-92644524D01*
X214939000Y-92204257D01*
X203551451Y-103592795D01*
X192163903Y-114981333D01*
X193095245Y-114981333D01*
X204043271Y-104033063D01*
G36*
X175156731Y-102392000D02*
G01*
X175339120Y-102223056D01*
X175619077Y-101954420D01*
X175986084Y-101596678D01*
X176429625Y-101160415D01*
X176939183Y-100656216D01*
X177504242Y-100094668D01*
X178114285Y-99486354D01*
X178758796Y-98841862D01*
X179427257Y-98171775D01*
X180109152Y-97486680D01*
X180793964Y-96797162D01*
X181471178Y-96113807D01*
X182130276Y-95447198D01*
X182760742Y-94807924D01*
X183352058Y-94206567D01*
X183893709Y-93653714D01*
X184375178Y-93159951D01*
X184785948Y-92735863D01*
X185115503Y-92392034D01*
X185353326Y-92139051D01*
X185488900Y-91987499D01*
X185517333Y-91947511D01*
X185444140Y-91752142D01*
X185270421Y-91627835D01*
X185182633Y-91613333D01*
X185104017Y-91671914D01*
X184915045Y-91841792D01*
X184624742Y-92114172D01*
X184242133Y-92480259D01*
X183776243Y-92931259D01*
X183236095Y-93458376D01*
X182630714Y-94052816D01*
X181969126Y-94705784D01*
X181260353Y-95408484D01*
X180513423Y-96152121D01*
X180034900Y-96630098D01*
X175018667Y-101646863D01*
X175018667Y-102048765D01*
X175030715Y-102283176D01*
X175061365Y-102428003D01*
X175082425Y-102450667D01*
X175156731Y-102392000D01*
X175156731Y-102392000D01*
G37*
X175156731Y-102392000D02*
X175339120Y-102223056D01*
X175619077Y-101954420D01*
X175986084Y-101596678D01*
X176429625Y-101160415D01*
X176939183Y-100656216D01*
X177504242Y-100094668D01*
X178114285Y-99486354D01*
X178758796Y-98841862D01*
X179427257Y-98171775D01*
X180109152Y-97486680D01*
X180793964Y-96797162D01*
X181471178Y-96113807D01*
X182130276Y-95447198D01*
X182760742Y-94807924D01*
X183352058Y-94206567D01*
X183893709Y-93653714D01*
X184375178Y-93159951D01*
X184785948Y-92735863D01*
X185115503Y-92392034D01*
X185353326Y-92139051D01*
X185488900Y-91987499D01*
X185517333Y-91947511D01*
X185444140Y-91752142D01*
X185270421Y-91627835D01*
X185182633Y-91613333D01*
X185104017Y-91671914D01*
X184915045Y-91841792D01*
X184624742Y-92114172D01*
X184242133Y-92480259D01*
X183776243Y-92931259D01*
X183236095Y-93458376D01*
X182630714Y-94052816D01*
X181969126Y-94705784D01*
X181260353Y-95408484D01*
X180513423Y-96152121D01*
X180034900Y-96630098D01*
X175018667Y-101646863D01*
X175018667Y-102048765D01*
X175030715Y-102283176D01*
X175061365Y-102428003D01*
X175082425Y-102450667D01*
X175156731Y-102392000D01*
G36*
X214991298Y-89698157D02*
G01*
X214965149Y-89257889D01*
X214939000Y-88817620D01*
X201858103Y-101899477D01*
X188777205Y-114981333D01*
X189708546Y-114981333D01*
X214991298Y-89698157D01*
X214991298Y-89698157D01*
G37*
X214991298Y-89698157D02*
X214965149Y-89257889D01*
X214939000Y-88817620D01*
X201858103Y-101899477D01*
X188777205Y-114981333D01*
X189708546Y-114981333D01*
X214991298Y-89698157D01*
G36*
X200656576Y-100646424D02*
G01*
X214991299Y-86311515D01*
X214965149Y-85871246D01*
X214939000Y-85430977D01*
X200164757Y-100206155D01*
X185390515Y-114981333D01*
X186321854Y-114981333D01*
X200656576Y-100646424D01*
X200656576Y-100646424D01*
G37*
X200656576Y-100646424D02*
X214991299Y-86311515D01*
X214965149Y-85871246D01*
X214939000Y-85430977D01*
X200164757Y-100206155D01*
X185390515Y-114981333D01*
X186321854Y-114981333D01*
X200656576Y-100646424D01*
G36*
X214991299Y-82924867D02*
G01*
X214965150Y-82484598D01*
X214939000Y-82044329D01*
X182003830Y-114981333D01*
X182935167Y-114981333D01*
X214991299Y-82924867D01*
X214991299Y-82924867D01*
G37*
X214991299Y-82924867D02*
X214965150Y-82484598D01*
X214939000Y-82044329D01*
X182003830Y-114981333D01*
X182935167Y-114981333D01*
X214991299Y-82924867D01*
G36*
X175154831Y-95618570D02*
G01*
X175337054Y-95448394D01*
X175619902Y-95175980D01*
X175994246Y-94810501D01*
X176450958Y-94361130D01*
X176980910Y-93837042D01*
X177574973Y-93247409D01*
X178224018Y-92601405D01*
X178918916Y-91908204D01*
X179650541Y-91176979D01*
X180409762Y-90416904D01*
X181187451Y-89637152D01*
X181974481Y-88846896D01*
X182761721Y-88055311D01*
X183540045Y-87271569D01*
X184300322Y-86504844D01*
X185033426Y-85764310D01*
X185730226Y-85059140D01*
X186381596Y-84398508D01*
X186978406Y-83791587D01*
X187511527Y-83247551D01*
X187971832Y-82775573D01*
X188350191Y-82384826D01*
X188637476Y-82084485D01*
X188824559Y-81883723D01*
X188902311Y-81791712D01*
X188904000Y-81787573D01*
X188830808Y-81592153D01*
X188657099Y-81467825D01*
X188569367Y-81453333D01*
X188493272Y-81512068D01*
X188305450Y-81683208D01*
X188013645Y-81959156D01*
X187625601Y-82332318D01*
X187149064Y-82795097D01*
X186591777Y-83339896D01*
X185961484Y-83959120D01*
X185265931Y-84645172D01*
X184512862Y-85390458D01*
X183710020Y-86187379D01*
X182865151Y-87028341D01*
X181985999Y-87905747D01*
X181728300Y-88163365D01*
X175018667Y-94873397D01*
X175018667Y-95275365D01*
X175030702Y-95509799D01*
X175061317Y-95654653D01*
X175082361Y-95677333D01*
X175154831Y-95618570D01*
X175154831Y-95618570D01*
G37*
X175154831Y-95618570D02*
X175337054Y-95448394D01*
X175619902Y-95175980D01*
X175994246Y-94810501D01*
X176450958Y-94361130D01*
X176980910Y-93837042D01*
X177574973Y-93247409D01*
X178224018Y-92601405D01*
X178918916Y-91908204D01*
X179650541Y-91176979D01*
X180409762Y-90416904D01*
X181187451Y-89637152D01*
X181974481Y-88846896D01*
X182761721Y-88055311D01*
X183540045Y-87271569D01*
X184300322Y-86504844D01*
X185033426Y-85764310D01*
X185730226Y-85059140D01*
X186381596Y-84398508D01*
X186978406Y-83791587D01*
X187511527Y-83247551D01*
X187971832Y-82775573D01*
X188350191Y-82384826D01*
X188637476Y-82084485D01*
X188824559Y-81883723D01*
X188902311Y-81791712D01*
X188904000Y-81787573D01*
X188830808Y-81592153D01*
X188657099Y-81467825D01*
X188569367Y-81453333D01*
X188493272Y-81512068D01*
X188305450Y-81683208D01*
X188013645Y-81959156D01*
X187625601Y-82332318D01*
X187149064Y-82795097D01*
X186591777Y-83339896D01*
X185961484Y-83959120D01*
X185265931Y-84645172D01*
X184512862Y-85390458D01*
X183710020Y-86187379D01*
X182865151Y-87028341D01*
X181985999Y-87905747D01*
X181728300Y-88163365D01*
X175018667Y-94873397D01*
X175018667Y-95275365D01*
X175030702Y-95509799D01*
X175061317Y-95654653D01*
X175082361Y-95677333D01*
X175154831Y-95618570D01*
G36*
X175166587Y-85458881D02*
G01*
X175348789Y-85295673D01*
X175611624Y-85045932D01*
X175937207Y-84727882D01*
X176307654Y-84359746D01*
X176705078Y-83959747D01*
X177111595Y-83546109D01*
X177509320Y-83137055D01*
X177880366Y-82750807D01*
X178206850Y-82405590D01*
X178470885Y-82119627D01*
X178654586Y-81911141D01*
X178740069Y-81798354D01*
X178744000Y-81787045D01*
X178670794Y-81592060D01*
X178496988Y-81467908D01*
X178408752Y-81453333D01*
X178316162Y-81511176D01*
X178121813Y-81674319D01*
X177842529Y-81927184D01*
X177495134Y-82254193D01*
X177096452Y-82639767D01*
X176663309Y-83068328D01*
X176647686Y-83083961D01*
X175018667Y-84714588D01*
X175018667Y-85115961D01*
X175030821Y-85350193D01*
X175061736Y-85494808D01*
X175082905Y-85517333D01*
X175166587Y-85458881D01*
X175166587Y-85458881D01*
G37*
X175166587Y-85458881D02*
X175348789Y-85295673D01*
X175611624Y-85045932D01*
X175937207Y-84727882D01*
X176307654Y-84359746D01*
X176705078Y-83959747D01*
X177111595Y-83546109D01*
X177509320Y-83137055D01*
X177880366Y-82750807D01*
X178206850Y-82405590D01*
X178470885Y-82119627D01*
X178654586Y-81911141D01*
X178740069Y-81798354D01*
X178744000Y-81787045D01*
X178670794Y-81592060D01*
X178496988Y-81467908D01*
X178408752Y-81453333D01*
X178316162Y-81511176D01*
X178121813Y-81674319D01*
X177842529Y-81927184D01*
X177495134Y-82254193D01*
X177096452Y-82639767D01*
X176663309Y-83068328D01*
X176647686Y-83083961D01*
X175018667Y-84714588D01*
X175018667Y-85115961D01*
X175030821Y-85350193D01*
X175061736Y-85494808D01*
X175082905Y-85517333D01*
X175166587Y-85458881D01*
G36*
X198795939Y-92231843D02*
G01*
X198983094Y-92059985D01*
X199275696Y-91782017D01*
X199666709Y-91404861D01*
X200149098Y-90935441D01*
X200715829Y-90380678D01*
X201359865Y-89747495D01*
X202074172Y-89042816D01*
X202851714Y-88273563D01*
X203685456Y-87446659D01*
X204568364Y-86569026D01*
X205493401Y-85647588D01*
X206453533Y-84689267D01*
X206921980Y-84221021D01*
X214991294Y-76151375D01*
X214965147Y-75711105D01*
X214939000Y-75270836D01*
X206662833Y-83548079D01*
X205676842Y-84535130D01*
X204724339Y-85490481D01*
X203812157Y-86407187D01*
X202947133Y-87278305D01*
X202136099Y-88096891D01*
X201385892Y-88856002D01*
X200703344Y-89548694D01*
X200095290Y-90168025D01*
X199568566Y-90707049D01*
X199130005Y-91158823D01*
X198786442Y-91516405D01*
X198544712Y-91772849D01*
X198411648Y-91921214D01*
X198386667Y-91956395D01*
X198459858Y-92151842D01*
X198633563Y-92276181D01*
X198721266Y-92290667D01*
X198795939Y-92231843D01*
X198795939Y-92231843D01*
G37*
X198795939Y-92231843D02*
X198983094Y-92059985D01*
X199275696Y-91782017D01*
X199666709Y-91404861D01*
X200149098Y-90935441D01*
X200715829Y-90380678D01*
X201359865Y-89747495D01*
X202074172Y-89042816D01*
X202851714Y-88273563D01*
X203685456Y-87446659D01*
X204568364Y-86569026D01*
X205493401Y-85647588D01*
X206453533Y-84689267D01*
X206921980Y-84221021D01*
X214991294Y-76151375D01*
X214965147Y-75711105D01*
X214939000Y-75270836D01*
X206662833Y-83548079D01*
X205676842Y-84535130D01*
X204724339Y-85490481D01*
X203812157Y-86407187D01*
X202947133Y-87278305D01*
X202136099Y-88096891D01*
X201385892Y-88856002D01*
X200703344Y-89548694D01*
X200095290Y-90168025D01*
X199568566Y-90707049D01*
X199130005Y-91158823D01*
X198786442Y-91516405D01*
X198544712Y-91772849D01*
X198411648Y-91921214D01*
X198386667Y-91956395D01*
X198459858Y-92151842D01*
X198633563Y-92276181D01*
X198721266Y-92290667D01*
X198795939Y-92231843D01*
G36*
X197264909Y-97264758D02*
G01*
X214981333Y-79548182D01*
X214981333Y-78617331D01*
X206853404Y-86744929D01*
X198725475Y-94872528D01*
X197265137Y-93412190D01*
X195804799Y-91951853D01*
X204207733Y-83548601D01*
X205200937Y-82554916D01*
X206160738Y-81593783D01*
X207080361Y-80672029D01*
X207953033Y-79796477D01*
X208771980Y-78973954D01*
X209530427Y-78211284D01*
X210221602Y-77515292D01*
X210838730Y-76892804D01*
X211375038Y-76350644D01*
X211823752Y-75895638D01*
X212178097Y-75534611D01*
X212431301Y-75274388D01*
X212576589Y-75121795D01*
X212610667Y-75082008D01*
X212534711Y-75045077D01*
X212341483Y-75022250D01*
X212208427Y-75018667D01*
X211806187Y-75018667D01*
X175018667Y-111806479D01*
X175018667Y-112208573D01*
X175030636Y-112443050D01*
X175061086Y-112587954D01*
X175082034Y-112610667D01*
X175147757Y-112551787D01*
X175326918Y-112379267D01*
X175613298Y-112099286D01*
X176000681Y-111718021D01*
X176482849Y-111241651D01*
X177053585Y-110676355D01*
X177706671Y-110028310D01*
X178435890Y-109303696D01*
X179235024Y-108508692D01*
X180097857Y-107649474D01*
X181018171Y-106732222D01*
X181989748Y-105763115D01*
X183006371Y-104748331D01*
X184061823Y-103694047D01*
X185149885Y-102606443D01*
X185241947Y-102514387D01*
X195338493Y-92418106D01*
X196798858Y-93878472D01*
X198259223Y-95338837D01*
X188438248Y-105160085D01*
X178617274Y-114981333D01*
X179548485Y-114981333D01*
X197264909Y-97264758D01*
X197264909Y-97264758D01*
G37*
X197264909Y-97264758D02*
X214981333Y-79548182D01*
X214981333Y-78617331D01*
X206853404Y-86744929D01*
X198725475Y-94872528D01*
X197265137Y-93412190D01*
X195804799Y-91951853D01*
X204207733Y-83548601D01*
X205200937Y-82554916D01*
X206160738Y-81593783D01*
X207080361Y-80672029D01*
X207953033Y-79796477D01*
X208771980Y-78973954D01*
X209530427Y-78211284D01*
X210221602Y-77515292D01*
X210838730Y-76892804D01*
X211375038Y-76350644D01*
X211823752Y-75895638D01*
X212178097Y-75534611D01*
X212431301Y-75274388D01*
X212576589Y-75121795D01*
X212610667Y-75082008D01*
X212534711Y-75045077D01*
X212341483Y-75022250D01*
X212208427Y-75018667D01*
X211806187Y-75018667D01*
X175018667Y-111806479D01*
X175018667Y-112208573D01*
X175030636Y-112443050D01*
X175061086Y-112587954D01*
X175082034Y-112610667D01*
X175147757Y-112551787D01*
X175326918Y-112379267D01*
X175613298Y-112099286D01*
X176000681Y-111718021D01*
X176482849Y-111241651D01*
X177053585Y-110676355D01*
X177706671Y-110028310D01*
X178435890Y-109303696D01*
X179235024Y-108508692D01*
X180097857Y-107649474D01*
X181018171Y-106732222D01*
X181989748Y-105763115D01*
X183006371Y-104748331D01*
X184061823Y-103694047D01*
X185149885Y-102606443D01*
X185241947Y-102514387D01*
X195338493Y-92418106D01*
X196798858Y-93878472D01*
X198259223Y-95338837D01*
X188438248Y-105160085D01*
X178617274Y-114981333D01*
X179548485Y-114981333D01*
X197264909Y-97264758D01*
G36*
X175147107Y-109165025D02*
G01*
X175325759Y-108991968D01*
X175612401Y-108710627D01*
X176001232Y-108326805D01*
X176486453Y-107846300D01*
X177062263Y-107274914D01*
X177722861Y-106618446D01*
X178462449Y-105882696D01*
X179275225Y-105073465D01*
X180155389Y-104196554D01*
X181097142Y-103257762D01*
X182094682Y-102262889D01*
X183142210Y-101217737D01*
X184233925Y-100128104D01*
X185364027Y-98999792D01*
X186526717Y-97838601D01*
X187716193Y-96650330D01*
X188926656Y-95440780D01*
X190152305Y-94215752D01*
X191387341Y-92981045D01*
X192625962Y-91742460D01*
X193862369Y-90505797D01*
X195090761Y-89276856D01*
X196305338Y-88061438D01*
X197500301Y-86865343D01*
X198669849Y-85694371D01*
X199808181Y-84554322D01*
X200909497Y-83450996D01*
X201967998Y-82390195D01*
X202977882Y-81377717D01*
X203933350Y-80419364D01*
X204828602Y-79520935D01*
X205657837Y-78688230D01*
X206415255Y-77927051D01*
X207095056Y-77243197D01*
X207691440Y-76642469D01*
X208198606Y-76130666D01*
X208610754Y-75713589D01*
X208922085Y-75397038D01*
X209126797Y-75186814D01*
X209219090Y-75088717D01*
X209224000Y-75082088D01*
X209148045Y-75045111D01*
X208954816Y-75022254D01*
X208821753Y-75018667D01*
X208419506Y-75018667D01*
X191719086Y-91719247D01*
X175018667Y-108419827D01*
X175018667Y-108821914D01*
X175030676Y-109056388D01*
X175061228Y-109201288D01*
X175082245Y-109224000D01*
X175147107Y-109165025D01*
X175147107Y-109165025D01*
G37*
X175147107Y-109165025D02*
X175325759Y-108991968D01*
X175612401Y-108710627D01*
X176001232Y-108326805D01*
X176486453Y-107846300D01*
X177062263Y-107274914D01*
X177722861Y-106618446D01*
X178462449Y-105882696D01*
X179275225Y-105073465D01*
X180155389Y-104196554D01*
X181097142Y-103257762D01*
X182094682Y-102262889D01*
X183142210Y-101217737D01*
X184233925Y-100128104D01*
X185364027Y-98999792D01*
X186526717Y-97838601D01*
X187716193Y-96650330D01*
X188926656Y-95440780D01*
X190152305Y-94215752D01*
X191387341Y-92981045D01*
X192625962Y-91742460D01*
X193862369Y-90505797D01*
X195090761Y-89276856D01*
X196305338Y-88061438D01*
X197500301Y-86865343D01*
X198669849Y-85694371D01*
X199808181Y-84554322D01*
X200909497Y-83450996D01*
X201967998Y-82390195D01*
X202977882Y-81377717D01*
X203933350Y-80419364D01*
X204828602Y-79520935D01*
X205657837Y-78688230D01*
X206415255Y-77927051D01*
X207095056Y-77243197D01*
X207691440Y-76642469D01*
X208198606Y-76130666D01*
X208610754Y-75713589D01*
X208922085Y-75397038D01*
X209126797Y-75186814D01*
X209219090Y-75088717D01*
X209224000Y-75082088D01*
X209148045Y-75045111D01*
X208954816Y-75022254D01*
X208821753Y-75018667D01*
X208419506Y-75018667D01*
X191719086Y-91719247D01*
X175018667Y-108419827D01*
X175018667Y-108821914D01*
X175030676Y-109056388D01*
X175061228Y-109201288D01*
X175082245Y-109224000D01*
X175147107Y-109165025D01*
G36*
X188634119Y-88845523D02*
G01*
X188817235Y-88676177D01*
X189101470Y-88405091D01*
X189477649Y-88041394D01*
X189936599Y-87594215D01*
X190469148Y-87072682D01*
X191066122Y-86485924D01*
X191718348Y-85843071D01*
X192416653Y-85153250D01*
X193151863Y-84425591D01*
X193914804Y-83669222D01*
X194696305Y-82893272D01*
X195487192Y-82106870D01*
X196278290Y-81319144D01*
X197060428Y-80539224D01*
X197824431Y-79776238D01*
X198561127Y-79039316D01*
X199261343Y-78337584D01*
X199915904Y-77680174D01*
X200515638Y-77076213D01*
X201051372Y-76534829D01*
X201513932Y-76065153D01*
X201894145Y-75676312D01*
X202182838Y-75377436D01*
X202370837Y-75177653D01*
X202448970Y-75086092D01*
X202450667Y-75081973D01*
X202374710Y-75045067D01*
X202181472Y-75022252D01*
X202048300Y-75018667D01*
X201645934Y-75018667D01*
X194936300Y-81728699D01*
X194049888Y-82616310D01*
X193197737Y-83471854D01*
X192387441Y-84287586D01*
X191626598Y-85055762D01*
X190922802Y-85768637D01*
X190283649Y-86418467D01*
X189716735Y-86997507D01*
X189229654Y-87498013D01*
X188830004Y-87912242D01*
X188525378Y-88232448D01*
X188323374Y-88450887D01*
X188231585Y-88559815D01*
X188226667Y-88569765D01*
X188299858Y-88765181D01*
X188473564Y-88889508D01*
X188561295Y-88904000D01*
X188634119Y-88845523D01*
X188634119Y-88845523D01*
G37*
X188634119Y-88845523D02*
X188817235Y-88676177D01*
X189101470Y-88405091D01*
X189477649Y-88041394D01*
X189936599Y-87594215D01*
X190469148Y-87072682D01*
X191066122Y-86485924D01*
X191718348Y-85843071D01*
X192416653Y-85153250D01*
X193151863Y-84425591D01*
X193914804Y-83669222D01*
X194696305Y-82893272D01*
X195487192Y-82106870D01*
X196278290Y-81319144D01*
X197060428Y-80539224D01*
X197824431Y-79776238D01*
X198561127Y-79039316D01*
X199261343Y-78337584D01*
X199915904Y-77680174D01*
X200515638Y-77076213D01*
X201051372Y-76534829D01*
X201513932Y-76065153D01*
X201894145Y-75676312D01*
X202182838Y-75377436D01*
X202370837Y-75177653D01*
X202448970Y-75086092D01*
X202450667Y-75081973D01*
X202374710Y-75045067D01*
X202181472Y-75022252D01*
X202048300Y-75018667D01*
X201645934Y-75018667D01*
X194936300Y-81728699D01*
X194049888Y-82616310D01*
X193197737Y-83471854D01*
X192387441Y-84287586D01*
X191626598Y-85055762D01*
X190922802Y-85768637D01*
X190283649Y-86418467D01*
X189716735Y-86997507D01*
X189229654Y-87498013D01*
X188830004Y-87912242D01*
X188525378Y-88232448D01*
X188323374Y-88450887D01*
X188231585Y-88559815D01*
X188226667Y-88569765D01*
X188299858Y-88765181D01*
X188473564Y-88889508D01*
X188561295Y-88904000D01*
X188634119Y-88845523D01*
G36*
X192033740Y-78686608D02*
G01*
X192219317Y-78526360D01*
X192487021Y-78281150D01*
X192818634Y-77968870D01*
X193195941Y-77607413D01*
X193600723Y-77214673D01*
X194014765Y-76808541D01*
X194419850Y-76406911D01*
X194797761Y-76027676D01*
X195130282Y-75688728D01*
X195399195Y-75407961D01*
X195586285Y-75203268D01*
X195673334Y-75092541D01*
X195677333Y-75081445D01*
X195601369Y-75044870D01*
X195408083Y-75022241D01*
X195274352Y-75018667D01*
X194871371Y-75018667D01*
X193242352Y-76649294D01*
X192813010Y-77083687D01*
X192426061Y-77484067D01*
X192097066Y-77833613D01*
X191841585Y-78115502D01*
X191675179Y-78312913D01*
X191613409Y-78409024D01*
X191613333Y-78410361D01*
X191686532Y-78605270D01*
X191860288Y-78729418D01*
X191948505Y-78744000D01*
X192033740Y-78686608D01*
X192033740Y-78686608D01*
G37*
X192033740Y-78686608D02*
X192219317Y-78526360D01*
X192487021Y-78281150D01*
X192818634Y-77968870D01*
X193195941Y-77607413D01*
X193600723Y-77214673D01*
X194014765Y-76808541D01*
X194419850Y-76406911D01*
X194797761Y-76027676D01*
X195130282Y-75688728D01*
X195399195Y-75407961D01*
X195586285Y-75203268D01*
X195673334Y-75092541D01*
X195677333Y-75081445D01*
X195601369Y-75044870D01*
X195408083Y-75022241D01*
X195274352Y-75018667D01*
X194871371Y-75018667D01*
X193242352Y-76649294D01*
X192813010Y-77083687D01*
X192426061Y-77484067D01*
X192097066Y-77833613D01*
X191841585Y-78115502D01*
X191675179Y-78312913D01*
X191613409Y-78409024D01*
X191613333Y-78410361D01*
X191686532Y-78605270D01*
X191860288Y-78729418D01*
X191948505Y-78744000D01*
X192033740Y-78686608D01*
G36*
X175147380Y-105778403D02*
G01*
X175325968Y-105605685D01*
X175611905Y-105325293D01*
X175999079Y-104943339D01*
X176481377Y-104465936D01*
X177052687Y-103899196D01*
X177706896Y-103249232D01*
X178437891Y-102522156D01*
X179239561Y-101724081D01*
X180105793Y-100861119D01*
X181030475Y-99939382D01*
X182007493Y-98964984D01*
X183030736Y-97944036D01*
X184094091Y-96882652D01*
X185191445Y-95786943D01*
X186316687Y-94663022D01*
X187463703Y-93517002D01*
X188626382Y-92354994D01*
X189798610Y-91183113D01*
X190974276Y-90007469D01*
X192147266Y-88834177D01*
X193311469Y-87669347D01*
X194460772Y-86519092D01*
X195589062Y-85389526D01*
X196690228Y-84286761D01*
X197758155Y-83216908D01*
X198786734Y-82186081D01*
X199769849Y-81200392D01*
X200701390Y-80265953D01*
X201575244Y-79388878D01*
X202385298Y-78575278D01*
X203125439Y-77831266D01*
X203789556Y-77162954D01*
X204371536Y-76576455D01*
X204865267Y-76077882D01*
X205264635Y-75673347D01*
X205563529Y-75368962D01*
X205755836Y-75170841D01*
X205835444Y-75085094D01*
X205837333Y-75082080D01*
X205761381Y-75045098D01*
X205568171Y-75022246D01*
X205435328Y-75018667D01*
X205033324Y-75018667D01*
X196799400Y-83252265D01*
X188565477Y-91485864D01*
X187105158Y-90025545D01*
X185644840Y-88565226D01*
X192354420Y-81855248D01*
X193240340Y-80968722D01*
X194092043Y-80115356D01*
X194901944Y-79302806D01*
X195662462Y-78538726D01*
X196366013Y-77830772D01*
X197005015Y-77186598D01*
X197571884Y-76613859D01*
X198059039Y-76120209D01*
X198458896Y-75713305D01*
X198763872Y-75400799D01*
X198966384Y-75190347D01*
X199058850Y-75089605D01*
X199064000Y-75081968D01*
X198988050Y-75045041D01*
X198794859Y-75022231D01*
X198662251Y-75018667D01*
X198260502Y-75018667D01*
X195106193Y-78172135D01*
X191951883Y-81325603D01*
X189032121Y-78405841D01*
X190661394Y-76774960D01*
X191089823Y-76343894D01*
X191476091Y-75950999D01*
X191804747Y-75612338D01*
X192060338Y-75343972D01*
X192227412Y-75161963D01*
X192290518Y-75082373D01*
X192290667Y-75081373D01*
X192214709Y-75044815D01*
X192021473Y-75022216D01*
X191888337Y-75018667D01*
X191486008Y-75018667D01*
X183252337Y-83252662D01*
X175018667Y-91486657D01*
X175018667Y-91888662D01*
X175030626Y-92123109D01*
X175061050Y-92267977D01*
X175081968Y-92290667D01*
X175148995Y-92232001D01*
X175327982Y-92061060D01*
X175611274Y-91785425D01*
X175991217Y-91412680D01*
X176460154Y-90950408D01*
X177010432Y-90406190D01*
X177634396Y-89787611D01*
X178324391Y-89102253D01*
X179072762Y-88357699D01*
X179871854Y-87561531D01*
X180714013Y-86721333D01*
X181591583Y-85844687D01*
X181855248Y-85581087D01*
X188565226Y-78871507D01*
X190025545Y-80331825D01*
X191485864Y-81792144D01*
X183252265Y-90026067D01*
X175018667Y-98259991D01*
X175018667Y-98661995D01*
X175030614Y-98896443D01*
X175061006Y-99041310D01*
X175081902Y-99064000D01*
X175150026Y-99005513D01*
X175328839Y-98835903D01*
X175609455Y-98563942D01*
X175982990Y-98198405D01*
X176440557Y-97748067D01*
X176973270Y-97221701D01*
X177572245Y-96628082D01*
X178228595Y-95975984D01*
X178933434Y-95274181D01*
X179677878Y-94531446D01*
X180161882Y-94047787D01*
X185178627Y-89031574D01*
X188099155Y-91952102D01*
X181558911Y-98492755D01*
X175018667Y-105033407D01*
X175018667Y-105435370D01*
X175030682Y-105669803D01*
X175061245Y-105814654D01*
X175082254Y-105837333D01*
X175147380Y-105778403D01*
X175147380Y-105778403D01*
G37*
X175147380Y-105778403D02*
X175325968Y-105605685D01*
X175611905Y-105325293D01*
X175999079Y-104943339D01*
X176481377Y-104465936D01*
X177052687Y-103899196D01*
X177706896Y-103249232D01*
X178437891Y-102522156D01*
X179239561Y-101724081D01*
X180105793Y-100861119D01*
X181030475Y-99939382D01*
X182007493Y-98964984D01*
X183030736Y-97944036D01*
X184094091Y-96882652D01*
X185191445Y-95786943D01*
X186316687Y-94663022D01*
X187463703Y-93517002D01*
X188626382Y-92354994D01*
X189798610Y-91183113D01*
X190974276Y-90007469D01*
X192147266Y-88834177D01*
X193311469Y-87669347D01*
X194460772Y-86519092D01*
X195589062Y-85389526D01*
X196690228Y-84286761D01*
X197758155Y-83216908D01*
X198786734Y-82186081D01*
X199769849Y-81200392D01*
X200701390Y-80265953D01*
X201575244Y-79388878D01*
X202385298Y-78575278D01*
X203125439Y-77831266D01*
X203789556Y-77162954D01*
X204371536Y-76576455D01*
X204865267Y-76077882D01*
X205264635Y-75673347D01*
X205563529Y-75368962D01*
X205755836Y-75170841D01*
X205835444Y-75085094D01*
X205837333Y-75082080D01*
X205761381Y-75045098D01*
X205568171Y-75022246D01*
X205435328Y-75018667D01*
X205033324Y-75018667D01*
X196799400Y-83252265D01*
X188565477Y-91485864D01*
X187105158Y-90025545D01*
X185644840Y-88565226D01*
X192354420Y-81855248D01*
X193240340Y-80968722D01*
X194092043Y-80115356D01*
X194901944Y-79302806D01*
X195662462Y-78538726D01*
X196366013Y-77830772D01*
X197005015Y-77186598D01*
X197571884Y-76613859D01*
X198059039Y-76120209D01*
X198458896Y-75713305D01*
X198763872Y-75400799D01*
X198966384Y-75190347D01*
X199058850Y-75089605D01*
X199064000Y-75081968D01*
X198988050Y-75045041D01*
X198794859Y-75022231D01*
X198662251Y-75018667D01*
X198260502Y-75018667D01*
X195106193Y-78172135D01*
X191951883Y-81325603D01*
X189032121Y-78405841D01*
X190661394Y-76774960D01*
X191089823Y-76343894D01*
X191476091Y-75950999D01*
X191804747Y-75612338D01*
X192060338Y-75343972D01*
X192227412Y-75161963D01*
X192290518Y-75082373D01*
X192290667Y-75081373D01*
X192214709Y-75044815D01*
X192021473Y-75022216D01*
X191888337Y-75018667D01*
X191486008Y-75018667D01*
X183252337Y-83252662D01*
X175018667Y-91486657D01*
X175018667Y-91888662D01*
X175030626Y-92123109D01*
X175061050Y-92267977D01*
X175081968Y-92290667D01*
X175148995Y-92232001D01*
X175327982Y-92061060D01*
X175611274Y-91785425D01*
X175991217Y-91412680D01*
X176460154Y-90950408D01*
X177010432Y-90406190D01*
X177634396Y-89787611D01*
X178324391Y-89102253D01*
X179072762Y-88357699D01*
X179871854Y-87561531D01*
X180714013Y-86721333D01*
X181591583Y-85844687D01*
X181855248Y-85581087D01*
X188565226Y-78871507D01*
X190025545Y-80331825D01*
X191485864Y-81792144D01*
X183252265Y-90026067D01*
X175018667Y-98259991D01*
X175018667Y-98661995D01*
X175030614Y-98896443D01*
X175061006Y-99041310D01*
X175081902Y-99064000D01*
X175150026Y-99005513D01*
X175328839Y-98835903D01*
X175609455Y-98563942D01*
X175982990Y-98198405D01*
X176440557Y-97748067D01*
X176973270Y-97221701D01*
X177572245Y-96628082D01*
X178228595Y-95975984D01*
X178933434Y-95274181D01*
X179677878Y-94531446D01*
X180161882Y-94047787D01*
X185178627Y-89031574D01*
X188099155Y-91952102D01*
X181558911Y-98492755D01*
X175018667Y-105033407D01*
X175018667Y-105435370D01*
X175030682Y-105669803D01*
X175061245Y-105814654D01*
X175082254Y-105837333D01*
X175147380Y-105778403D01*
G36*
X181873740Y-78686608D02*
G01*
X182059317Y-78526360D01*
X182327021Y-78281150D01*
X182658634Y-77968870D01*
X183035941Y-77607413D01*
X183440723Y-77214673D01*
X183854765Y-76808541D01*
X184259850Y-76406911D01*
X184637761Y-76027676D01*
X184970282Y-75688728D01*
X185239195Y-75407961D01*
X185426285Y-75203268D01*
X185513334Y-75092541D01*
X185517333Y-75081445D01*
X185441369Y-75044870D01*
X185248083Y-75022241D01*
X185114352Y-75018667D01*
X184711371Y-75018667D01*
X183082352Y-76649294D01*
X182653010Y-77083687D01*
X182266061Y-77484067D01*
X181937066Y-77833613D01*
X181681585Y-78115502D01*
X181515179Y-78312913D01*
X181453409Y-78409024D01*
X181453333Y-78410361D01*
X181526532Y-78605270D01*
X181700288Y-78729418D01*
X181788505Y-78744000D01*
X181873740Y-78686608D01*
X181873740Y-78686608D01*
G37*
X181873740Y-78686608D02*
X182059317Y-78526360D01*
X182327021Y-78281150D01*
X182658634Y-77968870D01*
X183035941Y-77607413D01*
X183440723Y-77214673D01*
X183854765Y-76808541D01*
X184259850Y-76406911D01*
X184637761Y-76027676D01*
X184970282Y-75688728D01*
X185239195Y-75407961D01*
X185426285Y-75203268D01*
X185513334Y-75092541D01*
X185517333Y-75081445D01*
X185441369Y-75044870D01*
X185248083Y-75022241D01*
X185114352Y-75018667D01*
X184711371Y-75018667D01*
X183082352Y-76649294D01*
X182653010Y-77083687D01*
X182266061Y-77484067D01*
X181937066Y-77833613D01*
X181681585Y-78115502D01*
X181515179Y-78312913D01*
X181453409Y-78409024D01*
X181453333Y-78410361D01*
X181526532Y-78605270D01*
X181700288Y-78729418D01*
X181788505Y-78744000D01*
X181873740Y-78686608D01*
G36*
X175150031Y-88845473D02*
G01*
X175327932Y-88675986D01*
X175606923Y-88404680D01*
X175977865Y-88040695D01*
X176431616Y-87593173D01*
X176959036Y-87071253D01*
X177550985Y-86484077D01*
X178198323Y-85840785D01*
X178891908Y-85150519D01*
X179622601Y-84422418D01*
X180381260Y-83665624D01*
X181158746Y-82889277D01*
X181945917Y-82102519D01*
X182733634Y-81314489D01*
X183512756Y-80534329D01*
X184274142Y-79771179D01*
X185008652Y-79034180D01*
X185707146Y-78332473D01*
X186360482Y-77675198D01*
X186959521Y-77071497D01*
X187495122Y-76530509D01*
X187958145Y-76061377D01*
X188339448Y-75673240D01*
X188629892Y-75375239D01*
X188820336Y-75176514D01*
X188901640Y-75086208D01*
X188904000Y-75081973D01*
X188828050Y-75045043D01*
X188634859Y-75022232D01*
X188502251Y-75018667D01*
X188100502Y-75018667D01*
X184946193Y-78172135D01*
X181791883Y-81325603D01*
X178872121Y-78405841D01*
X180501394Y-76774960D01*
X180929823Y-76343894D01*
X181316091Y-75950999D01*
X181644747Y-75612338D01*
X181900338Y-75343972D01*
X182067412Y-75161963D01*
X182130518Y-75082373D01*
X182130667Y-75081373D01*
X182054706Y-75044825D01*
X181861450Y-75022225D01*
X181728076Y-75018667D01*
X181325486Y-75018667D01*
X178172076Y-78172918D01*
X175018667Y-81327169D01*
X175018667Y-81728918D01*
X175030521Y-81963280D01*
X175060675Y-82108045D01*
X175081372Y-82130667D01*
X175155438Y-82073147D01*
X175332723Y-81910888D01*
X175597166Y-81659343D01*
X175932704Y-81333963D01*
X176323276Y-80950200D01*
X176752820Y-80523506D01*
X176774960Y-80501394D01*
X178405841Y-78872121D01*
X179865722Y-80332002D01*
X181325603Y-81791884D01*
X175018667Y-88100502D01*
X175018667Y-88502251D01*
X175030708Y-88736611D01*
X175061337Y-88881377D01*
X175082361Y-88904000D01*
X175150031Y-88845473D01*
X175150031Y-88845473D01*
G37*
X175150031Y-88845473D02*
X175327932Y-88675986D01*
X175606923Y-88404680D01*
X175977865Y-88040695D01*
X176431616Y-87593173D01*
X176959036Y-87071253D01*
X177550985Y-86484077D01*
X178198323Y-85840785D01*
X178891908Y-85150519D01*
X179622601Y-84422418D01*
X180381260Y-83665624D01*
X181158746Y-82889277D01*
X181945917Y-82102519D01*
X182733634Y-81314489D01*
X183512756Y-80534329D01*
X184274142Y-79771179D01*
X185008652Y-79034180D01*
X185707146Y-78332473D01*
X186360482Y-77675198D01*
X186959521Y-77071497D01*
X187495122Y-76530509D01*
X187958145Y-76061377D01*
X188339448Y-75673240D01*
X188629892Y-75375239D01*
X188820336Y-75176514D01*
X188901640Y-75086208D01*
X188904000Y-75081973D01*
X188828050Y-75045043D01*
X188634859Y-75022232D01*
X188502251Y-75018667D01*
X188100502Y-75018667D01*
X184946193Y-78172135D01*
X181791883Y-81325603D01*
X178872121Y-78405841D01*
X180501394Y-76774960D01*
X180929823Y-76343894D01*
X181316091Y-75950999D01*
X181644747Y-75612338D01*
X181900338Y-75343972D01*
X182067412Y-75161963D01*
X182130518Y-75082373D01*
X182130667Y-75081373D01*
X182054706Y-75044825D01*
X181861450Y-75022225D01*
X181728076Y-75018667D01*
X181325486Y-75018667D01*
X178172076Y-78172918D01*
X175018667Y-81327169D01*
X175018667Y-81728918D01*
X175030521Y-81963280D01*
X175060675Y-82108045D01*
X175081372Y-82130667D01*
X175155438Y-82073147D01*
X175332723Y-81910888D01*
X175597166Y-81659343D01*
X175932704Y-81333963D01*
X176323276Y-80950200D01*
X176752820Y-80523506D01*
X176774960Y-80501394D01*
X178405841Y-78872121D01*
X179865722Y-80332002D01*
X181325603Y-81791884D01*
X175018667Y-88100502D01*
X175018667Y-88502251D01*
X175030708Y-88736611D01*
X175061337Y-88881377D01*
X175082361Y-88904000D01*
X175150031Y-88845473D01*
G36*
X175157756Y-78686420D02*
G01*
X175332925Y-78525671D01*
X175590431Y-78279743D01*
X175912292Y-77966624D01*
X176280528Y-77604303D01*
X176677156Y-77210768D01*
X177084196Y-76804007D01*
X177483666Y-76402010D01*
X177857584Y-76022764D01*
X178187969Y-75684259D01*
X178456840Y-75404483D01*
X178646216Y-75201424D01*
X178738114Y-75093072D01*
X178744000Y-75081445D01*
X178668035Y-75044874D01*
X178474742Y-75022244D01*
X178340926Y-75018667D01*
X177937852Y-75018667D01*
X176478259Y-76480049D01*
X175018667Y-77941432D01*
X175018667Y-78342716D01*
X175030824Y-78576918D01*
X175061744Y-78721497D01*
X175082905Y-78744000D01*
X175157756Y-78686420D01*
X175157756Y-78686420D01*
G37*
X175157756Y-78686420D02*
X175332925Y-78525671D01*
X175590431Y-78279743D01*
X175912292Y-77966624D01*
X176280528Y-77604303D01*
X176677156Y-77210768D01*
X177084196Y-76804007D01*
X177483666Y-76402010D01*
X177857584Y-76022764D01*
X178187969Y-75684259D01*
X178456840Y-75404483D01*
X178646216Y-75201424D01*
X178738114Y-75093072D01*
X178744000Y-75081445D01*
X178668035Y-75044874D01*
X178474742Y-75022244D01*
X178340926Y-75018667D01*
X177937852Y-75018667D01*
X176478259Y-76480049D01*
X175018667Y-77941432D01*
X175018667Y-78342716D01*
X175030824Y-78576918D01*
X175061744Y-78721497D01*
X175082905Y-78744000D01*
X175157756Y-78686420D01*
M02*
