G04 #@! TF.GenerationSoftware,KiCad,Pcbnew,(5.1.4)-1*
G04 #@! TF.CreationDate,2019-10-10T18:52:02+02:00*
G04 #@! TF.ProjectId,SideRight,53696465-5269-4676-9874-2e6b69636164,rev?*
G04 #@! TF.SameCoordinates,Original*
G04 #@! TF.FileFunction,Copper,L2,Bot*
G04 #@! TF.FilePolarity,Positive*
%FSLAX46Y46*%
G04 Gerber Fmt 4.6, Leading zero omitted, Abs format (unit mm)*
G04 Created by KiCad (PCBNEW (5.1.4)-1) date 2019-10-10 18:52:02*
%MOMM*%
%LPD*%
G04 APERTURE LIST*
%ADD10C,3.000000*%
%ADD11R,2.000000X1.000000*%
%ADD12R,5.000000X2.500000*%
%ADD13C,2.500000*%
%ADD14C,0.100000*%
%ADD15C,0.800000*%
%ADD16C,0.300000*%
%ADD17C,0.254000*%
G04 APERTURE END LIST*
D10*
X191120000Y-107770000D03*
D11*
X188890000Y-93740000D03*
X188890000Y-96260000D03*
D12*
X177450000Y-113800000D03*
X177450000Y-76200000D03*
D13*
X213800000Y-78700000D03*
D14*
G36*
X215050000Y-74950000D02*
G01*
X215050000Y-79950000D01*
X212550000Y-79950000D01*
X212550000Y-77450000D01*
X210050000Y-77450000D01*
X210050000Y-74950000D01*
X215050000Y-74950000D01*
X215050000Y-74950000D01*
G37*
D13*
X211300000Y-113800000D03*
D14*
G36*
X215050000Y-115050000D02*
G01*
X210050000Y-115050000D01*
X210050000Y-112550000D01*
X212550000Y-112550000D01*
X212550000Y-110050000D01*
X215050000Y-110050000D01*
X215050000Y-115050000D01*
X215050000Y-115050000D01*
G37*
D12*
X184450000Y-76200000D03*
D15*
X188890000Y-96260000D03*
X188890000Y-93740000D03*
X177450000Y-113800000D03*
X211300000Y-76200000D03*
X213800000Y-78700000D03*
X213800000Y-111300000D03*
X211300000Y-113800000D03*
X177450000Y-76200000D03*
D16*
X188890000Y-96260000D02*
X188890000Y-93740000D01*
X185700000Y-76200000D02*
X184450000Y-76200000D01*
X188890000Y-79390000D02*
X185700000Y-76200000D01*
X188890000Y-93740000D02*
X188890000Y-79390000D01*
X213800000Y-78700000D02*
X211370000Y-78700000D01*
X211300000Y-113800000D02*
X211300000Y-111430000D01*
D17*
G36*
X181311928Y-77450000D02*
G01*
X181324188Y-77574482D01*
X181360498Y-77694180D01*
X181419463Y-77804494D01*
X181498815Y-77901185D01*
X181595506Y-77980537D01*
X181705820Y-78039502D01*
X181825518Y-78075812D01*
X181950000Y-78088072D01*
X186477915Y-78088072D01*
X188105001Y-79715159D01*
X188105000Y-92601928D01*
X187890000Y-92601928D01*
X187765518Y-92614188D01*
X187645820Y-92650498D01*
X187535506Y-92709463D01*
X187438815Y-92788815D01*
X187359463Y-92885506D01*
X187300498Y-92995820D01*
X187264188Y-93115518D01*
X187251928Y-93240000D01*
X187251928Y-94240000D01*
X187264188Y-94364482D01*
X187300498Y-94484180D01*
X187359463Y-94594494D01*
X187438815Y-94691185D01*
X187535506Y-94770537D01*
X187645820Y-94829502D01*
X187765518Y-94865812D01*
X187890000Y-94878072D01*
X188105001Y-94878072D01*
X188105000Y-95121928D01*
X187890000Y-95121928D01*
X187765518Y-95134188D01*
X187645820Y-95170498D01*
X187535506Y-95229463D01*
X187438815Y-95308815D01*
X187359463Y-95405506D01*
X187300498Y-95515820D01*
X187264188Y-95635518D01*
X187251928Y-95760000D01*
X187251928Y-96760000D01*
X187264188Y-96884482D01*
X187300498Y-97004180D01*
X187359463Y-97114494D01*
X187438815Y-97211185D01*
X187535506Y-97290537D01*
X187645820Y-97349502D01*
X187765518Y-97385812D01*
X187890000Y-97398072D01*
X189890000Y-97398072D01*
X190014482Y-97385812D01*
X190134180Y-97349502D01*
X190244494Y-97290537D01*
X190341185Y-97211185D01*
X190420537Y-97114494D01*
X190479502Y-97004180D01*
X190515812Y-96884482D01*
X190528072Y-96760000D01*
X190528072Y-95760000D01*
X190515812Y-95635518D01*
X190479502Y-95515820D01*
X190420537Y-95405506D01*
X190341185Y-95308815D01*
X190244494Y-95229463D01*
X190134180Y-95170498D01*
X190014482Y-95134188D01*
X189890000Y-95121928D01*
X189675000Y-95121928D01*
X189675000Y-94878072D01*
X189890000Y-94878072D01*
X190014482Y-94865812D01*
X190134180Y-94829502D01*
X190244494Y-94770537D01*
X190341185Y-94691185D01*
X190420537Y-94594494D01*
X190479502Y-94484180D01*
X190515812Y-94364482D01*
X190528072Y-94240000D01*
X190528072Y-93240000D01*
X190515812Y-93115518D01*
X190479502Y-92995820D01*
X190420537Y-92885506D01*
X190341185Y-92788815D01*
X190244494Y-92709463D01*
X190134180Y-92650498D01*
X190014482Y-92614188D01*
X189890000Y-92601928D01*
X189675000Y-92601928D01*
X189675000Y-79428552D01*
X189678797Y-79389999D01*
X189675000Y-79351446D01*
X189675000Y-79351439D01*
X189663641Y-79236113D01*
X189618754Y-79088140D01*
X189545862Y-78951767D01*
X189447764Y-78832236D01*
X189417816Y-78807658D01*
X187588072Y-76977915D01*
X187588072Y-75685000D01*
X209411928Y-75685000D01*
X209411928Y-77450000D01*
X209424188Y-77574482D01*
X209460498Y-77694180D01*
X209519463Y-77804494D01*
X209598815Y-77901185D01*
X209695506Y-77980537D01*
X209805820Y-78039502D01*
X209925518Y-78075812D01*
X210050000Y-78088072D01*
X211911928Y-78088072D01*
X211911928Y-79950000D01*
X211924188Y-80074482D01*
X211960498Y-80194180D01*
X212019463Y-80304494D01*
X212070330Y-80366476D01*
X212013289Y-80413289D01*
X211927688Y-80517593D01*
X211864081Y-80636594D01*
X211824912Y-80765717D01*
X211811686Y-80900000D01*
X211815000Y-80933647D01*
X211815001Y-88366343D01*
X211811686Y-88400000D01*
X211824912Y-88534283D01*
X211864081Y-88663406D01*
X211927688Y-88782407D01*
X212013289Y-88886711D01*
X212117593Y-88972312D01*
X212236594Y-89035919D01*
X212365717Y-89075088D01*
X212466353Y-89085000D01*
X212500000Y-89088314D01*
X212533647Y-89085000D01*
X214315000Y-89085000D01*
X214315001Y-109411928D01*
X212550000Y-109411928D01*
X212425518Y-109424188D01*
X212305820Y-109460498D01*
X212195506Y-109519463D01*
X212098815Y-109598815D01*
X212019463Y-109695506D01*
X211960498Y-109805820D01*
X211924188Y-109925518D01*
X211911928Y-110050000D01*
X211911928Y-111911928D01*
X210050000Y-111911928D01*
X209925518Y-111924188D01*
X209805820Y-111960498D01*
X209695506Y-112019463D01*
X209598815Y-112098815D01*
X209519463Y-112195506D01*
X209460498Y-112305820D01*
X209424188Y-112425518D01*
X209411928Y-112550000D01*
X209411928Y-114315000D01*
X180585730Y-114315000D01*
X180585000Y-114085750D01*
X180426250Y-113927000D01*
X177577000Y-113927000D01*
X177577000Y-113947000D01*
X177323000Y-113947000D01*
X177323000Y-113927000D01*
X177303000Y-113927000D01*
X177303000Y-113673000D01*
X177323000Y-113673000D01*
X177323000Y-112073750D01*
X177577000Y-112073750D01*
X177577000Y-113673000D01*
X180426250Y-113673000D01*
X180585000Y-113514250D01*
X180588072Y-112550000D01*
X180575812Y-112425518D01*
X180539502Y-112305820D01*
X180480537Y-112195506D01*
X180401185Y-112098815D01*
X180304494Y-112019463D01*
X180194180Y-111960498D01*
X180074482Y-111924188D01*
X179950000Y-111911928D01*
X177735750Y-111915000D01*
X177577000Y-112073750D01*
X177323000Y-112073750D01*
X177164250Y-111915000D01*
X175685000Y-111912948D01*
X175685000Y-107559721D01*
X188985000Y-107559721D01*
X188985000Y-107980279D01*
X189067047Y-108392756D01*
X189227988Y-108781302D01*
X189461637Y-109130983D01*
X189759017Y-109428363D01*
X190108698Y-109662012D01*
X190497244Y-109822953D01*
X190909721Y-109905000D01*
X191330279Y-109905000D01*
X191742756Y-109822953D01*
X192131302Y-109662012D01*
X192480983Y-109428363D01*
X192778363Y-109130983D01*
X193012012Y-108781302D01*
X193172953Y-108392756D01*
X193255000Y-107980279D01*
X193255000Y-107559721D01*
X193172953Y-107147244D01*
X193012012Y-106758698D01*
X192778363Y-106409017D01*
X192480983Y-106111637D01*
X192131302Y-105877988D01*
X191742756Y-105717047D01*
X191330279Y-105635000D01*
X190909721Y-105635000D01*
X190497244Y-105717047D01*
X190108698Y-105877988D01*
X189759017Y-106111637D01*
X189461637Y-106409017D01*
X189227988Y-106758698D01*
X189067047Y-107147244D01*
X188985000Y-107559721D01*
X175685000Y-107559721D01*
X175685000Y-78087052D01*
X177164250Y-78085000D01*
X177323000Y-77926250D01*
X177323000Y-76327000D01*
X177577000Y-76327000D01*
X177577000Y-77926250D01*
X177735750Y-78085000D01*
X179950000Y-78088072D01*
X180074482Y-78075812D01*
X180194180Y-78039502D01*
X180304494Y-77980537D01*
X180401185Y-77901185D01*
X180480537Y-77804494D01*
X180539502Y-77694180D01*
X180575812Y-77574482D01*
X180588072Y-77450000D01*
X180585000Y-76485750D01*
X180426250Y-76327000D01*
X177577000Y-76327000D01*
X177323000Y-76327000D01*
X177303000Y-76327000D01*
X177303000Y-76073000D01*
X177323000Y-76073000D01*
X177323000Y-76053000D01*
X177577000Y-76053000D01*
X177577000Y-76073000D01*
X180426250Y-76073000D01*
X180585000Y-75914250D01*
X180585730Y-75685000D01*
X181311928Y-75685000D01*
X181311928Y-77450000D01*
X181311928Y-77450000D01*
G37*
X181311928Y-77450000D02*
X181324188Y-77574482D01*
X181360498Y-77694180D01*
X181419463Y-77804494D01*
X181498815Y-77901185D01*
X181595506Y-77980537D01*
X181705820Y-78039502D01*
X181825518Y-78075812D01*
X181950000Y-78088072D01*
X186477915Y-78088072D01*
X188105001Y-79715159D01*
X188105000Y-92601928D01*
X187890000Y-92601928D01*
X187765518Y-92614188D01*
X187645820Y-92650498D01*
X187535506Y-92709463D01*
X187438815Y-92788815D01*
X187359463Y-92885506D01*
X187300498Y-92995820D01*
X187264188Y-93115518D01*
X187251928Y-93240000D01*
X187251928Y-94240000D01*
X187264188Y-94364482D01*
X187300498Y-94484180D01*
X187359463Y-94594494D01*
X187438815Y-94691185D01*
X187535506Y-94770537D01*
X187645820Y-94829502D01*
X187765518Y-94865812D01*
X187890000Y-94878072D01*
X188105001Y-94878072D01*
X188105000Y-95121928D01*
X187890000Y-95121928D01*
X187765518Y-95134188D01*
X187645820Y-95170498D01*
X187535506Y-95229463D01*
X187438815Y-95308815D01*
X187359463Y-95405506D01*
X187300498Y-95515820D01*
X187264188Y-95635518D01*
X187251928Y-95760000D01*
X187251928Y-96760000D01*
X187264188Y-96884482D01*
X187300498Y-97004180D01*
X187359463Y-97114494D01*
X187438815Y-97211185D01*
X187535506Y-97290537D01*
X187645820Y-97349502D01*
X187765518Y-97385812D01*
X187890000Y-97398072D01*
X189890000Y-97398072D01*
X190014482Y-97385812D01*
X190134180Y-97349502D01*
X190244494Y-97290537D01*
X190341185Y-97211185D01*
X190420537Y-97114494D01*
X190479502Y-97004180D01*
X190515812Y-96884482D01*
X190528072Y-96760000D01*
X190528072Y-95760000D01*
X190515812Y-95635518D01*
X190479502Y-95515820D01*
X190420537Y-95405506D01*
X190341185Y-95308815D01*
X190244494Y-95229463D01*
X190134180Y-95170498D01*
X190014482Y-95134188D01*
X189890000Y-95121928D01*
X189675000Y-95121928D01*
X189675000Y-94878072D01*
X189890000Y-94878072D01*
X190014482Y-94865812D01*
X190134180Y-94829502D01*
X190244494Y-94770537D01*
X190341185Y-94691185D01*
X190420537Y-94594494D01*
X190479502Y-94484180D01*
X190515812Y-94364482D01*
X190528072Y-94240000D01*
X190528072Y-93240000D01*
X190515812Y-93115518D01*
X190479502Y-92995820D01*
X190420537Y-92885506D01*
X190341185Y-92788815D01*
X190244494Y-92709463D01*
X190134180Y-92650498D01*
X190014482Y-92614188D01*
X189890000Y-92601928D01*
X189675000Y-92601928D01*
X189675000Y-79428552D01*
X189678797Y-79389999D01*
X189675000Y-79351446D01*
X189675000Y-79351439D01*
X189663641Y-79236113D01*
X189618754Y-79088140D01*
X189545862Y-78951767D01*
X189447764Y-78832236D01*
X189417816Y-78807658D01*
X187588072Y-76977915D01*
X187588072Y-75685000D01*
X209411928Y-75685000D01*
X209411928Y-77450000D01*
X209424188Y-77574482D01*
X209460498Y-77694180D01*
X209519463Y-77804494D01*
X209598815Y-77901185D01*
X209695506Y-77980537D01*
X209805820Y-78039502D01*
X209925518Y-78075812D01*
X210050000Y-78088072D01*
X211911928Y-78088072D01*
X211911928Y-79950000D01*
X211924188Y-80074482D01*
X211960498Y-80194180D01*
X212019463Y-80304494D01*
X212070330Y-80366476D01*
X212013289Y-80413289D01*
X211927688Y-80517593D01*
X211864081Y-80636594D01*
X211824912Y-80765717D01*
X211811686Y-80900000D01*
X211815000Y-80933647D01*
X211815001Y-88366343D01*
X211811686Y-88400000D01*
X211824912Y-88534283D01*
X211864081Y-88663406D01*
X211927688Y-88782407D01*
X212013289Y-88886711D01*
X212117593Y-88972312D01*
X212236594Y-89035919D01*
X212365717Y-89075088D01*
X212466353Y-89085000D01*
X212500000Y-89088314D01*
X212533647Y-89085000D01*
X214315000Y-89085000D01*
X214315001Y-109411928D01*
X212550000Y-109411928D01*
X212425518Y-109424188D01*
X212305820Y-109460498D01*
X212195506Y-109519463D01*
X212098815Y-109598815D01*
X212019463Y-109695506D01*
X211960498Y-109805820D01*
X211924188Y-109925518D01*
X211911928Y-110050000D01*
X211911928Y-111911928D01*
X210050000Y-111911928D01*
X209925518Y-111924188D01*
X209805820Y-111960498D01*
X209695506Y-112019463D01*
X209598815Y-112098815D01*
X209519463Y-112195506D01*
X209460498Y-112305820D01*
X209424188Y-112425518D01*
X209411928Y-112550000D01*
X209411928Y-114315000D01*
X180585730Y-114315000D01*
X180585000Y-114085750D01*
X180426250Y-113927000D01*
X177577000Y-113927000D01*
X177577000Y-113947000D01*
X177323000Y-113947000D01*
X177323000Y-113927000D01*
X177303000Y-113927000D01*
X177303000Y-113673000D01*
X177323000Y-113673000D01*
X177323000Y-112073750D01*
X177577000Y-112073750D01*
X177577000Y-113673000D01*
X180426250Y-113673000D01*
X180585000Y-113514250D01*
X180588072Y-112550000D01*
X180575812Y-112425518D01*
X180539502Y-112305820D01*
X180480537Y-112195506D01*
X180401185Y-112098815D01*
X180304494Y-112019463D01*
X180194180Y-111960498D01*
X180074482Y-111924188D01*
X179950000Y-111911928D01*
X177735750Y-111915000D01*
X177577000Y-112073750D01*
X177323000Y-112073750D01*
X177164250Y-111915000D01*
X175685000Y-111912948D01*
X175685000Y-107559721D01*
X188985000Y-107559721D01*
X188985000Y-107980279D01*
X189067047Y-108392756D01*
X189227988Y-108781302D01*
X189461637Y-109130983D01*
X189759017Y-109428363D01*
X190108698Y-109662012D01*
X190497244Y-109822953D01*
X190909721Y-109905000D01*
X191330279Y-109905000D01*
X191742756Y-109822953D01*
X192131302Y-109662012D01*
X192480983Y-109428363D01*
X192778363Y-109130983D01*
X193012012Y-108781302D01*
X193172953Y-108392756D01*
X193255000Y-107980279D01*
X193255000Y-107559721D01*
X193172953Y-107147244D01*
X193012012Y-106758698D01*
X192778363Y-106409017D01*
X192480983Y-106111637D01*
X192131302Y-105877988D01*
X191742756Y-105717047D01*
X191330279Y-105635000D01*
X190909721Y-105635000D01*
X190497244Y-105717047D01*
X190108698Y-105877988D01*
X189759017Y-106111637D01*
X189461637Y-106409017D01*
X189227988Y-106758698D01*
X189067047Y-107147244D01*
X188985000Y-107559721D01*
X175685000Y-107559721D01*
X175685000Y-78087052D01*
X177164250Y-78085000D01*
X177323000Y-77926250D01*
X177323000Y-76327000D01*
X177577000Y-76327000D01*
X177577000Y-77926250D01*
X177735750Y-78085000D01*
X179950000Y-78088072D01*
X180074482Y-78075812D01*
X180194180Y-78039502D01*
X180304494Y-77980537D01*
X180401185Y-77901185D01*
X180480537Y-77804494D01*
X180539502Y-77694180D01*
X180575812Y-77574482D01*
X180588072Y-77450000D01*
X180585000Y-76485750D01*
X180426250Y-76327000D01*
X177577000Y-76327000D01*
X177323000Y-76327000D01*
X177303000Y-76327000D01*
X177303000Y-76073000D01*
X177323000Y-76073000D01*
X177323000Y-76053000D01*
X177577000Y-76053000D01*
X177577000Y-76073000D01*
X180426250Y-76073000D01*
X180585000Y-75914250D01*
X180585730Y-75685000D01*
X181311928Y-75685000D01*
X181311928Y-77450000D01*
M02*
