G04 #@! TF.GenerationSoftware,KiCad,Pcbnew,(5.1.4)-1*
G04 #@! TF.CreationDate,2019-10-10T18:52:02+02:00*
G04 #@! TF.ProjectId,SideRight,53696465-5269-4676-9874-2e6b69636164,rev?*
G04 #@! TF.SameCoordinates,Original*
G04 #@! TF.FileFunction,Legend,Bot*
G04 #@! TF.FilePolarity,Positive*
%FSLAX46Y46*%
G04 Gerber Fmt 4.6, Leading zero omitted, Abs format (unit mm)*
G04 Created by KiCad (PCBNEW (5.1.4)-1) date 2019-10-10 18:52:02*
%MOMM*%
%LPD*%
G04 APERTURE LIST*
%ADD10C,0.150000*%
G04 APERTURE END LIST*
D10*
X197976190Y-113857142D02*
X198023809Y-113904761D01*
X198166666Y-113952380D01*
X198261904Y-113952380D01*
X198404761Y-113904761D01*
X198500000Y-113809523D01*
X198547619Y-113714285D01*
X198595238Y-113523809D01*
X198595238Y-113380952D01*
X198547619Y-113190476D01*
X198500000Y-113095238D01*
X198404761Y-113000000D01*
X198261904Y-112952380D01*
X198166666Y-112952380D01*
X198023809Y-113000000D01*
X197976190Y-113047619D01*
X197119047Y-113285714D02*
X197119047Y-113952380D01*
X197547619Y-113285714D02*
X197547619Y-113809523D01*
X197500000Y-113904761D01*
X197404761Y-113952380D01*
X197261904Y-113952380D01*
X197166666Y-113904761D01*
X197119047Y-113857142D01*
X196642857Y-113952380D02*
X196642857Y-112952380D01*
X196642857Y-113333333D02*
X196547619Y-113285714D01*
X196357142Y-113285714D01*
X196261904Y-113333333D01*
X196214285Y-113380952D01*
X196166666Y-113476190D01*
X196166666Y-113761904D01*
X196214285Y-113857142D01*
X196261904Y-113904761D01*
X196357142Y-113952380D01*
X196547619Y-113952380D01*
X196642857Y-113904761D01*
X195833333Y-113285714D02*
X195595238Y-113952380D01*
X195357142Y-113285714D02*
X195595238Y-113952380D01*
X195690476Y-114190476D01*
X195738095Y-114238095D01*
X195833333Y-114285714D01*
X194357142Y-112952380D02*
X194023809Y-113952380D01*
X193690476Y-112952380D01*
X193166666Y-112952380D02*
X193071428Y-112952380D01*
X192976190Y-113000000D01*
X192928571Y-113047619D01*
X192880952Y-113142857D01*
X192833333Y-113333333D01*
X192833333Y-113571428D01*
X192880952Y-113761904D01*
X192928571Y-113857142D01*
X192976190Y-113904761D01*
X193071428Y-113952380D01*
X193166666Y-113952380D01*
X193261904Y-113904761D01*
X193309523Y-113857142D01*
X193357142Y-113761904D01*
X193404761Y-113571428D01*
X193404761Y-113333333D01*
X193357142Y-113142857D01*
X193309523Y-113047619D01*
X193261904Y-113000000D01*
X193166666Y-112952380D01*
X192404761Y-113857142D02*
X192357142Y-113904761D01*
X192404761Y-113952380D01*
X192452380Y-113904761D01*
X192404761Y-113857142D01*
X192404761Y-113952380D01*
X191404761Y-113952380D02*
X191976190Y-113952380D01*
X191690476Y-113952380D02*
X191690476Y-112952380D01*
X191785714Y-113095238D01*
X191880952Y-113190476D01*
X191976190Y-113238095D01*
M02*
