G04 #@! TF.GenerationSoftware,KiCad,Pcbnew,(5.1.4)-1*
G04 #@! TF.CreationDate,2019-10-10T18:52:02+02:00*
G04 #@! TF.ProjectId,SideRight,53696465-5269-4676-9874-2e6b69636164,rev?*
G04 #@! TF.SameCoordinates,Original*
G04 #@! TF.FileFunction,Copper,L1,Top*
G04 #@! TF.FilePolarity,Positive*
%FSLAX46Y46*%
G04 Gerber Fmt 4.6, Leading zero omitted, Abs format (unit mm)*
G04 Created by KiCad (PCBNEW (5.1.4)-1) date 2019-10-10 18:52:02*
%MOMM*%
%LPD*%
G04 APERTURE LIST*
%ADD10C,3.000000*%
%ADD11C,0.800000*%
%ADD12C,0.300000*%
%ADD13C,0.254000*%
G04 APERTURE END LIST*
D10*
X191120000Y-107770000D03*
D11*
X188890000Y-96260000D03*
X188890000Y-93740000D03*
X177450000Y-113800000D03*
X211300000Y-76200000D03*
X213800000Y-78700000D03*
X213800000Y-111300000D03*
X211300000Y-113800000D03*
X177450000Y-76200000D03*
D12*
X211300000Y-76200000D02*
X211300000Y-77550000D01*
X211300000Y-77550000D02*
X211300000Y-78630000D01*
X213800000Y-111300000D02*
X211300000Y-111300000D01*
D13*
G36*
X214315001Y-80215000D02*
G01*
X212533647Y-80215000D01*
X212500000Y-80211686D01*
X212466353Y-80215000D01*
X212365717Y-80224912D01*
X212236594Y-80264081D01*
X212117593Y-80327688D01*
X212013289Y-80413289D01*
X211927688Y-80517593D01*
X211864081Y-80636594D01*
X211824912Y-80765717D01*
X211811686Y-80900000D01*
X211815000Y-80933647D01*
X211815001Y-88366343D01*
X211811686Y-88400000D01*
X211824912Y-88534283D01*
X211864081Y-88663406D01*
X211927688Y-88782407D01*
X212013289Y-88886711D01*
X212117593Y-88972312D01*
X212236594Y-89035919D01*
X212365717Y-89075088D01*
X212466353Y-89085000D01*
X212500000Y-89088314D01*
X212533647Y-89085000D01*
X214315000Y-89085000D01*
X214315001Y-114315000D01*
X175685000Y-114315000D01*
X175685000Y-107559721D01*
X188985000Y-107559721D01*
X188985000Y-107980279D01*
X189067047Y-108392756D01*
X189227988Y-108781302D01*
X189461637Y-109130983D01*
X189759017Y-109428363D01*
X190108698Y-109662012D01*
X190497244Y-109822953D01*
X190909721Y-109905000D01*
X191330279Y-109905000D01*
X191742756Y-109822953D01*
X192131302Y-109662012D01*
X192480983Y-109428363D01*
X192778363Y-109130983D01*
X193012012Y-108781302D01*
X193172953Y-108392756D01*
X193255000Y-107980279D01*
X193255000Y-107559721D01*
X193172953Y-107147244D01*
X193012012Y-106758698D01*
X192778363Y-106409017D01*
X192480983Y-106111637D01*
X192131302Y-105877988D01*
X191742756Y-105717047D01*
X191330279Y-105635000D01*
X190909721Y-105635000D01*
X190497244Y-105717047D01*
X190108698Y-105877988D01*
X189759017Y-106111637D01*
X189461637Y-106409017D01*
X189227988Y-106758698D01*
X189067047Y-107147244D01*
X188985000Y-107559721D01*
X175685000Y-107559721D01*
X175685000Y-96158061D01*
X187855000Y-96158061D01*
X187855000Y-96361939D01*
X187894774Y-96561898D01*
X187972795Y-96750256D01*
X188086063Y-96919774D01*
X188230226Y-97063937D01*
X188399744Y-97177205D01*
X188588102Y-97255226D01*
X188788061Y-97295000D01*
X188991939Y-97295000D01*
X189191898Y-97255226D01*
X189380256Y-97177205D01*
X189549774Y-97063937D01*
X189693937Y-96919774D01*
X189807205Y-96750256D01*
X189885226Y-96561898D01*
X189925000Y-96361939D01*
X189925000Y-96158061D01*
X189885226Y-95958102D01*
X189807205Y-95769744D01*
X189693937Y-95600226D01*
X189549774Y-95456063D01*
X189380256Y-95342795D01*
X189191898Y-95264774D01*
X188991939Y-95225000D01*
X188788061Y-95225000D01*
X188588102Y-95264774D01*
X188399744Y-95342795D01*
X188230226Y-95456063D01*
X188086063Y-95600226D01*
X187972795Y-95769744D01*
X187894774Y-95958102D01*
X187855000Y-96158061D01*
X175685000Y-96158061D01*
X175685000Y-93638061D01*
X187855000Y-93638061D01*
X187855000Y-93841939D01*
X187894774Y-94041898D01*
X187972795Y-94230256D01*
X188086063Y-94399774D01*
X188230226Y-94543937D01*
X188399744Y-94657205D01*
X188588102Y-94735226D01*
X188788061Y-94775000D01*
X188991939Y-94775000D01*
X189191898Y-94735226D01*
X189380256Y-94657205D01*
X189549774Y-94543937D01*
X189693937Y-94399774D01*
X189807205Y-94230256D01*
X189885226Y-94041898D01*
X189925000Y-93841939D01*
X189925000Y-93638061D01*
X189885226Y-93438102D01*
X189807205Y-93249744D01*
X189693937Y-93080226D01*
X189549774Y-92936063D01*
X189380256Y-92822795D01*
X189191898Y-92744774D01*
X188991939Y-92705000D01*
X188788061Y-92705000D01*
X188588102Y-92744774D01*
X188399744Y-92822795D01*
X188230226Y-92936063D01*
X188086063Y-93080226D01*
X187972795Y-93249744D01*
X187894774Y-93438102D01*
X187855000Y-93638061D01*
X175685000Y-93638061D01*
X175685000Y-75685000D01*
X214315000Y-75685000D01*
X214315001Y-80215000D01*
X214315001Y-80215000D01*
G37*
X214315001Y-80215000D02*
X212533647Y-80215000D01*
X212500000Y-80211686D01*
X212466353Y-80215000D01*
X212365717Y-80224912D01*
X212236594Y-80264081D01*
X212117593Y-80327688D01*
X212013289Y-80413289D01*
X211927688Y-80517593D01*
X211864081Y-80636594D01*
X211824912Y-80765717D01*
X211811686Y-80900000D01*
X211815000Y-80933647D01*
X211815001Y-88366343D01*
X211811686Y-88400000D01*
X211824912Y-88534283D01*
X211864081Y-88663406D01*
X211927688Y-88782407D01*
X212013289Y-88886711D01*
X212117593Y-88972312D01*
X212236594Y-89035919D01*
X212365717Y-89075088D01*
X212466353Y-89085000D01*
X212500000Y-89088314D01*
X212533647Y-89085000D01*
X214315000Y-89085000D01*
X214315001Y-114315000D01*
X175685000Y-114315000D01*
X175685000Y-107559721D01*
X188985000Y-107559721D01*
X188985000Y-107980279D01*
X189067047Y-108392756D01*
X189227988Y-108781302D01*
X189461637Y-109130983D01*
X189759017Y-109428363D01*
X190108698Y-109662012D01*
X190497244Y-109822953D01*
X190909721Y-109905000D01*
X191330279Y-109905000D01*
X191742756Y-109822953D01*
X192131302Y-109662012D01*
X192480983Y-109428363D01*
X192778363Y-109130983D01*
X193012012Y-108781302D01*
X193172953Y-108392756D01*
X193255000Y-107980279D01*
X193255000Y-107559721D01*
X193172953Y-107147244D01*
X193012012Y-106758698D01*
X192778363Y-106409017D01*
X192480983Y-106111637D01*
X192131302Y-105877988D01*
X191742756Y-105717047D01*
X191330279Y-105635000D01*
X190909721Y-105635000D01*
X190497244Y-105717047D01*
X190108698Y-105877988D01*
X189759017Y-106111637D01*
X189461637Y-106409017D01*
X189227988Y-106758698D01*
X189067047Y-107147244D01*
X188985000Y-107559721D01*
X175685000Y-107559721D01*
X175685000Y-96158061D01*
X187855000Y-96158061D01*
X187855000Y-96361939D01*
X187894774Y-96561898D01*
X187972795Y-96750256D01*
X188086063Y-96919774D01*
X188230226Y-97063937D01*
X188399744Y-97177205D01*
X188588102Y-97255226D01*
X188788061Y-97295000D01*
X188991939Y-97295000D01*
X189191898Y-97255226D01*
X189380256Y-97177205D01*
X189549774Y-97063937D01*
X189693937Y-96919774D01*
X189807205Y-96750256D01*
X189885226Y-96561898D01*
X189925000Y-96361939D01*
X189925000Y-96158061D01*
X189885226Y-95958102D01*
X189807205Y-95769744D01*
X189693937Y-95600226D01*
X189549774Y-95456063D01*
X189380256Y-95342795D01*
X189191898Y-95264774D01*
X188991939Y-95225000D01*
X188788061Y-95225000D01*
X188588102Y-95264774D01*
X188399744Y-95342795D01*
X188230226Y-95456063D01*
X188086063Y-95600226D01*
X187972795Y-95769744D01*
X187894774Y-95958102D01*
X187855000Y-96158061D01*
X175685000Y-96158061D01*
X175685000Y-93638061D01*
X187855000Y-93638061D01*
X187855000Y-93841939D01*
X187894774Y-94041898D01*
X187972795Y-94230256D01*
X188086063Y-94399774D01*
X188230226Y-94543937D01*
X188399744Y-94657205D01*
X188588102Y-94735226D01*
X188788061Y-94775000D01*
X188991939Y-94775000D01*
X189191898Y-94735226D01*
X189380256Y-94657205D01*
X189549774Y-94543937D01*
X189693937Y-94399774D01*
X189807205Y-94230256D01*
X189885226Y-94041898D01*
X189925000Y-93841939D01*
X189925000Y-93638061D01*
X189885226Y-93438102D01*
X189807205Y-93249744D01*
X189693937Y-93080226D01*
X189549774Y-92936063D01*
X189380256Y-92822795D01*
X189191898Y-92744774D01*
X188991939Y-92705000D01*
X188788061Y-92705000D01*
X188588102Y-92744774D01*
X188399744Y-92822795D01*
X188230226Y-92936063D01*
X188086063Y-93080226D01*
X187972795Y-93249744D01*
X187894774Y-93438102D01*
X187855000Y-93638061D01*
X175685000Y-93638061D01*
X175685000Y-75685000D01*
X214315000Y-75685000D01*
X214315001Y-80215000D01*
M02*
